%TF.GenerationSoftware,KiCad,Pcbnew,(5.1.2)-1*%
%TF.CreationDate,2020-09-11T17:40:03+02:00*%
%TF.ProjectId,ArduinoShield_SPIlinedriver_Sync_2V0,41726475-696e-46f5-9368-69656c645f53,3.1*%
%TF.SameCoordinates,Original*%
%TF.FileFunction,Other,User*%
%FSLAX46Y46*%
G04 Gerber Fmt 4.6, Leading zero omitted, Abs format (unit mm)*
G04 Created by KiCad (PCBNEW (5.1.2)-1) date 2020-09-11 17:40:03*
%MOMM*%
%LPD*%
G04 APERTURE LIST*
%ADD10C,0.050000*%
G04 APERTURE END LIST*
D10*
X114003200Y-120195200D02*
X114003200Y-118995200D01*
X109003200Y-120195200D02*
X109003200Y-118995200D01*
X114003200Y-120195200D02*
X109003200Y-120195200D01*
X114003200Y-118995200D02*
X115903200Y-118995200D01*
X100403200Y-108995200D02*
X100403200Y-118995200D01*
X115903200Y-108995200D02*
X100403200Y-108995200D01*
X115903200Y-118995200D02*
X115903200Y-108995200D01*
X100403200Y-118995200D02*
X109003200Y-118995200D01*
X163970000Y-90988800D02*
X156070000Y-90988800D01*
X163970000Y-98088800D02*
X156070000Y-98088800D01*
X156070000Y-98088800D02*
X156070000Y-90988800D01*
X163970000Y-98088800D02*
X163970000Y-90988800D01*
X195608000Y-115796000D02*
X201658000Y-115796000D01*
X195608000Y-69096000D02*
X201658000Y-69096000D01*
X195608000Y-115796000D02*
X195608000Y-69096000D01*
X201658000Y-115796000D02*
X201658000Y-69096000D01*
X129568000Y-117376000D02*
X129568000Y-120876000D01*
X150868000Y-117376000D02*
X150868000Y-120876000D01*
X129568000Y-117376000D02*
X150868000Y-117376000D01*
X129568000Y-120876000D02*
X150868000Y-120876000D01*
X152428000Y-117376000D02*
X152428000Y-120876000D01*
X173728000Y-117376000D02*
X173728000Y-120876000D01*
X152428000Y-117376000D02*
X173728000Y-117376000D01*
X152428000Y-120876000D02*
X173728000Y-120876000D01*
X175288000Y-117376000D02*
X175288000Y-120876000D01*
X196588000Y-117376000D02*
X196588000Y-120876000D01*
X175288000Y-117376000D02*
X196588000Y-117376000D01*
X175288000Y-120876000D02*
X196588000Y-120876000D01*
X120424000Y-69116000D02*
X120424000Y-72616000D01*
X146824000Y-69116000D02*
X146824000Y-72616000D01*
X120424000Y-69116000D02*
X146824000Y-69116000D01*
X120424000Y-72616000D02*
X146824000Y-72616000D01*
X147348000Y-69116000D02*
X147348000Y-72616000D01*
X168648000Y-69116000D02*
X168648000Y-72616000D01*
X147348000Y-69116000D02*
X168648000Y-69116000D01*
X147348000Y-72616000D02*
X168648000Y-72616000D01*
X170208000Y-69116000D02*
X170208000Y-72616000D01*
X191508000Y-69116000D02*
X191508000Y-72616000D01*
X170208000Y-69116000D02*
X191508000Y-69116000D01*
X170208000Y-72616000D02*
X191508000Y-72616000D01*
X184408400Y-113898000D02*
X176068400Y-113898000D01*
X184408400Y-113898000D02*
X184408400Y-105558000D01*
X176068400Y-105558000D02*
X176068400Y-113898000D01*
X176068400Y-105558000D02*
X184408400Y-105558000D01*
X165248000Y-99716000D02*
X173588000Y-99716000D01*
X165248000Y-99716000D02*
X165248000Y-108056000D01*
X173588000Y-108056000D02*
X173588000Y-99716000D01*
X173588000Y-108056000D02*
X165248000Y-108056000D01*
X194454000Y-113912000D02*
X194454000Y-103512000D01*
X194454000Y-103512000D02*
X187054000Y-103512000D01*
X187054000Y-103512000D02*
X187054000Y-113912000D01*
X187054000Y-113912000D02*
X194454000Y-113912000D01*
X140808300Y-117230300D02*
X140808300Y-113680300D01*
X140808300Y-113680300D02*
X149458300Y-113680300D01*
X149458300Y-113680300D02*
X149458300Y-117230300D01*
X149458300Y-117230300D02*
X140808300Y-117230300D01*
X138231500Y-117230300D02*
X129581500Y-117230300D01*
X138231500Y-113680300D02*
X138231500Y-117230300D01*
X129581500Y-113680300D02*
X138231500Y-113680300D01*
X129581500Y-117230300D02*
X129581500Y-113680300D01*
X159010800Y-98177600D02*
X159010800Y-99637600D01*
X159010800Y-99637600D02*
X156050800Y-99637600D01*
X156050800Y-99637600D02*
X156050800Y-98177600D01*
X156050800Y-98177600D02*
X159010800Y-98177600D01*
X174618200Y-79787500D02*
X174618200Y-78327500D01*
X174618200Y-78327500D02*
X177578200Y-78327500D01*
X177578200Y-78327500D02*
X177578200Y-79787500D01*
X177578200Y-79787500D02*
X174618200Y-79787500D01*
X156050800Y-99752400D02*
X159010800Y-99752400D01*
X156050800Y-101212400D02*
X156050800Y-99752400D01*
X159010800Y-101212400D02*
X156050800Y-101212400D01*
X159010800Y-99752400D02*
X159010800Y-101212400D01*
X189998800Y-113976400D02*
X189998800Y-115436400D01*
X189998800Y-115436400D02*
X187038800Y-115436400D01*
X187038800Y-115436400D02*
X187038800Y-113976400D01*
X187038800Y-113976400D02*
X189998800Y-113976400D01*
X174618200Y-81311500D02*
X174618200Y-79851500D01*
X174618200Y-79851500D02*
X177578200Y-79851500D01*
X177578200Y-79851500D02*
X177578200Y-81311500D01*
X177578200Y-81311500D02*
X174618200Y-81311500D01*
X189998800Y-115500400D02*
X189998800Y-116960400D01*
X189998800Y-116960400D02*
X187038800Y-116960400D01*
X187038800Y-116960400D02*
X187038800Y-115500400D01*
X187038800Y-115500400D02*
X189998800Y-115500400D01*
X150120400Y-112893600D02*
X140760400Y-112893600D01*
X150120400Y-84413600D02*
X150120400Y-112893600D01*
X140760400Y-84413600D02*
X150120400Y-84413600D01*
X140760400Y-112893600D02*
X140760400Y-84413600D01*
X146034000Y-74161600D02*
X174514000Y-74161600D01*
X174514000Y-74161600D02*
X174514000Y-83521600D01*
X174514000Y-83521600D02*
X146034000Y-83521600D01*
X146034000Y-83521600D02*
X146034000Y-74161600D01*
X175638000Y-75120700D02*
X175638000Y-78320700D01*
X178438000Y-75120700D02*
X178438000Y-78320700D01*
X178438000Y-75120700D02*
X175638000Y-75120700D01*
X175638000Y-78320700D02*
X178438000Y-78320700D01*
X106453800Y-107877500D02*
X104213800Y-107877500D01*
X104213800Y-107877500D02*
X104213800Y-103317500D01*
X104213800Y-103317500D02*
X106453800Y-103317500D01*
X106453800Y-103317500D02*
X106453800Y-107877500D01*
X109707800Y-103320500D02*
X109707800Y-107880500D01*
X106547800Y-103320500D02*
X109707800Y-103320500D01*
X106547800Y-107880500D02*
X106547800Y-103320500D01*
X109707800Y-107880500D02*
X106547800Y-107880500D01*
X120671800Y-103952000D02*
X124031800Y-103952000D01*
X120671800Y-105852000D02*
X120671800Y-103952000D01*
X124031800Y-105852000D02*
X120671800Y-105852000D01*
X124031800Y-103952000D02*
X124031800Y-105852000D01*
X120553600Y-107826700D02*
X117393600Y-107826700D01*
X117393600Y-107826700D02*
X117393600Y-103266700D01*
X117393600Y-103266700D02*
X120553600Y-103266700D01*
X120553600Y-103266700D02*
X120553600Y-107826700D01*
X118569700Y-108225800D02*
X120469700Y-108225800D01*
X120469700Y-108225800D02*
X120469700Y-111585800D01*
X120469700Y-111585800D02*
X118569700Y-111585800D01*
X118569700Y-111585800D02*
X118569700Y-108225800D01*
X120621000Y-107922100D02*
X120621000Y-106022100D01*
X120621000Y-106022100D02*
X123981000Y-106022100D01*
X123981000Y-106022100D02*
X123981000Y-107922100D01*
X123981000Y-107922100D02*
X120621000Y-107922100D01*
X179266800Y-101400100D02*
X179266800Y-72920100D01*
X179266800Y-72920100D02*
X188626800Y-72920100D01*
X188626800Y-72920100D02*
X188626800Y-101400100D01*
X188626800Y-101400100D02*
X179266800Y-101400100D01*
X137420400Y-112893600D02*
X128060400Y-112893600D01*
X137420400Y-84413600D02*
X137420400Y-112893600D01*
X128060400Y-84413600D02*
X137420400Y-84413600D01*
X128060400Y-112893600D02*
X128060400Y-84413600D01*
X123993700Y-107990600D02*
X123993700Y-109890600D01*
X123993700Y-109890600D02*
X120633700Y-109890600D01*
X120633700Y-109890600D02*
X120633700Y-107990600D01*
X120633700Y-107990600D02*
X123993700Y-107990600D01*
X137507300Y-82325800D02*
X129167300Y-82325800D01*
X137507300Y-82325800D02*
X137507300Y-73985800D01*
X129167300Y-73985800D02*
X129167300Y-82325800D01*
X129167300Y-73985800D02*
X137507300Y-73985800D01*
X117238000Y-108262400D02*
X117238000Y-102862400D01*
X117238000Y-102862400D02*
X109838000Y-102862400D01*
X109838000Y-102862400D02*
X109838000Y-108262400D01*
X109838000Y-108262400D02*
X117238000Y-108262400D01*
M02*
