M48
; DRILL file {KiCad (5.1.2)-1} date 2020-09-11 17:40:01
; FORMAT={-:-/ absolute / metric / decimal}
; #@! TF.CreationDate,2020-09-11T17:40:01+02:00
; #@! TF.GenerationSoftware,Kicad,Pcbnew,(5.1.2)-1
; #@! TF.FileFunction,Plated,1,4,PTH
FMAT,2
METRIC
T1C0.300
T2C0.400
T3C0.800
T4C1.000
T5C1.016
T6C1.500
T7C1.700
T8C3.048
%
G90
G05
T1
X152.502Y-92.826
X153.264Y-89.103
X154.229Y-89.154
X155.397Y-89.205
X155.448Y-94.844
X164.389Y-95.504
X164.422Y-94.235
X165.049Y-93.574
X186.385Y-108.102
X186.984Y-95.125
X187.058Y-97.676
T2
X104.851Y-112.268
X104.902Y-120.294
X105.423Y-76.987
X110.947Y-103.073
X112.903Y-104.521
X112.903Y-105.521
X112.903Y-106.521
X114.173Y-104.521
X114.173Y-105.521
X114.173Y-106.521
X114.211Y-120.294
X114.503Y-110.084
X138.633Y-90.068
X144.17Y-84.023
X148.234Y-103.327
X148.641Y-98.603
X151.384Y-106.172
X152.756Y-82.042
X152.756Y-84.582
X155.194Y-82.042
X155.194Y-84.582
X155.346Y-96.876
X156.82Y-101.702
X157.886Y-89.002
X159.004Y-91.948
X159.817Y-98.908
X160.731Y-102.057
X162.966Y-98.4
X172.542Y-80.391
X176.771Y-81.166
X179.222Y-79.35
X183.083Y-73.711
X185.268Y-74.46
X186.436Y-105.512
X186.487Y-116.434
X186.538Y-98.908
X186.995Y-76.556
X187.757Y-87.579
X188.824Y-73.711
X190.652Y-99.873
X193.548Y-115.265
X194.107Y-76.098
T4
X167.005Y-91.211
X167.005Y-93.751
X167.005Y-96.291
X169.545Y-91.211
X169.545Y-93.751
X169.545Y-96.291
X131.381Y-115.43
X133.921Y-115.43
X136.462Y-115.43
X142.608Y-115.43
X145.148Y-115.43
X147.688Y-115.43
T5
X197.358Y-70.866
X197.358Y-73.406
X197.358Y-75.946
X197.358Y-78.486
X197.358Y-81.026
X197.358Y-83.566
X197.358Y-86.106
X197.358Y-88.646
X197.358Y-91.186
X197.358Y-93.726
X197.358Y-96.266
X197.358Y-98.806
X197.358Y-101.346
X197.358Y-103.886
X197.358Y-106.426
X197.358Y-108.966
X197.358Y-111.506
X197.358Y-114.046
X199.898Y-70.866
X199.898Y-73.406
X199.898Y-75.946
X199.898Y-78.486
X199.898Y-81.026
X199.898Y-83.566
X199.898Y-86.106
X199.898Y-88.646
X199.898Y-91.186
X199.898Y-93.726
X199.898Y-96.266
X199.898Y-98.806
X199.898Y-101.346
X199.898Y-103.886
X199.898Y-106.426
X199.898Y-108.966
X199.898Y-111.506
X199.898Y-114.046
X144.17Y-89.764
X144.17Y-92.304
X144.17Y-94.844
X144.17Y-97.384
X144.17Y-99.924
X144.17Y-102.464
X144.17Y-105.004
X144.17Y-107.544
X146.71Y-89.764
X146.71Y-92.304
X146.71Y-94.844
X146.71Y-97.384
X146.71Y-99.924
X146.71Y-102.464
X146.71Y-105.004
X146.71Y-107.544
X131.47Y-89.764
X131.47Y-92.304
X131.47Y-94.844
X131.47Y-97.384
X131.47Y-99.924
X131.47Y-102.464
X131.47Y-105.004
X131.47Y-107.544
X134.01Y-89.764
X134.01Y-92.304
X134.01Y-94.844
X134.01Y-97.384
X134.01Y-99.924
X134.01Y-102.464
X134.01Y-105.004
X134.01Y-107.544
X154.178Y-119.126
X156.718Y-119.126
X159.258Y-119.126
X161.798Y-119.126
X164.338Y-119.126
X166.878Y-119.126
X169.418Y-119.126
X171.958Y-119.126
X149.098Y-70.866
X151.638Y-70.866
X154.178Y-70.866
X156.718Y-70.866
X159.258Y-70.866
X161.798Y-70.866
X164.338Y-70.866
X166.878Y-70.866
X171.958Y-70.866
X174.498Y-70.866
X177.038Y-70.866
X179.578Y-70.866
X182.118Y-70.866
X184.658Y-70.866
X187.198Y-70.866
X189.738Y-70.866
X151.384Y-77.572
X151.384Y-80.112
X153.924Y-77.572
X153.924Y-80.112
X156.464Y-77.572
X156.464Y-80.112
X159.004Y-77.572
X159.004Y-80.112
X161.544Y-77.572
X161.544Y-80.112
X164.084Y-77.572
X164.084Y-80.112
X166.624Y-77.572
X166.624Y-80.112
X169.164Y-77.572
X169.164Y-80.112
X122.174Y-70.866
X124.714Y-70.866
X127.254Y-70.866
X129.794Y-70.866
X132.334Y-70.866
X134.874Y-70.866
X137.414Y-70.866
X139.954Y-70.866
X142.494Y-70.866
X145.034Y-70.866
X177.038Y-119.126
X179.578Y-119.126
X182.118Y-119.126
X184.658Y-119.126
X187.198Y-119.126
X189.738Y-119.126
X192.278Y-119.126
X194.818Y-119.126
X182.677Y-78.27
X182.677Y-80.81
X182.677Y-83.35
X182.677Y-85.89
X182.677Y-88.43
X182.677Y-90.97
X182.677Y-93.51
X182.677Y-96.05
X185.217Y-78.27
X185.217Y-80.81
X185.217Y-83.35
X185.217Y-85.89
X185.217Y-88.43
X185.217Y-90.97
X185.217Y-93.51
X185.217Y-96.05
X131.318Y-119.126
X133.858Y-119.126
X136.398Y-119.126
X138.938Y-119.126
X141.478Y-119.126
X144.018Y-119.126
X146.558Y-119.126
X149.098Y-119.126
T6
X180.238Y-109.728
X169.418Y-103.886
X133.337Y-78.156
T7
X177.698Y-107.188
X177.698Y-112.268
X182.778Y-107.188
X182.778Y-112.268
X166.878Y-101.346
X166.878Y-106.426
X171.958Y-101.346
X171.958Y-106.426
X130.797Y-75.616
X130.797Y-80.696
X135.877Y-75.616
X135.877Y-80.696
T8
X169.418Y-86.106
X199.898Y-119.126
X169.418Y-114.046
X118.618Y-70.866
X117.348Y-119.126
X193.548Y-70.866
T3
G00X108.703Y-112.895
M15
G01X108.703Y-115.095
M16
G05
G00X110.403Y-118.795
M15
G01X112.603Y-118.795
M16
G05
G00X114.503Y-112.695
M15
G01X114.503Y-115.295
M16
G05
T0
M30
