%TF.GenerationSoftware,KiCad,Pcbnew,(5.1.2)-1*%
%TF.CreationDate,2020-09-11T17:40:03+02:00*%
%TF.ProjectId,ArduinoShield_SPIlinedriver_Sync_2V0,41726475-696e-46f5-9368-69656c645f53,3.1*%
%TF.SameCoordinates,Original*%
%TF.FileFunction,Legend,Bot*%
%TF.FilePolarity,Positive*%
%FSLAX46Y46*%
G04 Gerber Fmt 4.6, Leading zero omitted, Abs format (unit mm)*
G04 Created by KiCad (PCBNEW (5.1.2)-1) date 2020-09-11 17:40:03*
%MOMM*%
%LPD*%
G04 APERTURE LIST*
%ADD10C,0.010000*%
%ADD11C,0.100000*%
G04 APERTURE END LIST*
D10*
G36*
X128402823Y-74179467D02*
G01*
X128434202Y-74157224D01*
X128461911Y-74129515D01*
X128461911Y-73820080D01*
X128461838Y-73728201D01*
X128461495Y-73656160D01*
X128460692Y-73601220D01*
X128459241Y-73560640D01*
X128456952Y-73531683D01*
X128453636Y-73511609D01*
X128449105Y-73497679D01*
X128443169Y-73487155D01*
X128438514Y-73480900D01*
X128407783Y-73456327D01*
X128372496Y-73453659D01*
X128340245Y-73468729D01*
X128329588Y-73477626D01*
X128322464Y-73489443D01*
X128318167Y-73508474D01*
X128315991Y-73539008D01*
X128315228Y-73585338D01*
X128315155Y-73621129D01*
X128315155Y-73755955D01*
X127818444Y-73755955D01*
X127818444Y-73633300D01*
X127817931Y-73577213D01*
X127815876Y-73538667D01*
X127811508Y-73512639D01*
X127804056Y-73494103D01*
X127795047Y-73480900D01*
X127764144Y-73456396D01*
X127729196Y-73453494D01*
X127695738Y-73470911D01*
X127686604Y-73480041D01*
X127680152Y-73492145D01*
X127675897Y-73510999D01*
X127673352Y-73540380D01*
X127672029Y-73584063D01*
X127671443Y-73645825D01*
X127671375Y-73660000D01*
X127670891Y-73776369D01*
X127670641Y-73872273D01*
X127670723Y-73949823D01*
X127671231Y-74011131D01*
X127672262Y-74058310D01*
X127673913Y-74093470D01*
X127676279Y-74118724D01*
X127679457Y-74136183D01*
X127683544Y-74147959D01*
X127688634Y-74156165D01*
X127694266Y-74162355D01*
X127726128Y-74182156D01*
X127759357Y-74179467D01*
X127790735Y-74157224D01*
X127803433Y-74142874D01*
X127811526Y-74127022D01*
X127816042Y-74104446D01*
X127818006Y-74069922D01*
X127818444Y-74018224D01*
X127818444Y-73902711D01*
X128315155Y-73902711D01*
X128315155Y-74021244D01*
X128315662Y-74075852D01*
X128317698Y-74112725D01*
X128322035Y-74136693D01*
X128329447Y-74152585D01*
X128337733Y-74162355D01*
X128369594Y-74182156D01*
X128402823Y-74179467D01*
X128402823Y-74179467D01*
G37*
X128402823Y-74179467D02*
X128434202Y-74157224D01*
X128461911Y-74129515D01*
X128461911Y-73820080D01*
X128461838Y-73728201D01*
X128461495Y-73656160D01*
X128460692Y-73601220D01*
X128459241Y-73560640D01*
X128456952Y-73531683D01*
X128453636Y-73511609D01*
X128449105Y-73497679D01*
X128443169Y-73487155D01*
X128438514Y-73480900D01*
X128407783Y-73456327D01*
X128372496Y-73453659D01*
X128340245Y-73468729D01*
X128329588Y-73477626D01*
X128322464Y-73489443D01*
X128318167Y-73508474D01*
X128315991Y-73539008D01*
X128315228Y-73585338D01*
X128315155Y-73621129D01*
X128315155Y-73755955D01*
X127818444Y-73755955D01*
X127818444Y-73633300D01*
X127817931Y-73577213D01*
X127815876Y-73538667D01*
X127811508Y-73512639D01*
X127804056Y-73494103D01*
X127795047Y-73480900D01*
X127764144Y-73456396D01*
X127729196Y-73453494D01*
X127695738Y-73470911D01*
X127686604Y-73480041D01*
X127680152Y-73492145D01*
X127675897Y-73510999D01*
X127673352Y-73540380D01*
X127672029Y-73584063D01*
X127671443Y-73645825D01*
X127671375Y-73660000D01*
X127670891Y-73776369D01*
X127670641Y-73872273D01*
X127670723Y-73949823D01*
X127671231Y-74011131D01*
X127672262Y-74058310D01*
X127673913Y-74093470D01*
X127676279Y-74118724D01*
X127679457Y-74136183D01*
X127683544Y-74147959D01*
X127688634Y-74156165D01*
X127694266Y-74162355D01*
X127726128Y-74182156D01*
X127759357Y-74179467D01*
X127790735Y-74157224D01*
X127803433Y-74142874D01*
X127811526Y-74127022D01*
X127816042Y-74104446D01*
X127818006Y-74069922D01*
X127818444Y-74018224D01*
X127818444Y-73902711D01*
X128315155Y-73902711D01*
X128315155Y-74021244D01*
X128315662Y-74075852D01*
X128317698Y-74112725D01*
X128322035Y-74136693D01*
X128329447Y-74152585D01*
X128337733Y-74162355D01*
X128369594Y-74182156D01*
X128402823Y-74179467D01*
G36*
X127137065Y-74184837D02*
G01*
X127215772Y-74184458D01*
X127276863Y-74183667D01*
X127322817Y-74182330D01*
X127356114Y-74180317D01*
X127379236Y-74177494D01*
X127394662Y-74173731D01*
X127404871Y-74168895D01*
X127409813Y-74165178D01*
X127435457Y-74132642D01*
X127438559Y-74098862D01*
X127422711Y-74068174D01*
X127412348Y-74055911D01*
X127401196Y-74047550D01*
X127385035Y-74042343D01*
X127359642Y-74039543D01*
X127320798Y-74038404D01*
X127264280Y-74038179D01*
X127253180Y-74038178D01*
X127107244Y-74038178D01*
X127107244Y-73767244D01*
X127107148Y-73681846D01*
X127106711Y-73616136D01*
X127105712Y-73567226D01*
X127103928Y-73532227D01*
X127101137Y-73508251D01*
X127097117Y-73492407D01*
X127091645Y-73481809D01*
X127084666Y-73473733D01*
X127051734Y-73453888D01*
X127017354Y-73455452D01*
X126986176Y-73478094D01*
X126983886Y-73480900D01*
X126976429Y-73491508D01*
X126970747Y-73503919D01*
X126966601Y-73521150D01*
X126963750Y-73546216D01*
X126961954Y-73582133D01*
X126960972Y-73631917D01*
X126960564Y-73698583D01*
X126960489Y-73774411D01*
X126960489Y-74038178D01*
X126821127Y-74038178D01*
X126761322Y-74038582D01*
X126719918Y-74040160D01*
X126692748Y-74043453D01*
X126675646Y-74049008D01*
X126664443Y-74057369D01*
X126663083Y-74058822D01*
X126646725Y-74092061D01*
X126648172Y-74129638D01*
X126666978Y-74162355D01*
X126674250Y-74168702D01*
X126683627Y-74173734D01*
X126697609Y-74177604D01*
X126718696Y-74180463D01*
X126749389Y-74182465D01*
X126792189Y-74183761D01*
X126849595Y-74184502D01*
X126924110Y-74184842D01*
X127018233Y-74184932D01*
X127038260Y-74184933D01*
X127137065Y-74184837D01*
X127137065Y-74184837D01*
G37*
X127137065Y-74184837D02*
X127215772Y-74184458D01*
X127276863Y-74183667D01*
X127322817Y-74182330D01*
X127356114Y-74180317D01*
X127379236Y-74177494D01*
X127394662Y-74173731D01*
X127404871Y-74168895D01*
X127409813Y-74165178D01*
X127435457Y-74132642D01*
X127438559Y-74098862D01*
X127422711Y-74068174D01*
X127412348Y-74055911D01*
X127401196Y-74047550D01*
X127385035Y-74042343D01*
X127359642Y-74039543D01*
X127320798Y-74038404D01*
X127264280Y-74038179D01*
X127253180Y-74038178D01*
X127107244Y-74038178D01*
X127107244Y-73767244D01*
X127107148Y-73681846D01*
X127106711Y-73616136D01*
X127105712Y-73567226D01*
X127103928Y-73532227D01*
X127101137Y-73508251D01*
X127097117Y-73492407D01*
X127091645Y-73481809D01*
X127084666Y-73473733D01*
X127051734Y-73453888D01*
X127017354Y-73455452D01*
X126986176Y-73478094D01*
X126983886Y-73480900D01*
X126976429Y-73491508D01*
X126970747Y-73503919D01*
X126966601Y-73521150D01*
X126963750Y-73546216D01*
X126961954Y-73582133D01*
X126960972Y-73631917D01*
X126960564Y-73698583D01*
X126960489Y-73774411D01*
X126960489Y-74038178D01*
X126821127Y-74038178D01*
X126761322Y-74038582D01*
X126719918Y-74040160D01*
X126692748Y-74043453D01*
X126675646Y-74049008D01*
X126664443Y-74057369D01*
X126663083Y-74058822D01*
X126646725Y-74092061D01*
X126648172Y-74129638D01*
X126666978Y-74162355D01*
X126674250Y-74168702D01*
X126683627Y-74173734D01*
X126697609Y-74177604D01*
X126718696Y-74180463D01*
X126749389Y-74182465D01*
X126792189Y-74183761D01*
X126849595Y-74184502D01*
X126924110Y-74184842D01*
X127018233Y-74184932D01*
X127038260Y-74184933D01*
X127137065Y-74184837D01*
G36*
X126362614Y-74178123D02*
G01*
X126386327Y-74163353D01*
X126412978Y-74141773D01*
X126412978Y-73820227D01*
X126412893Y-73726170D01*
X126412529Y-73652068D01*
X126411724Y-73595296D01*
X126410313Y-73553232D01*
X126408133Y-73523252D01*
X126405021Y-73502733D01*
X126400814Y-73489051D01*
X126395348Y-73479584D01*
X126391472Y-73474918D01*
X126360034Y-73454425D01*
X126324233Y-73455261D01*
X126292873Y-73472736D01*
X126266222Y-73494316D01*
X126266222Y-74141773D01*
X126292873Y-74163353D01*
X126318594Y-74179051D01*
X126339600Y-74184933D01*
X126362614Y-74178123D01*
X126362614Y-74178123D01*
G37*
X126362614Y-74178123D02*
X126386327Y-74163353D01*
X126412978Y-74141773D01*
X126412978Y-73820227D01*
X126412893Y-73726170D01*
X126412529Y-73652068D01*
X126411724Y-73595296D01*
X126410313Y-73553232D01*
X126408133Y-73523252D01*
X126405021Y-73502733D01*
X126400814Y-73489051D01*
X126395348Y-73479584D01*
X126391472Y-73474918D01*
X126360034Y-73454425D01*
X126324233Y-73455261D01*
X126292873Y-73472736D01*
X126266222Y-73494316D01*
X126266222Y-74141773D01*
X126292873Y-74163353D01*
X126318594Y-74179051D01*
X126339600Y-74184933D01*
X126362614Y-74178123D01*
G36*
X125918665Y-74182966D02*
G01*
X125938255Y-74175965D01*
X125939010Y-74175623D01*
X125965613Y-74155322D01*
X125980270Y-74134439D01*
X125983138Y-74124648D01*
X125982996Y-74111639D01*
X125978961Y-74093105D01*
X125970146Y-74066743D01*
X125955669Y-74030248D01*
X125934645Y-73981313D01*
X125906188Y-73917635D01*
X125869415Y-73836907D01*
X125849175Y-73792784D01*
X125812625Y-73714015D01*
X125778315Y-73641577D01*
X125747552Y-73578120D01*
X125721648Y-73526292D01*
X125701910Y-73488741D01*
X125689650Y-73468116D01*
X125687224Y-73465267D01*
X125656183Y-73452698D01*
X125621121Y-73454381D01*
X125593000Y-73469668D01*
X125591854Y-73470911D01*
X125580668Y-73487846D01*
X125561904Y-73520830D01*
X125537875Y-73565620D01*
X125510897Y-73617968D01*
X125501201Y-73637258D01*
X125428014Y-73783850D01*
X125348240Y-73624607D01*
X125319767Y-73569585D01*
X125293350Y-73521868D01*
X125271148Y-73485107D01*
X125255319Y-73462956D01*
X125249954Y-73458259D01*
X125208257Y-73451898D01*
X125173849Y-73465267D01*
X125163728Y-73479554D01*
X125146214Y-73511308D01*
X125122735Y-73557403D01*
X125094720Y-73614715D01*
X125063599Y-73680120D01*
X125030799Y-73750493D01*
X124997750Y-73822709D01*
X124965881Y-73893645D01*
X124936619Y-73960175D01*
X124911395Y-74019174D01*
X124891636Y-74067519D01*
X124878772Y-74102085D01*
X124874231Y-74119747D01*
X124874277Y-74120387D01*
X124885326Y-74142612D01*
X124907410Y-74165247D01*
X124908710Y-74166232D01*
X124935853Y-74181575D01*
X124960958Y-74181426D01*
X124970368Y-74178534D01*
X124981834Y-74172282D01*
X124994010Y-74159986D01*
X125008357Y-74139092D01*
X125026336Y-74107051D01*
X125049407Y-74061312D01*
X125079030Y-73999323D01*
X125105745Y-73942102D01*
X125136480Y-73875774D01*
X125164021Y-73816126D01*
X125186938Y-73766275D01*
X125203798Y-73729336D01*
X125213173Y-73708427D01*
X125214540Y-73705155D01*
X125220689Y-73710503D01*
X125234822Y-73732891D01*
X125255057Y-73769054D01*
X125279515Y-73815723D01*
X125289248Y-73834978D01*
X125322217Y-73899996D01*
X125347643Y-73947346D01*
X125367612Y-73979781D01*
X125384210Y-74000054D01*
X125399524Y-74010918D01*
X125415640Y-74015125D01*
X125426143Y-74015600D01*
X125444670Y-74013958D01*
X125460904Y-74007169D01*
X125477035Y-73992434D01*
X125495251Y-73966956D01*
X125517739Y-73927939D01*
X125546689Y-73872586D01*
X125562662Y-73841097D01*
X125588570Y-73790913D01*
X125611167Y-73749296D01*
X125628458Y-73719758D01*
X125638450Y-73705811D01*
X125639809Y-73705230D01*
X125646261Y-73716207D01*
X125660708Y-73744710D01*
X125681703Y-73787756D01*
X125707797Y-73842362D01*
X125737546Y-73905546D01*
X125752180Y-73936929D01*
X125790250Y-74017922D01*
X125820905Y-74080244D01*
X125845737Y-74125929D01*
X125866337Y-74157011D01*
X125884298Y-74175522D01*
X125901210Y-74183496D01*
X125918665Y-74182966D01*
X125918665Y-74182966D01*
G37*
X125918665Y-74182966D02*
X125938255Y-74175965D01*
X125939010Y-74175623D01*
X125965613Y-74155322D01*
X125980270Y-74134439D01*
X125983138Y-74124648D01*
X125982996Y-74111639D01*
X125978961Y-74093105D01*
X125970146Y-74066743D01*
X125955669Y-74030248D01*
X125934645Y-73981313D01*
X125906188Y-73917635D01*
X125869415Y-73836907D01*
X125849175Y-73792784D01*
X125812625Y-73714015D01*
X125778315Y-73641577D01*
X125747552Y-73578120D01*
X125721648Y-73526292D01*
X125701910Y-73488741D01*
X125689650Y-73468116D01*
X125687224Y-73465267D01*
X125656183Y-73452698D01*
X125621121Y-73454381D01*
X125593000Y-73469668D01*
X125591854Y-73470911D01*
X125580668Y-73487846D01*
X125561904Y-73520830D01*
X125537875Y-73565620D01*
X125510897Y-73617968D01*
X125501201Y-73637258D01*
X125428014Y-73783850D01*
X125348240Y-73624607D01*
X125319767Y-73569585D01*
X125293350Y-73521868D01*
X125271148Y-73485107D01*
X125255319Y-73462956D01*
X125249954Y-73458259D01*
X125208257Y-73451898D01*
X125173849Y-73465267D01*
X125163728Y-73479554D01*
X125146214Y-73511308D01*
X125122735Y-73557403D01*
X125094720Y-73614715D01*
X125063599Y-73680120D01*
X125030799Y-73750493D01*
X124997750Y-73822709D01*
X124965881Y-73893645D01*
X124936619Y-73960175D01*
X124911395Y-74019174D01*
X124891636Y-74067519D01*
X124878772Y-74102085D01*
X124874231Y-74119747D01*
X124874277Y-74120387D01*
X124885326Y-74142612D01*
X124907410Y-74165247D01*
X124908710Y-74166232D01*
X124935853Y-74181575D01*
X124960958Y-74181426D01*
X124970368Y-74178534D01*
X124981834Y-74172282D01*
X124994010Y-74159986D01*
X125008357Y-74139092D01*
X125026336Y-74107051D01*
X125049407Y-74061312D01*
X125079030Y-73999323D01*
X125105745Y-73942102D01*
X125136480Y-73875774D01*
X125164021Y-73816126D01*
X125186938Y-73766275D01*
X125203798Y-73729336D01*
X125213173Y-73708427D01*
X125214540Y-73705155D01*
X125220689Y-73710503D01*
X125234822Y-73732891D01*
X125255057Y-73769054D01*
X125279515Y-73815723D01*
X125289248Y-73834978D01*
X125322217Y-73899996D01*
X125347643Y-73947346D01*
X125367612Y-73979781D01*
X125384210Y-74000054D01*
X125399524Y-74010918D01*
X125415640Y-74015125D01*
X125426143Y-74015600D01*
X125444670Y-74013958D01*
X125460904Y-74007169D01*
X125477035Y-73992434D01*
X125495251Y-73966956D01*
X125517739Y-73927939D01*
X125546689Y-73872586D01*
X125562662Y-73841097D01*
X125588570Y-73790913D01*
X125611167Y-73749296D01*
X125628458Y-73719758D01*
X125638450Y-73705811D01*
X125639809Y-73705230D01*
X125646261Y-73716207D01*
X125660708Y-73744710D01*
X125681703Y-73787756D01*
X125707797Y-73842362D01*
X125737546Y-73905546D01*
X125752180Y-73936929D01*
X125790250Y-74017922D01*
X125820905Y-74080244D01*
X125845737Y-74125929D01*
X125866337Y-74157011D01*
X125884298Y-74175522D01*
X125901210Y-74183496D01*
X125918665Y-74182966D01*
G36*
X123192309Y-74184725D02*
G01*
X123321288Y-74180364D01*
X123430991Y-74167139D01*
X123523226Y-74144259D01*
X123599802Y-74110930D01*
X123662527Y-74066362D01*
X123713212Y-74009764D01*
X123753663Y-73940342D01*
X123754459Y-73938649D01*
X123778601Y-73876517D01*
X123787203Y-73821491D01*
X123780231Y-73766113D01*
X123757654Y-73702927D01*
X123753372Y-73693311D01*
X123724172Y-73637034D01*
X123691356Y-73593549D01*
X123649002Y-73556583D01*
X123591190Y-73519865D01*
X123587831Y-73517948D01*
X123537504Y-73493773D01*
X123480621Y-73475718D01*
X123413527Y-73463161D01*
X123332565Y-73455478D01*
X123234082Y-73452047D01*
X123199286Y-73451749D01*
X123033594Y-73451155D01*
X123010197Y-73480900D01*
X123003257Y-73490681D01*
X122997842Y-73502103D01*
X122993765Y-73517905D01*
X122990837Y-73540825D01*
X122988867Y-73573604D01*
X122988225Y-73597911D01*
X123144844Y-73597911D01*
X123238726Y-73597911D01*
X123293664Y-73599517D01*
X123350060Y-73603745D01*
X123396345Y-73609708D01*
X123399139Y-73610210D01*
X123481348Y-73632264D01*
X123545114Y-73665400D01*
X123592452Y-73711153D01*
X123625382Y-73771061D01*
X123631108Y-73786939D01*
X123636721Y-73811667D01*
X123634291Y-73836098D01*
X123622467Y-73868600D01*
X123615340Y-73884566D01*
X123592000Y-73926994D01*
X123563880Y-73956760D01*
X123532940Y-73977489D01*
X123470966Y-74004463D01*
X123391651Y-74024002D01*
X123299253Y-74035254D01*
X123232333Y-74037730D01*
X123144844Y-74038178D01*
X123144844Y-73597911D01*
X122988225Y-73597911D01*
X122987668Y-73618979D01*
X122987050Y-73679689D01*
X122986825Y-73758474D01*
X122986800Y-73820080D01*
X122986800Y-74129515D01*
X123014509Y-74157224D01*
X123026806Y-74168456D01*
X123040103Y-74176147D01*
X123058672Y-74180960D01*
X123086786Y-74183554D01*
X123128717Y-74184590D01*
X123188737Y-74184730D01*
X123192309Y-74184725D01*
X123192309Y-74184725D01*
G37*
X123192309Y-74184725D02*
X123321288Y-74180364D01*
X123430991Y-74167139D01*
X123523226Y-74144259D01*
X123599802Y-74110930D01*
X123662527Y-74066362D01*
X123713212Y-74009764D01*
X123753663Y-73940342D01*
X123754459Y-73938649D01*
X123778601Y-73876517D01*
X123787203Y-73821491D01*
X123780231Y-73766113D01*
X123757654Y-73702927D01*
X123753372Y-73693311D01*
X123724172Y-73637034D01*
X123691356Y-73593549D01*
X123649002Y-73556583D01*
X123591190Y-73519865D01*
X123587831Y-73517948D01*
X123537504Y-73493773D01*
X123480621Y-73475718D01*
X123413527Y-73463161D01*
X123332565Y-73455478D01*
X123234082Y-73452047D01*
X123199286Y-73451749D01*
X123033594Y-73451155D01*
X123010197Y-73480900D01*
X123003257Y-73490681D01*
X122997842Y-73502103D01*
X122993765Y-73517905D01*
X122990837Y-73540825D01*
X122988867Y-73573604D01*
X122988225Y-73597911D01*
X123144844Y-73597911D01*
X123238726Y-73597911D01*
X123293664Y-73599517D01*
X123350060Y-73603745D01*
X123396345Y-73609708D01*
X123399139Y-73610210D01*
X123481348Y-73632264D01*
X123545114Y-73665400D01*
X123592452Y-73711153D01*
X123625382Y-73771061D01*
X123631108Y-73786939D01*
X123636721Y-73811667D01*
X123634291Y-73836098D01*
X123622467Y-73868600D01*
X123615340Y-73884566D01*
X123592000Y-73926994D01*
X123563880Y-73956760D01*
X123532940Y-73977489D01*
X123470966Y-74004463D01*
X123391651Y-74024002D01*
X123299253Y-74035254D01*
X123232333Y-74037730D01*
X123144844Y-74038178D01*
X123144844Y-73597911D01*
X122988225Y-73597911D01*
X122987668Y-73618979D01*
X122987050Y-73679689D01*
X122986825Y-73758474D01*
X122986800Y-73820080D01*
X122986800Y-74129515D01*
X123014509Y-74157224D01*
X123026806Y-74168456D01*
X123040103Y-74176147D01*
X123058672Y-74180960D01*
X123086786Y-74183554D01*
X123128717Y-74184590D01*
X123188737Y-74184730D01*
X123192309Y-74184725D01*
G36*
X122404343Y-74184740D02*
G01*
X122480701Y-74183826D01*
X122539217Y-74181689D01*
X122582255Y-74177825D01*
X122612183Y-74171733D01*
X122631368Y-74162910D01*
X122642176Y-74150854D01*
X122646973Y-74135061D01*
X122648127Y-74115030D01*
X122648133Y-74112665D01*
X122647131Y-74090008D01*
X122642396Y-74072497D01*
X122631333Y-74059426D01*
X122611348Y-74050087D01*
X122579846Y-74043773D01*
X122534232Y-74039778D01*
X122471913Y-74037394D01*
X122390293Y-74035914D01*
X122365277Y-74035586D01*
X122123200Y-74032533D01*
X122119814Y-73967622D01*
X122116429Y-73902711D01*
X122284576Y-73902711D01*
X122350266Y-73902469D01*
X122397172Y-73901444D01*
X122429083Y-73899189D01*
X122449791Y-73895258D01*
X122463084Y-73889202D01*
X122472755Y-73880576D01*
X122472817Y-73880507D01*
X122490356Y-73846888D01*
X122489722Y-73810552D01*
X122471314Y-73779577D01*
X122467671Y-73776393D01*
X122454741Y-73768188D01*
X122437024Y-73762479D01*
X122410570Y-73758838D01*
X122371432Y-73756833D01*
X122315662Y-73756036D01*
X122279994Y-73755955D01*
X122117555Y-73755955D01*
X122117555Y-73597911D01*
X122364161Y-73597911D01*
X122445580Y-73597769D01*
X122507410Y-73597186D01*
X122552637Y-73595932D01*
X122584248Y-73593773D01*
X122605231Y-73590477D01*
X122618573Y-73585811D01*
X122627261Y-73579543D01*
X122629450Y-73577267D01*
X122645614Y-73545720D01*
X122646797Y-73509832D01*
X122633536Y-73478715D01*
X122623043Y-73468729D01*
X122612129Y-73463231D01*
X122595217Y-73458978D01*
X122569633Y-73455820D01*
X122532701Y-73453608D01*
X122481746Y-73452194D01*
X122414094Y-73451428D01*
X122327069Y-73451162D01*
X122307394Y-73451155D01*
X122218911Y-73451213D01*
X122150227Y-73451533D01*
X122098564Y-73452333D01*
X122061145Y-73453833D01*
X122035190Y-73456251D01*
X122017922Y-73459806D01*
X122006562Y-73464718D01*
X121998332Y-73471205D01*
X121993817Y-73475862D01*
X121987021Y-73484111D01*
X121981712Y-73494331D01*
X121977706Y-73509200D01*
X121974821Y-73531398D01*
X121972874Y-73563607D01*
X121971681Y-73608504D01*
X121971061Y-73668772D01*
X121970829Y-73747089D01*
X121970800Y-73813006D01*
X121970871Y-73905372D01*
X121971208Y-73977883D01*
X121971998Y-74033263D01*
X121973426Y-74074235D01*
X121975679Y-74103522D01*
X121978943Y-74123847D01*
X121983404Y-74137934D01*
X121989248Y-74148505D01*
X121994197Y-74155189D01*
X122017594Y-74184933D01*
X122307774Y-74184933D01*
X122404343Y-74184740D01*
X122404343Y-74184740D01*
G37*
X122404343Y-74184740D02*
X122480701Y-74183826D01*
X122539217Y-74181689D01*
X122582255Y-74177825D01*
X122612183Y-74171733D01*
X122631368Y-74162910D01*
X122642176Y-74150854D01*
X122646973Y-74135061D01*
X122648127Y-74115030D01*
X122648133Y-74112665D01*
X122647131Y-74090008D01*
X122642396Y-74072497D01*
X122631333Y-74059426D01*
X122611348Y-74050087D01*
X122579846Y-74043773D01*
X122534232Y-74039778D01*
X122471913Y-74037394D01*
X122390293Y-74035914D01*
X122365277Y-74035586D01*
X122123200Y-74032533D01*
X122119814Y-73967622D01*
X122116429Y-73902711D01*
X122284576Y-73902711D01*
X122350266Y-73902469D01*
X122397172Y-73901444D01*
X122429083Y-73899189D01*
X122449791Y-73895258D01*
X122463084Y-73889202D01*
X122472755Y-73880576D01*
X122472817Y-73880507D01*
X122490356Y-73846888D01*
X122489722Y-73810552D01*
X122471314Y-73779577D01*
X122467671Y-73776393D01*
X122454741Y-73768188D01*
X122437024Y-73762479D01*
X122410570Y-73758838D01*
X122371432Y-73756833D01*
X122315662Y-73756036D01*
X122279994Y-73755955D01*
X122117555Y-73755955D01*
X122117555Y-73597911D01*
X122364161Y-73597911D01*
X122445580Y-73597769D01*
X122507410Y-73597186D01*
X122552637Y-73595932D01*
X122584248Y-73593773D01*
X122605231Y-73590477D01*
X122618573Y-73585811D01*
X122627261Y-73579543D01*
X122629450Y-73577267D01*
X122645614Y-73545720D01*
X122646797Y-73509832D01*
X122633536Y-73478715D01*
X122623043Y-73468729D01*
X122612129Y-73463231D01*
X122595217Y-73458978D01*
X122569633Y-73455820D01*
X122532701Y-73453608D01*
X122481746Y-73452194D01*
X122414094Y-73451428D01*
X122327069Y-73451162D01*
X122307394Y-73451155D01*
X122218911Y-73451213D01*
X122150227Y-73451533D01*
X122098564Y-73452333D01*
X122061145Y-73453833D01*
X122035190Y-73456251D01*
X122017922Y-73459806D01*
X122006562Y-73464718D01*
X121998332Y-73471205D01*
X121993817Y-73475862D01*
X121987021Y-73484111D01*
X121981712Y-73494331D01*
X121977706Y-73509200D01*
X121974821Y-73531398D01*
X121972874Y-73563607D01*
X121971681Y-73608504D01*
X121971061Y-73668772D01*
X121970829Y-73747089D01*
X121970800Y-73813006D01*
X121970871Y-73905372D01*
X121971208Y-73977883D01*
X121971998Y-74033263D01*
X121973426Y-74074235D01*
X121975679Y-74103522D01*
X121978943Y-74123847D01*
X121983404Y-74137934D01*
X121989248Y-74148505D01*
X121994197Y-74155189D01*
X122017594Y-74184933D01*
X122307774Y-74184933D01*
X122404343Y-74184740D01*
G36*
X120873886Y-74180552D02*
G01*
X120897452Y-74166727D01*
X120928265Y-74144119D01*
X120967922Y-74111662D01*
X121018020Y-74068292D01*
X121080157Y-74012942D01*
X121155928Y-73944549D01*
X121242666Y-73865916D01*
X121423289Y-73702122D01*
X121428933Y-73921971D01*
X121430971Y-73997649D01*
X121432937Y-74054006D01*
X121435266Y-74094294D01*
X121438394Y-74121765D01*
X121442755Y-74139671D01*
X121448784Y-74151263D01*
X121456916Y-74159792D01*
X121461228Y-74163377D01*
X121495759Y-74182330D01*
X121528617Y-74179559D01*
X121554682Y-74163367D01*
X121581333Y-74141801D01*
X121584648Y-73826849D01*
X121585565Y-73734221D01*
X121586032Y-73661456D01*
X121585887Y-73605839D01*
X121584968Y-73564658D01*
X121583113Y-73535197D01*
X121580161Y-73514745D01*
X121575950Y-73500587D01*
X121570318Y-73490009D01*
X121564073Y-73481526D01*
X121550561Y-73465793D01*
X121537117Y-73455364D01*
X121521876Y-73451361D01*
X121502974Y-73454906D01*
X121478545Y-73467121D01*
X121446727Y-73489129D01*
X121405652Y-73522051D01*
X121353458Y-73567009D01*
X121288278Y-73625125D01*
X121214444Y-73691901D01*
X120949155Y-73932542D01*
X120943511Y-73713411D01*
X120941469Y-73637872D01*
X120939498Y-73581646D01*
X120937161Y-73541476D01*
X120934019Y-73514104D01*
X120929636Y-73496272D01*
X120923576Y-73484721D01*
X120915400Y-73476193D01*
X120911216Y-73472718D01*
X120874235Y-73453628D01*
X120839292Y-73456507D01*
X120808864Y-73480900D01*
X120801903Y-73490714D01*
X120796477Y-73502174D01*
X120792397Y-73518032D01*
X120789471Y-73541037D01*
X120787508Y-73573938D01*
X120786317Y-73619484D01*
X120785708Y-73680427D01*
X120785489Y-73759514D01*
X120785466Y-73818044D01*
X120785540Y-73909593D01*
X120785887Y-73981313D01*
X120786699Y-74035955D01*
X120788167Y-74076268D01*
X120790481Y-74105002D01*
X120793833Y-74124907D01*
X120798412Y-74138732D01*
X120804411Y-74149228D01*
X120808864Y-74155189D01*
X120820150Y-74169309D01*
X120830699Y-74179971D01*
X120842107Y-74186108D01*
X120855970Y-74186657D01*
X120873886Y-74180552D01*
X120873886Y-74180552D01*
G37*
X120873886Y-74180552D02*
X120897452Y-74166727D01*
X120928265Y-74144119D01*
X120967922Y-74111662D01*
X121018020Y-74068292D01*
X121080157Y-74012942D01*
X121155928Y-73944549D01*
X121242666Y-73865916D01*
X121423289Y-73702122D01*
X121428933Y-73921971D01*
X121430971Y-73997649D01*
X121432937Y-74054006D01*
X121435266Y-74094294D01*
X121438394Y-74121765D01*
X121442755Y-74139671D01*
X121448784Y-74151263D01*
X121456916Y-74159792D01*
X121461228Y-74163377D01*
X121495759Y-74182330D01*
X121528617Y-74179559D01*
X121554682Y-74163367D01*
X121581333Y-74141801D01*
X121584648Y-73826849D01*
X121585565Y-73734221D01*
X121586032Y-73661456D01*
X121585887Y-73605839D01*
X121584968Y-73564658D01*
X121583113Y-73535197D01*
X121580161Y-73514745D01*
X121575950Y-73500587D01*
X121570318Y-73490009D01*
X121564073Y-73481526D01*
X121550561Y-73465793D01*
X121537117Y-73455364D01*
X121521876Y-73451361D01*
X121502974Y-73454906D01*
X121478545Y-73467121D01*
X121446727Y-73489129D01*
X121405652Y-73522051D01*
X121353458Y-73567009D01*
X121288278Y-73625125D01*
X121214444Y-73691901D01*
X120949155Y-73932542D01*
X120943511Y-73713411D01*
X120941469Y-73637872D01*
X120939498Y-73581646D01*
X120937161Y-73541476D01*
X120934019Y-73514104D01*
X120929636Y-73496272D01*
X120923576Y-73484721D01*
X120915400Y-73476193D01*
X120911216Y-73472718D01*
X120874235Y-73453628D01*
X120839292Y-73456507D01*
X120808864Y-73480900D01*
X120801903Y-73490714D01*
X120796477Y-73502174D01*
X120792397Y-73518032D01*
X120789471Y-73541037D01*
X120787508Y-73573938D01*
X120786317Y-73619484D01*
X120785708Y-73680427D01*
X120785489Y-73759514D01*
X120785466Y-73818044D01*
X120785540Y-73909593D01*
X120785887Y-73981313D01*
X120786699Y-74035955D01*
X120788167Y-74076268D01*
X120790481Y-74105002D01*
X120793833Y-74124907D01*
X120798412Y-74138732D01*
X120804411Y-74149228D01*
X120808864Y-74155189D01*
X120820150Y-74169309D01*
X120830699Y-74179971D01*
X120842107Y-74186108D01*
X120855970Y-74186657D01*
X120873886Y-74180552D01*
G36*
X120223919Y-74179401D02*
G01*
X120292435Y-74167905D01*
X120345057Y-74150033D01*
X120379292Y-74126501D01*
X120388621Y-74113076D01*
X120398107Y-74081852D01*
X120391723Y-74053605D01*
X120371570Y-74026818D01*
X120340255Y-74014287D01*
X120294817Y-74015304D01*
X120259674Y-74022094D01*
X120181581Y-74035029D01*
X120101774Y-74036258D01*
X120012445Y-74025759D01*
X119987771Y-74021310D01*
X119904709Y-73997892D01*
X119839727Y-73963055D01*
X119793539Y-73917396D01*
X119766855Y-73861506D01*
X119761337Y-73832612D01*
X119764949Y-73773988D01*
X119788271Y-73722121D01*
X119829176Y-73678022D01*
X119885541Y-73642701D01*
X119955240Y-73617171D01*
X120036148Y-73602441D01*
X120126140Y-73599522D01*
X120223090Y-73609425D01*
X120228564Y-73610359D01*
X120267125Y-73617541D01*
X120288506Y-73624479D01*
X120297773Y-73634773D01*
X120299994Y-73652024D01*
X120300044Y-73661159D01*
X120300044Y-73699511D01*
X120231569Y-73699511D01*
X120171100Y-73703653D01*
X120129835Y-73716853D01*
X120105825Y-73740270D01*
X120097123Y-73775064D01*
X120097017Y-73779606D01*
X120102108Y-73809346D01*
X120119567Y-73830581D01*
X120152061Y-73844634D01*
X120202257Y-73852827D01*
X120250877Y-73855839D01*
X120321544Y-73857567D01*
X120372802Y-73854930D01*
X120407761Y-73845200D01*
X120429530Y-73825647D01*
X120441220Y-73793544D01*
X120445940Y-73746162D01*
X120446800Y-73683929D01*
X120445391Y-73614465D01*
X120441152Y-73567214D01*
X120434064Y-73541988D01*
X120432689Y-73540012D01*
X120393772Y-73508492D01*
X120336714Y-73483530D01*
X120265131Y-73465660D01*
X120182642Y-73455414D01*
X120092861Y-73453327D01*
X119999408Y-73459932D01*
X119944444Y-73468044D01*
X119858234Y-73492446D01*
X119778108Y-73532338D01*
X119711023Y-73584113D01*
X119700827Y-73594461D01*
X119667698Y-73637965D01*
X119637806Y-73691882D01*
X119614643Y-73748408D01*
X119601702Y-73799741D01*
X119600142Y-73819456D01*
X119606782Y-73860581D01*
X119624432Y-73911748D01*
X119649703Y-73965606D01*
X119679211Y-74014805D01*
X119705281Y-74047666D01*
X119766235Y-74096548D01*
X119845031Y-74135455D01*
X119938843Y-74163506D01*
X120044850Y-74179821D01*
X120142000Y-74183808D01*
X120223919Y-74179401D01*
X120223919Y-74179401D01*
G37*
X120223919Y-74179401D02*
X120292435Y-74167905D01*
X120345057Y-74150033D01*
X120379292Y-74126501D01*
X120388621Y-74113076D01*
X120398107Y-74081852D01*
X120391723Y-74053605D01*
X120371570Y-74026818D01*
X120340255Y-74014287D01*
X120294817Y-74015304D01*
X120259674Y-74022094D01*
X120181581Y-74035029D01*
X120101774Y-74036258D01*
X120012445Y-74025759D01*
X119987771Y-74021310D01*
X119904709Y-73997892D01*
X119839727Y-73963055D01*
X119793539Y-73917396D01*
X119766855Y-73861506D01*
X119761337Y-73832612D01*
X119764949Y-73773988D01*
X119788271Y-73722121D01*
X119829176Y-73678022D01*
X119885541Y-73642701D01*
X119955240Y-73617171D01*
X120036148Y-73602441D01*
X120126140Y-73599522D01*
X120223090Y-73609425D01*
X120228564Y-73610359D01*
X120267125Y-73617541D01*
X120288506Y-73624479D01*
X120297773Y-73634773D01*
X120299994Y-73652024D01*
X120300044Y-73661159D01*
X120300044Y-73699511D01*
X120231569Y-73699511D01*
X120171100Y-73703653D01*
X120129835Y-73716853D01*
X120105825Y-73740270D01*
X120097123Y-73775064D01*
X120097017Y-73779606D01*
X120102108Y-73809346D01*
X120119567Y-73830581D01*
X120152061Y-73844634D01*
X120202257Y-73852827D01*
X120250877Y-73855839D01*
X120321544Y-73857567D01*
X120372802Y-73854930D01*
X120407761Y-73845200D01*
X120429530Y-73825647D01*
X120441220Y-73793544D01*
X120445940Y-73746162D01*
X120446800Y-73683929D01*
X120445391Y-73614465D01*
X120441152Y-73567214D01*
X120434064Y-73541988D01*
X120432689Y-73540012D01*
X120393772Y-73508492D01*
X120336714Y-73483530D01*
X120265131Y-73465660D01*
X120182642Y-73455414D01*
X120092861Y-73453327D01*
X119999408Y-73459932D01*
X119944444Y-73468044D01*
X119858234Y-73492446D01*
X119778108Y-73532338D01*
X119711023Y-73584113D01*
X119700827Y-73594461D01*
X119667698Y-73637965D01*
X119637806Y-73691882D01*
X119614643Y-73748408D01*
X119601702Y-73799741D01*
X119600142Y-73819456D01*
X119606782Y-73860581D01*
X119624432Y-73911748D01*
X119649703Y-73965606D01*
X119679211Y-74014805D01*
X119705281Y-74047666D01*
X119766235Y-74096548D01*
X119845031Y-74135455D01*
X119938843Y-74163506D01*
X120044850Y-74179821D01*
X120142000Y-74183808D01*
X120223919Y-74179401D01*
G36*
X119250178Y-74162355D02*
G01*
X119256758Y-74154782D01*
X119261921Y-74145013D01*
X119265836Y-74130429D01*
X119268676Y-74108415D01*
X119270613Y-74076352D01*
X119271817Y-74031625D01*
X119272461Y-73971615D01*
X119272716Y-73893706D01*
X119272755Y-73818044D01*
X119272686Y-73724198D01*
X119272362Y-73650311D01*
X119271614Y-73593768D01*
X119270268Y-73551951D01*
X119268154Y-73522243D01*
X119265100Y-73502027D01*
X119260934Y-73488686D01*
X119255484Y-73479602D01*
X119250178Y-73473733D01*
X119217174Y-73454053D01*
X119182009Y-73455819D01*
X119150545Y-73477283D01*
X119143316Y-73485663D01*
X119137666Y-73495386D01*
X119133401Y-73509139D01*
X119130327Y-73529611D01*
X119128248Y-73559488D01*
X119126970Y-73601459D01*
X119126299Y-73658211D01*
X119126041Y-73732433D01*
X119126000Y-73816463D01*
X119126000Y-74129515D01*
X119153709Y-74157224D01*
X119187863Y-74180537D01*
X119220994Y-74181377D01*
X119250178Y-74162355D01*
X119250178Y-74162355D01*
G37*
X119250178Y-74162355D02*
X119256758Y-74154782D01*
X119261921Y-74145013D01*
X119265836Y-74130429D01*
X119268676Y-74108415D01*
X119270613Y-74076352D01*
X119271817Y-74031625D01*
X119272461Y-73971615D01*
X119272716Y-73893706D01*
X119272755Y-73818044D01*
X119272686Y-73724198D01*
X119272362Y-73650311D01*
X119271614Y-73593768D01*
X119270268Y-73551951D01*
X119268154Y-73522243D01*
X119265100Y-73502027D01*
X119260934Y-73488686D01*
X119255484Y-73479602D01*
X119250178Y-73473733D01*
X119217174Y-73454053D01*
X119182009Y-73455819D01*
X119150545Y-73477283D01*
X119143316Y-73485663D01*
X119137666Y-73495386D01*
X119133401Y-73509139D01*
X119130327Y-73529611D01*
X119128248Y-73559488D01*
X119126970Y-73601459D01*
X119126299Y-73658211D01*
X119126041Y-73732433D01*
X119126000Y-73816463D01*
X119126000Y-74129515D01*
X119153709Y-74157224D01*
X119187863Y-74180537D01*
X119220994Y-74181377D01*
X119250178Y-74162355D01*
G36*
X118482297Y-74183649D02*
G01*
X118557112Y-74178419D01*
X118626694Y-74170250D01*
X118686998Y-74159450D01*
X118733980Y-74146327D01*
X118763594Y-74131187D01*
X118768140Y-74126731D01*
X118783946Y-74092150D01*
X118779153Y-74056649D01*
X118754636Y-74026275D01*
X118753466Y-74025404D01*
X118739046Y-74016046D01*
X118723992Y-74011124D01*
X118702995Y-74010527D01*
X118670743Y-74014139D01*
X118621927Y-74021846D01*
X118618000Y-74022495D01*
X118545261Y-74031431D01*
X118466783Y-74035839D01*
X118388073Y-74035881D01*
X118314639Y-74031721D01*
X118251989Y-74023521D01*
X118205630Y-74011443D01*
X118202584Y-74010229D01*
X118168952Y-73991385D01*
X118157136Y-73972315D01*
X118166386Y-73953561D01*
X118195953Y-73935663D01*
X118245089Y-73919163D01*
X118313043Y-73904604D01*
X118358355Y-73897594D01*
X118452544Y-73884111D01*
X118527456Y-73871786D01*
X118586283Y-73859551D01*
X118632215Y-73846339D01*
X118668445Y-73831083D01*
X118698162Y-73812715D01*
X118724558Y-73790169D01*
X118745770Y-73768029D01*
X118770935Y-73737181D01*
X118783319Y-73710655D01*
X118787192Y-73677974D01*
X118787333Y-73666005D01*
X118784424Y-73626288D01*
X118772798Y-73596741D01*
X118752677Y-73570514D01*
X118711784Y-73530424D01*
X118666183Y-73499851D01*
X118612487Y-73477797D01*
X118547308Y-73463265D01*
X118467256Y-73455259D01*
X118368943Y-73452782D01*
X118352711Y-73452823D01*
X118287151Y-73454182D01*
X118222134Y-73457270D01*
X118164748Y-73461644D01*
X118122078Y-73466860D01*
X118118628Y-73467459D01*
X118076204Y-73477509D01*
X118040220Y-73490204D01*
X118019850Y-73501810D01*
X118000893Y-73532428D01*
X117999573Y-73568082D01*
X118015915Y-73599856D01*
X118019571Y-73603449D01*
X118034685Y-73614124D01*
X118053585Y-73618724D01*
X118082838Y-73617941D01*
X118118349Y-73613873D01*
X118158030Y-73610238D01*
X118213655Y-73607172D01*
X118278594Y-73604947D01*
X118346215Y-73603836D01*
X118364000Y-73603763D01*
X118431872Y-73604036D01*
X118481546Y-73605354D01*
X118517390Y-73608173D01*
X118543776Y-73612950D01*
X118565074Y-73620143D01*
X118577874Y-73626133D01*
X118606000Y-73642767D01*
X118623932Y-73657832D01*
X118626553Y-73662103D01*
X118621024Y-73679737D01*
X118594740Y-73696808D01*
X118549522Y-73712542D01*
X118487192Y-73726162D01*
X118468829Y-73729196D01*
X118372910Y-73744262D01*
X118296359Y-73756854D01*
X118236220Y-73767889D01*
X118189540Y-73778280D01*
X118153363Y-73788944D01*
X118124735Y-73800795D01*
X118100702Y-73814749D01*
X118078308Y-73831719D01*
X118054598Y-73852622D01*
X118046620Y-73859951D01*
X118018647Y-73887301D01*
X118003840Y-73908971D01*
X117998048Y-73933768D01*
X117997111Y-73965017D01*
X118007425Y-74026295D01*
X118038248Y-74078360D01*
X118089405Y-74121042D01*
X118160717Y-74154175D01*
X118211600Y-74169036D01*
X118266900Y-74178634D01*
X118333147Y-74184064D01*
X118406294Y-74185633D01*
X118482297Y-74183649D01*
X118482297Y-74183649D01*
G37*
X118482297Y-74183649D02*
X118557112Y-74178419D01*
X118626694Y-74170250D01*
X118686998Y-74159450D01*
X118733980Y-74146327D01*
X118763594Y-74131187D01*
X118768140Y-74126731D01*
X118783946Y-74092150D01*
X118779153Y-74056649D01*
X118754636Y-74026275D01*
X118753466Y-74025404D01*
X118739046Y-74016046D01*
X118723992Y-74011124D01*
X118702995Y-74010527D01*
X118670743Y-74014139D01*
X118621927Y-74021846D01*
X118618000Y-74022495D01*
X118545261Y-74031431D01*
X118466783Y-74035839D01*
X118388073Y-74035881D01*
X118314639Y-74031721D01*
X118251989Y-74023521D01*
X118205630Y-74011443D01*
X118202584Y-74010229D01*
X118168952Y-73991385D01*
X118157136Y-73972315D01*
X118166386Y-73953561D01*
X118195953Y-73935663D01*
X118245089Y-73919163D01*
X118313043Y-73904604D01*
X118358355Y-73897594D01*
X118452544Y-73884111D01*
X118527456Y-73871786D01*
X118586283Y-73859551D01*
X118632215Y-73846339D01*
X118668445Y-73831083D01*
X118698162Y-73812715D01*
X118724558Y-73790169D01*
X118745770Y-73768029D01*
X118770935Y-73737181D01*
X118783319Y-73710655D01*
X118787192Y-73677974D01*
X118787333Y-73666005D01*
X118784424Y-73626288D01*
X118772798Y-73596741D01*
X118752677Y-73570514D01*
X118711784Y-73530424D01*
X118666183Y-73499851D01*
X118612487Y-73477797D01*
X118547308Y-73463265D01*
X118467256Y-73455259D01*
X118368943Y-73452782D01*
X118352711Y-73452823D01*
X118287151Y-73454182D01*
X118222134Y-73457270D01*
X118164748Y-73461644D01*
X118122078Y-73466860D01*
X118118628Y-73467459D01*
X118076204Y-73477509D01*
X118040220Y-73490204D01*
X118019850Y-73501810D01*
X118000893Y-73532428D01*
X117999573Y-73568082D01*
X118015915Y-73599856D01*
X118019571Y-73603449D01*
X118034685Y-73614124D01*
X118053585Y-73618724D01*
X118082838Y-73617941D01*
X118118349Y-73613873D01*
X118158030Y-73610238D01*
X118213655Y-73607172D01*
X118278594Y-73604947D01*
X118346215Y-73603836D01*
X118364000Y-73603763D01*
X118431872Y-73604036D01*
X118481546Y-73605354D01*
X118517390Y-73608173D01*
X118543776Y-73612950D01*
X118565074Y-73620143D01*
X118577874Y-73626133D01*
X118606000Y-73642767D01*
X118623932Y-73657832D01*
X118626553Y-73662103D01*
X118621024Y-73679737D01*
X118594740Y-73696808D01*
X118549522Y-73712542D01*
X118487192Y-73726162D01*
X118468829Y-73729196D01*
X118372910Y-73744262D01*
X118296359Y-73756854D01*
X118236220Y-73767889D01*
X118189540Y-73778280D01*
X118153363Y-73788944D01*
X118124735Y-73800795D01*
X118100702Y-73814749D01*
X118078308Y-73831719D01*
X118054598Y-73852622D01*
X118046620Y-73859951D01*
X118018647Y-73887301D01*
X118003840Y-73908971D01*
X117998048Y-73933768D01*
X117997111Y-73965017D01*
X118007425Y-74026295D01*
X118038248Y-74078360D01*
X118089405Y-74121042D01*
X118160717Y-74154175D01*
X118211600Y-74169036D01*
X118266900Y-74178634D01*
X118333147Y-74184064D01*
X118406294Y-74185633D01*
X118482297Y-74183649D01*
G36*
X117461206Y-74184854D02*
G01*
X117530614Y-74184482D01*
X117583003Y-74183615D01*
X117621153Y-74182054D01*
X117647841Y-74179597D01*
X117665847Y-74176043D01*
X117677951Y-74171190D01*
X117686931Y-74164839D01*
X117690182Y-74161916D01*
X117709957Y-74130858D01*
X117713518Y-74095172D01*
X117700509Y-74063490D01*
X117694494Y-74057087D01*
X117684765Y-74050879D01*
X117669099Y-74046090D01*
X117644592Y-74042486D01*
X117608339Y-74039836D01*
X117557435Y-74037905D01*
X117488974Y-74036461D01*
X117426383Y-74035582D01*
X117178666Y-74032533D01*
X117175281Y-73967622D01*
X117171895Y-73902711D01*
X117340042Y-73902711D01*
X117413041Y-73902081D01*
X117466483Y-73899447D01*
X117503372Y-73893691D01*
X117526712Y-73883696D01*
X117539506Y-73868344D01*
X117544758Y-73846518D01*
X117545555Y-73826262D01*
X117543077Y-73801408D01*
X117533723Y-73783094D01*
X117514617Y-73770363D01*
X117482882Y-73762259D01*
X117435641Y-73757824D01*
X117370017Y-73756101D01*
X117334199Y-73755955D01*
X117173022Y-73755955D01*
X117173022Y-73597911D01*
X117421378Y-73597911D01*
X117502787Y-73597798D01*
X117564658Y-73597288D01*
X117610032Y-73596130D01*
X117641946Y-73594070D01*
X117663441Y-73590854D01*
X117677557Y-73586228D01*
X117687332Y-73579941D01*
X117692311Y-73575333D01*
X117709390Y-73548440D01*
X117714889Y-73524533D01*
X117707037Y-73495333D01*
X117692311Y-73473733D01*
X117684454Y-73466934D01*
X117674312Y-73461654D01*
X117659156Y-73457702D01*
X117636259Y-73454887D01*
X117602891Y-73453018D01*
X117556325Y-73451902D01*
X117493833Y-73451349D01*
X117412686Y-73451167D01*
X117370578Y-73451155D01*
X117280402Y-73451235D01*
X117210076Y-73451602D01*
X117156871Y-73452448D01*
X117118060Y-73453964D01*
X117090913Y-73456341D01*
X117072702Y-73459771D01*
X117060700Y-73464446D01*
X117052178Y-73470556D01*
X117048844Y-73473733D01*
X117042245Y-73481330D01*
X117037073Y-73491130D01*
X117033154Y-73505761D01*
X117030316Y-73527848D01*
X117028385Y-73560018D01*
X117027188Y-73604897D01*
X117026552Y-73665111D01*
X117026303Y-73743287D01*
X117026266Y-73816077D01*
X117026300Y-73909293D01*
X117026535Y-73982569D01*
X117027170Y-74038542D01*
X117028406Y-74079849D01*
X117030444Y-74109128D01*
X117033483Y-74129016D01*
X117037723Y-74142150D01*
X117043365Y-74151168D01*
X117050609Y-74158707D01*
X117052394Y-74160388D01*
X117061055Y-74167828D01*
X117071118Y-74173591D01*
X117085375Y-74177888D01*
X117106617Y-74180936D01*
X117137636Y-74182949D01*
X117181223Y-74184140D01*
X117240169Y-74184725D01*
X117317266Y-74184917D01*
X117371999Y-74184933D01*
X117461206Y-74184854D01*
X117461206Y-74184854D01*
G37*
X117461206Y-74184854D02*
X117530614Y-74184482D01*
X117583003Y-74183615D01*
X117621153Y-74182054D01*
X117647841Y-74179597D01*
X117665847Y-74176043D01*
X117677951Y-74171190D01*
X117686931Y-74164839D01*
X117690182Y-74161916D01*
X117709957Y-74130858D01*
X117713518Y-74095172D01*
X117700509Y-74063490D01*
X117694494Y-74057087D01*
X117684765Y-74050879D01*
X117669099Y-74046090D01*
X117644592Y-74042486D01*
X117608339Y-74039836D01*
X117557435Y-74037905D01*
X117488974Y-74036461D01*
X117426383Y-74035582D01*
X117178666Y-74032533D01*
X117175281Y-73967622D01*
X117171895Y-73902711D01*
X117340042Y-73902711D01*
X117413041Y-73902081D01*
X117466483Y-73899447D01*
X117503372Y-73893691D01*
X117526712Y-73883696D01*
X117539506Y-73868344D01*
X117544758Y-73846518D01*
X117545555Y-73826262D01*
X117543077Y-73801408D01*
X117533723Y-73783094D01*
X117514617Y-73770363D01*
X117482882Y-73762259D01*
X117435641Y-73757824D01*
X117370017Y-73756101D01*
X117334199Y-73755955D01*
X117173022Y-73755955D01*
X117173022Y-73597911D01*
X117421378Y-73597911D01*
X117502787Y-73597798D01*
X117564658Y-73597288D01*
X117610032Y-73596130D01*
X117641946Y-73594070D01*
X117663441Y-73590854D01*
X117677557Y-73586228D01*
X117687332Y-73579941D01*
X117692311Y-73575333D01*
X117709390Y-73548440D01*
X117714889Y-73524533D01*
X117707037Y-73495333D01*
X117692311Y-73473733D01*
X117684454Y-73466934D01*
X117674312Y-73461654D01*
X117659156Y-73457702D01*
X117636259Y-73454887D01*
X117602891Y-73453018D01*
X117556325Y-73451902D01*
X117493833Y-73451349D01*
X117412686Y-73451167D01*
X117370578Y-73451155D01*
X117280402Y-73451235D01*
X117210076Y-73451602D01*
X117156871Y-73452448D01*
X117118060Y-73453964D01*
X117090913Y-73456341D01*
X117072702Y-73459771D01*
X117060700Y-73464446D01*
X117052178Y-73470556D01*
X117048844Y-73473733D01*
X117042245Y-73481330D01*
X117037073Y-73491130D01*
X117033154Y-73505761D01*
X117030316Y-73527848D01*
X117028385Y-73560018D01*
X117027188Y-73604897D01*
X117026552Y-73665111D01*
X117026303Y-73743287D01*
X117026266Y-73816077D01*
X117026300Y-73909293D01*
X117026535Y-73982569D01*
X117027170Y-74038542D01*
X117028406Y-74079849D01*
X117030444Y-74109128D01*
X117033483Y-74129016D01*
X117037723Y-74142150D01*
X117043365Y-74151168D01*
X117050609Y-74158707D01*
X117052394Y-74160388D01*
X117061055Y-74167828D01*
X117071118Y-74173591D01*
X117085375Y-74177888D01*
X117106617Y-74180936D01*
X117137636Y-74182949D01*
X117181223Y-74184140D01*
X117240169Y-74184725D01*
X117317266Y-74184917D01*
X117371999Y-74184933D01*
X117461206Y-74184854D01*
G36*
X116052629Y-74184934D02*
G01*
X116092111Y-74184533D01*
X116207800Y-74181741D01*
X116304689Y-74173450D01*
X116386081Y-74158768D01*
X116455277Y-74136807D01*
X116515580Y-74106678D01*
X116570292Y-74067490D01*
X116589833Y-74050468D01*
X116622250Y-74010637D01*
X116651480Y-73956587D01*
X116674009Y-73896677D01*
X116686321Y-73839261D01*
X116687600Y-73818044D01*
X116679583Y-73759231D01*
X116658101Y-73694987D01*
X116627001Y-73634179D01*
X116590134Y-73585670D01*
X116584146Y-73579818D01*
X116533421Y-73538679D01*
X116477875Y-73506565D01*
X116414304Y-73482635D01*
X116339506Y-73466047D01*
X116250278Y-73455959D01*
X116143418Y-73451531D01*
X116094472Y-73451155D01*
X116032238Y-73451455D01*
X115988472Y-73452708D01*
X115959069Y-73455446D01*
X115939921Y-73460199D01*
X115926923Y-73467499D01*
X115919955Y-73473733D01*
X115913374Y-73481306D01*
X115908212Y-73491076D01*
X115904297Y-73505660D01*
X115901457Y-73527674D01*
X115899520Y-73559736D01*
X115898316Y-73604464D01*
X115897672Y-73664474D01*
X115897417Y-73742383D01*
X115897378Y-73818044D01*
X115897130Y-73918959D01*
X115897183Y-73999573D01*
X115898143Y-74038178D01*
X116044133Y-74038178D01*
X116044133Y-73597911D01*
X116137266Y-73597996D01*
X116193307Y-73599604D01*
X116252001Y-73603744D01*
X116300972Y-73609536D01*
X116302462Y-73609774D01*
X116381608Y-73628910D01*
X116442998Y-73658713D01*
X116489695Y-73701122D01*
X116519365Y-73747039D01*
X116537647Y-73797974D01*
X116536229Y-73845800D01*
X116515012Y-73897067D01*
X116473511Y-73950101D01*
X116416002Y-73989400D01*
X116341250Y-74015669D01*
X116291292Y-74024965D01*
X116234584Y-74031493D01*
X116174481Y-74036218D01*
X116123361Y-74038183D01*
X116120333Y-74038192D01*
X116044133Y-74038178D01*
X115898143Y-74038178D01*
X115898740Y-74062149D01*
X115903002Y-74108945D01*
X115911170Y-74142222D01*
X115924444Y-74164241D01*
X115944026Y-74177261D01*
X115971117Y-74183543D01*
X116006918Y-74185347D01*
X116052629Y-74184934D01*
X116052629Y-74184934D01*
G37*
X116052629Y-74184934D02*
X116092111Y-74184533D01*
X116207800Y-74181741D01*
X116304689Y-74173450D01*
X116386081Y-74158768D01*
X116455277Y-74136807D01*
X116515580Y-74106678D01*
X116570292Y-74067490D01*
X116589833Y-74050468D01*
X116622250Y-74010637D01*
X116651480Y-73956587D01*
X116674009Y-73896677D01*
X116686321Y-73839261D01*
X116687600Y-73818044D01*
X116679583Y-73759231D01*
X116658101Y-73694987D01*
X116627001Y-73634179D01*
X116590134Y-73585670D01*
X116584146Y-73579818D01*
X116533421Y-73538679D01*
X116477875Y-73506565D01*
X116414304Y-73482635D01*
X116339506Y-73466047D01*
X116250278Y-73455959D01*
X116143418Y-73451531D01*
X116094472Y-73451155D01*
X116032238Y-73451455D01*
X115988472Y-73452708D01*
X115959069Y-73455446D01*
X115939921Y-73460199D01*
X115926923Y-73467499D01*
X115919955Y-73473733D01*
X115913374Y-73481306D01*
X115908212Y-73491076D01*
X115904297Y-73505660D01*
X115901457Y-73527674D01*
X115899520Y-73559736D01*
X115898316Y-73604464D01*
X115897672Y-73664474D01*
X115897417Y-73742383D01*
X115897378Y-73818044D01*
X115897130Y-73918959D01*
X115897183Y-73999573D01*
X115898143Y-74038178D01*
X116044133Y-74038178D01*
X116044133Y-73597911D01*
X116137266Y-73597996D01*
X116193307Y-73599604D01*
X116252001Y-73603744D01*
X116300972Y-73609536D01*
X116302462Y-73609774D01*
X116381608Y-73628910D01*
X116442998Y-73658713D01*
X116489695Y-73701122D01*
X116519365Y-73747039D01*
X116537647Y-73797974D01*
X116536229Y-73845800D01*
X116515012Y-73897067D01*
X116473511Y-73950101D01*
X116416002Y-73989400D01*
X116341250Y-74015669D01*
X116291292Y-74024965D01*
X116234584Y-74031493D01*
X116174481Y-74036218D01*
X116123361Y-74038183D01*
X116120333Y-74038192D01*
X116044133Y-74038178D01*
X115898143Y-74038178D01*
X115898740Y-74062149D01*
X115903002Y-74108945D01*
X115911170Y-74142222D01*
X115924444Y-74164241D01*
X115944026Y-74177261D01*
X115971117Y-74183543D01*
X116006918Y-74185347D01*
X116052629Y-74184934D01*
G36*
X119900957Y-79427429D02*
G01*
X119997232Y-79403191D01*
X120083816Y-79360359D01*
X120158627Y-79300581D01*
X120219582Y-79225506D01*
X120264601Y-79136780D01*
X120290864Y-79040470D01*
X120296714Y-78943205D01*
X120281860Y-78849346D01*
X120248160Y-78761489D01*
X120197472Y-78682230D01*
X120131655Y-78614164D01*
X120052566Y-78559888D01*
X119962066Y-78521998D01*
X119910800Y-78509574D01*
X119866302Y-78502053D01*
X119832001Y-78499081D01*
X119799040Y-78500906D01*
X119758566Y-78507775D01*
X119725469Y-78514750D01*
X119632053Y-78546259D01*
X119548381Y-78597383D01*
X119476335Y-78666571D01*
X119417800Y-78752272D01*
X119403852Y-78779511D01*
X119387414Y-78815878D01*
X119377106Y-78846418D01*
X119371540Y-78878550D01*
X119369331Y-78919693D01*
X119369052Y-78965778D01*
X119373139Y-79050135D01*
X119386554Y-79119414D01*
X119411744Y-79180039D01*
X119451154Y-79238433D01*
X119489702Y-79282698D01*
X119561594Y-79348516D01*
X119636687Y-79393947D01*
X119719438Y-79421150D01*
X119797072Y-79431424D01*
X119900957Y-79427429D01*
X119900957Y-79427429D01*
G37*
X119900957Y-79427429D02*
X119997232Y-79403191D01*
X120083816Y-79360359D01*
X120158627Y-79300581D01*
X120219582Y-79225506D01*
X120264601Y-79136780D01*
X120290864Y-79040470D01*
X120296714Y-78943205D01*
X120281860Y-78849346D01*
X120248160Y-78761489D01*
X120197472Y-78682230D01*
X120131655Y-78614164D01*
X120052566Y-78559888D01*
X119962066Y-78521998D01*
X119910800Y-78509574D01*
X119866302Y-78502053D01*
X119832001Y-78499081D01*
X119799040Y-78500906D01*
X119758566Y-78507775D01*
X119725469Y-78514750D01*
X119632053Y-78546259D01*
X119548381Y-78597383D01*
X119476335Y-78666571D01*
X119417800Y-78752272D01*
X119403852Y-78779511D01*
X119387414Y-78815878D01*
X119377106Y-78846418D01*
X119371540Y-78878550D01*
X119369331Y-78919693D01*
X119369052Y-78965778D01*
X119373139Y-79050135D01*
X119386554Y-79119414D01*
X119411744Y-79180039D01*
X119451154Y-79238433D01*
X119489702Y-79282698D01*
X119561594Y-79348516D01*
X119636687Y-79393947D01*
X119719438Y-79421150D01*
X119797072Y-79431424D01*
X119900957Y-79427429D01*
G36*
X128360507Y-76981755D02*
G01*
X128360526Y-76747338D01*
X128360552Y-76534397D01*
X128360625Y-76341832D01*
X128360782Y-76168541D01*
X128361064Y-76013424D01*
X128361509Y-75875380D01*
X128362156Y-75753308D01*
X128363045Y-75646106D01*
X128364213Y-75552674D01*
X128365701Y-75471910D01*
X128367546Y-75402714D01*
X128369789Y-75343985D01*
X128372469Y-75294621D01*
X128375623Y-75253522D01*
X128379292Y-75219587D01*
X128383513Y-75191714D01*
X128388327Y-75168802D01*
X128393773Y-75149751D01*
X128399888Y-75133460D01*
X128406712Y-75118827D01*
X128414285Y-75104751D01*
X128422645Y-75090132D01*
X128427839Y-75081026D01*
X128462104Y-75020311D01*
X127603955Y-75020311D01*
X127603955Y-75116267D01*
X127603224Y-75159630D01*
X127601272Y-75192795D01*
X127598463Y-75210576D01*
X127597221Y-75212222D01*
X127585799Y-75205338D01*
X127563084Y-75187495D01*
X127540385Y-75168121D01*
X127485800Y-75127386D01*
X127416321Y-75086383D01*
X127339270Y-75048877D01*
X127261965Y-75018636D01*
X127231113Y-75008988D01*
X127162616Y-74994422D01*
X127079764Y-74984461D01*
X126990371Y-74979417D01*
X126902248Y-74979604D01*
X126823207Y-74985334D01*
X126785511Y-74991142D01*
X126647414Y-75029203D01*
X126520113Y-75086927D01*
X126404292Y-75163789D01*
X126300637Y-75259261D01*
X126209833Y-75372821D01*
X126143031Y-75483619D01*
X126088164Y-75600375D01*
X126046163Y-75719724D01*
X126016167Y-75845717D01*
X125997311Y-75982406D01*
X125988732Y-76133842D01*
X125988006Y-76211289D01*
X125990100Y-76268066D01*
X126819217Y-76268066D01*
X126819424Y-76174998D01*
X126822337Y-76087308D01*
X126828000Y-76010228D01*
X126836455Y-75948991D01*
X126839038Y-75936650D01*
X126870840Y-75829367D01*
X126912498Y-75742342D01*
X126964363Y-75675358D01*
X127026781Y-75628195D01*
X127100100Y-75600635D01*
X127184669Y-75592459D01*
X127280835Y-75603449D01*
X127344311Y-75619171D01*
X127393454Y-75637361D01*
X127447583Y-75663209D01*
X127488244Y-75686911D01*
X127558800Y-75733279D01*
X127558800Y-76883470D01*
X127491392Y-76927038D01*
X127412867Y-76967960D01*
X127328681Y-76994611D01*
X127243557Y-77006535D01*
X127162216Y-77003278D01*
X127089380Y-76984385D01*
X127057426Y-76968816D01*
X126999501Y-76925819D01*
X126950544Y-76869047D01*
X126909390Y-76796425D01*
X126874874Y-76705879D01*
X126845833Y-76595334D01*
X126844552Y-76589467D01*
X126834381Y-76527212D01*
X126826739Y-76449406D01*
X126821670Y-76361280D01*
X126819217Y-76268066D01*
X125990100Y-76268066D01*
X125995857Y-76424105D01*
X126017802Y-76619941D01*
X126053786Y-76798668D01*
X126103759Y-76960155D01*
X126167668Y-77104274D01*
X126245462Y-77230894D01*
X126337089Y-77339885D01*
X126442497Y-77431117D01*
X126487662Y-77462068D01*
X126588611Y-77518215D01*
X126691901Y-77557826D01*
X126801989Y-77581986D01*
X126923330Y-77591781D01*
X127015836Y-77590735D01*
X127145490Y-77579769D01*
X127258084Y-77557954D01*
X127356875Y-77524286D01*
X127445121Y-77477764D01*
X127493986Y-77443552D01*
X127523353Y-77421638D01*
X127545043Y-77406667D01*
X127553253Y-77402267D01*
X127554868Y-77413096D01*
X127556159Y-77443749D01*
X127557138Y-77491474D01*
X127557817Y-77553521D01*
X127558210Y-77627138D01*
X127558330Y-77709573D01*
X127558188Y-77798075D01*
X127557797Y-77889893D01*
X127557171Y-77982276D01*
X127556320Y-78072472D01*
X127555260Y-78157729D01*
X127554001Y-78235297D01*
X127552556Y-78302424D01*
X127550938Y-78356359D01*
X127549161Y-78394350D01*
X127548669Y-78401333D01*
X127541092Y-78471749D01*
X127529531Y-78526898D01*
X127511792Y-78574019D01*
X127485682Y-78620353D01*
X127479415Y-78629933D01*
X127454983Y-78666622D01*
X128360311Y-78666622D01*
X128360507Y-76981755D01*
X128360507Y-76981755D01*
G37*
X128360507Y-76981755D02*
X128360526Y-76747338D01*
X128360552Y-76534397D01*
X128360625Y-76341832D01*
X128360782Y-76168541D01*
X128361064Y-76013424D01*
X128361509Y-75875380D01*
X128362156Y-75753308D01*
X128363045Y-75646106D01*
X128364213Y-75552674D01*
X128365701Y-75471910D01*
X128367546Y-75402714D01*
X128369789Y-75343985D01*
X128372469Y-75294621D01*
X128375623Y-75253522D01*
X128379292Y-75219587D01*
X128383513Y-75191714D01*
X128388327Y-75168802D01*
X128393773Y-75149751D01*
X128399888Y-75133460D01*
X128406712Y-75118827D01*
X128414285Y-75104751D01*
X128422645Y-75090132D01*
X128427839Y-75081026D01*
X128462104Y-75020311D01*
X127603955Y-75020311D01*
X127603955Y-75116267D01*
X127603224Y-75159630D01*
X127601272Y-75192795D01*
X127598463Y-75210576D01*
X127597221Y-75212222D01*
X127585799Y-75205338D01*
X127563084Y-75187495D01*
X127540385Y-75168121D01*
X127485800Y-75127386D01*
X127416321Y-75086383D01*
X127339270Y-75048877D01*
X127261965Y-75018636D01*
X127231113Y-75008988D01*
X127162616Y-74994422D01*
X127079764Y-74984461D01*
X126990371Y-74979417D01*
X126902248Y-74979604D01*
X126823207Y-74985334D01*
X126785511Y-74991142D01*
X126647414Y-75029203D01*
X126520113Y-75086927D01*
X126404292Y-75163789D01*
X126300637Y-75259261D01*
X126209833Y-75372821D01*
X126143031Y-75483619D01*
X126088164Y-75600375D01*
X126046163Y-75719724D01*
X126016167Y-75845717D01*
X125997311Y-75982406D01*
X125988732Y-76133842D01*
X125988006Y-76211289D01*
X125990100Y-76268066D01*
X126819217Y-76268066D01*
X126819424Y-76174998D01*
X126822337Y-76087308D01*
X126828000Y-76010228D01*
X126836455Y-75948991D01*
X126839038Y-75936650D01*
X126870840Y-75829367D01*
X126912498Y-75742342D01*
X126964363Y-75675358D01*
X127026781Y-75628195D01*
X127100100Y-75600635D01*
X127184669Y-75592459D01*
X127280835Y-75603449D01*
X127344311Y-75619171D01*
X127393454Y-75637361D01*
X127447583Y-75663209D01*
X127488244Y-75686911D01*
X127558800Y-75733279D01*
X127558800Y-76883470D01*
X127491392Y-76927038D01*
X127412867Y-76967960D01*
X127328681Y-76994611D01*
X127243557Y-77006535D01*
X127162216Y-77003278D01*
X127089380Y-76984385D01*
X127057426Y-76968816D01*
X126999501Y-76925819D01*
X126950544Y-76869047D01*
X126909390Y-76796425D01*
X126874874Y-76705879D01*
X126845833Y-76595334D01*
X126844552Y-76589467D01*
X126834381Y-76527212D01*
X126826739Y-76449406D01*
X126821670Y-76361280D01*
X126819217Y-76268066D01*
X125990100Y-76268066D01*
X125995857Y-76424105D01*
X126017802Y-76619941D01*
X126053786Y-76798668D01*
X126103759Y-76960155D01*
X126167668Y-77104274D01*
X126245462Y-77230894D01*
X126337089Y-77339885D01*
X126442497Y-77431117D01*
X126487662Y-77462068D01*
X126588611Y-77518215D01*
X126691901Y-77557826D01*
X126801989Y-77581986D01*
X126923330Y-77591781D01*
X127015836Y-77590735D01*
X127145490Y-77579769D01*
X127258084Y-77557954D01*
X127356875Y-77524286D01*
X127445121Y-77477764D01*
X127493986Y-77443552D01*
X127523353Y-77421638D01*
X127545043Y-77406667D01*
X127553253Y-77402267D01*
X127554868Y-77413096D01*
X127556159Y-77443749D01*
X127557138Y-77491474D01*
X127557817Y-77553521D01*
X127558210Y-77627138D01*
X127558330Y-77709573D01*
X127558188Y-77798075D01*
X127557797Y-77889893D01*
X127557171Y-77982276D01*
X127556320Y-78072472D01*
X127555260Y-78157729D01*
X127554001Y-78235297D01*
X127552556Y-78302424D01*
X127550938Y-78356359D01*
X127549161Y-78394350D01*
X127548669Y-78401333D01*
X127541092Y-78471749D01*
X127529531Y-78526898D01*
X127511792Y-78574019D01*
X127485682Y-78620353D01*
X127479415Y-78629933D01*
X127454983Y-78666622D01*
X128360311Y-78666622D01*
X128360507Y-76981755D01*
G36*
X124847574Y-77587448D02*
G01*
X124999492Y-77567433D01*
X125134756Y-77533798D01*
X125254239Y-77486275D01*
X125358815Y-77424595D01*
X125436424Y-77361035D01*
X125505265Y-77286901D01*
X125559006Y-77207129D01*
X125601910Y-77114909D01*
X125617384Y-77071839D01*
X125630244Y-77032858D01*
X125641446Y-76996711D01*
X125651120Y-76961566D01*
X125659396Y-76925590D01*
X125666403Y-76886950D01*
X125672272Y-76843815D01*
X125677131Y-76794351D01*
X125681110Y-76736727D01*
X125684340Y-76669109D01*
X125686949Y-76589666D01*
X125689067Y-76496564D01*
X125690824Y-76387973D01*
X125692349Y-76262058D01*
X125693772Y-76116988D01*
X125695025Y-75974222D01*
X125696351Y-75818032D01*
X125697556Y-75682761D01*
X125698766Y-75566754D01*
X125700106Y-75468355D01*
X125701700Y-75385907D01*
X125703675Y-75317754D01*
X125706156Y-75262240D01*
X125709269Y-75217708D01*
X125713138Y-75182502D01*
X125717889Y-75154966D01*
X125723648Y-75133444D01*
X125730539Y-75116278D01*
X125738689Y-75101814D01*
X125748223Y-75088394D01*
X125759266Y-75074362D01*
X125763566Y-75068929D01*
X125779386Y-75046090D01*
X125786422Y-75030537D01*
X125786444Y-75030078D01*
X125775567Y-75027879D01*
X125744582Y-75025853D01*
X125695957Y-75024058D01*
X125632163Y-75022549D01*
X125555669Y-75021384D01*
X125468944Y-75020620D01*
X125374457Y-75020314D01*
X125363550Y-75020311D01*
X124940657Y-75020311D01*
X124937395Y-75116378D01*
X124934133Y-75212444D01*
X124872044Y-75161457D01*
X124774714Y-75093943D01*
X124664813Y-75039251D01*
X124578349Y-75009022D01*
X124509278Y-74994334D01*
X124425925Y-74984341D01*
X124336159Y-74979354D01*
X124247845Y-74979687D01*
X124168851Y-74985649D01*
X124132622Y-74991362D01*
X123992603Y-75029224D01*
X123866178Y-75084068D01*
X123754260Y-75155076D01*
X123657762Y-75241432D01*
X123577600Y-75342321D01*
X123514687Y-75456924D01*
X123470312Y-75583016D01*
X123457978Y-75639599D01*
X123450368Y-75701798D01*
X123446739Y-75776637D01*
X123446245Y-75810533D01*
X123446310Y-75813718D01*
X124206248Y-75813718D01*
X124215541Y-75738667D01*
X124243728Y-75674840D01*
X124292197Y-75619202D01*
X124297254Y-75614789D01*
X124345548Y-75579963D01*
X124397257Y-75557380D01*
X124457989Y-75545460D01*
X124533352Y-75542617D01*
X124551459Y-75543022D01*
X124605278Y-75545675D01*
X124645308Y-75551091D01*
X124680324Y-75561255D01*
X124719103Y-75578150D01*
X124729745Y-75583328D01*
X124790396Y-75619156D01*
X124837215Y-75661788D01*
X124849952Y-75677027D01*
X124894622Y-75733538D01*
X124894622Y-75929414D01*
X124894086Y-76008061D01*
X124892396Y-76066012D01*
X124889428Y-76105125D01*
X124885057Y-76127259D01*
X124880972Y-76133726D01*
X124865047Y-76136889D01*
X124831264Y-76139512D01*
X124784340Y-76141345D01*
X124728993Y-76142143D01*
X124720106Y-76142158D01*
X124599330Y-76136904D01*
X124496660Y-76120737D01*
X124410106Y-76093039D01*
X124337681Y-76053192D01*
X124282751Y-76006242D01*
X124238204Y-75948355D01*
X124213480Y-75885307D01*
X124206248Y-75813718D01*
X123446310Y-75813718D01*
X123448178Y-75904288D01*
X123456522Y-75983188D01*
X123472768Y-76054410D01*
X123498405Y-76125136D01*
X123522401Y-76177507D01*
X123581020Y-76272804D01*
X123659117Y-76360830D01*
X123754315Y-76439983D01*
X123864238Y-76508660D01*
X123986510Y-76565259D01*
X124118755Y-76608179D01*
X124183422Y-76623118D01*
X124319604Y-76645223D01*
X124468049Y-76659806D01*
X124619505Y-76666187D01*
X124746064Y-76664555D01*
X124907950Y-76657776D01*
X124900530Y-76716755D01*
X124881238Y-76815908D01*
X124850104Y-76896628D01*
X124806269Y-76959534D01*
X124748871Y-77005244D01*
X124677048Y-77034378D01*
X124589941Y-77047553D01*
X124486686Y-77045389D01*
X124448711Y-77041388D01*
X124307520Y-77016220D01*
X124170707Y-76975186D01*
X124076178Y-76937185D01*
X124031018Y-76917810D01*
X123992585Y-76902240D01*
X123966234Y-76892595D01*
X123958546Y-76890548D01*
X123948802Y-76899626D01*
X123932083Y-76928595D01*
X123908232Y-76977783D01*
X123877093Y-77047516D01*
X123838507Y-77138121D01*
X123831910Y-77153911D01*
X123801853Y-77226228D01*
X123774874Y-77291575D01*
X123752136Y-77347094D01*
X123734806Y-77389928D01*
X123724048Y-77417219D01*
X123720941Y-77426058D01*
X123730940Y-77430813D01*
X123757217Y-77436090D01*
X123785489Y-77439769D01*
X123815646Y-77444526D01*
X123863433Y-77453972D01*
X123924612Y-77467180D01*
X123994946Y-77483224D01*
X124070194Y-77501180D01*
X124098755Y-77508203D01*
X124203816Y-77533791D01*
X124291480Y-77553853D01*
X124366068Y-77569031D01*
X124431903Y-77579965D01*
X124493307Y-77587296D01*
X124554602Y-77591665D01*
X124620110Y-77593713D01*
X124678128Y-77594111D01*
X124847574Y-77587448D01*
X124847574Y-77587448D01*
G37*
X124847574Y-77587448D02*
X124999492Y-77567433D01*
X125134756Y-77533798D01*
X125254239Y-77486275D01*
X125358815Y-77424595D01*
X125436424Y-77361035D01*
X125505265Y-77286901D01*
X125559006Y-77207129D01*
X125601910Y-77114909D01*
X125617384Y-77071839D01*
X125630244Y-77032858D01*
X125641446Y-76996711D01*
X125651120Y-76961566D01*
X125659396Y-76925590D01*
X125666403Y-76886950D01*
X125672272Y-76843815D01*
X125677131Y-76794351D01*
X125681110Y-76736727D01*
X125684340Y-76669109D01*
X125686949Y-76589666D01*
X125689067Y-76496564D01*
X125690824Y-76387973D01*
X125692349Y-76262058D01*
X125693772Y-76116988D01*
X125695025Y-75974222D01*
X125696351Y-75818032D01*
X125697556Y-75682761D01*
X125698766Y-75566754D01*
X125700106Y-75468355D01*
X125701700Y-75385907D01*
X125703675Y-75317754D01*
X125706156Y-75262240D01*
X125709269Y-75217708D01*
X125713138Y-75182502D01*
X125717889Y-75154966D01*
X125723648Y-75133444D01*
X125730539Y-75116278D01*
X125738689Y-75101814D01*
X125748223Y-75088394D01*
X125759266Y-75074362D01*
X125763566Y-75068929D01*
X125779386Y-75046090D01*
X125786422Y-75030537D01*
X125786444Y-75030078D01*
X125775567Y-75027879D01*
X125744582Y-75025853D01*
X125695957Y-75024058D01*
X125632163Y-75022549D01*
X125555669Y-75021384D01*
X125468944Y-75020620D01*
X125374457Y-75020314D01*
X125363550Y-75020311D01*
X124940657Y-75020311D01*
X124937395Y-75116378D01*
X124934133Y-75212444D01*
X124872044Y-75161457D01*
X124774714Y-75093943D01*
X124664813Y-75039251D01*
X124578349Y-75009022D01*
X124509278Y-74994334D01*
X124425925Y-74984341D01*
X124336159Y-74979354D01*
X124247845Y-74979687D01*
X124168851Y-74985649D01*
X124132622Y-74991362D01*
X123992603Y-75029224D01*
X123866178Y-75084068D01*
X123754260Y-75155076D01*
X123657762Y-75241432D01*
X123577600Y-75342321D01*
X123514687Y-75456924D01*
X123470312Y-75583016D01*
X123457978Y-75639599D01*
X123450368Y-75701798D01*
X123446739Y-75776637D01*
X123446245Y-75810533D01*
X123446310Y-75813718D01*
X124206248Y-75813718D01*
X124215541Y-75738667D01*
X124243728Y-75674840D01*
X124292197Y-75619202D01*
X124297254Y-75614789D01*
X124345548Y-75579963D01*
X124397257Y-75557380D01*
X124457989Y-75545460D01*
X124533352Y-75542617D01*
X124551459Y-75543022D01*
X124605278Y-75545675D01*
X124645308Y-75551091D01*
X124680324Y-75561255D01*
X124719103Y-75578150D01*
X124729745Y-75583328D01*
X124790396Y-75619156D01*
X124837215Y-75661788D01*
X124849952Y-75677027D01*
X124894622Y-75733538D01*
X124894622Y-75929414D01*
X124894086Y-76008061D01*
X124892396Y-76066012D01*
X124889428Y-76105125D01*
X124885057Y-76127259D01*
X124880972Y-76133726D01*
X124865047Y-76136889D01*
X124831264Y-76139512D01*
X124784340Y-76141345D01*
X124728993Y-76142143D01*
X124720106Y-76142158D01*
X124599330Y-76136904D01*
X124496660Y-76120737D01*
X124410106Y-76093039D01*
X124337681Y-76053192D01*
X124282751Y-76006242D01*
X124238204Y-75948355D01*
X124213480Y-75885307D01*
X124206248Y-75813718D01*
X123446310Y-75813718D01*
X123448178Y-75904288D01*
X123456522Y-75983188D01*
X123472768Y-76054410D01*
X123498405Y-76125136D01*
X123522401Y-76177507D01*
X123581020Y-76272804D01*
X123659117Y-76360830D01*
X123754315Y-76439983D01*
X123864238Y-76508660D01*
X123986510Y-76565259D01*
X124118755Y-76608179D01*
X124183422Y-76623118D01*
X124319604Y-76645223D01*
X124468049Y-76659806D01*
X124619505Y-76666187D01*
X124746064Y-76664555D01*
X124907950Y-76657776D01*
X124900530Y-76716755D01*
X124881238Y-76815908D01*
X124850104Y-76896628D01*
X124806269Y-76959534D01*
X124748871Y-77005244D01*
X124677048Y-77034378D01*
X124589941Y-77047553D01*
X124486686Y-77045389D01*
X124448711Y-77041388D01*
X124307520Y-77016220D01*
X124170707Y-76975186D01*
X124076178Y-76937185D01*
X124031018Y-76917810D01*
X123992585Y-76902240D01*
X123966234Y-76892595D01*
X123958546Y-76890548D01*
X123948802Y-76899626D01*
X123932083Y-76928595D01*
X123908232Y-76977783D01*
X123877093Y-77047516D01*
X123838507Y-77138121D01*
X123831910Y-77153911D01*
X123801853Y-77226228D01*
X123774874Y-77291575D01*
X123752136Y-77347094D01*
X123734806Y-77389928D01*
X123724048Y-77417219D01*
X123720941Y-77426058D01*
X123730940Y-77430813D01*
X123757217Y-77436090D01*
X123785489Y-77439769D01*
X123815646Y-77444526D01*
X123863433Y-77453972D01*
X123924612Y-77467180D01*
X123994946Y-77483224D01*
X124070194Y-77501180D01*
X124098755Y-77508203D01*
X124203816Y-77533791D01*
X124291480Y-77553853D01*
X124366068Y-77569031D01*
X124431903Y-77579965D01*
X124493307Y-77587296D01*
X124554602Y-77591665D01*
X124620110Y-77593713D01*
X124678128Y-77594111D01*
X124847574Y-77587448D01*
G36*
X122502429Y-78504929D02*
G01*
X122662570Y-78483755D01*
X122826510Y-78443615D01*
X122996313Y-78384111D01*
X123174043Y-78304846D01*
X123185310Y-78299301D01*
X123243005Y-78271275D01*
X123294552Y-78247198D01*
X123336191Y-78228751D01*
X123364162Y-78217614D01*
X123373733Y-78215067D01*
X123392950Y-78210059D01*
X123397561Y-78205853D01*
X123392458Y-78195420D01*
X123376418Y-78169132D01*
X123351288Y-78129743D01*
X123318914Y-78080009D01*
X123281143Y-78022685D01*
X123239822Y-77960524D01*
X123196798Y-77896282D01*
X123153917Y-77832715D01*
X123113026Y-77772575D01*
X123075971Y-77718620D01*
X123044600Y-77673603D01*
X123020759Y-77640279D01*
X123006294Y-77621403D01*
X123004309Y-77619213D01*
X122994191Y-77623862D01*
X122971850Y-77641038D01*
X122941280Y-77667560D01*
X122925536Y-77682036D01*
X122829047Y-77757318D01*
X122722336Y-77812759D01*
X122606832Y-77847859D01*
X122483962Y-77862120D01*
X122414561Y-77860949D01*
X122293423Y-77843788D01*
X122184205Y-77807906D01*
X122086582Y-77753041D01*
X122000228Y-77678930D01*
X121924815Y-77585312D01*
X121860018Y-77471924D01*
X121822601Y-77385333D01*
X121778748Y-77249634D01*
X121746428Y-77102150D01*
X121725557Y-76946686D01*
X121716051Y-76787044D01*
X121717827Y-76627027D01*
X121730803Y-76470439D01*
X121754894Y-76321082D01*
X121790018Y-76182760D01*
X121836092Y-76059276D01*
X121852373Y-76025022D01*
X121920620Y-75910936D01*
X122001079Y-75814443D01*
X122092570Y-75736330D01*
X122193911Y-75677383D01*
X122303920Y-75638388D01*
X122421415Y-75620132D01*
X122462883Y-75618789D01*
X122584441Y-75629710D01*
X122704878Y-75662526D01*
X122822666Y-75716561D01*
X122936277Y-75791135D01*
X123027685Y-75869461D01*
X123074215Y-75913992D01*
X123255483Y-75616729D01*
X123300580Y-75542567D01*
X123341819Y-75474354D01*
X123377735Y-75414541D01*
X123406866Y-75365580D01*
X123427750Y-75329921D01*
X123438924Y-75310016D01*
X123440375Y-75306921D01*
X123432146Y-75297282D01*
X123406567Y-75280001D01*
X123366873Y-75256717D01*
X123316297Y-75229066D01*
X123258074Y-75198685D01*
X123195437Y-75167210D01*
X123131621Y-75136278D01*
X123069860Y-75107527D01*
X123013388Y-75082592D01*
X122965438Y-75063111D01*
X122941986Y-75054682D01*
X122808221Y-75016867D01*
X122670327Y-74991864D01*
X122522622Y-74978860D01*
X122395833Y-74976532D01*
X122327878Y-74977627D01*
X122262277Y-74979725D01*
X122204847Y-74982566D01*
X122161403Y-74985894D01*
X122147298Y-74987578D01*
X122008284Y-75016413D01*
X121866757Y-75061532D01*
X121729275Y-75120250D01*
X121602394Y-75189880D01*
X121524889Y-75242559D01*
X121397481Y-75350761D01*
X121279178Y-75477329D01*
X121172172Y-75619134D01*
X121078652Y-75773049D01*
X121000810Y-75935947D01*
X120956956Y-76053244D01*
X120906708Y-76236872D01*
X120873209Y-76431419D01*
X120856449Y-76632675D01*
X120856416Y-76836432D01*
X120873101Y-77038479D01*
X120906493Y-77234608D01*
X120956580Y-77420609D01*
X120960397Y-77432197D01*
X121023281Y-77594250D01*
X121100028Y-77742168D01*
X121193242Y-77880135D01*
X121305527Y-78012339D01*
X121349392Y-78057601D01*
X121485534Y-78181543D01*
X121625491Y-78284085D01*
X121771411Y-78366344D01*
X121925442Y-78429436D01*
X122089732Y-78474477D01*
X122185289Y-78491967D01*
X122344023Y-78507534D01*
X122502429Y-78504929D01*
X122502429Y-78504929D01*
G37*
X122502429Y-78504929D02*
X122662570Y-78483755D01*
X122826510Y-78443615D01*
X122996313Y-78384111D01*
X123174043Y-78304846D01*
X123185310Y-78299301D01*
X123243005Y-78271275D01*
X123294552Y-78247198D01*
X123336191Y-78228751D01*
X123364162Y-78217614D01*
X123373733Y-78215067D01*
X123392950Y-78210059D01*
X123397561Y-78205853D01*
X123392458Y-78195420D01*
X123376418Y-78169132D01*
X123351288Y-78129743D01*
X123318914Y-78080009D01*
X123281143Y-78022685D01*
X123239822Y-77960524D01*
X123196798Y-77896282D01*
X123153917Y-77832715D01*
X123113026Y-77772575D01*
X123075971Y-77718620D01*
X123044600Y-77673603D01*
X123020759Y-77640279D01*
X123006294Y-77621403D01*
X123004309Y-77619213D01*
X122994191Y-77623862D01*
X122971850Y-77641038D01*
X122941280Y-77667560D01*
X122925536Y-77682036D01*
X122829047Y-77757318D01*
X122722336Y-77812759D01*
X122606832Y-77847859D01*
X122483962Y-77862120D01*
X122414561Y-77860949D01*
X122293423Y-77843788D01*
X122184205Y-77807906D01*
X122086582Y-77753041D01*
X122000228Y-77678930D01*
X121924815Y-77585312D01*
X121860018Y-77471924D01*
X121822601Y-77385333D01*
X121778748Y-77249634D01*
X121746428Y-77102150D01*
X121725557Y-76946686D01*
X121716051Y-76787044D01*
X121717827Y-76627027D01*
X121730803Y-76470439D01*
X121754894Y-76321082D01*
X121790018Y-76182760D01*
X121836092Y-76059276D01*
X121852373Y-76025022D01*
X121920620Y-75910936D01*
X122001079Y-75814443D01*
X122092570Y-75736330D01*
X122193911Y-75677383D01*
X122303920Y-75638388D01*
X122421415Y-75620132D01*
X122462883Y-75618789D01*
X122584441Y-75629710D01*
X122704878Y-75662526D01*
X122822666Y-75716561D01*
X122936277Y-75791135D01*
X123027685Y-75869461D01*
X123074215Y-75913992D01*
X123255483Y-75616729D01*
X123300580Y-75542567D01*
X123341819Y-75474354D01*
X123377735Y-75414541D01*
X123406866Y-75365580D01*
X123427750Y-75329921D01*
X123438924Y-75310016D01*
X123440375Y-75306921D01*
X123432146Y-75297282D01*
X123406567Y-75280001D01*
X123366873Y-75256717D01*
X123316297Y-75229066D01*
X123258074Y-75198685D01*
X123195437Y-75167210D01*
X123131621Y-75136278D01*
X123069860Y-75107527D01*
X123013388Y-75082592D01*
X122965438Y-75063111D01*
X122941986Y-75054682D01*
X122808221Y-75016867D01*
X122670327Y-74991864D01*
X122522622Y-74978860D01*
X122395833Y-74976532D01*
X122327878Y-74977627D01*
X122262277Y-74979725D01*
X122204847Y-74982566D01*
X122161403Y-74985894D01*
X122147298Y-74987578D01*
X122008284Y-75016413D01*
X121866757Y-75061532D01*
X121729275Y-75120250D01*
X121602394Y-75189880D01*
X121524889Y-75242559D01*
X121397481Y-75350761D01*
X121279178Y-75477329D01*
X121172172Y-75619134D01*
X121078652Y-75773049D01*
X121000810Y-75935947D01*
X120956956Y-76053244D01*
X120906708Y-76236872D01*
X120873209Y-76431419D01*
X120856449Y-76632675D01*
X120856416Y-76836432D01*
X120873101Y-77038479D01*
X120906493Y-77234608D01*
X120956580Y-77420609D01*
X120960397Y-77432197D01*
X121023281Y-77594250D01*
X121100028Y-77742168D01*
X121193242Y-77880135D01*
X121305527Y-78012339D01*
X121349392Y-78057601D01*
X121485534Y-78181543D01*
X121625491Y-78284085D01*
X121771411Y-78366344D01*
X121925442Y-78429436D01*
X122089732Y-78474477D01*
X122185289Y-78491967D01*
X122344023Y-78507534D01*
X122502429Y-78504929D01*
G36*
X119227600Y-78964946D02*
G01*
X119238465Y-78851007D01*
X119270082Y-78743384D01*
X119320985Y-78644385D01*
X119389707Y-78556316D01*
X119474781Y-78481484D01*
X119571768Y-78423616D01*
X119678036Y-78383995D01*
X119785050Y-78365427D01*
X119890700Y-78366566D01*
X119992875Y-78386070D01*
X120089466Y-78422594D01*
X120178362Y-78474795D01*
X120257454Y-78541327D01*
X120324631Y-78620848D01*
X120377783Y-78712013D01*
X120414801Y-78813477D01*
X120433573Y-78923898D01*
X120435511Y-78973794D01*
X120435511Y-79061733D01*
X120487440Y-79061733D01*
X120523747Y-79058889D01*
X120550645Y-79047089D01*
X120577751Y-79023351D01*
X120616133Y-78984969D01*
X120616133Y-76793398D01*
X120616124Y-76531261D01*
X120616092Y-76290759D01*
X120616028Y-76070952D01*
X120615924Y-75870899D01*
X120615773Y-75689656D01*
X120615566Y-75526284D01*
X120615294Y-75379840D01*
X120614950Y-75249383D01*
X120614526Y-75133971D01*
X120614013Y-75032662D01*
X120613403Y-74944516D01*
X120612688Y-74868590D01*
X120611860Y-74803943D01*
X120610911Y-74749633D01*
X120609833Y-74704720D01*
X120608617Y-74668260D01*
X120607255Y-74639313D01*
X120605739Y-74616937D01*
X120604062Y-74600191D01*
X120602214Y-74588132D01*
X120600187Y-74579820D01*
X120597975Y-74574313D01*
X120596892Y-74572463D01*
X120592729Y-74565451D01*
X120589195Y-74559004D01*
X120585365Y-74553100D01*
X120580318Y-74547714D01*
X120573129Y-74542822D01*
X120562877Y-74538402D01*
X120548636Y-74534428D01*
X120529486Y-74530879D01*
X120504501Y-74527730D01*
X120472760Y-74524958D01*
X120433338Y-74522539D01*
X120385314Y-74520449D01*
X120327763Y-74518665D01*
X120259763Y-74517163D01*
X120180390Y-74515920D01*
X120088721Y-74514911D01*
X119983834Y-74514115D01*
X119864804Y-74513506D01*
X119730710Y-74513061D01*
X119580627Y-74512757D01*
X119413633Y-74512570D01*
X119228804Y-74512476D01*
X119025217Y-74512452D01*
X118801950Y-74512475D01*
X118558078Y-74512520D01*
X118292679Y-74512563D01*
X118254296Y-74512568D01*
X117987318Y-74512611D01*
X117741998Y-74512682D01*
X117517417Y-74512787D01*
X117312655Y-74512934D01*
X117126794Y-74513131D01*
X116958912Y-74513384D01*
X116808092Y-74513700D01*
X116673413Y-74514087D01*
X116553956Y-74514553D01*
X116448801Y-74515103D01*
X116357029Y-74515747D01*
X116277721Y-74516489D01*
X116209957Y-74517339D01*
X116152818Y-74518303D01*
X116105383Y-74519389D01*
X116066734Y-74520603D01*
X116035951Y-74521953D01*
X116012115Y-74523445D01*
X115994306Y-74525089D01*
X115981605Y-74526889D01*
X115973092Y-74528855D01*
X115968734Y-74530523D01*
X115960272Y-74534094D01*
X115952503Y-74536730D01*
X115945398Y-74539366D01*
X115938927Y-74542938D01*
X115933061Y-74548379D01*
X115927771Y-74556625D01*
X115923026Y-74568610D01*
X115918798Y-74585269D01*
X115915057Y-74607537D01*
X115911773Y-74636348D01*
X115908917Y-74672637D01*
X115906460Y-74717339D01*
X115904371Y-74771389D01*
X115902622Y-74835721D01*
X115901183Y-74911270D01*
X115900024Y-74998970D01*
X115899117Y-75099757D01*
X115898431Y-75214566D01*
X115897937Y-75344330D01*
X115897605Y-75489985D01*
X115897407Y-75652465D01*
X115897313Y-75832705D01*
X115897292Y-76031640D01*
X115897315Y-76250204D01*
X115897354Y-76489332D01*
X115897378Y-76749960D01*
X115897378Y-76792111D01*
X115897364Y-77055008D01*
X115897339Y-77296268D01*
X115897329Y-77516835D01*
X115897358Y-77717648D01*
X115897452Y-77899651D01*
X115897638Y-78063784D01*
X115897941Y-78210989D01*
X115898386Y-78342208D01*
X115898966Y-78452133D01*
X116201803Y-78452133D01*
X116241593Y-78394289D01*
X116252764Y-78378521D01*
X116262834Y-78364559D01*
X116271862Y-78351216D01*
X116279903Y-78337307D01*
X116287014Y-78321644D01*
X116293253Y-78303042D01*
X116298675Y-78280314D01*
X116303338Y-78252273D01*
X116307299Y-78217733D01*
X116310615Y-78175508D01*
X116313341Y-78124411D01*
X116315536Y-78063256D01*
X116317255Y-77990856D01*
X116318556Y-77906025D01*
X116319495Y-77807578D01*
X116320130Y-77694326D01*
X116320516Y-77565084D01*
X116320712Y-77418666D01*
X116320773Y-77253884D01*
X116320757Y-77069553D01*
X116320720Y-76864487D01*
X116320711Y-76741867D01*
X116320735Y-76524918D01*
X116320769Y-76329358D01*
X116320757Y-76154001D01*
X116320642Y-75997659D01*
X116320370Y-75859143D01*
X116319882Y-75737266D01*
X116319124Y-75630840D01*
X116318038Y-75538678D01*
X116316569Y-75459591D01*
X116314660Y-75392392D01*
X116312256Y-75335893D01*
X116309299Y-75288907D01*
X116305734Y-75250245D01*
X116301505Y-75218720D01*
X116296554Y-75193145D01*
X116290827Y-75172330D01*
X116284267Y-75155089D01*
X116276817Y-75140235D01*
X116268421Y-75126578D01*
X116259024Y-75112931D01*
X116248568Y-75098107D01*
X116242477Y-75089217D01*
X116203704Y-75031600D01*
X116735268Y-75031600D01*
X116858517Y-75031635D01*
X116961013Y-75031785D01*
X117044580Y-75032122D01*
X117111044Y-75032714D01*
X117162229Y-75033633D01*
X117199959Y-75034949D01*
X117226060Y-75036731D01*
X117242356Y-75039049D01*
X117250672Y-75041974D01*
X117252832Y-75045576D01*
X117250661Y-75049925D01*
X117249465Y-75051355D01*
X117224315Y-75088427D01*
X117198417Y-75141228D01*
X117174808Y-75203230D01*
X117166539Y-75229643D01*
X117161922Y-75247584D01*
X117158021Y-75268645D01*
X117154752Y-75294911D01*
X117152034Y-75328468D01*
X117149785Y-75371401D01*
X117147923Y-75425796D01*
X117146364Y-75493738D01*
X117145028Y-75577312D01*
X117143831Y-75678605D01*
X117142692Y-75799700D01*
X117142315Y-75844400D01*
X117141298Y-75969551D01*
X117140540Y-76073918D01*
X117140097Y-76159293D01*
X117140030Y-76227467D01*
X117140395Y-76280235D01*
X117141252Y-76319386D01*
X117142659Y-76346715D01*
X117144675Y-76364014D01*
X117147357Y-76373074D01*
X117150764Y-76375688D01*
X117154956Y-76373649D01*
X117159429Y-76369333D01*
X117169784Y-76356398D01*
X117191842Y-76327324D01*
X117224043Y-76284241D01*
X117264826Y-76229282D01*
X117312630Y-76164577D01*
X117365895Y-76092258D01*
X117423060Y-76014456D01*
X117482563Y-75933302D01*
X117542845Y-75850928D01*
X117602345Y-75769464D01*
X117659502Y-75691043D01*
X117712755Y-75617796D01*
X117760543Y-75551853D01*
X117801307Y-75495346D01*
X117833484Y-75450407D01*
X117855515Y-75419166D01*
X117860083Y-75412534D01*
X117883004Y-75375631D01*
X117909812Y-75327641D01*
X117935211Y-75278103D01*
X117938432Y-75271423D01*
X117960110Y-75223228D01*
X117972696Y-75185666D01*
X117978426Y-75149840D01*
X117979544Y-75107800D01*
X117978910Y-75031600D01*
X119133349Y-75031600D01*
X119042185Y-75125331D01*
X118995388Y-75175225D01*
X118945101Y-75231705D01*
X118899056Y-75285974D01*
X118878631Y-75311327D01*
X118848193Y-75350872D01*
X118808138Y-75404084D01*
X118759639Y-75469333D01*
X118703865Y-75544989D01*
X118641989Y-75629423D01*
X118575181Y-75721006D01*
X118504613Y-75818108D01*
X118431455Y-75919099D01*
X118356879Y-76022350D01*
X118282056Y-76126232D01*
X118208157Y-76229115D01*
X118136354Y-76329369D01*
X118067816Y-76425364D01*
X118003716Y-76515473D01*
X117945225Y-76598064D01*
X117893514Y-76671508D01*
X117849753Y-76734176D01*
X117815115Y-76784439D01*
X117790770Y-76820666D01*
X117777889Y-76841229D01*
X117776131Y-76845332D01*
X117784090Y-76856658D01*
X117804885Y-76883838D01*
X117837153Y-76925171D01*
X117879530Y-76978956D01*
X117930653Y-77043494D01*
X117989159Y-77117082D01*
X118053686Y-77198022D01*
X118122869Y-77284612D01*
X118195347Y-77375152D01*
X118269754Y-77467940D01*
X118329483Y-77542298D01*
X119340489Y-77542298D01*
X119346398Y-77529341D01*
X119360728Y-77507092D01*
X119361775Y-77505609D01*
X119380562Y-77475456D01*
X119400209Y-77438625D01*
X119404108Y-77430489D01*
X119407644Y-77422060D01*
X119410770Y-77411941D01*
X119413514Y-77398740D01*
X119415908Y-77381062D01*
X119417981Y-77357516D01*
X119419765Y-77326707D01*
X119421288Y-77287243D01*
X119422581Y-77237731D01*
X119423674Y-77176777D01*
X119424597Y-77102989D01*
X119425381Y-77014972D01*
X119426055Y-76911335D01*
X119426650Y-76790684D01*
X119427195Y-76651626D01*
X119427721Y-76492768D01*
X119428255Y-76313911D01*
X119428794Y-76128793D01*
X119429228Y-75964855D01*
X119429491Y-75820697D01*
X119429516Y-75694921D01*
X119429235Y-75586129D01*
X119428581Y-75492923D01*
X119427486Y-75413903D01*
X119425882Y-75347672D01*
X119423703Y-75292830D01*
X119420881Y-75247979D01*
X119417349Y-75211722D01*
X119413039Y-75182659D01*
X119407883Y-75159391D01*
X119401815Y-75140521D01*
X119394767Y-75124649D01*
X119386671Y-75110378D01*
X119377460Y-75096309D01*
X119368960Y-75083842D01*
X119351824Y-75057548D01*
X119341678Y-75039963D01*
X119340489Y-75036743D01*
X119351396Y-75035666D01*
X119382589Y-75034665D01*
X119431777Y-75033765D01*
X119496667Y-75032990D01*
X119574970Y-75032363D01*
X119664393Y-75031909D01*
X119762644Y-75031651D01*
X119831555Y-75031600D01*
X119936548Y-75031820D01*
X120033390Y-75032452D01*
X120119893Y-75033451D01*
X120193868Y-75034773D01*
X120253126Y-75036374D01*
X120295480Y-75038209D01*
X120318740Y-75040235D01*
X120322622Y-75041507D01*
X120314924Y-75056409D01*
X120306926Y-75064440D01*
X120293754Y-75081566D01*
X120276515Y-75111817D01*
X120264593Y-75136378D01*
X120237955Y-75195289D01*
X120234880Y-76372155D01*
X120231805Y-77549022D01*
X119786147Y-77549022D01*
X119688330Y-77548858D01*
X119597936Y-77548389D01*
X119517370Y-77547653D01*
X119449038Y-77546684D01*
X119395344Y-77545520D01*
X119358695Y-77544197D01*
X119341496Y-77542751D01*
X119340489Y-77542298D01*
X118329483Y-77542298D01*
X118344730Y-77561278D01*
X118418910Y-77653463D01*
X118490931Y-77742796D01*
X118559431Y-77827576D01*
X118623045Y-77906102D01*
X118680412Y-77976674D01*
X118730167Y-78037591D01*
X118770948Y-78087153D01*
X118788112Y-78107822D01*
X118874404Y-78208484D01*
X118951003Y-78291741D01*
X119019817Y-78359562D01*
X119082752Y-78413911D01*
X119092133Y-78421278D01*
X119131644Y-78451883D01*
X117999884Y-78452133D01*
X118005173Y-78404156D01*
X118001870Y-78346812D01*
X117980339Y-78278537D01*
X117940365Y-78198788D01*
X117895057Y-78126505D01*
X117878839Y-78103860D01*
X117850786Y-78066304D01*
X117812570Y-78015979D01*
X117765863Y-77955027D01*
X117712339Y-77885589D01*
X117653669Y-77809806D01*
X117591525Y-77729820D01*
X117527579Y-77647772D01*
X117463505Y-77565804D01*
X117400973Y-77486057D01*
X117341657Y-77410673D01*
X117287229Y-77341793D01*
X117239361Y-77281558D01*
X117199725Y-77232111D01*
X117169994Y-77195592D01*
X117151839Y-77174142D01*
X117148780Y-77170844D01*
X117145921Y-77178851D01*
X117143707Y-77209145D01*
X117142143Y-77261444D01*
X117141233Y-77335469D01*
X117140980Y-77430937D01*
X117141387Y-77547566D01*
X117142296Y-77667555D01*
X117143618Y-77799667D01*
X117145143Y-77911406D01*
X117147119Y-78004975D01*
X117149794Y-78082581D01*
X117153418Y-78146426D01*
X117158239Y-78198717D01*
X117164506Y-78241656D01*
X117172468Y-78277449D01*
X117182373Y-78308300D01*
X117194469Y-78336414D01*
X117209007Y-78363995D01*
X117223689Y-78389034D01*
X117261686Y-78452133D01*
X116201803Y-78452133D01*
X115898966Y-78452133D01*
X115898999Y-78458383D01*
X115899805Y-78560456D01*
X115900830Y-78649367D01*
X115902100Y-78726059D01*
X115903640Y-78791473D01*
X115905476Y-78846551D01*
X115907633Y-78892235D01*
X115910137Y-78929466D01*
X115913013Y-78959187D01*
X115916287Y-78982338D01*
X115919985Y-78999861D01*
X115924131Y-79012699D01*
X115928753Y-79021792D01*
X115933874Y-79028082D01*
X115939522Y-79032512D01*
X115945721Y-79036022D01*
X115952496Y-79039555D01*
X115958492Y-79043124D01*
X115963725Y-79045700D01*
X115971901Y-79048028D01*
X115984114Y-79050122D01*
X116001459Y-79051993D01*
X116025031Y-79053653D01*
X116055923Y-79055116D01*
X116095232Y-79056392D01*
X116144050Y-79057496D01*
X116203473Y-79058439D01*
X116274596Y-79059233D01*
X116358512Y-79059891D01*
X116456317Y-79060425D01*
X116569106Y-79060847D01*
X116697971Y-79061171D01*
X116844009Y-79061408D01*
X117008314Y-79061570D01*
X117191980Y-79061670D01*
X117396103Y-79061720D01*
X117607247Y-79061733D01*
X119227600Y-79061733D01*
X119227600Y-78964946D01*
X119227600Y-78964946D01*
G37*
X119227600Y-78964946D02*
X119238465Y-78851007D01*
X119270082Y-78743384D01*
X119320985Y-78644385D01*
X119389707Y-78556316D01*
X119474781Y-78481484D01*
X119571768Y-78423616D01*
X119678036Y-78383995D01*
X119785050Y-78365427D01*
X119890700Y-78366566D01*
X119992875Y-78386070D01*
X120089466Y-78422594D01*
X120178362Y-78474795D01*
X120257454Y-78541327D01*
X120324631Y-78620848D01*
X120377783Y-78712013D01*
X120414801Y-78813477D01*
X120433573Y-78923898D01*
X120435511Y-78973794D01*
X120435511Y-79061733D01*
X120487440Y-79061733D01*
X120523747Y-79058889D01*
X120550645Y-79047089D01*
X120577751Y-79023351D01*
X120616133Y-78984969D01*
X120616133Y-76793398D01*
X120616124Y-76531261D01*
X120616092Y-76290759D01*
X120616028Y-76070952D01*
X120615924Y-75870899D01*
X120615773Y-75689656D01*
X120615566Y-75526284D01*
X120615294Y-75379840D01*
X120614950Y-75249383D01*
X120614526Y-75133971D01*
X120614013Y-75032662D01*
X120613403Y-74944516D01*
X120612688Y-74868590D01*
X120611860Y-74803943D01*
X120610911Y-74749633D01*
X120609833Y-74704720D01*
X120608617Y-74668260D01*
X120607255Y-74639313D01*
X120605739Y-74616937D01*
X120604062Y-74600191D01*
X120602214Y-74588132D01*
X120600187Y-74579820D01*
X120597975Y-74574313D01*
X120596892Y-74572463D01*
X120592729Y-74565451D01*
X120589195Y-74559004D01*
X120585365Y-74553100D01*
X120580318Y-74547714D01*
X120573129Y-74542822D01*
X120562877Y-74538402D01*
X120548636Y-74534428D01*
X120529486Y-74530879D01*
X120504501Y-74527730D01*
X120472760Y-74524958D01*
X120433338Y-74522539D01*
X120385314Y-74520449D01*
X120327763Y-74518665D01*
X120259763Y-74517163D01*
X120180390Y-74515920D01*
X120088721Y-74514911D01*
X119983834Y-74514115D01*
X119864804Y-74513506D01*
X119730710Y-74513061D01*
X119580627Y-74512757D01*
X119413633Y-74512570D01*
X119228804Y-74512476D01*
X119025217Y-74512452D01*
X118801950Y-74512475D01*
X118558078Y-74512520D01*
X118292679Y-74512563D01*
X118254296Y-74512568D01*
X117987318Y-74512611D01*
X117741998Y-74512682D01*
X117517417Y-74512787D01*
X117312655Y-74512934D01*
X117126794Y-74513131D01*
X116958912Y-74513384D01*
X116808092Y-74513700D01*
X116673413Y-74514087D01*
X116553956Y-74514553D01*
X116448801Y-74515103D01*
X116357029Y-74515747D01*
X116277721Y-74516489D01*
X116209957Y-74517339D01*
X116152818Y-74518303D01*
X116105383Y-74519389D01*
X116066734Y-74520603D01*
X116035951Y-74521953D01*
X116012115Y-74523445D01*
X115994306Y-74525089D01*
X115981605Y-74526889D01*
X115973092Y-74528855D01*
X115968734Y-74530523D01*
X115960272Y-74534094D01*
X115952503Y-74536730D01*
X115945398Y-74539366D01*
X115938927Y-74542938D01*
X115933061Y-74548379D01*
X115927771Y-74556625D01*
X115923026Y-74568610D01*
X115918798Y-74585269D01*
X115915057Y-74607537D01*
X115911773Y-74636348D01*
X115908917Y-74672637D01*
X115906460Y-74717339D01*
X115904371Y-74771389D01*
X115902622Y-74835721D01*
X115901183Y-74911270D01*
X115900024Y-74998970D01*
X115899117Y-75099757D01*
X115898431Y-75214566D01*
X115897937Y-75344330D01*
X115897605Y-75489985D01*
X115897407Y-75652465D01*
X115897313Y-75832705D01*
X115897292Y-76031640D01*
X115897315Y-76250204D01*
X115897354Y-76489332D01*
X115897378Y-76749960D01*
X115897378Y-76792111D01*
X115897364Y-77055008D01*
X115897339Y-77296268D01*
X115897329Y-77516835D01*
X115897358Y-77717648D01*
X115897452Y-77899651D01*
X115897638Y-78063784D01*
X115897941Y-78210989D01*
X115898386Y-78342208D01*
X115898966Y-78452133D01*
X116201803Y-78452133D01*
X116241593Y-78394289D01*
X116252764Y-78378521D01*
X116262834Y-78364559D01*
X116271862Y-78351216D01*
X116279903Y-78337307D01*
X116287014Y-78321644D01*
X116293253Y-78303042D01*
X116298675Y-78280314D01*
X116303338Y-78252273D01*
X116307299Y-78217733D01*
X116310615Y-78175508D01*
X116313341Y-78124411D01*
X116315536Y-78063256D01*
X116317255Y-77990856D01*
X116318556Y-77906025D01*
X116319495Y-77807578D01*
X116320130Y-77694326D01*
X116320516Y-77565084D01*
X116320712Y-77418666D01*
X116320773Y-77253884D01*
X116320757Y-77069553D01*
X116320720Y-76864487D01*
X116320711Y-76741867D01*
X116320735Y-76524918D01*
X116320769Y-76329358D01*
X116320757Y-76154001D01*
X116320642Y-75997659D01*
X116320370Y-75859143D01*
X116319882Y-75737266D01*
X116319124Y-75630840D01*
X116318038Y-75538678D01*
X116316569Y-75459591D01*
X116314660Y-75392392D01*
X116312256Y-75335893D01*
X116309299Y-75288907D01*
X116305734Y-75250245D01*
X116301505Y-75218720D01*
X116296554Y-75193145D01*
X116290827Y-75172330D01*
X116284267Y-75155089D01*
X116276817Y-75140235D01*
X116268421Y-75126578D01*
X116259024Y-75112931D01*
X116248568Y-75098107D01*
X116242477Y-75089217D01*
X116203704Y-75031600D01*
X116735268Y-75031600D01*
X116858517Y-75031635D01*
X116961013Y-75031785D01*
X117044580Y-75032122D01*
X117111044Y-75032714D01*
X117162229Y-75033633D01*
X117199959Y-75034949D01*
X117226060Y-75036731D01*
X117242356Y-75039049D01*
X117250672Y-75041974D01*
X117252832Y-75045576D01*
X117250661Y-75049925D01*
X117249465Y-75051355D01*
X117224315Y-75088427D01*
X117198417Y-75141228D01*
X117174808Y-75203230D01*
X117166539Y-75229643D01*
X117161922Y-75247584D01*
X117158021Y-75268645D01*
X117154752Y-75294911D01*
X117152034Y-75328468D01*
X117149785Y-75371401D01*
X117147923Y-75425796D01*
X117146364Y-75493738D01*
X117145028Y-75577312D01*
X117143831Y-75678605D01*
X117142692Y-75799700D01*
X117142315Y-75844400D01*
X117141298Y-75969551D01*
X117140540Y-76073918D01*
X117140097Y-76159293D01*
X117140030Y-76227467D01*
X117140395Y-76280235D01*
X117141252Y-76319386D01*
X117142659Y-76346715D01*
X117144675Y-76364014D01*
X117147357Y-76373074D01*
X117150764Y-76375688D01*
X117154956Y-76373649D01*
X117159429Y-76369333D01*
X117169784Y-76356398D01*
X117191842Y-76327324D01*
X117224043Y-76284241D01*
X117264826Y-76229282D01*
X117312630Y-76164577D01*
X117365895Y-76092258D01*
X117423060Y-76014456D01*
X117482563Y-75933302D01*
X117542845Y-75850928D01*
X117602345Y-75769464D01*
X117659502Y-75691043D01*
X117712755Y-75617796D01*
X117760543Y-75551853D01*
X117801307Y-75495346D01*
X117833484Y-75450407D01*
X117855515Y-75419166D01*
X117860083Y-75412534D01*
X117883004Y-75375631D01*
X117909812Y-75327641D01*
X117935211Y-75278103D01*
X117938432Y-75271423D01*
X117960110Y-75223228D01*
X117972696Y-75185666D01*
X117978426Y-75149840D01*
X117979544Y-75107800D01*
X117978910Y-75031600D01*
X119133349Y-75031600D01*
X119042185Y-75125331D01*
X118995388Y-75175225D01*
X118945101Y-75231705D01*
X118899056Y-75285974D01*
X118878631Y-75311327D01*
X118848193Y-75350872D01*
X118808138Y-75404084D01*
X118759639Y-75469333D01*
X118703865Y-75544989D01*
X118641989Y-75629423D01*
X118575181Y-75721006D01*
X118504613Y-75818108D01*
X118431455Y-75919099D01*
X118356879Y-76022350D01*
X118282056Y-76126232D01*
X118208157Y-76229115D01*
X118136354Y-76329369D01*
X118067816Y-76425364D01*
X118003716Y-76515473D01*
X117945225Y-76598064D01*
X117893514Y-76671508D01*
X117849753Y-76734176D01*
X117815115Y-76784439D01*
X117790770Y-76820666D01*
X117777889Y-76841229D01*
X117776131Y-76845332D01*
X117784090Y-76856658D01*
X117804885Y-76883838D01*
X117837153Y-76925171D01*
X117879530Y-76978956D01*
X117930653Y-77043494D01*
X117989159Y-77117082D01*
X118053686Y-77198022D01*
X118122869Y-77284612D01*
X118195347Y-77375152D01*
X118269754Y-77467940D01*
X118329483Y-77542298D01*
X119340489Y-77542298D01*
X119346398Y-77529341D01*
X119360728Y-77507092D01*
X119361775Y-77505609D01*
X119380562Y-77475456D01*
X119400209Y-77438625D01*
X119404108Y-77430489D01*
X119407644Y-77422060D01*
X119410770Y-77411941D01*
X119413514Y-77398740D01*
X119415908Y-77381062D01*
X119417981Y-77357516D01*
X119419765Y-77326707D01*
X119421288Y-77287243D01*
X119422581Y-77237731D01*
X119423674Y-77176777D01*
X119424597Y-77102989D01*
X119425381Y-77014972D01*
X119426055Y-76911335D01*
X119426650Y-76790684D01*
X119427195Y-76651626D01*
X119427721Y-76492768D01*
X119428255Y-76313911D01*
X119428794Y-76128793D01*
X119429228Y-75964855D01*
X119429491Y-75820697D01*
X119429516Y-75694921D01*
X119429235Y-75586129D01*
X119428581Y-75492923D01*
X119427486Y-75413903D01*
X119425882Y-75347672D01*
X119423703Y-75292830D01*
X119420881Y-75247979D01*
X119417349Y-75211722D01*
X119413039Y-75182659D01*
X119407883Y-75159391D01*
X119401815Y-75140521D01*
X119394767Y-75124649D01*
X119386671Y-75110378D01*
X119377460Y-75096309D01*
X119368960Y-75083842D01*
X119351824Y-75057548D01*
X119341678Y-75039963D01*
X119340489Y-75036743D01*
X119351396Y-75035666D01*
X119382589Y-75034665D01*
X119431777Y-75033765D01*
X119496667Y-75032990D01*
X119574970Y-75032363D01*
X119664393Y-75031909D01*
X119762644Y-75031651D01*
X119831555Y-75031600D01*
X119936548Y-75031820D01*
X120033390Y-75032452D01*
X120119893Y-75033451D01*
X120193868Y-75034773D01*
X120253126Y-75036374D01*
X120295480Y-75038209D01*
X120318740Y-75040235D01*
X120322622Y-75041507D01*
X120314924Y-75056409D01*
X120306926Y-75064440D01*
X120293754Y-75081566D01*
X120276515Y-75111817D01*
X120264593Y-75136378D01*
X120237955Y-75195289D01*
X120234880Y-76372155D01*
X120231805Y-77549022D01*
X119786147Y-77549022D01*
X119688330Y-77548858D01*
X119597936Y-77548389D01*
X119517370Y-77547653D01*
X119449038Y-77546684D01*
X119395344Y-77545520D01*
X119358695Y-77544197D01*
X119341496Y-77542751D01*
X119340489Y-77542298D01*
X118329483Y-77542298D01*
X118344730Y-77561278D01*
X118418910Y-77653463D01*
X118490931Y-77742796D01*
X118559431Y-77827576D01*
X118623045Y-77906102D01*
X118680412Y-77976674D01*
X118730167Y-78037591D01*
X118770948Y-78087153D01*
X118788112Y-78107822D01*
X118874404Y-78208484D01*
X118951003Y-78291741D01*
X119019817Y-78359562D01*
X119082752Y-78413911D01*
X119092133Y-78421278D01*
X119131644Y-78451883D01*
X117999884Y-78452133D01*
X118005173Y-78404156D01*
X118001870Y-78346812D01*
X117980339Y-78278537D01*
X117940365Y-78198788D01*
X117895057Y-78126505D01*
X117878839Y-78103860D01*
X117850786Y-78066304D01*
X117812570Y-78015979D01*
X117765863Y-77955027D01*
X117712339Y-77885589D01*
X117653669Y-77809806D01*
X117591525Y-77729820D01*
X117527579Y-77647772D01*
X117463505Y-77565804D01*
X117400973Y-77486057D01*
X117341657Y-77410673D01*
X117287229Y-77341793D01*
X117239361Y-77281558D01*
X117199725Y-77232111D01*
X117169994Y-77195592D01*
X117151839Y-77174142D01*
X117148780Y-77170844D01*
X117145921Y-77178851D01*
X117143707Y-77209145D01*
X117142143Y-77261444D01*
X117141233Y-77335469D01*
X117140980Y-77430937D01*
X117141387Y-77547566D01*
X117142296Y-77667555D01*
X117143618Y-77799667D01*
X117145143Y-77911406D01*
X117147119Y-78004975D01*
X117149794Y-78082581D01*
X117153418Y-78146426D01*
X117158239Y-78198717D01*
X117164506Y-78241656D01*
X117172468Y-78277449D01*
X117182373Y-78308300D01*
X117194469Y-78336414D01*
X117209007Y-78363995D01*
X117223689Y-78389034D01*
X117261686Y-78452133D01*
X116201803Y-78452133D01*
X115898966Y-78452133D01*
X115898999Y-78458383D01*
X115899805Y-78560456D01*
X115900830Y-78649367D01*
X115902100Y-78726059D01*
X115903640Y-78791473D01*
X115905476Y-78846551D01*
X115907633Y-78892235D01*
X115910137Y-78929466D01*
X115913013Y-78959187D01*
X115916287Y-78982338D01*
X115919985Y-78999861D01*
X115924131Y-79012699D01*
X115928753Y-79021792D01*
X115933874Y-79028082D01*
X115939522Y-79032512D01*
X115945721Y-79036022D01*
X115952496Y-79039555D01*
X115958492Y-79043124D01*
X115963725Y-79045700D01*
X115971901Y-79048028D01*
X115984114Y-79050122D01*
X116001459Y-79051993D01*
X116025031Y-79053653D01*
X116055923Y-79055116D01*
X116095232Y-79056392D01*
X116144050Y-79057496D01*
X116203473Y-79058439D01*
X116274596Y-79059233D01*
X116358512Y-79059891D01*
X116456317Y-79060425D01*
X116569106Y-79060847D01*
X116697971Y-79061171D01*
X116844009Y-79061408D01*
X117008314Y-79061570D01*
X117191980Y-79061670D01*
X117396103Y-79061720D01*
X117607247Y-79061733D01*
X119227600Y-79061733D01*
X119227600Y-78964946D01*
D11*
X170875000Y-89881400D02*
X168275000Y-89881400D01*
X170875000Y-89881400D02*
X170875000Y-97621400D01*
X170875000Y-97621400D02*
X165675000Y-97621400D01*
X165675000Y-92481400D02*
X165675000Y-97621400D01*
X168275000Y-92481400D02*
X165675000Y-92481400D01*
X168275000Y-89881400D02*
X168275000Y-92481400D01*
X165675000Y-89881400D02*
X165675000Y-91211400D01*
X167005000Y-89881400D02*
X165675000Y-89881400D01*
X190754000Y-90698000D02*
X194204000Y-90698000D01*
X190754000Y-90698000D02*
X188804000Y-90698000D01*
X190754000Y-100818000D02*
X192704000Y-100818000D01*
X190754000Y-100818000D02*
X188804000Y-100818000D01*
X180236400Y-77785179D02*
X180236400Y-77459621D01*
X181256400Y-77785179D02*
X181256400Y-77459621D01*
X188681579Y-88698800D02*
X188356021Y-88698800D01*
X188681579Y-87678800D02*
X188356021Y-87678800D01*
X178712400Y-77785179D02*
X178712400Y-77459621D01*
X179732400Y-77785179D02*
X179732400Y-77459621D01*
X188681579Y-90273600D02*
X188356021Y-90273600D01*
X188681579Y-89253600D02*
X188356021Y-89253600D01*
X179538201Y-75157401D02*
X179538201Y-73257401D01*
X181858201Y-73757401D02*
X181858201Y-75157401D01*
X107741700Y-106731400D02*
X115801700Y-106731400D01*
X115801700Y-106731400D02*
X115801700Y-111251400D01*
X115801700Y-111251400D02*
X107741700Y-111251400D01*
X132463221Y-74170000D02*
X132788779Y-74170000D01*
X132463221Y-73150000D02*
X132788779Y-73150000D01*
X166666833Y-88389666D02*
X166666833Y-88889666D01*
X166700166Y-88989666D01*
X166766833Y-89056333D01*
X166866833Y-89089666D01*
X166933500Y-89089666D01*
X166400166Y-88389666D02*
X165966833Y-88389666D01*
X166200166Y-88656333D01*
X166100166Y-88656333D01*
X166033500Y-88689666D01*
X166000166Y-88723000D01*
X165966833Y-88789666D01*
X165966833Y-88956333D01*
X166000166Y-89023000D01*
X166033500Y-89056333D01*
X166100166Y-89089666D01*
X166300166Y-89089666D01*
X166366833Y-89056333D01*
X166400166Y-89023000D01*
X191287333Y-89474666D02*
X191287333Y-90041333D01*
X191254000Y-90108000D01*
X191220666Y-90141333D01*
X191154000Y-90174666D01*
X191020666Y-90174666D01*
X190954000Y-90141333D01*
X190920666Y-90108000D01*
X190887333Y-90041333D01*
X190887333Y-89474666D01*
X190220666Y-89474666D02*
X190554000Y-89474666D01*
X190587333Y-89808000D01*
X190554000Y-89774666D01*
X190487333Y-89741333D01*
X190320666Y-89741333D01*
X190254000Y-89774666D01*
X190220666Y-89808000D01*
X190187333Y-89874666D01*
X190187333Y-90041333D01*
X190220666Y-90108000D01*
X190254000Y-90141333D01*
X190320666Y-90174666D01*
X190487333Y-90174666D01*
X190554000Y-90141333D01*
X190587333Y-90108000D01*
X182426400Y-77505733D02*
X182459733Y-77472400D01*
X182493066Y-77372400D01*
X182493066Y-77305733D01*
X182459733Y-77205733D01*
X182393066Y-77139066D01*
X182326400Y-77105733D01*
X182193066Y-77072400D01*
X182093066Y-77072400D01*
X181959733Y-77105733D01*
X181893066Y-77139066D01*
X181826400Y-77205733D01*
X181793066Y-77305733D01*
X181793066Y-77372400D01*
X181826400Y-77472400D01*
X181859733Y-77505733D01*
X181793066Y-77739066D02*
X181793066Y-78205733D01*
X182493066Y-77905733D01*
X186073200Y-88337200D02*
X186106533Y-88370533D01*
X186206533Y-88403866D01*
X186273200Y-88403866D01*
X186373200Y-88370533D01*
X186439866Y-88303866D01*
X186473200Y-88237200D01*
X186506533Y-88103866D01*
X186506533Y-88003866D01*
X186473200Y-87870533D01*
X186439866Y-87803866D01*
X186373200Y-87737200D01*
X186273200Y-87703866D01*
X186206533Y-87703866D01*
X186106533Y-87737200D01*
X186073200Y-87770533D01*
X185406533Y-88403866D02*
X185806533Y-88403866D01*
X185606533Y-88403866D02*
X185606533Y-87703866D01*
X185673200Y-87803866D01*
X185739866Y-87870533D01*
X185806533Y-87903866D01*
X184739866Y-88403866D02*
X185139866Y-88403866D01*
X184939866Y-88403866D02*
X184939866Y-87703866D01*
X185006533Y-87803866D01*
X185073200Y-87870533D01*
X185139866Y-87903866D01*
X179472400Y-79944133D02*
X179505733Y-79910800D01*
X179539066Y-79810800D01*
X179539066Y-79744133D01*
X179505733Y-79644133D01*
X179439066Y-79577466D01*
X179372400Y-79544133D01*
X179239066Y-79510800D01*
X179139066Y-79510800D01*
X179005733Y-79544133D01*
X178939066Y-79577466D01*
X178872400Y-79644133D01*
X178839066Y-79744133D01*
X178839066Y-79810800D01*
X178872400Y-79910800D01*
X178905733Y-79944133D01*
X178839066Y-80544133D02*
X178839066Y-80410800D01*
X178872400Y-80344133D01*
X178905733Y-80310800D01*
X179005733Y-80244133D01*
X179139066Y-80210800D01*
X179405733Y-80210800D01*
X179472400Y-80244133D01*
X179505733Y-80277466D01*
X179539066Y-80344133D01*
X179539066Y-80477466D01*
X179505733Y-80544133D01*
X179472400Y-80577466D01*
X179405733Y-80610800D01*
X179239066Y-80610800D01*
X179172400Y-80577466D01*
X179139066Y-80544133D01*
X179105733Y-80477466D01*
X179105733Y-80344133D01*
X179139066Y-80277466D01*
X179172400Y-80244133D01*
X179239066Y-80210800D01*
X186124000Y-90013600D02*
X186157333Y-90046933D01*
X186257333Y-90080266D01*
X186324000Y-90080266D01*
X186424000Y-90046933D01*
X186490666Y-89980266D01*
X186524000Y-89913600D01*
X186557333Y-89780266D01*
X186557333Y-89680266D01*
X186524000Y-89546933D01*
X186490666Y-89480266D01*
X186424000Y-89413600D01*
X186324000Y-89380266D01*
X186257333Y-89380266D01*
X186157333Y-89413600D01*
X186124000Y-89446933D01*
X185457333Y-90080266D02*
X185857333Y-90080266D01*
X185657333Y-90080266D02*
X185657333Y-89380266D01*
X185724000Y-89480266D01*
X185790666Y-89546933D01*
X185857333Y-89580266D01*
X185024000Y-89380266D02*
X184957333Y-89380266D01*
X184890666Y-89413600D01*
X184857333Y-89446933D01*
X184824000Y-89513600D01*
X184790666Y-89646933D01*
X184790666Y-89813600D01*
X184824000Y-89946933D01*
X184857333Y-90013600D01*
X184890666Y-90046933D01*
X184957333Y-90080266D01*
X185024000Y-90080266D01*
X185090666Y-90046933D01*
X185124000Y-90013600D01*
X185157333Y-89946933D01*
X185190666Y-89813600D01*
X185190666Y-89646933D01*
X185157333Y-89513600D01*
X185124000Y-89446933D01*
X185090666Y-89413600D01*
X185024000Y-89380266D01*
X178314867Y-73924067D02*
X178881534Y-73924067D01*
X178948201Y-73957401D01*
X178981534Y-73990734D01*
X179014867Y-74057401D01*
X179014867Y-74190734D01*
X178981534Y-74257401D01*
X178948201Y-74290734D01*
X178881534Y-74324067D01*
X178314867Y-74324067D01*
X178314867Y-74590734D02*
X178314867Y-75024067D01*
X178581534Y-74790734D01*
X178581534Y-74890734D01*
X178614867Y-74957401D01*
X178648201Y-74990734D01*
X178714867Y-75024067D01*
X178881534Y-75024067D01*
X178948201Y-74990734D01*
X178981534Y-74957401D01*
X179014867Y-74890734D01*
X179014867Y-74690734D01*
X178981534Y-74624067D01*
X178948201Y-74590734D01*
X111508366Y-106141400D02*
X111541700Y-106174733D01*
X111641700Y-106208066D01*
X111708366Y-106208066D01*
X111808366Y-106174733D01*
X111875033Y-106108066D01*
X111908366Y-106041400D01*
X111941700Y-105908066D01*
X111941700Y-105808066D01*
X111908366Y-105674733D01*
X111875033Y-105608066D01*
X111808366Y-105541400D01*
X111708366Y-105508066D01*
X111641700Y-105508066D01*
X111541700Y-105541400D01*
X111508366Y-105574733D01*
X110841700Y-106208066D02*
X111241700Y-106208066D01*
X111041700Y-106208066D02*
X111041700Y-105508066D01*
X111108366Y-105608066D01*
X111175033Y-105674733D01*
X111241700Y-105708066D01*
X135127166Y-73543333D02*
X134793833Y-73310000D01*
X135127166Y-73143333D02*
X134427166Y-73143333D01*
X134427166Y-73410000D01*
X134460500Y-73476666D01*
X134493833Y-73510000D01*
X134560500Y-73543333D01*
X134660500Y-73543333D01*
X134727166Y-73510000D01*
X134760500Y-73476666D01*
X134793833Y-73410000D01*
X134793833Y-73143333D01*
X134493833Y-73810000D02*
X134460500Y-73843333D01*
X134427166Y-73910000D01*
X134427166Y-74076666D01*
X134460500Y-74143333D01*
X134493833Y-74176666D01*
X134560500Y-74210000D01*
X134627166Y-74210000D01*
X134727166Y-74176666D01*
X135127166Y-73776666D01*
X135127166Y-74210000D01*
M02*
