%TF.GenerationSoftware,KiCad,Pcbnew,(5.1.2)-1*%
%TF.CreationDate,2020-09-11T17:40:03+02:00*%
%TF.ProjectId,ArduinoShield_SPIlinedriver_Sync_2V0,41726475-696e-46f5-9368-69656c645f53,3.1*%
%TF.SameCoordinates,Original*%
%TF.FileFunction,Other,User*%
%FSLAX46Y46*%
G04 Gerber Fmt 4.6, Leading zero omitted, Abs format (unit mm)*
G04 Created by KiCad (PCBNEW (5.1.2)-1) date 2020-09-11 17:40:03*
%MOMM*%
%LPD*%
G04 APERTURE LIST*
%ADD10C,0.050000*%
G04 APERTURE END LIST*
D10*
X171345000Y-89411400D02*
X165245000Y-89411400D01*
X165245000Y-89411400D02*
X165245000Y-98061400D01*
X165245000Y-98061400D02*
X171345000Y-98061400D01*
X171345000Y-98061400D02*
X171345000Y-89411400D01*
X187054000Y-90558000D02*
X194454000Y-90558000D01*
X187054000Y-100958000D02*
X187054000Y-90558000D01*
X194454000Y-100958000D02*
X187054000Y-100958000D01*
X194454000Y-90558000D02*
X194454000Y-100958000D01*
X180016400Y-76142400D02*
X180016400Y-79102400D01*
X181476400Y-76142400D02*
X180016400Y-76142400D01*
X181476400Y-79102400D02*
X181476400Y-76142400D01*
X180016400Y-79102400D02*
X181476400Y-79102400D01*
X187038800Y-88918800D02*
X189998800Y-88918800D01*
X187038800Y-87458800D02*
X187038800Y-88918800D01*
X189998800Y-87458800D02*
X187038800Y-87458800D01*
X189998800Y-88918800D02*
X189998800Y-87458800D01*
X178492400Y-76142400D02*
X178492400Y-79102400D01*
X179952400Y-76142400D02*
X178492400Y-76142400D01*
X179952400Y-79102400D02*
X179952400Y-76142400D01*
X178492400Y-79102400D02*
X179952400Y-79102400D01*
X187038800Y-90493600D02*
X189998800Y-90493600D01*
X187038800Y-89033600D02*
X187038800Y-90493600D01*
X189998800Y-89033600D02*
X187038800Y-89033600D01*
X189998800Y-90493600D02*
X189998800Y-89033600D01*
X182098201Y-76057401D02*
X179298201Y-76057401D01*
X179298201Y-72857401D02*
X182098201Y-72857401D01*
X179298201Y-72857401D02*
X179298201Y-76057401D01*
X182098201Y-72857401D02*
X182098201Y-76057401D01*
X115791700Y-111391400D02*
X115791700Y-106591400D01*
X115791700Y-106591400D02*
X106991700Y-106591400D01*
X106991700Y-106591400D02*
X106991700Y-111391400D01*
X106991700Y-111391400D02*
X115791700Y-111391400D01*
X131146000Y-72930000D02*
X131146000Y-74390000D01*
X131146000Y-74390000D02*
X134106000Y-74390000D01*
X134106000Y-74390000D02*
X134106000Y-72930000D01*
X134106000Y-72930000D02*
X131146000Y-72930000D01*
M02*
