%TF.GenerationSoftware,KiCad,Pcbnew,(5.1.2)-1*%
%TF.CreationDate,2020-09-11T17:40:03+02:00*%
%TF.ProjectId,ArduinoShield_SPIlinedriver_Sync_2V0,41726475-696e-46f5-9368-69656c645f53,3.1*%
%TF.SameCoordinates,Original*%
%TF.FileFunction,Other,Fab,Bot*%
%FSLAX46Y46*%
G04 Gerber Fmt 4.6, Leading zero omitted, Abs format (unit mm)*
G04 Created by KiCad (PCBNEW (5.1.2)-1) date 2020-09-11 17:40:03*
%MOMM*%
%LPD*%
G04 APERTURE LIST*
%ADD10C,0.150000*%
G04 APERTURE END LIST*
D10*
X170815000Y-89941400D02*
X166735000Y-89941400D01*
X166735000Y-89941400D02*
X165735000Y-90941400D01*
X165735000Y-90941400D02*
X165735000Y-97561400D01*
X165735000Y-97561400D02*
X170815000Y-97561400D01*
X170815000Y-97561400D02*
X170815000Y-89941400D01*
X192704000Y-91783000D02*
X191729000Y-90808000D01*
X192704000Y-100708000D02*
X192704000Y-91783000D01*
X188804000Y-100708000D02*
X192704000Y-100708000D01*
X188804000Y-90808000D02*
X188804000Y-100708000D01*
X191729000Y-90808000D02*
X188804000Y-90808000D01*
X180346400Y-76822400D02*
X180346400Y-78422400D01*
X181146400Y-76822400D02*
X180346400Y-76822400D01*
X181146400Y-78422400D02*
X181146400Y-76822400D01*
X180346400Y-78422400D02*
X181146400Y-78422400D01*
X187718800Y-88588800D02*
X189318800Y-88588800D01*
X187718800Y-87788800D02*
X187718800Y-88588800D01*
X189318800Y-87788800D02*
X187718800Y-87788800D01*
X189318800Y-88588800D02*
X189318800Y-87788800D01*
X178822400Y-76822400D02*
X178822400Y-78422400D01*
X179622400Y-76822400D02*
X178822400Y-76822400D01*
X179622400Y-78422400D02*
X179622400Y-76822400D01*
X178822400Y-78422400D02*
X179622400Y-78422400D01*
X187718800Y-90163600D02*
X189318800Y-90163600D01*
X187718800Y-89363600D02*
X187718800Y-90163600D01*
X189318800Y-89363600D02*
X187718800Y-89363600D01*
X189318800Y-90163600D02*
X189318800Y-89363600D01*
X179598201Y-75132401D02*
X179598201Y-74282401D01*
X180098201Y-73782401D02*
X181798201Y-73782401D01*
X179598201Y-75132401D02*
X181798201Y-75132401D01*
X181798201Y-75132401D02*
X181798201Y-73782401D01*
X179598201Y-74282401D02*
X180098201Y-73782401D01*
X107741700Y-106841400D02*
X114041700Y-106841400D01*
X114041700Y-106841400D02*
X115041700Y-107841400D01*
X115041700Y-107841400D02*
X115041700Y-111141400D01*
X115041700Y-111141400D02*
X107741700Y-111141400D01*
X107741700Y-111141400D02*
X107741700Y-106841400D01*
X131826000Y-73260000D02*
X131826000Y-74060000D01*
X131826000Y-74060000D02*
X133426000Y-74060000D01*
X133426000Y-74060000D02*
X133426000Y-73260000D01*
X133426000Y-73260000D02*
X131826000Y-73260000D01*
X169298809Y-99466161D02*
X169155952Y-99513780D01*
X168917857Y-99513780D01*
X168822619Y-99466161D01*
X168775000Y-99418542D01*
X168727380Y-99323304D01*
X168727380Y-99228066D01*
X168775000Y-99132828D01*
X168822619Y-99085209D01*
X168917857Y-99037590D01*
X169108333Y-98989971D01*
X169203571Y-98942352D01*
X169251190Y-98894733D01*
X169298809Y-98799495D01*
X169298809Y-98704257D01*
X169251190Y-98609019D01*
X169203571Y-98561400D01*
X169108333Y-98513780D01*
X168870238Y-98513780D01*
X168727380Y-98561400D01*
X168298809Y-99513780D02*
X168298809Y-98513780D01*
X167917857Y-98513780D01*
X167822619Y-98561400D01*
X167775000Y-98609019D01*
X167727380Y-98704257D01*
X167727380Y-98847114D01*
X167775000Y-98942352D01*
X167822619Y-98989971D01*
X167917857Y-99037590D01*
X168298809Y-99037590D01*
X167298809Y-99513780D02*
X167298809Y-98513780D01*
X167727380Y-93418066D02*
X168441666Y-93418066D01*
X168584523Y-93370447D01*
X168679761Y-93275209D01*
X168727380Y-93132352D01*
X168727380Y-93037114D01*
X167727380Y-93799019D02*
X167727380Y-94418066D01*
X168108333Y-94084733D01*
X168108333Y-94227590D01*
X168155952Y-94322828D01*
X168203571Y-94370447D01*
X168298809Y-94418066D01*
X168536904Y-94418066D01*
X168632142Y-94370447D01*
X168679761Y-94322828D01*
X168727380Y-94227590D01*
X168727380Y-93941876D01*
X168679761Y-93846638D01*
X168632142Y-93799019D01*
X194444476Y-101110380D02*
X193777809Y-101110380D01*
X194206380Y-102110380D01*
X192968285Y-101443714D02*
X192968285Y-102110380D01*
X193206380Y-101062761D02*
X193444476Y-101777047D01*
X192825428Y-101777047D01*
X192444476Y-102110380D02*
X192444476Y-101110380D01*
X192444476Y-101586571D02*
X191873047Y-101586571D01*
X191873047Y-102110380D02*
X191873047Y-101110380D01*
X190825428Y-102015142D02*
X190873047Y-102062761D01*
X191015904Y-102110380D01*
X191111142Y-102110380D01*
X191254000Y-102062761D01*
X191349238Y-101967523D01*
X191396857Y-101872285D01*
X191444476Y-101681809D01*
X191444476Y-101538952D01*
X191396857Y-101348476D01*
X191349238Y-101253238D01*
X191254000Y-101158000D01*
X191111142Y-101110380D01*
X191015904Y-101110380D01*
X190873047Y-101158000D01*
X190825428Y-101205619D01*
X189920666Y-101110380D02*
X190396857Y-101110380D01*
X190444476Y-101586571D01*
X190396857Y-101538952D01*
X190301619Y-101491333D01*
X190063523Y-101491333D01*
X189968285Y-101538952D01*
X189920666Y-101586571D01*
X189873047Y-101681809D01*
X189873047Y-101919904D01*
X189920666Y-102015142D01*
X189968285Y-102062761D01*
X190063523Y-102110380D01*
X190301619Y-102110380D01*
X190396857Y-102062761D01*
X190444476Y-102015142D01*
X189396857Y-102110380D02*
X189206380Y-102110380D01*
X189111142Y-102062761D01*
X189063523Y-102015142D01*
X188968285Y-101872285D01*
X188920666Y-101681809D01*
X188920666Y-101300857D01*
X188968285Y-101205619D01*
X189015904Y-101158000D01*
X189111142Y-101110380D01*
X189301619Y-101110380D01*
X189396857Y-101158000D01*
X189444476Y-101205619D01*
X189492095Y-101300857D01*
X189492095Y-101538952D01*
X189444476Y-101634190D01*
X189396857Y-101681809D01*
X189301619Y-101729428D01*
X189111142Y-101729428D01*
X189015904Y-101681809D01*
X188968285Y-101634190D01*
X188920666Y-101538952D01*
X188301619Y-101110380D02*
X188206380Y-101110380D01*
X188111142Y-101158000D01*
X188063523Y-101205619D01*
X188015904Y-101300857D01*
X187968285Y-101491333D01*
X187968285Y-101729428D01*
X188015904Y-101919904D01*
X188063523Y-102015142D01*
X188111142Y-102062761D01*
X188206380Y-102110380D01*
X188301619Y-102110380D01*
X188396857Y-102062761D01*
X188444476Y-102015142D01*
X188492095Y-101919904D01*
X188539714Y-101729428D01*
X188539714Y-101491333D01*
X188492095Y-101300857D01*
X188444476Y-101205619D01*
X188396857Y-101158000D01*
X188301619Y-101110380D01*
X187587333Y-101824666D02*
X187111142Y-101824666D01*
X187682571Y-102110380D02*
X187349238Y-101110380D01*
X187015904Y-102110380D01*
X191515904Y-95210380D02*
X191515904Y-96019904D01*
X191468285Y-96115142D01*
X191420666Y-96162761D01*
X191325428Y-96210380D01*
X191134952Y-96210380D01*
X191039714Y-96162761D01*
X190992095Y-96115142D01*
X190944476Y-96019904D01*
X190944476Y-95210380D01*
X189992095Y-95210380D02*
X190468285Y-95210380D01*
X190515904Y-95686571D01*
X190468285Y-95638952D01*
X190373047Y-95591333D01*
X190134952Y-95591333D01*
X190039714Y-95638952D01*
X189992095Y-95686571D01*
X189944476Y-95781809D01*
X189944476Y-96019904D01*
X189992095Y-96115142D01*
X190039714Y-96162761D01*
X190134952Y-96210380D01*
X190373047Y-96210380D01*
X190468285Y-96162761D01*
X190515904Y-96115142D01*
X179768780Y-76074780D02*
X179768780Y-75503352D01*
X179768780Y-75789066D02*
X178768780Y-75789066D01*
X178911638Y-75693828D01*
X179006876Y-75598590D01*
X179054495Y-75503352D01*
X178768780Y-76693828D02*
X178768780Y-76789066D01*
X178816400Y-76884304D01*
X178864019Y-76931923D01*
X178959257Y-76979542D01*
X179149733Y-77027161D01*
X179387828Y-77027161D01*
X179578304Y-76979542D01*
X179673542Y-76931923D01*
X179721161Y-76884304D01*
X179768780Y-76789066D01*
X179768780Y-76693828D01*
X179721161Y-76598590D01*
X179673542Y-76550971D01*
X179578304Y-76503352D01*
X179387828Y-76455733D01*
X179149733Y-76455733D01*
X178959257Y-76503352D01*
X178864019Y-76550971D01*
X178816400Y-76598590D01*
X178768780Y-76693828D01*
X178768780Y-77646209D02*
X178768780Y-77741447D01*
X178816400Y-77836685D01*
X178864019Y-77884304D01*
X178959257Y-77931923D01*
X179149733Y-77979542D01*
X179387828Y-77979542D01*
X179578304Y-77931923D01*
X179673542Y-77884304D01*
X179721161Y-77836685D01*
X179768780Y-77741447D01*
X179768780Y-77646209D01*
X179721161Y-77550971D01*
X179673542Y-77503352D01*
X179578304Y-77455733D01*
X179387828Y-77408114D01*
X179149733Y-77408114D01*
X178959257Y-77455733D01*
X178864019Y-77503352D01*
X178816400Y-77550971D01*
X178768780Y-77646209D01*
X179102114Y-78408114D02*
X179768780Y-78408114D01*
X179197352Y-78408114D02*
X179149733Y-78455733D01*
X179102114Y-78550971D01*
X179102114Y-78693828D01*
X179149733Y-78789066D01*
X179244971Y-78836685D01*
X179768780Y-78836685D01*
X179244971Y-79646209D02*
X179244971Y-79312876D01*
X179768780Y-79312876D02*
X178768780Y-79312876D01*
X178768780Y-79789066D01*
X181103542Y-77455733D02*
X181151161Y-77408114D01*
X181198780Y-77265257D01*
X181198780Y-77170019D01*
X181151161Y-77027161D01*
X181055923Y-76931923D01*
X180960685Y-76884304D01*
X180770209Y-76836685D01*
X180627352Y-76836685D01*
X180436876Y-76884304D01*
X180341638Y-76931923D01*
X180246400Y-77027161D01*
X180198780Y-77170019D01*
X180198780Y-77265257D01*
X180246400Y-77408114D01*
X180294019Y-77455733D01*
X180198780Y-77789066D02*
X180198780Y-78455733D01*
X181198780Y-78027161D01*
X190066419Y-90071180D02*
X190637847Y-90071180D01*
X190352133Y-90071180D02*
X190352133Y-89071180D01*
X190447371Y-89214038D01*
X190542609Y-89309276D01*
X190637847Y-89356895D01*
X189447371Y-89071180D02*
X189352133Y-89071180D01*
X189256895Y-89118800D01*
X189209276Y-89166419D01*
X189161657Y-89261657D01*
X189114038Y-89452133D01*
X189114038Y-89690228D01*
X189161657Y-89880704D01*
X189209276Y-89975942D01*
X189256895Y-90023561D01*
X189352133Y-90071180D01*
X189447371Y-90071180D01*
X189542609Y-90023561D01*
X189590228Y-89975942D01*
X189637847Y-89880704D01*
X189685466Y-89690228D01*
X189685466Y-89452133D01*
X189637847Y-89261657D01*
X189590228Y-89166419D01*
X189542609Y-89118800D01*
X189447371Y-89071180D01*
X188494990Y-89071180D02*
X188399752Y-89071180D01*
X188304514Y-89118800D01*
X188256895Y-89166419D01*
X188209276Y-89261657D01*
X188161657Y-89452133D01*
X188161657Y-89690228D01*
X188209276Y-89880704D01*
X188256895Y-89975942D01*
X188304514Y-90023561D01*
X188399752Y-90071180D01*
X188494990Y-90071180D01*
X188590228Y-90023561D01*
X188637847Y-89975942D01*
X188685466Y-89880704D01*
X188733085Y-89690228D01*
X188733085Y-89452133D01*
X188685466Y-89261657D01*
X188637847Y-89166419D01*
X188590228Y-89118800D01*
X188494990Y-89071180D01*
X187733085Y-89404514D02*
X187733085Y-90071180D01*
X187733085Y-89499752D02*
X187685466Y-89452133D01*
X187590228Y-89404514D01*
X187447371Y-89404514D01*
X187352133Y-89452133D01*
X187304514Y-89547371D01*
X187304514Y-90071180D01*
X186494990Y-89547371D02*
X186828323Y-89547371D01*
X186828323Y-90071180D02*
X186828323Y-89071180D01*
X186352133Y-89071180D01*
X189161657Y-88545942D02*
X189209276Y-88593561D01*
X189352133Y-88641180D01*
X189447371Y-88641180D01*
X189590228Y-88593561D01*
X189685466Y-88498323D01*
X189733085Y-88403085D01*
X189780704Y-88212609D01*
X189780704Y-88069752D01*
X189733085Y-87879276D01*
X189685466Y-87784038D01*
X189590228Y-87688800D01*
X189447371Y-87641180D01*
X189352133Y-87641180D01*
X189209276Y-87688800D01*
X189161657Y-87736419D01*
X188209276Y-88641180D02*
X188780704Y-88641180D01*
X188494990Y-88641180D02*
X188494990Y-87641180D01*
X188590228Y-87784038D01*
X188685466Y-87879276D01*
X188780704Y-87926895D01*
X187256895Y-88641180D02*
X187828323Y-88641180D01*
X187542609Y-88641180D02*
X187542609Y-87641180D01*
X187637847Y-87784038D01*
X187733085Y-87879276D01*
X187828323Y-87926895D01*
X178244780Y-77027161D02*
X178244780Y-76455733D01*
X178244780Y-76741447D02*
X177244780Y-76741447D01*
X177387638Y-76646209D01*
X177482876Y-76550971D01*
X177530495Y-76455733D01*
X177578114Y-77884304D02*
X178244780Y-77884304D01*
X177578114Y-77455733D02*
X178101923Y-77455733D01*
X178197161Y-77503352D01*
X178244780Y-77598590D01*
X178244780Y-77741447D01*
X178197161Y-77836685D01*
X178149542Y-77884304D01*
X177720971Y-78693828D02*
X177720971Y-78360495D01*
X178244780Y-78360495D02*
X177244780Y-78360495D01*
X177244780Y-78836685D01*
X179579542Y-77455733D02*
X179627161Y-77408114D01*
X179674780Y-77265257D01*
X179674780Y-77170019D01*
X179627161Y-77027161D01*
X179531923Y-76931923D01*
X179436685Y-76884304D01*
X179246209Y-76836685D01*
X179103352Y-76836685D01*
X178912876Y-76884304D01*
X178817638Y-76931923D01*
X178722400Y-77027161D01*
X178674780Y-77170019D01*
X178674780Y-77265257D01*
X178722400Y-77408114D01*
X178770019Y-77455733D01*
X178674780Y-78312876D02*
X178674780Y-78122400D01*
X178722400Y-78027161D01*
X178770019Y-77979542D01*
X178912876Y-77884304D01*
X179103352Y-77836685D01*
X179484304Y-77836685D01*
X179579542Y-77884304D01*
X179627161Y-77931923D01*
X179674780Y-78027161D01*
X179674780Y-78217638D01*
X179627161Y-78312876D01*
X179579542Y-78360495D01*
X179484304Y-78408114D01*
X179246209Y-78408114D01*
X179150971Y-78360495D01*
X179103352Y-78312876D01*
X179055733Y-78217638D01*
X179055733Y-78027161D01*
X179103352Y-77931923D01*
X179150971Y-77884304D01*
X179246209Y-77836685D01*
X189114038Y-91645980D02*
X189685466Y-91645980D01*
X189399752Y-91645980D02*
X189399752Y-90645980D01*
X189494990Y-90788838D01*
X189590228Y-90884076D01*
X189685466Y-90931695D01*
X188256895Y-90979314D02*
X188256895Y-91645980D01*
X188685466Y-90979314D02*
X188685466Y-91503123D01*
X188637847Y-91598361D01*
X188542609Y-91645980D01*
X188399752Y-91645980D01*
X188304514Y-91598361D01*
X188256895Y-91550742D01*
X187447371Y-91122171D02*
X187780704Y-91122171D01*
X187780704Y-91645980D02*
X187780704Y-90645980D01*
X187304514Y-90645980D01*
X189161657Y-90120742D02*
X189209276Y-90168361D01*
X189352133Y-90215980D01*
X189447371Y-90215980D01*
X189590228Y-90168361D01*
X189685466Y-90073123D01*
X189733085Y-89977885D01*
X189780704Y-89787409D01*
X189780704Y-89644552D01*
X189733085Y-89454076D01*
X189685466Y-89358838D01*
X189590228Y-89263600D01*
X189447371Y-89215980D01*
X189352133Y-89215980D01*
X189209276Y-89263600D01*
X189161657Y-89311219D01*
X188209276Y-90215980D02*
X188780704Y-90215980D01*
X188494990Y-90215980D02*
X188494990Y-89215980D01*
X188590228Y-89358838D01*
X188685466Y-89454076D01*
X188780704Y-89501695D01*
X187590228Y-89215980D02*
X187494990Y-89215980D01*
X187399752Y-89263600D01*
X187352133Y-89311219D01*
X187304514Y-89406457D01*
X187256895Y-89596933D01*
X187256895Y-89835028D01*
X187304514Y-90025504D01*
X187352133Y-90120742D01*
X187399752Y-90168361D01*
X187494990Y-90215980D01*
X187590228Y-90215980D01*
X187685466Y-90168361D01*
X187733085Y-90120742D01*
X187780704Y-90025504D01*
X187828323Y-89835028D01*
X187828323Y-89596933D01*
X187780704Y-89406457D01*
X187733085Y-89311219D01*
X187685466Y-89263600D01*
X187590228Y-89215980D01*
X182150581Y-70385972D02*
X182150581Y-71052639D01*
X183150581Y-70624067D01*
X182483915Y-71862162D02*
X183150581Y-71862162D01*
X182102962Y-71624067D02*
X182817248Y-71385972D01*
X182817248Y-72005020D01*
X183150581Y-72862162D02*
X183150581Y-72385972D01*
X182150581Y-72385972D01*
X182150581Y-73052639D02*
X183150581Y-73385972D01*
X182150581Y-73719305D01*
X183055343Y-74624067D02*
X183102962Y-74576448D01*
X183150581Y-74433591D01*
X183150581Y-74338353D01*
X183102962Y-74195496D01*
X183007724Y-74100258D01*
X182912486Y-74052639D01*
X182722010Y-74005020D01*
X182579153Y-74005020D01*
X182388677Y-74052639D01*
X182293439Y-74100258D01*
X182198201Y-74195496D01*
X182150581Y-74338353D01*
X182150581Y-74433591D01*
X182198201Y-74576448D01*
X182245820Y-74624067D01*
X182245820Y-75005020D02*
X182198201Y-75052639D01*
X182150581Y-75147877D01*
X182150581Y-75385972D01*
X182198201Y-75481210D01*
X182245820Y-75528829D01*
X182341058Y-75576448D01*
X182436296Y-75576448D01*
X182579153Y-75528829D01*
X183150581Y-74957401D01*
X183150581Y-75576448D01*
X182198201Y-76528829D02*
X182150581Y-76433591D01*
X182150581Y-76290734D01*
X182198201Y-76147877D01*
X182293439Y-76052639D01*
X182388677Y-76005020D01*
X182579153Y-75957401D01*
X182722010Y-75957401D01*
X182912486Y-76005020D01*
X183007724Y-76052639D01*
X183102962Y-76147877D01*
X183150581Y-76290734D01*
X183150581Y-76385972D01*
X183102962Y-76528829D01*
X183055343Y-76576448D01*
X182722010Y-76576448D01*
X182722010Y-76385972D01*
X183150581Y-77528829D02*
X183150581Y-76957401D01*
X183150581Y-77243115D02*
X182150581Y-77243115D01*
X182293439Y-77147877D01*
X182388677Y-77052639D01*
X182436296Y-76957401D01*
X182150581Y-77862162D02*
X182150581Y-78528829D01*
X183150581Y-78100258D01*
X181460105Y-73909781D02*
X181460105Y-74719305D01*
X181412486Y-74814543D01*
X181364867Y-74862162D01*
X181269629Y-74909781D01*
X181079153Y-74909781D01*
X180983915Y-74862162D01*
X180936296Y-74814543D01*
X180888677Y-74719305D01*
X180888677Y-73909781D01*
X180507724Y-73909781D02*
X179888677Y-73909781D01*
X180222010Y-74290734D01*
X180079153Y-74290734D01*
X179983915Y-74338353D01*
X179936296Y-74385972D01*
X179888677Y-74481210D01*
X179888677Y-74719305D01*
X179936296Y-74814543D01*
X179983915Y-74862162D01*
X180079153Y-74909781D01*
X180364867Y-74909781D01*
X180460105Y-74862162D01*
X180507724Y-74814543D01*
X112558366Y-111877114D02*
X112558366Y-112543780D01*
X112796461Y-111496161D02*
X113034557Y-112210447D01*
X112415509Y-112210447D01*
X112129795Y-111543780D02*
X111463128Y-111543780D01*
X111891700Y-112543780D01*
X110653604Y-111877114D02*
X110653604Y-112543780D01*
X111082176Y-111877114D02*
X111082176Y-112400923D01*
X111034557Y-112496161D01*
X110939319Y-112543780D01*
X110796461Y-112543780D01*
X110701223Y-112496161D01*
X110653604Y-112448542D01*
X109844080Y-112019971D02*
X110177414Y-112019971D01*
X110177414Y-112543780D02*
X110177414Y-111543780D01*
X109701223Y-111543780D01*
X111558366Y-109348542D02*
X111605985Y-109396161D01*
X111748842Y-109443780D01*
X111844080Y-109443780D01*
X111986938Y-109396161D01*
X112082176Y-109300923D01*
X112129795Y-109205685D01*
X112177414Y-109015209D01*
X112177414Y-108872352D01*
X112129795Y-108681876D01*
X112082176Y-108586638D01*
X111986938Y-108491400D01*
X111844080Y-108443780D01*
X111748842Y-108443780D01*
X111605985Y-108491400D01*
X111558366Y-108539019D01*
X110605985Y-109443780D02*
X111177414Y-109443780D01*
X110891700Y-109443780D02*
X110891700Y-108443780D01*
X110986938Y-108586638D01*
X111082176Y-108681876D01*
X111177414Y-108729495D01*
X133364095Y-71682380D02*
X133840285Y-71682380D01*
X133887904Y-72158571D01*
X133840285Y-72110952D01*
X133745047Y-72063333D01*
X133506952Y-72063333D01*
X133411714Y-72110952D01*
X133364095Y-72158571D01*
X133316476Y-72253809D01*
X133316476Y-72491904D01*
X133364095Y-72587142D01*
X133411714Y-72634761D01*
X133506952Y-72682380D01*
X133745047Y-72682380D01*
X133840285Y-72634761D01*
X133887904Y-72587142D01*
X132697428Y-71682380D02*
X132602190Y-71682380D01*
X132506952Y-71730000D01*
X132459333Y-71777619D01*
X132411714Y-71872857D01*
X132364095Y-72063333D01*
X132364095Y-72301428D01*
X132411714Y-72491904D01*
X132459333Y-72587142D01*
X132506952Y-72634761D01*
X132602190Y-72682380D01*
X132697428Y-72682380D01*
X132792666Y-72634761D01*
X132840285Y-72587142D01*
X132887904Y-72491904D01*
X132935523Y-72301428D01*
X132935523Y-72063333D01*
X132887904Y-71872857D01*
X132840285Y-71777619D01*
X132792666Y-71730000D01*
X132697428Y-71682380D01*
X131364095Y-72682380D02*
X131697428Y-72206190D01*
X131935523Y-72682380D02*
X131935523Y-71682380D01*
X131554571Y-71682380D01*
X131459333Y-71730000D01*
X131411714Y-71777619D01*
X131364095Y-71872857D01*
X131364095Y-72015714D01*
X131411714Y-72110952D01*
X131459333Y-72158571D01*
X131554571Y-72206190D01*
X131935523Y-72206190D01*
X132792666Y-74112380D02*
X133126000Y-73636190D01*
X133364095Y-74112380D02*
X133364095Y-73112380D01*
X132983142Y-73112380D01*
X132887904Y-73160000D01*
X132840285Y-73207619D01*
X132792666Y-73302857D01*
X132792666Y-73445714D01*
X132840285Y-73540952D01*
X132887904Y-73588571D01*
X132983142Y-73636190D01*
X133364095Y-73636190D01*
X132411714Y-73207619D02*
X132364095Y-73160000D01*
X132268857Y-73112380D01*
X132030761Y-73112380D01*
X131935523Y-73160000D01*
X131887904Y-73207619D01*
X131840285Y-73302857D01*
X131840285Y-73398095D01*
X131887904Y-73540952D01*
X132459333Y-74112380D01*
X131840285Y-74112380D01*
M02*
