%TF.GenerationSoftware,KiCad,Pcbnew,(5.1.2)-1*%
%TF.CreationDate,2020-09-11T17:40:03+02:00*%
%TF.ProjectId,ArduinoShield_SPIlinedriver_Sync_2V0,41726475-696e-46f5-9368-69656c645f53,3.1*%
%TF.SameCoordinates,Original*%
%TF.FileFunction,Legend,Top*%
%TF.FilePolarity,Positive*%
%FSLAX46Y46*%
G04 Gerber Fmt 4.6, Leading zero omitted, Abs format (unit mm)*
G04 Created by KiCad (PCBNEW (5.1.2)-1) date 2020-09-11 17:40:03*
%MOMM*%
%LPD*%
G04 APERTURE LIST*
%ADD10C,0.120000*%
%ADD11C,0.100000*%
%ADD12C,0.150000*%
G04 APERTURE END LIST*
D10*
X105381866Y-102550723D02*
X105381866Y-102074533D01*
X105667580Y-102645961D02*
X104667580Y-102312628D01*
X105667580Y-101979295D01*
X105667580Y-101645961D02*
X105000914Y-101645961D01*
X105191390Y-101645961D02*
X105096152Y-101598342D01*
X105048533Y-101550723D01*
X105000914Y-101455485D01*
X105000914Y-101360247D01*
X105667580Y-100598342D02*
X104667580Y-100598342D01*
X105619961Y-100598342D02*
X105667580Y-100693580D01*
X105667580Y-100884057D01*
X105619961Y-100979295D01*
X105572342Y-101026914D01*
X105477104Y-101074533D01*
X105191390Y-101074533D01*
X105096152Y-101026914D01*
X105048533Y-100979295D01*
X105000914Y-100884057D01*
X105000914Y-100693580D01*
X105048533Y-100598342D01*
X105000914Y-99693580D02*
X105667580Y-99693580D01*
X105000914Y-100122152D02*
X105524723Y-100122152D01*
X105619961Y-100074533D01*
X105667580Y-99979295D01*
X105667580Y-99836438D01*
X105619961Y-99741200D01*
X105572342Y-99693580D01*
X105667580Y-99217390D02*
X105000914Y-99217390D01*
X104667580Y-99217390D02*
X104715200Y-99265009D01*
X104762819Y-99217390D01*
X104715200Y-99169771D01*
X104667580Y-99217390D01*
X104762819Y-99217390D01*
X105000914Y-98741200D02*
X105667580Y-98741200D01*
X105096152Y-98741200D02*
X105048533Y-98693580D01*
X105000914Y-98598342D01*
X105000914Y-98455485D01*
X105048533Y-98360247D01*
X105143771Y-98312628D01*
X105667580Y-98312628D01*
X105667580Y-97693580D02*
X105619961Y-97788819D01*
X105572342Y-97836438D01*
X105477104Y-97884057D01*
X105191390Y-97884057D01*
X105096152Y-97836438D01*
X105048533Y-97788819D01*
X105000914Y-97693580D01*
X105000914Y-97550723D01*
X105048533Y-97455485D01*
X105096152Y-97407866D01*
X105191390Y-97360247D01*
X105477104Y-97360247D01*
X105572342Y-97407866D01*
X105619961Y-97455485D01*
X105667580Y-97550723D01*
X105667580Y-97693580D01*
X105619961Y-96979295D02*
X105667580Y-96836438D01*
X105667580Y-96598342D01*
X105619961Y-96503104D01*
X105572342Y-96455485D01*
X105477104Y-96407866D01*
X105381866Y-96407866D01*
X105286628Y-96455485D01*
X105239009Y-96503104D01*
X105191390Y-96598342D01*
X105143771Y-96788819D01*
X105096152Y-96884057D01*
X105048533Y-96931676D01*
X104953295Y-96979295D01*
X104858057Y-96979295D01*
X104762819Y-96931676D01*
X104715200Y-96884057D01*
X104667580Y-96788819D01*
X104667580Y-96550723D01*
X104715200Y-96407866D01*
X105667580Y-95979295D02*
X104667580Y-95979295D01*
X105667580Y-95550723D02*
X105143771Y-95550723D01*
X105048533Y-95598342D01*
X105000914Y-95693580D01*
X105000914Y-95836438D01*
X105048533Y-95931676D01*
X105096152Y-95979295D01*
X105667580Y-95074533D02*
X105000914Y-95074533D01*
X104667580Y-95074533D02*
X104715200Y-95122152D01*
X104762819Y-95074533D01*
X104715200Y-95026914D01*
X104667580Y-95074533D01*
X104762819Y-95074533D01*
X105619961Y-94217390D02*
X105667580Y-94312628D01*
X105667580Y-94503104D01*
X105619961Y-94598342D01*
X105524723Y-94645961D01*
X105143771Y-94645961D01*
X105048533Y-94598342D01*
X105000914Y-94503104D01*
X105000914Y-94312628D01*
X105048533Y-94217390D01*
X105143771Y-94169771D01*
X105239009Y-94169771D01*
X105334247Y-94645961D01*
X105667580Y-93598342D02*
X105619961Y-93693580D01*
X105524723Y-93741200D01*
X104667580Y-93741200D01*
X105667580Y-92788819D02*
X104667580Y-92788819D01*
X105619961Y-92788819D02*
X105667580Y-92884057D01*
X105667580Y-93074533D01*
X105619961Y-93169771D01*
X105572342Y-93217390D01*
X105477104Y-93265009D01*
X105191390Y-93265009D01*
X105096152Y-93217390D01*
X105048533Y-93169771D01*
X105000914Y-93074533D01*
X105000914Y-92884057D01*
X105048533Y-92788819D01*
X106048533Y-91265009D02*
X106000914Y-91312628D01*
X105858057Y-91407866D01*
X105762819Y-91455485D01*
X105619961Y-91503104D01*
X105381866Y-91550723D01*
X105191390Y-91550723D01*
X104953295Y-91503104D01*
X104810438Y-91455485D01*
X104715200Y-91407866D01*
X104572342Y-91312628D01*
X104524723Y-91265009D01*
X105619961Y-90931676D02*
X105667580Y-90788819D01*
X105667580Y-90550723D01*
X105619961Y-90455485D01*
X105572342Y-90407866D01*
X105477104Y-90360247D01*
X105381866Y-90360247D01*
X105286628Y-90407866D01*
X105239009Y-90455485D01*
X105191390Y-90550723D01*
X105143771Y-90741200D01*
X105096152Y-90836438D01*
X105048533Y-90884057D01*
X104953295Y-90931676D01*
X104858057Y-90931676D01*
X104762819Y-90884057D01*
X104715200Y-90836438D01*
X104667580Y-90741200D01*
X104667580Y-90503104D01*
X104715200Y-90360247D01*
X105667580Y-89931676D02*
X104667580Y-89931676D01*
X104667580Y-89550723D01*
X104715200Y-89455485D01*
X104762819Y-89407866D01*
X104858057Y-89360247D01*
X105000914Y-89360247D01*
X105096152Y-89407866D01*
X105143771Y-89455485D01*
X105191390Y-89550723D01*
X105191390Y-89931676D01*
X105667580Y-88931676D02*
X104667580Y-88931676D01*
X105667580Y-88026914D02*
X104667580Y-88026914D01*
X105619961Y-88026914D02*
X105667580Y-88122152D01*
X105667580Y-88312628D01*
X105619961Y-88407866D01*
X105572342Y-88455485D01*
X105477104Y-88503104D01*
X105191390Y-88503104D01*
X105096152Y-88455485D01*
X105048533Y-88407866D01*
X105000914Y-88312628D01*
X105000914Y-88122152D01*
X105048533Y-88026914D01*
X105667580Y-87550723D02*
X105000914Y-87550723D01*
X105191390Y-87550723D02*
X105096152Y-87503104D01*
X105048533Y-87455485D01*
X105000914Y-87360247D01*
X105000914Y-87265009D01*
X105667580Y-86931676D02*
X105000914Y-86931676D01*
X104667580Y-86931676D02*
X104715200Y-86979295D01*
X104762819Y-86931676D01*
X104715200Y-86884057D01*
X104667580Y-86931676D01*
X104762819Y-86931676D01*
X105000914Y-86550723D02*
X105667580Y-86312628D01*
X105000914Y-86074533D01*
X105619961Y-85312628D02*
X105667580Y-85407866D01*
X105667580Y-85598342D01*
X105619961Y-85693580D01*
X105524723Y-85741200D01*
X105143771Y-85741200D01*
X105048533Y-85693580D01*
X105000914Y-85598342D01*
X105000914Y-85407866D01*
X105048533Y-85312628D01*
X105143771Y-85265009D01*
X105239009Y-85265009D01*
X105334247Y-85741200D01*
X105667580Y-84836438D02*
X105000914Y-84836438D01*
X105191390Y-84836438D02*
X105096152Y-84788819D01*
X105048533Y-84741200D01*
X105000914Y-84645961D01*
X105000914Y-84550723D01*
X105619961Y-84169771D02*
X105667580Y-84169771D01*
X105762819Y-84217390D01*
X105810438Y-84265009D01*
X105619961Y-83026914D02*
X105667580Y-82884057D01*
X105667580Y-82645961D01*
X105619961Y-82550723D01*
X105572342Y-82503104D01*
X105477104Y-82455485D01*
X105381866Y-82455485D01*
X105286628Y-82503104D01*
X105239009Y-82550723D01*
X105191390Y-82645961D01*
X105143771Y-82836438D01*
X105096152Y-82931676D01*
X105048533Y-82979295D01*
X104953295Y-83026914D01*
X104858057Y-83026914D01*
X104762819Y-82979295D01*
X104715200Y-82931676D01*
X104667580Y-82836438D01*
X104667580Y-82598342D01*
X104715200Y-82455485D01*
X105000914Y-82122152D02*
X105667580Y-81884057D01*
X105000914Y-81645961D02*
X105667580Y-81884057D01*
X105905676Y-81979295D01*
X105953295Y-82026914D01*
X106000914Y-82122152D01*
X105000914Y-81265009D02*
X105667580Y-81265009D01*
X105096152Y-81265009D02*
X105048533Y-81217390D01*
X105000914Y-81122152D01*
X105000914Y-80979295D01*
X105048533Y-80884057D01*
X105143771Y-80836438D01*
X105667580Y-80836438D01*
X105619961Y-79931676D02*
X105667580Y-80026914D01*
X105667580Y-80217390D01*
X105619961Y-80312628D01*
X105572342Y-80360247D01*
X105477104Y-80407866D01*
X105191390Y-80407866D01*
X105096152Y-80360247D01*
X105048533Y-80312628D01*
X105000914Y-80217390D01*
X105000914Y-80026914D01*
X105048533Y-79931676D01*
X105286628Y-79503104D02*
X105286628Y-78741200D01*
X105667580Y-79122152D02*
X104905676Y-79122152D01*
X105667580Y-77693580D02*
X105191390Y-78026914D01*
X105667580Y-78265009D02*
X104667580Y-78265009D01*
X104667580Y-77884057D01*
X104715200Y-77788819D01*
X104762819Y-77741200D01*
X104858057Y-77693580D01*
X105000914Y-77693580D01*
X105096152Y-77741200D01*
X105143771Y-77788819D01*
X105191390Y-77884057D01*
X105191390Y-78265009D01*
X104667580Y-77407866D02*
X104667580Y-76836438D01*
X105667580Y-77122152D02*
X104667580Y-77122152D01*
X105572342Y-75931676D02*
X105619961Y-75979295D01*
X105667580Y-76122152D01*
X105667580Y-76217390D01*
X105619961Y-76360247D01*
X105524723Y-76455485D01*
X105429485Y-76503104D01*
X105239009Y-76550723D01*
X105096152Y-76550723D01*
X104905676Y-76503104D01*
X104810438Y-76455485D01*
X104715200Y-76360247D01*
X104667580Y-76217390D01*
X104667580Y-76122152D01*
X104715200Y-75979295D01*
X104762819Y-75931676D01*
X106048533Y-75598342D02*
X106000914Y-75550723D01*
X105858057Y-75455485D01*
X105762819Y-75407866D01*
X105619961Y-75360247D01*
X105381866Y-75312628D01*
X105191390Y-75312628D01*
X104953295Y-75360247D01*
X104810438Y-75407866D01*
X104715200Y-75455485D01*
X104572342Y-75550723D01*
X104524723Y-75598342D01*
X107287580Y-102503104D02*
X106287580Y-102503104D01*
X106620914Y-102026914D02*
X107287580Y-102026914D01*
X106716152Y-102026914D02*
X106668533Y-101979295D01*
X106620914Y-101884057D01*
X106620914Y-101741200D01*
X106668533Y-101645961D01*
X106763771Y-101598342D01*
X107287580Y-101598342D01*
X106620914Y-101265009D02*
X106620914Y-100884057D01*
X106287580Y-101122152D02*
X107144723Y-101122152D01*
X107239961Y-101074533D01*
X107287580Y-100979295D01*
X107287580Y-100884057D01*
X107239961Y-100169771D02*
X107287580Y-100265009D01*
X107287580Y-100455485D01*
X107239961Y-100550723D01*
X107144723Y-100598342D01*
X106763771Y-100598342D01*
X106668533Y-100550723D01*
X106620914Y-100455485D01*
X106620914Y-100265009D01*
X106668533Y-100169771D01*
X106763771Y-100122152D01*
X106859009Y-100122152D01*
X106954247Y-100598342D01*
X107287580Y-99693580D02*
X106620914Y-99693580D01*
X106811390Y-99693580D02*
X106716152Y-99645961D01*
X106668533Y-99598342D01*
X106620914Y-99503104D01*
X106620914Y-99407866D01*
X106620914Y-99217390D02*
X106620914Y-98836438D01*
X107287580Y-99074533D02*
X106430438Y-99074533D01*
X106335200Y-99026914D01*
X106287580Y-98931676D01*
X106287580Y-98836438D01*
X107287580Y-98074533D02*
X106763771Y-98074533D01*
X106668533Y-98122152D01*
X106620914Y-98217390D01*
X106620914Y-98407866D01*
X106668533Y-98503104D01*
X107239961Y-98074533D02*
X107287580Y-98169771D01*
X107287580Y-98407866D01*
X107239961Y-98503104D01*
X107144723Y-98550723D01*
X107049485Y-98550723D01*
X106954247Y-98503104D01*
X106906628Y-98407866D01*
X106906628Y-98169771D01*
X106859009Y-98074533D01*
X107239961Y-97169771D02*
X107287580Y-97265009D01*
X107287580Y-97455485D01*
X107239961Y-97550723D01*
X107192342Y-97598342D01*
X107097104Y-97645961D01*
X106811390Y-97645961D01*
X106716152Y-97598342D01*
X106668533Y-97550723D01*
X106620914Y-97455485D01*
X106620914Y-97265009D01*
X106668533Y-97169771D01*
X107239961Y-96360247D02*
X107287580Y-96455485D01*
X107287580Y-96645961D01*
X107239961Y-96741200D01*
X107144723Y-96788819D01*
X106763771Y-96788819D01*
X106668533Y-96741200D01*
X106620914Y-96645961D01*
X106620914Y-96455485D01*
X106668533Y-96360247D01*
X106763771Y-96312628D01*
X106859009Y-96312628D01*
X106954247Y-96788819D01*
X107192342Y-95884057D02*
X107239961Y-95836438D01*
X107287580Y-95884057D01*
X107239961Y-95931676D01*
X107192342Y-95884057D01*
X107287580Y-95884057D01*
X106668533Y-95884057D02*
X106716152Y-95836438D01*
X106763771Y-95884057D01*
X106716152Y-95931676D01*
X106668533Y-95884057D01*
X106763771Y-95884057D01*
X107287580Y-94645961D02*
X106287580Y-94645961D01*
X107001866Y-94312628D01*
X106287580Y-93979295D01*
X107287580Y-93979295D01*
X106763771Y-93169771D02*
X106763771Y-93503104D01*
X107287580Y-93503104D02*
X106287580Y-93503104D01*
X106287580Y-93026914D01*
X107192342Y-92074533D02*
X107239961Y-92122152D01*
X107287580Y-92265009D01*
X107287580Y-92360247D01*
X107239961Y-92503104D01*
X107144723Y-92598342D01*
X107049485Y-92645961D01*
X106859009Y-92693580D01*
X106716152Y-92693580D01*
X106525676Y-92645961D01*
X106430438Y-92598342D01*
X106335200Y-92503104D01*
X106287580Y-92360247D01*
X106287580Y-92265009D01*
X106335200Y-92122152D01*
X106382819Y-92074533D01*
X107001866Y-90931676D02*
X107001866Y-90455485D01*
X107287580Y-91026914D02*
X106287580Y-90693580D01*
X107287580Y-90360247D01*
X106239961Y-89312628D02*
X107525676Y-90169771D01*
X107287580Y-88979295D02*
X106287580Y-88979295D01*
X106287580Y-88741200D01*
X106335200Y-88598342D01*
X106430438Y-88503104D01*
X106525676Y-88455485D01*
X106716152Y-88407866D01*
X106859009Y-88407866D01*
X107049485Y-88455485D01*
X107144723Y-88503104D01*
X107239961Y-88598342D01*
X107287580Y-88741200D01*
X107287580Y-88979295D01*
X106906628Y-87979295D02*
X106906628Y-87217390D01*
X107287580Y-86741200D02*
X106287580Y-86741200D01*
X106287580Y-86503104D01*
X106335200Y-86360247D01*
X106430438Y-86265009D01*
X106525676Y-86217390D01*
X106716152Y-86169771D01*
X106859009Y-86169771D01*
X107049485Y-86217390D01*
X107144723Y-86265009D01*
X107239961Y-86360247D01*
X107287580Y-86503104D01*
X107287580Y-86741200D01*
X106239961Y-85026914D02*
X107525676Y-85884057D01*
X107001866Y-84741200D02*
X107001866Y-84265009D01*
X107287580Y-84836438D02*
X106287580Y-84503104D01*
X107287580Y-84169771D01*
X107287580Y-83074533D02*
X106287580Y-83074533D01*
X106668533Y-83074533D02*
X106620914Y-82979295D01*
X106620914Y-82788819D01*
X106668533Y-82693580D01*
X106716152Y-82645961D01*
X106811390Y-82598342D01*
X107097104Y-82598342D01*
X107192342Y-82645961D01*
X107239961Y-82693580D01*
X107287580Y-82788819D01*
X107287580Y-82979295D01*
X107239961Y-83074533D01*
X107287580Y-82026914D02*
X107239961Y-82122152D01*
X107192342Y-82169771D01*
X107097104Y-82217390D01*
X106811390Y-82217390D01*
X106716152Y-82169771D01*
X106668533Y-82122152D01*
X106620914Y-82026914D01*
X106620914Y-81884057D01*
X106668533Y-81788819D01*
X106716152Y-81741200D01*
X106811390Y-81693580D01*
X107097104Y-81693580D01*
X107192342Y-81741200D01*
X107239961Y-81788819D01*
X107287580Y-81884057D01*
X107287580Y-82026914D01*
X107287580Y-80836438D02*
X106763771Y-80836438D01*
X106668533Y-80884057D01*
X106620914Y-80979295D01*
X106620914Y-81169771D01*
X106668533Y-81265009D01*
X107239961Y-80836438D02*
X107287580Y-80931676D01*
X107287580Y-81169771D01*
X107239961Y-81265009D01*
X107144723Y-81312628D01*
X107049485Y-81312628D01*
X106954247Y-81265009D01*
X106906628Y-81169771D01*
X106906628Y-80931676D01*
X106859009Y-80836438D01*
X107287580Y-80360247D02*
X106620914Y-80360247D01*
X106811390Y-80360247D02*
X106716152Y-80312628D01*
X106668533Y-80265009D01*
X106620914Y-80169771D01*
X106620914Y-80074533D01*
X107287580Y-79312628D02*
X106287580Y-79312628D01*
X107239961Y-79312628D02*
X107287580Y-79407866D01*
X107287580Y-79598342D01*
X107239961Y-79693580D01*
X107192342Y-79741200D01*
X107097104Y-79788819D01*
X106811390Y-79788819D01*
X106716152Y-79741200D01*
X106668533Y-79693580D01*
X106620914Y-79598342D01*
X106620914Y-79407866D01*
X106668533Y-79312628D01*
X108240914Y-102645961D02*
X108240914Y-102265009D01*
X107907580Y-102503104D02*
X108764723Y-102503104D01*
X108859961Y-102455485D01*
X108907580Y-102360247D01*
X108907580Y-102265009D01*
X108907580Y-101788819D02*
X108859961Y-101884057D01*
X108812342Y-101931676D01*
X108717104Y-101979295D01*
X108431390Y-101979295D01*
X108336152Y-101931676D01*
X108288533Y-101884057D01*
X108240914Y-101788819D01*
X108240914Y-101645961D01*
X108288533Y-101550723D01*
X108336152Y-101503104D01*
X108431390Y-101455485D01*
X108717104Y-101455485D01*
X108812342Y-101503104D01*
X108859961Y-101550723D01*
X108907580Y-101645961D01*
X108907580Y-101788819D01*
X108621866Y-100312628D02*
X108621866Y-99836438D01*
X108907580Y-100407866D02*
X107907580Y-100074533D01*
X108907580Y-99741200D01*
X108907580Y-99407866D02*
X108240914Y-99407866D01*
X108431390Y-99407866D02*
X108336152Y-99360247D01*
X108288533Y-99312628D01*
X108240914Y-99217390D01*
X108240914Y-99122152D01*
X108907580Y-98360247D02*
X107907580Y-98360247D01*
X108859961Y-98360247D02*
X108907580Y-98455485D01*
X108907580Y-98645961D01*
X108859961Y-98741200D01*
X108812342Y-98788819D01*
X108717104Y-98836438D01*
X108431390Y-98836438D01*
X108336152Y-98788819D01*
X108288533Y-98741200D01*
X108240914Y-98645961D01*
X108240914Y-98455485D01*
X108288533Y-98360247D01*
X108240914Y-97455485D02*
X108907580Y-97455485D01*
X108240914Y-97884057D02*
X108764723Y-97884057D01*
X108859961Y-97836438D01*
X108907580Y-97741200D01*
X108907580Y-97598342D01*
X108859961Y-97503104D01*
X108812342Y-97455485D01*
X108907580Y-96979295D02*
X108240914Y-96979295D01*
X107907580Y-96979295D02*
X107955200Y-97026914D01*
X108002819Y-96979295D01*
X107955200Y-96931676D01*
X107907580Y-96979295D01*
X108002819Y-96979295D01*
X108240914Y-96503104D02*
X108907580Y-96503104D01*
X108336152Y-96503104D02*
X108288533Y-96455485D01*
X108240914Y-96360247D01*
X108240914Y-96217390D01*
X108288533Y-96122152D01*
X108383771Y-96074533D01*
X108907580Y-96074533D01*
X108907580Y-95455485D02*
X108859961Y-95550723D01*
X108812342Y-95598342D01*
X108717104Y-95645961D01*
X108431390Y-95645961D01*
X108336152Y-95598342D01*
X108288533Y-95550723D01*
X108240914Y-95455485D01*
X108240914Y-95312628D01*
X108288533Y-95217390D01*
X108336152Y-95169771D01*
X108431390Y-95122152D01*
X108717104Y-95122152D01*
X108812342Y-95169771D01*
X108859961Y-95217390D01*
X108907580Y-95312628D01*
X108907580Y-95455485D01*
X108907580Y-94693580D02*
X107907580Y-94693580D01*
X107907580Y-94455485D01*
X107955200Y-94312628D01*
X108050438Y-94217390D01*
X108145676Y-94169771D01*
X108336152Y-94122152D01*
X108479009Y-94122152D01*
X108669485Y-94169771D01*
X108764723Y-94217390D01*
X108859961Y-94312628D01*
X108907580Y-94455485D01*
X108907580Y-94693580D01*
X107907580Y-93693580D02*
X108717104Y-93693580D01*
X108812342Y-93645961D01*
X108859961Y-93598342D01*
X108907580Y-93503104D01*
X108907580Y-93312628D01*
X108859961Y-93217390D01*
X108812342Y-93169771D01*
X108717104Y-93122152D01*
X107907580Y-93122152D01*
X108383771Y-92645961D02*
X108383771Y-92312628D01*
X108907580Y-92169771D02*
X108907580Y-92645961D01*
X107907580Y-92645961D01*
X107907580Y-92169771D01*
X108240914Y-90979295D02*
X109240914Y-90979295D01*
X108288533Y-90979295D02*
X108240914Y-90884057D01*
X108240914Y-90693580D01*
X108288533Y-90598342D01*
X108336152Y-90550723D01*
X108431390Y-90503104D01*
X108717104Y-90503104D01*
X108812342Y-90550723D01*
X108859961Y-90598342D01*
X108907580Y-90693580D01*
X108907580Y-90884057D01*
X108859961Y-90979295D01*
X108907580Y-89931676D02*
X108859961Y-90026914D01*
X108764723Y-90074533D01*
X107907580Y-90074533D01*
X108907580Y-89122152D02*
X108383771Y-89122152D01*
X108288533Y-89169771D01*
X108240914Y-89265009D01*
X108240914Y-89455485D01*
X108288533Y-89550723D01*
X108859961Y-89122152D02*
X108907580Y-89217390D01*
X108907580Y-89455485D01*
X108859961Y-89550723D01*
X108764723Y-89598342D01*
X108669485Y-89598342D01*
X108574247Y-89550723D01*
X108526628Y-89455485D01*
X108526628Y-89217390D01*
X108479009Y-89122152D01*
X108240914Y-88788819D02*
X108240914Y-88407866D01*
X107907580Y-88645961D02*
X108764723Y-88645961D01*
X108859961Y-88598342D01*
X108907580Y-88503104D01*
X108907580Y-88407866D01*
X108240914Y-88217390D02*
X108240914Y-87836438D01*
X108907580Y-88074533D02*
X108050438Y-88074533D01*
X107955200Y-88026914D01*
X107907580Y-87931676D01*
X107907580Y-87836438D01*
X108907580Y-87360247D02*
X108859961Y-87455485D01*
X108812342Y-87503104D01*
X108717104Y-87550723D01*
X108431390Y-87550723D01*
X108336152Y-87503104D01*
X108288533Y-87455485D01*
X108240914Y-87360247D01*
X108240914Y-87217390D01*
X108288533Y-87122152D01*
X108336152Y-87074533D01*
X108431390Y-87026914D01*
X108717104Y-87026914D01*
X108812342Y-87074533D01*
X108859961Y-87122152D01*
X108907580Y-87217390D01*
X108907580Y-87360247D01*
X108907580Y-86598342D02*
X108240914Y-86598342D01*
X108431390Y-86598342D02*
X108336152Y-86550723D01*
X108288533Y-86503104D01*
X108240914Y-86407866D01*
X108240914Y-86312628D01*
X108907580Y-85979295D02*
X108240914Y-85979295D01*
X108336152Y-85979295D02*
X108288533Y-85931676D01*
X108240914Y-85836438D01*
X108240914Y-85693580D01*
X108288533Y-85598342D01*
X108383771Y-85550723D01*
X108907580Y-85550723D01*
X108383771Y-85550723D02*
X108288533Y-85503104D01*
X108240914Y-85407866D01*
X108240914Y-85265009D01*
X108288533Y-85169771D01*
X108383771Y-85122152D01*
X108907580Y-85122152D01*
X110527580Y-101931676D02*
X110051390Y-102265009D01*
X110527580Y-102503104D02*
X109527580Y-102503104D01*
X109527580Y-102122152D01*
X109575200Y-102026914D01*
X109622819Y-101979295D01*
X109718057Y-101931676D01*
X109860914Y-101931676D01*
X109956152Y-101979295D01*
X110003771Y-102026914D01*
X110051390Y-102122152D01*
X110051390Y-102503104D01*
X110479961Y-101122152D02*
X110527580Y-101217390D01*
X110527580Y-101407866D01*
X110479961Y-101503104D01*
X110384723Y-101550723D01*
X110003771Y-101550723D01*
X109908533Y-101503104D01*
X109860914Y-101407866D01*
X109860914Y-101217390D01*
X109908533Y-101122152D01*
X110003771Y-101074533D01*
X110099009Y-101074533D01*
X110194247Y-101550723D01*
X109860914Y-100741200D02*
X110527580Y-100503104D01*
X109860914Y-100265009D01*
X110432342Y-99884057D02*
X110479961Y-99836438D01*
X110527580Y-99884057D01*
X110479961Y-99931676D01*
X110432342Y-99884057D01*
X110527580Y-99884057D01*
X109527580Y-99503104D02*
X109527580Y-98884057D01*
X109908533Y-99217390D01*
X109908533Y-99074533D01*
X109956152Y-98979295D01*
X110003771Y-98931676D01*
X110099009Y-98884057D01*
X110337104Y-98884057D01*
X110432342Y-98931676D01*
X110479961Y-98979295D01*
X110527580Y-99074533D01*
X110527580Y-99360247D01*
X110479961Y-99455485D01*
X110432342Y-99503104D01*
X110432342Y-98455485D02*
X110479961Y-98407866D01*
X110527580Y-98455485D01*
X110479961Y-98503104D01*
X110432342Y-98455485D01*
X110527580Y-98455485D01*
X110527580Y-97455485D02*
X110527580Y-98026914D01*
X110527580Y-97741200D02*
X109527580Y-97741200D01*
X109670438Y-97836438D01*
X109765676Y-97931676D01*
X109813295Y-98026914D01*
D11*
X114349666Y-74524166D02*
X114349666Y-74190833D01*
X114549666Y-74590833D02*
X113849666Y-74357500D01*
X114549666Y-74124166D01*
X114549666Y-73890833D02*
X114083000Y-73890833D01*
X114216333Y-73890833D02*
X114149666Y-73857500D01*
X114116333Y-73824166D01*
X114083000Y-73757500D01*
X114083000Y-73690833D01*
X114549666Y-73157500D02*
X113849666Y-73157500D01*
X114516333Y-73157500D02*
X114549666Y-73224166D01*
X114549666Y-73357500D01*
X114516333Y-73424166D01*
X114483000Y-73457500D01*
X114416333Y-73490833D01*
X114216333Y-73490833D01*
X114149666Y-73457500D01*
X114116333Y-73424166D01*
X114083000Y-73357500D01*
X114083000Y-73224166D01*
X114116333Y-73157500D01*
X114083000Y-72524166D02*
X114549666Y-72524166D01*
X114083000Y-72824166D02*
X114449666Y-72824166D01*
X114516333Y-72790833D01*
X114549666Y-72724166D01*
X114549666Y-72624166D01*
X114516333Y-72557500D01*
X114483000Y-72524166D01*
X114549666Y-72190833D02*
X114083000Y-72190833D01*
X113849666Y-72190833D02*
X113883000Y-72224166D01*
X113916333Y-72190833D01*
X113883000Y-72157500D01*
X113849666Y-72190833D01*
X113916333Y-72190833D01*
X114083000Y-71857500D02*
X114549666Y-71857500D01*
X114149666Y-71857500D02*
X114116333Y-71824166D01*
X114083000Y-71757500D01*
X114083000Y-71657500D01*
X114116333Y-71590833D01*
X114183000Y-71557500D01*
X114549666Y-71557500D01*
X114549666Y-71124166D02*
X114516333Y-71190833D01*
X114483000Y-71224166D01*
X114416333Y-71257500D01*
X114216333Y-71257500D01*
X114149666Y-71224166D01*
X114116333Y-71190833D01*
X114083000Y-71124166D01*
X114083000Y-71024166D01*
X114116333Y-70957500D01*
X114149666Y-70924166D01*
X114216333Y-70890833D01*
X114416333Y-70890833D01*
X114483000Y-70924166D01*
X114516333Y-70957500D01*
X114549666Y-71024166D01*
X114549666Y-71124166D01*
X115699666Y-73574166D02*
X115366333Y-73807500D01*
X115699666Y-73974166D02*
X114999666Y-73974166D01*
X114999666Y-73707500D01*
X115033000Y-73640833D01*
X115066333Y-73607500D01*
X115133000Y-73574166D01*
X115233000Y-73574166D01*
X115299666Y-73607500D01*
X115333000Y-73640833D01*
X115366333Y-73707500D01*
X115366333Y-73974166D01*
X115666333Y-73007500D02*
X115699666Y-73074166D01*
X115699666Y-73207500D01*
X115666333Y-73274166D01*
X115599666Y-73307500D01*
X115333000Y-73307500D01*
X115266333Y-73274166D01*
X115233000Y-73207500D01*
X115233000Y-73074166D01*
X115266333Y-73007500D01*
X115333000Y-72974166D01*
X115399666Y-72974166D01*
X115466333Y-73307500D01*
X115666333Y-72707500D02*
X115699666Y-72640833D01*
X115699666Y-72507500D01*
X115666333Y-72440833D01*
X115599666Y-72407500D01*
X115566333Y-72407500D01*
X115499666Y-72440833D01*
X115466333Y-72507500D01*
X115466333Y-72607500D01*
X115433000Y-72674166D01*
X115366333Y-72707500D01*
X115333000Y-72707500D01*
X115266333Y-72674166D01*
X115233000Y-72607500D01*
X115233000Y-72507500D01*
X115266333Y-72440833D01*
X115666333Y-71840833D02*
X115699666Y-71907500D01*
X115699666Y-72040833D01*
X115666333Y-72107500D01*
X115599666Y-72140833D01*
X115333000Y-72140833D01*
X115266333Y-72107500D01*
X115233000Y-72040833D01*
X115233000Y-71907500D01*
X115266333Y-71840833D01*
X115333000Y-71807500D01*
X115399666Y-71807500D01*
X115466333Y-72140833D01*
X115233000Y-71607500D02*
X115233000Y-71340833D01*
X114999666Y-71507500D02*
X115599666Y-71507500D01*
X115666333Y-71474166D01*
X115699666Y-71407500D01*
X115699666Y-71340833D01*
X128777166Y-81324833D02*
X128443833Y-81558166D01*
X128777166Y-81724833D02*
X128077166Y-81724833D01*
X128077166Y-81458166D01*
X128110500Y-81391500D01*
X128143833Y-81358166D01*
X128210500Y-81324833D01*
X128310500Y-81324833D01*
X128377166Y-81358166D01*
X128410500Y-81391500D01*
X128443833Y-81458166D01*
X128443833Y-81724833D01*
X128077166Y-81124833D02*
X128077166Y-80724833D01*
X128777166Y-80924833D02*
X128077166Y-80924833D01*
X128710500Y-80091500D02*
X128743833Y-80124833D01*
X128777166Y-80224833D01*
X128777166Y-80291500D01*
X128743833Y-80391500D01*
X128677166Y-80458166D01*
X128610500Y-80491500D01*
X128477166Y-80524833D01*
X128377166Y-80524833D01*
X128243833Y-80491500D01*
X128177166Y-80458166D01*
X128110500Y-80391500D01*
X128077166Y-80291500D01*
X128077166Y-80224833D01*
X128110500Y-80124833D01*
X128143833Y-80091500D01*
X128843833Y-79958166D02*
X128843833Y-79424833D01*
X128577166Y-79291500D02*
X128577166Y-78958166D01*
X128777166Y-79358166D02*
X128077166Y-79124833D01*
X128777166Y-78891500D01*
X128777166Y-78658166D02*
X128077166Y-78658166D01*
X128077166Y-78491500D01*
X128110500Y-78391500D01*
X128177166Y-78324833D01*
X128243833Y-78291500D01*
X128377166Y-78258166D01*
X128477166Y-78258166D01*
X128610500Y-78291500D01*
X128677166Y-78324833D01*
X128743833Y-78391500D01*
X128777166Y-78491500D01*
X128777166Y-78658166D01*
X128710500Y-77558166D02*
X128743833Y-77591500D01*
X128777166Y-77691500D01*
X128777166Y-77758166D01*
X128743833Y-77858166D01*
X128677166Y-77924833D01*
X128610500Y-77958166D01*
X128477166Y-77991500D01*
X128377166Y-77991500D01*
X128243833Y-77958166D01*
X128177166Y-77924833D01*
X128110500Y-77858166D01*
X128077166Y-77758166D01*
X128077166Y-77691500D01*
X128110500Y-77591500D01*
X128143833Y-77558166D01*
X128843833Y-77424833D02*
X128843833Y-76891500D01*
X128743833Y-76758166D02*
X128777166Y-76658166D01*
X128777166Y-76491500D01*
X128743833Y-76424833D01*
X128710500Y-76391500D01*
X128643833Y-76358166D01*
X128577166Y-76358166D01*
X128510500Y-76391500D01*
X128477166Y-76424833D01*
X128443833Y-76491500D01*
X128410500Y-76624833D01*
X128377166Y-76691500D01*
X128343833Y-76724833D01*
X128277166Y-76758166D01*
X128210500Y-76758166D01*
X128143833Y-76724833D01*
X128110500Y-76691500D01*
X128077166Y-76624833D01*
X128077166Y-76458166D01*
X128110500Y-76358166D01*
X128443833Y-75924833D02*
X128777166Y-75924833D01*
X128077166Y-76158166D02*
X128443833Y-75924833D01*
X128077166Y-75691500D01*
X128777166Y-75458166D02*
X128077166Y-75458166D01*
X128777166Y-75058166D01*
X128077166Y-75058166D01*
X128710500Y-74324833D02*
X128743833Y-74358166D01*
X128777166Y-74458166D01*
X128777166Y-74524833D01*
X128743833Y-74624833D01*
X128677166Y-74691500D01*
X128610500Y-74724833D01*
X128477166Y-74758166D01*
X128377166Y-74758166D01*
X128243833Y-74724833D01*
X128177166Y-74691500D01*
X128110500Y-74624833D01*
X128077166Y-74524833D01*
X128077166Y-74458166D01*
X128110500Y-74358166D01*
X128143833Y-74324833D01*
X116835666Y-115835666D02*
X116369000Y-115835666D01*
X116135666Y-115835666D02*
X116169000Y-115869000D01*
X116202333Y-115835666D01*
X116169000Y-115802333D01*
X116135666Y-115835666D01*
X116202333Y-115835666D01*
X116802333Y-115535666D02*
X116835666Y-115469000D01*
X116835666Y-115335666D01*
X116802333Y-115269000D01*
X116735666Y-115235666D01*
X116702333Y-115235666D01*
X116635666Y-115269000D01*
X116602333Y-115335666D01*
X116602333Y-115435666D01*
X116569000Y-115502333D01*
X116502333Y-115535666D01*
X116469000Y-115535666D01*
X116402333Y-115502333D01*
X116369000Y-115435666D01*
X116369000Y-115335666D01*
X116402333Y-115269000D01*
X116835666Y-114835666D02*
X116802333Y-114902333D01*
X116769000Y-114935666D01*
X116702333Y-114969000D01*
X116502333Y-114969000D01*
X116435666Y-114935666D01*
X116402333Y-114902333D01*
X116369000Y-114835666D01*
X116369000Y-114735666D01*
X116402333Y-114669000D01*
X116435666Y-114635666D01*
X116502333Y-114602333D01*
X116702333Y-114602333D01*
X116769000Y-114635666D01*
X116802333Y-114669000D01*
X116835666Y-114735666D01*
X116835666Y-114835666D01*
X116835666Y-114202333D02*
X116802333Y-114269000D01*
X116735666Y-114302333D01*
X116135666Y-114302333D01*
X116835666Y-113635666D02*
X116469000Y-113635666D01*
X116402333Y-113669000D01*
X116369000Y-113735666D01*
X116369000Y-113869000D01*
X116402333Y-113935666D01*
X116802333Y-113635666D02*
X116835666Y-113702333D01*
X116835666Y-113869000D01*
X116802333Y-113935666D01*
X116735666Y-113969000D01*
X116669000Y-113969000D01*
X116602333Y-113935666D01*
X116569000Y-113869000D01*
X116569000Y-113702333D01*
X116535666Y-113635666D01*
X116369000Y-113402333D02*
X116369000Y-113135666D01*
X116135666Y-113302333D02*
X116735666Y-113302333D01*
X116802333Y-113269000D01*
X116835666Y-113202333D01*
X116835666Y-113135666D01*
X116802333Y-112635666D02*
X116835666Y-112702333D01*
X116835666Y-112835666D01*
X116802333Y-112902333D01*
X116735666Y-112935666D01*
X116469000Y-112935666D01*
X116402333Y-112902333D01*
X116369000Y-112835666D01*
X116369000Y-112702333D01*
X116402333Y-112635666D01*
X116469000Y-112602333D01*
X116535666Y-112602333D01*
X116602333Y-112935666D01*
X116835666Y-112002333D02*
X116135666Y-112002333D01*
X116802333Y-112002333D02*
X116835666Y-112069000D01*
X116835666Y-112202333D01*
X116802333Y-112269000D01*
X116769000Y-112302333D01*
X116702333Y-112335666D01*
X116502333Y-112335666D01*
X116435666Y-112302333D01*
X116402333Y-112269000D01*
X116369000Y-112202333D01*
X116369000Y-112069000D01*
X116402333Y-112002333D01*
X117519000Y-115685666D02*
X117985666Y-115685666D01*
X117252333Y-115852333D02*
X117752333Y-116019000D01*
X117752333Y-115585666D01*
X117919000Y-115319000D02*
X117952333Y-115285666D01*
X117985666Y-115319000D01*
X117952333Y-115352333D01*
X117919000Y-115319000D01*
X117985666Y-115319000D01*
X117285666Y-114652333D02*
X117285666Y-114985666D01*
X117619000Y-115019000D01*
X117585666Y-114985666D01*
X117552333Y-114919000D01*
X117552333Y-114752333D01*
X117585666Y-114685666D01*
X117619000Y-114652333D01*
X117685666Y-114619000D01*
X117852333Y-114619000D01*
X117919000Y-114652333D01*
X117952333Y-114685666D01*
X117985666Y-114752333D01*
X117985666Y-114919000D01*
X117952333Y-114985666D01*
X117919000Y-115019000D01*
X117719000Y-114319000D02*
X117719000Y-113785666D01*
X117985666Y-113085666D02*
X117985666Y-113485666D01*
X117985666Y-113285666D02*
X117285666Y-113285666D01*
X117385666Y-113352333D01*
X117452333Y-113419000D01*
X117485666Y-113485666D01*
X117285666Y-112485666D02*
X117285666Y-112619000D01*
X117319000Y-112685666D01*
X117352333Y-112719000D01*
X117452333Y-112785666D01*
X117585666Y-112819000D01*
X117852333Y-112819000D01*
X117919000Y-112785666D01*
X117952333Y-112752333D01*
X117985666Y-112685666D01*
X117985666Y-112552333D01*
X117952333Y-112485666D01*
X117919000Y-112452333D01*
X117852333Y-112419000D01*
X117685666Y-112419000D01*
X117619000Y-112452333D01*
X117585666Y-112485666D01*
X117552333Y-112552333D01*
X117552333Y-112685666D01*
X117585666Y-112752333D01*
X117619000Y-112785666D01*
X117685666Y-112819000D01*
X117285666Y-112219000D02*
X117985666Y-111985666D01*
X117285666Y-111752333D01*
X127370666Y-110892933D02*
X127370666Y-110559600D01*
X127570666Y-110959600D02*
X126870666Y-110726266D01*
X127570666Y-110492933D01*
X127104000Y-109959600D02*
X127570666Y-109959600D01*
X127104000Y-110259600D02*
X127470666Y-110259600D01*
X127537333Y-110226266D01*
X127570666Y-110159600D01*
X127570666Y-110059600D01*
X127537333Y-109992933D01*
X127504000Y-109959600D01*
X127104000Y-109726266D02*
X127104000Y-109459600D01*
X126870666Y-109626266D02*
X127470666Y-109626266D01*
X127537333Y-109592933D01*
X127570666Y-109526266D01*
X127570666Y-109459600D01*
X127570666Y-109126266D02*
X127537333Y-109192933D01*
X127504000Y-109226266D01*
X127437333Y-109259600D01*
X127237333Y-109259600D01*
X127170666Y-109226266D01*
X127137333Y-109192933D01*
X127104000Y-109126266D01*
X127104000Y-109026266D01*
X127137333Y-108959600D01*
X127170666Y-108926266D01*
X127237333Y-108892933D01*
X127437333Y-108892933D01*
X127504000Y-108926266D01*
X127537333Y-108959600D01*
X127570666Y-109026266D01*
X127570666Y-109126266D01*
X127504000Y-108192933D02*
X127537333Y-108226266D01*
X127570666Y-108326266D01*
X127570666Y-108392933D01*
X127537333Y-108492933D01*
X127470666Y-108559600D01*
X127404000Y-108592933D01*
X127270666Y-108626266D01*
X127170666Y-108626266D01*
X127037333Y-108592933D01*
X126970666Y-108559600D01*
X126904000Y-108492933D01*
X126870666Y-108392933D01*
X126870666Y-108326266D01*
X126904000Y-108226266D01*
X126937333Y-108192933D01*
X127570666Y-107592933D02*
X127204000Y-107592933D01*
X127137333Y-107626266D01*
X127104000Y-107692933D01*
X127104000Y-107826266D01*
X127137333Y-107892933D01*
X127537333Y-107592933D02*
X127570666Y-107659600D01*
X127570666Y-107826266D01*
X127537333Y-107892933D01*
X127470666Y-107926266D01*
X127404000Y-107926266D01*
X127337333Y-107892933D01*
X127304000Y-107826266D01*
X127304000Y-107659600D01*
X127270666Y-107592933D01*
X127570666Y-107159600D02*
X127537333Y-107226266D01*
X127470666Y-107259600D01*
X126870666Y-107259600D01*
X127570666Y-106892933D02*
X127104000Y-106892933D01*
X126870666Y-106892933D02*
X126904000Y-106926266D01*
X126937333Y-106892933D01*
X126904000Y-106859600D01*
X126870666Y-106892933D01*
X126937333Y-106892933D01*
X127570666Y-106559600D02*
X126870666Y-106559600D01*
X127137333Y-106559600D02*
X127104000Y-106492933D01*
X127104000Y-106359600D01*
X127137333Y-106292933D01*
X127170666Y-106259600D01*
X127237333Y-106226266D01*
X127437333Y-106226266D01*
X127504000Y-106259600D01*
X127537333Y-106292933D01*
X127570666Y-106359600D01*
X127570666Y-106492933D01*
X127537333Y-106559600D01*
X128967700Y-116703300D02*
X128967700Y-116169966D01*
X129234366Y-116436633D02*
X128701033Y-116436633D01*
X128534366Y-115903300D02*
X128534366Y-115469966D01*
X128801033Y-115703300D01*
X128801033Y-115603300D01*
X128834366Y-115536633D01*
X128867700Y-115503300D01*
X128934366Y-115469966D01*
X129101033Y-115469966D01*
X129167700Y-115503300D01*
X129201033Y-115536633D01*
X129234366Y-115603300D01*
X129234366Y-115803300D01*
X129201033Y-115869966D01*
X129167700Y-115903300D01*
X129167700Y-115169966D02*
X129201033Y-115136633D01*
X129234366Y-115169966D01*
X129201033Y-115203300D01*
X129167700Y-115169966D01*
X129234366Y-115169966D01*
X128534366Y-114903300D02*
X128534366Y-114469966D01*
X128801033Y-114703300D01*
X128801033Y-114603300D01*
X128834366Y-114536633D01*
X128867700Y-114503300D01*
X128934366Y-114469966D01*
X129101033Y-114469966D01*
X129167700Y-114503300D01*
X129201033Y-114536633D01*
X129234366Y-114603300D01*
X129234366Y-114803300D01*
X129201033Y-114869966D01*
X129167700Y-114903300D01*
X128534366Y-114269966D02*
X129234366Y-114036633D01*
X128534366Y-113803300D01*
X150094200Y-115709633D02*
X150060866Y-115776300D01*
X150060866Y-115876300D01*
X150094200Y-115976300D01*
X150160866Y-116042966D01*
X150227533Y-116076300D01*
X150360866Y-116109633D01*
X150460866Y-116109633D01*
X150594200Y-116076300D01*
X150660866Y-116042966D01*
X150727533Y-115976300D01*
X150760866Y-115876300D01*
X150760866Y-115809633D01*
X150727533Y-115709633D01*
X150694200Y-115676300D01*
X150460866Y-115676300D01*
X150460866Y-115809633D01*
X150760866Y-115376300D02*
X150060866Y-115376300D01*
X150760866Y-114976300D01*
X150060866Y-114976300D01*
X150760866Y-114642966D02*
X150060866Y-114642966D01*
X150060866Y-114476300D01*
X150094200Y-114376300D01*
X150160866Y-114309633D01*
X150227533Y-114276300D01*
X150360866Y-114242966D01*
X150460866Y-114242966D01*
X150594200Y-114276300D01*
X150660866Y-114309633D01*
X150727533Y-114376300D01*
X150760866Y-114476300D01*
X150760866Y-114642966D01*
X164588000Y-106573466D02*
X164621333Y-106606800D01*
X164654666Y-106706800D01*
X164654666Y-106773466D01*
X164621333Y-106873466D01*
X164554666Y-106940133D01*
X164488000Y-106973466D01*
X164354666Y-107006800D01*
X164254666Y-107006800D01*
X164121333Y-106973466D01*
X164054666Y-106940133D01*
X163988000Y-106873466D01*
X163954666Y-106773466D01*
X163954666Y-106706800D01*
X163988000Y-106606800D01*
X164021333Y-106573466D01*
X164654666Y-105940133D02*
X164654666Y-106273466D01*
X163954666Y-106273466D01*
X164654666Y-105706800D02*
X163954666Y-105706800D01*
X164654666Y-105306800D02*
X164254666Y-105606800D01*
X163954666Y-105306800D02*
X164354666Y-105706800D01*
X164288000Y-104473466D02*
X164288000Y-104240133D01*
X164654666Y-104140133D02*
X164654666Y-104473466D01*
X163954666Y-104473466D01*
X163954666Y-104140133D01*
X164654666Y-103840133D02*
X163954666Y-103840133D01*
X164654666Y-103440133D01*
X163954666Y-103440133D01*
X175560800Y-112048666D02*
X175594133Y-112082000D01*
X175627466Y-112182000D01*
X175627466Y-112248666D01*
X175594133Y-112348666D01*
X175527466Y-112415333D01*
X175460800Y-112448666D01*
X175327466Y-112482000D01*
X175227466Y-112482000D01*
X175094133Y-112448666D01*
X175027466Y-112415333D01*
X174960800Y-112348666D01*
X174927466Y-112248666D01*
X174927466Y-112182000D01*
X174960800Y-112082000D01*
X174994133Y-112048666D01*
X175627466Y-111415333D02*
X175627466Y-111748666D01*
X174927466Y-111748666D01*
X175627466Y-111182000D02*
X174927466Y-111182000D01*
X175627466Y-110782000D02*
X175227466Y-111082000D01*
X174927466Y-110782000D02*
X175327466Y-111182000D01*
X174994133Y-109982000D02*
X174960800Y-109948666D01*
X174927466Y-109882000D01*
X174927466Y-109715333D01*
X174960800Y-109648666D01*
X174994133Y-109615333D01*
X175060800Y-109582000D01*
X175127466Y-109582000D01*
X175227466Y-109615333D01*
X175627466Y-110015333D01*
X175627466Y-109582000D01*
X175627466Y-109282000D02*
X174927466Y-109282000D01*
X175427466Y-109048666D01*
X174927466Y-108815333D01*
X175627466Y-108815333D01*
X175627466Y-108482000D02*
X174927466Y-108482000D01*
X175260800Y-108482000D02*
X175260800Y-108082000D01*
X175627466Y-108082000D02*
X174927466Y-108082000D01*
X175160800Y-107815333D02*
X175160800Y-107448666D01*
X175627466Y-107815333D01*
X175627466Y-107448666D01*
X189610166Y-84723666D02*
X189610166Y-85057000D01*
X188910166Y-85057000D01*
X189243500Y-84490333D02*
X189243500Y-84257000D01*
X189610166Y-84157000D02*
X189610166Y-84490333D01*
X188910166Y-84490333D01*
X188910166Y-84157000D01*
X189610166Y-83857000D02*
X188910166Y-83857000D01*
X188910166Y-83690333D01*
X188943500Y-83590333D01*
X189010166Y-83523666D01*
X189076833Y-83490333D01*
X189210166Y-83457000D01*
X189310166Y-83457000D01*
X189443500Y-83490333D01*
X189510166Y-83523666D01*
X189576833Y-83590333D01*
X189610166Y-83690333D01*
X189610166Y-83857000D01*
X189610166Y-82623666D02*
X189143500Y-82623666D01*
X188910166Y-82623666D02*
X188943500Y-82657000D01*
X188976833Y-82623666D01*
X188943500Y-82590333D01*
X188910166Y-82623666D01*
X188976833Y-82623666D01*
X189143500Y-82290333D02*
X189610166Y-82290333D01*
X189210166Y-82290333D02*
X189176833Y-82257000D01*
X189143500Y-82190333D01*
X189143500Y-82090333D01*
X189176833Y-82023666D01*
X189243500Y-81990333D01*
X189610166Y-81990333D01*
X189610166Y-81357000D02*
X188910166Y-81357000D01*
X189576833Y-81357000D02*
X189610166Y-81423666D01*
X189610166Y-81557000D01*
X189576833Y-81623666D01*
X189543500Y-81657000D01*
X189476833Y-81690333D01*
X189276833Y-81690333D01*
X189210166Y-81657000D01*
X189176833Y-81623666D01*
X189143500Y-81557000D01*
X189143500Y-81423666D01*
X189176833Y-81357000D01*
X189610166Y-81023666D02*
X189143500Y-81023666D01*
X188910166Y-81023666D02*
X188943500Y-81057000D01*
X188976833Y-81023666D01*
X188943500Y-80990333D01*
X188910166Y-81023666D01*
X188976833Y-81023666D01*
X189576833Y-80390333D02*
X189610166Y-80457000D01*
X189610166Y-80590333D01*
X189576833Y-80657000D01*
X189543500Y-80690333D01*
X189476833Y-80723666D01*
X189276833Y-80723666D01*
X189210166Y-80690333D01*
X189176833Y-80657000D01*
X189143500Y-80590333D01*
X189143500Y-80457000D01*
X189176833Y-80390333D01*
X189610166Y-79790333D02*
X189243500Y-79790333D01*
X189176833Y-79823666D01*
X189143500Y-79890333D01*
X189143500Y-80023666D01*
X189176833Y-80090333D01*
X189576833Y-79790333D02*
X189610166Y-79857000D01*
X189610166Y-80023666D01*
X189576833Y-80090333D01*
X189510166Y-80123666D01*
X189443500Y-80123666D01*
X189376833Y-80090333D01*
X189343500Y-80023666D01*
X189343500Y-79857000D01*
X189310166Y-79790333D01*
X189143500Y-79557000D02*
X189143500Y-79290333D01*
X188910166Y-79457000D02*
X189510166Y-79457000D01*
X189576833Y-79423666D01*
X189610166Y-79357000D01*
X189610166Y-79290333D01*
X189610166Y-78957000D02*
X189576833Y-79023666D01*
X189543500Y-79057000D01*
X189476833Y-79090333D01*
X189276833Y-79090333D01*
X189210166Y-79057000D01*
X189176833Y-79023666D01*
X189143500Y-78957000D01*
X189143500Y-78857000D01*
X189176833Y-78790333D01*
X189210166Y-78757000D01*
X189276833Y-78723666D01*
X189476833Y-78723666D01*
X189543500Y-78757000D01*
X189576833Y-78790333D01*
X189610166Y-78857000D01*
X189610166Y-78957000D01*
X189610166Y-78423666D02*
X189143500Y-78423666D01*
X189276833Y-78423666D02*
X189210166Y-78390333D01*
X189176833Y-78357000D01*
X189143500Y-78290333D01*
X189143500Y-78223666D01*
X189576833Y-78023666D02*
X189610166Y-77957000D01*
X189610166Y-77823666D01*
X189576833Y-77757000D01*
X189510166Y-77723666D01*
X189476833Y-77723666D01*
X189410166Y-77757000D01*
X189376833Y-77823666D01*
X189376833Y-77923666D01*
X189343500Y-77990333D01*
X189276833Y-78023666D01*
X189243500Y-78023666D01*
X189176833Y-77990333D01*
X189143500Y-77923666D01*
X189143500Y-77823666D01*
X189176833Y-77757000D01*
X172050833Y-93045666D02*
X172084166Y-92945666D01*
X172084166Y-92779000D01*
X172050833Y-92712333D01*
X172017500Y-92679000D01*
X171950833Y-92645666D01*
X171884166Y-92645666D01*
X171817500Y-92679000D01*
X171784166Y-92712333D01*
X171750833Y-92779000D01*
X171717500Y-92912333D01*
X171684166Y-92979000D01*
X171650833Y-93012333D01*
X171584166Y-93045666D01*
X171517500Y-93045666D01*
X171450833Y-93012333D01*
X171417500Y-92979000D01*
X171384166Y-92912333D01*
X171384166Y-92745666D01*
X171417500Y-92645666D01*
X172084166Y-92345666D02*
X171384166Y-92345666D01*
X171384166Y-92079000D01*
X171417500Y-92012333D01*
X171450833Y-91979000D01*
X171517500Y-91945666D01*
X171617500Y-91945666D01*
X171684166Y-91979000D01*
X171717500Y-92012333D01*
X171750833Y-92079000D01*
X171750833Y-92345666D01*
X172084166Y-91645666D02*
X171384166Y-91645666D01*
X140237333Y-89665733D02*
X140270666Y-89565733D01*
X140270666Y-89399066D01*
X140237333Y-89332400D01*
X140204000Y-89299066D01*
X140137333Y-89265733D01*
X140070666Y-89265733D01*
X140004000Y-89299066D01*
X139970666Y-89332400D01*
X139937333Y-89399066D01*
X139904000Y-89532400D01*
X139870666Y-89599066D01*
X139837333Y-89632400D01*
X139770666Y-89665733D01*
X139704000Y-89665733D01*
X139637333Y-89632400D01*
X139604000Y-89599066D01*
X139570666Y-89532400D01*
X139570666Y-89365733D01*
X139604000Y-89265733D01*
X140270666Y-88965733D02*
X139570666Y-88965733D01*
X139570666Y-88699066D01*
X139604000Y-88632400D01*
X139637333Y-88599066D01*
X139704000Y-88565733D01*
X139804000Y-88565733D01*
X139870666Y-88599066D01*
X139904000Y-88632400D01*
X139937333Y-88699066D01*
X139937333Y-88965733D01*
X140270666Y-88265733D02*
X139570666Y-88265733D01*
X139804000Y-87932400D02*
X140504000Y-87932400D01*
X139837333Y-87932400D02*
X139804000Y-87865733D01*
X139804000Y-87732400D01*
X139837333Y-87665733D01*
X139870666Y-87632400D01*
X139937333Y-87599066D01*
X140137333Y-87599066D01*
X140204000Y-87632400D01*
X140237333Y-87665733D01*
X140270666Y-87732400D01*
X140270666Y-87865733D01*
X140237333Y-87932400D01*
X140270666Y-87299066D02*
X139804000Y-87299066D01*
X139937333Y-87299066D02*
X139870666Y-87265733D01*
X139837333Y-87232400D01*
X139804000Y-87165733D01*
X139804000Y-87099066D01*
X140270666Y-86865733D02*
X139804000Y-86865733D01*
X139570666Y-86865733D02*
X139604000Y-86899066D01*
X139637333Y-86865733D01*
X139604000Y-86832400D01*
X139570666Y-86865733D01*
X139637333Y-86865733D01*
X140270666Y-86532400D02*
X139804000Y-86532400D01*
X139870666Y-86532400D02*
X139837333Y-86499066D01*
X139804000Y-86432400D01*
X139804000Y-86332400D01*
X139837333Y-86265733D01*
X139904000Y-86232400D01*
X140270666Y-86232400D01*
X139904000Y-86232400D02*
X139837333Y-86199066D01*
X139804000Y-86132400D01*
X139804000Y-86032400D01*
X139837333Y-85965733D01*
X139904000Y-85932400D01*
X140270666Y-85932400D01*
X145647533Y-81201100D02*
X145680866Y-81101100D01*
X145680866Y-80934433D01*
X145647533Y-80867766D01*
X145614200Y-80834433D01*
X145547533Y-80801100D01*
X145480866Y-80801100D01*
X145414200Y-80834433D01*
X145380866Y-80867766D01*
X145347533Y-80934433D01*
X145314200Y-81067766D01*
X145280866Y-81134433D01*
X145247533Y-81167766D01*
X145180866Y-81201100D01*
X145114200Y-81201100D01*
X145047533Y-81167766D01*
X145014200Y-81134433D01*
X144980866Y-81067766D01*
X144980866Y-80901100D01*
X145014200Y-80801100D01*
X145680866Y-80501100D02*
X144980866Y-80501100D01*
X144980866Y-80234433D01*
X145014200Y-80167766D01*
X145047533Y-80134433D01*
X145114200Y-80101100D01*
X145214200Y-80101100D01*
X145280866Y-80134433D01*
X145314200Y-80167766D01*
X145347533Y-80234433D01*
X145347533Y-80501100D01*
X145680866Y-79801100D02*
X144980866Y-79801100D01*
X145647533Y-79501100D02*
X145680866Y-79434433D01*
X145680866Y-79301100D01*
X145647533Y-79234433D01*
X145580866Y-79201100D01*
X145547533Y-79201100D01*
X145480866Y-79234433D01*
X145447533Y-79301100D01*
X145447533Y-79401100D01*
X145414200Y-79467766D01*
X145347533Y-79501100D01*
X145314200Y-79501100D01*
X145247533Y-79467766D01*
X145214200Y-79401100D01*
X145214200Y-79301100D01*
X145247533Y-79234433D01*
X145647533Y-78634433D02*
X145680866Y-78701100D01*
X145680866Y-78834433D01*
X145647533Y-78901100D01*
X145580866Y-78934433D01*
X145314200Y-78934433D01*
X145247533Y-78901100D01*
X145214200Y-78834433D01*
X145214200Y-78701100D01*
X145247533Y-78634433D01*
X145314200Y-78601100D01*
X145380866Y-78601100D01*
X145447533Y-78934433D01*
X145647533Y-78001100D02*
X145680866Y-78067766D01*
X145680866Y-78201100D01*
X145647533Y-78267766D01*
X145614200Y-78301100D01*
X145547533Y-78334433D01*
X145347533Y-78334433D01*
X145280866Y-78301100D01*
X145247533Y-78267766D01*
X145214200Y-78201100D01*
X145214200Y-78067766D01*
X145247533Y-78001100D01*
X145680866Y-77601100D02*
X145647533Y-77667766D01*
X145614200Y-77701100D01*
X145547533Y-77734433D01*
X145347533Y-77734433D01*
X145280866Y-77701100D01*
X145247533Y-77667766D01*
X145214200Y-77601100D01*
X145214200Y-77501100D01*
X145247533Y-77434433D01*
X145280866Y-77401100D01*
X145347533Y-77367766D01*
X145547533Y-77367766D01*
X145614200Y-77401100D01*
X145647533Y-77434433D01*
X145680866Y-77501100D01*
X145680866Y-77601100D01*
X145214200Y-77067766D02*
X145680866Y-77067766D01*
X145280866Y-77067766D02*
X145247533Y-77034433D01*
X145214200Y-76967766D01*
X145214200Y-76867766D01*
X145247533Y-76801100D01*
X145314200Y-76767766D01*
X145680866Y-76767766D01*
X145680866Y-76134433D02*
X144980866Y-76134433D01*
X145647533Y-76134433D02*
X145680866Y-76201100D01*
X145680866Y-76334433D01*
X145647533Y-76401100D01*
X145614200Y-76434433D01*
X145547533Y-76467766D01*
X145347533Y-76467766D01*
X145280866Y-76434433D01*
X145247533Y-76401100D01*
X145214200Y-76334433D01*
X145214200Y-76201100D01*
X145247533Y-76134433D01*
X131634666Y-116386000D02*
X131634666Y-116786000D01*
X131634666Y-116586000D02*
X130934666Y-116586000D01*
X131034666Y-116652666D01*
X131101333Y-116719333D01*
X131134666Y-116786000D01*
D10*
X115503200Y-109395200D02*
X115503200Y-111495200D01*
X115803200Y-109095200D02*
X114203200Y-109095200D01*
X115803200Y-110795200D02*
X115803200Y-109095200D01*
X115503200Y-118595200D02*
X113703200Y-118595200D01*
X115503200Y-116495200D02*
X115503200Y-118595200D01*
X100803200Y-109395200D02*
X115503200Y-109395200D01*
X100803200Y-118595200D02*
X100803200Y-109395200D01*
X109303200Y-118595200D02*
X100803200Y-118595200D01*
D11*
X107166000Y-69740800D02*
G75*
G03X107166000Y-69740800I-100000J0D01*
G01*
X112166000Y-75640800D02*
X112166000Y-75540800D01*
X105766000Y-75640800D02*
X112166000Y-75640800D01*
X105766000Y-75540800D02*
X105766000Y-75640800D01*
X112166000Y-69240800D02*
X112166000Y-69340800D01*
X105766000Y-69240800D02*
X112166000Y-69240800D01*
X105766000Y-69340800D02*
X105766000Y-69240800D01*
X112166000Y-71540800D02*
X112166000Y-73340800D01*
X105766000Y-71540800D02*
X105766000Y-73340800D01*
X163770000Y-97988800D02*
X157795000Y-97988800D01*
X162245000Y-91088800D02*
X157795000Y-91088800D01*
X201168000Y-115316000D02*
X201168000Y-69596000D01*
X196088000Y-69596000D02*
X196088000Y-112776000D01*
X201168000Y-69596000D02*
X196088000Y-69596000D01*
X201168000Y-115316000D02*
X198628000Y-115316000D01*
X195808000Y-114046000D02*
X195808000Y-115596000D01*
X198628000Y-115316000D02*
X198628000Y-112776000D01*
X198628000Y-112776000D02*
X196088000Y-112776000D01*
X195808000Y-115596000D02*
X197358000Y-115596000D01*
X132588000Y-120396000D02*
X150368000Y-120396000D01*
X150368000Y-120396000D02*
X150368000Y-117856000D01*
X150368000Y-117856000D02*
X132588000Y-117856000D01*
X129768000Y-120676000D02*
X131318000Y-120676000D01*
X132588000Y-120396000D02*
X132588000Y-117856000D01*
X131318000Y-117576000D02*
X129768000Y-117576000D01*
X129768000Y-117576000D02*
X129768000Y-120676000D01*
X155448000Y-120396000D02*
X173228000Y-120396000D01*
X173228000Y-120396000D02*
X173228000Y-117856000D01*
X173228000Y-117856000D02*
X155448000Y-117856000D01*
X152628000Y-120676000D02*
X154178000Y-120676000D01*
X155448000Y-120396000D02*
X155448000Y-117856000D01*
X154178000Y-117576000D02*
X152628000Y-117576000D01*
X152628000Y-117576000D02*
X152628000Y-120676000D01*
X178308000Y-120396000D02*
X196088000Y-120396000D01*
X196088000Y-120396000D02*
X196088000Y-117856000D01*
X196088000Y-117856000D02*
X178308000Y-117856000D01*
X175488000Y-120676000D02*
X177038000Y-120676000D01*
X178308000Y-120396000D02*
X178308000Y-117856000D01*
X177038000Y-117576000D02*
X175488000Y-117576000D01*
X175488000Y-117576000D02*
X175488000Y-120676000D01*
X123444000Y-72136000D02*
X146304000Y-72136000D01*
X146304000Y-72136000D02*
X146304000Y-69596000D01*
X146304000Y-69596000D02*
X123444000Y-69596000D01*
X120624000Y-72416000D02*
X122174000Y-72416000D01*
X123444000Y-72136000D02*
X123444000Y-69596000D01*
X122174000Y-69316000D02*
X120624000Y-69316000D01*
X120624000Y-69316000D02*
X120624000Y-72416000D01*
X150368000Y-72136000D02*
X168148000Y-72136000D01*
X168148000Y-72136000D02*
X168148000Y-69596000D01*
X168148000Y-69596000D02*
X150368000Y-69596000D01*
X147548000Y-72416000D02*
X149098000Y-72416000D01*
X150368000Y-72136000D02*
X150368000Y-69596000D01*
X149098000Y-69316000D02*
X147548000Y-69316000D01*
X147548000Y-69316000D02*
X147548000Y-72416000D01*
X173228000Y-72136000D02*
X191008000Y-72136000D01*
X191008000Y-72136000D02*
X191008000Y-69596000D01*
X191008000Y-69596000D02*
X173228000Y-69596000D01*
X170408000Y-72416000D02*
X171958000Y-72416000D01*
X173228000Y-72136000D02*
X173228000Y-69596000D01*
X171958000Y-69316000D02*
X170408000Y-69316000D01*
X170408000Y-69316000D02*
X170408000Y-72416000D01*
X119634000Y-119126000D02*
G75*
G03X119634000Y-119126000I-2286000J0D01*
G01*
X171704000Y-114046000D02*
G75*
G03X171704000Y-114046000I-2286000J0D01*
G01*
X202184000Y-119126000D02*
G75*
G03X202184000Y-119126000I-2286000J0D01*
G01*
X120904000Y-70866000D02*
G75*
G03X120904000Y-70866000I-2286000J0D01*
G01*
X171704000Y-86106000D02*
G75*
G03X171704000Y-86106000I-2286000J0D01*
G01*
X195834000Y-70866000D02*
G75*
G03X195834000Y-70866000I-2286000J0D01*
G01*
X176628400Y-108068000D02*
X176628400Y-111388000D01*
X183848400Y-108068000D02*
X183848400Y-111388000D01*
X178578400Y-113338000D02*
X181898400Y-113338000D01*
X178578400Y-106118000D02*
X181898400Y-106118000D01*
X167758000Y-100276000D02*
X171078000Y-100276000D01*
X167758000Y-107496000D02*
X171078000Y-107496000D01*
X173028000Y-102226000D02*
X173028000Y-105546000D01*
X165808000Y-102226000D02*
X165808000Y-105546000D01*
X190754000Y-103652000D02*
X188804000Y-103652000D01*
X190754000Y-103652000D02*
X192704000Y-103652000D01*
X190754000Y-113772000D02*
X188804000Y-113772000D01*
X190754000Y-113772000D02*
X194204000Y-113772000D01*
X143878300Y-116760300D02*
X143878300Y-114100300D01*
X143878300Y-116760300D02*
X149018300Y-116760300D01*
X149018300Y-116760300D02*
X149018300Y-114100300D01*
X143878300Y-114100300D02*
X149018300Y-114100300D01*
X141278300Y-114100300D02*
X142608300Y-114100300D01*
X141278300Y-115430300D02*
X141278300Y-114100300D01*
X130051500Y-115430300D02*
X130051500Y-114100300D01*
X130051500Y-114100300D02*
X131381500Y-114100300D01*
X132651500Y-114100300D02*
X137791500Y-114100300D01*
X137791500Y-116760300D02*
X137791500Y-114100300D01*
X132651500Y-116760300D02*
X137791500Y-116760300D01*
X132651500Y-116760300D02*
X132651500Y-114100300D01*
X157693579Y-99417600D02*
X157368021Y-99417600D01*
X157693579Y-98397600D02*
X157368021Y-98397600D01*
X175935421Y-78547500D02*
X176260979Y-78547500D01*
X175935421Y-79567500D02*
X176260979Y-79567500D01*
X157693579Y-99972400D02*
X157368021Y-99972400D01*
X157693579Y-100992400D02*
X157368021Y-100992400D01*
X188681579Y-115216400D02*
X188356021Y-115216400D01*
X188681579Y-114196400D02*
X188356021Y-114196400D01*
X175935421Y-80071500D02*
X176260979Y-80071500D01*
X175935421Y-81091500D02*
X176260979Y-81091500D01*
X188681579Y-116740400D02*
X188356021Y-116740400D01*
X188681579Y-115720400D02*
X188356021Y-115720400D01*
X150365400Y-113143600D02*
X147825400Y-113143600D01*
X150365400Y-113143600D02*
X150365400Y-110603600D01*
X150115400Y-112893600D02*
X140765400Y-112893600D01*
X150115400Y-84413600D02*
X150115400Y-112893600D01*
X140765400Y-84413600D02*
X150115400Y-84413600D01*
X140765400Y-112893600D02*
X140765400Y-84413600D01*
X146034000Y-74166600D02*
X174514000Y-74166600D01*
X174514000Y-74166600D02*
X174514000Y-83516600D01*
X174514000Y-83516600D02*
X146034000Y-83516600D01*
X146034000Y-83516600D02*
X146034000Y-74166600D01*
X145784000Y-83766600D02*
X148324000Y-83766600D01*
X145784000Y-83766600D02*
X145784000Y-81226600D01*
X175878000Y-76020700D02*
X175878000Y-77420700D01*
X178198000Y-77420700D02*
X178198000Y-75520700D01*
X104423800Y-106199564D02*
X104423800Y-104995436D01*
X106243800Y-106199564D02*
X106243800Y-104995436D01*
X109487800Y-106202564D02*
X109487800Y-104998436D01*
X106767800Y-106202564D02*
X106767800Y-104998436D01*
X122610378Y-104192000D02*
X122093222Y-104192000D01*
X122610378Y-105612000D02*
X122093222Y-105612000D01*
X117613600Y-106148764D02*
X117613600Y-104944636D01*
X120333600Y-106148764D02*
X120333600Y-104944636D01*
X120229700Y-109647222D02*
X120229700Y-110164378D01*
X118809700Y-109647222D02*
X118809700Y-110164378D01*
X122042422Y-106262100D02*
X122559578Y-106262100D01*
X122042422Y-107682100D02*
X122559578Y-107682100D01*
X179271800Y-101400100D02*
X179271800Y-72920100D01*
X179271800Y-72920100D02*
X188621800Y-72920100D01*
X188621800Y-72920100D02*
X188621800Y-101400100D01*
X188621800Y-101400100D02*
X179271800Y-101400100D01*
X188871800Y-101650100D02*
X188871800Y-99110100D01*
X188871800Y-101650100D02*
X186331800Y-101650100D01*
X137665400Y-113143600D02*
X135125400Y-113143600D01*
X137665400Y-113143600D02*
X137665400Y-110603600D01*
X137415400Y-112893600D02*
X128065400Y-112893600D01*
X137415400Y-84413600D02*
X137415400Y-112893600D01*
X128065400Y-84413600D02*
X137415400Y-84413600D01*
X128065400Y-112893600D02*
X128065400Y-84413600D01*
X122572278Y-109650600D02*
X122055122Y-109650600D01*
X122572278Y-108230600D02*
X122055122Y-108230600D01*
X129727300Y-76495800D02*
X129727300Y-79815800D01*
X136947300Y-76495800D02*
X136947300Y-79815800D01*
X131677300Y-81765800D02*
X134997300Y-81765800D01*
X131677300Y-74545800D02*
X134997300Y-74545800D01*
D10*
X113538000Y-103002400D02*
X111588000Y-103002400D01*
X113538000Y-103002400D02*
X115488000Y-103002400D01*
X113538000Y-108122400D02*
X111588000Y-108122400D01*
X113538000Y-108122400D02*
X116988000Y-108122400D01*
D12*
X116455580Y-114804723D02*
X117169866Y-114804723D01*
X117312723Y-114852342D01*
X117407961Y-114947580D01*
X117455580Y-115090438D01*
X117455580Y-115185676D01*
X117455580Y-113804723D02*
X117455580Y-114376152D01*
X117455580Y-114090438D02*
X116455580Y-114090438D01*
X116598438Y-114185676D01*
X116693676Y-114280914D01*
X116741295Y-114376152D01*
X116455580Y-113185676D02*
X116455580Y-113090438D01*
X116503200Y-112995200D01*
X116550819Y-112947580D01*
X116646057Y-112899961D01*
X116836533Y-112852342D01*
X117074628Y-112852342D01*
X117265104Y-112899961D01*
X117360342Y-112947580D01*
X117407961Y-112995200D01*
X117455580Y-113090438D01*
X117455580Y-113185676D01*
X117407961Y-113280914D01*
X117360342Y-113328533D01*
X117265104Y-113376152D01*
X117074628Y-113423771D01*
X116836533Y-113423771D01*
X116646057Y-113376152D01*
X116550819Y-113328533D01*
X116503200Y-113280914D01*
X116455580Y-113185676D01*
D11*
X106381666Y-76577833D02*
X106481666Y-76611166D01*
X106648333Y-76611166D01*
X106715000Y-76577833D01*
X106748333Y-76544500D01*
X106781666Y-76477833D01*
X106781666Y-76411166D01*
X106748333Y-76344500D01*
X106715000Y-76311166D01*
X106648333Y-76277833D01*
X106515000Y-76244500D01*
X106448333Y-76211166D01*
X106415000Y-76177833D01*
X106381666Y-76111166D01*
X106381666Y-76044500D01*
X106415000Y-75977833D01*
X106448333Y-75944500D01*
X106515000Y-75911166D01*
X106681666Y-75911166D01*
X106781666Y-75944500D01*
X107015000Y-75911166D02*
X107181666Y-76611166D01*
X107315000Y-76111166D01*
X107448333Y-76611166D01*
X107615000Y-75911166D01*
X108248333Y-76611166D02*
X107848333Y-76611166D01*
X108048333Y-76611166D02*
X108048333Y-75911166D01*
X107981666Y-76011166D01*
X107915000Y-76077833D01*
X107848333Y-76111166D01*
X159486666Y-98455466D02*
X159486666Y-99022133D01*
X159520000Y-99088800D01*
X159553333Y-99122133D01*
X159620000Y-99155466D01*
X159753333Y-99155466D01*
X159820000Y-99122133D01*
X159853333Y-99088800D01*
X159886666Y-99022133D01*
X159886666Y-98455466D01*
X160586666Y-99155466D02*
X160186666Y-99155466D01*
X160386666Y-99155466D02*
X160386666Y-98455466D01*
X160320000Y-98555466D01*
X160253333Y-98622133D01*
X160186666Y-98655466D01*
X194880666Y-93306000D02*
X194180666Y-93306000D01*
X194180666Y-93039333D01*
X194214000Y-92972666D01*
X194247333Y-92939333D01*
X194314000Y-92906000D01*
X194414000Y-92906000D01*
X194480666Y-92939333D01*
X194514000Y-92972666D01*
X194547333Y-93039333D01*
X194547333Y-93306000D01*
X194880666Y-92239333D02*
X194880666Y-92639333D01*
X194880666Y-92439333D02*
X194180666Y-92439333D01*
X194280666Y-92506000D01*
X194347333Y-92572666D01*
X194380666Y-92639333D01*
X194180666Y-92006000D02*
X194180666Y-91572666D01*
X194447333Y-91806000D01*
X194447333Y-91706000D01*
X194480666Y-91639333D01*
X194514000Y-91606000D01*
X194580666Y-91572666D01*
X194747333Y-91572666D01*
X194814000Y-91606000D01*
X194847333Y-91639333D01*
X194880666Y-91706000D01*
X194880666Y-91906000D01*
X194847333Y-91972666D01*
X194814000Y-92006000D01*
X129132766Y-119769666D02*
X128432766Y-119769666D01*
X128432766Y-119503000D01*
X128466100Y-119436333D01*
X128499433Y-119403000D01*
X128566100Y-119369666D01*
X128666100Y-119369666D01*
X128732766Y-119403000D01*
X128766100Y-119436333D01*
X128799433Y-119503000D01*
X128799433Y-119769666D01*
X128732766Y-118969666D02*
X128699433Y-119036333D01*
X128666100Y-119069666D01*
X128599433Y-119103000D01*
X128566100Y-119103000D01*
X128499433Y-119069666D01*
X128466100Y-119036333D01*
X128432766Y-118969666D01*
X128432766Y-118836333D01*
X128466100Y-118769666D01*
X128499433Y-118736333D01*
X128566100Y-118703000D01*
X128599433Y-118703000D01*
X128666100Y-118736333D01*
X128699433Y-118769666D01*
X128732766Y-118836333D01*
X128732766Y-118969666D01*
X128766100Y-119036333D01*
X128799433Y-119069666D01*
X128866100Y-119103000D01*
X128999433Y-119103000D01*
X129066100Y-119069666D01*
X129099433Y-119036333D01*
X129132766Y-118969666D01*
X129132766Y-118836333D01*
X129099433Y-118769666D01*
X129066100Y-118736333D01*
X128999433Y-118703000D01*
X128866100Y-118703000D01*
X128799433Y-118736333D01*
X128766100Y-118769666D01*
X128732766Y-118836333D01*
X162551333Y-116902666D02*
X162551333Y-116202666D01*
X162818000Y-116202666D01*
X162884666Y-116236000D01*
X162918000Y-116269333D01*
X162951333Y-116336000D01*
X162951333Y-116436000D01*
X162918000Y-116502666D01*
X162884666Y-116536000D01*
X162818000Y-116569333D01*
X162551333Y-116569333D01*
X163284666Y-116902666D02*
X163418000Y-116902666D01*
X163484666Y-116869333D01*
X163518000Y-116836000D01*
X163584666Y-116736000D01*
X163618000Y-116602666D01*
X163618000Y-116336000D01*
X163584666Y-116269333D01*
X163551333Y-116236000D01*
X163484666Y-116202666D01*
X163351333Y-116202666D01*
X163284666Y-116236000D01*
X163251333Y-116269333D01*
X163218000Y-116336000D01*
X163218000Y-116502666D01*
X163251333Y-116569333D01*
X163284666Y-116602666D01*
X163351333Y-116636000D01*
X163484666Y-116636000D01*
X163551333Y-116602666D01*
X163584666Y-116569333D01*
X163618000Y-116502666D01*
X185078000Y-116648666D02*
X185078000Y-115948666D01*
X185344666Y-115948666D01*
X185411333Y-115982000D01*
X185444666Y-116015333D01*
X185478000Y-116082000D01*
X185478000Y-116182000D01*
X185444666Y-116248666D01*
X185411333Y-116282000D01*
X185344666Y-116315333D01*
X185078000Y-116315333D01*
X186144666Y-116648666D02*
X185744666Y-116648666D01*
X185944666Y-116648666D02*
X185944666Y-115948666D01*
X185878000Y-116048666D01*
X185811333Y-116115333D01*
X185744666Y-116148666D01*
X186811333Y-116648666D02*
X186411333Y-116648666D01*
X186611333Y-116648666D02*
X186611333Y-115948666D01*
X186544666Y-116048666D01*
X186478000Y-116115333D01*
X186411333Y-116148666D01*
X123117833Y-73532166D02*
X123117833Y-72832166D01*
X123384500Y-72832166D01*
X123451166Y-72865500D01*
X123484500Y-72898833D01*
X123517833Y-72965500D01*
X123517833Y-73065500D01*
X123484500Y-73132166D01*
X123451166Y-73165500D01*
X123384500Y-73198833D01*
X123117833Y-73198833D01*
X123751166Y-72832166D02*
X124217833Y-72832166D01*
X123917833Y-73532166D01*
X147422500Y-73405166D02*
X147422500Y-72705166D01*
X147689166Y-72705166D01*
X147755833Y-72738500D01*
X147789166Y-72771833D01*
X147822500Y-72838500D01*
X147822500Y-72938500D01*
X147789166Y-73005166D01*
X147755833Y-73038500D01*
X147689166Y-73071833D01*
X147422500Y-73071833D01*
X148489166Y-73405166D02*
X148089166Y-73405166D01*
X148289166Y-73405166D02*
X148289166Y-72705166D01*
X148222500Y-72805166D01*
X148155833Y-72871833D01*
X148089166Y-72905166D01*
X148922500Y-72705166D02*
X148989166Y-72705166D01*
X149055833Y-72738500D01*
X149089166Y-72771833D01*
X149122500Y-72838500D01*
X149155833Y-72971833D01*
X149155833Y-73138500D01*
X149122500Y-73271833D01*
X149089166Y-73338500D01*
X149055833Y-73371833D01*
X148989166Y-73405166D01*
X148922500Y-73405166D01*
X148855833Y-73371833D01*
X148822500Y-73338500D01*
X148789166Y-73271833D01*
X148755833Y-73138500D01*
X148755833Y-72971833D01*
X148789166Y-72838500D01*
X148822500Y-72771833D01*
X148855833Y-72738500D01*
X148922500Y-72705166D01*
X176188000Y-73595666D02*
X176188000Y-72895666D01*
X176454666Y-72895666D01*
X176521333Y-72929000D01*
X176554666Y-72962333D01*
X176588000Y-73029000D01*
X176588000Y-73129000D01*
X176554666Y-73195666D01*
X176521333Y-73229000D01*
X176454666Y-73262333D01*
X176188000Y-73262333D01*
X177254666Y-73595666D02*
X176854666Y-73595666D01*
X177054666Y-73595666D02*
X177054666Y-72895666D01*
X176988000Y-72995666D01*
X176921333Y-73062333D01*
X176854666Y-73095666D01*
X177521333Y-72962333D02*
X177554666Y-72929000D01*
X177621333Y-72895666D01*
X177788000Y-72895666D01*
X177854666Y-72929000D01*
X177888000Y-72962333D01*
X177921333Y-73029000D01*
X177921333Y-73095666D01*
X177888000Y-73195666D01*
X177488000Y-73595666D01*
X177921333Y-73595666D01*
X180005066Y-104594666D02*
X180005066Y-105094666D01*
X179971733Y-105194666D01*
X179905066Y-105261333D01*
X179805066Y-105294666D01*
X179738400Y-105294666D01*
X180671733Y-104594666D02*
X180338400Y-104594666D01*
X180305066Y-104928000D01*
X180338400Y-104894666D01*
X180405066Y-104861333D01*
X180571733Y-104861333D01*
X180638400Y-104894666D01*
X180671733Y-104928000D01*
X180705066Y-104994666D01*
X180705066Y-105161333D01*
X180671733Y-105228000D01*
X180638400Y-105261333D01*
X180571733Y-105294666D01*
X180405066Y-105294666D01*
X180338400Y-105261333D01*
X180305066Y-105228000D01*
X169184666Y-98752666D02*
X169184666Y-99252666D01*
X169151333Y-99352666D01*
X169084666Y-99419333D01*
X168984666Y-99452666D01*
X168918000Y-99452666D01*
X169451333Y-98752666D02*
X169918000Y-98752666D01*
X169618000Y-99452666D01*
X190576266Y-114228666D02*
X190576266Y-114795333D01*
X190609600Y-114862000D01*
X190642933Y-114895333D01*
X190709600Y-114928666D01*
X190842933Y-114928666D01*
X190909600Y-114895333D01*
X190942933Y-114862000D01*
X190976266Y-114795333D01*
X190976266Y-114228666D01*
X191609600Y-114462000D02*
X191609600Y-114928666D01*
X191442933Y-114195333D02*
X191276266Y-114695333D01*
X191709600Y-114695333D01*
X139735766Y-114457133D02*
X140235766Y-114457133D01*
X140335766Y-114490466D01*
X140402433Y-114557133D01*
X140435766Y-114657133D01*
X140435766Y-114723800D01*
X140435766Y-113757133D02*
X140435766Y-114157133D01*
X140435766Y-113957133D02*
X139735766Y-113957133D01*
X139835766Y-114023800D01*
X139902433Y-114090466D01*
X139935766Y-114157133D01*
X138516566Y-114419033D02*
X139016566Y-114419033D01*
X139116566Y-114452366D01*
X139183233Y-114519033D01*
X139216566Y-114619033D01*
X139216566Y-114685700D01*
X138583233Y-114119033D02*
X138549900Y-114085700D01*
X138516566Y-114019033D01*
X138516566Y-113852366D01*
X138549900Y-113785700D01*
X138583233Y-113752366D01*
X138649900Y-113719033D01*
X138716566Y-113719033D01*
X138816566Y-113752366D01*
X139216566Y-114152366D01*
X139216566Y-113719033D01*
X155026533Y-99208400D02*
X154993200Y-99241733D01*
X154893200Y-99275066D01*
X154826533Y-99275066D01*
X154726533Y-99241733D01*
X154659866Y-99175066D01*
X154626533Y-99108400D01*
X154593200Y-98975066D01*
X154593200Y-98875066D01*
X154626533Y-98741733D01*
X154659866Y-98675066D01*
X154726533Y-98608400D01*
X154826533Y-98575066D01*
X154893200Y-98575066D01*
X154993200Y-98608400D01*
X155026533Y-98641733D01*
X155259866Y-98575066D02*
X155693200Y-98575066D01*
X155459866Y-98841733D01*
X155559866Y-98841733D01*
X155626533Y-98875066D01*
X155659866Y-98908400D01*
X155693200Y-98975066D01*
X155693200Y-99141733D01*
X155659866Y-99208400D01*
X155626533Y-99241733D01*
X155559866Y-99275066D01*
X155359866Y-99275066D01*
X155293200Y-99241733D01*
X155259866Y-99208400D01*
X178367500Y-79555166D02*
X178400833Y-79588500D01*
X178434166Y-79688500D01*
X178434166Y-79755166D01*
X178400833Y-79855166D01*
X178334166Y-79921833D01*
X178267500Y-79955166D01*
X178134166Y-79988500D01*
X178034166Y-79988500D01*
X177900833Y-79955166D01*
X177834166Y-79921833D01*
X177767500Y-79855166D01*
X177734166Y-79755166D01*
X177734166Y-79688500D01*
X177767500Y-79588500D01*
X177800833Y-79555166D01*
X177734166Y-78921833D02*
X177734166Y-79255166D01*
X178067500Y-79288500D01*
X178034166Y-79255166D01*
X178000833Y-79188500D01*
X178000833Y-79021833D01*
X178034166Y-78955166D01*
X178067500Y-78921833D01*
X178134166Y-78888500D01*
X178300833Y-78888500D01*
X178367500Y-78921833D01*
X178400833Y-78955166D01*
X178434166Y-79021833D01*
X178434166Y-79188500D01*
X178400833Y-79255166D01*
X178367500Y-79288500D01*
X155026533Y-100732400D02*
X154993200Y-100765733D01*
X154893200Y-100799066D01*
X154826533Y-100799066D01*
X154726533Y-100765733D01*
X154659866Y-100699066D01*
X154626533Y-100632400D01*
X154593200Y-100499066D01*
X154593200Y-100399066D01*
X154626533Y-100265733D01*
X154659866Y-100199066D01*
X154726533Y-100132400D01*
X154826533Y-100099066D01*
X154893200Y-100099066D01*
X154993200Y-100132400D01*
X155026533Y-100165733D01*
X155293200Y-100165733D02*
X155326533Y-100132400D01*
X155393200Y-100099066D01*
X155559866Y-100099066D01*
X155626533Y-100132400D01*
X155659866Y-100165733D01*
X155693200Y-100232400D01*
X155693200Y-100299066D01*
X155659866Y-100399066D01*
X155259866Y-100799066D01*
X155693200Y-100799066D01*
X185912933Y-114905600D02*
X185879600Y-114938933D01*
X185779600Y-114972266D01*
X185712933Y-114972266D01*
X185612933Y-114938933D01*
X185546266Y-114872266D01*
X185512933Y-114805600D01*
X185479600Y-114672266D01*
X185479600Y-114572266D01*
X185512933Y-114438933D01*
X185546266Y-114372266D01*
X185612933Y-114305600D01*
X185712933Y-114272266D01*
X185779600Y-114272266D01*
X185879600Y-114305600D01*
X185912933Y-114338933D01*
X186246266Y-114972266D02*
X186379600Y-114972266D01*
X186446266Y-114938933D01*
X186479600Y-114905600D01*
X186546266Y-114805600D01*
X186579600Y-114672266D01*
X186579600Y-114405600D01*
X186546266Y-114338933D01*
X186512933Y-114305600D01*
X186446266Y-114272266D01*
X186312933Y-114272266D01*
X186246266Y-114305600D01*
X186212933Y-114338933D01*
X186179600Y-114405600D01*
X186179600Y-114572266D01*
X186212933Y-114638933D01*
X186246266Y-114672266D01*
X186312933Y-114705600D01*
X186446266Y-114705600D01*
X186512933Y-114672266D01*
X186546266Y-114638933D01*
X186579600Y-114572266D01*
X176984833Y-82165000D02*
X176951500Y-82198333D01*
X176851500Y-82231666D01*
X176784833Y-82231666D01*
X176684833Y-82198333D01*
X176618166Y-82131666D01*
X176584833Y-82065000D01*
X176551500Y-81931666D01*
X176551500Y-81831666D01*
X176584833Y-81698333D01*
X176618166Y-81631666D01*
X176684833Y-81565000D01*
X176784833Y-81531666D01*
X176851500Y-81531666D01*
X176951500Y-81565000D01*
X176984833Y-81598333D01*
X177584833Y-81765000D02*
X177584833Y-82231666D01*
X177418166Y-81498333D02*
X177251500Y-81998333D01*
X177684833Y-81998333D01*
X190891333Y-116480400D02*
X190858000Y-116513733D01*
X190758000Y-116547066D01*
X190691333Y-116547066D01*
X190591333Y-116513733D01*
X190524666Y-116447066D01*
X190491333Y-116380400D01*
X190458000Y-116247066D01*
X190458000Y-116147066D01*
X190491333Y-116013733D01*
X190524666Y-115947066D01*
X190591333Y-115880400D01*
X190691333Y-115847066D01*
X190758000Y-115847066D01*
X190858000Y-115880400D01*
X190891333Y-115913733D01*
X191291333Y-116147066D02*
X191224666Y-116113733D01*
X191191333Y-116080400D01*
X191158000Y-116013733D01*
X191158000Y-115980400D01*
X191191333Y-115913733D01*
X191224666Y-115880400D01*
X191291333Y-115847066D01*
X191424666Y-115847066D01*
X191491333Y-115880400D01*
X191524666Y-115913733D01*
X191558000Y-115980400D01*
X191558000Y-116013733D01*
X191524666Y-116080400D01*
X191491333Y-116113733D01*
X191424666Y-116147066D01*
X191291333Y-116147066D01*
X191224666Y-116180400D01*
X191191333Y-116213733D01*
X191158000Y-116280400D01*
X191158000Y-116413733D01*
X191191333Y-116480400D01*
X191224666Y-116513733D01*
X191291333Y-116547066D01*
X191424666Y-116547066D01*
X191491333Y-116513733D01*
X191524666Y-116480400D01*
X191558000Y-116413733D01*
X191558000Y-116280400D01*
X191524666Y-116213733D01*
X191491333Y-116180400D01*
X191424666Y-116147066D01*
X150645066Y-109300933D02*
X151145066Y-109300933D01*
X151245066Y-109334266D01*
X151311733Y-109400933D01*
X151345066Y-109500933D01*
X151345066Y-109567600D01*
X150878400Y-108667600D02*
X151345066Y-108667600D01*
X150611733Y-108834266D02*
X151111733Y-109000933D01*
X151111733Y-108567600D01*
X175079866Y-83088133D02*
X175579866Y-83088133D01*
X175679866Y-83121466D01*
X175746533Y-83188133D01*
X175779866Y-83288133D01*
X175779866Y-83354800D01*
X175079866Y-82454800D02*
X175079866Y-82588133D01*
X175113200Y-82654800D01*
X175146533Y-82688133D01*
X175246533Y-82754800D01*
X175379866Y-82788133D01*
X175646533Y-82788133D01*
X175713200Y-82754800D01*
X175746533Y-82721466D01*
X175779866Y-82654800D01*
X175779866Y-82521466D01*
X175746533Y-82454800D01*
X175713200Y-82421466D01*
X175646533Y-82388133D01*
X175479866Y-82388133D01*
X175413200Y-82421466D01*
X175379866Y-82454800D01*
X175346533Y-82521466D01*
X175346533Y-82654800D01*
X175379866Y-82721466D01*
X175413200Y-82754800D01*
X175479866Y-82788133D01*
X174711566Y-76606333D02*
X175278233Y-76606333D01*
X175344900Y-76573000D01*
X175378233Y-76539666D01*
X175411566Y-76473000D01*
X175411566Y-76339666D01*
X175378233Y-76273000D01*
X175344900Y-76239666D01*
X175278233Y-76206333D01*
X174711566Y-76206333D01*
X174778233Y-75906333D02*
X174744900Y-75873000D01*
X174711566Y-75806333D01*
X174711566Y-75639666D01*
X174744900Y-75573000D01*
X174778233Y-75539666D01*
X174844900Y-75506333D01*
X174911566Y-75506333D01*
X175011566Y-75539666D01*
X175411566Y-75939666D01*
X175411566Y-75506333D01*
X105850500Y-109791000D02*
X105883833Y-109824333D01*
X105917166Y-109924333D01*
X105917166Y-109991000D01*
X105883833Y-110091000D01*
X105817166Y-110157666D01*
X105750500Y-110191000D01*
X105617166Y-110224333D01*
X105517166Y-110224333D01*
X105383833Y-110191000D01*
X105317166Y-110157666D01*
X105250500Y-110091000D01*
X105217166Y-109991000D01*
X105217166Y-109924333D01*
X105250500Y-109824333D01*
X105283833Y-109791000D01*
X105917166Y-109124333D02*
X105917166Y-109524333D01*
X105917166Y-109324333D02*
X105217166Y-109324333D01*
X105317166Y-109391000D01*
X105383833Y-109457666D01*
X105417166Y-109524333D01*
X105283833Y-108857666D02*
X105250500Y-108824333D01*
X105217166Y-108757666D01*
X105217166Y-108591000D01*
X105250500Y-108524333D01*
X105283833Y-108491000D01*
X105350500Y-108457666D01*
X105417166Y-108457666D01*
X105517166Y-108491000D01*
X105917166Y-108891000D01*
X105917166Y-108457666D01*
X108301600Y-109797000D02*
X108334933Y-109830333D01*
X108368266Y-109930333D01*
X108368266Y-109997000D01*
X108334933Y-110097000D01*
X108268266Y-110163666D01*
X108201600Y-110197000D01*
X108068266Y-110230333D01*
X107968266Y-110230333D01*
X107834933Y-110197000D01*
X107768266Y-110163666D01*
X107701600Y-110097000D01*
X107668266Y-109997000D01*
X107668266Y-109930333D01*
X107701600Y-109830333D01*
X107734933Y-109797000D01*
X108368266Y-109130333D02*
X108368266Y-109530333D01*
X108368266Y-109330333D02*
X107668266Y-109330333D01*
X107768266Y-109397000D01*
X107834933Y-109463666D01*
X107868266Y-109530333D01*
X107668266Y-108897000D02*
X107668266Y-108463666D01*
X107934933Y-108697000D01*
X107934933Y-108597000D01*
X107968266Y-108530333D01*
X108001600Y-108497000D01*
X108068266Y-108463666D01*
X108234933Y-108463666D01*
X108301600Y-108497000D01*
X108334933Y-108530333D01*
X108368266Y-108597000D01*
X108368266Y-108797000D01*
X108334933Y-108863666D01*
X108301600Y-108897000D01*
X121952600Y-103399400D02*
X121919266Y-103432733D01*
X121819266Y-103466066D01*
X121752600Y-103466066D01*
X121652600Y-103432733D01*
X121585933Y-103366066D01*
X121552600Y-103299400D01*
X121519266Y-103166066D01*
X121519266Y-103066066D01*
X121552600Y-102932733D01*
X121585933Y-102866066D01*
X121652600Y-102799400D01*
X121752600Y-102766066D01*
X121819266Y-102766066D01*
X121919266Y-102799400D01*
X121952600Y-102832733D01*
X122619266Y-103466066D02*
X122219266Y-103466066D01*
X122419266Y-103466066D02*
X122419266Y-102766066D01*
X122352600Y-102866066D01*
X122285933Y-102932733D01*
X122219266Y-102966066D01*
X123219266Y-102999400D02*
X123219266Y-103466066D01*
X123052600Y-102732733D02*
X122885933Y-103232733D01*
X123319266Y-103232733D01*
X118371200Y-102853300D02*
X118337866Y-102886633D01*
X118237866Y-102919966D01*
X118171200Y-102919966D01*
X118071200Y-102886633D01*
X118004533Y-102819966D01*
X117971200Y-102753300D01*
X117937866Y-102619966D01*
X117937866Y-102519966D01*
X117971200Y-102386633D01*
X118004533Y-102319966D01*
X118071200Y-102253300D01*
X118171200Y-102219966D01*
X118237866Y-102219966D01*
X118337866Y-102253300D01*
X118371200Y-102286633D01*
X119037866Y-102919966D02*
X118637866Y-102919966D01*
X118837866Y-102919966D02*
X118837866Y-102219966D01*
X118771200Y-102319966D01*
X118704533Y-102386633D01*
X118637866Y-102419966D01*
X119671200Y-102219966D02*
X119337866Y-102219966D01*
X119304533Y-102553300D01*
X119337866Y-102519966D01*
X119404533Y-102486633D01*
X119571200Y-102486633D01*
X119637866Y-102519966D01*
X119671200Y-102553300D01*
X119704533Y-102619966D01*
X119704533Y-102786633D01*
X119671200Y-102853300D01*
X119637866Y-102886633D01*
X119571200Y-102919966D01*
X119404533Y-102919966D01*
X119337866Y-102886633D01*
X119304533Y-102853300D01*
X119806300Y-112657700D02*
X119772966Y-112691033D01*
X119672966Y-112724366D01*
X119606300Y-112724366D01*
X119506300Y-112691033D01*
X119439633Y-112624366D01*
X119406300Y-112557700D01*
X119372966Y-112424366D01*
X119372966Y-112324366D01*
X119406300Y-112191033D01*
X119439633Y-112124366D01*
X119506300Y-112057700D01*
X119606300Y-112024366D01*
X119672966Y-112024366D01*
X119772966Y-112057700D01*
X119806300Y-112091033D01*
X120472966Y-112724366D02*
X120072966Y-112724366D01*
X120272966Y-112724366D02*
X120272966Y-112024366D01*
X120206300Y-112124366D01*
X120139633Y-112191033D01*
X120072966Y-112224366D01*
X121072966Y-112024366D02*
X120939633Y-112024366D01*
X120872966Y-112057700D01*
X120839633Y-112091033D01*
X120772966Y-112191033D01*
X120739633Y-112324366D01*
X120739633Y-112591033D01*
X120772966Y-112657700D01*
X120806300Y-112691033D01*
X120872966Y-112724366D01*
X121006300Y-112724366D01*
X121072966Y-112691033D01*
X121106300Y-112657700D01*
X121139633Y-112591033D01*
X121139633Y-112424366D01*
X121106300Y-112357700D01*
X121072966Y-112324366D01*
X121006300Y-112291033D01*
X120872966Y-112291033D01*
X120806300Y-112324366D01*
X120772966Y-112357700D01*
X120739633Y-112424366D01*
X124613200Y-107555433D02*
X124613200Y-107788766D01*
X124979866Y-107788766D02*
X124279866Y-107788766D01*
X124279866Y-107455433D01*
X124613200Y-106955433D02*
X124646533Y-106855433D01*
X124679866Y-106822100D01*
X124746533Y-106788766D01*
X124846533Y-106788766D01*
X124913200Y-106822100D01*
X124946533Y-106855433D01*
X124979866Y-106922100D01*
X124979866Y-107188766D01*
X124279866Y-107188766D01*
X124279866Y-106955433D01*
X124313200Y-106888766D01*
X124346533Y-106855433D01*
X124413200Y-106822100D01*
X124479866Y-106822100D01*
X124546533Y-106855433D01*
X124579866Y-106888766D01*
X124613200Y-106955433D01*
X124613200Y-107188766D01*
X124979866Y-106122100D02*
X124979866Y-106522100D01*
X124979866Y-106322100D02*
X124279866Y-106322100D01*
X124379866Y-106388766D01*
X124446533Y-106455433D01*
X124479866Y-106522100D01*
X183713466Y-102270766D02*
X183713466Y-102770766D01*
X183680133Y-102870766D01*
X183613466Y-102937433D01*
X183513466Y-102970766D01*
X183446800Y-102970766D01*
X184146800Y-102570766D02*
X184080133Y-102537433D01*
X184046800Y-102504100D01*
X184013466Y-102437433D01*
X184013466Y-102404100D01*
X184046800Y-102337433D01*
X184080133Y-102304100D01*
X184146800Y-102270766D01*
X184280133Y-102270766D01*
X184346800Y-102304100D01*
X184380133Y-102337433D01*
X184413466Y-102404100D01*
X184413466Y-102437433D01*
X184380133Y-102504100D01*
X184346800Y-102537433D01*
X184280133Y-102570766D01*
X184146800Y-102570766D01*
X184080133Y-102604100D01*
X184046800Y-102637433D01*
X184013466Y-102704100D01*
X184013466Y-102837433D01*
X184046800Y-102904100D01*
X184080133Y-102937433D01*
X184146800Y-102970766D01*
X184280133Y-102970766D01*
X184346800Y-102937433D01*
X184380133Y-102904100D01*
X184413466Y-102837433D01*
X184413466Y-102704100D01*
X184380133Y-102637433D01*
X184346800Y-102604100D01*
X184280133Y-102570766D01*
X136786966Y-83030266D02*
X136786966Y-83530266D01*
X136753633Y-83630266D01*
X136686966Y-83696933D01*
X136586966Y-83730266D01*
X136520300Y-83730266D01*
X137153633Y-83730266D02*
X137286966Y-83730266D01*
X137353633Y-83696933D01*
X137386966Y-83663600D01*
X137453633Y-83563600D01*
X137486966Y-83430266D01*
X137486966Y-83163600D01*
X137453633Y-83096933D01*
X137420300Y-83063600D01*
X137353633Y-83030266D01*
X137220300Y-83030266D01*
X137153633Y-83063600D01*
X137120300Y-83096933D01*
X137086966Y-83163600D01*
X137086966Y-83330266D01*
X137120300Y-83396933D01*
X137153633Y-83430266D01*
X137220300Y-83463600D01*
X137353633Y-83463600D01*
X137420300Y-83430266D01*
X137453633Y-83396933D01*
X137486966Y-83330266D01*
X122197033Y-110907266D02*
X121963700Y-110573933D01*
X121797033Y-110907266D02*
X121797033Y-110207266D01*
X122063700Y-110207266D01*
X122130366Y-110240600D01*
X122163700Y-110273933D01*
X122197033Y-110340600D01*
X122197033Y-110440600D01*
X122163700Y-110507266D01*
X122130366Y-110540600D01*
X122063700Y-110573933D01*
X121797033Y-110573933D01*
X122863700Y-110907266D02*
X122463700Y-110907266D01*
X122663700Y-110907266D02*
X122663700Y-110207266D01*
X122597033Y-110307266D01*
X122530366Y-110373933D01*
X122463700Y-110407266D01*
X137602166Y-78544666D02*
X138102166Y-78544666D01*
X138202166Y-78578000D01*
X138268833Y-78644666D01*
X138302166Y-78744666D01*
X138302166Y-78811333D01*
X138302166Y-77844666D02*
X138302166Y-78244666D01*
X138302166Y-78044666D02*
X137602166Y-78044666D01*
X137702166Y-78111333D01*
X137768833Y-78178000D01*
X137802166Y-78244666D01*
X138302166Y-77178000D02*
X138302166Y-77578000D01*
X138302166Y-77378000D02*
X137602166Y-77378000D01*
X137702166Y-77444666D01*
X137768833Y-77511333D01*
X137802166Y-77578000D01*
D12*
X112776095Y-108414780D02*
X112776095Y-109224304D01*
X112823714Y-109319542D01*
X112871333Y-109367161D01*
X112966571Y-109414780D01*
X113157047Y-109414780D01*
X113252285Y-109367161D01*
X113299904Y-109319542D01*
X113347523Y-109224304D01*
X113347523Y-108414780D01*
X114252285Y-108414780D02*
X114061809Y-108414780D01*
X113966571Y-108462400D01*
X113918952Y-108510019D01*
X113823714Y-108652876D01*
X113776095Y-108843352D01*
X113776095Y-109224304D01*
X113823714Y-109319542D01*
X113871333Y-109367161D01*
X113966571Y-109414780D01*
X114157047Y-109414780D01*
X114252285Y-109367161D01*
X114299904Y-109319542D01*
X114347523Y-109224304D01*
X114347523Y-108986209D01*
X114299904Y-108890971D01*
X114252285Y-108843352D01*
X114157047Y-108795733D01*
X113966571Y-108795733D01*
X113871333Y-108843352D01*
X113823714Y-108890971D01*
X113776095Y-108986209D01*
M02*
