M48
; DRILL file {KiCad (5.1.2)-1} date 2020-09-11 16:18:22
; FORMAT={-:-/ absolute / metric / decimal}
; #@! TF.CreationDate,2020-09-11T16:18:22+02:00
; #@! TF.GenerationSoftware,Kicad,Pcbnew,(5.1.2)-1
; #@! TF.FileFunction,Plated,1,4,PTH
FMAT,2
METRIC
T1C0.300
T2C0.400
T3C0.650
T4C0.800
T5C0.890
T6C1.000
T7C1.016
T8C1.500
T9C1.600
T10C2.010
T11C2.700
%
G90
G05
T1
X91.796Y-72.441
X93.726Y-69.596
X105.105Y-50.444
X105.105Y-52.984
X107.645Y-50.444
X107.645Y-52.984
X110.185Y-50.444
X110.185Y-52.984
X114.605Y-70.307
X114.605Y-72.847
X115.265Y-92.354
X115.265Y-94.894
X116.383Y-114.91
X116.383Y-117.45
X116.383Y-135.89
X116.383Y-138.43
X117.145Y-70.307
X117.145Y-72.847
X117.805Y-92.354
X117.805Y-94.894
X118.923Y-114.91
X118.923Y-117.45
X118.923Y-135.89
X118.923Y-138.43
X119.685Y-70.307
X119.685Y-72.847
X120.345Y-92.354
X120.345Y-94.894
X121.463Y-114.91
X121.463Y-117.45
X121.463Y-135.89
X121.463Y-138.43
X124.333Y-60.96
X124.333Y-83.058
X124.333Y-105.029
X124.333Y-127.0
X127.307Y-60.374
X127.307Y-82.37
X127.341Y-104.346
X127.341Y-126.343
X128.016Y-82.906
X128.028Y-60.845
X128.028Y-104.889
X128.028Y-126.885
X128.422Y-58.928
X128.422Y-80.924
X128.422Y-102.972
X128.422Y-124.968
X129.261Y-62.763
X129.261Y-84.76
X129.261Y-106.807
X129.261Y-128.803
X138.957Y-66.148
X138.957Y-88.158
X138.957Y-110.168
X138.957Y-132.178
X140.208Y-64.77
X140.335Y-85.979
X140.462Y-130.175
X140.589Y-108.331
X141.592Y-76.898
X141.592Y-98.717
X141.592Y-120.739
X143.256Y-115.672
X143.256Y-118.212
X143.358Y-92.913
X143.358Y-95.453
X144.399Y-100.838
X144.526Y-79.375
X144.653Y-57.404
X145.542Y-66.802
X145.542Y-69.748
X145.542Y-74.828
X145.542Y-123.698
X145.669Y-88.011
X145.796Y-115.672
X145.796Y-118.212
X145.796Y-132.207
X145.898Y-92.913
X145.898Y-95.453
X145.923Y-110.363
X146.978Y-59.789
X146.978Y-81.799
X146.978Y-103.809
X146.978Y-125.819
X148.082Y-69.748
X148.082Y-74.828
X148.336Y-115.672
X148.336Y-118.212
X148.438Y-92.913
X148.438Y-95.453
X149.987Y-59.436
X150.089Y-64.907
X150.089Y-86.917
X150.089Y-108.927
X150.089Y-130.937
X150.114Y-81.407
X150.495Y-103.124
X150.876Y-125.73
X153.137Y-67.615
X153.797Y-88.341
X153.899Y-132.41
X153.924Y-110.338
X154.889Y-137.77
X154.889Y-140.31
X155.092Y-51.206
X155.092Y-53.746
X156.464Y-128.016
X156.591Y-61.722
X156.591Y-83.82
X156.591Y-105.918
X157.429Y-137.77
X157.429Y-140.31
X157.632Y-51.206
X157.632Y-53.746
X159.969Y-137.77
X159.969Y-140.31
X160.172Y-51.206
X160.172Y-53.746
X160.172Y-96.368
X160.172Y-98.908
X160.477Y-118.516
X160.477Y-121.056
X161.671Y-64.77
X161.671Y-109.474
X161.671Y-131.191
X161.925Y-86.995
X162.712Y-74.066
X162.712Y-76.606
X162.712Y-96.368
X162.712Y-98.908
X163.017Y-118.516
X163.017Y-121.056
X163.932Y-89.242
X163.932Y-111.252
X163.932Y-133.262
X164.592Y-54.508
X165.252Y-74.066
X165.252Y-76.606
X165.252Y-96.368
X165.252Y-98.908
X165.557Y-118.516
X165.557Y-121.056
X167.792Y-74.066
X167.792Y-76.606
X176.276Y-48.006
X176.276Y-50.546
X178.816Y-48.006
X178.816Y-50.546
X180.836Y-75.019
X181.356Y-48.006
X181.356Y-50.546
X185.115Y-104.089
X185.115Y-106.629
X185.115Y-109.169
X185.166Y-87.224
X185.166Y-89.764
X185.166Y-92.304
X185.166Y-122.022
X185.166Y-124.562
X185.166Y-127.102
X185.623Y-76.352
X185.623Y-78.892
X187.655Y-104.089
X187.655Y-106.629
X187.655Y-109.169
X187.706Y-87.224
X187.706Y-89.764
X187.706Y-92.304
X187.706Y-122.022
X187.706Y-124.562
X187.706Y-127.102
X188.163Y-76.352
X188.163Y-78.892
X190.703Y-76.352
X190.703Y-78.892
X193.7Y-84.379
X194.107Y-67.564
X196.748Y-59.741
X196.85Y-62.941
X199.085Y-84.531
X199.085Y-85.801
X199.085Y-87.071
X199.238Y-79.045
X199.238Y-81.585
X200.355Y-84.531
X200.355Y-85.801
X200.355Y-87.071
X201.778Y-79.045
X201.778Y-81.585
X204.318Y-79.045
X204.318Y-81.585
X207.829Y-61.97
X210.04Y-59.494
X210.261Y-81.585
X214.694Y-49.466
X218.592Y-52.846
X219.011Y-79.057
X219.291Y-74.231
X219.456Y-69.977
X219.583Y-62.992
X220.2Y-57.691
X221.062Y-74.587
X221.894Y-57.861
X221.996Y-62.103
X223.266Y-65.659
X223.664Y-88.548
X223.946Y-66.751
X225.246Y-68.377
X225.615Y-92.202
X226.758Y-84.391
X228.028Y-85.598
X231.73Y-90.443
X234.251Y-70.358
X236.042Y-138.024
X236.042Y-140.564
X238.582Y-138.024
X238.582Y-140.564
X240.03Y-48.323
X241.122Y-138.024
X241.122Y-140.564
X248.158Y-92.265
X201.138Y-60.705
X201.138Y-62.205
X201.638Y-61.455
X202.138Y-60.705
X202.138Y-62.205
T2
X206.045Y-86.97
X210.96Y-52.121
X211.836Y-70.777
X237.452Y-85.496
T3
X233.489Y-61.277
X234.76Y-61.277
X233.489Y-64.453
X234.76Y-64.453
X233.489Y-67.691
X234.76Y-67.691
X233.502Y-58.052
X234.772Y-58.052
T4
X142.392Y-52.248
X142.392Y-54.248
X158.115Y-73.667
X158.115Y-75.667
T5
X102.743Y-83.857
X102.743Y-86.397
X102.743Y-62.857
X102.743Y-65.397
X102.743Y-104.857
X102.743Y-107.397
X102.743Y-125.857
X102.743Y-128.397
T6
X239.598Y-55.626
X239.598Y-58.166
X239.598Y-60.706
X239.598Y-63.246
X239.598Y-65.786
X239.598Y-68.326
X239.598Y-70.866
X239.598Y-73.406
X239.598Y-75.946
X239.598Y-78.486
X239.598Y-81.026
X239.598Y-83.566
X239.598Y-86.106
X239.598Y-88.646
X239.598Y-91.186
X239.598Y-93.726
X239.598Y-96.266
X239.598Y-98.806
X239.598Y-101.346
X239.598Y-103.886
X239.598Y-106.426
X239.598Y-108.966
X239.598Y-111.506
X239.598Y-114.046
X239.598Y-116.586
X239.598Y-119.126
X239.598Y-121.666
X239.598Y-124.206
X239.598Y-126.746
X239.598Y-129.286
X239.598Y-131.826
X239.598Y-134.366
X244.678Y-55.626
X244.678Y-58.166
X244.678Y-60.706
X244.678Y-63.246
X244.678Y-65.786
X244.678Y-68.326
X244.678Y-70.866
X244.678Y-73.406
X244.678Y-75.946
X244.678Y-78.486
X244.678Y-81.026
X244.678Y-83.566
X244.678Y-86.106
X244.678Y-88.646
X244.678Y-91.186
X244.678Y-93.726
X244.678Y-96.266
X244.678Y-98.806
X244.678Y-101.346
X244.678Y-103.886
X244.678Y-106.426
X244.678Y-108.966
X244.678Y-111.506
X244.678Y-114.046
X244.678Y-116.586
X244.678Y-119.126
X244.678Y-121.666
X244.678Y-124.206
X244.678Y-126.746
X244.678Y-129.286
X244.678Y-131.826
X244.678Y-134.366
T7
X229.489Y-105.283
X229.489Y-107.823
X229.489Y-110.363
X232.029Y-105.283
X232.029Y-107.823
X232.029Y-110.363
X226.238Y-60.528
X226.238Y-63.068
X226.238Y-65.608
X228.778Y-60.528
X228.778Y-63.068
X228.778Y-65.608
T8
X175.233Y-58.482
X175.233Y-102.502
X175.033Y-134.568
X175.233Y-68.388
X175.233Y-90.398
X175.033Y-124.662
X175.233Y-80.492
X175.233Y-112.408
X187.095Y-137.822
T9
X172.593Y-122.047
X172.593Y-127.127
X177.673Y-122.047
X177.673Y-127.127
X172.593Y-78.027
X172.593Y-83.107
X177.673Y-78.027
X177.673Y-83.107
X172.593Y-109.943
X172.593Y-115.023
X177.673Y-109.943
X177.673Y-115.023
X184.455Y-135.357
X184.455Y-140.437
X189.535Y-135.357
X189.535Y-140.437
X172.593Y-56.017
X172.593Y-61.097
X177.673Y-56.017
X177.673Y-61.097
X172.593Y-100.037
X172.593Y-105.117
X177.673Y-100.037
X177.673Y-105.117
X172.593Y-131.953
X172.593Y-137.033
X177.673Y-131.953
X177.673Y-137.033
X172.593Y-65.923
X172.593Y-71.003
X177.673Y-65.923
X177.673Y-71.003
X172.593Y-87.933
X172.593Y-93.013
X177.673Y-87.933
X177.673Y-93.013
T10
X97.663Y-120.777
X97.663Y-130.937
X97.663Y-78.777
X97.663Y-88.937
X97.663Y-57.777
X97.663Y-67.937
X97.663Y-99.777
X97.663Y-109.937
T11
X93.57Y-139.425
X93.75Y-50.475
T0
M30
