G04 #@! TF.GenerationSoftware,KiCad,Pcbnew,(5.1.2)-1*
G04 #@! TF.CreationDate,2020-09-11T16:18:24+02:00*
G04 #@! TF.ProjectId,AFE_1CH_2V0,4146455f-3143-4485-9f32-56302e6b6963,3.1*
G04 #@! TF.SameCoordinates,Original*
G04 #@! TF.FileFunction,Paste,Bot*
G04 #@! TF.FilePolarity,Positive*
%FSLAX46Y46*%
G04 Gerber Fmt 4.6, Leading zero omitted, Abs format (unit mm)*
G04 Created by KiCad (PCBNEW (5.1.2)-1) date 2020-09-11 16:18:24*
%MOMM*%
%LPD*%
G04 APERTURE LIST*
%ADD10C,0.100000*%
%ADD11C,0.600000*%
%ADD12C,0.970000*%
%ADD13C,0.975000*%
%ADD14C,0.875000*%
%ADD15C,1.250000*%
%ADD16R,0.900000X0.800000*%
%ADD17R,0.330200X1.512799*%
%ADD18R,0.400000X0.650000*%
%ADD19R,2.184400X0.558800*%
%ADD20R,2.286000X2.286000*%
G04 APERTURE END LIST*
D10*
G36*
X202994303Y-87411722D02*
G01*
X203008864Y-87413882D01*
X203023143Y-87417459D01*
X203037003Y-87422418D01*
X203050310Y-87428712D01*
X203062936Y-87436280D01*
X203074759Y-87445048D01*
X203085666Y-87454934D01*
X203095552Y-87465841D01*
X203104320Y-87477664D01*
X203111888Y-87490290D01*
X203118182Y-87503597D01*
X203123141Y-87517457D01*
X203126718Y-87531736D01*
X203128878Y-87546297D01*
X203129600Y-87561000D01*
X203129600Y-87861000D01*
X203128878Y-87875703D01*
X203126718Y-87890264D01*
X203123141Y-87904543D01*
X203118182Y-87918403D01*
X203111888Y-87931710D01*
X203104320Y-87944336D01*
X203095552Y-87956159D01*
X203085666Y-87967066D01*
X203074759Y-87976952D01*
X203062936Y-87985720D01*
X203050310Y-87993288D01*
X203037003Y-87999582D01*
X203023143Y-88004541D01*
X203008864Y-88008118D01*
X202994303Y-88010278D01*
X202979600Y-88011000D01*
X201329600Y-88011000D01*
X201314897Y-88010278D01*
X201300336Y-88008118D01*
X201286057Y-88004541D01*
X201272197Y-87999582D01*
X201258890Y-87993288D01*
X201246264Y-87985720D01*
X201234441Y-87976952D01*
X201223534Y-87967066D01*
X201213648Y-87956159D01*
X201204880Y-87944336D01*
X201197312Y-87931710D01*
X201191018Y-87918403D01*
X201186059Y-87904543D01*
X201182482Y-87890264D01*
X201180322Y-87875703D01*
X201179600Y-87861000D01*
X201179600Y-87561000D01*
X201180322Y-87546297D01*
X201182482Y-87531736D01*
X201186059Y-87517457D01*
X201191018Y-87503597D01*
X201197312Y-87490290D01*
X201204880Y-87477664D01*
X201213648Y-87465841D01*
X201223534Y-87454934D01*
X201234441Y-87445048D01*
X201246264Y-87436280D01*
X201258890Y-87428712D01*
X201272197Y-87422418D01*
X201286057Y-87417459D01*
X201300336Y-87413882D01*
X201314897Y-87411722D01*
X201329600Y-87411000D01*
X202979600Y-87411000D01*
X202994303Y-87411722D01*
X202994303Y-87411722D01*
G37*
D11*
X202154600Y-87711000D03*
D10*
G36*
X202994303Y-86141722D02*
G01*
X203008864Y-86143882D01*
X203023143Y-86147459D01*
X203037003Y-86152418D01*
X203050310Y-86158712D01*
X203062936Y-86166280D01*
X203074759Y-86175048D01*
X203085666Y-86184934D01*
X203095552Y-86195841D01*
X203104320Y-86207664D01*
X203111888Y-86220290D01*
X203118182Y-86233597D01*
X203123141Y-86247457D01*
X203126718Y-86261736D01*
X203128878Y-86276297D01*
X203129600Y-86291000D01*
X203129600Y-86591000D01*
X203128878Y-86605703D01*
X203126718Y-86620264D01*
X203123141Y-86634543D01*
X203118182Y-86648403D01*
X203111888Y-86661710D01*
X203104320Y-86674336D01*
X203095552Y-86686159D01*
X203085666Y-86697066D01*
X203074759Y-86706952D01*
X203062936Y-86715720D01*
X203050310Y-86723288D01*
X203037003Y-86729582D01*
X203023143Y-86734541D01*
X203008864Y-86738118D01*
X202994303Y-86740278D01*
X202979600Y-86741000D01*
X201329600Y-86741000D01*
X201314897Y-86740278D01*
X201300336Y-86738118D01*
X201286057Y-86734541D01*
X201272197Y-86729582D01*
X201258890Y-86723288D01*
X201246264Y-86715720D01*
X201234441Y-86706952D01*
X201223534Y-86697066D01*
X201213648Y-86686159D01*
X201204880Y-86674336D01*
X201197312Y-86661710D01*
X201191018Y-86648403D01*
X201186059Y-86634543D01*
X201182482Y-86620264D01*
X201180322Y-86605703D01*
X201179600Y-86591000D01*
X201179600Y-86291000D01*
X201180322Y-86276297D01*
X201182482Y-86261736D01*
X201186059Y-86247457D01*
X201191018Y-86233597D01*
X201197312Y-86220290D01*
X201204880Y-86207664D01*
X201213648Y-86195841D01*
X201223534Y-86184934D01*
X201234441Y-86175048D01*
X201246264Y-86166280D01*
X201258890Y-86158712D01*
X201272197Y-86152418D01*
X201286057Y-86147459D01*
X201300336Y-86143882D01*
X201314897Y-86141722D01*
X201329600Y-86141000D01*
X202979600Y-86141000D01*
X202994303Y-86141722D01*
X202994303Y-86141722D01*
G37*
D11*
X202154600Y-86441000D03*
D10*
G36*
X202994303Y-84871722D02*
G01*
X203008864Y-84873882D01*
X203023143Y-84877459D01*
X203037003Y-84882418D01*
X203050310Y-84888712D01*
X203062936Y-84896280D01*
X203074759Y-84905048D01*
X203085666Y-84914934D01*
X203095552Y-84925841D01*
X203104320Y-84937664D01*
X203111888Y-84950290D01*
X203118182Y-84963597D01*
X203123141Y-84977457D01*
X203126718Y-84991736D01*
X203128878Y-85006297D01*
X203129600Y-85021000D01*
X203129600Y-85321000D01*
X203128878Y-85335703D01*
X203126718Y-85350264D01*
X203123141Y-85364543D01*
X203118182Y-85378403D01*
X203111888Y-85391710D01*
X203104320Y-85404336D01*
X203095552Y-85416159D01*
X203085666Y-85427066D01*
X203074759Y-85436952D01*
X203062936Y-85445720D01*
X203050310Y-85453288D01*
X203037003Y-85459582D01*
X203023143Y-85464541D01*
X203008864Y-85468118D01*
X202994303Y-85470278D01*
X202979600Y-85471000D01*
X201329600Y-85471000D01*
X201314897Y-85470278D01*
X201300336Y-85468118D01*
X201286057Y-85464541D01*
X201272197Y-85459582D01*
X201258890Y-85453288D01*
X201246264Y-85445720D01*
X201234441Y-85436952D01*
X201223534Y-85427066D01*
X201213648Y-85416159D01*
X201204880Y-85404336D01*
X201197312Y-85391710D01*
X201191018Y-85378403D01*
X201186059Y-85364543D01*
X201182482Y-85350264D01*
X201180322Y-85335703D01*
X201179600Y-85321000D01*
X201179600Y-85021000D01*
X201180322Y-85006297D01*
X201182482Y-84991736D01*
X201186059Y-84977457D01*
X201191018Y-84963597D01*
X201197312Y-84950290D01*
X201204880Y-84937664D01*
X201213648Y-84925841D01*
X201223534Y-84914934D01*
X201234441Y-84905048D01*
X201246264Y-84896280D01*
X201258890Y-84888712D01*
X201272197Y-84882418D01*
X201286057Y-84877459D01*
X201300336Y-84873882D01*
X201314897Y-84871722D01*
X201329600Y-84871000D01*
X202979600Y-84871000D01*
X202994303Y-84871722D01*
X202994303Y-84871722D01*
G37*
D11*
X202154600Y-85171000D03*
D10*
G36*
X202994303Y-83601722D02*
G01*
X203008864Y-83603882D01*
X203023143Y-83607459D01*
X203037003Y-83612418D01*
X203050310Y-83618712D01*
X203062936Y-83626280D01*
X203074759Y-83635048D01*
X203085666Y-83644934D01*
X203095552Y-83655841D01*
X203104320Y-83667664D01*
X203111888Y-83680290D01*
X203118182Y-83693597D01*
X203123141Y-83707457D01*
X203126718Y-83721736D01*
X203128878Y-83736297D01*
X203129600Y-83751000D01*
X203129600Y-84051000D01*
X203128878Y-84065703D01*
X203126718Y-84080264D01*
X203123141Y-84094543D01*
X203118182Y-84108403D01*
X203111888Y-84121710D01*
X203104320Y-84134336D01*
X203095552Y-84146159D01*
X203085666Y-84157066D01*
X203074759Y-84166952D01*
X203062936Y-84175720D01*
X203050310Y-84183288D01*
X203037003Y-84189582D01*
X203023143Y-84194541D01*
X203008864Y-84198118D01*
X202994303Y-84200278D01*
X202979600Y-84201000D01*
X201329600Y-84201000D01*
X201314897Y-84200278D01*
X201300336Y-84198118D01*
X201286057Y-84194541D01*
X201272197Y-84189582D01*
X201258890Y-84183288D01*
X201246264Y-84175720D01*
X201234441Y-84166952D01*
X201223534Y-84157066D01*
X201213648Y-84146159D01*
X201204880Y-84134336D01*
X201197312Y-84121710D01*
X201191018Y-84108403D01*
X201186059Y-84094543D01*
X201182482Y-84080264D01*
X201180322Y-84065703D01*
X201179600Y-84051000D01*
X201179600Y-83751000D01*
X201180322Y-83736297D01*
X201182482Y-83721736D01*
X201186059Y-83707457D01*
X201191018Y-83693597D01*
X201197312Y-83680290D01*
X201204880Y-83667664D01*
X201213648Y-83655841D01*
X201223534Y-83644934D01*
X201234441Y-83635048D01*
X201246264Y-83626280D01*
X201258890Y-83618712D01*
X201272197Y-83612418D01*
X201286057Y-83607459D01*
X201300336Y-83603882D01*
X201314897Y-83601722D01*
X201329600Y-83601000D01*
X202979600Y-83601000D01*
X202994303Y-83601722D01*
X202994303Y-83601722D01*
G37*
D11*
X202154600Y-83901000D03*
D10*
G36*
X198044303Y-83601722D02*
G01*
X198058864Y-83603882D01*
X198073143Y-83607459D01*
X198087003Y-83612418D01*
X198100310Y-83618712D01*
X198112936Y-83626280D01*
X198124759Y-83635048D01*
X198135666Y-83644934D01*
X198145552Y-83655841D01*
X198154320Y-83667664D01*
X198161888Y-83680290D01*
X198168182Y-83693597D01*
X198173141Y-83707457D01*
X198176718Y-83721736D01*
X198178878Y-83736297D01*
X198179600Y-83751000D01*
X198179600Y-84051000D01*
X198178878Y-84065703D01*
X198176718Y-84080264D01*
X198173141Y-84094543D01*
X198168182Y-84108403D01*
X198161888Y-84121710D01*
X198154320Y-84134336D01*
X198145552Y-84146159D01*
X198135666Y-84157066D01*
X198124759Y-84166952D01*
X198112936Y-84175720D01*
X198100310Y-84183288D01*
X198087003Y-84189582D01*
X198073143Y-84194541D01*
X198058864Y-84198118D01*
X198044303Y-84200278D01*
X198029600Y-84201000D01*
X196379600Y-84201000D01*
X196364897Y-84200278D01*
X196350336Y-84198118D01*
X196336057Y-84194541D01*
X196322197Y-84189582D01*
X196308890Y-84183288D01*
X196296264Y-84175720D01*
X196284441Y-84166952D01*
X196273534Y-84157066D01*
X196263648Y-84146159D01*
X196254880Y-84134336D01*
X196247312Y-84121710D01*
X196241018Y-84108403D01*
X196236059Y-84094543D01*
X196232482Y-84080264D01*
X196230322Y-84065703D01*
X196229600Y-84051000D01*
X196229600Y-83751000D01*
X196230322Y-83736297D01*
X196232482Y-83721736D01*
X196236059Y-83707457D01*
X196241018Y-83693597D01*
X196247312Y-83680290D01*
X196254880Y-83667664D01*
X196263648Y-83655841D01*
X196273534Y-83644934D01*
X196284441Y-83635048D01*
X196296264Y-83626280D01*
X196308890Y-83618712D01*
X196322197Y-83612418D01*
X196336057Y-83607459D01*
X196350336Y-83603882D01*
X196364897Y-83601722D01*
X196379600Y-83601000D01*
X198029600Y-83601000D01*
X198044303Y-83601722D01*
X198044303Y-83601722D01*
G37*
D11*
X197204600Y-83901000D03*
D10*
G36*
X198044303Y-84871722D02*
G01*
X198058864Y-84873882D01*
X198073143Y-84877459D01*
X198087003Y-84882418D01*
X198100310Y-84888712D01*
X198112936Y-84896280D01*
X198124759Y-84905048D01*
X198135666Y-84914934D01*
X198145552Y-84925841D01*
X198154320Y-84937664D01*
X198161888Y-84950290D01*
X198168182Y-84963597D01*
X198173141Y-84977457D01*
X198176718Y-84991736D01*
X198178878Y-85006297D01*
X198179600Y-85021000D01*
X198179600Y-85321000D01*
X198178878Y-85335703D01*
X198176718Y-85350264D01*
X198173141Y-85364543D01*
X198168182Y-85378403D01*
X198161888Y-85391710D01*
X198154320Y-85404336D01*
X198145552Y-85416159D01*
X198135666Y-85427066D01*
X198124759Y-85436952D01*
X198112936Y-85445720D01*
X198100310Y-85453288D01*
X198087003Y-85459582D01*
X198073143Y-85464541D01*
X198058864Y-85468118D01*
X198044303Y-85470278D01*
X198029600Y-85471000D01*
X196379600Y-85471000D01*
X196364897Y-85470278D01*
X196350336Y-85468118D01*
X196336057Y-85464541D01*
X196322197Y-85459582D01*
X196308890Y-85453288D01*
X196296264Y-85445720D01*
X196284441Y-85436952D01*
X196273534Y-85427066D01*
X196263648Y-85416159D01*
X196254880Y-85404336D01*
X196247312Y-85391710D01*
X196241018Y-85378403D01*
X196236059Y-85364543D01*
X196232482Y-85350264D01*
X196230322Y-85335703D01*
X196229600Y-85321000D01*
X196229600Y-85021000D01*
X196230322Y-85006297D01*
X196232482Y-84991736D01*
X196236059Y-84977457D01*
X196241018Y-84963597D01*
X196247312Y-84950290D01*
X196254880Y-84937664D01*
X196263648Y-84925841D01*
X196273534Y-84914934D01*
X196284441Y-84905048D01*
X196296264Y-84896280D01*
X196308890Y-84888712D01*
X196322197Y-84882418D01*
X196336057Y-84877459D01*
X196350336Y-84873882D01*
X196364897Y-84871722D01*
X196379600Y-84871000D01*
X198029600Y-84871000D01*
X198044303Y-84871722D01*
X198044303Y-84871722D01*
G37*
D11*
X197204600Y-85171000D03*
D10*
G36*
X198044303Y-86141722D02*
G01*
X198058864Y-86143882D01*
X198073143Y-86147459D01*
X198087003Y-86152418D01*
X198100310Y-86158712D01*
X198112936Y-86166280D01*
X198124759Y-86175048D01*
X198135666Y-86184934D01*
X198145552Y-86195841D01*
X198154320Y-86207664D01*
X198161888Y-86220290D01*
X198168182Y-86233597D01*
X198173141Y-86247457D01*
X198176718Y-86261736D01*
X198178878Y-86276297D01*
X198179600Y-86291000D01*
X198179600Y-86591000D01*
X198178878Y-86605703D01*
X198176718Y-86620264D01*
X198173141Y-86634543D01*
X198168182Y-86648403D01*
X198161888Y-86661710D01*
X198154320Y-86674336D01*
X198145552Y-86686159D01*
X198135666Y-86697066D01*
X198124759Y-86706952D01*
X198112936Y-86715720D01*
X198100310Y-86723288D01*
X198087003Y-86729582D01*
X198073143Y-86734541D01*
X198058864Y-86738118D01*
X198044303Y-86740278D01*
X198029600Y-86741000D01*
X196379600Y-86741000D01*
X196364897Y-86740278D01*
X196350336Y-86738118D01*
X196336057Y-86734541D01*
X196322197Y-86729582D01*
X196308890Y-86723288D01*
X196296264Y-86715720D01*
X196284441Y-86706952D01*
X196273534Y-86697066D01*
X196263648Y-86686159D01*
X196254880Y-86674336D01*
X196247312Y-86661710D01*
X196241018Y-86648403D01*
X196236059Y-86634543D01*
X196232482Y-86620264D01*
X196230322Y-86605703D01*
X196229600Y-86591000D01*
X196229600Y-86291000D01*
X196230322Y-86276297D01*
X196232482Y-86261736D01*
X196236059Y-86247457D01*
X196241018Y-86233597D01*
X196247312Y-86220290D01*
X196254880Y-86207664D01*
X196263648Y-86195841D01*
X196273534Y-86184934D01*
X196284441Y-86175048D01*
X196296264Y-86166280D01*
X196308890Y-86158712D01*
X196322197Y-86152418D01*
X196336057Y-86147459D01*
X196350336Y-86143882D01*
X196364897Y-86141722D01*
X196379600Y-86141000D01*
X198029600Y-86141000D01*
X198044303Y-86141722D01*
X198044303Y-86141722D01*
G37*
D11*
X197204600Y-86441000D03*
D10*
G36*
X198044303Y-87411722D02*
G01*
X198058864Y-87413882D01*
X198073143Y-87417459D01*
X198087003Y-87422418D01*
X198100310Y-87428712D01*
X198112936Y-87436280D01*
X198124759Y-87445048D01*
X198135666Y-87454934D01*
X198145552Y-87465841D01*
X198154320Y-87477664D01*
X198161888Y-87490290D01*
X198168182Y-87503597D01*
X198173141Y-87517457D01*
X198176718Y-87531736D01*
X198178878Y-87546297D01*
X198179600Y-87561000D01*
X198179600Y-87861000D01*
X198178878Y-87875703D01*
X198176718Y-87890264D01*
X198173141Y-87904543D01*
X198168182Y-87918403D01*
X198161888Y-87931710D01*
X198154320Y-87944336D01*
X198145552Y-87956159D01*
X198135666Y-87967066D01*
X198124759Y-87976952D01*
X198112936Y-87985720D01*
X198100310Y-87993288D01*
X198087003Y-87999582D01*
X198073143Y-88004541D01*
X198058864Y-88008118D01*
X198044303Y-88010278D01*
X198029600Y-88011000D01*
X196379600Y-88011000D01*
X196364897Y-88010278D01*
X196350336Y-88008118D01*
X196336057Y-88004541D01*
X196322197Y-87999582D01*
X196308890Y-87993288D01*
X196296264Y-87985720D01*
X196284441Y-87976952D01*
X196273534Y-87967066D01*
X196263648Y-87956159D01*
X196254880Y-87944336D01*
X196247312Y-87931710D01*
X196241018Y-87918403D01*
X196236059Y-87904543D01*
X196232482Y-87890264D01*
X196230322Y-87875703D01*
X196229600Y-87861000D01*
X196229600Y-87561000D01*
X196230322Y-87546297D01*
X196232482Y-87531736D01*
X196236059Y-87517457D01*
X196241018Y-87503597D01*
X196247312Y-87490290D01*
X196254880Y-87477664D01*
X196263648Y-87465841D01*
X196273534Y-87454934D01*
X196284441Y-87445048D01*
X196296264Y-87436280D01*
X196308890Y-87428712D01*
X196322197Y-87422418D01*
X196336057Y-87417459D01*
X196350336Y-87413882D01*
X196364897Y-87411722D01*
X196379600Y-87411000D01*
X198029600Y-87411000D01*
X198044303Y-87411722D01*
X198044303Y-87411722D01*
G37*
D11*
X197204600Y-87711000D03*
D10*
G36*
X200545869Y-84087168D02*
G01*
X200569409Y-84090660D01*
X200592494Y-84096442D01*
X200614901Y-84104459D01*
X200636414Y-84114634D01*
X200656826Y-84126869D01*
X200675940Y-84141045D01*
X200693573Y-84157027D01*
X200709555Y-84174660D01*
X200723731Y-84193774D01*
X200735966Y-84214186D01*
X200746141Y-84235699D01*
X200754158Y-84258106D01*
X200759940Y-84281191D01*
X200763432Y-84304731D01*
X200764600Y-84328500D01*
X200764600Y-85383500D01*
X200763432Y-85407269D01*
X200759940Y-85430809D01*
X200754158Y-85453894D01*
X200746141Y-85476301D01*
X200735966Y-85497814D01*
X200723731Y-85518226D01*
X200709555Y-85537340D01*
X200693573Y-85554973D01*
X200675940Y-85570955D01*
X200656826Y-85585131D01*
X200636414Y-85597366D01*
X200614901Y-85607541D01*
X200592494Y-85615558D01*
X200569409Y-85621340D01*
X200545869Y-85624832D01*
X200522100Y-85626000D01*
X200037100Y-85626000D01*
X200013331Y-85624832D01*
X199989791Y-85621340D01*
X199966706Y-85615558D01*
X199944299Y-85607541D01*
X199922786Y-85597366D01*
X199902374Y-85585131D01*
X199883260Y-85570955D01*
X199865627Y-85554973D01*
X199849645Y-85537340D01*
X199835469Y-85518226D01*
X199823234Y-85497814D01*
X199813059Y-85476301D01*
X199805042Y-85453894D01*
X199799260Y-85430809D01*
X199795768Y-85407269D01*
X199794600Y-85383500D01*
X199794600Y-84328500D01*
X199795768Y-84304731D01*
X199799260Y-84281191D01*
X199805042Y-84258106D01*
X199813059Y-84235699D01*
X199823234Y-84214186D01*
X199835469Y-84193774D01*
X199849645Y-84174660D01*
X199865627Y-84157027D01*
X199883260Y-84141045D01*
X199902374Y-84126869D01*
X199922786Y-84114634D01*
X199944299Y-84104459D01*
X199966706Y-84096442D01*
X199989791Y-84090660D01*
X200013331Y-84087168D01*
X200037100Y-84086000D01*
X200522100Y-84086000D01*
X200545869Y-84087168D01*
X200545869Y-84087168D01*
G37*
D12*
X200279600Y-84856000D03*
D10*
G36*
X200545869Y-85987168D02*
G01*
X200569409Y-85990660D01*
X200592494Y-85996442D01*
X200614901Y-86004459D01*
X200636414Y-86014634D01*
X200656826Y-86026869D01*
X200675940Y-86041045D01*
X200693573Y-86057027D01*
X200709555Y-86074660D01*
X200723731Y-86093774D01*
X200735966Y-86114186D01*
X200746141Y-86135699D01*
X200754158Y-86158106D01*
X200759940Y-86181191D01*
X200763432Y-86204731D01*
X200764600Y-86228500D01*
X200764600Y-87283500D01*
X200763432Y-87307269D01*
X200759940Y-87330809D01*
X200754158Y-87353894D01*
X200746141Y-87376301D01*
X200735966Y-87397814D01*
X200723731Y-87418226D01*
X200709555Y-87437340D01*
X200693573Y-87454973D01*
X200675940Y-87470955D01*
X200656826Y-87485131D01*
X200636414Y-87497366D01*
X200614901Y-87507541D01*
X200592494Y-87515558D01*
X200569409Y-87521340D01*
X200545869Y-87524832D01*
X200522100Y-87526000D01*
X200037100Y-87526000D01*
X200013331Y-87524832D01*
X199989791Y-87521340D01*
X199966706Y-87515558D01*
X199944299Y-87507541D01*
X199922786Y-87497366D01*
X199902374Y-87485131D01*
X199883260Y-87470955D01*
X199865627Y-87454973D01*
X199849645Y-87437340D01*
X199835469Y-87418226D01*
X199823234Y-87397814D01*
X199813059Y-87376301D01*
X199805042Y-87353894D01*
X199799260Y-87330809D01*
X199795768Y-87307269D01*
X199794600Y-87283500D01*
X199794600Y-86228500D01*
X199795768Y-86204731D01*
X199799260Y-86181191D01*
X199805042Y-86158106D01*
X199813059Y-86135699D01*
X199823234Y-86114186D01*
X199835469Y-86093774D01*
X199849645Y-86074660D01*
X199865627Y-86057027D01*
X199883260Y-86041045D01*
X199902374Y-86026869D01*
X199922786Y-86014634D01*
X199944299Y-86004459D01*
X199966706Y-85996442D01*
X199989791Y-85990660D01*
X200013331Y-85987168D01*
X200037100Y-85986000D01*
X200522100Y-85986000D01*
X200545869Y-85987168D01*
X200545869Y-85987168D01*
G37*
D12*
X200279600Y-86756000D03*
D10*
G36*
X199345869Y-84087168D02*
G01*
X199369409Y-84090660D01*
X199392494Y-84096442D01*
X199414901Y-84104459D01*
X199436414Y-84114634D01*
X199456826Y-84126869D01*
X199475940Y-84141045D01*
X199493573Y-84157027D01*
X199509555Y-84174660D01*
X199523731Y-84193774D01*
X199535966Y-84214186D01*
X199546141Y-84235699D01*
X199554158Y-84258106D01*
X199559940Y-84281191D01*
X199563432Y-84304731D01*
X199564600Y-84328500D01*
X199564600Y-85383500D01*
X199563432Y-85407269D01*
X199559940Y-85430809D01*
X199554158Y-85453894D01*
X199546141Y-85476301D01*
X199535966Y-85497814D01*
X199523731Y-85518226D01*
X199509555Y-85537340D01*
X199493573Y-85554973D01*
X199475940Y-85570955D01*
X199456826Y-85585131D01*
X199436414Y-85597366D01*
X199414901Y-85607541D01*
X199392494Y-85615558D01*
X199369409Y-85621340D01*
X199345869Y-85624832D01*
X199322100Y-85626000D01*
X198837100Y-85626000D01*
X198813331Y-85624832D01*
X198789791Y-85621340D01*
X198766706Y-85615558D01*
X198744299Y-85607541D01*
X198722786Y-85597366D01*
X198702374Y-85585131D01*
X198683260Y-85570955D01*
X198665627Y-85554973D01*
X198649645Y-85537340D01*
X198635469Y-85518226D01*
X198623234Y-85497814D01*
X198613059Y-85476301D01*
X198605042Y-85453894D01*
X198599260Y-85430809D01*
X198595768Y-85407269D01*
X198594600Y-85383500D01*
X198594600Y-84328500D01*
X198595768Y-84304731D01*
X198599260Y-84281191D01*
X198605042Y-84258106D01*
X198613059Y-84235699D01*
X198623234Y-84214186D01*
X198635469Y-84193774D01*
X198649645Y-84174660D01*
X198665627Y-84157027D01*
X198683260Y-84141045D01*
X198702374Y-84126869D01*
X198722786Y-84114634D01*
X198744299Y-84104459D01*
X198766706Y-84096442D01*
X198789791Y-84090660D01*
X198813331Y-84087168D01*
X198837100Y-84086000D01*
X199322100Y-84086000D01*
X199345869Y-84087168D01*
X199345869Y-84087168D01*
G37*
D12*
X199079600Y-84856000D03*
D10*
G36*
X199345869Y-85987168D02*
G01*
X199369409Y-85990660D01*
X199392494Y-85996442D01*
X199414901Y-86004459D01*
X199436414Y-86014634D01*
X199456826Y-86026869D01*
X199475940Y-86041045D01*
X199493573Y-86057027D01*
X199509555Y-86074660D01*
X199523731Y-86093774D01*
X199535966Y-86114186D01*
X199546141Y-86135699D01*
X199554158Y-86158106D01*
X199559940Y-86181191D01*
X199563432Y-86204731D01*
X199564600Y-86228500D01*
X199564600Y-87283500D01*
X199563432Y-87307269D01*
X199559940Y-87330809D01*
X199554158Y-87353894D01*
X199546141Y-87376301D01*
X199535966Y-87397814D01*
X199523731Y-87418226D01*
X199509555Y-87437340D01*
X199493573Y-87454973D01*
X199475940Y-87470955D01*
X199456826Y-87485131D01*
X199436414Y-87497366D01*
X199414901Y-87507541D01*
X199392494Y-87515558D01*
X199369409Y-87521340D01*
X199345869Y-87524832D01*
X199322100Y-87526000D01*
X198837100Y-87526000D01*
X198813331Y-87524832D01*
X198789791Y-87521340D01*
X198766706Y-87515558D01*
X198744299Y-87507541D01*
X198722786Y-87497366D01*
X198702374Y-87485131D01*
X198683260Y-87470955D01*
X198665627Y-87454973D01*
X198649645Y-87437340D01*
X198635469Y-87418226D01*
X198623234Y-87397814D01*
X198613059Y-87376301D01*
X198605042Y-87353894D01*
X198599260Y-87330809D01*
X198595768Y-87307269D01*
X198594600Y-87283500D01*
X198594600Y-86228500D01*
X198595768Y-86204731D01*
X198599260Y-86181191D01*
X198605042Y-86158106D01*
X198613059Y-86135699D01*
X198623234Y-86114186D01*
X198635469Y-86093774D01*
X198649645Y-86074660D01*
X198665627Y-86057027D01*
X198683260Y-86041045D01*
X198702374Y-86026869D01*
X198722786Y-86014634D01*
X198744299Y-86004459D01*
X198766706Y-85996442D01*
X198789791Y-85990660D01*
X198813331Y-85987168D01*
X198837100Y-85986000D01*
X199322100Y-85986000D01*
X199345869Y-85987168D01*
X199345869Y-85987168D01*
G37*
D12*
X199079600Y-86756000D03*
D10*
G36*
X204899342Y-85139374D02*
G01*
X204923003Y-85142884D01*
X204946207Y-85148696D01*
X204968729Y-85156754D01*
X204990353Y-85166982D01*
X205010870Y-85179279D01*
X205030083Y-85193529D01*
X205047807Y-85209593D01*
X205063871Y-85227317D01*
X205078121Y-85246530D01*
X205090418Y-85267047D01*
X205100646Y-85288671D01*
X205108704Y-85311193D01*
X205114516Y-85334397D01*
X205118026Y-85358058D01*
X205119200Y-85381950D01*
X205119200Y-85869450D01*
X205118026Y-85893342D01*
X205114516Y-85917003D01*
X205108704Y-85940207D01*
X205100646Y-85962729D01*
X205090418Y-85984353D01*
X205078121Y-86004870D01*
X205063871Y-86024083D01*
X205047807Y-86041807D01*
X205030083Y-86057871D01*
X205010870Y-86072121D01*
X204990353Y-86084418D01*
X204968729Y-86094646D01*
X204946207Y-86102704D01*
X204923003Y-86108516D01*
X204899342Y-86112026D01*
X204875450Y-86113200D01*
X203962950Y-86113200D01*
X203939058Y-86112026D01*
X203915397Y-86108516D01*
X203892193Y-86102704D01*
X203869671Y-86094646D01*
X203848047Y-86084418D01*
X203827530Y-86072121D01*
X203808317Y-86057871D01*
X203790593Y-86041807D01*
X203774529Y-86024083D01*
X203760279Y-86004870D01*
X203747982Y-85984353D01*
X203737754Y-85962729D01*
X203729696Y-85940207D01*
X203723884Y-85917003D01*
X203720374Y-85893342D01*
X203719200Y-85869450D01*
X203719200Y-85381950D01*
X203720374Y-85358058D01*
X203723884Y-85334397D01*
X203729696Y-85311193D01*
X203737754Y-85288671D01*
X203747982Y-85267047D01*
X203760279Y-85246530D01*
X203774529Y-85227317D01*
X203790593Y-85209593D01*
X203808317Y-85193529D01*
X203827530Y-85179279D01*
X203848047Y-85166982D01*
X203869671Y-85156754D01*
X203892193Y-85148696D01*
X203915397Y-85142884D01*
X203939058Y-85139374D01*
X203962950Y-85138200D01*
X204875450Y-85138200D01*
X204899342Y-85139374D01*
X204899342Y-85139374D01*
G37*
D13*
X204419200Y-85625700D03*
D10*
G36*
X204899342Y-87014374D02*
G01*
X204923003Y-87017884D01*
X204946207Y-87023696D01*
X204968729Y-87031754D01*
X204990353Y-87041982D01*
X205010870Y-87054279D01*
X205030083Y-87068529D01*
X205047807Y-87084593D01*
X205063871Y-87102317D01*
X205078121Y-87121530D01*
X205090418Y-87142047D01*
X205100646Y-87163671D01*
X205108704Y-87186193D01*
X205114516Y-87209397D01*
X205118026Y-87233058D01*
X205119200Y-87256950D01*
X205119200Y-87744450D01*
X205118026Y-87768342D01*
X205114516Y-87792003D01*
X205108704Y-87815207D01*
X205100646Y-87837729D01*
X205090418Y-87859353D01*
X205078121Y-87879870D01*
X205063871Y-87899083D01*
X205047807Y-87916807D01*
X205030083Y-87932871D01*
X205010870Y-87947121D01*
X204990353Y-87959418D01*
X204968729Y-87969646D01*
X204946207Y-87977704D01*
X204923003Y-87983516D01*
X204899342Y-87987026D01*
X204875450Y-87988200D01*
X203962950Y-87988200D01*
X203939058Y-87987026D01*
X203915397Y-87983516D01*
X203892193Y-87977704D01*
X203869671Y-87969646D01*
X203848047Y-87959418D01*
X203827530Y-87947121D01*
X203808317Y-87932871D01*
X203790593Y-87916807D01*
X203774529Y-87899083D01*
X203760279Y-87879870D01*
X203747982Y-87859353D01*
X203737754Y-87837729D01*
X203729696Y-87815207D01*
X203723884Y-87792003D01*
X203720374Y-87768342D01*
X203719200Y-87744450D01*
X203719200Y-87256950D01*
X203720374Y-87233058D01*
X203723884Y-87209397D01*
X203729696Y-87186193D01*
X203737754Y-87163671D01*
X203747982Y-87142047D01*
X203760279Y-87121530D01*
X203774529Y-87102317D01*
X203790593Y-87084593D01*
X203808317Y-87068529D01*
X203827530Y-87054279D01*
X203848047Y-87041982D01*
X203869671Y-87031754D01*
X203892193Y-87023696D01*
X203915397Y-87017884D01*
X203939058Y-87014374D01*
X203962950Y-87013200D01*
X204875450Y-87013200D01*
X204899342Y-87014374D01*
X204899342Y-87014374D01*
G37*
D13*
X204419200Y-87500700D03*
D10*
G36*
X195374342Y-83366174D02*
G01*
X195398003Y-83369684D01*
X195421207Y-83375496D01*
X195443729Y-83383554D01*
X195465353Y-83393782D01*
X195485870Y-83406079D01*
X195505083Y-83420329D01*
X195522807Y-83436393D01*
X195538871Y-83454117D01*
X195553121Y-83473330D01*
X195565418Y-83493847D01*
X195575646Y-83515471D01*
X195583704Y-83537993D01*
X195589516Y-83561197D01*
X195593026Y-83584858D01*
X195594200Y-83608750D01*
X195594200Y-84096250D01*
X195593026Y-84120142D01*
X195589516Y-84143803D01*
X195583704Y-84167007D01*
X195575646Y-84189529D01*
X195565418Y-84211153D01*
X195553121Y-84231670D01*
X195538871Y-84250883D01*
X195522807Y-84268607D01*
X195505083Y-84284671D01*
X195485870Y-84298921D01*
X195465353Y-84311218D01*
X195443729Y-84321446D01*
X195421207Y-84329504D01*
X195398003Y-84335316D01*
X195374342Y-84338826D01*
X195350450Y-84340000D01*
X194437950Y-84340000D01*
X194414058Y-84338826D01*
X194390397Y-84335316D01*
X194367193Y-84329504D01*
X194344671Y-84321446D01*
X194323047Y-84311218D01*
X194302530Y-84298921D01*
X194283317Y-84284671D01*
X194265593Y-84268607D01*
X194249529Y-84250883D01*
X194235279Y-84231670D01*
X194222982Y-84211153D01*
X194212754Y-84189529D01*
X194204696Y-84167007D01*
X194198884Y-84143803D01*
X194195374Y-84120142D01*
X194194200Y-84096250D01*
X194194200Y-83608750D01*
X194195374Y-83584858D01*
X194198884Y-83561197D01*
X194204696Y-83537993D01*
X194212754Y-83515471D01*
X194222982Y-83493847D01*
X194235279Y-83473330D01*
X194249529Y-83454117D01*
X194265593Y-83436393D01*
X194283317Y-83420329D01*
X194302530Y-83406079D01*
X194323047Y-83393782D01*
X194344671Y-83383554D01*
X194367193Y-83375496D01*
X194390397Y-83369684D01*
X194414058Y-83366174D01*
X194437950Y-83365000D01*
X195350450Y-83365000D01*
X195374342Y-83366174D01*
X195374342Y-83366174D01*
G37*
D13*
X194894200Y-83852500D03*
D10*
G36*
X195374342Y-85241174D02*
G01*
X195398003Y-85244684D01*
X195421207Y-85250496D01*
X195443729Y-85258554D01*
X195465353Y-85268782D01*
X195485870Y-85281079D01*
X195505083Y-85295329D01*
X195522807Y-85311393D01*
X195538871Y-85329117D01*
X195553121Y-85348330D01*
X195565418Y-85368847D01*
X195575646Y-85390471D01*
X195583704Y-85412993D01*
X195589516Y-85436197D01*
X195593026Y-85459858D01*
X195594200Y-85483750D01*
X195594200Y-85971250D01*
X195593026Y-85995142D01*
X195589516Y-86018803D01*
X195583704Y-86042007D01*
X195575646Y-86064529D01*
X195565418Y-86086153D01*
X195553121Y-86106670D01*
X195538871Y-86125883D01*
X195522807Y-86143607D01*
X195505083Y-86159671D01*
X195485870Y-86173921D01*
X195465353Y-86186218D01*
X195443729Y-86196446D01*
X195421207Y-86204504D01*
X195398003Y-86210316D01*
X195374342Y-86213826D01*
X195350450Y-86215000D01*
X194437950Y-86215000D01*
X194414058Y-86213826D01*
X194390397Y-86210316D01*
X194367193Y-86204504D01*
X194344671Y-86196446D01*
X194323047Y-86186218D01*
X194302530Y-86173921D01*
X194283317Y-86159671D01*
X194265593Y-86143607D01*
X194249529Y-86125883D01*
X194235279Y-86106670D01*
X194222982Y-86086153D01*
X194212754Y-86064529D01*
X194204696Y-86042007D01*
X194198884Y-86018803D01*
X194195374Y-85995142D01*
X194194200Y-85971250D01*
X194194200Y-85483750D01*
X194195374Y-85459858D01*
X194198884Y-85436197D01*
X194204696Y-85412993D01*
X194212754Y-85390471D01*
X194222982Y-85368847D01*
X194235279Y-85348330D01*
X194249529Y-85329117D01*
X194265593Y-85311393D01*
X194283317Y-85295329D01*
X194302530Y-85281079D01*
X194323047Y-85268782D01*
X194344671Y-85258554D01*
X194367193Y-85250496D01*
X194390397Y-85244684D01*
X194414058Y-85241174D01*
X194437950Y-85240000D01*
X195350450Y-85240000D01*
X195374342Y-85241174D01*
X195374342Y-85241174D01*
G37*
D13*
X194894200Y-85727500D03*
D10*
G36*
X217689691Y-57895253D02*
G01*
X217710926Y-57898403D01*
X217731750Y-57903619D01*
X217751962Y-57910851D01*
X217771368Y-57920030D01*
X217789781Y-57931066D01*
X217807024Y-57943854D01*
X217822930Y-57958270D01*
X217837346Y-57974176D01*
X217850134Y-57991419D01*
X217861170Y-58009832D01*
X217870349Y-58029238D01*
X217877581Y-58049450D01*
X217882797Y-58070274D01*
X217885947Y-58091509D01*
X217887000Y-58112950D01*
X217887000Y-58625450D01*
X217885947Y-58646891D01*
X217882797Y-58668126D01*
X217877581Y-58688950D01*
X217870349Y-58709162D01*
X217861170Y-58728568D01*
X217850134Y-58746981D01*
X217837346Y-58764224D01*
X217822930Y-58780130D01*
X217807024Y-58794546D01*
X217789781Y-58807334D01*
X217771368Y-58818370D01*
X217751962Y-58827549D01*
X217731750Y-58834781D01*
X217710926Y-58839997D01*
X217689691Y-58843147D01*
X217668250Y-58844200D01*
X217230750Y-58844200D01*
X217209309Y-58843147D01*
X217188074Y-58839997D01*
X217167250Y-58834781D01*
X217147038Y-58827549D01*
X217127632Y-58818370D01*
X217109219Y-58807334D01*
X217091976Y-58794546D01*
X217076070Y-58780130D01*
X217061654Y-58764224D01*
X217048866Y-58746981D01*
X217037830Y-58728568D01*
X217028651Y-58709162D01*
X217021419Y-58688950D01*
X217016203Y-58668126D01*
X217013053Y-58646891D01*
X217012000Y-58625450D01*
X217012000Y-58112950D01*
X217013053Y-58091509D01*
X217016203Y-58070274D01*
X217021419Y-58049450D01*
X217028651Y-58029238D01*
X217037830Y-58009832D01*
X217048866Y-57991419D01*
X217061654Y-57974176D01*
X217076070Y-57958270D01*
X217091976Y-57943854D01*
X217109219Y-57931066D01*
X217127632Y-57920030D01*
X217147038Y-57910851D01*
X217167250Y-57903619D01*
X217188074Y-57898403D01*
X217209309Y-57895253D01*
X217230750Y-57894200D01*
X217668250Y-57894200D01*
X217689691Y-57895253D01*
X217689691Y-57895253D01*
G37*
D14*
X217449500Y-58369200D03*
D10*
G36*
X216114691Y-57895253D02*
G01*
X216135926Y-57898403D01*
X216156750Y-57903619D01*
X216176962Y-57910851D01*
X216196368Y-57920030D01*
X216214781Y-57931066D01*
X216232024Y-57943854D01*
X216247930Y-57958270D01*
X216262346Y-57974176D01*
X216275134Y-57991419D01*
X216286170Y-58009832D01*
X216295349Y-58029238D01*
X216302581Y-58049450D01*
X216307797Y-58070274D01*
X216310947Y-58091509D01*
X216312000Y-58112950D01*
X216312000Y-58625450D01*
X216310947Y-58646891D01*
X216307797Y-58668126D01*
X216302581Y-58688950D01*
X216295349Y-58709162D01*
X216286170Y-58728568D01*
X216275134Y-58746981D01*
X216262346Y-58764224D01*
X216247930Y-58780130D01*
X216232024Y-58794546D01*
X216214781Y-58807334D01*
X216196368Y-58818370D01*
X216176962Y-58827549D01*
X216156750Y-58834781D01*
X216135926Y-58839997D01*
X216114691Y-58843147D01*
X216093250Y-58844200D01*
X215655750Y-58844200D01*
X215634309Y-58843147D01*
X215613074Y-58839997D01*
X215592250Y-58834781D01*
X215572038Y-58827549D01*
X215552632Y-58818370D01*
X215534219Y-58807334D01*
X215516976Y-58794546D01*
X215501070Y-58780130D01*
X215486654Y-58764224D01*
X215473866Y-58746981D01*
X215462830Y-58728568D01*
X215453651Y-58709162D01*
X215446419Y-58688950D01*
X215441203Y-58668126D01*
X215438053Y-58646891D01*
X215437000Y-58625450D01*
X215437000Y-58112950D01*
X215438053Y-58091509D01*
X215441203Y-58070274D01*
X215446419Y-58049450D01*
X215453651Y-58029238D01*
X215462830Y-58009832D01*
X215473866Y-57991419D01*
X215486654Y-57974176D01*
X215501070Y-57958270D01*
X215516976Y-57943854D01*
X215534219Y-57931066D01*
X215552632Y-57920030D01*
X215572038Y-57910851D01*
X215592250Y-57903619D01*
X215613074Y-57898403D01*
X215634309Y-57895253D01*
X215655750Y-57894200D01*
X216093250Y-57894200D01*
X216114691Y-57895253D01*
X216114691Y-57895253D01*
G37*
D14*
X215874500Y-58369200D03*
D10*
G36*
X212660291Y-61908453D02*
G01*
X212681526Y-61911603D01*
X212702350Y-61916819D01*
X212722562Y-61924051D01*
X212741968Y-61933230D01*
X212760381Y-61944266D01*
X212777624Y-61957054D01*
X212793530Y-61971470D01*
X212807946Y-61987376D01*
X212820734Y-62004619D01*
X212831770Y-62023032D01*
X212840949Y-62042438D01*
X212848181Y-62062650D01*
X212853397Y-62083474D01*
X212856547Y-62104709D01*
X212857600Y-62126150D01*
X212857600Y-62638650D01*
X212856547Y-62660091D01*
X212853397Y-62681326D01*
X212848181Y-62702150D01*
X212840949Y-62722362D01*
X212831770Y-62741768D01*
X212820734Y-62760181D01*
X212807946Y-62777424D01*
X212793530Y-62793330D01*
X212777624Y-62807746D01*
X212760381Y-62820534D01*
X212741968Y-62831570D01*
X212722562Y-62840749D01*
X212702350Y-62847981D01*
X212681526Y-62853197D01*
X212660291Y-62856347D01*
X212638850Y-62857400D01*
X212201350Y-62857400D01*
X212179909Y-62856347D01*
X212158674Y-62853197D01*
X212137850Y-62847981D01*
X212117638Y-62840749D01*
X212098232Y-62831570D01*
X212079819Y-62820534D01*
X212062576Y-62807746D01*
X212046670Y-62793330D01*
X212032254Y-62777424D01*
X212019466Y-62760181D01*
X212008430Y-62741768D01*
X211999251Y-62722362D01*
X211992019Y-62702150D01*
X211986803Y-62681326D01*
X211983653Y-62660091D01*
X211982600Y-62638650D01*
X211982600Y-62126150D01*
X211983653Y-62104709D01*
X211986803Y-62083474D01*
X211992019Y-62062650D01*
X211999251Y-62042438D01*
X212008430Y-62023032D01*
X212019466Y-62004619D01*
X212032254Y-61987376D01*
X212046670Y-61971470D01*
X212062576Y-61957054D01*
X212079819Y-61944266D01*
X212098232Y-61933230D01*
X212117638Y-61924051D01*
X212137850Y-61916819D01*
X212158674Y-61911603D01*
X212179909Y-61908453D01*
X212201350Y-61907400D01*
X212638850Y-61907400D01*
X212660291Y-61908453D01*
X212660291Y-61908453D01*
G37*
D14*
X212420100Y-62382400D03*
D10*
G36*
X214235291Y-61908453D02*
G01*
X214256526Y-61911603D01*
X214277350Y-61916819D01*
X214297562Y-61924051D01*
X214316968Y-61933230D01*
X214335381Y-61944266D01*
X214352624Y-61957054D01*
X214368530Y-61971470D01*
X214382946Y-61987376D01*
X214395734Y-62004619D01*
X214406770Y-62023032D01*
X214415949Y-62042438D01*
X214423181Y-62062650D01*
X214428397Y-62083474D01*
X214431547Y-62104709D01*
X214432600Y-62126150D01*
X214432600Y-62638650D01*
X214431547Y-62660091D01*
X214428397Y-62681326D01*
X214423181Y-62702150D01*
X214415949Y-62722362D01*
X214406770Y-62741768D01*
X214395734Y-62760181D01*
X214382946Y-62777424D01*
X214368530Y-62793330D01*
X214352624Y-62807746D01*
X214335381Y-62820534D01*
X214316968Y-62831570D01*
X214297562Y-62840749D01*
X214277350Y-62847981D01*
X214256526Y-62853197D01*
X214235291Y-62856347D01*
X214213850Y-62857400D01*
X213776350Y-62857400D01*
X213754909Y-62856347D01*
X213733674Y-62853197D01*
X213712850Y-62847981D01*
X213692638Y-62840749D01*
X213673232Y-62831570D01*
X213654819Y-62820534D01*
X213637576Y-62807746D01*
X213621670Y-62793330D01*
X213607254Y-62777424D01*
X213594466Y-62760181D01*
X213583430Y-62741768D01*
X213574251Y-62722362D01*
X213567019Y-62702150D01*
X213561803Y-62681326D01*
X213558653Y-62660091D01*
X213557600Y-62638650D01*
X213557600Y-62126150D01*
X213558653Y-62104709D01*
X213561803Y-62083474D01*
X213567019Y-62062650D01*
X213574251Y-62042438D01*
X213583430Y-62023032D01*
X213594466Y-62004619D01*
X213607254Y-61987376D01*
X213621670Y-61971470D01*
X213637576Y-61957054D01*
X213654819Y-61944266D01*
X213673232Y-61933230D01*
X213692638Y-61924051D01*
X213712850Y-61916819D01*
X213733674Y-61911603D01*
X213754909Y-61908453D01*
X213776350Y-61907400D01*
X214213850Y-61907400D01*
X214235291Y-61908453D01*
X214235291Y-61908453D01*
G37*
D14*
X213995100Y-62382400D03*
D10*
G36*
X214489291Y-63991253D02*
G01*
X214510526Y-63994403D01*
X214531350Y-63999619D01*
X214551562Y-64006851D01*
X214570968Y-64016030D01*
X214589381Y-64027066D01*
X214606624Y-64039854D01*
X214622530Y-64054270D01*
X214636946Y-64070176D01*
X214649734Y-64087419D01*
X214660770Y-64105832D01*
X214669949Y-64125238D01*
X214677181Y-64145450D01*
X214682397Y-64166274D01*
X214685547Y-64187509D01*
X214686600Y-64208950D01*
X214686600Y-64721450D01*
X214685547Y-64742891D01*
X214682397Y-64764126D01*
X214677181Y-64784950D01*
X214669949Y-64805162D01*
X214660770Y-64824568D01*
X214649734Y-64842981D01*
X214636946Y-64860224D01*
X214622530Y-64876130D01*
X214606624Y-64890546D01*
X214589381Y-64903334D01*
X214570968Y-64914370D01*
X214551562Y-64923549D01*
X214531350Y-64930781D01*
X214510526Y-64935997D01*
X214489291Y-64939147D01*
X214467850Y-64940200D01*
X214030350Y-64940200D01*
X214008909Y-64939147D01*
X213987674Y-64935997D01*
X213966850Y-64930781D01*
X213946638Y-64923549D01*
X213927232Y-64914370D01*
X213908819Y-64903334D01*
X213891576Y-64890546D01*
X213875670Y-64876130D01*
X213861254Y-64860224D01*
X213848466Y-64842981D01*
X213837430Y-64824568D01*
X213828251Y-64805162D01*
X213821019Y-64784950D01*
X213815803Y-64764126D01*
X213812653Y-64742891D01*
X213811600Y-64721450D01*
X213811600Y-64208950D01*
X213812653Y-64187509D01*
X213815803Y-64166274D01*
X213821019Y-64145450D01*
X213828251Y-64125238D01*
X213837430Y-64105832D01*
X213848466Y-64087419D01*
X213861254Y-64070176D01*
X213875670Y-64054270D01*
X213891576Y-64039854D01*
X213908819Y-64027066D01*
X213927232Y-64016030D01*
X213946638Y-64006851D01*
X213966850Y-63999619D01*
X213987674Y-63994403D01*
X214008909Y-63991253D01*
X214030350Y-63990200D01*
X214467850Y-63990200D01*
X214489291Y-63991253D01*
X214489291Y-63991253D01*
G37*
D14*
X214249100Y-64465200D03*
D10*
G36*
X212914291Y-63991253D02*
G01*
X212935526Y-63994403D01*
X212956350Y-63999619D01*
X212976562Y-64006851D01*
X212995968Y-64016030D01*
X213014381Y-64027066D01*
X213031624Y-64039854D01*
X213047530Y-64054270D01*
X213061946Y-64070176D01*
X213074734Y-64087419D01*
X213085770Y-64105832D01*
X213094949Y-64125238D01*
X213102181Y-64145450D01*
X213107397Y-64166274D01*
X213110547Y-64187509D01*
X213111600Y-64208950D01*
X213111600Y-64721450D01*
X213110547Y-64742891D01*
X213107397Y-64764126D01*
X213102181Y-64784950D01*
X213094949Y-64805162D01*
X213085770Y-64824568D01*
X213074734Y-64842981D01*
X213061946Y-64860224D01*
X213047530Y-64876130D01*
X213031624Y-64890546D01*
X213014381Y-64903334D01*
X212995968Y-64914370D01*
X212976562Y-64923549D01*
X212956350Y-64930781D01*
X212935526Y-64935997D01*
X212914291Y-64939147D01*
X212892850Y-64940200D01*
X212455350Y-64940200D01*
X212433909Y-64939147D01*
X212412674Y-64935997D01*
X212391850Y-64930781D01*
X212371638Y-64923549D01*
X212352232Y-64914370D01*
X212333819Y-64903334D01*
X212316576Y-64890546D01*
X212300670Y-64876130D01*
X212286254Y-64860224D01*
X212273466Y-64842981D01*
X212262430Y-64824568D01*
X212253251Y-64805162D01*
X212246019Y-64784950D01*
X212240803Y-64764126D01*
X212237653Y-64742891D01*
X212236600Y-64721450D01*
X212236600Y-64208950D01*
X212237653Y-64187509D01*
X212240803Y-64166274D01*
X212246019Y-64145450D01*
X212253251Y-64125238D01*
X212262430Y-64105832D01*
X212273466Y-64087419D01*
X212286254Y-64070176D01*
X212300670Y-64054270D01*
X212316576Y-64039854D01*
X212333819Y-64027066D01*
X212352232Y-64016030D01*
X212371638Y-64006851D01*
X212391850Y-63999619D01*
X212412674Y-63994403D01*
X212433909Y-63991253D01*
X212455350Y-63990200D01*
X212892850Y-63990200D01*
X212914291Y-63991253D01*
X212914291Y-63991253D01*
G37*
D14*
X212674100Y-64465200D03*
D10*
G36*
X220864342Y-55485974D02*
G01*
X220888003Y-55489484D01*
X220911207Y-55495296D01*
X220933729Y-55503354D01*
X220955353Y-55513582D01*
X220975870Y-55525879D01*
X220995083Y-55540129D01*
X221012807Y-55556193D01*
X221028871Y-55573917D01*
X221043121Y-55593130D01*
X221055418Y-55613647D01*
X221065646Y-55635271D01*
X221073704Y-55657793D01*
X221079516Y-55680997D01*
X221083026Y-55704658D01*
X221084200Y-55728550D01*
X221084200Y-56641050D01*
X221083026Y-56664942D01*
X221079516Y-56688603D01*
X221073704Y-56711807D01*
X221065646Y-56734329D01*
X221055418Y-56755953D01*
X221043121Y-56776470D01*
X221028871Y-56795683D01*
X221012807Y-56813407D01*
X220995083Y-56829471D01*
X220975870Y-56843721D01*
X220955353Y-56856018D01*
X220933729Y-56866246D01*
X220911207Y-56874304D01*
X220888003Y-56880116D01*
X220864342Y-56883626D01*
X220840450Y-56884800D01*
X220352950Y-56884800D01*
X220329058Y-56883626D01*
X220305397Y-56880116D01*
X220282193Y-56874304D01*
X220259671Y-56866246D01*
X220238047Y-56856018D01*
X220217530Y-56843721D01*
X220198317Y-56829471D01*
X220180593Y-56813407D01*
X220164529Y-56795683D01*
X220150279Y-56776470D01*
X220137982Y-56755953D01*
X220127754Y-56734329D01*
X220119696Y-56711807D01*
X220113884Y-56688603D01*
X220110374Y-56664942D01*
X220109200Y-56641050D01*
X220109200Y-55728550D01*
X220110374Y-55704658D01*
X220113884Y-55680997D01*
X220119696Y-55657793D01*
X220127754Y-55635271D01*
X220137982Y-55613647D01*
X220150279Y-55593130D01*
X220164529Y-55573917D01*
X220180593Y-55556193D01*
X220198317Y-55540129D01*
X220217530Y-55525879D01*
X220238047Y-55513582D01*
X220259671Y-55503354D01*
X220282193Y-55495296D01*
X220305397Y-55489484D01*
X220329058Y-55485974D01*
X220352950Y-55484800D01*
X220840450Y-55484800D01*
X220864342Y-55485974D01*
X220864342Y-55485974D01*
G37*
D13*
X220596700Y-56184800D03*
D10*
G36*
X218989342Y-55485974D02*
G01*
X219013003Y-55489484D01*
X219036207Y-55495296D01*
X219058729Y-55503354D01*
X219080353Y-55513582D01*
X219100870Y-55525879D01*
X219120083Y-55540129D01*
X219137807Y-55556193D01*
X219153871Y-55573917D01*
X219168121Y-55593130D01*
X219180418Y-55613647D01*
X219190646Y-55635271D01*
X219198704Y-55657793D01*
X219204516Y-55680997D01*
X219208026Y-55704658D01*
X219209200Y-55728550D01*
X219209200Y-56641050D01*
X219208026Y-56664942D01*
X219204516Y-56688603D01*
X219198704Y-56711807D01*
X219190646Y-56734329D01*
X219180418Y-56755953D01*
X219168121Y-56776470D01*
X219153871Y-56795683D01*
X219137807Y-56813407D01*
X219120083Y-56829471D01*
X219100870Y-56843721D01*
X219080353Y-56856018D01*
X219058729Y-56866246D01*
X219036207Y-56874304D01*
X219013003Y-56880116D01*
X218989342Y-56883626D01*
X218965450Y-56884800D01*
X218477950Y-56884800D01*
X218454058Y-56883626D01*
X218430397Y-56880116D01*
X218407193Y-56874304D01*
X218384671Y-56866246D01*
X218363047Y-56856018D01*
X218342530Y-56843721D01*
X218323317Y-56829471D01*
X218305593Y-56813407D01*
X218289529Y-56795683D01*
X218275279Y-56776470D01*
X218262982Y-56755953D01*
X218252754Y-56734329D01*
X218244696Y-56711807D01*
X218238884Y-56688603D01*
X218235374Y-56664942D01*
X218234200Y-56641050D01*
X218234200Y-55728550D01*
X218235374Y-55704658D01*
X218238884Y-55680997D01*
X218244696Y-55657793D01*
X218252754Y-55635271D01*
X218262982Y-55613647D01*
X218275279Y-55593130D01*
X218289529Y-55573917D01*
X218305593Y-55556193D01*
X218323317Y-55540129D01*
X218342530Y-55525879D01*
X218363047Y-55513582D01*
X218384671Y-55503354D01*
X218407193Y-55495296D01*
X218430397Y-55489484D01*
X218454058Y-55485974D01*
X218477950Y-55484800D01*
X218965450Y-55484800D01*
X218989342Y-55485974D01*
X218989342Y-55485974D01*
G37*
D13*
X218721700Y-56184800D03*
D10*
G36*
X236615504Y-86259904D02*
G01*
X236639773Y-86263504D01*
X236663571Y-86269465D01*
X236686671Y-86277730D01*
X236708849Y-86288220D01*
X236729893Y-86300833D01*
X236749598Y-86315447D01*
X236767777Y-86331923D01*
X236784253Y-86350102D01*
X236798867Y-86369807D01*
X236811480Y-86390851D01*
X236821970Y-86413029D01*
X236830235Y-86436129D01*
X236836196Y-86459927D01*
X236839796Y-86484196D01*
X236841000Y-86508700D01*
X236841000Y-87258700D01*
X236839796Y-87283204D01*
X236836196Y-87307473D01*
X236830235Y-87331271D01*
X236821970Y-87354371D01*
X236811480Y-87376549D01*
X236798867Y-87397593D01*
X236784253Y-87417298D01*
X236767777Y-87435477D01*
X236749598Y-87451953D01*
X236729893Y-87466567D01*
X236708849Y-87479180D01*
X236686671Y-87489670D01*
X236663571Y-87497935D01*
X236639773Y-87503896D01*
X236615504Y-87507496D01*
X236591000Y-87508700D01*
X235341000Y-87508700D01*
X235316496Y-87507496D01*
X235292227Y-87503896D01*
X235268429Y-87497935D01*
X235245329Y-87489670D01*
X235223151Y-87479180D01*
X235202107Y-87466567D01*
X235182402Y-87451953D01*
X235164223Y-87435477D01*
X235147747Y-87417298D01*
X235133133Y-87397593D01*
X235120520Y-87376549D01*
X235110030Y-87354371D01*
X235101765Y-87331271D01*
X235095804Y-87307473D01*
X235092204Y-87283204D01*
X235091000Y-87258700D01*
X235091000Y-86508700D01*
X235092204Y-86484196D01*
X235095804Y-86459927D01*
X235101765Y-86436129D01*
X235110030Y-86413029D01*
X235120520Y-86390851D01*
X235133133Y-86369807D01*
X235147747Y-86350102D01*
X235164223Y-86331923D01*
X235182402Y-86315447D01*
X235202107Y-86300833D01*
X235223151Y-86288220D01*
X235245329Y-86277730D01*
X235268429Y-86269465D01*
X235292227Y-86263504D01*
X235316496Y-86259904D01*
X235341000Y-86258700D01*
X236591000Y-86258700D01*
X236615504Y-86259904D01*
X236615504Y-86259904D01*
G37*
D15*
X235966000Y-86883700D03*
D10*
G36*
X236615504Y-83459904D02*
G01*
X236639773Y-83463504D01*
X236663571Y-83469465D01*
X236686671Y-83477730D01*
X236708849Y-83488220D01*
X236729893Y-83500833D01*
X236749598Y-83515447D01*
X236767777Y-83531923D01*
X236784253Y-83550102D01*
X236798867Y-83569807D01*
X236811480Y-83590851D01*
X236821970Y-83613029D01*
X236830235Y-83636129D01*
X236836196Y-83659927D01*
X236839796Y-83684196D01*
X236841000Y-83708700D01*
X236841000Y-84458700D01*
X236839796Y-84483204D01*
X236836196Y-84507473D01*
X236830235Y-84531271D01*
X236821970Y-84554371D01*
X236811480Y-84576549D01*
X236798867Y-84597593D01*
X236784253Y-84617298D01*
X236767777Y-84635477D01*
X236749598Y-84651953D01*
X236729893Y-84666567D01*
X236708849Y-84679180D01*
X236686671Y-84689670D01*
X236663571Y-84697935D01*
X236639773Y-84703896D01*
X236615504Y-84707496D01*
X236591000Y-84708700D01*
X235341000Y-84708700D01*
X235316496Y-84707496D01*
X235292227Y-84703896D01*
X235268429Y-84697935D01*
X235245329Y-84689670D01*
X235223151Y-84679180D01*
X235202107Y-84666567D01*
X235182402Y-84651953D01*
X235164223Y-84635477D01*
X235147747Y-84617298D01*
X235133133Y-84597593D01*
X235120520Y-84576549D01*
X235110030Y-84554371D01*
X235101765Y-84531271D01*
X235095804Y-84507473D01*
X235092204Y-84483204D01*
X235091000Y-84458700D01*
X235091000Y-83708700D01*
X235092204Y-83684196D01*
X235095804Y-83659927D01*
X235101765Y-83636129D01*
X235110030Y-83613029D01*
X235120520Y-83590851D01*
X235133133Y-83569807D01*
X235147747Y-83550102D01*
X235164223Y-83531923D01*
X235182402Y-83515447D01*
X235202107Y-83500833D01*
X235223151Y-83488220D01*
X235245329Y-83477730D01*
X235268429Y-83469465D01*
X235292227Y-83463504D01*
X235316496Y-83459904D01*
X235341000Y-83458700D01*
X236591000Y-83458700D01*
X236615504Y-83459904D01*
X236615504Y-83459904D01*
G37*
D15*
X235966000Y-84083700D03*
D10*
G36*
X234271504Y-86259904D02*
G01*
X234295773Y-86263504D01*
X234319571Y-86269465D01*
X234342671Y-86277730D01*
X234364849Y-86288220D01*
X234385893Y-86300833D01*
X234405598Y-86315447D01*
X234423777Y-86331923D01*
X234440253Y-86350102D01*
X234454867Y-86369807D01*
X234467480Y-86390851D01*
X234477970Y-86413029D01*
X234486235Y-86436129D01*
X234492196Y-86459927D01*
X234495796Y-86484196D01*
X234497000Y-86508700D01*
X234497000Y-87258700D01*
X234495796Y-87283204D01*
X234492196Y-87307473D01*
X234486235Y-87331271D01*
X234477970Y-87354371D01*
X234467480Y-87376549D01*
X234454867Y-87397593D01*
X234440253Y-87417298D01*
X234423777Y-87435477D01*
X234405598Y-87451953D01*
X234385893Y-87466567D01*
X234364849Y-87479180D01*
X234342671Y-87489670D01*
X234319571Y-87497935D01*
X234295773Y-87503896D01*
X234271504Y-87507496D01*
X234247000Y-87508700D01*
X232097000Y-87508700D01*
X232072496Y-87507496D01*
X232048227Y-87503896D01*
X232024429Y-87497935D01*
X232001329Y-87489670D01*
X231979151Y-87479180D01*
X231958107Y-87466567D01*
X231938402Y-87451953D01*
X231920223Y-87435477D01*
X231903747Y-87417298D01*
X231889133Y-87397593D01*
X231876520Y-87376549D01*
X231866030Y-87354371D01*
X231857765Y-87331271D01*
X231851804Y-87307473D01*
X231848204Y-87283204D01*
X231847000Y-87258700D01*
X231847000Y-86508700D01*
X231848204Y-86484196D01*
X231851804Y-86459927D01*
X231857765Y-86436129D01*
X231866030Y-86413029D01*
X231876520Y-86390851D01*
X231889133Y-86369807D01*
X231903747Y-86350102D01*
X231920223Y-86331923D01*
X231938402Y-86315447D01*
X231958107Y-86300833D01*
X231979151Y-86288220D01*
X232001329Y-86277730D01*
X232024429Y-86269465D01*
X232048227Y-86263504D01*
X232072496Y-86259904D01*
X232097000Y-86258700D01*
X234247000Y-86258700D01*
X234271504Y-86259904D01*
X234271504Y-86259904D01*
G37*
D15*
X233172000Y-86883700D03*
D10*
G36*
X234271504Y-83459904D02*
G01*
X234295773Y-83463504D01*
X234319571Y-83469465D01*
X234342671Y-83477730D01*
X234364849Y-83488220D01*
X234385893Y-83500833D01*
X234405598Y-83515447D01*
X234423777Y-83531923D01*
X234440253Y-83550102D01*
X234454867Y-83569807D01*
X234467480Y-83590851D01*
X234477970Y-83613029D01*
X234486235Y-83636129D01*
X234492196Y-83659927D01*
X234495796Y-83684196D01*
X234497000Y-83708700D01*
X234497000Y-84458700D01*
X234495796Y-84483204D01*
X234492196Y-84507473D01*
X234486235Y-84531271D01*
X234477970Y-84554371D01*
X234467480Y-84576549D01*
X234454867Y-84597593D01*
X234440253Y-84617298D01*
X234423777Y-84635477D01*
X234405598Y-84651953D01*
X234385893Y-84666567D01*
X234364849Y-84679180D01*
X234342671Y-84689670D01*
X234319571Y-84697935D01*
X234295773Y-84703896D01*
X234271504Y-84707496D01*
X234247000Y-84708700D01*
X232097000Y-84708700D01*
X232072496Y-84707496D01*
X232048227Y-84703896D01*
X232024429Y-84697935D01*
X232001329Y-84689670D01*
X231979151Y-84679180D01*
X231958107Y-84666567D01*
X231938402Y-84651953D01*
X231920223Y-84635477D01*
X231903747Y-84617298D01*
X231889133Y-84597593D01*
X231876520Y-84576549D01*
X231866030Y-84554371D01*
X231857765Y-84531271D01*
X231851804Y-84507473D01*
X231848204Y-84483204D01*
X231847000Y-84458700D01*
X231847000Y-83708700D01*
X231848204Y-83684196D01*
X231851804Y-83659927D01*
X231857765Y-83636129D01*
X231866030Y-83613029D01*
X231876520Y-83590851D01*
X231889133Y-83569807D01*
X231903747Y-83550102D01*
X231920223Y-83531923D01*
X231938402Y-83515447D01*
X231958107Y-83500833D01*
X231979151Y-83488220D01*
X232001329Y-83477730D01*
X232024429Y-83469465D01*
X232048227Y-83463504D01*
X232072496Y-83459904D01*
X232097000Y-83458700D01*
X234247000Y-83458700D01*
X234271504Y-83459904D01*
X234271504Y-83459904D01*
G37*
D15*
X233172000Y-84083700D03*
D10*
G36*
X219783742Y-81667674D02*
G01*
X219807403Y-81671184D01*
X219830607Y-81676996D01*
X219853129Y-81685054D01*
X219874753Y-81695282D01*
X219895270Y-81707579D01*
X219914483Y-81721829D01*
X219932207Y-81737893D01*
X219948271Y-81755617D01*
X219962521Y-81774830D01*
X219974818Y-81795347D01*
X219985046Y-81816971D01*
X219993104Y-81839493D01*
X219998916Y-81862697D01*
X220002426Y-81886358D01*
X220003600Y-81910250D01*
X220003600Y-82397750D01*
X220002426Y-82421642D01*
X219998916Y-82445303D01*
X219993104Y-82468507D01*
X219985046Y-82491029D01*
X219974818Y-82512653D01*
X219962521Y-82533170D01*
X219948271Y-82552383D01*
X219932207Y-82570107D01*
X219914483Y-82586171D01*
X219895270Y-82600421D01*
X219874753Y-82612718D01*
X219853129Y-82622946D01*
X219830607Y-82631004D01*
X219807403Y-82636816D01*
X219783742Y-82640326D01*
X219759850Y-82641500D01*
X218847350Y-82641500D01*
X218823458Y-82640326D01*
X218799797Y-82636816D01*
X218776593Y-82631004D01*
X218754071Y-82622946D01*
X218732447Y-82612718D01*
X218711930Y-82600421D01*
X218692717Y-82586171D01*
X218674993Y-82570107D01*
X218658929Y-82552383D01*
X218644679Y-82533170D01*
X218632382Y-82512653D01*
X218622154Y-82491029D01*
X218614096Y-82468507D01*
X218608284Y-82445303D01*
X218604774Y-82421642D01*
X218603600Y-82397750D01*
X218603600Y-81910250D01*
X218604774Y-81886358D01*
X218608284Y-81862697D01*
X218614096Y-81839493D01*
X218622154Y-81816971D01*
X218632382Y-81795347D01*
X218644679Y-81774830D01*
X218658929Y-81755617D01*
X218674993Y-81737893D01*
X218692717Y-81721829D01*
X218711930Y-81707579D01*
X218732447Y-81695282D01*
X218754071Y-81685054D01*
X218776593Y-81676996D01*
X218799797Y-81671184D01*
X218823458Y-81667674D01*
X218847350Y-81666500D01*
X219759850Y-81666500D01*
X219783742Y-81667674D01*
X219783742Y-81667674D01*
G37*
D13*
X219303600Y-82154000D03*
D10*
G36*
X219783742Y-79792674D02*
G01*
X219807403Y-79796184D01*
X219830607Y-79801996D01*
X219853129Y-79810054D01*
X219874753Y-79820282D01*
X219895270Y-79832579D01*
X219914483Y-79846829D01*
X219932207Y-79862893D01*
X219948271Y-79880617D01*
X219962521Y-79899830D01*
X219974818Y-79920347D01*
X219985046Y-79941971D01*
X219993104Y-79964493D01*
X219998916Y-79987697D01*
X220002426Y-80011358D01*
X220003600Y-80035250D01*
X220003600Y-80522750D01*
X220002426Y-80546642D01*
X219998916Y-80570303D01*
X219993104Y-80593507D01*
X219985046Y-80616029D01*
X219974818Y-80637653D01*
X219962521Y-80658170D01*
X219948271Y-80677383D01*
X219932207Y-80695107D01*
X219914483Y-80711171D01*
X219895270Y-80725421D01*
X219874753Y-80737718D01*
X219853129Y-80747946D01*
X219830607Y-80756004D01*
X219807403Y-80761816D01*
X219783742Y-80765326D01*
X219759850Y-80766500D01*
X218847350Y-80766500D01*
X218823458Y-80765326D01*
X218799797Y-80761816D01*
X218776593Y-80756004D01*
X218754071Y-80747946D01*
X218732447Y-80737718D01*
X218711930Y-80725421D01*
X218692717Y-80711171D01*
X218674993Y-80695107D01*
X218658929Y-80677383D01*
X218644679Y-80658170D01*
X218632382Y-80637653D01*
X218622154Y-80616029D01*
X218614096Y-80593507D01*
X218608284Y-80570303D01*
X218604774Y-80546642D01*
X218603600Y-80522750D01*
X218603600Y-80035250D01*
X218604774Y-80011358D01*
X218608284Y-79987697D01*
X218614096Y-79964493D01*
X218622154Y-79941971D01*
X218632382Y-79920347D01*
X218644679Y-79899830D01*
X218658929Y-79880617D01*
X218674993Y-79862893D01*
X218692717Y-79846829D01*
X218711930Y-79832579D01*
X218732447Y-79820282D01*
X218754071Y-79810054D01*
X218776593Y-79801996D01*
X218799797Y-79796184D01*
X218823458Y-79792674D01*
X218847350Y-79791500D01*
X219759850Y-79791500D01*
X219783742Y-79792674D01*
X219783742Y-79792674D01*
G37*
D13*
X219303600Y-80279000D03*
D10*
G36*
X222993904Y-82189904D02*
G01*
X223018173Y-82193504D01*
X223041971Y-82199465D01*
X223065071Y-82207730D01*
X223087249Y-82218220D01*
X223108293Y-82230833D01*
X223127998Y-82245447D01*
X223146177Y-82261923D01*
X223162653Y-82280102D01*
X223177267Y-82299807D01*
X223189880Y-82320851D01*
X223200370Y-82343029D01*
X223208635Y-82366129D01*
X223214596Y-82389927D01*
X223218196Y-82414196D01*
X223219400Y-82438700D01*
X223219400Y-83188700D01*
X223218196Y-83213204D01*
X223214596Y-83237473D01*
X223208635Y-83261271D01*
X223200370Y-83284371D01*
X223189880Y-83306549D01*
X223177267Y-83327593D01*
X223162653Y-83347298D01*
X223146177Y-83365477D01*
X223127998Y-83381953D01*
X223108293Y-83396567D01*
X223087249Y-83409180D01*
X223065071Y-83419670D01*
X223041971Y-83427935D01*
X223018173Y-83433896D01*
X222993904Y-83437496D01*
X222969400Y-83438700D01*
X220819400Y-83438700D01*
X220794896Y-83437496D01*
X220770627Y-83433896D01*
X220746829Y-83427935D01*
X220723729Y-83419670D01*
X220701551Y-83409180D01*
X220680507Y-83396567D01*
X220660802Y-83381953D01*
X220642623Y-83365477D01*
X220626147Y-83347298D01*
X220611533Y-83327593D01*
X220598920Y-83306549D01*
X220588430Y-83284371D01*
X220580165Y-83261271D01*
X220574204Y-83237473D01*
X220570604Y-83213204D01*
X220569400Y-83188700D01*
X220569400Y-82438700D01*
X220570604Y-82414196D01*
X220574204Y-82389927D01*
X220580165Y-82366129D01*
X220588430Y-82343029D01*
X220598920Y-82320851D01*
X220611533Y-82299807D01*
X220626147Y-82280102D01*
X220642623Y-82261923D01*
X220660802Y-82245447D01*
X220680507Y-82230833D01*
X220701551Y-82218220D01*
X220723729Y-82207730D01*
X220746829Y-82199465D01*
X220770627Y-82193504D01*
X220794896Y-82189904D01*
X220819400Y-82188700D01*
X222969400Y-82188700D01*
X222993904Y-82189904D01*
X222993904Y-82189904D01*
G37*
D15*
X221894400Y-82813700D03*
D10*
G36*
X222993904Y-84989904D02*
G01*
X223018173Y-84993504D01*
X223041971Y-84999465D01*
X223065071Y-85007730D01*
X223087249Y-85018220D01*
X223108293Y-85030833D01*
X223127998Y-85045447D01*
X223146177Y-85061923D01*
X223162653Y-85080102D01*
X223177267Y-85099807D01*
X223189880Y-85120851D01*
X223200370Y-85143029D01*
X223208635Y-85166129D01*
X223214596Y-85189927D01*
X223218196Y-85214196D01*
X223219400Y-85238700D01*
X223219400Y-85988700D01*
X223218196Y-86013204D01*
X223214596Y-86037473D01*
X223208635Y-86061271D01*
X223200370Y-86084371D01*
X223189880Y-86106549D01*
X223177267Y-86127593D01*
X223162653Y-86147298D01*
X223146177Y-86165477D01*
X223127998Y-86181953D01*
X223108293Y-86196567D01*
X223087249Y-86209180D01*
X223065071Y-86219670D01*
X223041971Y-86227935D01*
X223018173Y-86233896D01*
X222993904Y-86237496D01*
X222969400Y-86238700D01*
X220819400Y-86238700D01*
X220794896Y-86237496D01*
X220770627Y-86233896D01*
X220746829Y-86227935D01*
X220723729Y-86219670D01*
X220701551Y-86209180D01*
X220680507Y-86196567D01*
X220660802Y-86181953D01*
X220642623Y-86165477D01*
X220626147Y-86147298D01*
X220611533Y-86127593D01*
X220598920Y-86106549D01*
X220588430Y-86084371D01*
X220580165Y-86061271D01*
X220574204Y-86037473D01*
X220570604Y-86013204D01*
X220569400Y-85988700D01*
X220569400Y-85238700D01*
X220570604Y-85214196D01*
X220574204Y-85189927D01*
X220580165Y-85166129D01*
X220588430Y-85143029D01*
X220598920Y-85120851D01*
X220611533Y-85099807D01*
X220626147Y-85080102D01*
X220642623Y-85061923D01*
X220660802Y-85045447D01*
X220680507Y-85030833D01*
X220701551Y-85018220D01*
X220723729Y-85007730D01*
X220746829Y-84999465D01*
X220770627Y-84993504D01*
X220794896Y-84989904D01*
X220819400Y-84988700D01*
X222969400Y-84988700D01*
X222993904Y-84989904D01*
X222993904Y-84989904D01*
G37*
D15*
X221894400Y-85613700D03*
D10*
G36*
X228027142Y-79958874D02*
G01*
X228050803Y-79962384D01*
X228074007Y-79968196D01*
X228096529Y-79976254D01*
X228118153Y-79986482D01*
X228138670Y-79998779D01*
X228157883Y-80013029D01*
X228175607Y-80029093D01*
X228191671Y-80046817D01*
X228205921Y-80066030D01*
X228218218Y-80086547D01*
X228228446Y-80108171D01*
X228236504Y-80130693D01*
X228242316Y-80153897D01*
X228245826Y-80177558D01*
X228247000Y-80201450D01*
X228247000Y-81113950D01*
X228245826Y-81137842D01*
X228242316Y-81161503D01*
X228236504Y-81184707D01*
X228228446Y-81207229D01*
X228218218Y-81228853D01*
X228205921Y-81249370D01*
X228191671Y-81268583D01*
X228175607Y-81286307D01*
X228157883Y-81302371D01*
X228138670Y-81316621D01*
X228118153Y-81328918D01*
X228096529Y-81339146D01*
X228074007Y-81347204D01*
X228050803Y-81353016D01*
X228027142Y-81356526D01*
X228003250Y-81357700D01*
X227515750Y-81357700D01*
X227491858Y-81356526D01*
X227468197Y-81353016D01*
X227444993Y-81347204D01*
X227422471Y-81339146D01*
X227400847Y-81328918D01*
X227380330Y-81316621D01*
X227361117Y-81302371D01*
X227343393Y-81286307D01*
X227327329Y-81268583D01*
X227313079Y-81249370D01*
X227300782Y-81228853D01*
X227290554Y-81207229D01*
X227282496Y-81184707D01*
X227276684Y-81161503D01*
X227273174Y-81137842D01*
X227272000Y-81113950D01*
X227272000Y-80201450D01*
X227273174Y-80177558D01*
X227276684Y-80153897D01*
X227282496Y-80130693D01*
X227290554Y-80108171D01*
X227300782Y-80086547D01*
X227313079Y-80066030D01*
X227327329Y-80046817D01*
X227343393Y-80029093D01*
X227361117Y-80013029D01*
X227380330Y-79998779D01*
X227400847Y-79986482D01*
X227422471Y-79976254D01*
X227444993Y-79968196D01*
X227468197Y-79962384D01*
X227491858Y-79958874D01*
X227515750Y-79957700D01*
X228003250Y-79957700D01*
X228027142Y-79958874D01*
X228027142Y-79958874D01*
G37*
D13*
X227759500Y-80657700D03*
D10*
G36*
X226152142Y-79958874D02*
G01*
X226175803Y-79962384D01*
X226199007Y-79968196D01*
X226221529Y-79976254D01*
X226243153Y-79986482D01*
X226263670Y-79998779D01*
X226282883Y-80013029D01*
X226300607Y-80029093D01*
X226316671Y-80046817D01*
X226330921Y-80066030D01*
X226343218Y-80086547D01*
X226353446Y-80108171D01*
X226361504Y-80130693D01*
X226367316Y-80153897D01*
X226370826Y-80177558D01*
X226372000Y-80201450D01*
X226372000Y-81113950D01*
X226370826Y-81137842D01*
X226367316Y-81161503D01*
X226361504Y-81184707D01*
X226353446Y-81207229D01*
X226343218Y-81228853D01*
X226330921Y-81249370D01*
X226316671Y-81268583D01*
X226300607Y-81286307D01*
X226282883Y-81302371D01*
X226263670Y-81316621D01*
X226243153Y-81328918D01*
X226221529Y-81339146D01*
X226199007Y-81347204D01*
X226175803Y-81353016D01*
X226152142Y-81356526D01*
X226128250Y-81357700D01*
X225640750Y-81357700D01*
X225616858Y-81356526D01*
X225593197Y-81353016D01*
X225569993Y-81347204D01*
X225547471Y-81339146D01*
X225525847Y-81328918D01*
X225505330Y-81316621D01*
X225486117Y-81302371D01*
X225468393Y-81286307D01*
X225452329Y-81268583D01*
X225438079Y-81249370D01*
X225425782Y-81228853D01*
X225415554Y-81207229D01*
X225407496Y-81184707D01*
X225401684Y-81161503D01*
X225398174Y-81137842D01*
X225397000Y-81113950D01*
X225397000Y-80201450D01*
X225398174Y-80177558D01*
X225401684Y-80153897D01*
X225407496Y-80130693D01*
X225415554Y-80108171D01*
X225425782Y-80086547D01*
X225438079Y-80066030D01*
X225452329Y-80046817D01*
X225468393Y-80029093D01*
X225486117Y-80013029D01*
X225505330Y-79998779D01*
X225525847Y-79986482D01*
X225547471Y-79976254D01*
X225569993Y-79968196D01*
X225593197Y-79962384D01*
X225616858Y-79958874D01*
X225640750Y-79957700D01*
X226128250Y-79957700D01*
X226152142Y-79958874D01*
X226152142Y-79958874D01*
G37*
D13*
X225884500Y-80657700D03*
D10*
G36*
X219783742Y-85122074D02*
G01*
X219807403Y-85125584D01*
X219830607Y-85131396D01*
X219853129Y-85139454D01*
X219874753Y-85149682D01*
X219895270Y-85161979D01*
X219914483Y-85176229D01*
X219932207Y-85192293D01*
X219948271Y-85210017D01*
X219962521Y-85229230D01*
X219974818Y-85249747D01*
X219985046Y-85271371D01*
X219993104Y-85293893D01*
X219998916Y-85317097D01*
X220002426Y-85340758D01*
X220003600Y-85364650D01*
X220003600Y-85852150D01*
X220002426Y-85876042D01*
X219998916Y-85899703D01*
X219993104Y-85922907D01*
X219985046Y-85945429D01*
X219974818Y-85967053D01*
X219962521Y-85987570D01*
X219948271Y-86006783D01*
X219932207Y-86024507D01*
X219914483Y-86040571D01*
X219895270Y-86054821D01*
X219874753Y-86067118D01*
X219853129Y-86077346D01*
X219830607Y-86085404D01*
X219807403Y-86091216D01*
X219783742Y-86094726D01*
X219759850Y-86095900D01*
X218847350Y-86095900D01*
X218823458Y-86094726D01*
X218799797Y-86091216D01*
X218776593Y-86085404D01*
X218754071Y-86077346D01*
X218732447Y-86067118D01*
X218711930Y-86054821D01*
X218692717Y-86040571D01*
X218674993Y-86024507D01*
X218658929Y-86006783D01*
X218644679Y-85987570D01*
X218632382Y-85967053D01*
X218622154Y-85945429D01*
X218614096Y-85922907D01*
X218608284Y-85899703D01*
X218604774Y-85876042D01*
X218603600Y-85852150D01*
X218603600Y-85364650D01*
X218604774Y-85340758D01*
X218608284Y-85317097D01*
X218614096Y-85293893D01*
X218622154Y-85271371D01*
X218632382Y-85249747D01*
X218644679Y-85229230D01*
X218658929Y-85210017D01*
X218674993Y-85192293D01*
X218692717Y-85176229D01*
X218711930Y-85161979D01*
X218732447Y-85149682D01*
X218754071Y-85139454D01*
X218776593Y-85131396D01*
X218799797Y-85125584D01*
X218823458Y-85122074D01*
X218847350Y-85120900D01*
X219759850Y-85120900D01*
X219783742Y-85122074D01*
X219783742Y-85122074D01*
G37*
D13*
X219303600Y-85608400D03*
D10*
G36*
X219783742Y-83247074D02*
G01*
X219807403Y-83250584D01*
X219830607Y-83256396D01*
X219853129Y-83264454D01*
X219874753Y-83274682D01*
X219895270Y-83286979D01*
X219914483Y-83301229D01*
X219932207Y-83317293D01*
X219948271Y-83335017D01*
X219962521Y-83354230D01*
X219974818Y-83374747D01*
X219985046Y-83396371D01*
X219993104Y-83418893D01*
X219998916Y-83442097D01*
X220002426Y-83465758D01*
X220003600Y-83489650D01*
X220003600Y-83977150D01*
X220002426Y-84001042D01*
X219998916Y-84024703D01*
X219993104Y-84047907D01*
X219985046Y-84070429D01*
X219974818Y-84092053D01*
X219962521Y-84112570D01*
X219948271Y-84131783D01*
X219932207Y-84149507D01*
X219914483Y-84165571D01*
X219895270Y-84179821D01*
X219874753Y-84192118D01*
X219853129Y-84202346D01*
X219830607Y-84210404D01*
X219807403Y-84216216D01*
X219783742Y-84219726D01*
X219759850Y-84220900D01*
X218847350Y-84220900D01*
X218823458Y-84219726D01*
X218799797Y-84216216D01*
X218776593Y-84210404D01*
X218754071Y-84202346D01*
X218732447Y-84192118D01*
X218711930Y-84179821D01*
X218692717Y-84165571D01*
X218674993Y-84149507D01*
X218658929Y-84131783D01*
X218644679Y-84112570D01*
X218632382Y-84092053D01*
X218622154Y-84070429D01*
X218614096Y-84047907D01*
X218608284Y-84024703D01*
X218604774Y-84001042D01*
X218603600Y-83977150D01*
X218603600Y-83489650D01*
X218604774Y-83465758D01*
X218608284Y-83442097D01*
X218614096Y-83418893D01*
X218622154Y-83396371D01*
X218632382Y-83374747D01*
X218644679Y-83354230D01*
X218658929Y-83335017D01*
X218674993Y-83317293D01*
X218692717Y-83301229D01*
X218711930Y-83286979D01*
X218732447Y-83274682D01*
X218754071Y-83264454D01*
X218776593Y-83256396D01*
X218799797Y-83250584D01*
X218823458Y-83247074D01*
X218847350Y-83245900D01*
X219759850Y-83245900D01*
X219783742Y-83247074D01*
X219783742Y-83247074D01*
G37*
D13*
X219303600Y-83733400D03*
D16*
X97977200Y-71846400D03*
X97977200Y-73746400D03*
X95977200Y-72796400D03*
D10*
G36*
X220457942Y-70979974D02*
G01*
X220481603Y-70983484D01*
X220504807Y-70989296D01*
X220527329Y-70997354D01*
X220548953Y-71007582D01*
X220569470Y-71019879D01*
X220588683Y-71034129D01*
X220606407Y-71050193D01*
X220622471Y-71067917D01*
X220636721Y-71087130D01*
X220649018Y-71107647D01*
X220659246Y-71129271D01*
X220667304Y-71151793D01*
X220673116Y-71174997D01*
X220676626Y-71198658D01*
X220677800Y-71222550D01*
X220677800Y-72135050D01*
X220676626Y-72158942D01*
X220673116Y-72182603D01*
X220667304Y-72205807D01*
X220659246Y-72228329D01*
X220649018Y-72249953D01*
X220636721Y-72270470D01*
X220622471Y-72289683D01*
X220606407Y-72307407D01*
X220588683Y-72323471D01*
X220569470Y-72337721D01*
X220548953Y-72350018D01*
X220527329Y-72360246D01*
X220504807Y-72368304D01*
X220481603Y-72374116D01*
X220457942Y-72377626D01*
X220434050Y-72378800D01*
X219946550Y-72378800D01*
X219922658Y-72377626D01*
X219898997Y-72374116D01*
X219875793Y-72368304D01*
X219853271Y-72360246D01*
X219831647Y-72350018D01*
X219811130Y-72337721D01*
X219791917Y-72323471D01*
X219774193Y-72307407D01*
X219758129Y-72289683D01*
X219743879Y-72270470D01*
X219731582Y-72249953D01*
X219721354Y-72228329D01*
X219713296Y-72205807D01*
X219707484Y-72182603D01*
X219703974Y-72158942D01*
X219702800Y-72135050D01*
X219702800Y-71222550D01*
X219703974Y-71198658D01*
X219707484Y-71174997D01*
X219713296Y-71151793D01*
X219721354Y-71129271D01*
X219731582Y-71107647D01*
X219743879Y-71087130D01*
X219758129Y-71067917D01*
X219774193Y-71050193D01*
X219791917Y-71034129D01*
X219811130Y-71019879D01*
X219831647Y-71007582D01*
X219853271Y-70997354D01*
X219875793Y-70989296D01*
X219898997Y-70983484D01*
X219922658Y-70979974D01*
X219946550Y-70978800D01*
X220434050Y-70978800D01*
X220457942Y-70979974D01*
X220457942Y-70979974D01*
G37*
D13*
X220190300Y-71678800D03*
D10*
G36*
X218582942Y-70979974D02*
G01*
X218606603Y-70983484D01*
X218629807Y-70989296D01*
X218652329Y-70997354D01*
X218673953Y-71007582D01*
X218694470Y-71019879D01*
X218713683Y-71034129D01*
X218731407Y-71050193D01*
X218747471Y-71067917D01*
X218761721Y-71087130D01*
X218774018Y-71107647D01*
X218784246Y-71129271D01*
X218792304Y-71151793D01*
X218798116Y-71174997D01*
X218801626Y-71198658D01*
X218802800Y-71222550D01*
X218802800Y-72135050D01*
X218801626Y-72158942D01*
X218798116Y-72182603D01*
X218792304Y-72205807D01*
X218784246Y-72228329D01*
X218774018Y-72249953D01*
X218761721Y-72270470D01*
X218747471Y-72289683D01*
X218731407Y-72307407D01*
X218713683Y-72323471D01*
X218694470Y-72337721D01*
X218673953Y-72350018D01*
X218652329Y-72360246D01*
X218629807Y-72368304D01*
X218606603Y-72374116D01*
X218582942Y-72377626D01*
X218559050Y-72378800D01*
X218071550Y-72378800D01*
X218047658Y-72377626D01*
X218023997Y-72374116D01*
X218000793Y-72368304D01*
X217978271Y-72360246D01*
X217956647Y-72350018D01*
X217936130Y-72337721D01*
X217916917Y-72323471D01*
X217899193Y-72307407D01*
X217883129Y-72289683D01*
X217868879Y-72270470D01*
X217856582Y-72249953D01*
X217846354Y-72228329D01*
X217838296Y-72205807D01*
X217832484Y-72182603D01*
X217828974Y-72158942D01*
X217827800Y-72135050D01*
X217827800Y-71222550D01*
X217828974Y-71198658D01*
X217832484Y-71174997D01*
X217838296Y-71151793D01*
X217846354Y-71129271D01*
X217856582Y-71107647D01*
X217868879Y-71087130D01*
X217883129Y-71067917D01*
X217899193Y-71050193D01*
X217916917Y-71034129D01*
X217936130Y-71019879D01*
X217956647Y-71007582D01*
X217978271Y-70997354D01*
X218000793Y-70989296D01*
X218023997Y-70983484D01*
X218047658Y-70979974D01*
X218071550Y-70978800D01*
X218559050Y-70978800D01*
X218582942Y-70979974D01*
X218582942Y-70979974D01*
G37*
D13*
X218315300Y-71678800D03*
D10*
G36*
X218582942Y-72961174D02*
G01*
X218606603Y-72964684D01*
X218629807Y-72970496D01*
X218652329Y-72978554D01*
X218673953Y-72988782D01*
X218694470Y-73001079D01*
X218713683Y-73015329D01*
X218731407Y-73031393D01*
X218747471Y-73049117D01*
X218761721Y-73068330D01*
X218774018Y-73088847D01*
X218784246Y-73110471D01*
X218792304Y-73132993D01*
X218798116Y-73156197D01*
X218801626Y-73179858D01*
X218802800Y-73203750D01*
X218802800Y-74116250D01*
X218801626Y-74140142D01*
X218798116Y-74163803D01*
X218792304Y-74187007D01*
X218784246Y-74209529D01*
X218774018Y-74231153D01*
X218761721Y-74251670D01*
X218747471Y-74270883D01*
X218731407Y-74288607D01*
X218713683Y-74304671D01*
X218694470Y-74318921D01*
X218673953Y-74331218D01*
X218652329Y-74341446D01*
X218629807Y-74349504D01*
X218606603Y-74355316D01*
X218582942Y-74358826D01*
X218559050Y-74360000D01*
X218071550Y-74360000D01*
X218047658Y-74358826D01*
X218023997Y-74355316D01*
X218000793Y-74349504D01*
X217978271Y-74341446D01*
X217956647Y-74331218D01*
X217936130Y-74318921D01*
X217916917Y-74304671D01*
X217899193Y-74288607D01*
X217883129Y-74270883D01*
X217868879Y-74251670D01*
X217856582Y-74231153D01*
X217846354Y-74209529D01*
X217838296Y-74187007D01*
X217832484Y-74163803D01*
X217828974Y-74140142D01*
X217827800Y-74116250D01*
X217827800Y-73203750D01*
X217828974Y-73179858D01*
X217832484Y-73156197D01*
X217838296Y-73132993D01*
X217846354Y-73110471D01*
X217856582Y-73088847D01*
X217868879Y-73068330D01*
X217883129Y-73049117D01*
X217899193Y-73031393D01*
X217916917Y-73015329D01*
X217936130Y-73001079D01*
X217956647Y-72988782D01*
X217978271Y-72978554D01*
X218000793Y-72970496D01*
X218023997Y-72964684D01*
X218047658Y-72961174D01*
X218071550Y-72960000D01*
X218559050Y-72960000D01*
X218582942Y-72961174D01*
X218582942Y-72961174D01*
G37*
D13*
X218315300Y-73660000D03*
D10*
G36*
X220457942Y-72961174D02*
G01*
X220481603Y-72964684D01*
X220504807Y-72970496D01*
X220527329Y-72978554D01*
X220548953Y-72988782D01*
X220569470Y-73001079D01*
X220588683Y-73015329D01*
X220606407Y-73031393D01*
X220622471Y-73049117D01*
X220636721Y-73068330D01*
X220649018Y-73088847D01*
X220659246Y-73110471D01*
X220667304Y-73132993D01*
X220673116Y-73156197D01*
X220676626Y-73179858D01*
X220677800Y-73203750D01*
X220677800Y-74116250D01*
X220676626Y-74140142D01*
X220673116Y-74163803D01*
X220667304Y-74187007D01*
X220659246Y-74209529D01*
X220649018Y-74231153D01*
X220636721Y-74251670D01*
X220622471Y-74270883D01*
X220606407Y-74288607D01*
X220588683Y-74304671D01*
X220569470Y-74318921D01*
X220548953Y-74331218D01*
X220527329Y-74341446D01*
X220504807Y-74349504D01*
X220481603Y-74355316D01*
X220457942Y-74358826D01*
X220434050Y-74360000D01*
X219946550Y-74360000D01*
X219922658Y-74358826D01*
X219898997Y-74355316D01*
X219875793Y-74349504D01*
X219853271Y-74341446D01*
X219831647Y-74331218D01*
X219811130Y-74318921D01*
X219791917Y-74304671D01*
X219774193Y-74288607D01*
X219758129Y-74270883D01*
X219743879Y-74251670D01*
X219731582Y-74231153D01*
X219721354Y-74209529D01*
X219713296Y-74187007D01*
X219707484Y-74163803D01*
X219703974Y-74140142D01*
X219702800Y-74116250D01*
X219702800Y-73203750D01*
X219703974Y-73179858D01*
X219707484Y-73156197D01*
X219713296Y-73132993D01*
X219721354Y-73110471D01*
X219731582Y-73088847D01*
X219743879Y-73068330D01*
X219758129Y-73049117D01*
X219774193Y-73031393D01*
X219791917Y-73015329D01*
X219811130Y-73001079D01*
X219831647Y-72988782D01*
X219853271Y-72978554D01*
X219875793Y-72970496D01*
X219898997Y-72964684D01*
X219922658Y-72961174D01*
X219946550Y-72960000D01*
X220434050Y-72960000D01*
X220457942Y-72961174D01*
X220457942Y-72961174D01*
G37*
D13*
X220190300Y-73660000D03*
D10*
G36*
X220457942Y-74942374D02*
G01*
X220481603Y-74945884D01*
X220504807Y-74951696D01*
X220527329Y-74959754D01*
X220548953Y-74969982D01*
X220569470Y-74982279D01*
X220588683Y-74996529D01*
X220606407Y-75012593D01*
X220622471Y-75030317D01*
X220636721Y-75049530D01*
X220649018Y-75070047D01*
X220659246Y-75091671D01*
X220667304Y-75114193D01*
X220673116Y-75137397D01*
X220676626Y-75161058D01*
X220677800Y-75184950D01*
X220677800Y-76097450D01*
X220676626Y-76121342D01*
X220673116Y-76145003D01*
X220667304Y-76168207D01*
X220659246Y-76190729D01*
X220649018Y-76212353D01*
X220636721Y-76232870D01*
X220622471Y-76252083D01*
X220606407Y-76269807D01*
X220588683Y-76285871D01*
X220569470Y-76300121D01*
X220548953Y-76312418D01*
X220527329Y-76322646D01*
X220504807Y-76330704D01*
X220481603Y-76336516D01*
X220457942Y-76340026D01*
X220434050Y-76341200D01*
X219946550Y-76341200D01*
X219922658Y-76340026D01*
X219898997Y-76336516D01*
X219875793Y-76330704D01*
X219853271Y-76322646D01*
X219831647Y-76312418D01*
X219811130Y-76300121D01*
X219791917Y-76285871D01*
X219774193Y-76269807D01*
X219758129Y-76252083D01*
X219743879Y-76232870D01*
X219731582Y-76212353D01*
X219721354Y-76190729D01*
X219713296Y-76168207D01*
X219707484Y-76145003D01*
X219703974Y-76121342D01*
X219702800Y-76097450D01*
X219702800Y-75184950D01*
X219703974Y-75161058D01*
X219707484Y-75137397D01*
X219713296Y-75114193D01*
X219721354Y-75091671D01*
X219731582Y-75070047D01*
X219743879Y-75049530D01*
X219758129Y-75030317D01*
X219774193Y-75012593D01*
X219791917Y-74996529D01*
X219811130Y-74982279D01*
X219831647Y-74969982D01*
X219853271Y-74959754D01*
X219875793Y-74951696D01*
X219898997Y-74945884D01*
X219922658Y-74942374D01*
X219946550Y-74941200D01*
X220434050Y-74941200D01*
X220457942Y-74942374D01*
X220457942Y-74942374D01*
G37*
D13*
X220190300Y-75641200D03*
D10*
G36*
X218582942Y-74942374D02*
G01*
X218606603Y-74945884D01*
X218629807Y-74951696D01*
X218652329Y-74959754D01*
X218673953Y-74969982D01*
X218694470Y-74982279D01*
X218713683Y-74996529D01*
X218731407Y-75012593D01*
X218747471Y-75030317D01*
X218761721Y-75049530D01*
X218774018Y-75070047D01*
X218784246Y-75091671D01*
X218792304Y-75114193D01*
X218798116Y-75137397D01*
X218801626Y-75161058D01*
X218802800Y-75184950D01*
X218802800Y-76097450D01*
X218801626Y-76121342D01*
X218798116Y-76145003D01*
X218792304Y-76168207D01*
X218784246Y-76190729D01*
X218774018Y-76212353D01*
X218761721Y-76232870D01*
X218747471Y-76252083D01*
X218731407Y-76269807D01*
X218713683Y-76285871D01*
X218694470Y-76300121D01*
X218673953Y-76312418D01*
X218652329Y-76322646D01*
X218629807Y-76330704D01*
X218606603Y-76336516D01*
X218582942Y-76340026D01*
X218559050Y-76341200D01*
X218071550Y-76341200D01*
X218047658Y-76340026D01*
X218023997Y-76336516D01*
X218000793Y-76330704D01*
X217978271Y-76322646D01*
X217956647Y-76312418D01*
X217936130Y-76300121D01*
X217916917Y-76285871D01*
X217899193Y-76269807D01*
X217883129Y-76252083D01*
X217868879Y-76232870D01*
X217856582Y-76212353D01*
X217846354Y-76190729D01*
X217838296Y-76168207D01*
X217832484Y-76145003D01*
X217828974Y-76121342D01*
X217827800Y-76097450D01*
X217827800Y-75184950D01*
X217828974Y-75161058D01*
X217832484Y-75137397D01*
X217838296Y-75114193D01*
X217846354Y-75091671D01*
X217856582Y-75070047D01*
X217868879Y-75049530D01*
X217883129Y-75030317D01*
X217899193Y-75012593D01*
X217916917Y-74996529D01*
X217936130Y-74982279D01*
X217956647Y-74969982D01*
X217978271Y-74959754D01*
X218000793Y-74951696D01*
X218023997Y-74945884D01*
X218047658Y-74942374D01*
X218071550Y-74941200D01*
X218559050Y-74941200D01*
X218582942Y-74942374D01*
X218582942Y-74942374D01*
G37*
D13*
X218315300Y-75641200D03*
D10*
G36*
X218582942Y-76923574D02*
G01*
X218606603Y-76927084D01*
X218629807Y-76932896D01*
X218652329Y-76940954D01*
X218673953Y-76951182D01*
X218694470Y-76963479D01*
X218713683Y-76977729D01*
X218731407Y-76993793D01*
X218747471Y-77011517D01*
X218761721Y-77030730D01*
X218774018Y-77051247D01*
X218784246Y-77072871D01*
X218792304Y-77095393D01*
X218798116Y-77118597D01*
X218801626Y-77142258D01*
X218802800Y-77166150D01*
X218802800Y-78078650D01*
X218801626Y-78102542D01*
X218798116Y-78126203D01*
X218792304Y-78149407D01*
X218784246Y-78171929D01*
X218774018Y-78193553D01*
X218761721Y-78214070D01*
X218747471Y-78233283D01*
X218731407Y-78251007D01*
X218713683Y-78267071D01*
X218694470Y-78281321D01*
X218673953Y-78293618D01*
X218652329Y-78303846D01*
X218629807Y-78311904D01*
X218606603Y-78317716D01*
X218582942Y-78321226D01*
X218559050Y-78322400D01*
X218071550Y-78322400D01*
X218047658Y-78321226D01*
X218023997Y-78317716D01*
X218000793Y-78311904D01*
X217978271Y-78303846D01*
X217956647Y-78293618D01*
X217936130Y-78281321D01*
X217916917Y-78267071D01*
X217899193Y-78251007D01*
X217883129Y-78233283D01*
X217868879Y-78214070D01*
X217856582Y-78193553D01*
X217846354Y-78171929D01*
X217838296Y-78149407D01*
X217832484Y-78126203D01*
X217828974Y-78102542D01*
X217827800Y-78078650D01*
X217827800Y-77166150D01*
X217828974Y-77142258D01*
X217832484Y-77118597D01*
X217838296Y-77095393D01*
X217846354Y-77072871D01*
X217856582Y-77051247D01*
X217868879Y-77030730D01*
X217883129Y-77011517D01*
X217899193Y-76993793D01*
X217916917Y-76977729D01*
X217936130Y-76963479D01*
X217956647Y-76951182D01*
X217978271Y-76940954D01*
X218000793Y-76932896D01*
X218023997Y-76927084D01*
X218047658Y-76923574D01*
X218071550Y-76922400D01*
X218559050Y-76922400D01*
X218582942Y-76923574D01*
X218582942Y-76923574D01*
G37*
D13*
X218315300Y-77622400D03*
D10*
G36*
X220457942Y-76923574D02*
G01*
X220481603Y-76927084D01*
X220504807Y-76932896D01*
X220527329Y-76940954D01*
X220548953Y-76951182D01*
X220569470Y-76963479D01*
X220588683Y-76977729D01*
X220606407Y-76993793D01*
X220622471Y-77011517D01*
X220636721Y-77030730D01*
X220649018Y-77051247D01*
X220659246Y-77072871D01*
X220667304Y-77095393D01*
X220673116Y-77118597D01*
X220676626Y-77142258D01*
X220677800Y-77166150D01*
X220677800Y-78078650D01*
X220676626Y-78102542D01*
X220673116Y-78126203D01*
X220667304Y-78149407D01*
X220659246Y-78171929D01*
X220649018Y-78193553D01*
X220636721Y-78214070D01*
X220622471Y-78233283D01*
X220606407Y-78251007D01*
X220588683Y-78267071D01*
X220569470Y-78281321D01*
X220548953Y-78293618D01*
X220527329Y-78303846D01*
X220504807Y-78311904D01*
X220481603Y-78317716D01*
X220457942Y-78321226D01*
X220434050Y-78322400D01*
X219946550Y-78322400D01*
X219922658Y-78321226D01*
X219898997Y-78317716D01*
X219875793Y-78311904D01*
X219853271Y-78303846D01*
X219831647Y-78293618D01*
X219811130Y-78281321D01*
X219791917Y-78267071D01*
X219774193Y-78251007D01*
X219758129Y-78233283D01*
X219743879Y-78214070D01*
X219731582Y-78193553D01*
X219721354Y-78171929D01*
X219713296Y-78149407D01*
X219707484Y-78126203D01*
X219703974Y-78102542D01*
X219702800Y-78078650D01*
X219702800Y-77166150D01*
X219703974Y-77142258D01*
X219707484Y-77118597D01*
X219713296Y-77095393D01*
X219721354Y-77072871D01*
X219731582Y-77051247D01*
X219743879Y-77030730D01*
X219758129Y-77011517D01*
X219774193Y-76993793D01*
X219791917Y-76977729D01*
X219811130Y-76963479D01*
X219831647Y-76951182D01*
X219853271Y-76940954D01*
X219875793Y-76932896D01*
X219898997Y-76927084D01*
X219922658Y-76923574D01*
X219946550Y-76922400D01*
X220434050Y-76922400D01*
X220457942Y-76923574D01*
X220457942Y-76923574D01*
G37*
D13*
X220190300Y-77622400D03*
D10*
G36*
X219225691Y-59939453D02*
G01*
X219246926Y-59942603D01*
X219267750Y-59947819D01*
X219287962Y-59955051D01*
X219307368Y-59964230D01*
X219325781Y-59975266D01*
X219343024Y-59988054D01*
X219358930Y-60002470D01*
X219373346Y-60018376D01*
X219386134Y-60035619D01*
X219397170Y-60054032D01*
X219406349Y-60073438D01*
X219413581Y-60093650D01*
X219418797Y-60114474D01*
X219421947Y-60135709D01*
X219423000Y-60157150D01*
X219423000Y-60594650D01*
X219421947Y-60616091D01*
X219418797Y-60637326D01*
X219413581Y-60658150D01*
X219406349Y-60678362D01*
X219397170Y-60697768D01*
X219386134Y-60716181D01*
X219373346Y-60733424D01*
X219358930Y-60749330D01*
X219343024Y-60763746D01*
X219325781Y-60776534D01*
X219307368Y-60787570D01*
X219287962Y-60796749D01*
X219267750Y-60803981D01*
X219246926Y-60809197D01*
X219225691Y-60812347D01*
X219204250Y-60813400D01*
X218691750Y-60813400D01*
X218670309Y-60812347D01*
X218649074Y-60809197D01*
X218628250Y-60803981D01*
X218608038Y-60796749D01*
X218588632Y-60787570D01*
X218570219Y-60776534D01*
X218552976Y-60763746D01*
X218537070Y-60749330D01*
X218522654Y-60733424D01*
X218509866Y-60716181D01*
X218498830Y-60697768D01*
X218489651Y-60678362D01*
X218482419Y-60658150D01*
X218477203Y-60637326D01*
X218474053Y-60616091D01*
X218473000Y-60594650D01*
X218473000Y-60157150D01*
X218474053Y-60135709D01*
X218477203Y-60114474D01*
X218482419Y-60093650D01*
X218489651Y-60073438D01*
X218498830Y-60054032D01*
X218509866Y-60035619D01*
X218522654Y-60018376D01*
X218537070Y-60002470D01*
X218552976Y-59988054D01*
X218570219Y-59975266D01*
X218588632Y-59964230D01*
X218608038Y-59955051D01*
X218628250Y-59947819D01*
X218649074Y-59942603D01*
X218670309Y-59939453D01*
X218691750Y-59938400D01*
X219204250Y-59938400D01*
X219225691Y-59939453D01*
X219225691Y-59939453D01*
G37*
D14*
X218948000Y-60375900D03*
D10*
G36*
X219225691Y-58364453D02*
G01*
X219246926Y-58367603D01*
X219267750Y-58372819D01*
X219287962Y-58380051D01*
X219307368Y-58389230D01*
X219325781Y-58400266D01*
X219343024Y-58413054D01*
X219358930Y-58427470D01*
X219373346Y-58443376D01*
X219386134Y-58460619D01*
X219397170Y-58479032D01*
X219406349Y-58498438D01*
X219413581Y-58518650D01*
X219418797Y-58539474D01*
X219421947Y-58560709D01*
X219423000Y-58582150D01*
X219423000Y-59019650D01*
X219421947Y-59041091D01*
X219418797Y-59062326D01*
X219413581Y-59083150D01*
X219406349Y-59103362D01*
X219397170Y-59122768D01*
X219386134Y-59141181D01*
X219373346Y-59158424D01*
X219358930Y-59174330D01*
X219343024Y-59188746D01*
X219325781Y-59201534D01*
X219307368Y-59212570D01*
X219287962Y-59221749D01*
X219267750Y-59228981D01*
X219246926Y-59234197D01*
X219225691Y-59237347D01*
X219204250Y-59238400D01*
X218691750Y-59238400D01*
X218670309Y-59237347D01*
X218649074Y-59234197D01*
X218628250Y-59228981D01*
X218608038Y-59221749D01*
X218588632Y-59212570D01*
X218570219Y-59201534D01*
X218552976Y-59188746D01*
X218537070Y-59174330D01*
X218522654Y-59158424D01*
X218509866Y-59141181D01*
X218498830Y-59122768D01*
X218489651Y-59103362D01*
X218482419Y-59083150D01*
X218477203Y-59062326D01*
X218474053Y-59041091D01*
X218473000Y-59019650D01*
X218473000Y-58582150D01*
X218474053Y-58560709D01*
X218477203Y-58539474D01*
X218482419Y-58518650D01*
X218489651Y-58498438D01*
X218498830Y-58479032D01*
X218509866Y-58460619D01*
X218522654Y-58443376D01*
X218537070Y-58427470D01*
X218552976Y-58413054D01*
X218570219Y-58400266D01*
X218588632Y-58389230D01*
X218608038Y-58380051D01*
X218628250Y-58372819D01*
X218649074Y-58367603D01*
X218670309Y-58364453D01*
X218691750Y-58363400D01*
X219204250Y-58363400D01*
X219225691Y-58364453D01*
X219225691Y-58364453D01*
G37*
D14*
X218948000Y-58800900D03*
D10*
G36*
X220749691Y-59939453D02*
G01*
X220770926Y-59942603D01*
X220791750Y-59947819D01*
X220811962Y-59955051D01*
X220831368Y-59964230D01*
X220849781Y-59975266D01*
X220867024Y-59988054D01*
X220882930Y-60002470D01*
X220897346Y-60018376D01*
X220910134Y-60035619D01*
X220921170Y-60054032D01*
X220930349Y-60073438D01*
X220937581Y-60093650D01*
X220942797Y-60114474D01*
X220945947Y-60135709D01*
X220947000Y-60157150D01*
X220947000Y-60594650D01*
X220945947Y-60616091D01*
X220942797Y-60637326D01*
X220937581Y-60658150D01*
X220930349Y-60678362D01*
X220921170Y-60697768D01*
X220910134Y-60716181D01*
X220897346Y-60733424D01*
X220882930Y-60749330D01*
X220867024Y-60763746D01*
X220849781Y-60776534D01*
X220831368Y-60787570D01*
X220811962Y-60796749D01*
X220791750Y-60803981D01*
X220770926Y-60809197D01*
X220749691Y-60812347D01*
X220728250Y-60813400D01*
X220215750Y-60813400D01*
X220194309Y-60812347D01*
X220173074Y-60809197D01*
X220152250Y-60803981D01*
X220132038Y-60796749D01*
X220112632Y-60787570D01*
X220094219Y-60776534D01*
X220076976Y-60763746D01*
X220061070Y-60749330D01*
X220046654Y-60733424D01*
X220033866Y-60716181D01*
X220022830Y-60697768D01*
X220013651Y-60678362D01*
X220006419Y-60658150D01*
X220001203Y-60637326D01*
X219998053Y-60616091D01*
X219997000Y-60594650D01*
X219997000Y-60157150D01*
X219998053Y-60135709D01*
X220001203Y-60114474D01*
X220006419Y-60093650D01*
X220013651Y-60073438D01*
X220022830Y-60054032D01*
X220033866Y-60035619D01*
X220046654Y-60018376D01*
X220061070Y-60002470D01*
X220076976Y-59988054D01*
X220094219Y-59975266D01*
X220112632Y-59964230D01*
X220132038Y-59955051D01*
X220152250Y-59947819D01*
X220173074Y-59942603D01*
X220194309Y-59939453D01*
X220215750Y-59938400D01*
X220728250Y-59938400D01*
X220749691Y-59939453D01*
X220749691Y-59939453D01*
G37*
D14*
X220472000Y-60375900D03*
D10*
G36*
X220749691Y-58364453D02*
G01*
X220770926Y-58367603D01*
X220791750Y-58372819D01*
X220811962Y-58380051D01*
X220831368Y-58389230D01*
X220849781Y-58400266D01*
X220867024Y-58413054D01*
X220882930Y-58427470D01*
X220897346Y-58443376D01*
X220910134Y-58460619D01*
X220921170Y-58479032D01*
X220930349Y-58498438D01*
X220937581Y-58518650D01*
X220942797Y-58539474D01*
X220945947Y-58560709D01*
X220947000Y-58582150D01*
X220947000Y-59019650D01*
X220945947Y-59041091D01*
X220942797Y-59062326D01*
X220937581Y-59083150D01*
X220930349Y-59103362D01*
X220921170Y-59122768D01*
X220910134Y-59141181D01*
X220897346Y-59158424D01*
X220882930Y-59174330D01*
X220867024Y-59188746D01*
X220849781Y-59201534D01*
X220831368Y-59212570D01*
X220811962Y-59221749D01*
X220791750Y-59228981D01*
X220770926Y-59234197D01*
X220749691Y-59237347D01*
X220728250Y-59238400D01*
X220215750Y-59238400D01*
X220194309Y-59237347D01*
X220173074Y-59234197D01*
X220152250Y-59228981D01*
X220132038Y-59221749D01*
X220112632Y-59212570D01*
X220094219Y-59201534D01*
X220076976Y-59188746D01*
X220061070Y-59174330D01*
X220046654Y-59158424D01*
X220033866Y-59141181D01*
X220022830Y-59122768D01*
X220013651Y-59103362D01*
X220006419Y-59083150D01*
X220001203Y-59062326D01*
X219998053Y-59041091D01*
X219997000Y-59019650D01*
X219997000Y-58582150D01*
X219998053Y-58560709D01*
X220001203Y-58539474D01*
X220006419Y-58518650D01*
X220013651Y-58498438D01*
X220022830Y-58479032D01*
X220033866Y-58460619D01*
X220046654Y-58443376D01*
X220061070Y-58427470D01*
X220076976Y-58413054D01*
X220094219Y-58400266D01*
X220112632Y-58389230D01*
X220132038Y-58380051D01*
X220152250Y-58372819D01*
X220173074Y-58367603D01*
X220194309Y-58364453D01*
X220215750Y-58363400D01*
X220728250Y-58363400D01*
X220749691Y-58364453D01*
X220749691Y-58364453D01*
G37*
D14*
X220472000Y-58800900D03*
D10*
G36*
X222273691Y-58338953D02*
G01*
X222294926Y-58342103D01*
X222315750Y-58347319D01*
X222335962Y-58354551D01*
X222355368Y-58363730D01*
X222373781Y-58374766D01*
X222391024Y-58387554D01*
X222406930Y-58401970D01*
X222421346Y-58417876D01*
X222434134Y-58435119D01*
X222445170Y-58453532D01*
X222454349Y-58472938D01*
X222461581Y-58493150D01*
X222466797Y-58513974D01*
X222469947Y-58535209D01*
X222471000Y-58556650D01*
X222471000Y-58994150D01*
X222469947Y-59015591D01*
X222466797Y-59036826D01*
X222461581Y-59057650D01*
X222454349Y-59077862D01*
X222445170Y-59097268D01*
X222434134Y-59115681D01*
X222421346Y-59132924D01*
X222406930Y-59148830D01*
X222391024Y-59163246D01*
X222373781Y-59176034D01*
X222355368Y-59187070D01*
X222335962Y-59196249D01*
X222315750Y-59203481D01*
X222294926Y-59208697D01*
X222273691Y-59211847D01*
X222252250Y-59212900D01*
X221739750Y-59212900D01*
X221718309Y-59211847D01*
X221697074Y-59208697D01*
X221676250Y-59203481D01*
X221656038Y-59196249D01*
X221636632Y-59187070D01*
X221618219Y-59176034D01*
X221600976Y-59163246D01*
X221585070Y-59148830D01*
X221570654Y-59132924D01*
X221557866Y-59115681D01*
X221546830Y-59097268D01*
X221537651Y-59077862D01*
X221530419Y-59057650D01*
X221525203Y-59036826D01*
X221522053Y-59015591D01*
X221521000Y-58994150D01*
X221521000Y-58556650D01*
X221522053Y-58535209D01*
X221525203Y-58513974D01*
X221530419Y-58493150D01*
X221537651Y-58472938D01*
X221546830Y-58453532D01*
X221557866Y-58435119D01*
X221570654Y-58417876D01*
X221585070Y-58401970D01*
X221600976Y-58387554D01*
X221618219Y-58374766D01*
X221636632Y-58363730D01*
X221656038Y-58354551D01*
X221676250Y-58347319D01*
X221697074Y-58342103D01*
X221718309Y-58338953D01*
X221739750Y-58337900D01*
X222252250Y-58337900D01*
X222273691Y-58338953D01*
X222273691Y-58338953D01*
G37*
D14*
X221996000Y-58775400D03*
D10*
G36*
X222273691Y-59913953D02*
G01*
X222294926Y-59917103D01*
X222315750Y-59922319D01*
X222335962Y-59929551D01*
X222355368Y-59938730D01*
X222373781Y-59949766D01*
X222391024Y-59962554D01*
X222406930Y-59976970D01*
X222421346Y-59992876D01*
X222434134Y-60010119D01*
X222445170Y-60028532D01*
X222454349Y-60047938D01*
X222461581Y-60068150D01*
X222466797Y-60088974D01*
X222469947Y-60110209D01*
X222471000Y-60131650D01*
X222471000Y-60569150D01*
X222469947Y-60590591D01*
X222466797Y-60611826D01*
X222461581Y-60632650D01*
X222454349Y-60652862D01*
X222445170Y-60672268D01*
X222434134Y-60690681D01*
X222421346Y-60707924D01*
X222406930Y-60723830D01*
X222391024Y-60738246D01*
X222373781Y-60751034D01*
X222355368Y-60762070D01*
X222335962Y-60771249D01*
X222315750Y-60778481D01*
X222294926Y-60783697D01*
X222273691Y-60786847D01*
X222252250Y-60787900D01*
X221739750Y-60787900D01*
X221718309Y-60786847D01*
X221697074Y-60783697D01*
X221676250Y-60778481D01*
X221656038Y-60771249D01*
X221636632Y-60762070D01*
X221618219Y-60751034D01*
X221600976Y-60738246D01*
X221585070Y-60723830D01*
X221570654Y-60707924D01*
X221557866Y-60690681D01*
X221546830Y-60672268D01*
X221537651Y-60652862D01*
X221530419Y-60632650D01*
X221525203Y-60611826D01*
X221522053Y-60590591D01*
X221521000Y-60569150D01*
X221521000Y-60131650D01*
X221522053Y-60110209D01*
X221525203Y-60088974D01*
X221530419Y-60068150D01*
X221537651Y-60047938D01*
X221546830Y-60028532D01*
X221557866Y-60010119D01*
X221570654Y-59992876D01*
X221585070Y-59976970D01*
X221600976Y-59962554D01*
X221618219Y-59949766D01*
X221636632Y-59938730D01*
X221656038Y-59929551D01*
X221676250Y-59922319D01*
X221697074Y-59917103D01*
X221718309Y-59913953D01*
X221739750Y-59912900D01*
X222252250Y-59912900D01*
X222273691Y-59913953D01*
X222273691Y-59913953D01*
G37*
D14*
X221996000Y-60350400D03*
D10*
G36*
X223847742Y-61364974D02*
G01*
X223871403Y-61368484D01*
X223894607Y-61374296D01*
X223917129Y-61382354D01*
X223938753Y-61392582D01*
X223959270Y-61404879D01*
X223978483Y-61419129D01*
X223996207Y-61435193D01*
X224012271Y-61452917D01*
X224026521Y-61472130D01*
X224038818Y-61492647D01*
X224049046Y-61514271D01*
X224057104Y-61536793D01*
X224062916Y-61559997D01*
X224066426Y-61583658D01*
X224067600Y-61607550D01*
X224067600Y-62095050D01*
X224066426Y-62118942D01*
X224062916Y-62142603D01*
X224057104Y-62165807D01*
X224049046Y-62188329D01*
X224038818Y-62209953D01*
X224026521Y-62230470D01*
X224012271Y-62249683D01*
X223996207Y-62267407D01*
X223978483Y-62283471D01*
X223959270Y-62297721D01*
X223938753Y-62310018D01*
X223917129Y-62320246D01*
X223894607Y-62328304D01*
X223871403Y-62334116D01*
X223847742Y-62337626D01*
X223823850Y-62338800D01*
X222911350Y-62338800D01*
X222887458Y-62337626D01*
X222863797Y-62334116D01*
X222840593Y-62328304D01*
X222818071Y-62320246D01*
X222796447Y-62310018D01*
X222775930Y-62297721D01*
X222756717Y-62283471D01*
X222738993Y-62267407D01*
X222722929Y-62249683D01*
X222708679Y-62230470D01*
X222696382Y-62209953D01*
X222686154Y-62188329D01*
X222678096Y-62165807D01*
X222672284Y-62142603D01*
X222668774Y-62118942D01*
X222667600Y-62095050D01*
X222667600Y-61607550D01*
X222668774Y-61583658D01*
X222672284Y-61559997D01*
X222678096Y-61536793D01*
X222686154Y-61514271D01*
X222696382Y-61492647D01*
X222708679Y-61472130D01*
X222722929Y-61452917D01*
X222738993Y-61435193D01*
X222756717Y-61419129D01*
X222775930Y-61404879D01*
X222796447Y-61392582D01*
X222818071Y-61382354D01*
X222840593Y-61374296D01*
X222863797Y-61368484D01*
X222887458Y-61364974D01*
X222911350Y-61363800D01*
X223823850Y-61363800D01*
X223847742Y-61364974D01*
X223847742Y-61364974D01*
G37*
D13*
X223367600Y-61851300D03*
D10*
G36*
X223847742Y-63239974D02*
G01*
X223871403Y-63243484D01*
X223894607Y-63249296D01*
X223917129Y-63257354D01*
X223938753Y-63267582D01*
X223959270Y-63279879D01*
X223978483Y-63294129D01*
X223996207Y-63310193D01*
X224012271Y-63327917D01*
X224026521Y-63347130D01*
X224038818Y-63367647D01*
X224049046Y-63389271D01*
X224057104Y-63411793D01*
X224062916Y-63434997D01*
X224066426Y-63458658D01*
X224067600Y-63482550D01*
X224067600Y-63970050D01*
X224066426Y-63993942D01*
X224062916Y-64017603D01*
X224057104Y-64040807D01*
X224049046Y-64063329D01*
X224038818Y-64084953D01*
X224026521Y-64105470D01*
X224012271Y-64124683D01*
X223996207Y-64142407D01*
X223978483Y-64158471D01*
X223959270Y-64172721D01*
X223938753Y-64185018D01*
X223917129Y-64195246D01*
X223894607Y-64203304D01*
X223871403Y-64209116D01*
X223847742Y-64212626D01*
X223823850Y-64213800D01*
X222911350Y-64213800D01*
X222887458Y-64212626D01*
X222863797Y-64209116D01*
X222840593Y-64203304D01*
X222818071Y-64195246D01*
X222796447Y-64185018D01*
X222775930Y-64172721D01*
X222756717Y-64158471D01*
X222738993Y-64142407D01*
X222722929Y-64124683D01*
X222708679Y-64105470D01*
X222696382Y-64084953D01*
X222686154Y-64063329D01*
X222678096Y-64040807D01*
X222672284Y-64017603D01*
X222668774Y-63993942D01*
X222667600Y-63970050D01*
X222667600Y-63482550D01*
X222668774Y-63458658D01*
X222672284Y-63434997D01*
X222678096Y-63411793D01*
X222686154Y-63389271D01*
X222696382Y-63367647D01*
X222708679Y-63347130D01*
X222722929Y-63327917D01*
X222738993Y-63310193D01*
X222756717Y-63294129D01*
X222775930Y-63279879D01*
X222796447Y-63267582D01*
X222818071Y-63257354D01*
X222840593Y-63249296D01*
X222863797Y-63243484D01*
X222887458Y-63239974D01*
X222911350Y-63238800D01*
X223823850Y-63238800D01*
X223847742Y-63239974D01*
X223847742Y-63239974D01*
G37*
D13*
X223367600Y-63726300D03*
D10*
G36*
X215788942Y-59448374D02*
G01*
X215812603Y-59451884D01*
X215835807Y-59457696D01*
X215858329Y-59465754D01*
X215879953Y-59475982D01*
X215900470Y-59488279D01*
X215919683Y-59502529D01*
X215937407Y-59518593D01*
X215953471Y-59536317D01*
X215967721Y-59555530D01*
X215980018Y-59576047D01*
X215990246Y-59597671D01*
X215998304Y-59620193D01*
X216004116Y-59643397D01*
X216007626Y-59667058D01*
X216008800Y-59690950D01*
X216008800Y-60603450D01*
X216007626Y-60627342D01*
X216004116Y-60651003D01*
X215998304Y-60674207D01*
X215990246Y-60696729D01*
X215980018Y-60718353D01*
X215967721Y-60738870D01*
X215953471Y-60758083D01*
X215937407Y-60775807D01*
X215919683Y-60791871D01*
X215900470Y-60806121D01*
X215879953Y-60818418D01*
X215858329Y-60828646D01*
X215835807Y-60836704D01*
X215812603Y-60842516D01*
X215788942Y-60846026D01*
X215765050Y-60847200D01*
X215277550Y-60847200D01*
X215253658Y-60846026D01*
X215229997Y-60842516D01*
X215206793Y-60836704D01*
X215184271Y-60828646D01*
X215162647Y-60818418D01*
X215142130Y-60806121D01*
X215122917Y-60791871D01*
X215105193Y-60775807D01*
X215089129Y-60758083D01*
X215074879Y-60738870D01*
X215062582Y-60718353D01*
X215052354Y-60696729D01*
X215044296Y-60674207D01*
X215038484Y-60651003D01*
X215034974Y-60627342D01*
X215033800Y-60603450D01*
X215033800Y-59690950D01*
X215034974Y-59667058D01*
X215038484Y-59643397D01*
X215044296Y-59620193D01*
X215052354Y-59597671D01*
X215062582Y-59576047D01*
X215074879Y-59555530D01*
X215089129Y-59536317D01*
X215105193Y-59518593D01*
X215122917Y-59502529D01*
X215142130Y-59488279D01*
X215162647Y-59475982D01*
X215184271Y-59465754D01*
X215206793Y-59457696D01*
X215229997Y-59451884D01*
X215253658Y-59448374D01*
X215277550Y-59447200D01*
X215765050Y-59447200D01*
X215788942Y-59448374D01*
X215788942Y-59448374D01*
G37*
D13*
X215521300Y-60147200D03*
D10*
G36*
X217663942Y-59448374D02*
G01*
X217687603Y-59451884D01*
X217710807Y-59457696D01*
X217733329Y-59465754D01*
X217754953Y-59475982D01*
X217775470Y-59488279D01*
X217794683Y-59502529D01*
X217812407Y-59518593D01*
X217828471Y-59536317D01*
X217842721Y-59555530D01*
X217855018Y-59576047D01*
X217865246Y-59597671D01*
X217873304Y-59620193D01*
X217879116Y-59643397D01*
X217882626Y-59667058D01*
X217883800Y-59690950D01*
X217883800Y-60603450D01*
X217882626Y-60627342D01*
X217879116Y-60651003D01*
X217873304Y-60674207D01*
X217865246Y-60696729D01*
X217855018Y-60718353D01*
X217842721Y-60738870D01*
X217828471Y-60758083D01*
X217812407Y-60775807D01*
X217794683Y-60791871D01*
X217775470Y-60806121D01*
X217754953Y-60818418D01*
X217733329Y-60828646D01*
X217710807Y-60836704D01*
X217687603Y-60842516D01*
X217663942Y-60846026D01*
X217640050Y-60847200D01*
X217152550Y-60847200D01*
X217128658Y-60846026D01*
X217104997Y-60842516D01*
X217081793Y-60836704D01*
X217059271Y-60828646D01*
X217037647Y-60818418D01*
X217017130Y-60806121D01*
X216997917Y-60791871D01*
X216980193Y-60775807D01*
X216964129Y-60758083D01*
X216949879Y-60738870D01*
X216937582Y-60718353D01*
X216927354Y-60696729D01*
X216919296Y-60674207D01*
X216913484Y-60651003D01*
X216909974Y-60627342D01*
X216908800Y-60603450D01*
X216908800Y-59690950D01*
X216909974Y-59667058D01*
X216913484Y-59643397D01*
X216919296Y-59620193D01*
X216927354Y-59597671D01*
X216937582Y-59576047D01*
X216949879Y-59555530D01*
X216964129Y-59536317D01*
X216980193Y-59518593D01*
X216997917Y-59502529D01*
X217017130Y-59488279D01*
X217037647Y-59475982D01*
X217059271Y-59465754D01*
X217081793Y-59457696D01*
X217104997Y-59451884D01*
X217128658Y-59448374D01*
X217152550Y-59447200D01*
X217640050Y-59447200D01*
X217663942Y-59448374D01*
X217663942Y-59448374D01*
G37*
D13*
X217396300Y-60147200D03*
D10*
G36*
X217917942Y-61632774D02*
G01*
X217941603Y-61636284D01*
X217964807Y-61642096D01*
X217987329Y-61650154D01*
X218008953Y-61660382D01*
X218029470Y-61672679D01*
X218048683Y-61686929D01*
X218066407Y-61702993D01*
X218082471Y-61720717D01*
X218096721Y-61739930D01*
X218109018Y-61760447D01*
X218119246Y-61782071D01*
X218127304Y-61804593D01*
X218133116Y-61827797D01*
X218136626Y-61851458D01*
X218137800Y-61875350D01*
X218137800Y-62787850D01*
X218136626Y-62811742D01*
X218133116Y-62835403D01*
X218127304Y-62858607D01*
X218119246Y-62881129D01*
X218109018Y-62902753D01*
X218096721Y-62923270D01*
X218082471Y-62942483D01*
X218066407Y-62960207D01*
X218048683Y-62976271D01*
X218029470Y-62990521D01*
X218008953Y-63002818D01*
X217987329Y-63013046D01*
X217964807Y-63021104D01*
X217941603Y-63026916D01*
X217917942Y-63030426D01*
X217894050Y-63031600D01*
X217406550Y-63031600D01*
X217382658Y-63030426D01*
X217358997Y-63026916D01*
X217335793Y-63021104D01*
X217313271Y-63013046D01*
X217291647Y-63002818D01*
X217271130Y-62990521D01*
X217251917Y-62976271D01*
X217234193Y-62960207D01*
X217218129Y-62942483D01*
X217203879Y-62923270D01*
X217191582Y-62902753D01*
X217181354Y-62881129D01*
X217173296Y-62858607D01*
X217167484Y-62835403D01*
X217163974Y-62811742D01*
X217162800Y-62787850D01*
X217162800Y-61875350D01*
X217163974Y-61851458D01*
X217167484Y-61827797D01*
X217173296Y-61804593D01*
X217181354Y-61782071D01*
X217191582Y-61760447D01*
X217203879Y-61739930D01*
X217218129Y-61720717D01*
X217234193Y-61702993D01*
X217251917Y-61686929D01*
X217271130Y-61672679D01*
X217291647Y-61660382D01*
X217313271Y-61650154D01*
X217335793Y-61642096D01*
X217358997Y-61636284D01*
X217382658Y-61632774D01*
X217406550Y-61631600D01*
X217894050Y-61631600D01*
X217917942Y-61632774D01*
X217917942Y-61632774D01*
G37*
D13*
X217650300Y-62331600D03*
D10*
G36*
X216042942Y-61632774D02*
G01*
X216066603Y-61636284D01*
X216089807Y-61642096D01*
X216112329Y-61650154D01*
X216133953Y-61660382D01*
X216154470Y-61672679D01*
X216173683Y-61686929D01*
X216191407Y-61702993D01*
X216207471Y-61720717D01*
X216221721Y-61739930D01*
X216234018Y-61760447D01*
X216244246Y-61782071D01*
X216252304Y-61804593D01*
X216258116Y-61827797D01*
X216261626Y-61851458D01*
X216262800Y-61875350D01*
X216262800Y-62787850D01*
X216261626Y-62811742D01*
X216258116Y-62835403D01*
X216252304Y-62858607D01*
X216244246Y-62881129D01*
X216234018Y-62902753D01*
X216221721Y-62923270D01*
X216207471Y-62942483D01*
X216191407Y-62960207D01*
X216173683Y-62976271D01*
X216154470Y-62990521D01*
X216133953Y-63002818D01*
X216112329Y-63013046D01*
X216089807Y-63021104D01*
X216066603Y-63026916D01*
X216042942Y-63030426D01*
X216019050Y-63031600D01*
X215531550Y-63031600D01*
X215507658Y-63030426D01*
X215483997Y-63026916D01*
X215460793Y-63021104D01*
X215438271Y-63013046D01*
X215416647Y-63002818D01*
X215396130Y-62990521D01*
X215376917Y-62976271D01*
X215359193Y-62960207D01*
X215343129Y-62942483D01*
X215328879Y-62923270D01*
X215316582Y-62902753D01*
X215306354Y-62881129D01*
X215298296Y-62858607D01*
X215292484Y-62835403D01*
X215288974Y-62811742D01*
X215287800Y-62787850D01*
X215287800Y-61875350D01*
X215288974Y-61851458D01*
X215292484Y-61827797D01*
X215298296Y-61804593D01*
X215306354Y-61782071D01*
X215316582Y-61760447D01*
X215328879Y-61739930D01*
X215343129Y-61720717D01*
X215359193Y-61702993D01*
X215376917Y-61686929D01*
X215396130Y-61672679D01*
X215416647Y-61660382D01*
X215438271Y-61650154D01*
X215460793Y-61642096D01*
X215483997Y-61636284D01*
X215507658Y-61632774D01*
X215531550Y-61631600D01*
X216019050Y-61631600D01*
X216042942Y-61632774D01*
X216042942Y-61632774D01*
G37*
D13*
X215775300Y-62331600D03*
D10*
G36*
X217917942Y-63664774D02*
G01*
X217941603Y-63668284D01*
X217964807Y-63674096D01*
X217987329Y-63682154D01*
X218008953Y-63692382D01*
X218029470Y-63704679D01*
X218048683Y-63718929D01*
X218066407Y-63734993D01*
X218082471Y-63752717D01*
X218096721Y-63771930D01*
X218109018Y-63792447D01*
X218119246Y-63814071D01*
X218127304Y-63836593D01*
X218133116Y-63859797D01*
X218136626Y-63883458D01*
X218137800Y-63907350D01*
X218137800Y-64819850D01*
X218136626Y-64843742D01*
X218133116Y-64867403D01*
X218127304Y-64890607D01*
X218119246Y-64913129D01*
X218109018Y-64934753D01*
X218096721Y-64955270D01*
X218082471Y-64974483D01*
X218066407Y-64992207D01*
X218048683Y-65008271D01*
X218029470Y-65022521D01*
X218008953Y-65034818D01*
X217987329Y-65045046D01*
X217964807Y-65053104D01*
X217941603Y-65058916D01*
X217917942Y-65062426D01*
X217894050Y-65063600D01*
X217406550Y-65063600D01*
X217382658Y-65062426D01*
X217358997Y-65058916D01*
X217335793Y-65053104D01*
X217313271Y-65045046D01*
X217291647Y-65034818D01*
X217271130Y-65022521D01*
X217251917Y-65008271D01*
X217234193Y-64992207D01*
X217218129Y-64974483D01*
X217203879Y-64955270D01*
X217191582Y-64934753D01*
X217181354Y-64913129D01*
X217173296Y-64890607D01*
X217167484Y-64867403D01*
X217163974Y-64843742D01*
X217162800Y-64819850D01*
X217162800Y-63907350D01*
X217163974Y-63883458D01*
X217167484Y-63859797D01*
X217173296Y-63836593D01*
X217181354Y-63814071D01*
X217191582Y-63792447D01*
X217203879Y-63771930D01*
X217218129Y-63752717D01*
X217234193Y-63734993D01*
X217251917Y-63718929D01*
X217271130Y-63704679D01*
X217291647Y-63692382D01*
X217313271Y-63682154D01*
X217335793Y-63674096D01*
X217358997Y-63668284D01*
X217382658Y-63664774D01*
X217406550Y-63663600D01*
X217894050Y-63663600D01*
X217917942Y-63664774D01*
X217917942Y-63664774D01*
G37*
D13*
X217650300Y-64363600D03*
D10*
G36*
X216042942Y-63664774D02*
G01*
X216066603Y-63668284D01*
X216089807Y-63674096D01*
X216112329Y-63682154D01*
X216133953Y-63692382D01*
X216154470Y-63704679D01*
X216173683Y-63718929D01*
X216191407Y-63734993D01*
X216207471Y-63752717D01*
X216221721Y-63771930D01*
X216234018Y-63792447D01*
X216244246Y-63814071D01*
X216252304Y-63836593D01*
X216258116Y-63859797D01*
X216261626Y-63883458D01*
X216262800Y-63907350D01*
X216262800Y-64819850D01*
X216261626Y-64843742D01*
X216258116Y-64867403D01*
X216252304Y-64890607D01*
X216244246Y-64913129D01*
X216234018Y-64934753D01*
X216221721Y-64955270D01*
X216207471Y-64974483D01*
X216191407Y-64992207D01*
X216173683Y-65008271D01*
X216154470Y-65022521D01*
X216133953Y-65034818D01*
X216112329Y-65045046D01*
X216089807Y-65053104D01*
X216066603Y-65058916D01*
X216042942Y-65062426D01*
X216019050Y-65063600D01*
X215531550Y-65063600D01*
X215507658Y-65062426D01*
X215483997Y-65058916D01*
X215460793Y-65053104D01*
X215438271Y-65045046D01*
X215416647Y-65034818D01*
X215396130Y-65022521D01*
X215376917Y-65008271D01*
X215359193Y-64992207D01*
X215343129Y-64974483D01*
X215328879Y-64955270D01*
X215316582Y-64934753D01*
X215306354Y-64913129D01*
X215298296Y-64890607D01*
X215292484Y-64867403D01*
X215288974Y-64843742D01*
X215287800Y-64819850D01*
X215287800Y-63907350D01*
X215288974Y-63883458D01*
X215292484Y-63859797D01*
X215298296Y-63836593D01*
X215306354Y-63814071D01*
X215316582Y-63792447D01*
X215328879Y-63771930D01*
X215343129Y-63752717D01*
X215359193Y-63734993D01*
X215376917Y-63718929D01*
X215396130Y-63704679D01*
X215416647Y-63692382D01*
X215438271Y-63682154D01*
X215460793Y-63674096D01*
X215483997Y-63668284D01*
X215507658Y-63664774D01*
X215531550Y-63663600D01*
X216019050Y-63663600D01*
X216042942Y-63664774D01*
X216042942Y-63664774D01*
G37*
D13*
X215775300Y-64363600D03*
D10*
G36*
X223848491Y-58313653D02*
G01*
X223869726Y-58316803D01*
X223890550Y-58322019D01*
X223910762Y-58329251D01*
X223930168Y-58338430D01*
X223948581Y-58349466D01*
X223965824Y-58362254D01*
X223981730Y-58376670D01*
X223996146Y-58392576D01*
X224008934Y-58409819D01*
X224019970Y-58428232D01*
X224029149Y-58447638D01*
X224036381Y-58467850D01*
X224041597Y-58488674D01*
X224044747Y-58509909D01*
X224045800Y-58531350D01*
X224045800Y-58968850D01*
X224044747Y-58990291D01*
X224041597Y-59011526D01*
X224036381Y-59032350D01*
X224029149Y-59052562D01*
X224019970Y-59071968D01*
X224008934Y-59090381D01*
X223996146Y-59107624D01*
X223981730Y-59123530D01*
X223965824Y-59137946D01*
X223948581Y-59150734D01*
X223930168Y-59161770D01*
X223910762Y-59170949D01*
X223890550Y-59178181D01*
X223869726Y-59183397D01*
X223848491Y-59186547D01*
X223827050Y-59187600D01*
X223314550Y-59187600D01*
X223293109Y-59186547D01*
X223271874Y-59183397D01*
X223251050Y-59178181D01*
X223230838Y-59170949D01*
X223211432Y-59161770D01*
X223193019Y-59150734D01*
X223175776Y-59137946D01*
X223159870Y-59123530D01*
X223145454Y-59107624D01*
X223132666Y-59090381D01*
X223121630Y-59071968D01*
X223112451Y-59052562D01*
X223105219Y-59032350D01*
X223100003Y-59011526D01*
X223096853Y-58990291D01*
X223095800Y-58968850D01*
X223095800Y-58531350D01*
X223096853Y-58509909D01*
X223100003Y-58488674D01*
X223105219Y-58467850D01*
X223112451Y-58447638D01*
X223121630Y-58428232D01*
X223132666Y-58409819D01*
X223145454Y-58392576D01*
X223159870Y-58376670D01*
X223175776Y-58362254D01*
X223193019Y-58349466D01*
X223211432Y-58338430D01*
X223230838Y-58329251D01*
X223251050Y-58322019D01*
X223271874Y-58316803D01*
X223293109Y-58313653D01*
X223314550Y-58312600D01*
X223827050Y-58312600D01*
X223848491Y-58313653D01*
X223848491Y-58313653D01*
G37*
D14*
X223570800Y-58750100D03*
D10*
G36*
X223848491Y-59888653D02*
G01*
X223869726Y-59891803D01*
X223890550Y-59897019D01*
X223910762Y-59904251D01*
X223930168Y-59913430D01*
X223948581Y-59924466D01*
X223965824Y-59937254D01*
X223981730Y-59951670D01*
X223996146Y-59967576D01*
X224008934Y-59984819D01*
X224019970Y-60003232D01*
X224029149Y-60022638D01*
X224036381Y-60042850D01*
X224041597Y-60063674D01*
X224044747Y-60084909D01*
X224045800Y-60106350D01*
X224045800Y-60543850D01*
X224044747Y-60565291D01*
X224041597Y-60586526D01*
X224036381Y-60607350D01*
X224029149Y-60627562D01*
X224019970Y-60646968D01*
X224008934Y-60665381D01*
X223996146Y-60682624D01*
X223981730Y-60698530D01*
X223965824Y-60712946D01*
X223948581Y-60725734D01*
X223930168Y-60736770D01*
X223910762Y-60745949D01*
X223890550Y-60753181D01*
X223869726Y-60758397D01*
X223848491Y-60761547D01*
X223827050Y-60762600D01*
X223314550Y-60762600D01*
X223293109Y-60761547D01*
X223271874Y-60758397D01*
X223251050Y-60753181D01*
X223230838Y-60745949D01*
X223211432Y-60736770D01*
X223193019Y-60725734D01*
X223175776Y-60712946D01*
X223159870Y-60698530D01*
X223145454Y-60682624D01*
X223132666Y-60665381D01*
X223121630Y-60646968D01*
X223112451Y-60627562D01*
X223105219Y-60607350D01*
X223100003Y-60586526D01*
X223096853Y-60565291D01*
X223095800Y-60543850D01*
X223095800Y-60106350D01*
X223096853Y-60084909D01*
X223100003Y-60063674D01*
X223105219Y-60042850D01*
X223112451Y-60022638D01*
X223121630Y-60003232D01*
X223132666Y-59984819D01*
X223145454Y-59967576D01*
X223159870Y-59951670D01*
X223175776Y-59937254D01*
X223193019Y-59924466D01*
X223211432Y-59913430D01*
X223230838Y-59904251D01*
X223251050Y-59897019D01*
X223271874Y-59891803D01*
X223293109Y-59888653D01*
X223314550Y-59887600D01*
X223827050Y-59887600D01*
X223848491Y-59888653D01*
X223848491Y-59888653D01*
G37*
D14*
X223570800Y-60325100D03*
D10*
G36*
X222670042Y-79958874D02*
G01*
X222693703Y-79962384D01*
X222716907Y-79968196D01*
X222739429Y-79976254D01*
X222761053Y-79986482D01*
X222781570Y-79998779D01*
X222800783Y-80013029D01*
X222818507Y-80029093D01*
X222834571Y-80046817D01*
X222848821Y-80066030D01*
X222861118Y-80086547D01*
X222871346Y-80108171D01*
X222879404Y-80130693D01*
X222885216Y-80153897D01*
X222888726Y-80177558D01*
X222889900Y-80201450D01*
X222889900Y-81113950D01*
X222888726Y-81137842D01*
X222885216Y-81161503D01*
X222879404Y-81184707D01*
X222871346Y-81207229D01*
X222861118Y-81228853D01*
X222848821Y-81249370D01*
X222834571Y-81268583D01*
X222818507Y-81286307D01*
X222800783Y-81302371D01*
X222781570Y-81316621D01*
X222761053Y-81328918D01*
X222739429Y-81339146D01*
X222716907Y-81347204D01*
X222693703Y-81353016D01*
X222670042Y-81356526D01*
X222646150Y-81357700D01*
X222158650Y-81357700D01*
X222134758Y-81356526D01*
X222111097Y-81353016D01*
X222087893Y-81347204D01*
X222065371Y-81339146D01*
X222043747Y-81328918D01*
X222023230Y-81316621D01*
X222004017Y-81302371D01*
X221986293Y-81286307D01*
X221970229Y-81268583D01*
X221955979Y-81249370D01*
X221943682Y-81228853D01*
X221933454Y-81207229D01*
X221925396Y-81184707D01*
X221919584Y-81161503D01*
X221916074Y-81137842D01*
X221914900Y-81113950D01*
X221914900Y-80201450D01*
X221916074Y-80177558D01*
X221919584Y-80153897D01*
X221925396Y-80130693D01*
X221933454Y-80108171D01*
X221943682Y-80086547D01*
X221955979Y-80066030D01*
X221970229Y-80046817D01*
X221986293Y-80029093D01*
X222004017Y-80013029D01*
X222023230Y-79998779D01*
X222043747Y-79986482D01*
X222065371Y-79976254D01*
X222087893Y-79968196D01*
X222111097Y-79962384D01*
X222134758Y-79958874D01*
X222158650Y-79957700D01*
X222646150Y-79957700D01*
X222670042Y-79958874D01*
X222670042Y-79958874D01*
G37*
D13*
X222402400Y-80657700D03*
D10*
G36*
X224545042Y-79958874D02*
G01*
X224568703Y-79962384D01*
X224591907Y-79968196D01*
X224614429Y-79976254D01*
X224636053Y-79986482D01*
X224656570Y-79998779D01*
X224675783Y-80013029D01*
X224693507Y-80029093D01*
X224709571Y-80046817D01*
X224723821Y-80066030D01*
X224736118Y-80086547D01*
X224746346Y-80108171D01*
X224754404Y-80130693D01*
X224760216Y-80153897D01*
X224763726Y-80177558D01*
X224764900Y-80201450D01*
X224764900Y-81113950D01*
X224763726Y-81137842D01*
X224760216Y-81161503D01*
X224754404Y-81184707D01*
X224746346Y-81207229D01*
X224736118Y-81228853D01*
X224723821Y-81249370D01*
X224709571Y-81268583D01*
X224693507Y-81286307D01*
X224675783Y-81302371D01*
X224656570Y-81316621D01*
X224636053Y-81328918D01*
X224614429Y-81339146D01*
X224591907Y-81347204D01*
X224568703Y-81353016D01*
X224545042Y-81356526D01*
X224521150Y-81357700D01*
X224033650Y-81357700D01*
X224009758Y-81356526D01*
X223986097Y-81353016D01*
X223962893Y-81347204D01*
X223940371Y-81339146D01*
X223918747Y-81328918D01*
X223898230Y-81316621D01*
X223879017Y-81302371D01*
X223861293Y-81286307D01*
X223845229Y-81268583D01*
X223830979Y-81249370D01*
X223818682Y-81228853D01*
X223808454Y-81207229D01*
X223800396Y-81184707D01*
X223794584Y-81161503D01*
X223791074Y-81137842D01*
X223789900Y-81113950D01*
X223789900Y-80201450D01*
X223791074Y-80177558D01*
X223794584Y-80153897D01*
X223800396Y-80130693D01*
X223808454Y-80108171D01*
X223818682Y-80086547D01*
X223830979Y-80066030D01*
X223845229Y-80046817D01*
X223861293Y-80029093D01*
X223879017Y-80013029D01*
X223898230Y-79998779D01*
X223918747Y-79986482D01*
X223940371Y-79976254D01*
X223962893Y-79968196D01*
X223986097Y-79962384D01*
X224009758Y-79958874D01*
X224033650Y-79957700D01*
X224521150Y-79957700D01*
X224545042Y-79958874D01*
X224545042Y-79958874D01*
G37*
D13*
X224277400Y-80657700D03*
D17*
X219624399Y-64223900D03*
X220124401Y-64223900D03*
X220624400Y-64223900D03*
X221124399Y-64223900D03*
X221624401Y-64223900D03*
X221624401Y-68567300D03*
X221124399Y-68567300D03*
X220624400Y-68567300D03*
X220124401Y-68567300D03*
X219624399Y-68567300D03*
D18*
X222209600Y-54610000D03*
X223509600Y-54610000D03*
X222859600Y-54610000D03*
X223509600Y-56510000D03*
X222209600Y-56510000D03*
D19*
X224967800Y-86880700D03*
X224967800Y-85610700D03*
X224967800Y-84340700D03*
X224967800Y-83070700D03*
X229692200Y-83070700D03*
X229692200Y-84340700D03*
X229692200Y-85610700D03*
X229692200Y-86880700D03*
D20*
X227330000Y-84975700D03*
D10*
G36*
X218553291Y-69122053D02*
G01*
X218574526Y-69125203D01*
X218595350Y-69130419D01*
X218615562Y-69137651D01*
X218634968Y-69146830D01*
X218653381Y-69157866D01*
X218670624Y-69170654D01*
X218686530Y-69185070D01*
X218700946Y-69200976D01*
X218713734Y-69218219D01*
X218724770Y-69236632D01*
X218733949Y-69256038D01*
X218741181Y-69276250D01*
X218746397Y-69297074D01*
X218749547Y-69318309D01*
X218750600Y-69339750D01*
X218750600Y-69852250D01*
X218749547Y-69873691D01*
X218746397Y-69894926D01*
X218741181Y-69915750D01*
X218733949Y-69935962D01*
X218724770Y-69955368D01*
X218713734Y-69973781D01*
X218700946Y-69991024D01*
X218686530Y-70006930D01*
X218670624Y-70021346D01*
X218653381Y-70034134D01*
X218634968Y-70045170D01*
X218615562Y-70054349D01*
X218595350Y-70061581D01*
X218574526Y-70066797D01*
X218553291Y-70069947D01*
X218531850Y-70071000D01*
X218094350Y-70071000D01*
X218072909Y-70069947D01*
X218051674Y-70066797D01*
X218030850Y-70061581D01*
X218010638Y-70054349D01*
X217991232Y-70045170D01*
X217972819Y-70034134D01*
X217955576Y-70021346D01*
X217939670Y-70006930D01*
X217925254Y-69991024D01*
X217912466Y-69973781D01*
X217901430Y-69955368D01*
X217892251Y-69935962D01*
X217885019Y-69915750D01*
X217879803Y-69894926D01*
X217876653Y-69873691D01*
X217875600Y-69852250D01*
X217875600Y-69339750D01*
X217876653Y-69318309D01*
X217879803Y-69297074D01*
X217885019Y-69276250D01*
X217892251Y-69256038D01*
X217901430Y-69236632D01*
X217912466Y-69218219D01*
X217925254Y-69200976D01*
X217939670Y-69185070D01*
X217955576Y-69170654D01*
X217972819Y-69157866D01*
X217991232Y-69146830D01*
X218010638Y-69137651D01*
X218030850Y-69130419D01*
X218051674Y-69125203D01*
X218072909Y-69122053D01*
X218094350Y-69121000D01*
X218531850Y-69121000D01*
X218553291Y-69122053D01*
X218553291Y-69122053D01*
G37*
D14*
X218313100Y-69596000D03*
D10*
G36*
X216978291Y-69122053D02*
G01*
X216999526Y-69125203D01*
X217020350Y-69130419D01*
X217040562Y-69137651D01*
X217059968Y-69146830D01*
X217078381Y-69157866D01*
X217095624Y-69170654D01*
X217111530Y-69185070D01*
X217125946Y-69200976D01*
X217138734Y-69218219D01*
X217149770Y-69236632D01*
X217158949Y-69256038D01*
X217166181Y-69276250D01*
X217171397Y-69297074D01*
X217174547Y-69318309D01*
X217175600Y-69339750D01*
X217175600Y-69852250D01*
X217174547Y-69873691D01*
X217171397Y-69894926D01*
X217166181Y-69915750D01*
X217158949Y-69935962D01*
X217149770Y-69955368D01*
X217138734Y-69973781D01*
X217125946Y-69991024D01*
X217111530Y-70006930D01*
X217095624Y-70021346D01*
X217078381Y-70034134D01*
X217059968Y-70045170D01*
X217040562Y-70054349D01*
X217020350Y-70061581D01*
X216999526Y-70066797D01*
X216978291Y-70069947D01*
X216956850Y-70071000D01*
X216519350Y-70071000D01*
X216497909Y-70069947D01*
X216476674Y-70066797D01*
X216455850Y-70061581D01*
X216435638Y-70054349D01*
X216416232Y-70045170D01*
X216397819Y-70034134D01*
X216380576Y-70021346D01*
X216364670Y-70006930D01*
X216350254Y-69991024D01*
X216337466Y-69973781D01*
X216326430Y-69955368D01*
X216317251Y-69935962D01*
X216310019Y-69915750D01*
X216304803Y-69894926D01*
X216301653Y-69873691D01*
X216300600Y-69852250D01*
X216300600Y-69339750D01*
X216301653Y-69318309D01*
X216304803Y-69297074D01*
X216310019Y-69276250D01*
X216317251Y-69256038D01*
X216326430Y-69236632D01*
X216337466Y-69218219D01*
X216350254Y-69200976D01*
X216364670Y-69185070D01*
X216380576Y-69170654D01*
X216397819Y-69157866D01*
X216416232Y-69146830D01*
X216435638Y-69137651D01*
X216455850Y-69130419D01*
X216476674Y-69125203D01*
X216497909Y-69122053D01*
X216519350Y-69121000D01*
X216956850Y-69121000D01*
X216978291Y-69122053D01*
X216978291Y-69122053D01*
G37*
D14*
X216738100Y-69596000D03*
D10*
G36*
X230021191Y-57628553D02*
G01*
X230042426Y-57631703D01*
X230063250Y-57636919D01*
X230083462Y-57644151D01*
X230102868Y-57653330D01*
X230121281Y-57664366D01*
X230138524Y-57677154D01*
X230154430Y-57691570D01*
X230168846Y-57707476D01*
X230181634Y-57724719D01*
X230192670Y-57743132D01*
X230201849Y-57762538D01*
X230209081Y-57782750D01*
X230214297Y-57803574D01*
X230217447Y-57824809D01*
X230218500Y-57846250D01*
X230218500Y-58358750D01*
X230217447Y-58380191D01*
X230214297Y-58401426D01*
X230209081Y-58422250D01*
X230201849Y-58442462D01*
X230192670Y-58461868D01*
X230181634Y-58480281D01*
X230168846Y-58497524D01*
X230154430Y-58513430D01*
X230138524Y-58527846D01*
X230121281Y-58540634D01*
X230102868Y-58551670D01*
X230083462Y-58560849D01*
X230063250Y-58568081D01*
X230042426Y-58573297D01*
X230021191Y-58576447D01*
X229999750Y-58577500D01*
X229562250Y-58577500D01*
X229540809Y-58576447D01*
X229519574Y-58573297D01*
X229498750Y-58568081D01*
X229478538Y-58560849D01*
X229459132Y-58551670D01*
X229440719Y-58540634D01*
X229423476Y-58527846D01*
X229407570Y-58513430D01*
X229393154Y-58497524D01*
X229380366Y-58480281D01*
X229369330Y-58461868D01*
X229360151Y-58442462D01*
X229352919Y-58422250D01*
X229347703Y-58401426D01*
X229344553Y-58380191D01*
X229343500Y-58358750D01*
X229343500Y-57846250D01*
X229344553Y-57824809D01*
X229347703Y-57803574D01*
X229352919Y-57782750D01*
X229360151Y-57762538D01*
X229369330Y-57743132D01*
X229380366Y-57724719D01*
X229393154Y-57707476D01*
X229407570Y-57691570D01*
X229423476Y-57677154D01*
X229440719Y-57664366D01*
X229459132Y-57653330D01*
X229478538Y-57644151D01*
X229498750Y-57636919D01*
X229519574Y-57631703D01*
X229540809Y-57628553D01*
X229562250Y-57627500D01*
X229999750Y-57627500D01*
X230021191Y-57628553D01*
X230021191Y-57628553D01*
G37*
D14*
X229781000Y-58102500D03*
D10*
G36*
X231596191Y-57628553D02*
G01*
X231617426Y-57631703D01*
X231638250Y-57636919D01*
X231658462Y-57644151D01*
X231677868Y-57653330D01*
X231696281Y-57664366D01*
X231713524Y-57677154D01*
X231729430Y-57691570D01*
X231743846Y-57707476D01*
X231756634Y-57724719D01*
X231767670Y-57743132D01*
X231776849Y-57762538D01*
X231784081Y-57782750D01*
X231789297Y-57803574D01*
X231792447Y-57824809D01*
X231793500Y-57846250D01*
X231793500Y-58358750D01*
X231792447Y-58380191D01*
X231789297Y-58401426D01*
X231784081Y-58422250D01*
X231776849Y-58442462D01*
X231767670Y-58461868D01*
X231756634Y-58480281D01*
X231743846Y-58497524D01*
X231729430Y-58513430D01*
X231713524Y-58527846D01*
X231696281Y-58540634D01*
X231677868Y-58551670D01*
X231658462Y-58560849D01*
X231638250Y-58568081D01*
X231617426Y-58573297D01*
X231596191Y-58576447D01*
X231574750Y-58577500D01*
X231137250Y-58577500D01*
X231115809Y-58576447D01*
X231094574Y-58573297D01*
X231073750Y-58568081D01*
X231053538Y-58560849D01*
X231034132Y-58551670D01*
X231015719Y-58540634D01*
X230998476Y-58527846D01*
X230982570Y-58513430D01*
X230968154Y-58497524D01*
X230955366Y-58480281D01*
X230944330Y-58461868D01*
X230935151Y-58442462D01*
X230927919Y-58422250D01*
X230922703Y-58401426D01*
X230919553Y-58380191D01*
X230918500Y-58358750D01*
X230918500Y-57846250D01*
X230919553Y-57824809D01*
X230922703Y-57803574D01*
X230927919Y-57782750D01*
X230935151Y-57762538D01*
X230944330Y-57743132D01*
X230955366Y-57724719D01*
X230968154Y-57707476D01*
X230982570Y-57691570D01*
X230998476Y-57677154D01*
X231015719Y-57664366D01*
X231034132Y-57653330D01*
X231053538Y-57644151D01*
X231073750Y-57636919D01*
X231094574Y-57631703D01*
X231115809Y-57628553D01*
X231137250Y-57627500D01*
X231574750Y-57627500D01*
X231596191Y-57628553D01*
X231596191Y-57628553D01*
G37*
D14*
X231356000Y-58102500D03*
D10*
G36*
X230021191Y-67280553D02*
G01*
X230042426Y-67283703D01*
X230063250Y-67288919D01*
X230083462Y-67296151D01*
X230102868Y-67305330D01*
X230121281Y-67316366D01*
X230138524Y-67329154D01*
X230154430Y-67343570D01*
X230168846Y-67359476D01*
X230181634Y-67376719D01*
X230192670Y-67395132D01*
X230201849Y-67414538D01*
X230209081Y-67434750D01*
X230214297Y-67455574D01*
X230217447Y-67476809D01*
X230218500Y-67498250D01*
X230218500Y-68010750D01*
X230217447Y-68032191D01*
X230214297Y-68053426D01*
X230209081Y-68074250D01*
X230201849Y-68094462D01*
X230192670Y-68113868D01*
X230181634Y-68132281D01*
X230168846Y-68149524D01*
X230154430Y-68165430D01*
X230138524Y-68179846D01*
X230121281Y-68192634D01*
X230102868Y-68203670D01*
X230083462Y-68212849D01*
X230063250Y-68220081D01*
X230042426Y-68225297D01*
X230021191Y-68228447D01*
X229999750Y-68229500D01*
X229562250Y-68229500D01*
X229540809Y-68228447D01*
X229519574Y-68225297D01*
X229498750Y-68220081D01*
X229478538Y-68212849D01*
X229459132Y-68203670D01*
X229440719Y-68192634D01*
X229423476Y-68179846D01*
X229407570Y-68165430D01*
X229393154Y-68149524D01*
X229380366Y-68132281D01*
X229369330Y-68113868D01*
X229360151Y-68094462D01*
X229352919Y-68074250D01*
X229347703Y-68053426D01*
X229344553Y-68032191D01*
X229343500Y-68010750D01*
X229343500Y-67498250D01*
X229344553Y-67476809D01*
X229347703Y-67455574D01*
X229352919Y-67434750D01*
X229360151Y-67414538D01*
X229369330Y-67395132D01*
X229380366Y-67376719D01*
X229393154Y-67359476D01*
X229407570Y-67343570D01*
X229423476Y-67329154D01*
X229440719Y-67316366D01*
X229459132Y-67305330D01*
X229478538Y-67296151D01*
X229498750Y-67288919D01*
X229519574Y-67283703D01*
X229540809Y-67280553D01*
X229562250Y-67279500D01*
X229999750Y-67279500D01*
X230021191Y-67280553D01*
X230021191Y-67280553D01*
G37*
D14*
X229781000Y-67754500D03*
D10*
G36*
X231596191Y-67280553D02*
G01*
X231617426Y-67283703D01*
X231638250Y-67288919D01*
X231658462Y-67296151D01*
X231677868Y-67305330D01*
X231696281Y-67316366D01*
X231713524Y-67329154D01*
X231729430Y-67343570D01*
X231743846Y-67359476D01*
X231756634Y-67376719D01*
X231767670Y-67395132D01*
X231776849Y-67414538D01*
X231784081Y-67434750D01*
X231789297Y-67455574D01*
X231792447Y-67476809D01*
X231793500Y-67498250D01*
X231793500Y-68010750D01*
X231792447Y-68032191D01*
X231789297Y-68053426D01*
X231784081Y-68074250D01*
X231776849Y-68094462D01*
X231767670Y-68113868D01*
X231756634Y-68132281D01*
X231743846Y-68149524D01*
X231729430Y-68165430D01*
X231713524Y-68179846D01*
X231696281Y-68192634D01*
X231677868Y-68203670D01*
X231658462Y-68212849D01*
X231638250Y-68220081D01*
X231617426Y-68225297D01*
X231596191Y-68228447D01*
X231574750Y-68229500D01*
X231137250Y-68229500D01*
X231115809Y-68228447D01*
X231094574Y-68225297D01*
X231073750Y-68220081D01*
X231053538Y-68212849D01*
X231034132Y-68203670D01*
X231015719Y-68192634D01*
X230998476Y-68179846D01*
X230982570Y-68165430D01*
X230968154Y-68149524D01*
X230955366Y-68132281D01*
X230944330Y-68113868D01*
X230935151Y-68094462D01*
X230927919Y-68074250D01*
X230922703Y-68053426D01*
X230919553Y-68032191D01*
X230918500Y-68010750D01*
X230918500Y-67498250D01*
X230919553Y-67476809D01*
X230922703Y-67455574D01*
X230927919Y-67434750D01*
X230935151Y-67414538D01*
X230944330Y-67395132D01*
X230955366Y-67376719D01*
X230968154Y-67359476D01*
X230982570Y-67343570D01*
X230998476Y-67329154D01*
X231015719Y-67316366D01*
X231034132Y-67305330D01*
X231053538Y-67296151D01*
X231073750Y-67288919D01*
X231094574Y-67283703D01*
X231115809Y-67280553D01*
X231137250Y-67279500D01*
X231574750Y-67279500D01*
X231596191Y-67280553D01*
X231596191Y-67280553D01*
G37*
D14*
X231356000Y-67754500D03*
M02*
