G04 #@! TF.GenerationSoftware,KiCad,Pcbnew,(5.1.2)-1*
G04 #@! TF.CreationDate,2020-09-11T17:35:28+02:00*
G04 #@! TF.ProjectId,LEDadapter,4c454461-6461-4707-9465-722e6b696361,1.0*
G04 #@! TF.SameCoordinates,Original*
G04 #@! TF.FileFunction,Other,User*
%FSLAX46Y46*%
G04 Gerber Fmt 4.6, Leading zero omitted, Abs format (unit mm)*
G04 Created by KiCad (PCBNEW (5.1.2)-1) date 2020-09-11 17:35:28*
%MOMM*%
%LPD*%
G04 APERTURE LIST*
%ADD10C,0.050000*%
G04 APERTURE END LIST*
D10*
X92500000Y-94520000D02*
X95460000Y-94520000D01*
X92500000Y-95980000D02*
X92500000Y-94520000D01*
X95460000Y-95980000D02*
X92500000Y-95980000D01*
X95460000Y-94520000D02*
X95460000Y-95980000D01*
X95460000Y-91980000D02*
X95460000Y-93440000D01*
X95460000Y-93440000D02*
X92500000Y-93440000D01*
X92500000Y-93440000D02*
X92500000Y-91980000D01*
X92500000Y-91980000D02*
X95460000Y-91980000D01*
X87420000Y-99790000D02*
X87420000Y-98330000D01*
X87420000Y-98330000D02*
X90380000Y-98330000D01*
X90380000Y-98330000D02*
X90380000Y-99790000D01*
X90380000Y-99790000D02*
X87420000Y-99790000D01*
X90380000Y-95980000D02*
X87420000Y-95980000D01*
X90380000Y-94520000D02*
X90380000Y-95980000D01*
X87420000Y-94520000D02*
X90380000Y-94520000D01*
X87420000Y-95980000D02*
X87420000Y-94520000D01*
X87420000Y-92170000D02*
X87420000Y-90710000D01*
X87420000Y-90710000D02*
X90380000Y-90710000D01*
X90380000Y-90710000D02*
X90380000Y-92170000D01*
X90380000Y-92170000D02*
X87420000Y-92170000D01*
X90380000Y-88360000D02*
X87420000Y-88360000D01*
X90380000Y-86900000D02*
X90380000Y-88360000D01*
X87420000Y-86900000D02*
X90380000Y-86900000D01*
X87420000Y-88360000D02*
X87420000Y-86900000D01*
X87420000Y-84550000D02*
X87420000Y-83090000D01*
X87420000Y-83090000D02*
X90380000Y-83090000D01*
X90380000Y-83090000D02*
X90380000Y-84550000D01*
X90380000Y-84550000D02*
X87420000Y-84550000D01*
X90380000Y-80740000D02*
X87420000Y-80740000D01*
X90380000Y-79280000D02*
X90380000Y-80740000D01*
X87420000Y-79280000D02*
X90380000Y-79280000D01*
X87420000Y-80740000D02*
X87420000Y-79280000D01*
X87420000Y-76930000D02*
X87420000Y-75470000D01*
X87420000Y-75470000D02*
X90380000Y-75470000D01*
X90380000Y-75470000D02*
X90380000Y-76930000D01*
X90380000Y-76930000D02*
X87420000Y-76930000D01*
X87405000Y-69215000D02*
G75*
G03X87405000Y-69215000I-2950000J0D01*
G01*
X111535000Y-69215000D02*
G75*
G03X111535000Y-69215000I-2950000J0D01*
G01*
X87405000Y-110553500D02*
G75*
G03X87405000Y-110553500I-2950000J0D01*
G01*
X111535000Y-110553500D02*
G75*
G03X111535000Y-110553500I-2950000J0D01*
G01*
X84820000Y-95230000D02*
X82820000Y-95230000D01*
X84820000Y-95230000D02*
X84820000Y-92730000D01*
X82820000Y-92730000D02*
X82820000Y-95230000D01*
X82820000Y-92730000D02*
X84820000Y-92730000D01*
X82820000Y-78760000D02*
X84820000Y-78760000D01*
X82820000Y-78760000D02*
X82820000Y-81260000D01*
X84820000Y-81260000D02*
X84820000Y-78760000D01*
X84820000Y-81260000D02*
X82820000Y-81260000D01*
X100470000Y-91180000D02*
X100470000Y-84080000D01*
X92570000Y-91180000D02*
X92570000Y-84080000D01*
X100470000Y-91180000D02*
X92570000Y-91180000D01*
X100470000Y-84080000D02*
X92570000Y-84080000D01*
M02*
