G04 #@! TF.GenerationSoftware,KiCad,Pcbnew,(5.1.2)-1*
G04 #@! TF.CreationDate,2020-09-11T17:35:28+02:00*
G04 #@! TF.ProjectId,LEDadapter,4c454461-6461-4707-9465-722e6b696361,1.0*
G04 #@! TF.SameCoordinates,Original*
G04 #@! TF.FileFunction,Legend,Top*
G04 #@! TF.FilePolarity,Positive*
%FSLAX46Y46*%
G04 Gerber Fmt 4.6, Leading zero omitted, Abs format (unit mm)*
G04 Created by KiCad (PCBNEW (5.1.2)-1) date 2020-09-11 17:35:28*
%MOMM*%
%LPD*%
G04 APERTURE LIST*
%ADD10C,0.150000*%
%ADD11C,0.010000*%
%ADD12C,0.120000*%
G04 APERTURE END LIST*
D10*
X82091785Y-101926380D02*
X81615595Y-101926380D01*
X81615595Y-100926380D01*
X82425119Y-101402571D02*
X82758452Y-101402571D01*
X82901309Y-101926380D02*
X82425119Y-101926380D01*
X82425119Y-100926380D01*
X82901309Y-100926380D01*
X83329880Y-101926380D02*
X83329880Y-100926380D01*
X83567976Y-100926380D01*
X83710833Y-100974000D01*
X83806071Y-101069238D01*
X83853690Y-101164476D01*
X83901309Y-101354952D01*
X83901309Y-101497809D01*
X83853690Y-101688285D01*
X83806071Y-101783523D01*
X83710833Y-101878761D01*
X83567976Y-101926380D01*
X83329880Y-101926380D01*
X85091785Y-101926380D02*
X85091785Y-101259714D01*
X85091785Y-100926380D02*
X85044166Y-100974000D01*
X85091785Y-101021619D01*
X85139404Y-100974000D01*
X85091785Y-100926380D01*
X85091785Y-101021619D01*
X85567976Y-101259714D02*
X85567976Y-101926380D01*
X85567976Y-101354952D02*
X85615595Y-101307333D01*
X85710833Y-101259714D01*
X85853690Y-101259714D01*
X85948928Y-101307333D01*
X85996547Y-101402571D01*
X85996547Y-101926380D01*
X86901309Y-101926380D02*
X86901309Y-100926380D01*
X86901309Y-101878761D02*
X86806071Y-101926380D01*
X86615595Y-101926380D01*
X86520357Y-101878761D01*
X86472738Y-101831142D01*
X86425119Y-101735904D01*
X86425119Y-101450190D01*
X86472738Y-101354952D01*
X86520357Y-101307333D01*
X86615595Y-101259714D01*
X86806071Y-101259714D01*
X86901309Y-101307333D01*
X87377500Y-101926380D02*
X87377500Y-101259714D01*
X87377500Y-100926380D02*
X87329880Y-100974000D01*
X87377500Y-101021619D01*
X87425119Y-100974000D01*
X87377500Y-100926380D01*
X87377500Y-101021619D01*
X88282261Y-101878761D02*
X88187023Y-101926380D01*
X87996547Y-101926380D01*
X87901309Y-101878761D01*
X87853690Y-101831142D01*
X87806071Y-101735904D01*
X87806071Y-101450190D01*
X87853690Y-101354952D01*
X87901309Y-101307333D01*
X87996547Y-101259714D01*
X88187023Y-101259714D01*
X88282261Y-101307333D01*
X89139404Y-101926380D02*
X89139404Y-101402571D01*
X89091785Y-101307333D01*
X88996547Y-101259714D01*
X88806071Y-101259714D01*
X88710833Y-101307333D01*
X89139404Y-101878761D02*
X89044166Y-101926380D01*
X88806071Y-101926380D01*
X88710833Y-101878761D01*
X88663214Y-101783523D01*
X88663214Y-101688285D01*
X88710833Y-101593047D01*
X88806071Y-101545428D01*
X89044166Y-101545428D01*
X89139404Y-101497809D01*
X89472738Y-101259714D02*
X89853690Y-101259714D01*
X89615595Y-100926380D02*
X89615595Y-101783523D01*
X89663214Y-101878761D01*
X89758452Y-101926380D01*
X89853690Y-101926380D01*
X90329880Y-101926380D02*
X90234642Y-101878761D01*
X90187023Y-101831142D01*
X90139404Y-101735904D01*
X90139404Y-101450190D01*
X90187023Y-101354952D01*
X90234642Y-101307333D01*
X90329880Y-101259714D01*
X90472738Y-101259714D01*
X90567976Y-101307333D01*
X90615595Y-101354952D01*
X90663214Y-101450190D01*
X90663214Y-101735904D01*
X90615595Y-101831142D01*
X90567976Y-101878761D01*
X90472738Y-101926380D01*
X90329880Y-101926380D01*
X91091785Y-101926380D02*
X91091785Y-101259714D01*
X91091785Y-101450190D02*
X91139404Y-101354952D01*
X91187023Y-101307333D01*
X91282261Y-101259714D01*
X91377500Y-101259714D01*
X81472738Y-102909714D02*
X81853690Y-102909714D01*
X81615595Y-103576380D02*
X81615595Y-102719238D01*
X81663214Y-102624000D01*
X81758452Y-102576380D01*
X81853690Y-102576380D01*
X82329880Y-103576380D02*
X82234642Y-103528761D01*
X82187023Y-103481142D01*
X82139404Y-103385904D01*
X82139404Y-103100190D01*
X82187023Y-103004952D01*
X82234642Y-102957333D01*
X82329880Y-102909714D01*
X82472738Y-102909714D01*
X82567976Y-102957333D01*
X82615595Y-103004952D01*
X82663214Y-103100190D01*
X82663214Y-103385904D01*
X82615595Y-103481142D01*
X82567976Y-103528761D01*
X82472738Y-103576380D01*
X82329880Y-103576380D01*
X83091785Y-103576380D02*
X83091785Y-102909714D01*
X83091785Y-103100190D02*
X83139404Y-103004952D01*
X83187023Y-102957333D01*
X83282261Y-102909714D01*
X83377500Y-102909714D01*
X84425119Y-103290666D02*
X84901309Y-103290666D01*
X84329880Y-103576380D02*
X84663214Y-102576380D01*
X84996547Y-103576380D01*
X85329880Y-103576380D02*
X85329880Y-102909714D01*
X85329880Y-103100190D02*
X85377500Y-103004952D01*
X85425119Y-102957333D01*
X85520357Y-102909714D01*
X85615595Y-102909714D01*
X86377500Y-103576380D02*
X86377500Y-102576380D01*
X86377500Y-103528761D02*
X86282261Y-103576380D01*
X86091785Y-103576380D01*
X85996547Y-103528761D01*
X85948928Y-103481142D01*
X85901309Y-103385904D01*
X85901309Y-103100190D01*
X85948928Y-103004952D01*
X85996547Y-102957333D01*
X86091785Y-102909714D01*
X86282261Y-102909714D01*
X86377500Y-102957333D01*
X87282261Y-102909714D02*
X87282261Y-103576380D01*
X86853690Y-102909714D02*
X86853690Y-103433523D01*
X86901309Y-103528761D01*
X86996547Y-103576380D01*
X87139404Y-103576380D01*
X87234642Y-103528761D01*
X87282261Y-103481142D01*
X87758452Y-103576380D02*
X87758452Y-102909714D01*
X87758452Y-102576380D02*
X87710833Y-102624000D01*
X87758452Y-102671619D01*
X87806071Y-102624000D01*
X87758452Y-102576380D01*
X87758452Y-102671619D01*
X88234642Y-102909714D02*
X88234642Y-103576380D01*
X88234642Y-103004952D02*
X88282261Y-102957333D01*
X88377500Y-102909714D01*
X88520357Y-102909714D01*
X88615595Y-102957333D01*
X88663214Y-103052571D01*
X88663214Y-103576380D01*
X89282261Y-103576380D02*
X89187023Y-103528761D01*
X89139404Y-103481142D01*
X89091785Y-103385904D01*
X89091785Y-103100190D01*
X89139404Y-103004952D01*
X89187023Y-102957333D01*
X89282261Y-102909714D01*
X89425119Y-102909714D01*
X89520357Y-102957333D01*
X89567976Y-103004952D01*
X89615595Y-103100190D01*
X89615595Y-103385904D01*
X89567976Y-103481142D01*
X89520357Y-103528761D01*
X89425119Y-103576380D01*
X89282261Y-103576380D01*
X89996547Y-103528761D02*
X90139404Y-103576380D01*
X90377500Y-103576380D01*
X90472738Y-103528761D01*
X90520357Y-103481142D01*
X90567976Y-103385904D01*
X90567976Y-103290666D01*
X90520357Y-103195428D01*
X90472738Y-103147809D01*
X90377500Y-103100190D01*
X90187023Y-103052571D01*
X90091785Y-103004952D01*
X90044166Y-102957333D01*
X89996547Y-102862095D01*
X89996547Y-102766857D01*
X90044166Y-102671619D01*
X90091785Y-102624000D01*
X90187023Y-102576380D01*
X90425119Y-102576380D01*
X90567976Y-102624000D01*
X90996547Y-103576380D02*
X90996547Y-102576380D01*
X91425119Y-103576380D02*
X91425119Y-103052571D01*
X91377500Y-102957333D01*
X91282261Y-102909714D01*
X91139404Y-102909714D01*
X91044166Y-102957333D01*
X90996547Y-103004952D01*
X91901309Y-103576380D02*
X91901309Y-102909714D01*
X91901309Y-102576380D02*
X91853690Y-102624000D01*
X91901309Y-102671619D01*
X91948928Y-102624000D01*
X91901309Y-102576380D01*
X91901309Y-102671619D01*
X92758452Y-103528761D02*
X92663214Y-103576380D01*
X92472738Y-103576380D01*
X92377500Y-103528761D01*
X92329880Y-103433523D01*
X92329880Y-103052571D01*
X92377500Y-102957333D01*
X92472738Y-102909714D01*
X92663214Y-102909714D01*
X92758452Y-102957333D01*
X92806071Y-103052571D01*
X92806071Y-103147809D01*
X92329880Y-103243047D01*
X93377500Y-103576380D02*
X93282261Y-103528761D01*
X93234642Y-103433523D01*
X93234642Y-102576380D01*
X94187023Y-103576380D02*
X94187023Y-102576380D01*
X94187023Y-103528761D02*
X94091785Y-103576380D01*
X93901309Y-103576380D01*
X93806071Y-103528761D01*
X93758452Y-103481142D01*
X93710833Y-103385904D01*
X93710833Y-103100190D01*
X93758452Y-103004952D01*
X93806071Y-102957333D01*
X93901309Y-102909714D01*
X94091785Y-102909714D01*
X94187023Y-102957333D01*
X94710833Y-103528761D02*
X94710833Y-103576380D01*
X94663214Y-103671619D01*
X94615595Y-103719238D01*
X95853690Y-103528761D02*
X95996547Y-103576380D01*
X96234642Y-103576380D01*
X96329880Y-103528761D01*
X96377500Y-103481142D01*
X96425119Y-103385904D01*
X96425119Y-103290666D01*
X96377500Y-103195428D01*
X96329880Y-103147809D01*
X96234642Y-103100190D01*
X96044166Y-103052571D01*
X95948928Y-103004952D01*
X95901309Y-102957333D01*
X95853690Y-102862095D01*
X95853690Y-102766857D01*
X95901309Y-102671619D01*
X95948928Y-102624000D01*
X96044166Y-102576380D01*
X96282261Y-102576380D01*
X96425119Y-102624000D01*
X96853690Y-103576380D02*
X96853690Y-102576380D01*
X97234642Y-102576380D01*
X97329880Y-102624000D01*
X97377500Y-102671619D01*
X97425119Y-102766857D01*
X97425119Y-102909714D01*
X97377500Y-103004952D01*
X97329880Y-103052571D01*
X97234642Y-103100190D01*
X96853690Y-103100190D01*
X97853690Y-103576380D02*
X97853690Y-102576380D01*
X99234642Y-103576380D02*
X99139404Y-103528761D01*
X99091785Y-103433523D01*
X99091785Y-102576380D01*
X99615595Y-103576380D02*
X99615595Y-102909714D01*
X99615595Y-102576380D02*
X99567976Y-102624000D01*
X99615595Y-102671619D01*
X99663214Y-102624000D01*
X99615595Y-102576380D01*
X99615595Y-102671619D01*
X100091785Y-102909714D02*
X100091785Y-103576380D01*
X100091785Y-103004952D02*
X100139404Y-102957333D01*
X100234642Y-102909714D01*
X100377500Y-102909714D01*
X100472738Y-102957333D01*
X100520357Y-103052571D01*
X100520357Y-103576380D01*
X101377500Y-103528761D02*
X101282261Y-103576380D01*
X101091785Y-103576380D01*
X100996547Y-103528761D01*
X100948928Y-103433523D01*
X100948928Y-103052571D01*
X100996547Y-102957333D01*
X101091785Y-102909714D01*
X101282261Y-102909714D01*
X101377500Y-102957333D01*
X101425119Y-103052571D01*
X101425119Y-103147809D01*
X100948928Y-103243047D01*
X103044166Y-103576380D02*
X103044166Y-102576380D01*
X103044166Y-103528761D02*
X102948928Y-103576380D01*
X102758452Y-103576380D01*
X102663214Y-103528761D01*
X102615595Y-103481142D01*
X102567976Y-103385904D01*
X102567976Y-103100190D01*
X102615595Y-103004952D01*
X102663214Y-102957333D01*
X102758452Y-102909714D01*
X102948928Y-102909714D01*
X103044166Y-102957333D01*
X103520357Y-103576380D02*
X103520357Y-102909714D01*
X103520357Y-103100190D02*
X103567976Y-103004952D01*
X103615595Y-102957333D01*
X103710833Y-102909714D01*
X103806071Y-102909714D01*
X104139404Y-103576380D02*
X104139404Y-102909714D01*
X104139404Y-102576380D02*
X104091785Y-102624000D01*
X104139404Y-102671619D01*
X104187023Y-102624000D01*
X104139404Y-102576380D01*
X104139404Y-102671619D01*
X104520357Y-102909714D02*
X104758452Y-103576380D01*
X104996547Y-102909714D01*
X105758452Y-103528761D02*
X105663214Y-103576380D01*
X105472738Y-103576380D01*
X105377500Y-103528761D01*
X105329880Y-103433523D01*
X105329880Y-103052571D01*
X105377500Y-102957333D01*
X105472738Y-102909714D01*
X105663214Y-102909714D01*
X105758452Y-102957333D01*
X105806071Y-103052571D01*
X105806071Y-103147809D01*
X105329880Y-103243047D01*
X106234642Y-103576380D02*
X106234642Y-102909714D01*
X106234642Y-103100190D02*
X106282261Y-103004952D01*
X106329880Y-102957333D01*
X106425119Y-102909714D01*
X106520357Y-102909714D01*
X82187023Y-105226380D02*
X81853690Y-104750190D01*
X81615595Y-105226380D02*
X81615595Y-104226380D01*
X81996547Y-104226380D01*
X82091785Y-104274000D01*
X82139404Y-104321619D01*
X82187023Y-104416857D01*
X82187023Y-104559714D01*
X82139404Y-104654952D01*
X82091785Y-104702571D01*
X81996547Y-104750190D01*
X81615595Y-104750190D01*
X82996547Y-105178761D02*
X82901309Y-105226380D01*
X82710833Y-105226380D01*
X82615595Y-105178761D01*
X82567976Y-105083523D01*
X82567976Y-104702571D01*
X82615595Y-104607333D01*
X82710833Y-104559714D01*
X82901309Y-104559714D01*
X82996547Y-104607333D01*
X83044166Y-104702571D01*
X83044166Y-104797809D01*
X82567976Y-104893047D01*
X83377500Y-104559714D02*
X83615595Y-105226380D01*
X83853690Y-104559714D01*
X84234642Y-105131142D02*
X84282261Y-105178761D01*
X84234642Y-105226380D01*
X84187023Y-105178761D01*
X84234642Y-105131142D01*
X84234642Y-105226380D01*
X85234642Y-105226380D02*
X84663214Y-105226380D01*
X84948928Y-105226380D02*
X84948928Y-104226380D01*
X84853690Y-104369238D01*
X84758452Y-104464476D01*
X84663214Y-104512095D01*
X85663214Y-105131142D02*
X85710833Y-105178761D01*
X85663214Y-105226380D01*
X85615595Y-105178761D01*
X85663214Y-105131142D01*
X85663214Y-105226380D01*
X86329880Y-104226380D02*
X86425119Y-104226380D01*
X86520357Y-104274000D01*
X86567976Y-104321619D01*
X86615595Y-104416857D01*
X86663214Y-104607333D01*
X86663214Y-104845428D01*
X86615595Y-105035904D01*
X86567976Y-105131142D01*
X86520357Y-105178761D01*
X86425119Y-105226380D01*
X86329880Y-105226380D01*
X86234642Y-105178761D01*
X86187023Y-105131142D01*
X86139404Y-105035904D01*
X86091785Y-104845428D01*
X86091785Y-104607333D01*
X86139404Y-104416857D01*
X86187023Y-104321619D01*
X86234642Y-104274000D01*
X86329880Y-104226380D01*
D11*
G36*
X91643200Y-108385454D02*
G01*
X91654065Y-108499393D01*
X91685682Y-108607016D01*
X91736585Y-108706015D01*
X91805307Y-108794084D01*
X91890381Y-108868916D01*
X91987368Y-108926784D01*
X92093636Y-108966405D01*
X92200650Y-108984973D01*
X92306300Y-108983834D01*
X92408475Y-108964330D01*
X92505066Y-108927806D01*
X92593962Y-108875605D01*
X92673054Y-108809073D01*
X92740231Y-108729552D01*
X92793383Y-108638387D01*
X92830401Y-108536923D01*
X92849173Y-108426502D01*
X92851111Y-108376606D01*
X92851111Y-108288667D01*
X92903040Y-108288667D01*
X92939347Y-108291511D01*
X92966245Y-108303311D01*
X92993351Y-108327049D01*
X93031733Y-108365431D01*
X93031733Y-110557002D01*
X93031724Y-110819139D01*
X93031692Y-111059641D01*
X93031628Y-111279448D01*
X93031524Y-111479501D01*
X93031373Y-111660744D01*
X93031166Y-111824116D01*
X93030894Y-111970560D01*
X93030550Y-112101017D01*
X93030126Y-112216429D01*
X93029613Y-112317738D01*
X93029003Y-112405884D01*
X93028288Y-112481810D01*
X93027460Y-112546457D01*
X93026511Y-112600767D01*
X93025433Y-112645680D01*
X93024217Y-112682140D01*
X93022855Y-112711087D01*
X93021339Y-112733463D01*
X93019662Y-112750209D01*
X93017814Y-112762268D01*
X93015787Y-112770580D01*
X93013575Y-112776087D01*
X93012492Y-112777937D01*
X93008329Y-112784949D01*
X93004795Y-112791396D01*
X93000965Y-112797300D01*
X92995918Y-112802686D01*
X92988729Y-112807578D01*
X92978477Y-112811998D01*
X92964236Y-112815972D01*
X92945086Y-112819521D01*
X92920101Y-112822670D01*
X92888360Y-112825442D01*
X92848938Y-112827861D01*
X92800914Y-112829951D01*
X92743363Y-112831735D01*
X92675363Y-112833237D01*
X92595990Y-112834480D01*
X92504321Y-112835489D01*
X92399434Y-112836285D01*
X92280404Y-112836894D01*
X92146310Y-112837339D01*
X91996227Y-112837643D01*
X91829233Y-112837830D01*
X91644404Y-112837924D01*
X91440817Y-112837948D01*
X91217550Y-112837925D01*
X90973678Y-112837880D01*
X90708279Y-112837837D01*
X90669896Y-112837832D01*
X90402918Y-112837789D01*
X90157598Y-112837718D01*
X89933017Y-112837613D01*
X89728255Y-112837466D01*
X89542394Y-112837269D01*
X89374512Y-112837016D01*
X89223692Y-112836700D01*
X89089013Y-112836313D01*
X88969556Y-112835847D01*
X88864401Y-112835297D01*
X88772629Y-112834653D01*
X88693321Y-112833911D01*
X88625557Y-112833061D01*
X88568418Y-112832097D01*
X88520983Y-112831011D01*
X88482334Y-112829797D01*
X88451551Y-112828447D01*
X88427715Y-112826955D01*
X88409906Y-112825311D01*
X88397205Y-112823511D01*
X88388692Y-112821545D01*
X88384334Y-112819877D01*
X88375872Y-112816306D01*
X88368103Y-112813670D01*
X88360998Y-112811034D01*
X88354527Y-112807462D01*
X88348661Y-112802021D01*
X88343371Y-112793775D01*
X88338626Y-112781790D01*
X88334398Y-112765131D01*
X88330657Y-112742863D01*
X88327373Y-112714052D01*
X88324517Y-112677763D01*
X88322060Y-112633061D01*
X88319971Y-112579011D01*
X88318222Y-112514679D01*
X88316783Y-112439130D01*
X88315624Y-112351430D01*
X88314717Y-112250643D01*
X88314031Y-112135834D01*
X88313537Y-112006070D01*
X88313205Y-111860415D01*
X88313007Y-111697935D01*
X88312913Y-111517695D01*
X88312892Y-111318760D01*
X88312915Y-111100196D01*
X88312954Y-110861068D01*
X88312978Y-110600440D01*
X88312978Y-110558289D01*
X88312964Y-110295392D01*
X88312939Y-110054132D01*
X88312929Y-109833565D01*
X88312958Y-109632752D01*
X88313052Y-109450749D01*
X88313238Y-109286616D01*
X88313541Y-109139411D01*
X88313986Y-109008192D01*
X88314566Y-108898267D01*
X88617403Y-108898267D01*
X88657193Y-108956111D01*
X88668364Y-108971879D01*
X88678434Y-108985841D01*
X88687462Y-108999184D01*
X88695503Y-109013093D01*
X88702614Y-109028756D01*
X88708853Y-109047358D01*
X88714275Y-109070086D01*
X88718938Y-109098127D01*
X88722899Y-109132667D01*
X88726215Y-109174892D01*
X88728941Y-109225989D01*
X88731136Y-109287144D01*
X88732855Y-109359544D01*
X88734156Y-109444375D01*
X88735095Y-109542822D01*
X88735730Y-109656074D01*
X88736116Y-109785316D01*
X88736312Y-109931734D01*
X88736373Y-110096516D01*
X88736357Y-110280847D01*
X88736320Y-110485913D01*
X88736311Y-110608533D01*
X88736335Y-110825482D01*
X88736369Y-111021042D01*
X88736357Y-111196399D01*
X88736242Y-111352741D01*
X88735970Y-111491257D01*
X88735482Y-111613134D01*
X88734724Y-111719560D01*
X88733638Y-111811722D01*
X88732169Y-111890809D01*
X88730260Y-111958008D01*
X88727856Y-112014507D01*
X88724899Y-112061493D01*
X88721334Y-112100155D01*
X88717105Y-112131680D01*
X88712154Y-112157255D01*
X88706427Y-112178070D01*
X88699867Y-112195311D01*
X88692417Y-112210165D01*
X88684021Y-112223822D01*
X88674624Y-112237469D01*
X88664168Y-112252293D01*
X88658077Y-112261183D01*
X88619304Y-112318800D01*
X89150868Y-112318800D01*
X89274117Y-112318765D01*
X89376613Y-112318615D01*
X89460180Y-112318278D01*
X89526644Y-112317686D01*
X89577829Y-112316767D01*
X89615559Y-112315451D01*
X89641660Y-112313669D01*
X89657956Y-112311351D01*
X89666272Y-112308426D01*
X89668432Y-112304824D01*
X89666261Y-112300475D01*
X89665065Y-112299045D01*
X89639915Y-112261973D01*
X89614017Y-112209172D01*
X89590408Y-112147170D01*
X89582139Y-112120757D01*
X89577522Y-112102816D01*
X89573621Y-112081755D01*
X89570352Y-112055489D01*
X89567634Y-112021932D01*
X89565385Y-111978999D01*
X89563523Y-111924604D01*
X89561964Y-111856662D01*
X89560628Y-111773088D01*
X89559431Y-111671795D01*
X89558292Y-111550700D01*
X89557915Y-111506000D01*
X89556898Y-111380849D01*
X89556140Y-111276482D01*
X89555697Y-111191107D01*
X89555630Y-111122933D01*
X89555995Y-111070165D01*
X89556852Y-111031014D01*
X89558259Y-111003685D01*
X89560275Y-110986386D01*
X89562957Y-110977326D01*
X89566364Y-110974712D01*
X89570556Y-110976751D01*
X89575029Y-110981067D01*
X89585384Y-110994002D01*
X89607442Y-111023076D01*
X89639643Y-111066159D01*
X89680426Y-111121118D01*
X89728230Y-111185823D01*
X89781495Y-111258142D01*
X89838660Y-111335944D01*
X89898163Y-111417098D01*
X89958445Y-111499472D01*
X90017945Y-111580936D01*
X90075102Y-111659357D01*
X90128355Y-111732604D01*
X90176143Y-111798547D01*
X90216907Y-111855054D01*
X90249084Y-111899993D01*
X90271115Y-111931234D01*
X90275683Y-111937866D01*
X90298604Y-111974769D01*
X90325412Y-112022759D01*
X90350811Y-112072297D01*
X90354032Y-112078977D01*
X90375710Y-112127172D01*
X90388296Y-112164734D01*
X90394026Y-112200560D01*
X90395144Y-112242600D01*
X90394510Y-112318800D01*
X91548949Y-112318800D01*
X91457785Y-112225069D01*
X91410988Y-112175175D01*
X91360701Y-112118695D01*
X91314656Y-112064426D01*
X91294231Y-112039073D01*
X91263793Y-111999528D01*
X91223738Y-111946316D01*
X91175239Y-111881067D01*
X91119465Y-111805411D01*
X91057589Y-111720977D01*
X90990781Y-111629394D01*
X90920213Y-111532292D01*
X90847055Y-111431301D01*
X90772479Y-111328050D01*
X90697656Y-111224168D01*
X90623757Y-111121285D01*
X90551954Y-111021031D01*
X90483416Y-110925036D01*
X90419316Y-110834927D01*
X90360825Y-110752336D01*
X90309114Y-110678892D01*
X90265353Y-110616224D01*
X90230715Y-110565961D01*
X90206370Y-110529734D01*
X90193489Y-110509171D01*
X90191731Y-110505068D01*
X90199690Y-110493742D01*
X90220485Y-110466562D01*
X90252753Y-110425229D01*
X90295130Y-110371444D01*
X90346253Y-110306906D01*
X90404759Y-110233318D01*
X90469286Y-110152378D01*
X90538469Y-110065788D01*
X90610947Y-109975248D01*
X90685354Y-109882460D01*
X90745083Y-109808102D01*
X91756089Y-109808102D01*
X91761998Y-109821059D01*
X91776328Y-109843308D01*
X91777375Y-109844791D01*
X91796162Y-109874944D01*
X91815809Y-109911775D01*
X91819708Y-109919911D01*
X91823244Y-109928340D01*
X91826370Y-109938459D01*
X91829114Y-109951660D01*
X91831508Y-109969338D01*
X91833581Y-109992884D01*
X91835365Y-110023693D01*
X91836888Y-110063157D01*
X91838181Y-110112669D01*
X91839274Y-110173623D01*
X91840197Y-110247411D01*
X91840981Y-110335428D01*
X91841655Y-110439065D01*
X91842250Y-110559716D01*
X91842795Y-110698774D01*
X91843321Y-110857632D01*
X91843855Y-111036489D01*
X91844394Y-111221607D01*
X91844828Y-111385545D01*
X91845091Y-111529703D01*
X91845116Y-111655479D01*
X91844835Y-111764271D01*
X91844181Y-111857477D01*
X91843086Y-111936497D01*
X91841482Y-112002728D01*
X91839303Y-112057570D01*
X91836481Y-112102421D01*
X91832949Y-112138678D01*
X91828639Y-112167741D01*
X91823483Y-112191009D01*
X91817415Y-112209879D01*
X91810367Y-112225751D01*
X91802271Y-112240022D01*
X91793060Y-112254091D01*
X91784560Y-112266558D01*
X91767424Y-112292852D01*
X91757278Y-112310437D01*
X91756089Y-112313657D01*
X91766996Y-112314734D01*
X91798189Y-112315735D01*
X91847377Y-112316635D01*
X91912267Y-112317410D01*
X91990570Y-112318037D01*
X92079993Y-112318491D01*
X92178244Y-112318749D01*
X92247155Y-112318800D01*
X92352148Y-112318580D01*
X92448990Y-112317948D01*
X92535493Y-112316949D01*
X92609468Y-112315627D01*
X92668726Y-112314026D01*
X92711080Y-112312191D01*
X92734340Y-112310165D01*
X92738222Y-112308893D01*
X92730524Y-112293991D01*
X92722526Y-112285960D01*
X92709354Y-112268834D01*
X92692115Y-112238583D01*
X92680193Y-112214022D01*
X92653555Y-112155111D01*
X92650480Y-110978245D01*
X92647405Y-109801378D01*
X92201747Y-109801378D01*
X92103930Y-109801542D01*
X92013536Y-109802011D01*
X91932970Y-109802747D01*
X91864638Y-109803716D01*
X91810944Y-109804880D01*
X91774295Y-109806203D01*
X91757096Y-109807649D01*
X91756089Y-109808102D01*
X90745083Y-109808102D01*
X90760330Y-109789122D01*
X90834510Y-109696937D01*
X90906531Y-109607604D01*
X90975031Y-109522824D01*
X91038645Y-109444298D01*
X91096012Y-109373726D01*
X91145767Y-109312809D01*
X91186548Y-109263247D01*
X91203712Y-109242578D01*
X91290004Y-109141916D01*
X91366603Y-109058659D01*
X91435417Y-108990838D01*
X91498352Y-108936489D01*
X91507733Y-108929122D01*
X91547244Y-108898517D01*
X90415484Y-108898267D01*
X90420773Y-108946244D01*
X90417470Y-109003588D01*
X90395939Y-109071863D01*
X90355965Y-109151612D01*
X90310657Y-109223895D01*
X90294439Y-109246540D01*
X90266386Y-109284096D01*
X90228170Y-109334421D01*
X90181463Y-109395373D01*
X90127939Y-109464811D01*
X90069269Y-109540594D01*
X90007125Y-109620580D01*
X89943179Y-109702628D01*
X89879105Y-109784596D01*
X89816573Y-109864343D01*
X89757257Y-109939727D01*
X89702829Y-110008607D01*
X89654961Y-110068842D01*
X89615325Y-110118289D01*
X89585594Y-110154808D01*
X89567439Y-110176258D01*
X89564380Y-110179556D01*
X89561521Y-110171549D01*
X89559307Y-110141255D01*
X89557743Y-110088956D01*
X89556833Y-110014931D01*
X89556580Y-109919463D01*
X89556987Y-109802834D01*
X89557896Y-109682845D01*
X89559218Y-109550733D01*
X89560743Y-109438994D01*
X89562719Y-109345425D01*
X89565394Y-109267819D01*
X89569018Y-109203974D01*
X89573839Y-109151683D01*
X89580106Y-109108744D01*
X89588068Y-109072951D01*
X89597973Y-109042100D01*
X89610069Y-109013986D01*
X89624607Y-108986405D01*
X89639289Y-108961366D01*
X89677286Y-108898267D01*
X88617403Y-108898267D01*
X88314566Y-108898267D01*
X88314599Y-108892017D01*
X88315405Y-108789944D01*
X88316430Y-108701033D01*
X88317700Y-108624341D01*
X88319240Y-108558927D01*
X88321076Y-108503849D01*
X88323233Y-108458165D01*
X88325737Y-108420934D01*
X88328613Y-108391213D01*
X88331887Y-108368062D01*
X88335585Y-108350539D01*
X88339731Y-108337701D01*
X88344353Y-108328608D01*
X88349474Y-108322318D01*
X88355122Y-108317888D01*
X88361321Y-108314378D01*
X88368096Y-108310845D01*
X88374092Y-108307276D01*
X88379325Y-108304700D01*
X88387501Y-108302372D01*
X88399714Y-108300278D01*
X88417059Y-108298407D01*
X88440631Y-108296747D01*
X88471523Y-108295284D01*
X88510832Y-108294008D01*
X88559650Y-108292904D01*
X88619073Y-108291961D01*
X88690196Y-108291167D01*
X88774112Y-108290509D01*
X88871917Y-108289975D01*
X88984706Y-108289553D01*
X89113571Y-108289229D01*
X89259609Y-108288992D01*
X89423914Y-108288830D01*
X89607580Y-108288730D01*
X89811703Y-108288680D01*
X90022847Y-108288667D01*
X91643200Y-108288667D01*
X91643200Y-108385454D01*
X91643200Y-108385454D01*
G37*
X91643200Y-108385454D02*
X91654065Y-108499393D01*
X91685682Y-108607016D01*
X91736585Y-108706015D01*
X91805307Y-108794084D01*
X91890381Y-108868916D01*
X91987368Y-108926784D01*
X92093636Y-108966405D01*
X92200650Y-108984973D01*
X92306300Y-108983834D01*
X92408475Y-108964330D01*
X92505066Y-108927806D01*
X92593962Y-108875605D01*
X92673054Y-108809073D01*
X92740231Y-108729552D01*
X92793383Y-108638387D01*
X92830401Y-108536923D01*
X92849173Y-108426502D01*
X92851111Y-108376606D01*
X92851111Y-108288667D01*
X92903040Y-108288667D01*
X92939347Y-108291511D01*
X92966245Y-108303311D01*
X92993351Y-108327049D01*
X93031733Y-108365431D01*
X93031733Y-110557002D01*
X93031724Y-110819139D01*
X93031692Y-111059641D01*
X93031628Y-111279448D01*
X93031524Y-111479501D01*
X93031373Y-111660744D01*
X93031166Y-111824116D01*
X93030894Y-111970560D01*
X93030550Y-112101017D01*
X93030126Y-112216429D01*
X93029613Y-112317738D01*
X93029003Y-112405884D01*
X93028288Y-112481810D01*
X93027460Y-112546457D01*
X93026511Y-112600767D01*
X93025433Y-112645680D01*
X93024217Y-112682140D01*
X93022855Y-112711087D01*
X93021339Y-112733463D01*
X93019662Y-112750209D01*
X93017814Y-112762268D01*
X93015787Y-112770580D01*
X93013575Y-112776087D01*
X93012492Y-112777937D01*
X93008329Y-112784949D01*
X93004795Y-112791396D01*
X93000965Y-112797300D01*
X92995918Y-112802686D01*
X92988729Y-112807578D01*
X92978477Y-112811998D01*
X92964236Y-112815972D01*
X92945086Y-112819521D01*
X92920101Y-112822670D01*
X92888360Y-112825442D01*
X92848938Y-112827861D01*
X92800914Y-112829951D01*
X92743363Y-112831735D01*
X92675363Y-112833237D01*
X92595990Y-112834480D01*
X92504321Y-112835489D01*
X92399434Y-112836285D01*
X92280404Y-112836894D01*
X92146310Y-112837339D01*
X91996227Y-112837643D01*
X91829233Y-112837830D01*
X91644404Y-112837924D01*
X91440817Y-112837948D01*
X91217550Y-112837925D01*
X90973678Y-112837880D01*
X90708279Y-112837837D01*
X90669896Y-112837832D01*
X90402918Y-112837789D01*
X90157598Y-112837718D01*
X89933017Y-112837613D01*
X89728255Y-112837466D01*
X89542394Y-112837269D01*
X89374512Y-112837016D01*
X89223692Y-112836700D01*
X89089013Y-112836313D01*
X88969556Y-112835847D01*
X88864401Y-112835297D01*
X88772629Y-112834653D01*
X88693321Y-112833911D01*
X88625557Y-112833061D01*
X88568418Y-112832097D01*
X88520983Y-112831011D01*
X88482334Y-112829797D01*
X88451551Y-112828447D01*
X88427715Y-112826955D01*
X88409906Y-112825311D01*
X88397205Y-112823511D01*
X88388692Y-112821545D01*
X88384334Y-112819877D01*
X88375872Y-112816306D01*
X88368103Y-112813670D01*
X88360998Y-112811034D01*
X88354527Y-112807462D01*
X88348661Y-112802021D01*
X88343371Y-112793775D01*
X88338626Y-112781790D01*
X88334398Y-112765131D01*
X88330657Y-112742863D01*
X88327373Y-112714052D01*
X88324517Y-112677763D01*
X88322060Y-112633061D01*
X88319971Y-112579011D01*
X88318222Y-112514679D01*
X88316783Y-112439130D01*
X88315624Y-112351430D01*
X88314717Y-112250643D01*
X88314031Y-112135834D01*
X88313537Y-112006070D01*
X88313205Y-111860415D01*
X88313007Y-111697935D01*
X88312913Y-111517695D01*
X88312892Y-111318760D01*
X88312915Y-111100196D01*
X88312954Y-110861068D01*
X88312978Y-110600440D01*
X88312978Y-110558289D01*
X88312964Y-110295392D01*
X88312939Y-110054132D01*
X88312929Y-109833565D01*
X88312958Y-109632752D01*
X88313052Y-109450749D01*
X88313238Y-109286616D01*
X88313541Y-109139411D01*
X88313986Y-109008192D01*
X88314566Y-108898267D01*
X88617403Y-108898267D01*
X88657193Y-108956111D01*
X88668364Y-108971879D01*
X88678434Y-108985841D01*
X88687462Y-108999184D01*
X88695503Y-109013093D01*
X88702614Y-109028756D01*
X88708853Y-109047358D01*
X88714275Y-109070086D01*
X88718938Y-109098127D01*
X88722899Y-109132667D01*
X88726215Y-109174892D01*
X88728941Y-109225989D01*
X88731136Y-109287144D01*
X88732855Y-109359544D01*
X88734156Y-109444375D01*
X88735095Y-109542822D01*
X88735730Y-109656074D01*
X88736116Y-109785316D01*
X88736312Y-109931734D01*
X88736373Y-110096516D01*
X88736357Y-110280847D01*
X88736320Y-110485913D01*
X88736311Y-110608533D01*
X88736335Y-110825482D01*
X88736369Y-111021042D01*
X88736357Y-111196399D01*
X88736242Y-111352741D01*
X88735970Y-111491257D01*
X88735482Y-111613134D01*
X88734724Y-111719560D01*
X88733638Y-111811722D01*
X88732169Y-111890809D01*
X88730260Y-111958008D01*
X88727856Y-112014507D01*
X88724899Y-112061493D01*
X88721334Y-112100155D01*
X88717105Y-112131680D01*
X88712154Y-112157255D01*
X88706427Y-112178070D01*
X88699867Y-112195311D01*
X88692417Y-112210165D01*
X88684021Y-112223822D01*
X88674624Y-112237469D01*
X88664168Y-112252293D01*
X88658077Y-112261183D01*
X88619304Y-112318800D01*
X89150868Y-112318800D01*
X89274117Y-112318765D01*
X89376613Y-112318615D01*
X89460180Y-112318278D01*
X89526644Y-112317686D01*
X89577829Y-112316767D01*
X89615559Y-112315451D01*
X89641660Y-112313669D01*
X89657956Y-112311351D01*
X89666272Y-112308426D01*
X89668432Y-112304824D01*
X89666261Y-112300475D01*
X89665065Y-112299045D01*
X89639915Y-112261973D01*
X89614017Y-112209172D01*
X89590408Y-112147170D01*
X89582139Y-112120757D01*
X89577522Y-112102816D01*
X89573621Y-112081755D01*
X89570352Y-112055489D01*
X89567634Y-112021932D01*
X89565385Y-111978999D01*
X89563523Y-111924604D01*
X89561964Y-111856662D01*
X89560628Y-111773088D01*
X89559431Y-111671795D01*
X89558292Y-111550700D01*
X89557915Y-111506000D01*
X89556898Y-111380849D01*
X89556140Y-111276482D01*
X89555697Y-111191107D01*
X89555630Y-111122933D01*
X89555995Y-111070165D01*
X89556852Y-111031014D01*
X89558259Y-111003685D01*
X89560275Y-110986386D01*
X89562957Y-110977326D01*
X89566364Y-110974712D01*
X89570556Y-110976751D01*
X89575029Y-110981067D01*
X89585384Y-110994002D01*
X89607442Y-111023076D01*
X89639643Y-111066159D01*
X89680426Y-111121118D01*
X89728230Y-111185823D01*
X89781495Y-111258142D01*
X89838660Y-111335944D01*
X89898163Y-111417098D01*
X89958445Y-111499472D01*
X90017945Y-111580936D01*
X90075102Y-111659357D01*
X90128355Y-111732604D01*
X90176143Y-111798547D01*
X90216907Y-111855054D01*
X90249084Y-111899993D01*
X90271115Y-111931234D01*
X90275683Y-111937866D01*
X90298604Y-111974769D01*
X90325412Y-112022759D01*
X90350811Y-112072297D01*
X90354032Y-112078977D01*
X90375710Y-112127172D01*
X90388296Y-112164734D01*
X90394026Y-112200560D01*
X90395144Y-112242600D01*
X90394510Y-112318800D01*
X91548949Y-112318800D01*
X91457785Y-112225069D01*
X91410988Y-112175175D01*
X91360701Y-112118695D01*
X91314656Y-112064426D01*
X91294231Y-112039073D01*
X91263793Y-111999528D01*
X91223738Y-111946316D01*
X91175239Y-111881067D01*
X91119465Y-111805411D01*
X91057589Y-111720977D01*
X90990781Y-111629394D01*
X90920213Y-111532292D01*
X90847055Y-111431301D01*
X90772479Y-111328050D01*
X90697656Y-111224168D01*
X90623757Y-111121285D01*
X90551954Y-111021031D01*
X90483416Y-110925036D01*
X90419316Y-110834927D01*
X90360825Y-110752336D01*
X90309114Y-110678892D01*
X90265353Y-110616224D01*
X90230715Y-110565961D01*
X90206370Y-110529734D01*
X90193489Y-110509171D01*
X90191731Y-110505068D01*
X90199690Y-110493742D01*
X90220485Y-110466562D01*
X90252753Y-110425229D01*
X90295130Y-110371444D01*
X90346253Y-110306906D01*
X90404759Y-110233318D01*
X90469286Y-110152378D01*
X90538469Y-110065788D01*
X90610947Y-109975248D01*
X90685354Y-109882460D01*
X90745083Y-109808102D01*
X91756089Y-109808102D01*
X91761998Y-109821059D01*
X91776328Y-109843308D01*
X91777375Y-109844791D01*
X91796162Y-109874944D01*
X91815809Y-109911775D01*
X91819708Y-109919911D01*
X91823244Y-109928340D01*
X91826370Y-109938459D01*
X91829114Y-109951660D01*
X91831508Y-109969338D01*
X91833581Y-109992884D01*
X91835365Y-110023693D01*
X91836888Y-110063157D01*
X91838181Y-110112669D01*
X91839274Y-110173623D01*
X91840197Y-110247411D01*
X91840981Y-110335428D01*
X91841655Y-110439065D01*
X91842250Y-110559716D01*
X91842795Y-110698774D01*
X91843321Y-110857632D01*
X91843855Y-111036489D01*
X91844394Y-111221607D01*
X91844828Y-111385545D01*
X91845091Y-111529703D01*
X91845116Y-111655479D01*
X91844835Y-111764271D01*
X91844181Y-111857477D01*
X91843086Y-111936497D01*
X91841482Y-112002728D01*
X91839303Y-112057570D01*
X91836481Y-112102421D01*
X91832949Y-112138678D01*
X91828639Y-112167741D01*
X91823483Y-112191009D01*
X91817415Y-112209879D01*
X91810367Y-112225751D01*
X91802271Y-112240022D01*
X91793060Y-112254091D01*
X91784560Y-112266558D01*
X91767424Y-112292852D01*
X91757278Y-112310437D01*
X91756089Y-112313657D01*
X91766996Y-112314734D01*
X91798189Y-112315735D01*
X91847377Y-112316635D01*
X91912267Y-112317410D01*
X91990570Y-112318037D01*
X92079993Y-112318491D01*
X92178244Y-112318749D01*
X92247155Y-112318800D01*
X92352148Y-112318580D01*
X92448990Y-112317948D01*
X92535493Y-112316949D01*
X92609468Y-112315627D01*
X92668726Y-112314026D01*
X92711080Y-112312191D01*
X92734340Y-112310165D01*
X92738222Y-112308893D01*
X92730524Y-112293991D01*
X92722526Y-112285960D01*
X92709354Y-112268834D01*
X92692115Y-112238583D01*
X92680193Y-112214022D01*
X92653555Y-112155111D01*
X92650480Y-110978245D01*
X92647405Y-109801378D01*
X92201747Y-109801378D01*
X92103930Y-109801542D01*
X92013536Y-109802011D01*
X91932970Y-109802747D01*
X91864638Y-109803716D01*
X91810944Y-109804880D01*
X91774295Y-109806203D01*
X91757096Y-109807649D01*
X91756089Y-109808102D01*
X90745083Y-109808102D01*
X90760330Y-109789122D01*
X90834510Y-109696937D01*
X90906531Y-109607604D01*
X90975031Y-109522824D01*
X91038645Y-109444298D01*
X91096012Y-109373726D01*
X91145767Y-109312809D01*
X91186548Y-109263247D01*
X91203712Y-109242578D01*
X91290004Y-109141916D01*
X91366603Y-109058659D01*
X91435417Y-108990838D01*
X91498352Y-108936489D01*
X91507733Y-108929122D01*
X91547244Y-108898517D01*
X90415484Y-108898267D01*
X90420773Y-108946244D01*
X90417470Y-109003588D01*
X90395939Y-109071863D01*
X90355965Y-109151612D01*
X90310657Y-109223895D01*
X90294439Y-109246540D01*
X90266386Y-109284096D01*
X90228170Y-109334421D01*
X90181463Y-109395373D01*
X90127939Y-109464811D01*
X90069269Y-109540594D01*
X90007125Y-109620580D01*
X89943179Y-109702628D01*
X89879105Y-109784596D01*
X89816573Y-109864343D01*
X89757257Y-109939727D01*
X89702829Y-110008607D01*
X89654961Y-110068842D01*
X89615325Y-110118289D01*
X89585594Y-110154808D01*
X89567439Y-110176258D01*
X89564380Y-110179556D01*
X89561521Y-110171549D01*
X89559307Y-110141255D01*
X89557743Y-110088956D01*
X89556833Y-110014931D01*
X89556580Y-109919463D01*
X89556987Y-109802834D01*
X89557896Y-109682845D01*
X89559218Y-109550733D01*
X89560743Y-109438994D01*
X89562719Y-109345425D01*
X89565394Y-109267819D01*
X89569018Y-109203974D01*
X89573839Y-109151683D01*
X89580106Y-109108744D01*
X89588068Y-109072951D01*
X89597973Y-109042100D01*
X89610069Y-109013986D01*
X89624607Y-108986405D01*
X89639289Y-108961366D01*
X89677286Y-108898267D01*
X88617403Y-108898267D01*
X88314566Y-108898267D01*
X88314599Y-108892017D01*
X88315405Y-108789944D01*
X88316430Y-108701033D01*
X88317700Y-108624341D01*
X88319240Y-108558927D01*
X88321076Y-108503849D01*
X88323233Y-108458165D01*
X88325737Y-108420934D01*
X88328613Y-108391213D01*
X88331887Y-108368062D01*
X88335585Y-108350539D01*
X88339731Y-108337701D01*
X88344353Y-108328608D01*
X88349474Y-108322318D01*
X88355122Y-108317888D01*
X88361321Y-108314378D01*
X88368096Y-108310845D01*
X88374092Y-108307276D01*
X88379325Y-108304700D01*
X88387501Y-108302372D01*
X88399714Y-108300278D01*
X88417059Y-108298407D01*
X88440631Y-108296747D01*
X88471523Y-108295284D01*
X88510832Y-108294008D01*
X88559650Y-108292904D01*
X88619073Y-108291961D01*
X88690196Y-108291167D01*
X88774112Y-108290509D01*
X88871917Y-108289975D01*
X88984706Y-108289553D01*
X89113571Y-108289229D01*
X89259609Y-108288992D01*
X89423914Y-108288830D01*
X89607580Y-108288730D01*
X89811703Y-108288680D01*
X90022847Y-108288667D01*
X91643200Y-108288667D01*
X91643200Y-108385454D01*
G36*
X94918029Y-108845471D02*
G01*
X95078170Y-108866645D01*
X95242110Y-108906785D01*
X95411913Y-108966289D01*
X95589643Y-109045554D01*
X95600910Y-109051099D01*
X95658605Y-109079125D01*
X95710152Y-109103202D01*
X95751791Y-109121649D01*
X95779762Y-109132786D01*
X95789333Y-109135333D01*
X95808550Y-109140341D01*
X95813161Y-109144547D01*
X95808058Y-109154980D01*
X95792018Y-109181268D01*
X95766888Y-109220657D01*
X95734514Y-109270391D01*
X95696743Y-109327715D01*
X95655422Y-109389876D01*
X95612398Y-109454118D01*
X95569517Y-109517685D01*
X95528626Y-109577825D01*
X95491571Y-109631780D01*
X95460200Y-109676797D01*
X95436359Y-109710121D01*
X95421894Y-109728997D01*
X95419909Y-109731187D01*
X95409791Y-109726538D01*
X95387450Y-109709362D01*
X95356880Y-109682840D01*
X95341136Y-109668364D01*
X95244647Y-109593082D01*
X95137936Y-109537641D01*
X95022432Y-109502541D01*
X94899562Y-109488280D01*
X94830161Y-109489451D01*
X94709023Y-109506612D01*
X94599805Y-109542494D01*
X94502182Y-109597359D01*
X94415828Y-109671470D01*
X94340415Y-109765088D01*
X94275618Y-109878476D01*
X94238201Y-109965067D01*
X94194348Y-110100766D01*
X94162028Y-110248250D01*
X94141157Y-110403714D01*
X94131651Y-110563356D01*
X94133427Y-110723373D01*
X94146403Y-110879961D01*
X94170494Y-111029318D01*
X94205618Y-111167640D01*
X94251692Y-111291124D01*
X94267973Y-111325378D01*
X94336220Y-111439464D01*
X94416679Y-111535957D01*
X94508170Y-111614070D01*
X94609511Y-111673017D01*
X94719520Y-111712012D01*
X94837015Y-111730268D01*
X94878483Y-111731611D01*
X95000041Y-111720690D01*
X95120478Y-111687874D01*
X95238266Y-111633839D01*
X95351877Y-111559265D01*
X95443285Y-111480939D01*
X95489815Y-111436408D01*
X95671083Y-111733671D01*
X95716180Y-111807833D01*
X95757419Y-111876046D01*
X95793335Y-111935859D01*
X95822466Y-111984820D01*
X95843350Y-112020479D01*
X95854524Y-112040384D01*
X95855975Y-112043479D01*
X95847746Y-112053118D01*
X95822167Y-112070399D01*
X95782473Y-112093683D01*
X95731897Y-112121334D01*
X95673674Y-112151715D01*
X95611037Y-112183190D01*
X95547221Y-112214122D01*
X95485460Y-112242873D01*
X95428988Y-112267808D01*
X95381038Y-112287289D01*
X95357586Y-112295718D01*
X95223821Y-112333533D01*
X95085927Y-112358536D01*
X94938222Y-112371540D01*
X94811433Y-112373868D01*
X94743478Y-112372773D01*
X94677877Y-112370675D01*
X94620447Y-112367834D01*
X94577003Y-112364506D01*
X94562898Y-112362822D01*
X94423884Y-112333987D01*
X94282357Y-112288868D01*
X94144875Y-112230150D01*
X94017994Y-112160520D01*
X93940489Y-112107841D01*
X93813081Y-111999639D01*
X93694778Y-111873071D01*
X93587772Y-111731266D01*
X93494252Y-111577351D01*
X93416410Y-111414453D01*
X93372556Y-111297156D01*
X93322308Y-111113528D01*
X93288809Y-110918981D01*
X93272049Y-110717725D01*
X93272016Y-110513968D01*
X93288701Y-110311921D01*
X93322093Y-110115792D01*
X93372180Y-109929791D01*
X93375997Y-109918203D01*
X93438881Y-109756150D01*
X93515628Y-109608232D01*
X93608842Y-109470265D01*
X93721127Y-109338061D01*
X93764992Y-109292799D01*
X93901134Y-109168857D01*
X94041091Y-109066315D01*
X94187011Y-108984056D01*
X94341042Y-108920964D01*
X94505332Y-108875923D01*
X94600889Y-108858433D01*
X94759623Y-108842866D01*
X94918029Y-108845471D01*
X94918029Y-108845471D01*
G37*
X94918029Y-108845471D02*
X95078170Y-108866645D01*
X95242110Y-108906785D01*
X95411913Y-108966289D01*
X95589643Y-109045554D01*
X95600910Y-109051099D01*
X95658605Y-109079125D01*
X95710152Y-109103202D01*
X95751791Y-109121649D01*
X95779762Y-109132786D01*
X95789333Y-109135333D01*
X95808550Y-109140341D01*
X95813161Y-109144547D01*
X95808058Y-109154980D01*
X95792018Y-109181268D01*
X95766888Y-109220657D01*
X95734514Y-109270391D01*
X95696743Y-109327715D01*
X95655422Y-109389876D01*
X95612398Y-109454118D01*
X95569517Y-109517685D01*
X95528626Y-109577825D01*
X95491571Y-109631780D01*
X95460200Y-109676797D01*
X95436359Y-109710121D01*
X95421894Y-109728997D01*
X95419909Y-109731187D01*
X95409791Y-109726538D01*
X95387450Y-109709362D01*
X95356880Y-109682840D01*
X95341136Y-109668364D01*
X95244647Y-109593082D01*
X95137936Y-109537641D01*
X95022432Y-109502541D01*
X94899562Y-109488280D01*
X94830161Y-109489451D01*
X94709023Y-109506612D01*
X94599805Y-109542494D01*
X94502182Y-109597359D01*
X94415828Y-109671470D01*
X94340415Y-109765088D01*
X94275618Y-109878476D01*
X94238201Y-109965067D01*
X94194348Y-110100766D01*
X94162028Y-110248250D01*
X94141157Y-110403714D01*
X94131651Y-110563356D01*
X94133427Y-110723373D01*
X94146403Y-110879961D01*
X94170494Y-111029318D01*
X94205618Y-111167640D01*
X94251692Y-111291124D01*
X94267973Y-111325378D01*
X94336220Y-111439464D01*
X94416679Y-111535957D01*
X94508170Y-111614070D01*
X94609511Y-111673017D01*
X94719520Y-111712012D01*
X94837015Y-111730268D01*
X94878483Y-111731611D01*
X95000041Y-111720690D01*
X95120478Y-111687874D01*
X95238266Y-111633839D01*
X95351877Y-111559265D01*
X95443285Y-111480939D01*
X95489815Y-111436408D01*
X95671083Y-111733671D01*
X95716180Y-111807833D01*
X95757419Y-111876046D01*
X95793335Y-111935859D01*
X95822466Y-111984820D01*
X95843350Y-112020479D01*
X95854524Y-112040384D01*
X95855975Y-112043479D01*
X95847746Y-112053118D01*
X95822167Y-112070399D01*
X95782473Y-112093683D01*
X95731897Y-112121334D01*
X95673674Y-112151715D01*
X95611037Y-112183190D01*
X95547221Y-112214122D01*
X95485460Y-112242873D01*
X95428988Y-112267808D01*
X95381038Y-112287289D01*
X95357586Y-112295718D01*
X95223821Y-112333533D01*
X95085927Y-112358536D01*
X94938222Y-112371540D01*
X94811433Y-112373868D01*
X94743478Y-112372773D01*
X94677877Y-112370675D01*
X94620447Y-112367834D01*
X94577003Y-112364506D01*
X94562898Y-112362822D01*
X94423884Y-112333987D01*
X94282357Y-112288868D01*
X94144875Y-112230150D01*
X94017994Y-112160520D01*
X93940489Y-112107841D01*
X93813081Y-111999639D01*
X93694778Y-111873071D01*
X93587772Y-111731266D01*
X93494252Y-111577351D01*
X93416410Y-111414453D01*
X93372556Y-111297156D01*
X93322308Y-111113528D01*
X93288809Y-110918981D01*
X93272049Y-110717725D01*
X93272016Y-110513968D01*
X93288701Y-110311921D01*
X93322093Y-110115792D01*
X93372180Y-109929791D01*
X93375997Y-109918203D01*
X93438881Y-109756150D01*
X93515628Y-109608232D01*
X93608842Y-109470265D01*
X93721127Y-109338061D01*
X93764992Y-109292799D01*
X93901134Y-109168857D01*
X94041091Y-109066315D01*
X94187011Y-108984056D01*
X94341042Y-108920964D01*
X94505332Y-108875923D01*
X94600889Y-108858433D01*
X94759623Y-108842866D01*
X94918029Y-108845471D01*
G36*
X97263174Y-109762952D02*
G01*
X97415092Y-109782967D01*
X97550356Y-109816602D01*
X97669839Y-109864125D01*
X97774415Y-109925805D01*
X97852024Y-109989365D01*
X97920865Y-110063499D01*
X97974606Y-110143271D01*
X98017510Y-110235491D01*
X98032984Y-110278561D01*
X98045844Y-110317542D01*
X98057046Y-110353689D01*
X98066720Y-110388834D01*
X98074996Y-110424810D01*
X98082003Y-110463450D01*
X98087872Y-110506585D01*
X98092731Y-110556049D01*
X98096710Y-110613673D01*
X98099940Y-110681291D01*
X98102549Y-110760734D01*
X98104667Y-110853836D01*
X98106424Y-110962427D01*
X98107949Y-111088342D01*
X98109372Y-111233412D01*
X98110625Y-111376178D01*
X98111951Y-111532368D01*
X98113156Y-111667639D01*
X98114366Y-111783646D01*
X98115706Y-111882045D01*
X98117300Y-111964493D01*
X98119275Y-112032646D01*
X98121756Y-112088160D01*
X98124869Y-112132692D01*
X98128738Y-112167898D01*
X98133489Y-112195434D01*
X98139248Y-112216956D01*
X98146139Y-112234122D01*
X98154289Y-112248586D01*
X98163823Y-112262006D01*
X98174866Y-112276038D01*
X98179166Y-112281471D01*
X98194986Y-112304310D01*
X98202022Y-112319863D01*
X98202044Y-112320322D01*
X98191167Y-112322521D01*
X98160182Y-112324547D01*
X98111557Y-112326342D01*
X98047763Y-112327851D01*
X97971269Y-112329016D01*
X97884544Y-112329780D01*
X97790057Y-112330086D01*
X97779150Y-112330089D01*
X97356257Y-112330089D01*
X97352995Y-112234022D01*
X97349733Y-112137956D01*
X97287644Y-112188943D01*
X97190314Y-112256457D01*
X97080413Y-112311149D01*
X96993949Y-112341378D01*
X96924878Y-112356066D01*
X96841525Y-112366059D01*
X96751759Y-112371046D01*
X96663445Y-112370713D01*
X96584451Y-112364751D01*
X96548222Y-112359038D01*
X96408203Y-112321176D01*
X96281778Y-112266332D01*
X96169860Y-112195324D01*
X96073362Y-112108968D01*
X95993200Y-112008079D01*
X95930287Y-111893476D01*
X95885912Y-111767384D01*
X95873578Y-111710801D01*
X95865968Y-111648602D01*
X95862339Y-111573763D01*
X95861845Y-111539867D01*
X95861910Y-111536682D01*
X96621848Y-111536682D01*
X96631141Y-111611733D01*
X96659328Y-111675560D01*
X96707797Y-111731198D01*
X96712854Y-111735611D01*
X96761148Y-111770437D01*
X96812857Y-111793020D01*
X96873589Y-111804940D01*
X96948952Y-111807783D01*
X96967059Y-111807378D01*
X97020878Y-111804725D01*
X97060908Y-111799309D01*
X97095924Y-111789145D01*
X97134703Y-111772250D01*
X97145345Y-111767072D01*
X97205996Y-111731244D01*
X97252815Y-111688612D01*
X97265552Y-111673373D01*
X97310222Y-111616862D01*
X97310222Y-111420986D01*
X97309686Y-111342339D01*
X97307996Y-111284388D01*
X97305028Y-111245275D01*
X97300657Y-111223141D01*
X97296572Y-111216674D01*
X97280647Y-111213511D01*
X97246864Y-111210888D01*
X97199940Y-111209055D01*
X97144593Y-111208257D01*
X97135706Y-111208242D01*
X97014930Y-111213496D01*
X96912260Y-111229663D01*
X96825706Y-111257361D01*
X96753281Y-111297208D01*
X96698351Y-111344158D01*
X96653804Y-111402045D01*
X96629080Y-111465093D01*
X96621848Y-111536682D01*
X95861910Y-111536682D01*
X95863778Y-111446112D01*
X95872122Y-111367212D01*
X95888368Y-111295990D01*
X95914005Y-111225264D01*
X95938001Y-111172893D01*
X95996620Y-111077596D01*
X96074717Y-110989570D01*
X96169915Y-110910417D01*
X96279838Y-110841740D01*
X96402110Y-110785141D01*
X96534355Y-110742221D01*
X96599022Y-110727282D01*
X96735204Y-110705177D01*
X96883649Y-110690594D01*
X97035105Y-110684213D01*
X97161664Y-110685845D01*
X97323550Y-110692624D01*
X97316130Y-110633645D01*
X97296838Y-110534492D01*
X97265704Y-110453772D01*
X97221869Y-110390866D01*
X97164471Y-110345156D01*
X97092648Y-110316022D01*
X97005541Y-110302847D01*
X96902286Y-110305011D01*
X96864311Y-110309012D01*
X96723120Y-110334180D01*
X96586307Y-110375214D01*
X96491778Y-110413215D01*
X96446618Y-110432590D01*
X96408185Y-110448160D01*
X96381834Y-110457805D01*
X96374146Y-110459852D01*
X96364402Y-110450774D01*
X96347683Y-110421805D01*
X96323832Y-110372617D01*
X96292693Y-110302884D01*
X96254107Y-110212279D01*
X96247510Y-110196489D01*
X96217453Y-110124172D01*
X96190474Y-110058825D01*
X96167736Y-110003306D01*
X96150406Y-109960472D01*
X96139648Y-109933181D01*
X96136541Y-109924342D01*
X96146540Y-109919587D01*
X96172817Y-109914310D01*
X96201089Y-109910631D01*
X96231246Y-109905874D01*
X96279033Y-109896428D01*
X96340212Y-109883220D01*
X96410546Y-109867176D01*
X96485794Y-109849220D01*
X96514355Y-109842197D01*
X96619416Y-109816609D01*
X96707080Y-109796547D01*
X96781668Y-109781369D01*
X96847503Y-109770435D01*
X96908907Y-109763104D01*
X96970202Y-109758735D01*
X97035710Y-109756687D01*
X97093728Y-109756289D01*
X97263174Y-109762952D01*
X97263174Y-109762952D01*
G37*
X97263174Y-109762952D02*
X97415092Y-109782967D01*
X97550356Y-109816602D01*
X97669839Y-109864125D01*
X97774415Y-109925805D01*
X97852024Y-109989365D01*
X97920865Y-110063499D01*
X97974606Y-110143271D01*
X98017510Y-110235491D01*
X98032984Y-110278561D01*
X98045844Y-110317542D01*
X98057046Y-110353689D01*
X98066720Y-110388834D01*
X98074996Y-110424810D01*
X98082003Y-110463450D01*
X98087872Y-110506585D01*
X98092731Y-110556049D01*
X98096710Y-110613673D01*
X98099940Y-110681291D01*
X98102549Y-110760734D01*
X98104667Y-110853836D01*
X98106424Y-110962427D01*
X98107949Y-111088342D01*
X98109372Y-111233412D01*
X98110625Y-111376178D01*
X98111951Y-111532368D01*
X98113156Y-111667639D01*
X98114366Y-111783646D01*
X98115706Y-111882045D01*
X98117300Y-111964493D01*
X98119275Y-112032646D01*
X98121756Y-112088160D01*
X98124869Y-112132692D01*
X98128738Y-112167898D01*
X98133489Y-112195434D01*
X98139248Y-112216956D01*
X98146139Y-112234122D01*
X98154289Y-112248586D01*
X98163823Y-112262006D01*
X98174866Y-112276038D01*
X98179166Y-112281471D01*
X98194986Y-112304310D01*
X98202022Y-112319863D01*
X98202044Y-112320322D01*
X98191167Y-112322521D01*
X98160182Y-112324547D01*
X98111557Y-112326342D01*
X98047763Y-112327851D01*
X97971269Y-112329016D01*
X97884544Y-112329780D01*
X97790057Y-112330086D01*
X97779150Y-112330089D01*
X97356257Y-112330089D01*
X97352995Y-112234022D01*
X97349733Y-112137956D01*
X97287644Y-112188943D01*
X97190314Y-112256457D01*
X97080413Y-112311149D01*
X96993949Y-112341378D01*
X96924878Y-112356066D01*
X96841525Y-112366059D01*
X96751759Y-112371046D01*
X96663445Y-112370713D01*
X96584451Y-112364751D01*
X96548222Y-112359038D01*
X96408203Y-112321176D01*
X96281778Y-112266332D01*
X96169860Y-112195324D01*
X96073362Y-112108968D01*
X95993200Y-112008079D01*
X95930287Y-111893476D01*
X95885912Y-111767384D01*
X95873578Y-111710801D01*
X95865968Y-111648602D01*
X95862339Y-111573763D01*
X95861845Y-111539867D01*
X95861910Y-111536682D01*
X96621848Y-111536682D01*
X96631141Y-111611733D01*
X96659328Y-111675560D01*
X96707797Y-111731198D01*
X96712854Y-111735611D01*
X96761148Y-111770437D01*
X96812857Y-111793020D01*
X96873589Y-111804940D01*
X96948952Y-111807783D01*
X96967059Y-111807378D01*
X97020878Y-111804725D01*
X97060908Y-111799309D01*
X97095924Y-111789145D01*
X97134703Y-111772250D01*
X97145345Y-111767072D01*
X97205996Y-111731244D01*
X97252815Y-111688612D01*
X97265552Y-111673373D01*
X97310222Y-111616862D01*
X97310222Y-111420986D01*
X97309686Y-111342339D01*
X97307996Y-111284388D01*
X97305028Y-111245275D01*
X97300657Y-111223141D01*
X97296572Y-111216674D01*
X97280647Y-111213511D01*
X97246864Y-111210888D01*
X97199940Y-111209055D01*
X97144593Y-111208257D01*
X97135706Y-111208242D01*
X97014930Y-111213496D01*
X96912260Y-111229663D01*
X96825706Y-111257361D01*
X96753281Y-111297208D01*
X96698351Y-111344158D01*
X96653804Y-111402045D01*
X96629080Y-111465093D01*
X96621848Y-111536682D01*
X95861910Y-111536682D01*
X95863778Y-111446112D01*
X95872122Y-111367212D01*
X95888368Y-111295990D01*
X95914005Y-111225264D01*
X95938001Y-111172893D01*
X95996620Y-111077596D01*
X96074717Y-110989570D01*
X96169915Y-110910417D01*
X96279838Y-110841740D01*
X96402110Y-110785141D01*
X96534355Y-110742221D01*
X96599022Y-110727282D01*
X96735204Y-110705177D01*
X96883649Y-110690594D01*
X97035105Y-110684213D01*
X97161664Y-110685845D01*
X97323550Y-110692624D01*
X97316130Y-110633645D01*
X97296838Y-110534492D01*
X97265704Y-110453772D01*
X97221869Y-110390866D01*
X97164471Y-110345156D01*
X97092648Y-110316022D01*
X97005541Y-110302847D01*
X96902286Y-110305011D01*
X96864311Y-110309012D01*
X96723120Y-110334180D01*
X96586307Y-110375214D01*
X96491778Y-110413215D01*
X96446618Y-110432590D01*
X96408185Y-110448160D01*
X96381834Y-110457805D01*
X96374146Y-110459852D01*
X96364402Y-110450774D01*
X96347683Y-110421805D01*
X96323832Y-110372617D01*
X96292693Y-110302884D01*
X96254107Y-110212279D01*
X96247510Y-110196489D01*
X96217453Y-110124172D01*
X96190474Y-110058825D01*
X96167736Y-110003306D01*
X96150406Y-109960472D01*
X96139648Y-109933181D01*
X96136541Y-109924342D01*
X96146540Y-109919587D01*
X96172817Y-109914310D01*
X96201089Y-109910631D01*
X96231246Y-109905874D01*
X96279033Y-109896428D01*
X96340212Y-109883220D01*
X96410546Y-109867176D01*
X96485794Y-109849220D01*
X96514355Y-109842197D01*
X96619416Y-109816609D01*
X96707080Y-109796547D01*
X96781668Y-109781369D01*
X96847503Y-109770435D01*
X96908907Y-109763104D01*
X96970202Y-109758735D01*
X97035710Y-109756687D01*
X97093728Y-109756289D01*
X97263174Y-109762952D01*
G36*
X100776107Y-110368645D02*
G01*
X100776126Y-110603062D01*
X100776152Y-110816003D01*
X100776225Y-111008568D01*
X100776382Y-111181859D01*
X100776664Y-111336976D01*
X100777109Y-111475020D01*
X100777756Y-111597092D01*
X100778645Y-111704294D01*
X100779813Y-111797726D01*
X100781301Y-111878490D01*
X100783146Y-111947686D01*
X100785389Y-112006415D01*
X100788069Y-112055779D01*
X100791223Y-112096878D01*
X100794892Y-112130813D01*
X100799113Y-112158686D01*
X100803927Y-112181598D01*
X100809373Y-112200649D01*
X100815488Y-112216940D01*
X100822312Y-112231573D01*
X100829885Y-112245649D01*
X100838245Y-112260268D01*
X100843439Y-112269374D01*
X100877704Y-112330089D01*
X100019555Y-112330089D01*
X100019555Y-112234133D01*
X100018824Y-112190770D01*
X100016872Y-112157605D01*
X100014063Y-112139824D01*
X100012821Y-112138178D01*
X100001399Y-112145062D01*
X99978684Y-112162905D01*
X99955985Y-112182279D01*
X99901400Y-112223014D01*
X99831921Y-112264017D01*
X99754870Y-112301523D01*
X99677565Y-112331764D01*
X99646713Y-112341412D01*
X99578216Y-112355978D01*
X99495364Y-112365939D01*
X99405971Y-112370983D01*
X99317848Y-112370796D01*
X99238807Y-112365066D01*
X99201111Y-112359258D01*
X99063014Y-112321197D01*
X98935713Y-112263473D01*
X98819892Y-112186611D01*
X98716237Y-112091139D01*
X98625433Y-111977579D01*
X98558631Y-111866781D01*
X98503764Y-111750025D01*
X98461763Y-111630676D01*
X98431767Y-111504683D01*
X98412911Y-111367994D01*
X98404332Y-111216558D01*
X98403606Y-111139111D01*
X98405700Y-111082334D01*
X99234817Y-111082334D01*
X99235024Y-111175402D01*
X99237937Y-111263092D01*
X99243600Y-111340172D01*
X99252055Y-111401409D01*
X99254638Y-111413750D01*
X99286440Y-111521033D01*
X99328098Y-111608058D01*
X99379963Y-111675042D01*
X99442381Y-111722205D01*
X99515700Y-111749765D01*
X99600269Y-111757941D01*
X99696435Y-111746951D01*
X99759911Y-111731229D01*
X99809054Y-111713039D01*
X99863183Y-111687191D01*
X99903844Y-111663489D01*
X99974400Y-111617121D01*
X99974400Y-110466930D01*
X99906992Y-110423362D01*
X99828467Y-110382440D01*
X99744281Y-110355789D01*
X99659157Y-110343865D01*
X99577816Y-110347122D01*
X99504980Y-110366015D01*
X99473026Y-110381584D01*
X99415101Y-110424581D01*
X99366144Y-110481353D01*
X99324990Y-110553975D01*
X99290474Y-110644521D01*
X99261433Y-110755066D01*
X99260152Y-110760933D01*
X99249981Y-110823188D01*
X99242339Y-110900994D01*
X99237270Y-110989120D01*
X99234817Y-111082334D01*
X98405700Y-111082334D01*
X98411457Y-110926295D01*
X98433402Y-110730459D01*
X98469386Y-110551732D01*
X98519359Y-110390245D01*
X98583268Y-110246126D01*
X98661062Y-110119506D01*
X98752689Y-110010515D01*
X98858097Y-109919283D01*
X98903262Y-109888332D01*
X99004211Y-109832185D01*
X99107501Y-109792574D01*
X99217589Y-109768414D01*
X99338930Y-109758619D01*
X99431436Y-109759665D01*
X99561090Y-109770631D01*
X99673684Y-109792446D01*
X99772475Y-109826114D01*
X99860721Y-109872636D01*
X99909586Y-109906848D01*
X99938953Y-109928762D01*
X99960643Y-109943733D01*
X99968853Y-109948133D01*
X99970468Y-109937304D01*
X99971759Y-109906651D01*
X99972738Y-109858926D01*
X99973417Y-109796879D01*
X99973810Y-109723262D01*
X99973930Y-109640827D01*
X99973788Y-109552325D01*
X99973397Y-109460507D01*
X99972771Y-109368124D01*
X99971920Y-109277928D01*
X99970860Y-109192671D01*
X99969601Y-109115103D01*
X99968156Y-109047976D01*
X99966538Y-108994041D01*
X99964761Y-108956050D01*
X99964269Y-108949067D01*
X99956692Y-108878651D01*
X99945131Y-108823502D01*
X99927392Y-108776381D01*
X99901282Y-108730047D01*
X99895015Y-108720467D01*
X99870583Y-108683778D01*
X100775911Y-108683778D01*
X100776107Y-110368645D01*
X100776107Y-110368645D01*
G37*
X100776107Y-110368645D02*
X100776126Y-110603062D01*
X100776152Y-110816003D01*
X100776225Y-111008568D01*
X100776382Y-111181859D01*
X100776664Y-111336976D01*
X100777109Y-111475020D01*
X100777756Y-111597092D01*
X100778645Y-111704294D01*
X100779813Y-111797726D01*
X100781301Y-111878490D01*
X100783146Y-111947686D01*
X100785389Y-112006415D01*
X100788069Y-112055779D01*
X100791223Y-112096878D01*
X100794892Y-112130813D01*
X100799113Y-112158686D01*
X100803927Y-112181598D01*
X100809373Y-112200649D01*
X100815488Y-112216940D01*
X100822312Y-112231573D01*
X100829885Y-112245649D01*
X100838245Y-112260268D01*
X100843439Y-112269374D01*
X100877704Y-112330089D01*
X100019555Y-112330089D01*
X100019555Y-112234133D01*
X100018824Y-112190770D01*
X100016872Y-112157605D01*
X100014063Y-112139824D01*
X100012821Y-112138178D01*
X100001399Y-112145062D01*
X99978684Y-112162905D01*
X99955985Y-112182279D01*
X99901400Y-112223014D01*
X99831921Y-112264017D01*
X99754870Y-112301523D01*
X99677565Y-112331764D01*
X99646713Y-112341412D01*
X99578216Y-112355978D01*
X99495364Y-112365939D01*
X99405971Y-112370983D01*
X99317848Y-112370796D01*
X99238807Y-112365066D01*
X99201111Y-112359258D01*
X99063014Y-112321197D01*
X98935713Y-112263473D01*
X98819892Y-112186611D01*
X98716237Y-112091139D01*
X98625433Y-111977579D01*
X98558631Y-111866781D01*
X98503764Y-111750025D01*
X98461763Y-111630676D01*
X98431767Y-111504683D01*
X98412911Y-111367994D01*
X98404332Y-111216558D01*
X98403606Y-111139111D01*
X98405700Y-111082334D01*
X99234817Y-111082334D01*
X99235024Y-111175402D01*
X99237937Y-111263092D01*
X99243600Y-111340172D01*
X99252055Y-111401409D01*
X99254638Y-111413750D01*
X99286440Y-111521033D01*
X99328098Y-111608058D01*
X99379963Y-111675042D01*
X99442381Y-111722205D01*
X99515700Y-111749765D01*
X99600269Y-111757941D01*
X99696435Y-111746951D01*
X99759911Y-111731229D01*
X99809054Y-111713039D01*
X99863183Y-111687191D01*
X99903844Y-111663489D01*
X99974400Y-111617121D01*
X99974400Y-110466930D01*
X99906992Y-110423362D01*
X99828467Y-110382440D01*
X99744281Y-110355789D01*
X99659157Y-110343865D01*
X99577816Y-110347122D01*
X99504980Y-110366015D01*
X99473026Y-110381584D01*
X99415101Y-110424581D01*
X99366144Y-110481353D01*
X99324990Y-110553975D01*
X99290474Y-110644521D01*
X99261433Y-110755066D01*
X99260152Y-110760933D01*
X99249981Y-110823188D01*
X99242339Y-110900994D01*
X99237270Y-110989120D01*
X99234817Y-111082334D01*
X98405700Y-111082334D01*
X98411457Y-110926295D01*
X98433402Y-110730459D01*
X98469386Y-110551732D01*
X98519359Y-110390245D01*
X98583268Y-110246126D01*
X98661062Y-110119506D01*
X98752689Y-110010515D01*
X98858097Y-109919283D01*
X98903262Y-109888332D01*
X99004211Y-109832185D01*
X99107501Y-109792574D01*
X99217589Y-109768414D01*
X99338930Y-109758619D01*
X99431436Y-109759665D01*
X99561090Y-109770631D01*
X99673684Y-109792446D01*
X99772475Y-109826114D01*
X99860721Y-109872636D01*
X99909586Y-109906848D01*
X99938953Y-109928762D01*
X99960643Y-109943733D01*
X99968853Y-109948133D01*
X99970468Y-109937304D01*
X99971759Y-109906651D01*
X99972738Y-109858926D01*
X99973417Y-109796879D01*
X99973810Y-109723262D01*
X99973930Y-109640827D01*
X99973788Y-109552325D01*
X99973397Y-109460507D01*
X99972771Y-109368124D01*
X99971920Y-109277928D01*
X99970860Y-109192671D01*
X99969601Y-109115103D01*
X99968156Y-109047976D01*
X99966538Y-108994041D01*
X99964761Y-108956050D01*
X99964269Y-108949067D01*
X99956692Y-108878651D01*
X99945131Y-108823502D01*
X99927392Y-108776381D01*
X99901282Y-108730047D01*
X99895015Y-108720467D01*
X99870583Y-108683778D01*
X100775911Y-108683778D01*
X100776107Y-110368645D01*
G36*
X92316557Y-107922971D02*
G01*
X92412832Y-107947209D01*
X92499416Y-107990041D01*
X92574227Y-108049819D01*
X92635182Y-108124894D01*
X92680201Y-108213620D01*
X92706464Y-108309930D01*
X92712314Y-108407195D01*
X92697460Y-108501054D01*
X92663760Y-108588911D01*
X92613072Y-108668170D01*
X92547255Y-108736236D01*
X92468166Y-108790512D01*
X92377666Y-108828402D01*
X92326400Y-108840826D01*
X92281902Y-108848347D01*
X92247601Y-108851319D01*
X92214640Y-108849494D01*
X92174166Y-108842625D01*
X92141069Y-108835650D01*
X92047653Y-108804141D01*
X91963981Y-108753017D01*
X91891935Y-108683829D01*
X91833400Y-108598128D01*
X91819452Y-108570889D01*
X91803014Y-108534522D01*
X91792706Y-108503982D01*
X91787140Y-108471850D01*
X91784931Y-108430707D01*
X91784652Y-108384622D01*
X91788739Y-108300265D01*
X91802154Y-108230986D01*
X91827344Y-108170361D01*
X91866754Y-108111967D01*
X91905302Y-108067702D01*
X91977194Y-108001884D01*
X92052287Y-107956453D01*
X92135038Y-107929250D01*
X92212672Y-107918976D01*
X92316557Y-107922971D01*
X92316557Y-107922971D01*
G37*
X92316557Y-107922971D02*
X92412832Y-107947209D01*
X92499416Y-107990041D01*
X92574227Y-108049819D01*
X92635182Y-108124894D01*
X92680201Y-108213620D01*
X92706464Y-108309930D01*
X92712314Y-108407195D01*
X92697460Y-108501054D01*
X92663760Y-108588911D01*
X92613072Y-108668170D01*
X92547255Y-108736236D01*
X92468166Y-108790512D01*
X92377666Y-108828402D01*
X92326400Y-108840826D01*
X92281902Y-108848347D01*
X92247601Y-108851319D01*
X92214640Y-108849494D01*
X92174166Y-108842625D01*
X92141069Y-108835650D01*
X92047653Y-108804141D01*
X91963981Y-108753017D01*
X91891935Y-108683829D01*
X91833400Y-108598128D01*
X91819452Y-108570889D01*
X91803014Y-108534522D01*
X91792706Y-108503982D01*
X91787140Y-108471850D01*
X91784931Y-108430707D01*
X91784652Y-108384622D01*
X91788739Y-108300265D01*
X91802154Y-108230986D01*
X91827344Y-108170361D01*
X91866754Y-108111967D01*
X91905302Y-108067702D01*
X91977194Y-108001884D01*
X92052287Y-107956453D01*
X92135038Y-107929250D01*
X92212672Y-107918976D01*
X92316557Y-107922971D01*
G36*
X88468229Y-113165466D02*
G01*
X88507711Y-113165867D01*
X88623400Y-113168659D01*
X88720289Y-113176950D01*
X88801681Y-113191632D01*
X88870877Y-113213593D01*
X88931180Y-113243722D01*
X88985892Y-113282910D01*
X89005433Y-113299932D01*
X89037850Y-113339763D01*
X89067080Y-113393813D01*
X89089609Y-113453723D01*
X89101921Y-113511139D01*
X89103200Y-113532356D01*
X89095183Y-113591169D01*
X89073701Y-113655413D01*
X89042601Y-113716221D01*
X89005734Y-113764730D01*
X88999746Y-113770582D01*
X88949021Y-113811721D01*
X88893475Y-113843835D01*
X88829904Y-113867765D01*
X88755106Y-113884353D01*
X88665878Y-113894441D01*
X88559018Y-113898869D01*
X88510072Y-113899245D01*
X88447838Y-113898945D01*
X88404072Y-113897692D01*
X88374669Y-113894954D01*
X88355521Y-113890201D01*
X88342523Y-113882901D01*
X88335555Y-113876667D01*
X88328974Y-113869094D01*
X88323812Y-113859324D01*
X88319897Y-113844740D01*
X88317057Y-113822726D01*
X88315120Y-113790664D01*
X88313916Y-113745936D01*
X88313272Y-113685926D01*
X88313017Y-113608017D01*
X88312978Y-113532356D01*
X88312730Y-113431441D01*
X88312783Y-113350827D01*
X88313743Y-113312222D01*
X88459733Y-113312222D01*
X88459733Y-113752489D01*
X88552866Y-113752404D01*
X88608907Y-113750796D01*
X88667601Y-113746656D01*
X88716572Y-113740864D01*
X88718062Y-113740626D01*
X88797208Y-113721490D01*
X88858598Y-113691687D01*
X88905295Y-113649278D01*
X88934965Y-113603361D01*
X88953247Y-113552426D01*
X88951829Y-113504600D01*
X88930612Y-113453333D01*
X88889111Y-113400299D01*
X88831602Y-113361000D01*
X88756850Y-113334731D01*
X88706892Y-113325435D01*
X88650184Y-113318907D01*
X88590081Y-113314182D01*
X88538961Y-113312217D01*
X88535933Y-113312208D01*
X88459733Y-113312222D01*
X88313743Y-113312222D01*
X88314340Y-113288251D01*
X88318602Y-113241455D01*
X88326770Y-113208178D01*
X88340044Y-113186159D01*
X88359626Y-113173139D01*
X88386717Y-113166857D01*
X88422518Y-113165053D01*
X88468229Y-113165466D01*
X88468229Y-113165466D01*
G37*
X88468229Y-113165466D02*
X88507711Y-113165867D01*
X88623400Y-113168659D01*
X88720289Y-113176950D01*
X88801681Y-113191632D01*
X88870877Y-113213593D01*
X88931180Y-113243722D01*
X88985892Y-113282910D01*
X89005433Y-113299932D01*
X89037850Y-113339763D01*
X89067080Y-113393813D01*
X89089609Y-113453723D01*
X89101921Y-113511139D01*
X89103200Y-113532356D01*
X89095183Y-113591169D01*
X89073701Y-113655413D01*
X89042601Y-113716221D01*
X89005734Y-113764730D01*
X88999746Y-113770582D01*
X88949021Y-113811721D01*
X88893475Y-113843835D01*
X88829904Y-113867765D01*
X88755106Y-113884353D01*
X88665878Y-113894441D01*
X88559018Y-113898869D01*
X88510072Y-113899245D01*
X88447838Y-113898945D01*
X88404072Y-113897692D01*
X88374669Y-113894954D01*
X88355521Y-113890201D01*
X88342523Y-113882901D01*
X88335555Y-113876667D01*
X88328974Y-113869094D01*
X88323812Y-113859324D01*
X88319897Y-113844740D01*
X88317057Y-113822726D01*
X88315120Y-113790664D01*
X88313916Y-113745936D01*
X88313272Y-113685926D01*
X88313017Y-113608017D01*
X88312978Y-113532356D01*
X88312730Y-113431441D01*
X88312783Y-113350827D01*
X88313743Y-113312222D01*
X88459733Y-113312222D01*
X88459733Y-113752489D01*
X88552866Y-113752404D01*
X88608907Y-113750796D01*
X88667601Y-113746656D01*
X88716572Y-113740864D01*
X88718062Y-113740626D01*
X88797208Y-113721490D01*
X88858598Y-113691687D01*
X88905295Y-113649278D01*
X88934965Y-113603361D01*
X88953247Y-113552426D01*
X88951829Y-113504600D01*
X88930612Y-113453333D01*
X88889111Y-113400299D01*
X88831602Y-113361000D01*
X88756850Y-113334731D01*
X88706892Y-113325435D01*
X88650184Y-113318907D01*
X88590081Y-113314182D01*
X88538961Y-113312217D01*
X88535933Y-113312208D01*
X88459733Y-113312222D01*
X88313743Y-113312222D01*
X88314340Y-113288251D01*
X88318602Y-113241455D01*
X88326770Y-113208178D01*
X88340044Y-113186159D01*
X88359626Y-113173139D01*
X88386717Y-113166857D01*
X88422518Y-113165053D01*
X88468229Y-113165466D01*
G36*
X89876806Y-113165546D02*
G01*
X89946214Y-113165918D01*
X89998603Y-113166785D01*
X90036753Y-113168346D01*
X90063441Y-113170803D01*
X90081447Y-113174357D01*
X90093551Y-113179210D01*
X90102531Y-113185561D01*
X90105782Y-113188484D01*
X90125557Y-113219542D01*
X90129118Y-113255228D01*
X90116109Y-113286910D01*
X90110094Y-113293313D01*
X90100365Y-113299521D01*
X90084699Y-113304310D01*
X90060192Y-113307914D01*
X90023939Y-113310564D01*
X89973035Y-113312495D01*
X89904574Y-113313939D01*
X89841983Y-113314818D01*
X89594266Y-113317867D01*
X89590881Y-113382778D01*
X89587495Y-113447689D01*
X89755642Y-113447689D01*
X89828641Y-113448319D01*
X89882083Y-113450953D01*
X89918972Y-113456709D01*
X89942312Y-113466704D01*
X89955106Y-113482056D01*
X89960358Y-113503882D01*
X89961155Y-113524138D01*
X89958677Y-113548992D01*
X89949323Y-113567306D01*
X89930217Y-113580037D01*
X89898482Y-113588141D01*
X89851241Y-113592576D01*
X89785617Y-113594299D01*
X89749799Y-113594445D01*
X89588622Y-113594445D01*
X89588622Y-113752489D01*
X89836978Y-113752489D01*
X89918387Y-113752602D01*
X89980258Y-113753112D01*
X90025632Y-113754270D01*
X90057546Y-113756330D01*
X90079041Y-113759546D01*
X90093157Y-113764172D01*
X90102932Y-113770459D01*
X90107911Y-113775067D01*
X90124990Y-113801960D01*
X90130489Y-113825867D01*
X90122637Y-113855067D01*
X90107911Y-113876667D01*
X90100054Y-113883466D01*
X90089912Y-113888746D01*
X90074756Y-113892698D01*
X90051859Y-113895513D01*
X90018491Y-113897382D01*
X89971925Y-113898498D01*
X89909433Y-113899051D01*
X89828286Y-113899233D01*
X89786178Y-113899245D01*
X89696002Y-113899165D01*
X89625676Y-113898798D01*
X89572471Y-113897952D01*
X89533660Y-113896436D01*
X89506513Y-113894059D01*
X89488302Y-113890629D01*
X89476300Y-113885954D01*
X89467778Y-113879844D01*
X89464444Y-113876667D01*
X89457845Y-113869070D01*
X89452673Y-113859270D01*
X89448754Y-113844639D01*
X89445916Y-113822552D01*
X89443985Y-113790382D01*
X89442788Y-113745503D01*
X89442152Y-113685289D01*
X89441903Y-113607113D01*
X89441866Y-113534323D01*
X89441900Y-113441107D01*
X89442135Y-113367831D01*
X89442770Y-113311858D01*
X89444006Y-113270551D01*
X89446044Y-113241272D01*
X89449083Y-113221384D01*
X89453323Y-113208250D01*
X89458965Y-113199232D01*
X89466209Y-113191693D01*
X89467994Y-113190012D01*
X89476655Y-113182572D01*
X89486718Y-113176809D01*
X89500975Y-113172512D01*
X89522217Y-113169464D01*
X89553236Y-113167451D01*
X89596823Y-113166260D01*
X89655769Y-113165675D01*
X89732866Y-113165483D01*
X89787599Y-113165467D01*
X89876806Y-113165546D01*
X89876806Y-113165546D01*
G37*
X89876806Y-113165546D02*
X89946214Y-113165918D01*
X89998603Y-113166785D01*
X90036753Y-113168346D01*
X90063441Y-113170803D01*
X90081447Y-113174357D01*
X90093551Y-113179210D01*
X90102531Y-113185561D01*
X90105782Y-113188484D01*
X90125557Y-113219542D01*
X90129118Y-113255228D01*
X90116109Y-113286910D01*
X90110094Y-113293313D01*
X90100365Y-113299521D01*
X90084699Y-113304310D01*
X90060192Y-113307914D01*
X90023939Y-113310564D01*
X89973035Y-113312495D01*
X89904574Y-113313939D01*
X89841983Y-113314818D01*
X89594266Y-113317867D01*
X89590881Y-113382778D01*
X89587495Y-113447689D01*
X89755642Y-113447689D01*
X89828641Y-113448319D01*
X89882083Y-113450953D01*
X89918972Y-113456709D01*
X89942312Y-113466704D01*
X89955106Y-113482056D01*
X89960358Y-113503882D01*
X89961155Y-113524138D01*
X89958677Y-113548992D01*
X89949323Y-113567306D01*
X89930217Y-113580037D01*
X89898482Y-113588141D01*
X89851241Y-113592576D01*
X89785617Y-113594299D01*
X89749799Y-113594445D01*
X89588622Y-113594445D01*
X89588622Y-113752489D01*
X89836978Y-113752489D01*
X89918387Y-113752602D01*
X89980258Y-113753112D01*
X90025632Y-113754270D01*
X90057546Y-113756330D01*
X90079041Y-113759546D01*
X90093157Y-113764172D01*
X90102932Y-113770459D01*
X90107911Y-113775067D01*
X90124990Y-113801960D01*
X90130489Y-113825867D01*
X90122637Y-113855067D01*
X90107911Y-113876667D01*
X90100054Y-113883466D01*
X90089912Y-113888746D01*
X90074756Y-113892698D01*
X90051859Y-113895513D01*
X90018491Y-113897382D01*
X89971925Y-113898498D01*
X89909433Y-113899051D01*
X89828286Y-113899233D01*
X89786178Y-113899245D01*
X89696002Y-113899165D01*
X89625676Y-113898798D01*
X89572471Y-113897952D01*
X89533660Y-113896436D01*
X89506513Y-113894059D01*
X89488302Y-113890629D01*
X89476300Y-113885954D01*
X89467778Y-113879844D01*
X89464444Y-113876667D01*
X89457845Y-113869070D01*
X89452673Y-113859270D01*
X89448754Y-113844639D01*
X89445916Y-113822552D01*
X89443985Y-113790382D01*
X89442788Y-113745503D01*
X89442152Y-113685289D01*
X89441903Y-113607113D01*
X89441866Y-113534323D01*
X89441900Y-113441107D01*
X89442135Y-113367831D01*
X89442770Y-113311858D01*
X89444006Y-113270551D01*
X89446044Y-113241272D01*
X89449083Y-113221384D01*
X89453323Y-113208250D01*
X89458965Y-113199232D01*
X89466209Y-113191693D01*
X89467994Y-113190012D01*
X89476655Y-113182572D01*
X89486718Y-113176809D01*
X89500975Y-113172512D01*
X89522217Y-113169464D01*
X89553236Y-113167451D01*
X89596823Y-113166260D01*
X89655769Y-113165675D01*
X89732866Y-113165483D01*
X89787599Y-113165467D01*
X89876806Y-113165546D01*
G36*
X90897897Y-113166751D02*
G01*
X90972712Y-113171981D01*
X91042294Y-113180150D01*
X91102598Y-113190950D01*
X91149580Y-113204073D01*
X91179194Y-113219213D01*
X91183740Y-113223669D01*
X91199546Y-113258250D01*
X91194753Y-113293751D01*
X91170236Y-113324125D01*
X91169066Y-113324996D01*
X91154646Y-113334354D01*
X91139592Y-113339276D01*
X91118595Y-113339873D01*
X91086343Y-113336261D01*
X91037527Y-113328554D01*
X91033600Y-113327905D01*
X90960861Y-113318969D01*
X90882383Y-113314561D01*
X90803673Y-113314519D01*
X90730239Y-113318679D01*
X90667589Y-113326879D01*
X90621230Y-113338957D01*
X90618184Y-113340171D01*
X90584552Y-113359015D01*
X90572736Y-113378085D01*
X90581986Y-113396839D01*
X90611553Y-113414737D01*
X90660689Y-113431237D01*
X90728643Y-113445796D01*
X90773955Y-113452806D01*
X90868144Y-113466289D01*
X90943056Y-113478614D01*
X91001883Y-113490849D01*
X91047815Y-113504061D01*
X91084045Y-113519317D01*
X91113762Y-113537685D01*
X91140158Y-113560231D01*
X91161370Y-113582371D01*
X91186535Y-113613219D01*
X91198919Y-113639745D01*
X91202792Y-113672426D01*
X91202933Y-113684395D01*
X91200024Y-113724112D01*
X91188398Y-113753659D01*
X91168277Y-113779886D01*
X91127384Y-113819976D01*
X91081783Y-113850549D01*
X91028087Y-113872603D01*
X90962908Y-113887135D01*
X90882856Y-113895141D01*
X90784543Y-113897618D01*
X90768311Y-113897577D01*
X90702751Y-113896218D01*
X90637734Y-113893130D01*
X90580348Y-113888756D01*
X90537678Y-113883540D01*
X90534228Y-113882941D01*
X90491804Y-113872891D01*
X90455820Y-113860196D01*
X90435450Y-113848590D01*
X90416493Y-113817972D01*
X90415173Y-113782318D01*
X90431515Y-113750544D01*
X90435171Y-113746951D01*
X90450285Y-113736276D01*
X90469185Y-113731676D01*
X90498438Y-113732459D01*
X90533949Y-113736527D01*
X90573630Y-113740162D01*
X90629255Y-113743228D01*
X90694194Y-113745453D01*
X90761815Y-113746564D01*
X90779600Y-113746637D01*
X90847472Y-113746364D01*
X90897146Y-113745046D01*
X90932990Y-113742227D01*
X90959376Y-113737450D01*
X90980674Y-113730257D01*
X90993474Y-113724267D01*
X91021600Y-113707633D01*
X91039532Y-113692568D01*
X91042153Y-113688297D01*
X91036624Y-113670663D01*
X91010340Y-113653592D01*
X90965122Y-113637858D01*
X90902792Y-113624238D01*
X90884429Y-113621204D01*
X90788510Y-113606138D01*
X90711959Y-113593546D01*
X90651820Y-113582511D01*
X90605140Y-113572120D01*
X90568963Y-113561456D01*
X90540335Y-113549605D01*
X90516302Y-113535651D01*
X90493908Y-113518681D01*
X90470198Y-113497778D01*
X90462220Y-113490449D01*
X90434247Y-113463099D01*
X90419440Y-113441429D01*
X90413648Y-113416632D01*
X90412711Y-113385383D01*
X90423025Y-113324105D01*
X90453848Y-113272040D01*
X90505005Y-113229358D01*
X90576317Y-113196225D01*
X90627200Y-113181364D01*
X90682500Y-113171766D01*
X90748747Y-113166336D01*
X90821894Y-113164767D01*
X90897897Y-113166751D01*
X90897897Y-113166751D01*
G37*
X90897897Y-113166751D02*
X90972712Y-113171981D01*
X91042294Y-113180150D01*
X91102598Y-113190950D01*
X91149580Y-113204073D01*
X91179194Y-113219213D01*
X91183740Y-113223669D01*
X91199546Y-113258250D01*
X91194753Y-113293751D01*
X91170236Y-113324125D01*
X91169066Y-113324996D01*
X91154646Y-113334354D01*
X91139592Y-113339276D01*
X91118595Y-113339873D01*
X91086343Y-113336261D01*
X91037527Y-113328554D01*
X91033600Y-113327905D01*
X90960861Y-113318969D01*
X90882383Y-113314561D01*
X90803673Y-113314519D01*
X90730239Y-113318679D01*
X90667589Y-113326879D01*
X90621230Y-113338957D01*
X90618184Y-113340171D01*
X90584552Y-113359015D01*
X90572736Y-113378085D01*
X90581986Y-113396839D01*
X90611553Y-113414737D01*
X90660689Y-113431237D01*
X90728643Y-113445796D01*
X90773955Y-113452806D01*
X90868144Y-113466289D01*
X90943056Y-113478614D01*
X91001883Y-113490849D01*
X91047815Y-113504061D01*
X91084045Y-113519317D01*
X91113762Y-113537685D01*
X91140158Y-113560231D01*
X91161370Y-113582371D01*
X91186535Y-113613219D01*
X91198919Y-113639745D01*
X91202792Y-113672426D01*
X91202933Y-113684395D01*
X91200024Y-113724112D01*
X91188398Y-113753659D01*
X91168277Y-113779886D01*
X91127384Y-113819976D01*
X91081783Y-113850549D01*
X91028087Y-113872603D01*
X90962908Y-113887135D01*
X90882856Y-113895141D01*
X90784543Y-113897618D01*
X90768311Y-113897577D01*
X90702751Y-113896218D01*
X90637734Y-113893130D01*
X90580348Y-113888756D01*
X90537678Y-113883540D01*
X90534228Y-113882941D01*
X90491804Y-113872891D01*
X90455820Y-113860196D01*
X90435450Y-113848590D01*
X90416493Y-113817972D01*
X90415173Y-113782318D01*
X90431515Y-113750544D01*
X90435171Y-113746951D01*
X90450285Y-113736276D01*
X90469185Y-113731676D01*
X90498438Y-113732459D01*
X90533949Y-113736527D01*
X90573630Y-113740162D01*
X90629255Y-113743228D01*
X90694194Y-113745453D01*
X90761815Y-113746564D01*
X90779600Y-113746637D01*
X90847472Y-113746364D01*
X90897146Y-113745046D01*
X90932990Y-113742227D01*
X90959376Y-113737450D01*
X90980674Y-113730257D01*
X90993474Y-113724267D01*
X91021600Y-113707633D01*
X91039532Y-113692568D01*
X91042153Y-113688297D01*
X91036624Y-113670663D01*
X91010340Y-113653592D01*
X90965122Y-113637858D01*
X90902792Y-113624238D01*
X90884429Y-113621204D01*
X90788510Y-113606138D01*
X90711959Y-113593546D01*
X90651820Y-113582511D01*
X90605140Y-113572120D01*
X90568963Y-113561456D01*
X90540335Y-113549605D01*
X90516302Y-113535651D01*
X90493908Y-113518681D01*
X90470198Y-113497778D01*
X90462220Y-113490449D01*
X90434247Y-113463099D01*
X90419440Y-113441429D01*
X90413648Y-113416632D01*
X90412711Y-113385383D01*
X90423025Y-113324105D01*
X90453848Y-113272040D01*
X90505005Y-113229358D01*
X90576317Y-113196225D01*
X90627200Y-113181364D01*
X90682500Y-113171766D01*
X90748747Y-113166336D01*
X90821894Y-113164767D01*
X90897897Y-113166751D01*
G36*
X91665778Y-113188045D02*
G01*
X91672358Y-113195618D01*
X91677521Y-113205387D01*
X91681436Y-113219971D01*
X91684276Y-113241985D01*
X91686213Y-113274048D01*
X91687417Y-113318775D01*
X91688061Y-113378785D01*
X91688316Y-113456694D01*
X91688355Y-113532356D01*
X91688286Y-113626202D01*
X91687962Y-113700089D01*
X91687214Y-113756632D01*
X91685868Y-113798449D01*
X91683754Y-113828157D01*
X91680700Y-113848373D01*
X91676534Y-113861714D01*
X91671084Y-113870798D01*
X91665778Y-113876667D01*
X91632774Y-113896347D01*
X91597609Y-113894581D01*
X91566145Y-113873117D01*
X91558916Y-113864737D01*
X91553266Y-113855014D01*
X91549001Y-113841261D01*
X91545927Y-113820789D01*
X91543848Y-113790912D01*
X91542570Y-113748941D01*
X91541899Y-113692189D01*
X91541641Y-113617967D01*
X91541600Y-113533937D01*
X91541600Y-113220885D01*
X91569309Y-113193176D01*
X91603463Y-113169863D01*
X91636594Y-113169023D01*
X91665778Y-113188045D01*
X91665778Y-113188045D01*
G37*
X91665778Y-113188045D02*
X91672358Y-113195618D01*
X91677521Y-113205387D01*
X91681436Y-113219971D01*
X91684276Y-113241985D01*
X91686213Y-113274048D01*
X91687417Y-113318775D01*
X91688061Y-113378785D01*
X91688316Y-113456694D01*
X91688355Y-113532356D01*
X91688286Y-113626202D01*
X91687962Y-113700089D01*
X91687214Y-113756632D01*
X91685868Y-113798449D01*
X91683754Y-113828157D01*
X91680700Y-113848373D01*
X91676534Y-113861714D01*
X91671084Y-113870798D01*
X91665778Y-113876667D01*
X91632774Y-113896347D01*
X91597609Y-113894581D01*
X91566145Y-113873117D01*
X91558916Y-113864737D01*
X91553266Y-113855014D01*
X91549001Y-113841261D01*
X91545927Y-113820789D01*
X91543848Y-113790912D01*
X91542570Y-113748941D01*
X91541899Y-113692189D01*
X91541641Y-113617967D01*
X91541600Y-113533937D01*
X91541600Y-113220885D01*
X91569309Y-113193176D01*
X91603463Y-113169863D01*
X91636594Y-113169023D01*
X91665778Y-113188045D01*
G36*
X92639519Y-113170999D02*
G01*
X92708035Y-113182495D01*
X92760657Y-113200367D01*
X92794892Y-113223899D01*
X92804221Y-113237324D01*
X92813707Y-113268548D01*
X92807323Y-113296795D01*
X92787170Y-113323582D01*
X92755855Y-113336113D01*
X92710417Y-113335096D01*
X92675274Y-113328306D01*
X92597181Y-113315371D01*
X92517374Y-113314142D01*
X92428045Y-113324641D01*
X92403371Y-113329090D01*
X92320309Y-113352508D01*
X92255327Y-113387345D01*
X92209139Y-113433004D01*
X92182455Y-113488894D01*
X92176937Y-113517788D01*
X92180549Y-113576412D01*
X92203871Y-113628279D01*
X92244776Y-113672378D01*
X92301141Y-113707699D01*
X92370840Y-113733229D01*
X92451748Y-113747959D01*
X92541740Y-113750878D01*
X92638690Y-113740975D01*
X92644164Y-113740041D01*
X92682725Y-113732859D01*
X92704106Y-113725921D01*
X92713373Y-113715627D01*
X92715594Y-113698376D01*
X92715644Y-113689241D01*
X92715644Y-113650889D01*
X92647169Y-113650889D01*
X92586700Y-113646747D01*
X92545435Y-113633547D01*
X92521425Y-113610130D01*
X92512723Y-113575336D01*
X92512617Y-113570794D01*
X92517708Y-113541054D01*
X92535167Y-113519819D01*
X92567661Y-113505766D01*
X92617857Y-113497573D01*
X92666477Y-113494561D01*
X92737144Y-113492833D01*
X92788402Y-113495470D01*
X92823361Y-113505200D01*
X92845130Y-113524753D01*
X92856820Y-113556856D01*
X92861540Y-113604238D01*
X92862400Y-113666471D01*
X92860991Y-113735935D01*
X92856752Y-113783186D01*
X92849664Y-113808412D01*
X92848289Y-113810388D01*
X92809372Y-113841908D01*
X92752314Y-113866870D01*
X92680731Y-113884740D01*
X92598242Y-113894986D01*
X92508461Y-113897073D01*
X92415008Y-113890468D01*
X92360044Y-113882356D01*
X92273834Y-113857954D01*
X92193708Y-113818062D01*
X92126623Y-113766287D01*
X92116427Y-113755939D01*
X92083298Y-113712435D01*
X92053406Y-113658518D01*
X92030243Y-113601992D01*
X92017302Y-113550659D01*
X92015742Y-113530944D01*
X92022382Y-113489819D01*
X92040032Y-113438652D01*
X92065303Y-113384794D01*
X92094811Y-113335595D01*
X92120881Y-113302734D01*
X92181835Y-113253852D01*
X92260631Y-113214945D01*
X92354443Y-113186894D01*
X92460450Y-113170579D01*
X92557600Y-113166592D01*
X92639519Y-113170999D01*
X92639519Y-113170999D01*
G37*
X92639519Y-113170999D02*
X92708035Y-113182495D01*
X92760657Y-113200367D01*
X92794892Y-113223899D01*
X92804221Y-113237324D01*
X92813707Y-113268548D01*
X92807323Y-113296795D01*
X92787170Y-113323582D01*
X92755855Y-113336113D01*
X92710417Y-113335096D01*
X92675274Y-113328306D01*
X92597181Y-113315371D01*
X92517374Y-113314142D01*
X92428045Y-113324641D01*
X92403371Y-113329090D01*
X92320309Y-113352508D01*
X92255327Y-113387345D01*
X92209139Y-113433004D01*
X92182455Y-113488894D01*
X92176937Y-113517788D01*
X92180549Y-113576412D01*
X92203871Y-113628279D01*
X92244776Y-113672378D01*
X92301141Y-113707699D01*
X92370840Y-113733229D01*
X92451748Y-113747959D01*
X92541740Y-113750878D01*
X92638690Y-113740975D01*
X92644164Y-113740041D01*
X92682725Y-113732859D01*
X92704106Y-113725921D01*
X92713373Y-113715627D01*
X92715594Y-113698376D01*
X92715644Y-113689241D01*
X92715644Y-113650889D01*
X92647169Y-113650889D01*
X92586700Y-113646747D01*
X92545435Y-113633547D01*
X92521425Y-113610130D01*
X92512723Y-113575336D01*
X92512617Y-113570794D01*
X92517708Y-113541054D01*
X92535167Y-113519819D01*
X92567661Y-113505766D01*
X92617857Y-113497573D01*
X92666477Y-113494561D01*
X92737144Y-113492833D01*
X92788402Y-113495470D01*
X92823361Y-113505200D01*
X92845130Y-113524753D01*
X92856820Y-113556856D01*
X92861540Y-113604238D01*
X92862400Y-113666471D01*
X92860991Y-113735935D01*
X92856752Y-113783186D01*
X92849664Y-113808412D01*
X92848289Y-113810388D01*
X92809372Y-113841908D01*
X92752314Y-113866870D01*
X92680731Y-113884740D01*
X92598242Y-113894986D01*
X92508461Y-113897073D01*
X92415008Y-113890468D01*
X92360044Y-113882356D01*
X92273834Y-113857954D01*
X92193708Y-113818062D01*
X92126623Y-113766287D01*
X92116427Y-113755939D01*
X92083298Y-113712435D01*
X92053406Y-113658518D01*
X92030243Y-113601992D01*
X92017302Y-113550659D01*
X92015742Y-113530944D01*
X92022382Y-113489819D01*
X92040032Y-113438652D01*
X92065303Y-113384794D01*
X92094811Y-113335595D01*
X92120881Y-113302734D01*
X92181835Y-113253852D01*
X92260631Y-113214945D01*
X92354443Y-113186894D01*
X92460450Y-113170579D01*
X92557600Y-113166592D01*
X92639519Y-113170999D01*
G36*
X93289486Y-113169848D02*
G01*
X93313052Y-113183673D01*
X93343865Y-113206281D01*
X93383522Y-113238738D01*
X93433620Y-113282108D01*
X93495757Y-113337458D01*
X93571528Y-113405851D01*
X93658266Y-113484484D01*
X93838889Y-113648278D01*
X93844533Y-113428429D01*
X93846571Y-113352751D01*
X93848537Y-113296394D01*
X93850866Y-113256106D01*
X93853994Y-113228635D01*
X93858355Y-113210729D01*
X93864384Y-113199137D01*
X93872516Y-113190608D01*
X93876828Y-113187023D01*
X93911359Y-113168070D01*
X93944217Y-113170841D01*
X93970282Y-113187033D01*
X93996933Y-113208599D01*
X94000248Y-113523551D01*
X94001165Y-113616179D01*
X94001632Y-113688944D01*
X94001487Y-113744561D01*
X94000568Y-113785742D01*
X93998713Y-113815203D01*
X93995761Y-113835655D01*
X93991550Y-113849813D01*
X93985918Y-113860391D01*
X93979673Y-113868874D01*
X93966161Y-113884607D01*
X93952717Y-113895036D01*
X93937476Y-113899039D01*
X93918574Y-113895494D01*
X93894145Y-113883279D01*
X93862327Y-113861271D01*
X93821252Y-113828349D01*
X93769058Y-113783391D01*
X93703878Y-113725275D01*
X93630044Y-113658499D01*
X93364755Y-113417858D01*
X93359111Y-113636989D01*
X93357069Y-113712528D01*
X93355098Y-113768754D01*
X93352761Y-113808924D01*
X93349619Y-113836296D01*
X93345236Y-113854128D01*
X93339176Y-113865679D01*
X93331000Y-113874207D01*
X93326816Y-113877682D01*
X93289835Y-113896772D01*
X93254892Y-113893893D01*
X93224464Y-113869500D01*
X93217503Y-113859686D01*
X93212077Y-113848226D01*
X93207997Y-113832368D01*
X93205071Y-113809363D01*
X93203108Y-113776462D01*
X93201917Y-113730916D01*
X93201308Y-113669973D01*
X93201089Y-113590886D01*
X93201066Y-113532356D01*
X93201140Y-113440807D01*
X93201487Y-113369087D01*
X93202299Y-113314445D01*
X93203767Y-113274132D01*
X93206081Y-113245398D01*
X93209433Y-113225493D01*
X93214012Y-113211668D01*
X93220011Y-113201172D01*
X93224464Y-113195211D01*
X93235750Y-113181091D01*
X93246299Y-113170429D01*
X93257707Y-113164292D01*
X93271570Y-113163743D01*
X93289486Y-113169848D01*
X93289486Y-113169848D01*
G37*
X93289486Y-113169848D02*
X93313052Y-113183673D01*
X93343865Y-113206281D01*
X93383522Y-113238738D01*
X93433620Y-113282108D01*
X93495757Y-113337458D01*
X93571528Y-113405851D01*
X93658266Y-113484484D01*
X93838889Y-113648278D01*
X93844533Y-113428429D01*
X93846571Y-113352751D01*
X93848537Y-113296394D01*
X93850866Y-113256106D01*
X93853994Y-113228635D01*
X93858355Y-113210729D01*
X93864384Y-113199137D01*
X93872516Y-113190608D01*
X93876828Y-113187023D01*
X93911359Y-113168070D01*
X93944217Y-113170841D01*
X93970282Y-113187033D01*
X93996933Y-113208599D01*
X94000248Y-113523551D01*
X94001165Y-113616179D01*
X94001632Y-113688944D01*
X94001487Y-113744561D01*
X94000568Y-113785742D01*
X93998713Y-113815203D01*
X93995761Y-113835655D01*
X93991550Y-113849813D01*
X93985918Y-113860391D01*
X93979673Y-113868874D01*
X93966161Y-113884607D01*
X93952717Y-113895036D01*
X93937476Y-113899039D01*
X93918574Y-113895494D01*
X93894145Y-113883279D01*
X93862327Y-113861271D01*
X93821252Y-113828349D01*
X93769058Y-113783391D01*
X93703878Y-113725275D01*
X93630044Y-113658499D01*
X93364755Y-113417858D01*
X93359111Y-113636989D01*
X93357069Y-113712528D01*
X93355098Y-113768754D01*
X93352761Y-113808924D01*
X93349619Y-113836296D01*
X93345236Y-113854128D01*
X93339176Y-113865679D01*
X93331000Y-113874207D01*
X93326816Y-113877682D01*
X93289835Y-113896772D01*
X93254892Y-113893893D01*
X93224464Y-113869500D01*
X93217503Y-113859686D01*
X93212077Y-113848226D01*
X93207997Y-113832368D01*
X93205071Y-113809363D01*
X93203108Y-113776462D01*
X93201917Y-113730916D01*
X93201308Y-113669973D01*
X93201089Y-113590886D01*
X93201066Y-113532356D01*
X93201140Y-113440807D01*
X93201487Y-113369087D01*
X93202299Y-113314445D01*
X93203767Y-113274132D01*
X93206081Y-113245398D01*
X93209433Y-113225493D01*
X93214012Y-113211668D01*
X93220011Y-113201172D01*
X93224464Y-113195211D01*
X93235750Y-113181091D01*
X93246299Y-113170429D01*
X93257707Y-113164292D01*
X93271570Y-113163743D01*
X93289486Y-113169848D01*
G36*
X94819943Y-113165660D02*
G01*
X94896301Y-113166574D01*
X94954817Y-113168711D01*
X94997855Y-113172575D01*
X95027783Y-113178667D01*
X95046968Y-113187490D01*
X95057776Y-113199546D01*
X95062573Y-113215339D01*
X95063727Y-113235370D01*
X95063733Y-113237735D01*
X95062731Y-113260392D01*
X95057996Y-113277903D01*
X95046933Y-113290974D01*
X95026948Y-113300313D01*
X94995446Y-113306627D01*
X94949832Y-113310622D01*
X94887513Y-113313006D01*
X94805893Y-113314486D01*
X94780877Y-113314814D01*
X94538800Y-113317867D01*
X94535414Y-113382778D01*
X94532029Y-113447689D01*
X94700176Y-113447689D01*
X94765866Y-113447931D01*
X94812772Y-113448956D01*
X94844683Y-113451211D01*
X94865391Y-113455142D01*
X94878684Y-113461198D01*
X94888355Y-113469824D01*
X94888417Y-113469893D01*
X94905956Y-113503512D01*
X94905322Y-113539848D01*
X94886914Y-113570823D01*
X94883271Y-113574007D01*
X94870341Y-113582212D01*
X94852624Y-113587921D01*
X94826170Y-113591562D01*
X94787032Y-113593567D01*
X94731262Y-113594364D01*
X94695594Y-113594445D01*
X94533155Y-113594445D01*
X94533155Y-113752489D01*
X94779761Y-113752489D01*
X94861180Y-113752631D01*
X94923010Y-113753214D01*
X94968237Y-113754468D01*
X94999848Y-113756627D01*
X95020831Y-113759923D01*
X95034173Y-113764589D01*
X95042861Y-113770857D01*
X95045050Y-113773133D01*
X95061214Y-113804680D01*
X95062397Y-113840568D01*
X95049136Y-113871685D01*
X95038643Y-113881671D01*
X95027729Y-113887169D01*
X95010817Y-113891422D01*
X94985233Y-113894580D01*
X94948301Y-113896792D01*
X94897346Y-113898206D01*
X94829694Y-113898972D01*
X94742669Y-113899238D01*
X94722994Y-113899245D01*
X94634511Y-113899187D01*
X94565827Y-113898867D01*
X94514164Y-113898067D01*
X94476745Y-113896567D01*
X94450790Y-113894149D01*
X94433522Y-113890594D01*
X94422162Y-113885682D01*
X94413932Y-113879195D01*
X94409417Y-113874538D01*
X94402621Y-113866289D01*
X94397312Y-113856069D01*
X94393306Y-113841200D01*
X94390421Y-113819002D01*
X94388474Y-113786793D01*
X94387281Y-113741896D01*
X94386661Y-113681628D01*
X94386429Y-113603311D01*
X94386400Y-113537394D01*
X94386471Y-113445028D01*
X94386808Y-113372517D01*
X94387598Y-113317137D01*
X94389026Y-113276165D01*
X94391279Y-113246878D01*
X94394543Y-113226553D01*
X94399004Y-113212466D01*
X94404848Y-113201895D01*
X94409797Y-113195211D01*
X94433194Y-113165467D01*
X94723374Y-113165467D01*
X94819943Y-113165660D01*
X94819943Y-113165660D01*
G37*
X94819943Y-113165660D02*
X94896301Y-113166574D01*
X94954817Y-113168711D01*
X94997855Y-113172575D01*
X95027783Y-113178667D01*
X95046968Y-113187490D01*
X95057776Y-113199546D01*
X95062573Y-113215339D01*
X95063727Y-113235370D01*
X95063733Y-113237735D01*
X95062731Y-113260392D01*
X95057996Y-113277903D01*
X95046933Y-113290974D01*
X95026948Y-113300313D01*
X94995446Y-113306627D01*
X94949832Y-113310622D01*
X94887513Y-113313006D01*
X94805893Y-113314486D01*
X94780877Y-113314814D01*
X94538800Y-113317867D01*
X94535414Y-113382778D01*
X94532029Y-113447689D01*
X94700176Y-113447689D01*
X94765866Y-113447931D01*
X94812772Y-113448956D01*
X94844683Y-113451211D01*
X94865391Y-113455142D01*
X94878684Y-113461198D01*
X94888355Y-113469824D01*
X94888417Y-113469893D01*
X94905956Y-113503512D01*
X94905322Y-113539848D01*
X94886914Y-113570823D01*
X94883271Y-113574007D01*
X94870341Y-113582212D01*
X94852624Y-113587921D01*
X94826170Y-113591562D01*
X94787032Y-113593567D01*
X94731262Y-113594364D01*
X94695594Y-113594445D01*
X94533155Y-113594445D01*
X94533155Y-113752489D01*
X94779761Y-113752489D01*
X94861180Y-113752631D01*
X94923010Y-113753214D01*
X94968237Y-113754468D01*
X94999848Y-113756627D01*
X95020831Y-113759923D01*
X95034173Y-113764589D01*
X95042861Y-113770857D01*
X95045050Y-113773133D01*
X95061214Y-113804680D01*
X95062397Y-113840568D01*
X95049136Y-113871685D01*
X95038643Y-113881671D01*
X95027729Y-113887169D01*
X95010817Y-113891422D01*
X94985233Y-113894580D01*
X94948301Y-113896792D01*
X94897346Y-113898206D01*
X94829694Y-113898972D01*
X94742669Y-113899238D01*
X94722994Y-113899245D01*
X94634511Y-113899187D01*
X94565827Y-113898867D01*
X94514164Y-113898067D01*
X94476745Y-113896567D01*
X94450790Y-113894149D01*
X94433522Y-113890594D01*
X94422162Y-113885682D01*
X94413932Y-113879195D01*
X94409417Y-113874538D01*
X94402621Y-113866289D01*
X94397312Y-113856069D01*
X94393306Y-113841200D01*
X94390421Y-113819002D01*
X94388474Y-113786793D01*
X94387281Y-113741896D01*
X94386661Y-113681628D01*
X94386429Y-113603311D01*
X94386400Y-113537394D01*
X94386471Y-113445028D01*
X94386808Y-113372517D01*
X94387598Y-113317137D01*
X94389026Y-113276165D01*
X94391279Y-113246878D01*
X94394543Y-113226553D01*
X94399004Y-113212466D01*
X94404848Y-113201895D01*
X94409797Y-113195211D01*
X94433194Y-113165467D01*
X94723374Y-113165467D01*
X94819943Y-113165660D01*
G36*
X95607909Y-113165675D02*
G01*
X95736888Y-113170036D01*
X95846591Y-113183261D01*
X95938826Y-113206141D01*
X96015402Y-113239470D01*
X96078127Y-113284038D01*
X96128812Y-113340636D01*
X96169263Y-113410058D01*
X96170059Y-113411751D01*
X96194201Y-113473883D01*
X96202803Y-113528909D01*
X96195831Y-113584287D01*
X96173254Y-113647473D01*
X96168972Y-113657089D01*
X96139772Y-113713366D01*
X96106956Y-113756851D01*
X96064602Y-113793817D01*
X96006790Y-113830535D01*
X96003431Y-113832452D01*
X95953104Y-113856627D01*
X95896221Y-113874682D01*
X95829127Y-113887239D01*
X95748165Y-113894922D01*
X95649682Y-113898353D01*
X95614886Y-113898651D01*
X95449194Y-113899245D01*
X95425797Y-113869500D01*
X95418857Y-113859719D01*
X95413442Y-113848297D01*
X95409365Y-113832495D01*
X95406437Y-113809575D01*
X95404467Y-113776796D01*
X95403825Y-113752489D01*
X95560444Y-113752489D01*
X95654326Y-113752489D01*
X95709264Y-113750883D01*
X95765660Y-113746655D01*
X95811945Y-113740692D01*
X95814739Y-113740190D01*
X95896948Y-113718136D01*
X95960714Y-113685000D01*
X96008052Y-113639247D01*
X96040982Y-113579339D01*
X96046708Y-113563461D01*
X96052321Y-113538733D01*
X96049891Y-113514302D01*
X96038067Y-113481800D01*
X96030940Y-113465834D01*
X96007600Y-113423406D01*
X95979480Y-113393640D01*
X95948540Y-113372911D01*
X95886566Y-113345937D01*
X95807251Y-113326398D01*
X95714853Y-113315146D01*
X95647933Y-113312670D01*
X95560444Y-113312222D01*
X95560444Y-113752489D01*
X95403825Y-113752489D01*
X95403268Y-113731421D01*
X95402650Y-113670711D01*
X95402425Y-113591926D01*
X95402400Y-113530320D01*
X95402400Y-113220885D01*
X95430109Y-113193176D01*
X95442406Y-113181944D01*
X95455703Y-113174253D01*
X95474272Y-113169440D01*
X95502386Y-113166846D01*
X95544317Y-113165810D01*
X95604337Y-113165670D01*
X95607909Y-113165675D01*
X95607909Y-113165675D01*
G37*
X95607909Y-113165675D02*
X95736888Y-113170036D01*
X95846591Y-113183261D01*
X95938826Y-113206141D01*
X96015402Y-113239470D01*
X96078127Y-113284038D01*
X96128812Y-113340636D01*
X96169263Y-113410058D01*
X96170059Y-113411751D01*
X96194201Y-113473883D01*
X96202803Y-113528909D01*
X96195831Y-113584287D01*
X96173254Y-113647473D01*
X96168972Y-113657089D01*
X96139772Y-113713366D01*
X96106956Y-113756851D01*
X96064602Y-113793817D01*
X96006790Y-113830535D01*
X96003431Y-113832452D01*
X95953104Y-113856627D01*
X95896221Y-113874682D01*
X95829127Y-113887239D01*
X95748165Y-113894922D01*
X95649682Y-113898353D01*
X95614886Y-113898651D01*
X95449194Y-113899245D01*
X95425797Y-113869500D01*
X95418857Y-113859719D01*
X95413442Y-113848297D01*
X95409365Y-113832495D01*
X95406437Y-113809575D01*
X95404467Y-113776796D01*
X95403825Y-113752489D01*
X95560444Y-113752489D01*
X95654326Y-113752489D01*
X95709264Y-113750883D01*
X95765660Y-113746655D01*
X95811945Y-113740692D01*
X95814739Y-113740190D01*
X95896948Y-113718136D01*
X95960714Y-113685000D01*
X96008052Y-113639247D01*
X96040982Y-113579339D01*
X96046708Y-113563461D01*
X96052321Y-113538733D01*
X96049891Y-113514302D01*
X96038067Y-113481800D01*
X96030940Y-113465834D01*
X96007600Y-113423406D01*
X95979480Y-113393640D01*
X95948540Y-113372911D01*
X95886566Y-113345937D01*
X95807251Y-113326398D01*
X95714853Y-113315146D01*
X95647933Y-113312670D01*
X95560444Y-113312222D01*
X95560444Y-113752489D01*
X95403825Y-113752489D01*
X95403268Y-113731421D01*
X95402650Y-113670711D01*
X95402425Y-113591926D01*
X95402400Y-113530320D01*
X95402400Y-113220885D01*
X95430109Y-113193176D01*
X95442406Y-113181944D01*
X95455703Y-113174253D01*
X95474272Y-113169440D01*
X95502386Y-113166846D01*
X95544317Y-113165810D01*
X95604337Y-113165670D01*
X95607909Y-113165675D01*
G36*
X98334265Y-113167434D02*
G01*
X98353855Y-113174435D01*
X98354610Y-113174777D01*
X98381213Y-113195078D01*
X98395870Y-113215961D01*
X98398738Y-113225752D01*
X98398596Y-113238761D01*
X98394561Y-113257295D01*
X98385746Y-113283657D01*
X98371269Y-113320152D01*
X98350245Y-113369087D01*
X98321788Y-113432765D01*
X98285015Y-113513493D01*
X98264775Y-113557616D01*
X98228225Y-113636385D01*
X98193915Y-113708823D01*
X98163152Y-113772280D01*
X98137248Y-113824108D01*
X98117510Y-113861659D01*
X98105250Y-113882284D01*
X98102824Y-113885133D01*
X98071783Y-113897702D01*
X98036721Y-113896019D01*
X98008600Y-113880732D01*
X98007454Y-113879489D01*
X97996268Y-113862554D01*
X97977504Y-113829570D01*
X97953475Y-113784780D01*
X97926497Y-113732432D01*
X97916801Y-113713142D01*
X97843614Y-113566550D01*
X97763840Y-113725793D01*
X97735367Y-113780815D01*
X97708950Y-113828532D01*
X97686748Y-113865293D01*
X97670919Y-113887444D01*
X97665554Y-113892141D01*
X97623857Y-113898502D01*
X97589449Y-113885133D01*
X97579328Y-113870846D01*
X97561814Y-113839092D01*
X97538335Y-113792997D01*
X97510320Y-113735685D01*
X97479199Y-113670280D01*
X97446399Y-113599907D01*
X97413350Y-113527691D01*
X97381481Y-113456755D01*
X97352219Y-113390225D01*
X97326995Y-113331226D01*
X97307236Y-113282881D01*
X97294372Y-113248315D01*
X97289831Y-113230653D01*
X97289877Y-113230013D01*
X97300926Y-113207788D01*
X97323010Y-113185153D01*
X97324310Y-113184168D01*
X97351453Y-113168825D01*
X97376558Y-113168974D01*
X97385968Y-113171866D01*
X97397434Y-113178118D01*
X97409610Y-113190414D01*
X97423957Y-113211308D01*
X97441936Y-113243349D01*
X97465007Y-113289088D01*
X97494630Y-113351077D01*
X97521345Y-113408298D01*
X97552080Y-113474626D01*
X97579621Y-113534274D01*
X97602538Y-113584125D01*
X97619398Y-113621064D01*
X97628773Y-113641973D01*
X97630140Y-113645245D01*
X97636289Y-113639897D01*
X97650422Y-113617509D01*
X97670657Y-113581346D01*
X97695115Y-113534677D01*
X97704848Y-113515422D01*
X97737817Y-113450404D01*
X97763243Y-113403054D01*
X97783212Y-113370619D01*
X97799810Y-113350346D01*
X97815124Y-113339482D01*
X97831240Y-113335275D01*
X97841743Y-113334800D01*
X97860270Y-113336442D01*
X97876504Y-113343231D01*
X97892635Y-113357966D01*
X97910851Y-113383444D01*
X97933339Y-113422461D01*
X97962289Y-113477814D01*
X97978262Y-113509303D01*
X98004170Y-113559487D01*
X98026767Y-113601104D01*
X98044058Y-113630642D01*
X98054050Y-113644589D01*
X98055409Y-113645170D01*
X98061861Y-113634193D01*
X98076308Y-113605690D01*
X98097303Y-113562644D01*
X98123397Y-113508038D01*
X98153146Y-113444854D01*
X98167780Y-113413471D01*
X98205850Y-113332478D01*
X98236505Y-113270156D01*
X98261337Y-113224471D01*
X98281937Y-113193389D01*
X98299898Y-113174878D01*
X98316810Y-113166904D01*
X98334265Y-113167434D01*
X98334265Y-113167434D01*
G37*
X98334265Y-113167434D02*
X98353855Y-113174435D01*
X98354610Y-113174777D01*
X98381213Y-113195078D01*
X98395870Y-113215961D01*
X98398738Y-113225752D01*
X98398596Y-113238761D01*
X98394561Y-113257295D01*
X98385746Y-113283657D01*
X98371269Y-113320152D01*
X98350245Y-113369087D01*
X98321788Y-113432765D01*
X98285015Y-113513493D01*
X98264775Y-113557616D01*
X98228225Y-113636385D01*
X98193915Y-113708823D01*
X98163152Y-113772280D01*
X98137248Y-113824108D01*
X98117510Y-113861659D01*
X98105250Y-113882284D01*
X98102824Y-113885133D01*
X98071783Y-113897702D01*
X98036721Y-113896019D01*
X98008600Y-113880732D01*
X98007454Y-113879489D01*
X97996268Y-113862554D01*
X97977504Y-113829570D01*
X97953475Y-113784780D01*
X97926497Y-113732432D01*
X97916801Y-113713142D01*
X97843614Y-113566550D01*
X97763840Y-113725793D01*
X97735367Y-113780815D01*
X97708950Y-113828532D01*
X97686748Y-113865293D01*
X97670919Y-113887444D01*
X97665554Y-113892141D01*
X97623857Y-113898502D01*
X97589449Y-113885133D01*
X97579328Y-113870846D01*
X97561814Y-113839092D01*
X97538335Y-113792997D01*
X97510320Y-113735685D01*
X97479199Y-113670280D01*
X97446399Y-113599907D01*
X97413350Y-113527691D01*
X97381481Y-113456755D01*
X97352219Y-113390225D01*
X97326995Y-113331226D01*
X97307236Y-113282881D01*
X97294372Y-113248315D01*
X97289831Y-113230653D01*
X97289877Y-113230013D01*
X97300926Y-113207788D01*
X97323010Y-113185153D01*
X97324310Y-113184168D01*
X97351453Y-113168825D01*
X97376558Y-113168974D01*
X97385968Y-113171866D01*
X97397434Y-113178118D01*
X97409610Y-113190414D01*
X97423957Y-113211308D01*
X97441936Y-113243349D01*
X97465007Y-113289088D01*
X97494630Y-113351077D01*
X97521345Y-113408298D01*
X97552080Y-113474626D01*
X97579621Y-113534274D01*
X97602538Y-113584125D01*
X97619398Y-113621064D01*
X97628773Y-113641973D01*
X97630140Y-113645245D01*
X97636289Y-113639897D01*
X97650422Y-113617509D01*
X97670657Y-113581346D01*
X97695115Y-113534677D01*
X97704848Y-113515422D01*
X97737817Y-113450404D01*
X97763243Y-113403054D01*
X97783212Y-113370619D01*
X97799810Y-113350346D01*
X97815124Y-113339482D01*
X97831240Y-113335275D01*
X97841743Y-113334800D01*
X97860270Y-113336442D01*
X97876504Y-113343231D01*
X97892635Y-113357966D01*
X97910851Y-113383444D01*
X97933339Y-113422461D01*
X97962289Y-113477814D01*
X97978262Y-113509303D01*
X98004170Y-113559487D01*
X98026767Y-113601104D01*
X98044058Y-113630642D01*
X98054050Y-113644589D01*
X98055409Y-113645170D01*
X98061861Y-113634193D01*
X98076308Y-113605690D01*
X98097303Y-113562644D01*
X98123397Y-113508038D01*
X98153146Y-113444854D01*
X98167780Y-113413471D01*
X98205850Y-113332478D01*
X98236505Y-113270156D01*
X98261337Y-113224471D01*
X98281937Y-113193389D01*
X98299898Y-113174878D01*
X98316810Y-113166904D01*
X98334265Y-113167434D01*
G36*
X98778214Y-113172277D02*
G01*
X98801927Y-113187047D01*
X98828578Y-113208627D01*
X98828578Y-113530173D01*
X98828493Y-113624230D01*
X98828129Y-113698332D01*
X98827324Y-113755104D01*
X98825913Y-113797168D01*
X98823733Y-113827148D01*
X98820621Y-113847667D01*
X98816414Y-113861349D01*
X98810948Y-113870816D01*
X98807072Y-113875482D01*
X98775634Y-113895975D01*
X98739833Y-113895139D01*
X98708473Y-113877664D01*
X98681822Y-113856084D01*
X98681822Y-113208627D01*
X98708473Y-113187047D01*
X98734194Y-113171349D01*
X98755200Y-113165467D01*
X98778214Y-113172277D01*
X98778214Y-113172277D01*
G37*
X98778214Y-113172277D02*
X98801927Y-113187047D01*
X98828578Y-113208627D01*
X98828578Y-113530173D01*
X98828493Y-113624230D01*
X98828129Y-113698332D01*
X98827324Y-113755104D01*
X98825913Y-113797168D01*
X98823733Y-113827148D01*
X98820621Y-113847667D01*
X98816414Y-113861349D01*
X98810948Y-113870816D01*
X98807072Y-113875482D01*
X98775634Y-113895975D01*
X98739833Y-113895139D01*
X98708473Y-113877664D01*
X98681822Y-113856084D01*
X98681822Y-113208627D01*
X98708473Y-113187047D01*
X98734194Y-113171349D01*
X98755200Y-113165467D01*
X98778214Y-113172277D01*
G36*
X99552665Y-113165563D02*
G01*
X99631372Y-113165942D01*
X99692463Y-113166733D01*
X99738417Y-113168070D01*
X99771714Y-113170083D01*
X99794836Y-113172906D01*
X99810262Y-113176669D01*
X99820471Y-113181505D01*
X99825413Y-113185222D01*
X99851057Y-113217758D01*
X99854159Y-113251538D01*
X99838311Y-113282226D01*
X99827948Y-113294489D01*
X99816796Y-113302850D01*
X99800635Y-113308057D01*
X99775242Y-113310857D01*
X99736398Y-113311996D01*
X99679880Y-113312221D01*
X99668780Y-113312222D01*
X99522844Y-113312222D01*
X99522844Y-113583156D01*
X99522748Y-113668554D01*
X99522311Y-113734264D01*
X99521312Y-113783174D01*
X99519528Y-113818173D01*
X99516737Y-113842149D01*
X99512717Y-113857993D01*
X99507245Y-113868591D01*
X99500266Y-113876667D01*
X99467334Y-113896512D01*
X99432954Y-113894948D01*
X99401776Y-113872306D01*
X99399486Y-113869500D01*
X99392029Y-113858892D01*
X99386347Y-113846481D01*
X99382201Y-113829250D01*
X99379350Y-113804184D01*
X99377554Y-113768267D01*
X99376572Y-113718483D01*
X99376164Y-113651817D01*
X99376089Y-113575989D01*
X99376089Y-113312222D01*
X99236727Y-113312222D01*
X99176922Y-113311818D01*
X99135518Y-113310240D01*
X99108348Y-113306947D01*
X99091246Y-113301392D01*
X99080043Y-113293031D01*
X99078683Y-113291578D01*
X99062325Y-113258339D01*
X99063772Y-113220762D01*
X99082578Y-113188045D01*
X99089850Y-113181698D01*
X99099227Y-113176666D01*
X99113209Y-113172796D01*
X99134296Y-113169937D01*
X99164989Y-113167935D01*
X99207789Y-113166639D01*
X99265195Y-113165898D01*
X99339710Y-113165558D01*
X99433833Y-113165468D01*
X99453860Y-113165467D01*
X99552665Y-113165563D01*
X99552665Y-113165563D01*
G37*
X99552665Y-113165563D02*
X99631372Y-113165942D01*
X99692463Y-113166733D01*
X99738417Y-113168070D01*
X99771714Y-113170083D01*
X99794836Y-113172906D01*
X99810262Y-113176669D01*
X99820471Y-113181505D01*
X99825413Y-113185222D01*
X99851057Y-113217758D01*
X99854159Y-113251538D01*
X99838311Y-113282226D01*
X99827948Y-113294489D01*
X99816796Y-113302850D01*
X99800635Y-113308057D01*
X99775242Y-113310857D01*
X99736398Y-113311996D01*
X99679880Y-113312221D01*
X99668780Y-113312222D01*
X99522844Y-113312222D01*
X99522844Y-113583156D01*
X99522748Y-113668554D01*
X99522311Y-113734264D01*
X99521312Y-113783174D01*
X99519528Y-113818173D01*
X99516737Y-113842149D01*
X99512717Y-113857993D01*
X99507245Y-113868591D01*
X99500266Y-113876667D01*
X99467334Y-113896512D01*
X99432954Y-113894948D01*
X99401776Y-113872306D01*
X99399486Y-113869500D01*
X99392029Y-113858892D01*
X99386347Y-113846481D01*
X99382201Y-113829250D01*
X99379350Y-113804184D01*
X99377554Y-113768267D01*
X99376572Y-113718483D01*
X99376164Y-113651817D01*
X99376089Y-113575989D01*
X99376089Y-113312222D01*
X99236727Y-113312222D01*
X99176922Y-113311818D01*
X99135518Y-113310240D01*
X99108348Y-113306947D01*
X99091246Y-113301392D01*
X99080043Y-113293031D01*
X99078683Y-113291578D01*
X99062325Y-113258339D01*
X99063772Y-113220762D01*
X99082578Y-113188045D01*
X99089850Y-113181698D01*
X99099227Y-113176666D01*
X99113209Y-113172796D01*
X99134296Y-113169937D01*
X99164989Y-113167935D01*
X99207789Y-113166639D01*
X99265195Y-113165898D01*
X99339710Y-113165558D01*
X99433833Y-113165468D01*
X99453860Y-113165467D01*
X99552665Y-113165563D01*
G36*
X100818423Y-113170933D02*
G01*
X100849802Y-113193176D01*
X100877511Y-113220885D01*
X100877511Y-113530320D01*
X100877438Y-113622199D01*
X100877095Y-113694240D01*
X100876292Y-113749180D01*
X100874841Y-113789760D01*
X100872552Y-113818717D01*
X100869236Y-113838791D01*
X100864705Y-113852721D01*
X100858769Y-113863245D01*
X100854114Y-113869500D01*
X100823383Y-113894073D01*
X100788096Y-113896741D01*
X100755845Y-113881671D01*
X100745188Y-113872774D01*
X100738064Y-113860957D01*
X100733767Y-113841926D01*
X100731591Y-113811392D01*
X100730828Y-113765062D01*
X100730755Y-113729271D01*
X100730755Y-113594445D01*
X100234044Y-113594445D01*
X100234044Y-113717100D01*
X100233531Y-113773187D01*
X100231476Y-113811733D01*
X100227108Y-113837761D01*
X100219656Y-113856297D01*
X100210647Y-113869500D01*
X100179744Y-113894004D01*
X100144796Y-113896906D01*
X100111338Y-113879489D01*
X100102204Y-113870359D01*
X100095752Y-113858255D01*
X100091497Y-113839401D01*
X100088952Y-113810020D01*
X100087629Y-113766337D01*
X100087043Y-113704575D01*
X100086975Y-113690400D01*
X100086491Y-113574031D01*
X100086241Y-113478127D01*
X100086323Y-113400577D01*
X100086831Y-113339269D01*
X100087862Y-113292090D01*
X100089513Y-113256930D01*
X100091879Y-113231676D01*
X100095057Y-113214217D01*
X100099144Y-113202441D01*
X100104234Y-113194235D01*
X100109866Y-113188045D01*
X100141728Y-113168244D01*
X100174957Y-113170933D01*
X100206335Y-113193176D01*
X100219033Y-113207526D01*
X100227126Y-113223378D01*
X100231642Y-113245954D01*
X100233606Y-113280478D01*
X100234044Y-113332176D01*
X100234044Y-113447689D01*
X100730755Y-113447689D01*
X100730755Y-113329156D01*
X100731262Y-113274548D01*
X100733298Y-113237675D01*
X100737635Y-113213707D01*
X100745047Y-113197815D01*
X100753333Y-113188045D01*
X100785194Y-113168244D01*
X100818423Y-113170933D01*
X100818423Y-113170933D01*
G37*
X100818423Y-113170933D02*
X100849802Y-113193176D01*
X100877511Y-113220885D01*
X100877511Y-113530320D01*
X100877438Y-113622199D01*
X100877095Y-113694240D01*
X100876292Y-113749180D01*
X100874841Y-113789760D01*
X100872552Y-113818717D01*
X100869236Y-113838791D01*
X100864705Y-113852721D01*
X100858769Y-113863245D01*
X100854114Y-113869500D01*
X100823383Y-113894073D01*
X100788096Y-113896741D01*
X100755845Y-113881671D01*
X100745188Y-113872774D01*
X100738064Y-113860957D01*
X100733767Y-113841926D01*
X100731591Y-113811392D01*
X100730828Y-113765062D01*
X100730755Y-113729271D01*
X100730755Y-113594445D01*
X100234044Y-113594445D01*
X100234044Y-113717100D01*
X100233531Y-113773187D01*
X100231476Y-113811733D01*
X100227108Y-113837761D01*
X100219656Y-113856297D01*
X100210647Y-113869500D01*
X100179744Y-113894004D01*
X100144796Y-113896906D01*
X100111338Y-113879489D01*
X100102204Y-113870359D01*
X100095752Y-113858255D01*
X100091497Y-113839401D01*
X100088952Y-113810020D01*
X100087629Y-113766337D01*
X100087043Y-113704575D01*
X100086975Y-113690400D01*
X100086491Y-113574031D01*
X100086241Y-113478127D01*
X100086323Y-113400577D01*
X100086831Y-113339269D01*
X100087862Y-113292090D01*
X100089513Y-113256930D01*
X100091879Y-113231676D01*
X100095057Y-113214217D01*
X100099144Y-113202441D01*
X100104234Y-113194235D01*
X100109866Y-113188045D01*
X100141728Y-113168244D01*
X100174957Y-113170933D01*
X100206335Y-113193176D01*
X100219033Y-113207526D01*
X100227126Y-113223378D01*
X100231642Y-113245954D01*
X100233606Y-113280478D01*
X100234044Y-113332176D01*
X100234044Y-113447689D01*
X100730755Y-113447689D01*
X100730755Y-113329156D01*
X100731262Y-113274548D01*
X100733298Y-113237675D01*
X100737635Y-113213707D01*
X100745047Y-113197815D01*
X100753333Y-113188045D01*
X100785194Y-113168244D01*
X100818423Y-113170933D01*
D12*
X94142779Y-94740000D02*
X93817221Y-94740000D01*
X94142779Y-95760000D02*
X93817221Y-95760000D01*
X94142779Y-93220000D02*
X93817221Y-93220000D01*
X94142779Y-92200000D02*
X93817221Y-92200000D01*
X89700000Y-98325000D02*
X87415000Y-98325000D01*
X87415000Y-98325000D02*
X87415000Y-99795000D01*
X87415000Y-99795000D02*
X89700000Y-99795000D01*
X87415000Y-95985000D02*
X89700000Y-95985000D01*
X87415000Y-94515000D02*
X87415000Y-95985000D01*
X89700000Y-94515000D02*
X87415000Y-94515000D01*
X89700000Y-90705000D02*
X87415000Y-90705000D01*
X87415000Y-90705000D02*
X87415000Y-92175000D01*
X87415000Y-92175000D02*
X89700000Y-92175000D01*
X87415000Y-88365000D02*
X89700000Y-88365000D01*
X87415000Y-86895000D02*
X87415000Y-88365000D01*
X89700000Y-86895000D02*
X87415000Y-86895000D01*
X89700000Y-83085000D02*
X87415000Y-83085000D01*
X87415000Y-83085000D02*
X87415000Y-84555000D01*
X87415000Y-84555000D02*
X89700000Y-84555000D01*
X87415000Y-80745000D02*
X89700000Y-80745000D01*
X87415000Y-79275000D02*
X87415000Y-80745000D01*
X89700000Y-79275000D02*
X87415000Y-79275000D01*
X89700000Y-75465000D02*
X87415000Y-75465000D01*
X87415000Y-75465000D02*
X87415000Y-76935000D01*
X87415000Y-76935000D02*
X89700000Y-76935000D01*
X83570000Y-95120000D02*
X84070000Y-95120000D01*
X83570000Y-92840000D02*
X84070000Y-92840000D01*
X83570000Y-78870000D02*
X84070000Y-78870000D01*
X83570000Y-81150000D02*
X84070000Y-81150000D01*
D10*
X98745000Y-84180000D02*
X94295000Y-84180000D01*
X100270000Y-91080000D02*
X94295000Y-91080000D01*
X93813333Y-97037142D02*
X93765714Y-97084761D01*
X93622857Y-97132380D01*
X93527619Y-97132380D01*
X93384761Y-97084761D01*
X93289523Y-96989523D01*
X93241904Y-96894285D01*
X93194285Y-96703809D01*
X93194285Y-96560952D01*
X93241904Y-96370476D01*
X93289523Y-96275238D01*
X93384761Y-96180000D01*
X93527619Y-96132380D01*
X93622857Y-96132380D01*
X93765714Y-96180000D01*
X93813333Y-96227619D01*
X94765714Y-97132380D02*
X94194285Y-97132380D01*
X94480000Y-97132380D02*
X94480000Y-96132380D01*
X94384761Y-96275238D01*
X94289523Y-96370476D01*
X94194285Y-96418095D01*
X93813333Y-94497142D02*
X93765714Y-94544761D01*
X93622857Y-94592380D01*
X93527619Y-94592380D01*
X93384761Y-94544761D01*
X93289523Y-94449523D01*
X93241904Y-94354285D01*
X93194285Y-94163809D01*
X93194285Y-94020952D01*
X93241904Y-93830476D01*
X93289523Y-93735238D01*
X93384761Y-93640000D01*
X93527619Y-93592380D01*
X93622857Y-93592380D01*
X93765714Y-93640000D01*
X93813333Y-93687619D01*
X94194285Y-93687619D02*
X94241904Y-93640000D01*
X94337142Y-93592380D01*
X94575238Y-93592380D01*
X94670476Y-93640000D01*
X94718095Y-93687619D01*
X94765714Y-93782857D01*
X94765714Y-93878095D01*
X94718095Y-94020952D01*
X94146666Y-94592380D01*
X94765714Y-94592380D01*
X88161904Y-98082380D02*
X88161904Y-97082380D01*
X88400000Y-97082380D01*
X88542857Y-97130000D01*
X88638095Y-97225238D01*
X88685714Y-97320476D01*
X88733333Y-97510952D01*
X88733333Y-97653809D01*
X88685714Y-97844285D01*
X88638095Y-97939523D01*
X88542857Y-98034761D01*
X88400000Y-98082380D01*
X88161904Y-98082380D01*
X89685714Y-98082380D02*
X89114285Y-98082380D01*
X89400000Y-98082380D02*
X89400000Y-97082380D01*
X89304761Y-97225238D01*
X89209523Y-97320476D01*
X89114285Y-97368095D01*
X88161904Y-94272380D02*
X88161904Y-93272380D01*
X88400000Y-93272380D01*
X88542857Y-93320000D01*
X88638095Y-93415238D01*
X88685714Y-93510476D01*
X88733333Y-93700952D01*
X88733333Y-93843809D01*
X88685714Y-94034285D01*
X88638095Y-94129523D01*
X88542857Y-94224761D01*
X88400000Y-94272380D01*
X88161904Y-94272380D01*
X89114285Y-93367619D02*
X89161904Y-93320000D01*
X89257142Y-93272380D01*
X89495238Y-93272380D01*
X89590476Y-93320000D01*
X89638095Y-93367619D01*
X89685714Y-93462857D01*
X89685714Y-93558095D01*
X89638095Y-93700952D01*
X89066666Y-94272380D01*
X89685714Y-94272380D01*
X88161904Y-90462380D02*
X88161904Y-89462380D01*
X88400000Y-89462380D01*
X88542857Y-89510000D01*
X88638095Y-89605238D01*
X88685714Y-89700476D01*
X88733333Y-89890952D01*
X88733333Y-90033809D01*
X88685714Y-90224285D01*
X88638095Y-90319523D01*
X88542857Y-90414761D01*
X88400000Y-90462380D01*
X88161904Y-90462380D01*
X89066666Y-89462380D02*
X89685714Y-89462380D01*
X89352380Y-89843333D01*
X89495238Y-89843333D01*
X89590476Y-89890952D01*
X89638095Y-89938571D01*
X89685714Y-90033809D01*
X89685714Y-90271904D01*
X89638095Y-90367142D01*
X89590476Y-90414761D01*
X89495238Y-90462380D01*
X89209523Y-90462380D01*
X89114285Y-90414761D01*
X89066666Y-90367142D01*
X88161904Y-86652380D02*
X88161904Y-85652380D01*
X88400000Y-85652380D01*
X88542857Y-85700000D01*
X88638095Y-85795238D01*
X88685714Y-85890476D01*
X88733333Y-86080952D01*
X88733333Y-86223809D01*
X88685714Y-86414285D01*
X88638095Y-86509523D01*
X88542857Y-86604761D01*
X88400000Y-86652380D01*
X88161904Y-86652380D01*
X89590476Y-85985714D02*
X89590476Y-86652380D01*
X89352380Y-85604761D02*
X89114285Y-86319047D01*
X89733333Y-86319047D01*
X88161904Y-82842380D02*
X88161904Y-81842380D01*
X88400000Y-81842380D01*
X88542857Y-81890000D01*
X88638095Y-81985238D01*
X88685714Y-82080476D01*
X88733333Y-82270952D01*
X88733333Y-82413809D01*
X88685714Y-82604285D01*
X88638095Y-82699523D01*
X88542857Y-82794761D01*
X88400000Y-82842380D01*
X88161904Y-82842380D01*
X89638095Y-81842380D02*
X89161904Y-81842380D01*
X89114285Y-82318571D01*
X89161904Y-82270952D01*
X89257142Y-82223333D01*
X89495238Y-82223333D01*
X89590476Y-82270952D01*
X89638095Y-82318571D01*
X89685714Y-82413809D01*
X89685714Y-82651904D01*
X89638095Y-82747142D01*
X89590476Y-82794761D01*
X89495238Y-82842380D01*
X89257142Y-82842380D01*
X89161904Y-82794761D01*
X89114285Y-82747142D01*
X88161904Y-79032380D02*
X88161904Y-78032380D01*
X88400000Y-78032380D01*
X88542857Y-78080000D01*
X88638095Y-78175238D01*
X88685714Y-78270476D01*
X88733333Y-78460952D01*
X88733333Y-78603809D01*
X88685714Y-78794285D01*
X88638095Y-78889523D01*
X88542857Y-78984761D01*
X88400000Y-79032380D01*
X88161904Y-79032380D01*
X89590476Y-78032380D02*
X89400000Y-78032380D01*
X89304761Y-78080000D01*
X89257142Y-78127619D01*
X89161904Y-78270476D01*
X89114285Y-78460952D01*
X89114285Y-78841904D01*
X89161904Y-78937142D01*
X89209523Y-78984761D01*
X89304761Y-79032380D01*
X89495238Y-79032380D01*
X89590476Y-78984761D01*
X89638095Y-78937142D01*
X89685714Y-78841904D01*
X89685714Y-78603809D01*
X89638095Y-78508571D01*
X89590476Y-78460952D01*
X89495238Y-78413333D01*
X89304761Y-78413333D01*
X89209523Y-78460952D01*
X89161904Y-78508571D01*
X89114285Y-78603809D01*
X88161904Y-75222380D02*
X88161904Y-74222380D01*
X88400000Y-74222380D01*
X88542857Y-74270000D01*
X88638095Y-74365238D01*
X88685714Y-74460476D01*
X88733333Y-74650952D01*
X88733333Y-74793809D01*
X88685714Y-74984285D01*
X88638095Y-75079523D01*
X88542857Y-75174761D01*
X88400000Y-75222380D01*
X88161904Y-75222380D01*
X89066666Y-74222380D02*
X89733333Y-74222380D01*
X89304761Y-75222380D01*
X83693095Y-65967380D02*
X83693095Y-64967380D01*
X83693095Y-65443571D02*
X84264523Y-65443571D01*
X84264523Y-65967380D02*
X84264523Y-64967380D01*
X85264523Y-65967380D02*
X84693095Y-65967380D01*
X84978809Y-65967380D02*
X84978809Y-64967380D01*
X84883571Y-65110238D01*
X84788333Y-65205476D01*
X84693095Y-65253095D01*
X107823095Y-65967380D02*
X107823095Y-64967380D01*
X107823095Y-65443571D02*
X108394523Y-65443571D01*
X108394523Y-65967380D02*
X108394523Y-64967380D01*
X108823095Y-65062619D02*
X108870714Y-65015000D01*
X108965952Y-64967380D01*
X109204047Y-64967380D01*
X109299285Y-65015000D01*
X109346904Y-65062619D01*
X109394523Y-65157857D01*
X109394523Y-65253095D01*
X109346904Y-65395952D01*
X108775476Y-65967380D01*
X109394523Y-65967380D01*
X83693095Y-107305880D02*
X83693095Y-106305880D01*
X83693095Y-106782071D02*
X84264523Y-106782071D01*
X84264523Y-107305880D02*
X84264523Y-106305880D01*
X84645476Y-106305880D02*
X85264523Y-106305880D01*
X84931190Y-106686833D01*
X85074047Y-106686833D01*
X85169285Y-106734452D01*
X85216904Y-106782071D01*
X85264523Y-106877309D01*
X85264523Y-107115404D01*
X85216904Y-107210642D01*
X85169285Y-107258261D01*
X85074047Y-107305880D01*
X84788333Y-107305880D01*
X84693095Y-107258261D01*
X84645476Y-107210642D01*
X107823095Y-107305880D02*
X107823095Y-106305880D01*
X107823095Y-106782071D02*
X108394523Y-106782071D01*
X108394523Y-107305880D02*
X108394523Y-106305880D01*
X109299285Y-106639214D02*
X109299285Y-107305880D01*
X109061190Y-106258261D02*
X108823095Y-106972547D01*
X109442142Y-106972547D01*
X83129523Y-96532380D02*
X82796190Y-96056190D01*
X82558095Y-96532380D02*
X82558095Y-95532380D01*
X82939047Y-95532380D01*
X83034285Y-95580000D01*
X83081904Y-95627619D01*
X83129523Y-95722857D01*
X83129523Y-95865714D01*
X83081904Y-95960952D01*
X83034285Y-96008571D01*
X82939047Y-96056190D01*
X82558095Y-96056190D01*
X83558095Y-96532380D02*
X83558095Y-95532380D01*
X84129523Y-96532380D01*
X84129523Y-95532380D01*
X85129523Y-96532380D02*
X84558095Y-96532380D01*
X84843809Y-96532380D02*
X84843809Y-95532380D01*
X84748571Y-95675238D01*
X84653333Y-95770476D01*
X84558095Y-95818095D01*
X83129523Y-82562380D02*
X82796190Y-82086190D01*
X82558095Y-82562380D02*
X82558095Y-81562380D01*
X82939047Y-81562380D01*
X83034285Y-81610000D01*
X83081904Y-81657619D01*
X83129523Y-81752857D01*
X83129523Y-81895714D01*
X83081904Y-81990952D01*
X83034285Y-82038571D01*
X82939047Y-82086190D01*
X82558095Y-82086190D01*
X83558095Y-82562380D02*
X83558095Y-81562380D01*
X84129523Y-82562380D01*
X84129523Y-81562380D01*
X84558095Y-81657619D02*
X84605714Y-81610000D01*
X84700952Y-81562380D01*
X84939047Y-81562380D01*
X85034285Y-81610000D01*
X85081904Y-81657619D01*
X85129523Y-81752857D01*
X85129523Y-81848095D01*
X85081904Y-81990952D01*
X84510476Y-82562380D01*
X85129523Y-82562380D01*
X95758095Y-91382380D02*
X95758095Y-92191904D01*
X95805714Y-92287142D01*
X95853333Y-92334761D01*
X95948571Y-92382380D01*
X96139047Y-92382380D01*
X96234285Y-92334761D01*
X96281904Y-92287142D01*
X96329523Y-92191904D01*
X96329523Y-91382380D01*
X97329523Y-92382380D02*
X96758095Y-92382380D01*
X97043809Y-92382380D02*
X97043809Y-91382380D01*
X96948571Y-91525238D01*
X96853333Y-91620476D01*
X96758095Y-91668095D01*
M02*
