M48
; DRILL file {KiCad (5.1.2)-1} date 2020-09-11 17:35:25
; FORMAT={-:-/ absolute / metric / decimal}
; #@! TF.CreationDate,2020-09-11T17:35:25+02:00
; #@! TF.GenerationSoftware,Kicad,Pcbnew,(5.1.2)-1
; #@! TF.FileFunction,Plated,1,2,PTH
FMAT,2
METRIC
T1C1.016
T2C2.700
%
G90
G05
T1
X105.41Y-81.28
X105.41Y-83.82
X105.41Y-86.36
X105.41Y-88.9
X105.41Y-91.44
X105.41Y-93.98
X105.41Y-96.52
X105.41Y-99.06
X107.95Y-81.28
X107.95Y-83.82
X107.95Y-86.36
X107.95Y-88.9
X107.95Y-91.44
X107.95Y-93.98
X107.95Y-96.52
X107.95Y-99.06
T2
X84.455Y-110.553
X108.585Y-69.215
X108.585Y-110.553
X84.455Y-69.215
T0
M30
