G04 #@! TF.GenerationSoftware,KiCad,Pcbnew,(5.1.2)-1*
G04 #@! TF.CreationDate,2020-09-11T17:35:28+02:00*
G04 #@! TF.ProjectId,LEDadapter,4c454461-6461-4707-9465-722e6b696361,1.0*
G04 #@! TF.SameCoordinates,Original*
G04 #@! TF.FileFunction,Other,Fab,Bot*
%FSLAX46Y46*%
G04 Gerber Fmt 4.6, Leading zero omitted, Abs format (unit mm)*
G04 Created by KiCad (PCBNEW (5.1.2)-1) date 2020-09-11 17:35:28*
%MOMM*%
%LPD*%
G04 APERTURE LIST*
%ADD10C,0.100000*%
%ADD11C,0.150000*%
G04 APERTURE END LIST*
D10*
X111105000Y-104160000D02*
X111105000Y-76180000D01*
X110555000Y-103620000D02*
X110555000Y-76740000D01*
X102255000Y-104160000D02*
X102255000Y-76180000D01*
X102805000Y-103620000D02*
X102805000Y-92420000D01*
X102805000Y-87920000D02*
X102805000Y-76740000D01*
X102805000Y-92420000D02*
X102255000Y-92420000D01*
X102805000Y-87920000D02*
X102255000Y-87920000D01*
X111105000Y-104160000D02*
X102255000Y-104160000D01*
X110555000Y-103620000D02*
X102805000Y-103620000D01*
X111105000Y-76180000D02*
X102255000Y-76180000D01*
X110555000Y-76740000D02*
X102805000Y-76740000D01*
X111105000Y-104160000D02*
X110555000Y-103620000D01*
X111105000Y-76180000D02*
X110555000Y-76740000D01*
X102255000Y-104160000D02*
X102805000Y-103620000D01*
X102255000Y-76180000D02*
X102805000Y-76740000D01*
D11*
X107322857Y-75128380D02*
X107799047Y-75128380D01*
X107799047Y-74128380D01*
X106989523Y-74604571D02*
X106656190Y-74604571D01*
X106513333Y-75128380D02*
X106989523Y-75128380D01*
X106989523Y-74128380D01*
X106513333Y-74128380D01*
X106084761Y-75128380D02*
X106084761Y-74128380D01*
X105846666Y-74128380D01*
X105703809Y-74176000D01*
X105608571Y-74271238D01*
X105560952Y-74366476D01*
X105513333Y-74556952D01*
X105513333Y-74699809D01*
X105560952Y-74890285D01*
X105608571Y-74985523D01*
X105703809Y-75080761D01*
X105846666Y-75128380D01*
X106084761Y-75128380D01*
X107013333Y-89622380D02*
X107013333Y-90336666D01*
X107060952Y-90479523D01*
X107156190Y-90574761D01*
X107299047Y-90622380D01*
X107394285Y-90622380D01*
X106013333Y-90622380D02*
X106584761Y-90622380D01*
X106299047Y-90622380D02*
X106299047Y-89622380D01*
X106394285Y-89765238D01*
X106489523Y-89860476D01*
X106584761Y-89908095D01*
M02*
