G04 #@! TF.GenerationSoftware,KiCad,Pcbnew,(5.1.2)-1*
G04 #@! TF.CreationDate,2020-09-11T17:35:28+02:00*
G04 #@! TF.ProjectId,LEDadapter,4c454461-6461-4707-9465-722e6b696361,1.0*
G04 #@! TF.SameCoordinates,Original*
G04 #@! TF.FileFunction,Soldermask,Bot*
G04 #@! TF.FilePolarity,Negative*
%FSLAX46Y46*%
G04 Gerber Fmt 4.6, Leading zero omitted, Abs format (unit mm)*
G04 Created by KiCad (PCBNEW (5.1.2)-1) date 2020-09-11 17:35:28*
%MOMM*%
%LPD*%
G04 APERTURE LIST*
%ADD10C,0.100000*%
G04 APERTURE END LIST*
D10*
G36*
X109121694Y-107855360D02*
G01*
X109387437Y-107908219D01*
X109888087Y-108115595D01*
X110068561Y-108236184D01*
X110338660Y-108416658D01*
X110721842Y-108799840D01*
X110902316Y-109069939D01*
X111022905Y-109250413D01*
X111230281Y-109751063D01*
X111336000Y-110282550D01*
X111336000Y-110824450D01*
X111230281Y-111355937D01*
X111022905Y-111856587D01*
X110902316Y-112037061D01*
X110721842Y-112307160D01*
X110338660Y-112690342D01*
X110068561Y-112870816D01*
X109888087Y-112991405D01*
X109387437Y-113198781D01*
X109121694Y-113251640D01*
X108855951Y-113304500D01*
X108314049Y-113304500D01*
X108048306Y-113251640D01*
X107782563Y-113198781D01*
X107281913Y-112991405D01*
X107101439Y-112870816D01*
X106831340Y-112690342D01*
X106448158Y-112307160D01*
X106267684Y-112037061D01*
X106147095Y-111856587D01*
X105939719Y-111355937D01*
X105834000Y-110824450D01*
X105834000Y-110282550D01*
X105939719Y-109751063D01*
X106147095Y-109250413D01*
X106267684Y-109069939D01*
X106448158Y-108799840D01*
X106831340Y-108416658D01*
X107101439Y-108236184D01*
X107281913Y-108115595D01*
X107782563Y-107908219D01*
X108048306Y-107855360D01*
X108314049Y-107802500D01*
X108855951Y-107802500D01*
X109121694Y-107855360D01*
X109121694Y-107855360D01*
G37*
G36*
X84991694Y-107855360D02*
G01*
X85257437Y-107908219D01*
X85758087Y-108115595D01*
X85938561Y-108236184D01*
X86208660Y-108416658D01*
X86591842Y-108799840D01*
X86772316Y-109069939D01*
X86892905Y-109250413D01*
X87100281Y-109751063D01*
X87206000Y-110282550D01*
X87206000Y-110824450D01*
X87100281Y-111355937D01*
X86892905Y-111856587D01*
X86772316Y-112037061D01*
X86591842Y-112307160D01*
X86208660Y-112690342D01*
X85938561Y-112870816D01*
X85758087Y-112991405D01*
X85257437Y-113198781D01*
X84991694Y-113251640D01*
X84725951Y-113304500D01*
X84184049Y-113304500D01*
X83918306Y-113251640D01*
X83652563Y-113198781D01*
X83151913Y-112991405D01*
X82971439Y-112870816D01*
X82701340Y-112690342D01*
X82318158Y-112307160D01*
X82137684Y-112037061D01*
X82017095Y-111856587D01*
X81809719Y-111355937D01*
X81704000Y-110824450D01*
X81704000Y-110282550D01*
X81809719Y-109751063D01*
X82017095Y-109250413D01*
X82137684Y-109069939D01*
X82318158Y-108799840D01*
X82701340Y-108416658D01*
X82971439Y-108236184D01*
X83151913Y-108115595D01*
X83652563Y-107908219D01*
X83918306Y-107855360D01*
X84184049Y-107802500D01*
X84725951Y-107802500D01*
X84991694Y-107855360D01*
X84991694Y-107855360D01*
G37*
G36*
X108129294Y-98158633D02*
G01*
X108301695Y-98210931D01*
X108460583Y-98295858D01*
X108599849Y-98410151D01*
X108714142Y-98549417D01*
X108799069Y-98708305D01*
X108851367Y-98880706D01*
X108869025Y-99060000D01*
X108851367Y-99239294D01*
X108799069Y-99411695D01*
X108714142Y-99570583D01*
X108599849Y-99709849D01*
X108460583Y-99824142D01*
X108301695Y-99909069D01*
X108129294Y-99961367D01*
X107994931Y-99974600D01*
X107905069Y-99974600D01*
X107770706Y-99961367D01*
X107598305Y-99909069D01*
X107439417Y-99824142D01*
X107300151Y-99709849D01*
X107185858Y-99570583D01*
X107100931Y-99411695D01*
X107048633Y-99239294D01*
X107030975Y-99060000D01*
X107048633Y-98880706D01*
X107100931Y-98708305D01*
X107185858Y-98549417D01*
X107300151Y-98410151D01*
X107439417Y-98295858D01*
X107598305Y-98210931D01*
X107770706Y-98158633D01*
X107905069Y-98145400D01*
X107994931Y-98145400D01*
X108129294Y-98158633D01*
X108129294Y-98158633D01*
G37*
G36*
X106324600Y-99974600D02*
G01*
X104495400Y-99974600D01*
X104495400Y-98145400D01*
X106324600Y-98145400D01*
X106324600Y-99974600D01*
X106324600Y-99974600D01*
G37*
G36*
X105589294Y-95618633D02*
G01*
X105761695Y-95670931D01*
X105920583Y-95755858D01*
X106059849Y-95870151D01*
X106174142Y-96009417D01*
X106259069Y-96168305D01*
X106311367Y-96340706D01*
X106329025Y-96520000D01*
X106311367Y-96699294D01*
X106259069Y-96871695D01*
X106174142Y-97030583D01*
X106059849Y-97169849D01*
X105920583Y-97284142D01*
X105761695Y-97369069D01*
X105589294Y-97421367D01*
X105454931Y-97434600D01*
X105365069Y-97434600D01*
X105230706Y-97421367D01*
X105058305Y-97369069D01*
X104899417Y-97284142D01*
X104760151Y-97169849D01*
X104645858Y-97030583D01*
X104560931Y-96871695D01*
X104508633Y-96699294D01*
X104490975Y-96520000D01*
X104508633Y-96340706D01*
X104560931Y-96168305D01*
X104645858Y-96009417D01*
X104760151Y-95870151D01*
X104899417Y-95755858D01*
X105058305Y-95670931D01*
X105230706Y-95618633D01*
X105365069Y-95605400D01*
X105454931Y-95605400D01*
X105589294Y-95618633D01*
X105589294Y-95618633D01*
G37*
G36*
X108129294Y-95618633D02*
G01*
X108301695Y-95670931D01*
X108460583Y-95755858D01*
X108599849Y-95870151D01*
X108714142Y-96009417D01*
X108799069Y-96168305D01*
X108851367Y-96340706D01*
X108869025Y-96520000D01*
X108851367Y-96699294D01*
X108799069Y-96871695D01*
X108714142Y-97030583D01*
X108599849Y-97169849D01*
X108460583Y-97284142D01*
X108301695Y-97369069D01*
X108129294Y-97421367D01*
X107994931Y-97434600D01*
X107905069Y-97434600D01*
X107770706Y-97421367D01*
X107598305Y-97369069D01*
X107439417Y-97284142D01*
X107300151Y-97169849D01*
X107185858Y-97030583D01*
X107100931Y-96871695D01*
X107048633Y-96699294D01*
X107030975Y-96520000D01*
X107048633Y-96340706D01*
X107100931Y-96168305D01*
X107185858Y-96009417D01*
X107300151Y-95870151D01*
X107439417Y-95755858D01*
X107598305Y-95670931D01*
X107770706Y-95618633D01*
X107905069Y-95605400D01*
X107994931Y-95605400D01*
X108129294Y-95618633D01*
X108129294Y-95618633D01*
G37*
G36*
X108129294Y-93078633D02*
G01*
X108301695Y-93130931D01*
X108460583Y-93215858D01*
X108599849Y-93330151D01*
X108714142Y-93469417D01*
X108799069Y-93628305D01*
X108851367Y-93800706D01*
X108869025Y-93980000D01*
X108851367Y-94159294D01*
X108799069Y-94331695D01*
X108714142Y-94490583D01*
X108599849Y-94629849D01*
X108460583Y-94744142D01*
X108301695Y-94829069D01*
X108129294Y-94881367D01*
X107994931Y-94894600D01*
X107905069Y-94894600D01*
X107770706Y-94881367D01*
X107598305Y-94829069D01*
X107439417Y-94744142D01*
X107300151Y-94629849D01*
X107185858Y-94490583D01*
X107100931Y-94331695D01*
X107048633Y-94159294D01*
X107030975Y-93980000D01*
X107048633Y-93800706D01*
X107100931Y-93628305D01*
X107185858Y-93469417D01*
X107300151Y-93330151D01*
X107439417Y-93215858D01*
X107598305Y-93130931D01*
X107770706Y-93078633D01*
X107905069Y-93065400D01*
X107994931Y-93065400D01*
X108129294Y-93078633D01*
X108129294Y-93078633D01*
G37*
G36*
X105589294Y-93078633D02*
G01*
X105761695Y-93130931D01*
X105920583Y-93215858D01*
X106059849Y-93330151D01*
X106174142Y-93469417D01*
X106259069Y-93628305D01*
X106311367Y-93800706D01*
X106329025Y-93980000D01*
X106311367Y-94159294D01*
X106259069Y-94331695D01*
X106174142Y-94490583D01*
X106059849Y-94629849D01*
X105920583Y-94744142D01*
X105761695Y-94829069D01*
X105589294Y-94881367D01*
X105454931Y-94894600D01*
X105365069Y-94894600D01*
X105230706Y-94881367D01*
X105058305Y-94829069D01*
X104899417Y-94744142D01*
X104760151Y-94629849D01*
X104645858Y-94490583D01*
X104560931Y-94331695D01*
X104508633Y-94159294D01*
X104490975Y-93980000D01*
X104508633Y-93800706D01*
X104560931Y-93628305D01*
X104645858Y-93469417D01*
X104760151Y-93330151D01*
X104899417Y-93215858D01*
X105058305Y-93130931D01*
X105230706Y-93078633D01*
X105365069Y-93065400D01*
X105454931Y-93065400D01*
X105589294Y-93078633D01*
X105589294Y-93078633D01*
G37*
G36*
X105589294Y-90538633D02*
G01*
X105761695Y-90590931D01*
X105920583Y-90675858D01*
X106059849Y-90790151D01*
X106174142Y-90929417D01*
X106259069Y-91088305D01*
X106311367Y-91260706D01*
X106329025Y-91440000D01*
X106311367Y-91619294D01*
X106259069Y-91791695D01*
X106174142Y-91950583D01*
X106059849Y-92089849D01*
X105920583Y-92204142D01*
X105761695Y-92289069D01*
X105589294Y-92341367D01*
X105454931Y-92354600D01*
X105365069Y-92354600D01*
X105230706Y-92341367D01*
X105058305Y-92289069D01*
X104899417Y-92204142D01*
X104760151Y-92089849D01*
X104645858Y-91950583D01*
X104560931Y-91791695D01*
X104508633Y-91619294D01*
X104490975Y-91440000D01*
X104508633Y-91260706D01*
X104560931Y-91088305D01*
X104645858Y-90929417D01*
X104760151Y-90790151D01*
X104899417Y-90675858D01*
X105058305Y-90590931D01*
X105230706Y-90538633D01*
X105365069Y-90525400D01*
X105454931Y-90525400D01*
X105589294Y-90538633D01*
X105589294Y-90538633D01*
G37*
G36*
X108129294Y-90538633D02*
G01*
X108301695Y-90590931D01*
X108460583Y-90675858D01*
X108599849Y-90790151D01*
X108714142Y-90929417D01*
X108799069Y-91088305D01*
X108851367Y-91260706D01*
X108869025Y-91440000D01*
X108851367Y-91619294D01*
X108799069Y-91791695D01*
X108714142Y-91950583D01*
X108599849Y-92089849D01*
X108460583Y-92204142D01*
X108301695Y-92289069D01*
X108129294Y-92341367D01*
X107994931Y-92354600D01*
X107905069Y-92354600D01*
X107770706Y-92341367D01*
X107598305Y-92289069D01*
X107439417Y-92204142D01*
X107300151Y-92089849D01*
X107185858Y-91950583D01*
X107100931Y-91791695D01*
X107048633Y-91619294D01*
X107030975Y-91440000D01*
X107048633Y-91260706D01*
X107100931Y-91088305D01*
X107185858Y-90929417D01*
X107300151Y-90790151D01*
X107439417Y-90675858D01*
X107598305Y-90590931D01*
X107770706Y-90538633D01*
X107905069Y-90525400D01*
X107994931Y-90525400D01*
X108129294Y-90538633D01*
X108129294Y-90538633D01*
G37*
G36*
X105589294Y-87998633D02*
G01*
X105761695Y-88050931D01*
X105920583Y-88135858D01*
X106059849Y-88250151D01*
X106174142Y-88389417D01*
X106259069Y-88548305D01*
X106311367Y-88720706D01*
X106329025Y-88900000D01*
X106311367Y-89079294D01*
X106259069Y-89251695D01*
X106174142Y-89410583D01*
X106059849Y-89549849D01*
X105920583Y-89664142D01*
X105761695Y-89749069D01*
X105589294Y-89801367D01*
X105454931Y-89814600D01*
X105365069Y-89814600D01*
X105230706Y-89801367D01*
X105058305Y-89749069D01*
X104899417Y-89664142D01*
X104760151Y-89549849D01*
X104645858Y-89410583D01*
X104560931Y-89251695D01*
X104508633Y-89079294D01*
X104490975Y-88900000D01*
X104508633Y-88720706D01*
X104560931Y-88548305D01*
X104645858Y-88389417D01*
X104760151Y-88250151D01*
X104899417Y-88135858D01*
X105058305Y-88050931D01*
X105230706Y-87998633D01*
X105365069Y-87985400D01*
X105454931Y-87985400D01*
X105589294Y-87998633D01*
X105589294Y-87998633D01*
G37*
G36*
X108129294Y-87998633D02*
G01*
X108301695Y-88050931D01*
X108460583Y-88135858D01*
X108599849Y-88250151D01*
X108714142Y-88389417D01*
X108799069Y-88548305D01*
X108851367Y-88720706D01*
X108869025Y-88900000D01*
X108851367Y-89079294D01*
X108799069Y-89251695D01*
X108714142Y-89410583D01*
X108599849Y-89549849D01*
X108460583Y-89664142D01*
X108301695Y-89749069D01*
X108129294Y-89801367D01*
X107994931Y-89814600D01*
X107905069Y-89814600D01*
X107770706Y-89801367D01*
X107598305Y-89749069D01*
X107439417Y-89664142D01*
X107300151Y-89549849D01*
X107185858Y-89410583D01*
X107100931Y-89251695D01*
X107048633Y-89079294D01*
X107030975Y-88900000D01*
X107048633Y-88720706D01*
X107100931Y-88548305D01*
X107185858Y-88389417D01*
X107300151Y-88250151D01*
X107439417Y-88135858D01*
X107598305Y-88050931D01*
X107770706Y-87998633D01*
X107905069Y-87985400D01*
X107994931Y-87985400D01*
X108129294Y-87998633D01*
X108129294Y-87998633D01*
G37*
G36*
X105589294Y-85458633D02*
G01*
X105761695Y-85510931D01*
X105920583Y-85595858D01*
X106059849Y-85710151D01*
X106174142Y-85849417D01*
X106259069Y-86008305D01*
X106311367Y-86180706D01*
X106329025Y-86360000D01*
X106311367Y-86539294D01*
X106259069Y-86711695D01*
X106174142Y-86870583D01*
X106059849Y-87009849D01*
X105920583Y-87124142D01*
X105761695Y-87209069D01*
X105589294Y-87261367D01*
X105454931Y-87274600D01*
X105365069Y-87274600D01*
X105230706Y-87261367D01*
X105058305Y-87209069D01*
X104899417Y-87124142D01*
X104760151Y-87009849D01*
X104645858Y-86870583D01*
X104560931Y-86711695D01*
X104508633Y-86539294D01*
X104490975Y-86360000D01*
X104508633Y-86180706D01*
X104560931Y-86008305D01*
X104645858Y-85849417D01*
X104760151Y-85710151D01*
X104899417Y-85595858D01*
X105058305Y-85510931D01*
X105230706Y-85458633D01*
X105365069Y-85445400D01*
X105454931Y-85445400D01*
X105589294Y-85458633D01*
X105589294Y-85458633D01*
G37*
G36*
X108129294Y-85458633D02*
G01*
X108301695Y-85510931D01*
X108460583Y-85595858D01*
X108599849Y-85710151D01*
X108714142Y-85849417D01*
X108799069Y-86008305D01*
X108851367Y-86180706D01*
X108869025Y-86360000D01*
X108851367Y-86539294D01*
X108799069Y-86711695D01*
X108714142Y-86870583D01*
X108599849Y-87009849D01*
X108460583Y-87124142D01*
X108301695Y-87209069D01*
X108129294Y-87261367D01*
X107994931Y-87274600D01*
X107905069Y-87274600D01*
X107770706Y-87261367D01*
X107598305Y-87209069D01*
X107439417Y-87124142D01*
X107300151Y-87009849D01*
X107185858Y-86870583D01*
X107100931Y-86711695D01*
X107048633Y-86539294D01*
X107030975Y-86360000D01*
X107048633Y-86180706D01*
X107100931Y-86008305D01*
X107185858Y-85849417D01*
X107300151Y-85710151D01*
X107439417Y-85595858D01*
X107598305Y-85510931D01*
X107770706Y-85458633D01*
X107905069Y-85445400D01*
X107994931Y-85445400D01*
X108129294Y-85458633D01*
X108129294Y-85458633D01*
G37*
G36*
X105589294Y-82918633D02*
G01*
X105761695Y-82970931D01*
X105920583Y-83055858D01*
X106059849Y-83170151D01*
X106174142Y-83309417D01*
X106259069Y-83468305D01*
X106311367Y-83640706D01*
X106329025Y-83820000D01*
X106311367Y-83999294D01*
X106259069Y-84171695D01*
X106174142Y-84330583D01*
X106059849Y-84469849D01*
X105920583Y-84584142D01*
X105761695Y-84669069D01*
X105589294Y-84721367D01*
X105454931Y-84734600D01*
X105365069Y-84734600D01*
X105230706Y-84721367D01*
X105058305Y-84669069D01*
X104899417Y-84584142D01*
X104760151Y-84469849D01*
X104645858Y-84330583D01*
X104560931Y-84171695D01*
X104508633Y-83999294D01*
X104490975Y-83820000D01*
X104508633Y-83640706D01*
X104560931Y-83468305D01*
X104645858Y-83309417D01*
X104760151Y-83170151D01*
X104899417Y-83055858D01*
X105058305Y-82970931D01*
X105230706Y-82918633D01*
X105365069Y-82905400D01*
X105454931Y-82905400D01*
X105589294Y-82918633D01*
X105589294Y-82918633D01*
G37*
G36*
X108129294Y-82918633D02*
G01*
X108301695Y-82970931D01*
X108460583Y-83055858D01*
X108599849Y-83170151D01*
X108714142Y-83309417D01*
X108799069Y-83468305D01*
X108851367Y-83640706D01*
X108869025Y-83820000D01*
X108851367Y-83999294D01*
X108799069Y-84171695D01*
X108714142Y-84330583D01*
X108599849Y-84469849D01*
X108460583Y-84584142D01*
X108301695Y-84669069D01*
X108129294Y-84721367D01*
X107994931Y-84734600D01*
X107905069Y-84734600D01*
X107770706Y-84721367D01*
X107598305Y-84669069D01*
X107439417Y-84584142D01*
X107300151Y-84469849D01*
X107185858Y-84330583D01*
X107100931Y-84171695D01*
X107048633Y-83999294D01*
X107030975Y-83820000D01*
X107048633Y-83640706D01*
X107100931Y-83468305D01*
X107185858Y-83309417D01*
X107300151Y-83170151D01*
X107439417Y-83055858D01*
X107598305Y-82970931D01*
X107770706Y-82918633D01*
X107905069Y-82905400D01*
X107994931Y-82905400D01*
X108129294Y-82918633D01*
X108129294Y-82918633D01*
G37*
G36*
X105589294Y-80378633D02*
G01*
X105761695Y-80430931D01*
X105920583Y-80515858D01*
X106059849Y-80630151D01*
X106174142Y-80769417D01*
X106259069Y-80928305D01*
X106311367Y-81100706D01*
X106329025Y-81280000D01*
X106311367Y-81459294D01*
X106259069Y-81631695D01*
X106174142Y-81790583D01*
X106059849Y-81929849D01*
X105920583Y-82044142D01*
X105761695Y-82129069D01*
X105589294Y-82181367D01*
X105454931Y-82194600D01*
X105365069Y-82194600D01*
X105230706Y-82181367D01*
X105058305Y-82129069D01*
X104899417Y-82044142D01*
X104760151Y-81929849D01*
X104645858Y-81790583D01*
X104560931Y-81631695D01*
X104508633Y-81459294D01*
X104490975Y-81280000D01*
X104508633Y-81100706D01*
X104560931Y-80928305D01*
X104645858Y-80769417D01*
X104760151Y-80630151D01*
X104899417Y-80515858D01*
X105058305Y-80430931D01*
X105230706Y-80378633D01*
X105365069Y-80365400D01*
X105454931Y-80365400D01*
X105589294Y-80378633D01*
X105589294Y-80378633D01*
G37*
G36*
X108129294Y-80378633D02*
G01*
X108301695Y-80430931D01*
X108460583Y-80515858D01*
X108599849Y-80630151D01*
X108714142Y-80769417D01*
X108799069Y-80928305D01*
X108851367Y-81100706D01*
X108869025Y-81280000D01*
X108851367Y-81459294D01*
X108799069Y-81631695D01*
X108714142Y-81790583D01*
X108599849Y-81929849D01*
X108460583Y-82044142D01*
X108301695Y-82129069D01*
X108129294Y-82181367D01*
X107994931Y-82194600D01*
X107905069Y-82194600D01*
X107770706Y-82181367D01*
X107598305Y-82129069D01*
X107439417Y-82044142D01*
X107300151Y-81929849D01*
X107185858Y-81790583D01*
X107100931Y-81631695D01*
X107048633Y-81459294D01*
X107030975Y-81280000D01*
X107048633Y-81100706D01*
X107100931Y-80928305D01*
X107185858Y-80769417D01*
X107300151Y-80630151D01*
X107439417Y-80515858D01*
X107598305Y-80430931D01*
X107770706Y-80378633D01*
X107905069Y-80365400D01*
X107994931Y-80365400D01*
X108129294Y-80378633D01*
X108129294Y-80378633D01*
G37*
G36*
X109121693Y-66516859D02*
G01*
X109387437Y-66569719D01*
X109888087Y-66777095D01*
X110068561Y-66897684D01*
X110338660Y-67078158D01*
X110721842Y-67461340D01*
X110902316Y-67731439D01*
X111022905Y-67911913D01*
X111230281Y-68412563D01*
X111336000Y-68944050D01*
X111336000Y-69485950D01*
X111230281Y-70017437D01*
X111022905Y-70518087D01*
X110902316Y-70698561D01*
X110721842Y-70968660D01*
X110338660Y-71351842D01*
X110068561Y-71532316D01*
X109888087Y-71652905D01*
X109387437Y-71860281D01*
X109121693Y-71913141D01*
X108855951Y-71966000D01*
X108314049Y-71966000D01*
X108048307Y-71913141D01*
X107782563Y-71860281D01*
X107281913Y-71652905D01*
X107101439Y-71532316D01*
X106831340Y-71351842D01*
X106448158Y-70968660D01*
X106267684Y-70698561D01*
X106147095Y-70518087D01*
X105939719Y-70017437D01*
X105834000Y-69485950D01*
X105834000Y-68944050D01*
X105939719Y-68412563D01*
X106147095Y-67911913D01*
X106267684Y-67731439D01*
X106448158Y-67461340D01*
X106831340Y-67078158D01*
X107101439Y-66897684D01*
X107281913Y-66777095D01*
X107782563Y-66569719D01*
X108048307Y-66516859D01*
X108314049Y-66464000D01*
X108855951Y-66464000D01*
X109121693Y-66516859D01*
X109121693Y-66516859D01*
G37*
G36*
X84991693Y-66516859D02*
G01*
X85257437Y-66569719D01*
X85758087Y-66777095D01*
X85938561Y-66897684D01*
X86208660Y-67078158D01*
X86591842Y-67461340D01*
X86772316Y-67731439D01*
X86892905Y-67911913D01*
X87100281Y-68412563D01*
X87206000Y-68944050D01*
X87206000Y-69485950D01*
X87100281Y-70017437D01*
X86892905Y-70518087D01*
X86772316Y-70698561D01*
X86591842Y-70968660D01*
X86208660Y-71351842D01*
X85938561Y-71532316D01*
X85758087Y-71652905D01*
X85257437Y-71860281D01*
X84991693Y-71913141D01*
X84725951Y-71966000D01*
X84184049Y-71966000D01*
X83918307Y-71913141D01*
X83652563Y-71860281D01*
X83151913Y-71652905D01*
X82971439Y-71532316D01*
X82701340Y-71351842D01*
X82318158Y-70968660D01*
X82137684Y-70698561D01*
X82017095Y-70518087D01*
X81809719Y-70017437D01*
X81704000Y-69485950D01*
X81704000Y-68944050D01*
X81809719Y-68412563D01*
X82017095Y-67911913D01*
X82137684Y-67731439D01*
X82318158Y-67461340D01*
X82701340Y-67078158D01*
X82971439Y-66897684D01*
X83151913Y-66777095D01*
X83652563Y-66569719D01*
X83918307Y-66516859D01*
X84184049Y-66464000D01*
X84725951Y-66464000D01*
X84991693Y-66516859D01*
X84991693Y-66516859D01*
G37*
M02*
