G04 #@! TF.GenerationSoftware,KiCad,Pcbnew,(5.1.2)-1*
G04 #@! TF.CreationDate,2020-09-11T17:35:28+02:00*
G04 #@! TF.ProjectId,LEDadapter,4c454461-6461-4707-9465-722e6b696361,1.0*
G04 #@! TF.SameCoordinates,Original*
G04 #@! TF.FileFunction,Copper,L1,Top*
G04 #@! TF.FilePolarity,Positive*
%FSLAX46Y46*%
G04 Gerber Fmt 4.6, Leading zero omitted, Abs format (unit mm)*
G04 Created by KiCad (PCBNEW (5.1.2)-1) date 2020-09-11 17:35:28*
%MOMM*%
%LPD*%
G04 APERTURE LIST*
%ADD10C,0.100000*%
%ADD11C,0.875000*%
%ADD12C,5.400000*%
%ADD13R,1.727200X1.727200*%
%ADD14O,1.727200X1.727200*%
%ADD15R,0.500000X0.320000*%
%ADD16R,1.450000X0.450000*%
%ADD17C,0.250000*%
%ADD18C,0.254000*%
G04 APERTURE END LIST*
D10*
G36*
X93432691Y-94776053D02*
G01*
X93453926Y-94779203D01*
X93474750Y-94784419D01*
X93494962Y-94791651D01*
X93514368Y-94800830D01*
X93532781Y-94811866D01*
X93550024Y-94824654D01*
X93565930Y-94839070D01*
X93580346Y-94854976D01*
X93593134Y-94872219D01*
X93604170Y-94890632D01*
X93613349Y-94910038D01*
X93620581Y-94930250D01*
X93625797Y-94951074D01*
X93628947Y-94972309D01*
X93630000Y-94993750D01*
X93630000Y-95506250D01*
X93628947Y-95527691D01*
X93625797Y-95548926D01*
X93620581Y-95569750D01*
X93613349Y-95589962D01*
X93604170Y-95609368D01*
X93593134Y-95627781D01*
X93580346Y-95645024D01*
X93565930Y-95660930D01*
X93550024Y-95675346D01*
X93532781Y-95688134D01*
X93514368Y-95699170D01*
X93494962Y-95708349D01*
X93474750Y-95715581D01*
X93453926Y-95720797D01*
X93432691Y-95723947D01*
X93411250Y-95725000D01*
X92973750Y-95725000D01*
X92952309Y-95723947D01*
X92931074Y-95720797D01*
X92910250Y-95715581D01*
X92890038Y-95708349D01*
X92870632Y-95699170D01*
X92852219Y-95688134D01*
X92834976Y-95675346D01*
X92819070Y-95660930D01*
X92804654Y-95645024D01*
X92791866Y-95627781D01*
X92780830Y-95609368D01*
X92771651Y-95589962D01*
X92764419Y-95569750D01*
X92759203Y-95548926D01*
X92756053Y-95527691D01*
X92755000Y-95506250D01*
X92755000Y-94993750D01*
X92756053Y-94972309D01*
X92759203Y-94951074D01*
X92764419Y-94930250D01*
X92771651Y-94910038D01*
X92780830Y-94890632D01*
X92791866Y-94872219D01*
X92804654Y-94854976D01*
X92819070Y-94839070D01*
X92834976Y-94824654D01*
X92852219Y-94811866D01*
X92870632Y-94800830D01*
X92890038Y-94791651D01*
X92910250Y-94784419D01*
X92931074Y-94779203D01*
X92952309Y-94776053D01*
X92973750Y-94775000D01*
X93411250Y-94775000D01*
X93432691Y-94776053D01*
X93432691Y-94776053D01*
G37*
D11*
X93192500Y-95250000D03*
D10*
G36*
X95007691Y-94776053D02*
G01*
X95028926Y-94779203D01*
X95049750Y-94784419D01*
X95069962Y-94791651D01*
X95089368Y-94800830D01*
X95107781Y-94811866D01*
X95125024Y-94824654D01*
X95140930Y-94839070D01*
X95155346Y-94854976D01*
X95168134Y-94872219D01*
X95179170Y-94890632D01*
X95188349Y-94910038D01*
X95195581Y-94930250D01*
X95200797Y-94951074D01*
X95203947Y-94972309D01*
X95205000Y-94993750D01*
X95205000Y-95506250D01*
X95203947Y-95527691D01*
X95200797Y-95548926D01*
X95195581Y-95569750D01*
X95188349Y-95589962D01*
X95179170Y-95609368D01*
X95168134Y-95627781D01*
X95155346Y-95645024D01*
X95140930Y-95660930D01*
X95125024Y-95675346D01*
X95107781Y-95688134D01*
X95089368Y-95699170D01*
X95069962Y-95708349D01*
X95049750Y-95715581D01*
X95028926Y-95720797D01*
X95007691Y-95723947D01*
X94986250Y-95725000D01*
X94548750Y-95725000D01*
X94527309Y-95723947D01*
X94506074Y-95720797D01*
X94485250Y-95715581D01*
X94465038Y-95708349D01*
X94445632Y-95699170D01*
X94427219Y-95688134D01*
X94409976Y-95675346D01*
X94394070Y-95660930D01*
X94379654Y-95645024D01*
X94366866Y-95627781D01*
X94355830Y-95609368D01*
X94346651Y-95589962D01*
X94339419Y-95569750D01*
X94334203Y-95548926D01*
X94331053Y-95527691D01*
X94330000Y-95506250D01*
X94330000Y-94993750D01*
X94331053Y-94972309D01*
X94334203Y-94951074D01*
X94339419Y-94930250D01*
X94346651Y-94910038D01*
X94355830Y-94890632D01*
X94366866Y-94872219D01*
X94379654Y-94854976D01*
X94394070Y-94839070D01*
X94409976Y-94824654D01*
X94427219Y-94811866D01*
X94445632Y-94800830D01*
X94465038Y-94791651D01*
X94485250Y-94784419D01*
X94506074Y-94779203D01*
X94527309Y-94776053D01*
X94548750Y-94775000D01*
X94986250Y-94775000D01*
X95007691Y-94776053D01*
X95007691Y-94776053D01*
G37*
D11*
X94767500Y-95250000D03*
D10*
G36*
X95007691Y-92236053D02*
G01*
X95028926Y-92239203D01*
X95049750Y-92244419D01*
X95069962Y-92251651D01*
X95089368Y-92260830D01*
X95107781Y-92271866D01*
X95125024Y-92284654D01*
X95140930Y-92299070D01*
X95155346Y-92314976D01*
X95168134Y-92332219D01*
X95179170Y-92350632D01*
X95188349Y-92370038D01*
X95195581Y-92390250D01*
X95200797Y-92411074D01*
X95203947Y-92432309D01*
X95205000Y-92453750D01*
X95205000Y-92966250D01*
X95203947Y-92987691D01*
X95200797Y-93008926D01*
X95195581Y-93029750D01*
X95188349Y-93049962D01*
X95179170Y-93069368D01*
X95168134Y-93087781D01*
X95155346Y-93105024D01*
X95140930Y-93120930D01*
X95125024Y-93135346D01*
X95107781Y-93148134D01*
X95089368Y-93159170D01*
X95069962Y-93168349D01*
X95049750Y-93175581D01*
X95028926Y-93180797D01*
X95007691Y-93183947D01*
X94986250Y-93185000D01*
X94548750Y-93185000D01*
X94527309Y-93183947D01*
X94506074Y-93180797D01*
X94485250Y-93175581D01*
X94465038Y-93168349D01*
X94445632Y-93159170D01*
X94427219Y-93148134D01*
X94409976Y-93135346D01*
X94394070Y-93120930D01*
X94379654Y-93105024D01*
X94366866Y-93087781D01*
X94355830Y-93069368D01*
X94346651Y-93049962D01*
X94339419Y-93029750D01*
X94334203Y-93008926D01*
X94331053Y-92987691D01*
X94330000Y-92966250D01*
X94330000Y-92453750D01*
X94331053Y-92432309D01*
X94334203Y-92411074D01*
X94339419Y-92390250D01*
X94346651Y-92370038D01*
X94355830Y-92350632D01*
X94366866Y-92332219D01*
X94379654Y-92314976D01*
X94394070Y-92299070D01*
X94409976Y-92284654D01*
X94427219Y-92271866D01*
X94445632Y-92260830D01*
X94465038Y-92251651D01*
X94485250Y-92244419D01*
X94506074Y-92239203D01*
X94527309Y-92236053D01*
X94548750Y-92235000D01*
X94986250Y-92235000D01*
X95007691Y-92236053D01*
X95007691Y-92236053D01*
G37*
D11*
X94767500Y-92710000D03*
D10*
G36*
X93432691Y-92236053D02*
G01*
X93453926Y-92239203D01*
X93474750Y-92244419D01*
X93494962Y-92251651D01*
X93514368Y-92260830D01*
X93532781Y-92271866D01*
X93550024Y-92284654D01*
X93565930Y-92299070D01*
X93580346Y-92314976D01*
X93593134Y-92332219D01*
X93604170Y-92350632D01*
X93613349Y-92370038D01*
X93620581Y-92390250D01*
X93625797Y-92411074D01*
X93628947Y-92432309D01*
X93630000Y-92453750D01*
X93630000Y-92966250D01*
X93628947Y-92987691D01*
X93625797Y-93008926D01*
X93620581Y-93029750D01*
X93613349Y-93049962D01*
X93604170Y-93069368D01*
X93593134Y-93087781D01*
X93580346Y-93105024D01*
X93565930Y-93120930D01*
X93550024Y-93135346D01*
X93532781Y-93148134D01*
X93514368Y-93159170D01*
X93494962Y-93168349D01*
X93474750Y-93175581D01*
X93453926Y-93180797D01*
X93432691Y-93183947D01*
X93411250Y-93185000D01*
X92973750Y-93185000D01*
X92952309Y-93183947D01*
X92931074Y-93180797D01*
X92910250Y-93175581D01*
X92890038Y-93168349D01*
X92870632Y-93159170D01*
X92852219Y-93148134D01*
X92834976Y-93135346D01*
X92819070Y-93120930D01*
X92804654Y-93105024D01*
X92791866Y-93087781D01*
X92780830Y-93069368D01*
X92771651Y-93049962D01*
X92764419Y-93029750D01*
X92759203Y-93008926D01*
X92756053Y-92987691D01*
X92755000Y-92966250D01*
X92755000Y-92453750D01*
X92756053Y-92432309D01*
X92759203Y-92411074D01*
X92764419Y-92390250D01*
X92771651Y-92370038D01*
X92780830Y-92350632D01*
X92791866Y-92332219D01*
X92804654Y-92314976D01*
X92819070Y-92299070D01*
X92834976Y-92284654D01*
X92852219Y-92271866D01*
X92870632Y-92260830D01*
X92890038Y-92251651D01*
X92910250Y-92244419D01*
X92931074Y-92239203D01*
X92952309Y-92236053D01*
X92973750Y-92235000D01*
X93411250Y-92235000D01*
X93432691Y-92236053D01*
X93432691Y-92236053D01*
G37*
D11*
X93192500Y-92710000D03*
D10*
G36*
X88352691Y-98586053D02*
G01*
X88373926Y-98589203D01*
X88394750Y-98594419D01*
X88414962Y-98601651D01*
X88434368Y-98610830D01*
X88452781Y-98621866D01*
X88470024Y-98634654D01*
X88485930Y-98649070D01*
X88500346Y-98664976D01*
X88513134Y-98682219D01*
X88524170Y-98700632D01*
X88533349Y-98720038D01*
X88540581Y-98740250D01*
X88545797Y-98761074D01*
X88548947Y-98782309D01*
X88550000Y-98803750D01*
X88550000Y-99316250D01*
X88548947Y-99337691D01*
X88545797Y-99358926D01*
X88540581Y-99379750D01*
X88533349Y-99399962D01*
X88524170Y-99419368D01*
X88513134Y-99437781D01*
X88500346Y-99455024D01*
X88485930Y-99470930D01*
X88470024Y-99485346D01*
X88452781Y-99498134D01*
X88434368Y-99509170D01*
X88414962Y-99518349D01*
X88394750Y-99525581D01*
X88373926Y-99530797D01*
X88352691Y-99533947D01*
X88331250Y-99535000D01*
X87893750Y-99535000D01*
X87872309Y-99533947D01*
X87851074Y-99530797D01*
X87830250Y-99525581D01*
X87810038Y-99518349D01*
X87790632Y-99509170D01*
X87772219Y-99498134D01*
X87754976Y-99485346D01*
X87739070Y-99470930D01*
X87724654Y-99455024D01*
X87711866Y-99437781D01*
X87700830Y-99419368D01*
X87691651Y-99399962D01*
X87684419Y-99379750D01*
X87679203Y-99358926D01*
X87676053Y-99337691D01*
X87675000Y-99316250D01*
X87675000Y-98803750D01*
X87676053Y-98782309D01*
X87679203Y-98761074D01*
X87684419Y-98740250D01*
X87691651Y-98720038D01*
X87700830Y-98700632D01*
X87711866Y-98682219D01*
X87724654Y-98664976D01*
X87739070Y-98649070D01*
X87754976Y-98634654D01*
X87772219Y-98621866D01*
X87790632Y-98610830D01*
X87810038Y-98601651D01*
X87830250Y-98594419D01*
X87851074Y-98589203D01*
X87872309Y-98586053D01*
X87893750Y-98585000D01*
X88331250Y-98585000D01*
X88352691Y-98586053D01*
X88352691Y-98586053D01*
G37*
D11*
X88112500Y-99060000D03*
D10*
G36*
X89927691Y-98586053D02*
G01*
X89948926Y-98589203D01*
X89969750Y-98594419D01*
X89989962Y-98601651D01*
X90009368Y-98610830D01*
X90027781Y-98621866D01*
X90045024Y-98634654D01*
X90060930Y-98649070D01*
X90075346Y-98664976D01*
X90088134Y-98682219D01*
X90099170Y-98700632D01*
X90108349Y-98720038D01*
X90115581Y-98740250D01*
X90120797Y-98761074D01*
X90123947Y-98782309D01*
X90125000Y-98803750D01*
X90125000Y-99316250D01*
X90123947Y-99337691D01*
X90120797Y-99358926D01*
X90115581Y-99379750D01*
X90108349Y-99399962D01*
X90099170Y-99419368D01*
X90088134Y-99437781D01*
X90075346Y-99455024D01*
X90060930Y-99470930D01*
X90045024Y-99485346D01*
X90027781Y-99498134D01*
X90009368Y-99509170D01*
X89989962Y-99518349D01*
X89969750Y-99525581D01*
X89948926Y-99530797D01*
X89927691Y-99533947D01*
X89906250Y-99535000D01*
X89468750Y-99535000D01*
X89447309Y-99533947D01*
X89426074Y-99530797D01*
X89405250Y-99525581D01*
X89385038Y-99518349D01*
X89365632Y-99509170D01*
X89347219Y-99498134D01*
X89329976Y-99485346D01*
X89314070Y-99470930D01*
X89299654Y-99455024D01*
X89286866Y-99437781D01*
X89275830Y-99419368D01*
X89266651Y-99399962D01*
X89259419Y-99379750D01*
X89254203Y-99358926D01*
X89251053Y-99337691D01*
X89250000Y-99316250D01*
X89250000Y-98803750D01*
X89251053Y-98782309D01*
X89254203Y-98761074D01*
X89259419Y-98740250D01*
X89266651Y-98720038D01*
X89275830Y-98700632D01*
X89286866Y-98682219D01*
X89299654Y-98664976D01*
X89314070Y-98649070D01*
X89329976Y-98634654D01*
X89347219Y-98621866D01*
X89365632Y-98610830D01*
X89385038Y-98601651D01*
X89405250Y-98594419D01*
X89426074Y-98589203D01*
X89447309Y-98586053D01*
X89468750Y-98585000D01*
X89906250Y-98585000D01*
X89927691Y-98586053D01*
X89927691Y-98586053D01*
G37*
D11*
X89687500Y-99060000D03*
D10*
G36*
X89927691Y-94776053D02*
G01*
X89948926Y-94779203D01*
X89969750Y-94784419D01*
X89989962Y-94791651D01*
X90009368Y-94800830D01*
X90027781Y-94811866D01*
X90045024Y-94824654D01*
X90060930Y-94839070D01*
X90075346Y-94854976D01*
X90088134Y-94872219D01*
X90099170Y-94890632D01*
X90108349Y-94910038D01*
X90115581Y-94930250D01*
X90120797Y-94951074D01*
X90123947Y-94972309D01*
X90125000Y-94993750D01*
X90125000Y-95506250D01*
X90123947Y-95527691D01*
X90120797Y-95548926D01*
X90115581Y-95569750D01*
X90108349Y-95589962D01*
X90099170Y-95609368D01*
X90088134Y-95627781D01*
X90075346Y-95645024D01*
X90060930Y-95660930D01*
X90045024Y-95675346D01*
X90027781Y-95688134D01*
X90009368Y-95699170D01*
X89989962Y-95708349D01*
X89969750Y-95715581D01*
X89948926Y-95720797D01*
X89927691Y-95723947D01*
X89906250Y-95725000D01*
X89468750Y-95725000D01*
X89447309Y-95723947D01*
X89426074Y-95720797D01*
X89405250Y-95715581D01*
X89385038Y-95708349D01*
X89365632Y-95699170D01*
X89347219Y-95688134D01*
X89329976Y-95675346D01*
X89314070Y-95660930D01*
X89299654Y-95645024D01*
X89286866Y-95627781D01*
X89275830Y-95609368D01*
X89266651Y-95589962D01*
X89259419Y-95569750D01*
X89254203Y-95548926D01*
X89251053Y-95527691D01*
X89250000Y-95506250D01*
X89250000Y-94993750D01*
X89251053Y-94972309D01*
X89254203Y-94951074D01*
X89259419Y-94930250D01*
X89266651Y-94910038D01*
X89275830Y-94890632D01*
X89286866Y-94872219D01*
X89299654Y-94854976D01*
X89314070Y-94839070D01*
X89329976Y-94824654D01*
X89347219Y-94811866D01*
X89365632Y-94800830D01*
X89385038Y-94791651D01*
X89405250Y-94784419D01*
X89426074Y-94779203D01*
X89447309Y-94776053D01*
X89468750Y-94775000D01*
X89906250Y-94775000D01*
X89927691Y-94776053D01*
X89927691Y-94776053D01*
G37*
D11*
X89687500Y-95250000D03*
D10*
G36*
X88352691Y-94776053D02*
G01*
X88373926Y-94779203D01*
X88394750Y-94784419D01*
X88414962Y-94791651D01*
X88434368Y-94800830D01*
X88452781Y-94811866D01*
X88470024Y-94824654D01*
X88485930Y-94839070D01*
X88500346Y-94854976D01*
X88513134Y-94872219D01*
X88524170Y-94890632D01*
X88533349Y-94910038D01*
X88540581Y-94930250D01*
X88545797Y-94951074D01*
X88548947Y-94972309D01*
X88550000Y-94993750D01*
X88550000Y-95506250D01*
X88548947Y-95527691D01*
X88545797Y-95548926D01*
X88540581Y-95569750D01*
X88533349Y-95589962D01*
X88524170Y-95609368D01*
X88513134Y-95627781D01*
X88500346Y-95645024D01*
X88485930Y-95660930D01*
X88470024Y-95675346D01*
X88452781Y-95688134D01*
X88434368Y-95699170D01*
X88414962Y-95708349D01*
X88394750Y-95715581D01*
X88373926Y-95720797D01*
X88352691Y-95723947D01*
X88331250Y-95725000D01*
X87893750Y-95725000D01*
X87872309Y-95723947D01*
X87851074Y-95720797D01*
X87830250Y-95715581D01*
X87810038Y-95708349D01*
X87790632Y-95699170D01*
X87772219Y-95688134D01*
X87754976Y-95675346D01*
X87739070Y-95660930D01*
X87724654Y-95645024D01*
X87711866Y-95627781D01*
X87700830Y-95609368D01*
X87691651Y-95589962D01*
X87684419Y-95569750D01*
X87679203Y-95548926D01*
X87676053Y-95527691D01*
X87675000Y-95506250D01*
X87675000Y-94993750D01*
X87676053Y-94972309D01*
X87679203Y-94951074D01*
X87684419Y-94930250D01*
X87691651Y-94910038D01*
X87700830Y-94890632D01*
X87711866Y-94872219D01*
X87724654Y-94854976D01*
X87739070Y-94839070D01*
X87754976Y-94824654D01*
X87772219Y-94811866D01*
X87790632Y-94800830D01*
X87810038Y-94791651D01*
X87830250Y-94784419D01*
X87851074Y-94779203D01*
X87872309Y-94776053D01*
X87893750Y-94775000D01*
X88331250Y-94775000D01*
X88352691Y-94776053D01*
X88352691Y-94776053D01*
G37*
D11*
X88112500Y-95250000D03*
D10*
G36*
X88352691Y-90966053D02*
G01*
X88373926Y-90969203D01*
X88394750Y-90974419D01*
X88414962Y-90981651D01*
X88434368Y-90990830D01*
X88452781Y-91001866D01*
X88470024Y-91014654D01*
X88485930Y-91029070D01*
X88500346Y-91044976D01*
X88513134Y-91062219D01*
X88524170Y-91080632D01*
X88533349Y-91100038D01*
X88540581Y-91120250D01*
X88545797Y-91141074D01*
X88548947Y-91162309D01*
X88550000Y-91183750D01*
X88550000Y-91696250D01*
X88548947Y-91717691D01*
X88545797Y-91738926D01*
X88540581Y-91759750D01*
X88533349Y-91779962D01*
X88524170Y-91799368D01*
X88513134Y-91817781D01*
X88500346Y-91835024D01*
X88485930Y-91850930D01*
X88470024Y-91865346D01*
X88452781Y-91878134D01*
X88434368Y-91889170D01*
X88414962Y-91898349D01*
X88394750Y-91905581D01*
X88373926Y-91910797D01*
X88352691Y-91913947D01*
X88331250Y-91915000D01*
X87893750Y-91915000D01*
X87872309Y-91913947D01*
X87851074Y-91910797D01*
X87830250Y-91905581D01*
X87810038Y-91898349D01*
X87790632Y-91889170D01*
X87772219Y-91878134D01*
X87754976Y-91865346D01*
X87739070Y-91850930D01*
X87724654Y-91835024D01*
X87711866Y-91817781D01*
X87700830Y-91799368D01*
X87691651Y-91779962D01*
X87684419Y-91759750D01*
X87679203Y-91738926D01*
X87676053Y-91717691D01*
X87675000Y-91696250D01*
X87675000Y-91183750D01*
X87676053Y-91162309D01*
X87679203Y-91141074D01*
X87684419Y-91120250D01*
X87691651Y-91100038D01*
X87700830Y-91080632D01*
X87711866Y-91062219D01*
X87724654Y-91044976D01*
X87739070Y-91029070D01*
X87754976Y-91014654D01*
X87772219Y-91001866D01*
X87790632Y-90990830D01*
X87810038Y-90981651D01*
X87830250Y-90974419D01*
X87851074Y-90969203D01*
X87872309Y-90966053D01*
X87893750Y-90965000D01*
X88331250Y-90965000D01*
X88352691Y-90966053D01*
X88352691Y-90966053D01*
G37*
D11*
X88112500Y-91440000D03*
D10*
G36*
X89927691Y-90966053D02*
G01*
X89948926Y-90969203D01*
X89969750Y-90974419D01*
X89989962Y-90981651D01*
X90009368Y-90990830D01*
X90027781Y-91001866D01*
X90045024Y-91014654D01*
X90060930Y-91029070D01*
X90075346Y-91044976D01*
X90088134Y-91062219D01*
X90099170Y-91080632D01*
X90108349Y-91100038D01*
X90115581Y-91120250D01*
X90120797Y-91141074D01*
X90123947Y-91162309D01*
X90125000Y-91183750D01*
X90125000Y-91696250D01*
X90123947Y-91717691D01*
X90120797Y-91738926D01*
X90115581Y-91759750D01*
X90108349Y-91779962D01*
X90099170Y-91799368D01*
X90088134Y-91817781D01*
X90075346Y-91835024D01*
X90060930Y-91850930D01*
X90045024Y-91865346D01*
X90027781Y-91878134D01*
X90009368Y-91889170D01*
X89989962Y-91898349D01*
X89969750Y-91905581D01*
X89948926Y-91910797D01*
X89927691Y-91913947D01*
X89906250Y-91915000D01*
X89468750Y-91915000D01*
X89447309Y-91913947D01*
X89426074Y-91910797D01*
X89405250Y-91905581D01*
X89385038Y-91898349D01*
X89365632Y-91889170D01*
X89347219Y-91878134D01*
X89329976Y-91865346D01*
X89314070Y-91850930D01*
X89299654Y-91835024D01*
X89286866Y-91817781D01*
X89275830Y-91799368D01*
X89266651Y-91779962D01*
X89259419Y-91759750D01*
X89254203Y-91738926D01*
X89251053Y-91717691D01*
X89250000Y-91696250D01*
X89250000Y-91183750D01*
X89251053Y-91162309D01*
X89254203Y-91141074D01*
X89259419Y-91120250D01*
X89266651Y-91100038D01*
X89275830Y-91080632D01*
X89286866Y-91062219D01*
X89299654Y-91044976D01*
X89314070Y-91029070D01*
X89329976Y-91014654D01*
X89347219Y-91001866D01*
X89365632Y-90990830D01*
X89385038Y-90981651D01*
X89405250Y-90974419D01*
X89426074Y-90969203D01*
X89447309Y-90966053D01*
X89468750Y-90965000D01*
X89906250Y-90965000D01*
X89927691Y-90966053D01*
X89927691Y-90966053D01*
G37*
D11*
X89687500Y-91440000D03*
D10*
G36*
X89927691Y-87156053D02*
G01*
X89948926Y-87159203D01*
X89969750Y-87164419D01*
X89989962Y-87171651D01*
X90009368Y-87180830D01*
X90027781Y-87191866D01*
X90045024Y-87204654D01*
X90060930Y-87219070D01*
X90075346Y-87234976D01*
X90088134Y-87252219D01*
X90099170Y-87270632D01*
X90108349Y-87290038D01*
X90115581Y-87310250D01*
X90120797Y-87331074D01*
X90123947Y-87352309D01*
X90125000Y-87373750D01*
X90125000Y-87886250D01*
X90123947Y-87907691D01*
X90120797Y-87928926D01*
X90115581Y-87949750D01*
X90108349Y-87969962D01*
X90099170Y-87989368D01*
X90088134Y-88007781D01*
X90075346Y-88025024D01*
X90060930Y-88040930D01*
X90045024Y-88055346D01*
X90027781Y-88068134D01*
X90009368Y-88079170D01*
X89989962Y-88088349D01*
X89969750Y-88095581D01*
X89948926Y-88100797D01*
X89927691Y-88103947D01*
X89906250Y-88105000D01*
X89468750Y-88105000D01*
X89447309Y-88103947D01*
X89426074Y-88100797D01*
X89405250Y-88095581D01*
X89385038Y-88088349D01*
X89365632Y-88079170D01*
X89347219Y-88068134D01*
X89329976Y-88055346D01*
X89314070Y-88040930D01*
X89299654Y-88025024D01*
X89286866Y-88007781D01*
X89275830Y-87989368D01*
X89266651Y-87969962D01*
X89259419Y-87949750D01*
X89254203Y-87928926D01*
X89251053Y-87907691D01*
X89250000Y-87886250D01*
X89250000Y-87373750D01*
X89251053Y-87352309D01*
X89254203Y-87331074D01*
X89259419Y-87310250D01*
X89266651Y-87290038D01*
X89275830Y-87270632D01*
X89286866Y-87252219D01*
X89299654Y-87234976D01*
X89314070Y-87219070D01*
X89329976Y-87204654D01*
X89347219Y-87191866D01*
X89365632Y-87180830D01*
X89385038Y-87171651D01*
X89405250Y-87164419D01*
X89426074Y-87159203D01*
X89447309Y-87156053D01*
X89468750Y-87155000D01*
X89906250Y-87155000D01*
X89927691Y-87156053D01*
X89927691Y-87156053D01*
G37*
D11*
X89687500Y-87630000D03*
D10*
G36*
X88352691Y-87156053D02*
G01*
X88373926Y-87159203D01*
X88394750Y-87164419D01*
X88414962Y-87171651D01*
X88434368Y-87180830D01*
X88452781Y-87191866D01*
X88470024Y-87204654D01*
X88485930Y-87219070D01*
X88500346Y-87234976D01*
X88513134Y-87252219D01*
X88524170Y-87270632D01*
X88533349Y-87290038D01*
X88540581Y-87310250D01*
X88545797Y-87331074D01*
X88548947Y-87352309D01*
X88550000Y-87373750D01*
X88550000Y-87886250D01*
X88548947Y-87907691D01*
X88545797Y-87928926D01*
X88540581Y-87949750D01*
X88533349Y-87969962D01*
X88524170Y-87989368D01*
X88513134Y-88007781D01*
X88500346Y-88025024D01*
X88485930Y-88040930D01*
X88470024Y-88055346D01*
X88452781Y-88068134D01*
X88434368Y-88079170D01*
X88414962Y-88088349D01*
X88394750Y-88095581D01*
X88373926Y-88100797D01*
X88352691Y-88103947D01*
X88331250Y-88105000D01*
X87893750Y-88105000D01*
X87872309Y-88103947D01*
X87851074Y-88100797D01*
X87830250Y-88095581D01*
X87810038Y-88088349D01*
X87790632Y-88079170D01*
X87772219Y-88068134D01*
X87754976Y-88055346D01*
X87739070Y-88040930D01*
X87724654Y-88025024D01*
X87711866Y-88007781D01*
X87700830Y-87989368D01*
X87691651Y-87969962D01*
X87684419Y-87949750D01*
X87679203Y-87928926D01*
X87676053Y-87907691D01*
X87675000Y-87886250D01*
X87675000Y-87373750D01*
X87676053Y-87352309D01*
X87679203Y-87331074D01*
X87684419Y-87310250D01*
X87691651Y-87290038D01*
X87700830Y-87270632D01*
X87711866Y-87252219D01*
X87724654Y-87234976D01*
X87739070Y-87219070D01*
X87754976Y-87204654D01*
X87772219Y-87191866D01*
X87790632Y-87180830D01*
X87810038Y-87171651D01*
X87830250Y-87164419D01*
X87851074Y-87159203D01*
X87872309Y-87156053D01*
X87893750Y-87155000D01*
X88331250Y-87155000D01*
X88352691Y-87156053D01*
X88352691Y-87156053D01*
G37*
D11*
X88112500Y-87630000D03*
D10*
G36*
X88352691Y-83346053D02*
G01*
X88373926Y-83349203D01*
X88394750Y-83354419D01*
X88414962Y-83361651D01*
X88434368Y-83370830D01*
X88452781Y-83381866D01*
X88470024Y-83394654D01*
X88485930Y-83409070D01*
X88500346Y-83424976D01*
X88513134Y-83442219D01*
X88524170Y-83460632D01*
X88533349Y-83480038D01*
X88540581Y-83500250D01*
X88545797Y-83521074D01*
X88548947Y-83542309D01*
X88550000Y-83563750D01*
X88550000Y-84076250D01*
X88548947Y-84097691D01*
X88545797Y-84118926D01*
X88540581Y-84139750D01*
X88533349Y-84159962D01*
X88524170Y-84179368D01*
X88513134Y-84197781D01*
X88500346Y-84215024D01*
X88485930Y-84230930D01*
X88470024Y-84245346D01*
X88452781Y-84258134D01*
X88434368Y-84269170D01*
X88414962Y-84278349D01*
X88394750Y-84285581D01*
X88373926Y-84290797D01*
X88352691Y-84293947D01*
X88331250Y-84295000D01*
X87893750Y-84295000D01*
X87872309Y-84293947D01*
X87851074Y-84290797D01*
X87830250Y-84285581D01*
X87810038Y-84278349D01*
X87790632Y-84269170D01*
X87772219Y-84258134D01*
X87754976Y-84245346D01*
X87739070Y-84230930D01*
X87724654Y-84215024D01*
X87711866Y-84197781D01*
X87700830Y-84179368D01*
X87691651Y-84159962D01*
X87684419Y-84139750D01*
X87679203Y-84118926D01*
X87676053Y-84097691D01*
X87675000Y-84076250D01*
X87675000Y-83563750D01*
X87676053Y-83542309D01*
X87679203Y-83521074D01*
X87684419Y-83500250D01*
X87691651Y-83480038D01*
X87700830Y-83460632D01*
X87711866Y-83442219D01*
X87724654Y-83424976D01*
X87739070Y-83409070D01*
X87754976Y-83394654D01*
X87772219Y-83381866D01*
X87790632Y-83370830D01*
X87810038Y-83361651D01*
X87830250Y-83354419D01*
X87851074Y-83349203D01*
X87872309Y-83346053D01*
X87893750Y-83345000D01*
X88331250Y-83345000D01*
X88352691Y-83346053D01*
X88352691Y-83346053D01*
G37*
D11*
X88112500Y-83820000D03*
D10*
G36*
X89927691Y-83346053D02*
G01*
X89948926Y-83349203D01*
X89969750Y-83354419D01*
X89989962Y-83361651D01*
X90009368Y-83370830D01*
X90027781Y-83381866D01*
X90045024Y-83394654D01*
X90060930Y-83409070D01*
X90075346Y-83424976D01*
X90088134Y-83442219D01*
X90099170Y-83460632D01*
X90108349Y-83480038D01*
X90115581Y-83500250D01*
X90120797Y-83521074D01*
X90123947Y-83542309D01*
X90125000Y-83563750D01*
X90125000Y-84076250D01*
X90123947Y-84097691D01*
X90120797Y-84118926D01*
X90115581Y-84139750D01*
X90108349Y-84159962D01*
X90099170Y-84179368D01*
X90088134Y-84197781D01*
X90075346Y-84215024D01*
X90060930Y-84230930D01*
X90045024Y-84245346D01*
X90027781Y-84258134D01*
X90009368Y-84269170D01*
X89989962Y-84278349D01*
X89969750Y-84285581D01*
X89948926Y-84290797D01*
X89927691Y-84293947D01*
X89906250Y-84295000D01*
X89468750Y-84295000D01*
X89447309Y-84293947D01*
X89426074Y-84290797D01*
X89405250Y-84285581D01*
X89385038Y-84278349D01*
X89365632Y-84269170D01*
X89347219Y-84258134D01*
X89329976Y-84245346D01*
X89314070Y-84230930D01*
X89299654Y-84215024D01*
X89286866Y-84197781D01*
X89275830Y-84179368D01*
X89266651Y-84159962D01*
X89259419Y-84139750D01*
X89254203Y-84118926D01*
X89251053Y-84097691D01*
X89250000Y-84076250D01*
X89250000Y-83563750D01*
X89251053Y-83542309D01*
X89254203Y-83521074D01*
X89259419Y-83500250D01*
X89266651Y-83480038D01*
X89275830Y-83460632D01*
X89286866Y-83442219D01*
X89299654Y-83424976D01*
X89314070Y-83409070D01*
X89329976Y-83394654D01*
X89347219Y-83381866D01*
X89365632Y-83370830D01*
X89385038Y-83361651D01*
X89405250Y-83354419D01*
X89426074Y-83349203D01*
X89447309Y-83346053D01*
X89468750Y-83345000D01*
X89906250Y-83345000D01*
X89927691Y-83346053D01*
X89927691Y-83346053D01*
G37*
D11*
X89687500Y-83820000D03*
D10*
G36*
X89927691Y-79536053D02*
G01*
X89948926Y-79539203D01*
X89969750Y-79544419D01*
X89989962Y-79551651D01*
X90009368Y-79560830D01*
X90027781Y-79571866D01*
X90045024Y-79584654D01*
X90060930Y-79599070D01*
X90075346Y-79614976D01*
X90088134Y-79632219D01*
X90099170Y-79650632D01*
X90108349Y-79670038D01*
X90115581Y-79690250D01*
X90120797Y-79711074D01*
X90123947Y-79732309D01*
X90125000Y-79753750D01*
X90125000Y-80266250D01*
X90123947Y-80287691D01*
X90120797Y-80308926D01*
X90115581Y-80329750D01*
X90108349Y-80349962D01*
X90099170Y-80369368D01*
X90088134Y-80387781D01*
X90075346Y-80405024D01*
X90060930Y-80420930D01*
X90045024Y-80435346D01*
X90027781Y-80448134D01*
X90009368Y-80459170D01*
X89989962Y-80468349D01*
X89969750Y-80475581D01*
X89948926Y-80480797D01*
X89927691Y-80483947D01*
X89906250Y-80485000D01*
X89468750Y-80485000D01*
X89447309Y-80483947D01*
X89426074Y-80480797D01*
X89405250Y-80475581D01*
X89385038Y-80468349D01*
X89365632Y-80459170D01*
X89347219Y-80448134D01*
X89329976Y-80435346D01*
X89314070Y-80420930D01*
X89299654Y-80405024D01*
X89286866Y-80387781D01*
X89275830Y-80369368D01*
X89266651Y-80349962D01*
X89259419Y-80329750D01*
X89254203Y-80308926D01*
X89251053Y-80287691D01*
X89250000Y-80266250D01*
X89250000Y-79753750D01*
X89251053Y-79732309D01*
X89254203Y-79711074D01*
X89259419Y-79690250D01*
X89266651Y-79670038D01*
X89275830Y-79650632D01*
X89286866Y-79632219D01*
X89299654Y-79614976D01*
X89314070Y-79599070D01*
X89329976Y-79584654D01*
X89347219Y-79571866D01*
X89365632Y-79560830D01*
X89385038Y-79551651D01*
X89405250Y-79544419D01*
X89426074Y-79539203D01*
X89447309Y-79536053D01*
X89468750Y-79535000D01*
X89906250Y-79535000D01*
X89927691Y-79536053D01*
X89927691Y-79536053D01*
G37*
D11*
X89687500Y-80010000D03*
D10*
G36*
X88352691Y-79536053D02*
G01*
X88373926Y-79539203D01*
X88394750Y-79544419D01*
X88414962Y-79551651D01*
X88434368Y-79560830D01*
X88452781Y-79571866D01*
X88470024Y-79584654D01*
X88485930Y-79599070D01*
X88500346Y-79614976D01*
X88513134Y-79632219D01*
X88524170Y-79650632D01*
X88533349Y-79670038D01*
X88540581Y-79690250D01*
X88545797Y-79711074D01*
X88548947Y-79732309D01*
X88550000Y-79753750D01*
X88550000Y-80266250D01*
X88548947Y-80287691D01*
X88545797Y-80308926D01*
X88540581Y-80329750D01*
X88533349Y-80349962D01*
X88524170Y-80369368D01*
X88513134Y-80387781D01*
X88500346Y-80405024D01*
X88485930Y-80420930D01*
X88470024Y-80435346D01*
X88452781Y-80448134D01*
X88434368Y-80459170D01*
X88414962Y-80468349D01*
X88394750Y-80475581D01*
X88373926Y-80480797D01*
X88352691Y-80483947D01*
X88331250Y-80485000D01*
X87893750Y-80485000D01*
X87872309Y-80483947D01*
X87851074Y-80480797D01*
X87830250Y-80475581D01*
X87810038Y-80468349D01*
X87790632Y-80459170D01*
X87772219Y-80448134D01*
X87754976Y-80435346D01*
X87739070Y-80420930D01*
X87724654Y-80405024D01*
X87711866Y-80387781D01*
X87700830Y-80369368D01*
X87691651Y-80349962D01*
X87684419Y-80329750D01*
X87679203Y-80308926D01*
X87676053Y-80287691D01*
X87675000Y-80266250D01*
X87675000Y-79753750D01*
X87676053Y-79732309D01*
X87679203Y-79711074D01*
X87684419Y-79690250D01*
X87691651Y-79670038D01*
X87700830Y-79650632D01*
X87711866Y-79632219D01*
X87724654Y-79614976D01*
X87739070Y-79599070D01*
X87754976Y-79584654D01*
X87772219Y-79571866D01*
X87790632Y-79560830D01*
X87810038Y-79551651D01*
X87830250Y-79544419D01*
X87851074Y-79539203D01*
X87872309Y-79536053D01*
X87893750Y-79535000D01*
X88331250Y-79535000D01*
X88352691Y-79536053D01*
X88352691Y-79536053D01*
G37*
D11*
X88112500Y-80010000D03*
D10*
G36*
X88352691Y-75726053D02*
G01*
X88373926Y-75729203D01*
X88394750Y-75734419D01*
X88414962Y-75741651D01*
X88434368Y-75750830D01*
X88452781Y-75761866D01*
X88470024Y-75774654D01*
X88485930Y-75789070D01*
X88500346Y-75804976D01*
X88513134Y-75822219D01*
X88524170Y-75840632D01*
X88533349Y-75860038D01*
X88540581Y-75880250D01*
X88545797Y-75901074D01*
X88548947Y-75922309D01*
X88550000Y-75943750D01*
X88550000Y-76456250D01*
X88548947Y-76477691D01*
X88545797Y-76498926D01*
X88540581Y-76519750D01*
X88533349Y-76539962D01*
X88524170Y-76559368D01*
X88513134Y-76577781D01*
X88500346Y-76595024D01*
X88485930Y-76610930D01*
X88470024Y-76625346D01*
X88452781Y-76638134D01*
X88434368Y-76649170D01*
X88414962Y-76658349D01*
X88394750Y-76665581D01*
X88373926Y-76670797D01*
X88352691Y-76673947D01*
X88331250Y-76675000D01*
X87893750Y-76675000D01*
X87872309Y-76673947D01*
X87851074Y-76670797D01*
X87830250Y-76665581D01*
X87810038Y-76658349D01*
X87790632Y-76649170D01*
X87772219Y-76638134D01*
X87754976Y-76625346D01*
X87739070Y-76610930D01*
X87724654Y-76595024D01*
X87711866Y-76577781D01*
X87700830Y-76559368D01*
X87691651Y-76539962D01*
X87684419Y-76519750D01*
X87679203Y-76498926D01*
X87676053Y-76477691D01*
X87675000Y-76456250D01*
X87675000Y-75943750D01*
X87676053Y-75922309D01*
X87679203Y-75901074D01*
X87684419Y-75880250D01*
X87691651Y-75860038D01*
X87700830Y-75840632D01*
X87711866Y-75822219D01*
X87724654Y-75804976D01*
X87739070Y-75789070D01*
X87754976Y-75774654D01*
X87772219Y-75761866D01*
X87790632Y-75750830D01*
X87810038Y-75741651D01*
X87830250Y-75734419D01*
X87851074Y-75729203D01*
X87872309Y-75726053D01*
X87893750Y-75725000D01*
X88331250Y-75725000D01*
X88352691Y-75726053D01*
X88352691Y-75726053D01*
G37*
D11*
X88112500Y-76200000D03*
D10*
G36*
X89927691Y-75726053D02*
G01*
X89948926Y-75729203D01*
X89969750Y-75734419D01*
X89989962Y-75741651D01*
X90009368Y-75750830D01*
X90027781Y-75761866D01*
X90045024Y-75774654D01*
X90060930Y-75789070D01*
X90075346Y-75804976D01*
X90088134Y-75822219D01*
X90099170Y-75840632D01*
X90108349Y-75860038D01*
X90115581Y-75880250D01*
X90120797Y-75901074D01*
X90123947Y-75922309D01*
X90125000Y-75943750D01*
X90125000Y-76456250D01*
X90123947Y-76477691D01*
X90120797Y-76498926D01*
X90115581Y-76519750D01*
X90108349Y-76539962D01*
X90099170Y-76559368D01*
X90088134Y-76577781D01*
X90075346Y-76595024D01*
X90060930Y-76610930D01*
X90045024Y-76625346D01*
X90027781Y-76638134D01*
X90009368Y-76649170D01*
X89989962Y-76658349D01*
X89969750Y-76665581D01*
X89948926Y-76670797D01*
X89927691Y-76673947D01*
X89906250Y-76675000D01*
X89468750Y-76675000D01*
X89447309Y-76673947D01*
X89426074Y-76670797D01*
X89405250Y-76665581D01*
X89385038Y-76658349D01*
X89365632Y-76649170D01*
X89347219Y-76638134D01*
X89329976Y-76625346D01*
X89314070Y-76610930D01*
X89299654Y-76595024D01*
X89286866Y-76577781D01*
X89275830Y-76559368D01*
X89266651Y-76539962D01*
X89259419Y-76519750D01*
X89254203Y-76498926D01*
X89251053Y-76477691D01*
X89250000Y-76456250D01*
X89250000Y-75943750D01*
X89251053Y-75922309D01*
X89254203Y-75901074D01*
X89259419Y-75880250D01*
X89266651Y-75860038D01*
X89275830Y-75840632D01*
X89286866Y-75822219D01*
X89299654Y-75804976D01*
X89314070Y-75789070D01*
X89329976Y-75774654D01*
X89347219Y-75761866D01*
X89365632Y-75750830D01*
X89385038Y-75741651D01*
X89405250Y-75734419D01*
X89426074Y-75729203D01*
X89447309Y-75726053D01*
X89468750Y-75725000D01*
X89906250Y-75725000D01*
X89927691Y-75726053D01*
X89927691Y-75726053D01*
G37*
D11*
X89687500Y-76200000D03*
D12*
X84455000Y-69215000D03*
X108585000Y-69215000D03*
X84455000Y-110553500D03*
X108585000Y-110553500D03*
D13*
X105410000Y-99060000D03*
D14*
X107950000Y-99060000D03*
X105410000Y-96520000D03*
X107950000Y-96520000D03*
X105410000Y-93980000D03*
X107950000Y-93980000D03*
X105410000Y-91440000D03*
X107950000Y-91440000D03*
X105410000Y-88900000D03*
X107950000Y-88900000D03*
X105410000Y-86360000D03*
X107950000Y-86360000D03*
X105410000Y-83820000D03*
X107950000Y-83820000D03*
X105410000Y-81280000D03*
X107950000Y-81280000D03*
D15*
X84320000Y-94730000D03*
X84320000Y-93730000D03*
X84320000Y-94230000D03*
X84320000Y-93230000D03*
X83320000Y-94230000D03*
X83320000Y-94730000D03*
X83320000Y-93730000D03*
X83320000Y-93230000D03*
X83320000Y-79260000D03*
X83320000Y-79760000D03*
X83320000Y-80760000D03*
X83320000Y-80260000D03*
X84320000Y-79260000D03*
X84320000Y-80260000D03*
X84320000Y-79760000D03*
X84320000Y-80760000D03*
D16*
X99470000Y-90555000D03*
X99470000Y-89905000D03*
X99470000Y-89255000D03*
X99470000Y-88605000D03*
X99470000Y-87955000D03*
X99470000Y-87305000D03*
X99470000Y-86655000D03*
X99470000Y-86005000D03*
X99470000Y-85355000D03*
X99470000Y-84705000D03*
X93570000Y-84705000D03*
X93570000Y-85355000D03*
X93570000Y-86005000D03*
X93570000Y-86655000D03*
X93570000Y-87305000D03*
X93570000Y-87955000D03*
X93570000Y-88605000D03*
X93570000Y-89255000D03*
X93570000Y-89905000D03*
X93570000Y-90555000D03*
D17*
X93570000Y-91030000D02*
X93281500Y-91318500D01*
X93570000Y-90555000D02*
X93570000Y-91030000D01*
X93281500Y-91318500D02*
X93281500Y-95186500D01*
X93281500Y-95186500D02*
X94742000Y-96647000D01*
X94742000Y-96647000D02*
X105410000Y-96647000D01*
X105410000Y-96647000D02*
X105537000Y-96774000D01*
X105537000Y-96774000D02*
X105537000Y-99123500D01*
X104221399Y-93681399D02*
X104221399Y-95394899D01*
X99470000Y-89905000D02*
X100445000Y-89905000D01*
X100445000Y-89905000D02*
X104221399Y-93681399D01*
X104221399Y-95394899D02*
X105156000Y-96329500D01*
X105156000Y-96329500D02*
X105346500Y-96329500D01*
X94545000Y-89905000D02*
X94805500Y-90165500D01*
X93570000Y-89905000D02*
X94545000Y-89905000D01*
X94805500Y-90165500D02*
X94805500Y-92710000D01*
X99470000Y-85355000D02*
X99470000Y-84738000D01*
X99470000Y-84738000D02*
X99441000Y-84709000D01*
X91318510Y-96853990D02*
X91318510Y-94255400D01*
X89687500Y-99060000D02*
X89687500Y-98485000D01*
X89687500Y-98485000D02*
X91318510Y-96853990D01*
X91318510Y-90621488D02*
X92658998Y-89281000D01*
X91318510Y-94255400D02*
X91318510Y-90621488D01*
X92658998Y-89281000D02*
X93535500Y-89281000D01*
X87575000Y-99060000D02*
X84328000Y-95813000D01*
X88112500Y-99060000D02*
X87575000Y-99060000D01*
X84328000Y-95813000D02*
X84328000Y-94805500D01*
X87575000Y-95250000D02*
X86559000Y-94234000D01*
X88112500Y-95250000D02*
X87575000Y-95250000D01*
X86559000Y-94234000D02*
X84391500Y-94234000D01*
X89687500Y-95250000D02*
X90868500Y-94069000D01*
X90868500Y-90421498D02*
X92707498Y-88582500D01*
X90868500Y-94069000D02*
X90868500Y-90421498D01*
X92707498Y-88582500D02*
X93662500Y-88582500D01*
X89687500Y-91440000D02*
X89687500Y-90335000D01*
X89687500Y-90335000D02*
X92075000Y-87947500D01*
X92075000Y-87947500D02*
X93599000Y-87947500D01*
X84320000Y-93730000D02*
X85721000Y-93730000D01*
X85721000Y-93730000D02*
X88011000Y-91440000D01*
X88112500Y-87630000D02*
X88112500Y-89370000D01*
X88112500Y-89370000D02*
X84328000Y-93154500D01*
X90225000Y-87630000D02*
X90542500Y-87312500D01*
X89687500Y-87630000D02*
X90225000Y-87630000D01*
X90542500Y-87312500D02*
X93599000Y-87312500D01*
X89687500Y-83820000D02*
X92481500Y-86614000D01*
X92481500Y-86614000D02*
X93599000Y-86614000D01*
X87575000Y-83820000D02*
X84590500Y-80835500D01*
X88112500Y-83820000D02*
X87575000Y-83820000D01*
X84590500Y-80835500D02*
X84391500Y-80835500D01*
X87339999Y-80245001D02*
X84830001Y-80245001D01*
X88112500Y-80010000D02*
X87575000Y-80010000D01*
X87575000Y-80010000D02*
X87339999Y-80245001D01*
X84830001Y-80245001D02*
X84391500Y-80245001D01*
X91434491Y-84754493D02*
X92658998Y-85979000D01*
X89687500Y-80010000D02*
X91434491Y-81756991D01*
X91434491Y-81756991D02*
X91434491Y-84754493D01*
X92658998Y-85979000D02*
X93535500Y-85979000D01*
X88112500Y-76775000D02*
X85131500Y-79756000D01*
X88112500Y-76200000D02*
X88112500Y-76775000D01*
X85131500Y-79756000D02*
X84391500Y-79756000D01*
X92684998Y-85355000D02*
X91884500Y-84554502D01*
X93570000Y-85355000D02*
X92684998Y-85355000D01*
X91884500Y-84554502D02*
X91884500Y-78232000D01*
X91884500Y-78232000D02*
X89789000Y-76136500D01*
X100685000Y-89255000D02*
X105346500Y-93916500D01*
X99470000Y-89255000D02*
X100685000Y-89255000D01*
X99470000Y-88605000D02*
X102575000Y-88605000D01*
X102575000Y-88605000D02*
X105410000Y-91440000D01*
X99470000Y-87955000D02*
X104465000Y-87955000D01*
X104465000Y-87955000D02*
X105410000Y-88900000D01*
X104465000Y-87305000D02*
X104546401Y-87223599D01*
X99470000Y-87305000D02*
X104465000Y-87305000D01*
X104546401Y-87223599D02*
X105410000Y-86360000D01*
X99470000Y-86655000D02*
X102575000Y-86655000D01*
X102575000Y-86655000D02*
X105410000Y-83820000D01*
X100685000Y-86005000D02*
X105410000Y-81280000D01*
X99470000Y-86005000D02*
X100685000Y-86005000D01*
X87668516Y-75399990D02*
X84328000Y-78740506D01*
X90131484Y-75399990D02*
X87668516Y-75399990D01*
X93570000Y-84705000D02*
X93570000Y-78838506D01*
X93570000Y-78838506D02*
X90131484Y-75399990D01*
X84328000Y-78740506D02*
X84328000Y-79274999D01*
D18*
G36*
X112624000Y-114577500D02*
G01*
X80406000Y-114577500D01*
X80406000Y-110250048D01*
X81374000Y-110250048D01*
X81374000Y-110856952D01*
X81492401Y-111452195D01*
X81724653Y-112012901D01*
X82061831Y-112517523D01*
X82490977Y-112946669D01*
X82995599Y-113283847D01*
X83556305Y-113516099D01*
X84151548Y-113634500D01*
X84758452Y-113634500D01*
X85353695Y-113516099D01*
X85914401Y-113283847D01*
X86419023Y-112946669D01*
X86848169Y-112517523D01*
X87185347Y-112012901D01*
X87417599Y-111452195D01*
X87536000Y-110856952D01*
X87536000Y-110250048D01*
X105504000Y-110250048D01*
X105504000Y-110856952D01*
X105622401Y-111452195D01*
X105854653Y-112012901D01*
X106191831Y-112517523D01*
X106620977Y-112946669D01*
X107125599Y-113283847D01*
X107686305Y-113516099D01*
X108281548Y-113634500D01*
X108888452Y-113634500D01*
X109483695Y-113516099D01*
X110044401Y-113283847D01*
X110549023Y-112946669D01*
X110978169Y-112517523D01*
X111315347Y-112012901D01*
X111547599Y-111452195D01*
X111666000Y-110856952D01*
X111666000Y-110250048D01*
X111547599Y-109654805D01*
X111315347Y-109094099D01*
X110978169Y-108589477D01*
X110549023Y-108160331D01*
X110044401Y-107823153D01*
X109483695Y-107590901D01*
X108888452Y-107472500D01*
X108281548Y-107472500D01*
X107686305Y-107590901D01*
X107125599Y-107823153D01*
X106620977Y-108160331D01*
X106191831Y-108589477D01*
X105854653Y-109094099D01*
X105622401Y-109654805D01*
X105504000Y-110250048D01*
X87536000Y-110250048D01*
X87417599Y-109654805D01*
X87185347Y-109094099D01*
X86848169Y-108589477D01*
X86419023Y-108160331D01*
X85914401Y-107823153D01*
X85353695Y-107590901D01*
X84758452Y-107472500D01*
X84151548Y-107472500D01*
X83556305Y-107590901D01*
X82995599Y-107823153D01*
X82490977Y-108160331D01*
X82061831Y-108589477D01*
X81724653Y-109094099D01*
X81492401Y-109654805D01*
X81374000Y-110250048D01*
X80406000Y-110250048D01*
X80406000Y-93038250D01*
X82435000Y-93038250D01*
X82571884Y-93175134D01*
X82549583Y-93200810D01*
X82487557Y-93309432D01*
X82457566Y-93399184D01*
X82435000Y-93421750D01*
X82441827Y-93480000D01*
X82435000Y-93538250D01*
X82457566Y-93560816D01*
X82487557Y-93650568D01*
X82532915Y-93730000D01*
X82487557Y-93809432D01*
X82457566Y-93899184D01*
X82435000Y-93921750D01*
X82441827Y-93980000D01*
X82435000Y-94038250D01*
X82457566Y-94060816D01*
X82487557Y-94150568D01*
X82532915Y-94230000D01*
X82487557Y-94309432D01*
X82457566Y-94399184D01*
X82435000Y-94421750D01*
X82441827Y-94480000D01*
X82435000Y-94538250D01*
X82457566Y-94560816D01*
X82487557Y-94650568D01*
X82549583Y-94759190D01*
X82571884Y-94784866D01*
X82435000Y-94921750D01*
X82447914Y-95031932D01*
X82487557Y-95150568D01*
X82549583Y-95259190D01*
X82631608Y-95353625D01*
X82730480Y-95430243D01*
X82842400Y-95486099D01*
X82963066Y-95519048D01*
X83038250Y-95525000D01*
X83197000Y-95366250D01*
X83197000Y-92593750D01*
X83038250Y-92435000D01*
X82963066Y-92440952D01*
X82842400Y-92473901D01*
X82730480Y-92529757D01*
X82631608Y-92606375D01*
X82549583Y-92700810D01*
X82487557Y-92809432D01*
X82447914Y-92928068D01*
X82435000Y-93038250D01*
X80406000Y-93038250D01*
X80406000Y-79068250D01*
X82435000Y-79068250D01*
X82571884Y-79205134D01*
X82549583Y-79230810D01*
X82487557Y-79339432D01*
X82457566Y-79429184D01*
X82435000Y-79451750D01*
X82441827Y-79510000D01*
X82435000Y-79568250D01*
X82457566Y-79590816D01*
X82487557Y-79680568D01*
X82532915Y-79760000D01*
X82487557Y-79839432D01*
X82457566Y-79929184D01*
X82435000Y-79951750D01*
X82441827Y-80010000D01*
X82435000Y-80068250D01*
X82457566Y-80090816D01*
X82487557Y-80180568D01*
X82532915Y-80260000D01*
X82487557Y-80339432D01*
X82457566Y-80429184D01*
X82435000Y-80451750D01*
X82441827Y-80510000D01*
X82435000Y-80568250D01*
X82457566Y-80590816D01*
X82487557Y-80680568D01*
X82549583Y-80789190D01*
X82571884Y-80814866D01*
X82435000Y-80951750D01*
X82447914Y-81061932D01*
X82487557Y-81180568D01*
X82549583Y-81289190D01*
X82631608Y-81383625D01*
X82730480Y-81460243D01*
X82842400Y-81516099D01*
X82963066Y-81549048D01*
X83038250Y-81555000D01*
X83197000Y-81396250D01*
X83197000Y-78623750D01*
X83443000Y-78623750D01*
X83443000Y-81396250D01*
X83601750Y-81555000D01*
X83676934Y-81549048D01*
X83797600Y-81516099D01*
X83909520Y-81460243D01*
X84008392Y-81383625D01*
X84078558Y-81302843D01*
X84192431Y-81302843D01*
X84196925Y-81305245D01*
X84292307Y-81334178D01*
X84366646Y-81341500D01*
X84380909Y-81341500D01*
X87199628Y-84160220D01*
X87215473Y-84179527D01*
X87292521Y-84242759D01*
X87323676Y-84259412D01*
X87337951Y-84306470D01*
X87393544Y-84410477D01*
X87468360Y-84501640D01*
X87559523Y-84576456D01*
X87663530Y-84632049D01*
X87776385Y-84666284D01*
X87893750Y-84677843D01*
X88331250Y-84677843D01*
X88448615Y-84666284D01*
X88561470Y-84632049D01*
X88665477Y-84576456D01*
X88756640Y-84501640D01*
X88831456Y-84410477D01*
X88887049Y-84306470D01*
X88900000Y-84263777D01*
X88912951Y-84306470D01*
X88968544Y-84410477D01*
X89043360Y-84501640D01*
X89134523Y-84576456D01*
X89238530Y-84632049D01*
X89351385Y-84666284D01*
X89468750Y-84677843D01*
X89829752Y-84677843D01*
X91958408Y-86806500D01*
X90567354Y-86806500D01*
X90542500Y-86804052D01*
X90517646Y-86806500D01*
X90443307Y-86813822D01*
X90347925Y-86842755D01*
X90260137Y-86889679D01*
X90240477Y-86873544D01*
X90136470Y-86817951D01*
X90023615Y-86783716D01*
X89906250Y-86772157D01*
X89468750Y-86772157D01*
X89351385Y-86783716D01*
X89238530Y-86817951D01*
X89134523Y-86873544D01*
X89043360Y-86948360D01*
X88968544Y-87039523D01*
X88912951Y-87143530D01*
X88900000Y-87186223D01*
X88887049Y-87143530D01*
X88831456Y-87039523D01*
X88756640Y-86948360D01*
X88665477Y-86873544D01*
X88561470Y-86817951D01*
X88448615Y-86783716D01*
X88331250Y-86772157D01*
X87893750Y-86772157D01*
X87776385Y-86783716D01*
X87663530Y-86817951D01*
X87559523Y-86873544D01*
X87468360Y-86948360D01*
X87393544Y-87039523D01*
X87337951Y-87143530D01*
X87303716Y-87256385D01*
X87292157Y-87373750D01*
X87292157Y-87886250D01*
X87303716Y-88003615D01*
X87337951Y-88116470D01*
X87393544Y-88220477D01*
X87468360Y-88311640D01*
X87559523Y-88386456D01*
X87606500Y-88411566D01*
X87606501Y-89160407D01*
X84079752Y-92687157D01*
X84078558Y-92687157D01*
X84008392Y-92606375D01*
X83909520Y-92529757D01*
X83797600Y-92473901D01*
X83676934Y-92440952D01*
X83601750Y-92435000D01*
X83443000Y-92593750D01*
X83443000Y-95366250D01*
X83601750Y-95525000D01*
X83676934Y-95519048D01*
X83797600Y-95486099D01*
X83822000Y-95473922D01*
X83822000Y-95788153D01*
X83819553Y-95813000D01*
X83822000Y-95837846D01*
X83822000Y-95837853D01*
X83829322Y-95912192D01*
X83858255Y-96007574D01*
X83905241Y-96095479D01*
X83968473Y-96172527D01*
X83987785Y-96188376D01*
X87199628Y-99400220D01*
X87215473Y-99419527D01*
X87292521Y-99482759D01*
X87323676Y-99499412D01*
X87337951Y-99546470D01*
X87393544Y-99650477D01*
X87468360Y-99741640D01*
X87559523Y-99816456D01*
X87663530Y-99872049D01*
X87776385Y-99906284D01*
X87893750Y-99917843D01*
X88331250Y-99917843D01*
X88448615Y-99906284D01*
X88561470Y-99872049D01*
X88665477Y-99816456D01*
X88756640Y-99741640D01*
X88831456Y-99650477D01*
X88887049Y-99546470D01*
X88900000Y-99503777D01*
X88912951Y-99546470D01*
X88968544Y-99650477D01*
X89043360Y-99741640D01*
X89134523Y-99816456D01*
X89238530Y-99872049D01*
X89351385Y-99906284D01*
X89468750Y-99917843D01*
X89906250Y-99917843D01*
X90023615Y-99906284D01*
X90136470Y-99872049D01*
X90240477Y-99816456D01*
X90331640Y-99741640D01*
X90406456Y-99650477D01*
X90462049Y-99546470D01*
X90496284Y-99433615D01*
X90507843Y-99316250D01*
X90507843Y-98803750D01*
X90496284Y-98686385D01*
X90462049Y-98573530D01*
X90410675Y-98477416D01*
X91658730Y-97229362D01*
X91678037Y-97213517D01*
X91741269Y-97136469D01*
X91788255Y-97048565D01*
X91817188Y-96953183D01*
X91824510Y-96878844D01*
X91824510Y-96878837D01*
X91826957Y-96853991D01*
X91824510Y-96829145D01*
X91824510Y-90831079D01*
X92263984Y-90391605D01*
X92319922Y-90492531D01*
X92400737Y-90588003D01*
X92462157Y-90636863D01*
X92462157Y-90780000D01*
X92469513Y-90854689D01*
X92491299Y-90926508D01*
X92526678Y-90992696D01*
X92574289Y-91050711D01*
X92632304Y-91098322D01*
X92698492Y-91133701D01*
X92770311Y-91155487D01*
X92801257Y-91158535D01*
X92782822Y-91219308D01*
X92775500Y-91293647D01*
X92775500Y-91293654D01*
X92773053Y-91318500D01*
X92775500Y-91343346D01*
X92775500Y-91888253D01*
X92743530Y-91897951D01*
X92639523Y-91953544D01*
X92548360Y-92028360D01*
X92473544Y-92119523D01*
X92417951Y-92223530D01*
X92383716Y-92336385D01*
X92372157Y-92453750D01*
X92372157Y-92966250D01*
X92383716Y-93083615D01*
X92417951Y-93196470D01*
X92473544Y-93300477D01*
X92548360Y-93391640D01*
X92639523Y-93466456D01*
X92743530Y-93522049D01*
X92775501Y-93531747D01*
X92775501Y-94428253D01*
X92743530Y-94437951D01*
X92639523Y-94493544D01*
X92548360Y-94568360D01*
X92473544Y-94659523D01*
X92417951Y-94763530D01*
X92383716Y-94876385D01*
X92372157Y-94993750D01*
X92372157Y-95506250D01*
X92383716Y-95623615D01*
X92417951Y-95736470D01*
X92473544Y-95840477D01*
X92548360Y-95931640D01*
X92639523Y-96006456D01*
X92743530Y-96062049D01*
X92856385Y-96096284D01*
X92973750Y-96107843D01*
X93411250Y-96107843D01*
X93480438Y-96101029D01*
X94366628Y-96987220D01*
X94382473Y-97006527D01*
X94459521Y-97069759D01*
X94547425Y-97116745D01*
X94642807Y-97145678D01*
X94742000Y-97155448D01*
X94766854Y-97153000D01*
X104337109Y-97153000D01*
X104370146Y-97214808D01*
X104525677Y-97404323D01*
X104715192Y-97559854D01*
X104931408Y-97675424D01*
X105031000Y-97705635D01*
X105031000Y-97813557D01*
X104546400Y-97813557D01*
X104471711Y-97820913D01*
X104399892Y-97842699D01*
X104333704Y-97878078D01*
X104275689Y-97925689D01*
X104228078Y-97983704D01*
X104192699Y-98049892D01*
X104170913Y-98121711D01*
X104163557Y-98196400D01*
X104163557Y-99923600D01*
X104170913Y-99998289D01*
X104192699Y-100070108D01*
X104228078Y-100136296D01*
X104275689Y-100194311D01*
X104333704Y-100241922D01*
X104399892Y-100277301D01*
X104471711Y-100299087D01*
X104546400Y-100306443D01*
X106273600Y-100306443D01*
X106348289Y-100299087D01*
X106420108Y-100277301D01*
X106486296Y-100241922D01*
X106544311Y-100194311D01*
X106591922Y-100136296D01*
X106627301Y-100070108D01*
X106649087Y-99998289D01*
X106656443Y-99923600D01*
X106656443Y-99812162D01*
X106667316Y-99834944D01*
X106843146Y-100070293D01*
X107061512Y-100266817D01*
X107314022Y-100416964D01*
X107590973Y-100514963D01*
X107823000Y-100394464D01*
X107823000Y-99187000D01*
X108077000Y-99187000D01*
X108077000Y-100394464D01*
X108309027Y-100514963D01*
X108585978Y-100416964D01*
X108838488Y-100266817D01*
X109056854Y-100070293D01*
X109232684Y-99834944D01*
X109359222Y-99569814D01*
X109404958Y-99419026D01*
X109283817Y-99187000D01*
X108077000Y-99187000D01*
X107823000Y-99187000D01*
X107803000Y-99187000D01*
X107803000Y-98933000D01*
X107823000Y-98933000D01*
X107823000Y-96647000D01*
X108077000Y-96647000D01*
X108077000Y-98933000D01*
X109283817Y-98933000D01*
X109404958Y-98700974D01*
X109359222Y-98550186D01*
X109232684Y-98285056D01*
X109056854Y-98049707D01*
X108838488Y-97853183D01*
X108732230Y-97790000D01*
X108838488Y-97726817D01*
X109056854Y-97530293D01*
X109232684Y-97294944D01*
X109359222Y-97029814D01*
X109404958Y-96879026D01*
X109283817Y-96647000D01*
X108077000Y-96647000D01*
X107823000Y-96647000D01*
X107803000Y-96647000D01*
X107803000Y-96393000D01*
X107823000Y-96393000D01*
X107823000Y-94107000D01*
X108077000Y-94107000D01*
X108077000Y-96393000D01*
X109283817Y-96393000D01*
X109404958Y-96160974D01*
X109359222Y-96010186D01*
X109232684Y-95745056D01*
X109056854Y-95509707D01*
X108838488Y-95313183D01*
X108732230Y-95250000D01*
X108838488Y-95186817D01*
X109056854Y-94990293D01*
X109232684Y-94754944D01*
X109359222Y-94489814D01*
X109404958Y-94339026D01*
X109283817Y-94107000D01*
X108077000Y-94107000D01*
X107823000Y-94107000D01*
X107803000Y-94107000D01*
X107803000Y-93853000D01*
X107823000Y-93853000D01*
X107823000Y-91567000D01*
X108077000Y-91567000D01*
X108077000Y-93853000D01*
X109283817Y-93853000D01*
X109404958Y-93620974D01*
X109359222Y-93470186D01*
X109232684Y-93205056D01*
X109056854Y-92969707D01*
X108838488Y-92773183D01*
X108732230Y-92710000D01*
X108838488Y-92646817D01*
X109056854Y-92450293D01*
X109232684Y-92214944D01*
X109359222Y-91949814D01*
X109404958Y-91799026D01*
X109283817Y-91567000D01*
X108077000Y-91567000D01*
X107823000Y-91567000D01*
X107803000Y-91567000D01*
X107803000Y-91313000D01*
X107823000Y-91313000D01*
X107823000Y-89027000D01*
X108077000Y-89027000D01*
X108077000Y-91313000D01*
X109283817Y-91313000D01*
X109404958Y-91080974D01*
X109359222Y-90930186D01*
X109232684Y-90665056D01*
X109056854Y-90429707D01*
X108838488Y-90233183D01*
X108732230Y-90170000D01*
X108838488Y-90106817D01*
X109056854Y-89910293D01*
X109232684Y-89674944D01*
X109359222Y-89409814D01*
X109404958Y-89259026D01*
X109283817Y-89027000D01*
X108077000Y-89027000D01*
X107823000Y-89027000D01*
X107803000Y-89027000D01*
X107803000Y-88773000D01*
X107823000Y-88773000D01*
X107823000Y-86487000D01*
X108077000Y-86487000D01*
X108077000Y-88773000D01*
X109283817Y-88773000D01*
X109404958Y-88540974D01*
X109359222Y-88390186D01*
X109232684Y-88125056D01*
X109056854Y-87889707D01*
X108838488Y-87693183D01*
X108732230Y-87630000D01*
X108838488Y-87566817D01*
X109056854Y-87370293D01*
X109232684Y-87134944D01*
X109359222Y-86869814D01*
X109404958Y-86719026D01*
X109283817Y-86487000D01*
X108077000Y-86487000D01*
X107823000Y-86487000D01*
X107803000Y-86487000D01*
X107803000Y-86233000D01*
X107823000Y-86233000D01*
X107823000Y-83947000D01*
X108077000Y-83947000D01*
X108077000Y-86233000D01*
X109283817Y-86233000D01*
X109404958Y-86000974D01*
X109359222Y-85850186D01*
X109232684Y-85585056D01*
X109056854Y-85349707D01*
X108838488Y-85153183D01*
X108732230Y-85090000D01*
X108838488Y-85026817D01*
X109056854Y-84830293D01*
X109232684Y-84594944D01*
X109359222Y-84329814D01*
X109404958Y-84179026D01*
X109283817Y-83947000D01*
X108077000Y-83947000D01*
X107823000Y-83947000D01*
X107803000Y-83947000D01*
X107803000Y-83693000D01*
X107823000Y-83693000D01*
X107823000Y-81407000D01*
X108077000Y-81407000D01*
X108077000Y-83693000D01*
X109283817Y-83693000D01*
X109404958Y-83460974D01*
X109359222Y-83310186D01*
X109232684Y-83045056D01*
X109056854Y-82809707D01*
X108838488Y-82613183D01*
X108732230Y-82550000D01*
X108838488Y-82486817D01*
X109056854Y-82290293D01*
X109232684Y-82054944D01*
X109359222Y-81789814D01*
X109404958Y-81639026D01*
X109283817Y-81407000D01*
X108077000Y-81407000D01*
X107823000Y-81407000D01*
X107803000Y-81407000D01*
X107803000Y-81153000D01*
X107823000Y-81153000D01*
X107823000Y-79945536D01*
X108077000Y-79945536D01*
X108077000Y-81153000D01*
X109283817Y-81153000D01*
X109404958Y-80920974D01*
X109359222Y-80770186D01*
X109232684Y-80505056D01*
X109056854Y-80269707D01*
X108838488Y-80073183D01*
X108585978Y-79923036D01*
X108309027Y-79825037D01*
X108077000Y-79945536D01*
X107823000Y-79945536D01*
X107590973Y-79825037D01*
X107314022Y-79923036D01*
X107061512Y-80073183D01*
X106843146Y-80269707D01*
X106667316Y-80505056D01*
X106544532Y-80762321D01*
X106449854Y-80585192D01*
X106294323Y-80395677D01*
X106104808Y-80240146D01*
X105888592Y-80124576D01*
X105653984Y-80053408D01*
X105471143Y-80035400D01*
X105348857Y-80035400D01*
X105166016Y-80053408D01*
X104931408Y-80124576D01*
X104715192Y-80240146D01*
X104525677Y-80395677D01*
X104370146Y-80585192D01*
X104254576Y-80801408D01*
X104183408Y-81036016D01*
X104159378Y-81280000D01*
X104183408Y-81523984D01*
X104245555Y-81728853D01*
X100767576Y-85206833D01*
X100780715Y-85183127D01*
X100797469Y-85130781D01*
X100830000Y-85098250D01*
X100822553Y-85030000D01*
X100830000Y-84961750D01*
X100797469Y-84929219D01*
X100780715Y-84876873D01*
X100720078Y-84767469D01*
X100639263Y-84671997D01*
X100557558Y-84607000D01*
X100671250Y-84607000D01*
X100830000Y-84448250D01*
X100818844Y-84346004D01*
X100780715Y-84226873D01*
X100720078Y-84117469D01*
X100639263Y-84021997D01*
X100541375Y-83944126D01*
X100430175Y-83886849D01*
X100309939Y-83852366D01*
X100185285Y-83842002D01*
X99755750Y-83845000D01*
X99597000Y-84003750D01*
X99597000Y-84607000D01*
X99643750Y-84607000D01*
X99597000Y-84653750D01*
X99597000Y-84852000D01*
X99343000Y-84852000D01*
X99343000Y-84653750D01*
X99296250Y-84607000D01*
X99343000Y-84607000D01*
X99343000Y-84003750D01*
X99184250Y-83845000D01*
X98754715Y-83842002D01*
X98630061Y-83852366D01*
X98509825Y-83886849D01*
X98398625Y-83944126D01*
X98300737Y-84021997D01*
X98219922Y-84117469D01*
X98159285Y-84226873D01*
X98121156Y-84346004D01*
X98110000Y-84448250D01*
X98268750Y-84607000D01*
X98382442Y-84607000D01*
X98300737Y-84671997D01*
X98219922Y-84767469D01*
X98159285Y-84876873D01*
X98142531Y-84929219D01*
X98110000Y-84961750D01*
X98117447Y-85030000D01*
X98110000Y-85098250D01*
X98142531Y-85130781D01*
X98159285Y-85183127D01*
X98219922Y-85292531D01*
X98300737Y-85388003D01*
X98382442Y-85453000D01*
X98268750Y-85453000D01*
X98110000Y-85611750D01*
X98121156Y-85713996D01*
X98159285Y-85833127D01*
X98219922Y-85942531D01*
X98300737Y-86038003D01*
X98362157Y-86086863D01*
X98362157Y-86230000D01*
X98369513Y-86304689D01*
X98377191Y-86330000D01*
X98369513Y-86355311D01*
X98362157Y-86430000D01*
X98362157Y-86880000D01*
X98369513Y-86954689D01*
X98377191Y-86980000D01*
X98369513Y-87005311D01*
X98362157Y-87080000D01*
X98362157Y-87530000D01*
X98369513Y-87604689D01*
X98377191Y-87630000D01*
X98369513Y-87655311D01*
X98362157Y-87730000D01*
X98362157Y-88180000D01*
X98369513Y-88254689D01*
X98377191Y-88280000D01*
X98369513Y-88305311D01*
X98362157Y-88380000D01*
X98362157Y-88830000D01*
X98369513Y-88904689D01*
X98377191Y-88930000D01*
X98369513Y-88955311D01*
X98362157Y-89030000D01*
X98362157Y-89480000D01*
X98369513Y-89554689D01*
X98377191Y-89580000D01*
X98369513Y-89605311D01*
X98362157Y-89680000D01*
X98362157Y-89823137D01*
X98300737Y-89871997D01*
X98219922Y-89967469D01*
X98159285Y-90076873D01*
X98121156Y-90196004D01*
X98110000Y-90298250D01*
X98268750Y-90457000D01*
X98548539Y-90457000D01*
X98598492Y-90483701D01*
X98670311Y-90505487D01*
X98745000Y-90512843D01*
X99617000Y-90512843D01*
X99617000Y-90653000D01*
X99597000Y-90653000D01*
X99597000Y-91256250D01*
X99755750Y-91415000D01*
X100185285Y-91417998D01*
X100309939Y-91407634D01*
X100430175Y-91373151D01*
X100541375Y-91315874D01*
X100639263Y-91238003D01*
X100720078Y-91142531D01*
X100780715Y-91033127D01*
X100799341Y-90974932D01*
X103715399Y-93890991D01*
X103715400Y-95370043D01*
X103712952Y-95394899D01*
X103722721Y-95494091D01*
X103751654Y-95589473D01*
X103767130Y-95618426D01*
X103798641Y-95677378D01*
X103861873Y-95754426D01*
X103881179Y-95770270D01*
X104230776Y-96119867D01*
X104224365Y-96141000D01*
X95685060Y-96141000D01*
X95735537Y-96079494D01*
X95794502Y-95969180D01*
X95830812Y-95849482D01*
X95843072Y-95725000D01*
X95840000Y-95535750D01*
X95681250Y-95377000D01*
X94894500Y-95377000D01*
X94894500Y-95397000D01*
X94640500Y-95397000D01*
X94640500Y-95377000D01*
X94620500Y-95377000D01*
X94620500Y-95123000D01*
X94640500Y-95123000D01*
X94640500Y-94298750D01*
X94894500Y-94298750D01*
X94894500Y-95123000D01*
X95681250Y-95123000D01*
X95840000Y-94964250D01*
X95843072Y-94775000D01*
X95830812Y-94650518D01*
X95794502Y-94530820D01*
X95735537Y-94420506D01*
X95656185Y-94323815D01*
X95559494Y-94244463D01*
X95449180Y-94185498D01*
X95329482Y-94149188D01*
X95205000Y-94136928D01*
X95053250Y-94140000D01*
X94894500Y-94298750D01*
X94640500Y-94298750D01*
X94481750Y-94140000D01*
X94330000Y-94136928D01*
X94205518Y-94149188D01*
X94085820Y-94185498D01*
X93975506Y-94244463D01*
X93878815Y-94323815D01*
X93799463Y-94420506D01*
X93787500Y-94442887D01*
X93787500Y-93517113D01*
X93799463Y-93539494D01*
X93878815Y-93636185D01*
X93975506Y-93715537D01*
X94085820Y-93774502D01*
X94205518Y-93810812D01*
X94330000Y-93823072D01*
X94481750Y-93820000D01*
X94640500Y-93661250D01*
X94640500Y-92837000D01*
X94894500Y-92837000D01*
X94894500Y-93661250D01*
X95053250Y-93820000D01*
X95205000Y-93823072D01*
X95329482Y-93810812D01*
X95449180Y-93774502D01*
X95559494Y-93715537D01*
X95656185Y-93636185D01*
X95735537Y-93539494D01*
X95794502Y-93429180D01*
X95830812Y-93309482D01*
X95843072Y-93185000D01*
X95840000Y-92995750D01*
X95681250Y-92837000D01*
X94894500Y-92837000D01*
X94640500Y-92837000D01*
X94620500Y-92837000D01*
X94620500Y-92583000D01*
X94640500Y-92583000D01*
X94640500Y-91758750D01*
X94894500Y-91758750D01*
X94894500Y-92583000D01*
X95681250Y-92583000D01*
X95840000Y-92424250D01*
X95843072Y-92235000D01*
X95830812Y-92110518D01*
X95794502Y-91990820D01*
X95735537Y-91880506D01*
X95656185Y-91783815D01*
X95559494Y-91704463D01*
X95449180Y-91645498D01*
X95329482Y-91609188D01*
X95205000Y-91596928D01*
X95053250Y-91600000D01*
X94894500Y-91758750D01*
X94640500Y-91758750D01*
X94481750Y-91600000D01*
X94330000Y-91596928D01*
X94205518Y-91609188D01*
X94085820Y-91645498D01*
X93975506Y-91704463D01*
X93878815Y-91783815D01*
X93799463Y-91880506D01*
X93787500Y-91902887D01*
X93787500Y-91528091D01*
X93910215Y-91405376D01*
X93929527Y-91389527D01*
X93992759Y-91312479D01*
X94039745Y-91224575D01*
X94058471Y-91162843D01*
X94295000Y-91162843D01*
X94369689Y-91155487D01*
X94441508Y-91133701D01*
X94507696Y-91098322D01*
X94565711Y-91050711D01*
X94613322Y-90992696D01*
X94648701Y-90926508D01*
X94670487Y-90854689D01*
X94674715Y-90811750D01*
X98110000Y-90811750D01*
X98121156Y-90913996D01*
X98159285Y-91033127D01*
X98219922Y-91142531D01*
X98300737Y-91238003D01*
X98398625Y-91315874D01*
X98509825Y-91373151D01*
X98630061Y-91407634D01*
X98754715Y-91417998D01*
X99184250Y-91415000D01*
X99343000Y-91256250D01*
X99343000Y-90653000D01*
X98268750Y-90653000D01*
X98110000Y-90811750D01*
X94674715Y-90811750D01*
X94677843Y-90780000D01*
X94677843Y-90636863D01*
X94739263Y-90588003D01*
X94820078Y-90492531D01*
X94880715Y-90383127D01*
X94918844Y-90263996D01*
X94930000Y-90161750D01*
X94771250Y-90003000D01*
X94491461Y-90003000D01*
X94441508Y-89976299D01*
X94369689Y-89954513D01*
X94295000Y-89947157D01*
X93423000Y-89947157D01*
X93423000Y-89862843D01*
X94295000Y-89862843D01*
X94369689Y-89855487D01*
X94441508Y-89833701D01*
X94491461Y-89807000D01*
X94771250Y-89807000D01*
X94930000Y-89648250D01*
X94918844Y-89546004D01*
X94880715Y-89426873D01*
X94820078Y-89317469D01*
X94739263Y-89221997D01*
X94677843Y-89173137D01*
X94677843Y-89030000D01*
X94670487Y-88955311D01*
X94662809Y-88930000D01*
X94670487Y-88904689D01*
X94677843Y-88830000D01*
X94677843Y-88380000D01*
X94670487Y-88305311D01*
X94662809Y-88280000D01*
X94670487Y-88254689D01*
X94677843Y-88180000D01*
X94677843Y-87730000D01*
X94670487Y-87655311D01*
X94662809Y-87630000D01*
X94670487Y-87604689D01*
X94677843Y-87530000D01*
X94677843Y-87080000D01*
X94670487Y-87005311D01*
X94662809Y-86980000D01*
X94670487Y-86954689D01*
X94677843Y-86880000D01*
X94677843Y-86430000D01*
X94670487Y-86355311D01*
X94662809Y-86330000D01*
X94670487Y-86304689D01*
X94677843Y-86230000D01*
X94677843Y-85780000D01*
X94670487Y-85705311D01*
X94662809Y-85680000D01*
X94670487Y-85654689D01*
X94677843Y-85580000D01*
X94677843Y-85130000D01*
X94670487Y-85055311D01*
X94662809Y-85030000D01*
X94670487Y-85004689D01*
X94677843Y-84930000D01*
X94677843Y-84480000D01*
X94670487Y-84405311D01*
X94648701Y-84333492D01*
X94613322Y-84267304D01*
X94565711Y-84209289D01*
X94507696Y-84161678D01*
X94441508Y-84126299D01*
X94369689Y-84104513D01*
X94295000Y-84097157D01*
X94076000Y-84097157D01*
X94076000Y-78863352D01*
X94078447Y-78838506D01*
X94076000Y-78813660D01*
X94076000Y-78813652D01*
X94068678Y-78739313D01*
X94039745Y-78643931D01*
X93992759Y-78556027D01*
X93929527Y-78478979D01*
X93910220Y-78463134D01*
X90506860Y-75059775D01*
X90491011Y-75040463D01*
X90413963Y-74977231D01*
X90326059Y-74930245D01*
X90230677Y-74901312D01*
X90156338Y-74893990D01*
X90156330Y-74893990D01*
X90131484Y-74891543D01*
X90106638Y-74893990D01*
X87693361Y-74893990D01*
X87668515Y-74891543D01*
X87643669Y-74893990D01*
X87643662Y-74893990D01*
X87569323Y-74901312D01*
X87473941Y-74930245D01*
X87386037Y-74977231D01*
X87308989Y-75040463D01*
X87293144Y-75059770D01*
X83987785Y-78365130D01*
X83968473Y-78380979D01*
X83905241Y-78458027D01*
X83863217Y-78536649D01*
X83797600Y-78503901D01*
X83676934Y-78470952D01*
X83601750Y-78465000D01*
X83443000Y-78623750D01*
X83197000Y-78623750D01*
X83038250Y-78465000D01*
X82963066Y-78470952D01*
X82842400Y-78503901D01*
X82730480Y-78559757D01*
X82631608Y-78636375D01*
X82549583Y-78730810D01*
X82487557Y-78839432D01*
X82447914Y-78958068D01*
X82435000Y-79068250D01*
X80406000Y-79068250D01*
X80406000Y-68911548D01*
X81374000Y-68911548D01*
X81374000Y-69518452D01*
X81492401Y-70113695D01*
X81724653Y-70674401D01*
X82061831Y-71179023D01*
X82490977Y-71608169D01*
X82995599Y-71945347D01*
X83556305Y-72177599D01*
X84151548Y-72296000D01*
X84758452Y-72296000D01*
X85353695Y-72177599D01*
X85914401Y-71945347D01*
X86419023Y-71608169D01*
X86848169Y-71179023D01*
X87185347Y-70674401D01*
X87417599Y-70113695D01*
X87536000Y-69518452D01*
X87536000Y-68911548D01*
X105504000Y-68911548D01*
X105504000Y-69518452D01*
X105622401Y-70113695D01*
X105854653Y-70674401D01*
X106191831Y-71179023D01*
X106620977Y-71608169D01*
X107125599Y-71945347D01*
X107686305Y-72177599D01*
X108281548Y-72296000D01*
X108888452Y-72296000D01*
X109483695Y-72177599D01*
X110044401Y-71945347D01*
X110549023Y-71608169D01*
X110978169Y-71179023D01*
X111315347Y-70674401D01*
X111547599Y-70113695D01*
X111666000Y-69518452D01*
X111666000Y-68911548D01*
X111547599Y-68316305D01*
X111315347Y-67755599D01*
X110978169Y-67250977D01*
X110549023Y-66821831D01*
X110044401Y-66484653D01*
X109483695Y-66252401D01*
X108888452Y-66134000D01*
X108281548Y-66134000D01*
X107686305Y-66252401D01*
X107125599Y-66484653D01*
X106620977Y-66821831D01*
X106191831Y-67250977D01*
X105854653Y-67755599D01*
X105622401Y-68316305D01*
X105504000Y-68911548D01*
X87536000Y-68911548D01*
X87417599Y-68316305D01*
X87185347Y-67755599D01*
X86848169Y-67250977D01*
X86419023Y-66821831D01*
X85914401Y-66484653D01*
X85353695Y-66252401D01*
X84758452Y-66134000D01*
X84151548Y-66134000D01*
X83556305Y-66252401D01*
X82995599Y-66484653D01*
X82490977Y-66821831D01*
X82061831Y-67250977D01*
X81724653Y-67755599D01*
X81492401Y-68316305D01*
X81374000Y-68911548D01*
X80406000Y-68911548D01*
X80406000Y-65176000D01*
X112624001Y-65176000D01*
X112624000Y-114577500D01*
X112624000Y-114577500D01*
G37*
X112624000Y-114577500D02*
X80406000Y-114577500D01*
X80406000Y-110250048D01*
X81374000Y-110250048D01*
X81374000Y-110856952D01*
X81492401Y-111452195D01*
X81724653Y-112012901D01*
X82061831Y-112517523D01*
X82490977Y-112946669D01*
X82995599Y-113283847D01*
X83556305Y-113516099D01*
X84151548Y-113634500D01*
X84758452Y-113634500D01*
X85353695Y-113516099D01*
X85914401Y-113283847D01*
X86419023Y-112946669D01*
X86848169Y-112517523D01*
X87185347Y-112012901D01*
X87417599Y-111452195D01*
X87536000Y-110856952D01*
X87536000Y-110250048D01*
X105504000Y-110250048D01*
X105504000Y-110856952D01*
X105622401Y-111452195D01*
X105854653Y-112012901D01*
X106191831Y-112517523D01*
X106620977Y-112946669D01*
X107125599Y-113283847D01*
X107686305Y-113516099D01*
X108281548Y-113634500D01*
X108888452Y-113634500D01*
X109483695Y-113516099D01*
X110044401Y-113283847D01*
X110549023Y-112946669D01*
X110978169Y-112517523D01*
X111315347Y-112012901D01*
X111547599Y-111452195D01*
X111666000Y-110856952D01*
X111666000Y-110250048D01*
X111547599Y-109654805D01*
X111315347Y-109094099D01*
X110978169Y-108589477D01*
X110549023Y-108160331D01*
X110044401Y-107823153D01*
X109483695Y-107590901D01*
X108888452Y-107472500D01*
X108281548Y-107472500D01*
X107686305Y-107590901D01*
X107125599Y-107823153D01*
X106620977Y-108160331D01*
X106191831Y-108589477D01*
X105854653Y-109094099D01*
X105622401Y-109654805D01*
X105504000Y-110250048D01*
X87536000Y-110250048D01*
X87417599Y-109654805D01*
X87185347Y-109094099D01*
X86848169Y-108589477D01*
X86419023Y-108160331D01*
X85914401Y-107823153D01*
X85353695Y-107590901D01*
X84758452Y-107472500D01*
X84151548Y-107472500D01*
X83556305Y-107590901D01*
X82995599Y-107823153D01*
X82490977Y-108160331D01*
X82061831Y-108589477D01*
X81724653Y-109094099D01*
X81492401Y-109654805D01*
X81374000Y-110250048D01*
X80406000Y-110250048D01*
X80406000Y-93038250D01*
X82435000Y-93038250D01*
X82571884Y-93175134D01*
X82549583Y-93200810D01*
X82487557Y-93309432D01*
X82457566Y-93399184D01*
X82435000Y-93421750D01*
X82441827Y-93480000D01*
X82435000Y-93538250D01*
X82457566Y-93560816D01*
X82487557Y-93650568D01*
X82532915Y-93730000D01*
X82487557Y-93809432D01*
X82457566Y-93899184D01*
X82435000Y-93921750D01*
X82441827Y-93980000D01*
X82435000Y-94038250D01*
X82457566Y-94060816D01*
X82487557Y-94150568D01*
X82532915Y-94230000D01*
X82487557Y-94309432D01*
X82457566Y-94399184D01*
X82435000Y-94421750D01*
X82441827Y-94480000D01*
X82435000Y-94538250D01*
X82457566Y-94560816D01*
X82487557Y-94650568D01*
X82549583Y-94759190D01*
X82571884Y-94784866D01*
X82435000Y-94921750D01*
X82447914Y-95031932D01*
X82487557Y-95150568D01*
X82549583Y-95259190D01*
X82631608Y-95353625D01*
X82730480Y-95430243D01*
X82842400Y-95486099D01*
X82963066Y-95519048D01*
X83038250Y-95525000D01*
X83197000Y-95366250D01*
X83197000Y-92593750D01*
X83038250Y-92435000D01*
X82963066Y-92440952D01*
X82842400Y-92473901D01*
X82730480Y-92529757D01*
X82631608Y-92606375D01*
X82549583Y-92700810D01*
X82487557Y-92809432D01*
X82447914Y-92928068D01*
X82435000Y-93038250D01*
X80406000Y-93038250D01*
X80406000Y-79068250D01*
X82435000Y-79068250D01*
X82571884Y-79205134D01*
X82549583Y-79230810D01*
X82487557Y-79339432D01*
X82457566Y-79429184D01*
X82435000Y-79451750D01*
X82441827Y-79510000D01*
X82435000Y-79568250D01*
X82457566Y-79590816D01*
X82487557Y-79680568D01*
X82532915Y-79760000D01*
X82487557Y-79839432D01*
X82457566Y-79929184D01*
X82435000Y-79951750D01*
X82441827Y-80010000D01*
X82435000Y-80068250D01*
X82457566Y-80090816D01*
X82487557Y-80180568D01*
X82532915Y-80260000D01*
X82487557Y-80339432D01*
X82457566Y-80429184D01*
X82435000Y-80451750D01*
X82441827Y-80510000D01*
X82435000Y-80568250D01*
X82457566Y-80590816D01*
X82487557Y-80680568D01*
X82549583Y-80789190D01*
X82571884Y-80814866D01*
X82435000Y-80951750D01*
X82447914Y-81061932D01*
X82487557Y-81180568D01*
X82549583Y-81289190D01*
X82631608Y-81383625D01*
X82730480Y-81460243D01*
X82842400Y-81516099D01*
X82963066Y-81549048D01*
X83038250Y-81555000D01*
X83197000Y-81396250D01*
X83197000Y-78623750D01*
X83443000Y-78623750D01*
X83443000Y-81396250D01*
X83601750Y-81555000D01*
X83676934Y-81549048D01*
X83797600Y-81516099D01*
X83909520Y-81460243D01*
X84008392Y-81383625D01*
X84078558Y-81302843D01*
X84192431Y-81302843D01*
X84196925Y-81305245D01*
X84292307Y-81334178D01*
X84366646Y-81341500D01*
X84380909Y-81341500D01*
X87199628Y-84160220D01*
X87215473Y-84179527D01*
X87292521Y-84242759D01*
X87323676Y-84259412D01*
X87337951Y-84306470D01*
X87393544Y-84410477D01*
X87468360Y-84501640D01*
X87559523Y-84576456D01*
X87663530Y-84632049D01*
X87776385Y-84666284D01*
X87893750Y-84677843D01*
X88331250Y-84677843D01*
X88448615Y-84666284D01*
X88561470Y-84632049D01*
X88665477Y-84576456D01*
X88756640Y-84501640D01*
X88831456Y-84410477D01*
X88887049Y-84306470D01*
X88900000Y-84263777D01*
X88912951Y-84306470D01*
X88968544Y-84410477D01*
X89043360Y-84501640D01*
X89134523Y-84576456D01*
X89238530Y-84632049D01*
X89351385Y-84666284D01*
X89468750Y-84677843D01*
X89829752Y-84677843D01*
X91958408Y-86806500D01*
X90567354Y-86806500D01*
X90542500Y-86804052D01*
X90517646Y-86806500D01*
X90443307Y-86813822D01*
X90347925Y-86842755D01*
X90260137Y-86889679D01*
X90240477Y-86873544D01*
X90136470Y-86817951D01*
X90023615Y-86783716D01*
X89906250Y-86772157D01*
X89468750Y-86772157D01*
X89351385Y-86783716D01*
X89238530Y-86817951D01*
X89134523Y-86873544D01*
X89043360Y-86948360D01*
X88968544Y-87039523D01*
X88912951Y-87143530D01*
X88900000Y-87186223D01*
X88887049Y-87143530D01*
X88831456Y-87039523D01*
X88756640Y-86948360D01*
X88665477Y-86873544D01*
X88561470Y-86817951D01*
X88448615Y-86783716D01*
X88331250Y-86772157D01*
X87893750Y-86772157D01*
X87776385Y-86783716D01*
X87663530Y-86817951D01*
X87559523Y-86873544D01*
X87468360Y-86948360D01*
X87393544Y-87039523D01*
X87337951Y-87143530D01*
X87303716Y-87256385D01*
X87292157Y-87373750D01*
X87292157Y-87886250D01*
X87303716Y-88003615D01*
X87337951Y-88116470D01*
X87393544Y-88220477D01*
X87468360Y-88311640D01*
X87559523Y-88386456D01*
X87606500Y-88411566D01*
X87606501Y-89160407D01*
X84079752Y-92687157D01*
X84078558Y-92687157D01*
X84008392Y-92606375D01*
X83909520Y-92529757D01*
X83797600Y-92473901D01*
X83676934Y-92440952D01*
X83601750Y-92435000D01*
X83443000Y-92593750D01*
X83443000Y-95366250D01*
X83601750Y-95525000D01*
X83676934Y-95519048D01*
X83797600Y-95486099D01*
X83822000Y-95473922D01*
X83822000Y-95788153D01*
X83819553Y-95813000D01*
X83822000Y-95837846D01*
X83822000Y-95837853D01*
X83829322Y-95912192D01*
X83858255Y-96007574D01*
X83905241Y-96095479D01*
X83968473Y-96172527D01*
X83987785Y-96188376D01*
X87199628Y-99400220D01*
X87215473Y-99419527D01*
X87292521Y-99482759D01*
X87323676Y-99499412D01*
X87337951Y-99546470D01*
X87393544Y-99650477D01*
X87468360Y-99741640D01*
X87559523Y-99816456D01*
X87663530Y-99872049D01*
X87776385Y-99906284D01*
X87893750Y-99917843D01*
X88331250Y-99917843D01*
X88448615Y-99906284D01*
X88561470Y-99872049D01*
X88665477Y-99816456D01*
X88756640Y-99741640D01*
X88831456Y-99650477D01*
X88887049Y-99546470D01*
X88900000Y-99503777D01*
X88912951Y-99546470D01*
X88968544Y-99650477D01*
X89043360Y-99741640D01*
X89134523Y-99816456D01*
X89238530Y-99872049D01*
X89351385Y-99906284D01*
X89468750Y-99917843D01*
X89906250Y-99917843D01*
X90023615Y-99906284D01*
X90136470Y-99872049D01*
X90240477Y-99816456D01*
X90331640Y-99741640D01*
X90406456Y-99650477D01*
X90462049Y-99546470D01*
X90496284Y-99433615D01*
X90507843Y-99316250D01*
X90507843Y-98803750D01*
X90496284Y-98686385D01*
X90462049Y-98573530D01*
X90410675Y-98477416D01*
X91658730Y-97229362D01*
X91678037Y-97213517D01*
X91741269Y-97136469D01*
X91788255Y-97048565D01*
X91817188Y-96953183D01*
X91824510Y-96878844D01*
X91824510Y-96878837D01*
X91826957Y-96853991D01*
X91824510Y-96829145D01*
X91824510Y-90831079D01*
X92263984Y-90391605D01*
X92319922Y-90492531D01*
X92400737Y-90588003D01*
X92462157Y-90636863D01*
X92462157Y-90780000D01*
X92469513Y-90854689D01*
X92491299Y-90926508D01*
X92526678Y-90992696D01*
X92574289Y-91050711D01*
X92632304Y-91098322D01*
X92698492Y-91133701D01*
X92770311Y-91155487D01*
X92801257Y-91158535D01*
X92782822Y-91219308D01*
X92775500Y-91293647D01*
X92775500Y-91293654D01*
X92773053Y-91318500D01*
X92775500Y-91343346D01*
X92775500Y-91888253D01*
X92743530Y-91897951D01*
X92639523Y-91953544D01*
X92548360Y-92028360D01*
X92473544Y-92119523D01*
X92417951Y-92223530D01*
X92383716Y-92336385D01*
X92372157Y-92453750D01*
X92372157Y-92966250D01*
X92383716Y-93083615D01*
X92417951Y-93196470D01*
X92473544Y-93300477D01*
X92548360Y-93391640D01*
X92639523Y-93466456D01*
X92743530Y-93522049D01*
X92775501Y-93531747D01*
X92775501Y-94428253D01*
X92743530Y-94437951D01*
X92639523Y-94493544D01*
X92548360Y-94568360D01*
X92473544Y-94659523D01*
X92417951Y-94763530D01*
X92383716Y-94876385D01*
X92372157Y-94993750D01*
X92372157Y-95506250D01*
X92383716Y-95623615D01*
X92417951Y-95736470D01*
X92473544Y-95840477D01*
X92548360Y-95931640D01*
X92639523Y-96006456D01*
X92743530Y-96062049D01*
X92856385Y-96096284D01*
X92973750Y-96107843D01*
X93411250Y-96107843D01*
X93480438Y-96101029D01*
X94366628Y-96987220D01*
X94382473Y-97006527D01*
X94459521Y-97069759D01*
X94547425Y-97116745D01*
X94642807Y-97145678D01*
X94742000Y-97155448D01*
X94766854Y-97153000D01*
X104337109Y-97153000D01*
X104370146Y-97214808D01*
X104525677Y-97404323D01*
X104715192Y-97559854D01*
X104931408Y-97675424D01*
X105031000Y-97705635D01*
X105031000Y-97813557D01*
X104546400Y-97813557D01*
X104471711Y-97820913D01*
X104399892Y-97842699D01*
X104333704Y-97878078D01*
X104275689Y-97925689D01*
X104228078Y-97983704D01*
X104192699Y-98049892D01*
X104170913Y-98121711D01*
X104163557Y-98196400D01*
X104163557Y-99923600D01*
X104170913Y-99998289D01*
X104192699Y-100070108D01*
X104228078Y-100136296D01*
X104275689Y-100194311D01*
X104333704Y-100241922D01*
X104399892Y-100277301D01*
X104471711Y-100299087D01*
X104546400Y-100306443D01*
X106273600Y-100306443D01*
X106348289Y-100299087D01*
X106420108Y-100277301D01*
X106486296Y-100241922D01*
X106544311Y-100194311D01*
X106591922Y-100136296D01*
X106627301Y-100070108D01*
X106649087Y-99998289D01*
X106656443Y-99923600D01*
X106656443Y-99812162D01*
X106667316Y-99834944D01*
X106843146Y-100070293D01*
X107061512Y-100266817D01*
X107314022Y-100416964D01*
X107590973Y-100514963D01*
X107823000Y-100394464D01*
X107823000Y-99187000D01*
X108077000Y-99187000D01*
X108077000Y-100394464D01*
X108309027Y-100514963D01*
X108585978Y-100416964D01*
X108838488Y-100266817D01*
X109056854Y-100070293D01*
X109232684Y-99834944D01*
X109359222Y-99569814D01*
X109404958Y-99419026D01*
X109283817Y-99187000D01*
X108077000Y-99187000D01*
X107823000Y-99187000D01*
X107803000Y-99187000D01*
X107803000Y-98933000D01*
X107823000Y-98933000D01*
X107823000Y-96647000D01*
X108077000Y-96647000D01*
X108077000Y-98933000D01*
X109283817Y-98933000D01*
X109404958Y-98700974D01*
X109359222Y-98550186D01*
X109232684Y-98285056D01*
X109056854Y-98049707D01*
X108838488Y-97853183D01*
X108732230Y-97790000D01*
X108838488Y-97726817D01*
X109056854Y-97530293D01*
X109232684Y-97294944D01*
X109359222Y-97029814D01*
X109404958Y-96879026D01*
X109283817Y-96647000D01*
X108077000Y-96647000D01*
X107823000Y-96647000D01*
X107803000Y-96647000D01*
X107803000Y-96393000D01*
X107823000Y-96393000D01*
X107823000Y-94107000D01*
X108077000Y-94107000D01*
X108077000Y-96393000D01*
X109283817Y-96393000D01*
X109404958Y-96160974D01*
X109359222Y-96010186D01*
X109232684Y-95745056D01*
X109056854Y-95509707D01*
X108838488Y-95313183D01*
X108732230Y-95250000D01*
X108838488Y-95186817D01*
X109056854Y-94990293D01*
X109232684Y-94754944D01*
X109359222Y-94489814D01*
X109404958Y-94339026D01*
X109283817Y-94107000D01*
X108077000Y-94107000D01*
X107823000Y-94107000D01*
X107803000Y-94107000D01*
X107803000Y-93853000D01*
X107823000Y-93853000D01*
X107823000Y-91567000D01*
X108077000Y-91567000D01*
X108077000Y-93853000D01*
X109283817Y-93853000D01*
X109404958Y-93620974D01*
X109359222Y-93470186D01*
X109232684Y-93205056D01*
X109056854Y-92969707D01*
X108838488Y-92773183D01*
X108732230Y-92710000D01*
X108838488Y-92646817D01*
X109056854Y-92450293D01*
X109232684Y-92214944D01*
X109359222Y-91949814D01*
X109404958Y-91799026D01*
X109283817Y-91567000D01*
X108077000Y-91567000D01*
X107823000Y-91567000D01*
X107803000Y-91567000D01*
X107803000Y-91313000D01*
X107823000Y-91313000D01*
X107823000Y-89027000D01*
X108077000Y-89027000D01*
X108077000Y-91313000D01*
X109283817Y-91313000D01*
X109404958Y-91080974D01*
X109359222Y-90930186D01*
X109232684Y-90665056D01*
X109056854Y-90429707D01*
X108838488Y-90233183D01*
X108732230Y-90170000D01*
X108838488Y-90106817D01*
X109056854Y-89910293D01*
X109232684Y-89674944D01*
X109359222Y-89409814D01*
X109404958Y-89259026D01*
X109283817Y-89027000D01*
X108077000Y-89027000D01*
X107823000Y-89027000D01*
X107803000Y-89027000D01*
X107803000Y-88773000D01*
X107823000Y-88773000D01*
X107823000Y-86487000D01*
X108077000Y-86487000D01*
X108077000Y-88773000D01*
X109283817Y-88773000D01*
X109404958Y-88540974D01*
X109359222Y-88390186D01*
X109232684Y-88125056D01*
X109056854Y-87889707D01*
X108838488Y-87693183D01*
X108732230Y-87630000D01*
X108838488Y-87566817D01*
X109056854Y-87370293D01*
X109232684Y-87134944D01*
X109359222Y-86869814D01*
X109404958Y-86719026D01*
X109283817Y-86487000D01*
X108077000Y-86487000D01*
X107823000Y-86487000D01*
X107803000Y-86487000D01*
X107803000Y-86233000D01*
X107823000Y-86233000D01*
X107823000Y-83947000D01*
X108077000Y-83947000D01*
X108077000Y-86233000D01*
X109283817Y-86233000D01*
X109404958Y-86000974D01*
X109359222Y-85850186D01*
X109232684Y-85585056D01*
X109056854Y-85349707D01*
X108838488Y-85153183D01*
X108732230Y-85090000D01*
X108838488Y-85026817D01*
X109056854Y-84830293D01*
X109232684Y-84594944D01*
X109359222Y-84329814D01*
X109404958Y-84179026D01*
X109283817Y-83947000D01*
X108077000Y-83947000D01*
X107823000Y-83947000D01*
X107803000Y-83947000D01*
X107803000Y-83693000D01*
X107823000Y-83693000D01*
X107823000Y-81407000D01*
X108077000Y-81407000D01*
X108077000Y-83693000D01*
X109283817Y-83693000D01*
X109404958Y-83460974D01*
X109359222Y-83310186D01*
X109232684Y-83045056D01*
X109056854Y-82809707D01*
X108838488Y-82613183D01*
X108732230Y-82550000D01*
X108838488Y-82486817D01*
X109056854Y-82290293D01*
X109232684Y-82054944D01*
X109359222Y-81789814D01*
X109404958Y-81639026D01*
X109283817Y-81407000D01*
X108077000Y-81407000D01*
X107823000Y-81407000D01*
X107803000Y-81407000D01*
X107803000Y-81153000D01*
X107823000Y-81153000D01*
X107823000Y-79945536D01*
X108077000Y-79945536D01*
X108077000Y-81153000D01*
X109283817Y-81153000D01*
X109404958Y-80920974D01*
X109359222Y-80770186D01*
X109232684Y-80505056D01*
X109056854Y-80269707D01*
X108838488Y-80073183D01*
X108585978Y-79923036D01*
X108309027Y-79825037D01*
X108077000Y-79945536D01*
X107823000Y-79945536D01*
X107590973Y-79825037D01*
X107314022Y-79923036D01*
X107061512Y-80073183D01*
X106843146Y-80269707D01*
X106667316Y-80505056D01*
X106544532Y-80762321D01*
X106449854Y-80585192D01*
X106294323Y-80395677D01*
X106104808Y-80240146D01*
X105888592Y-80124576D01*
X105653984Y-80053408D01*
X105471143Y-80035400D01*
X105348857Y-80035400D01*
X105166016Y-80053408D01*
X104931408Y-80124576D01*
X104715192Y-80240146D01*
X104525677Y-80395677D01*
X104370146Y-80585192D01*
X104254576Y-80801408D01*
X104183408Y-81036016D01*
X104159378Y-81280000D01*
X104183408Y-81523984D01*
X104245555Y-81728853D01*
X100767576Y-85206833D01*
X100780715Y-85183127D01*
X100797469Y-85130781D01*
X100830000Y-85098250D01*
X100822553Y-85030000D01*
X100830000Y-84961750D01*
X100797469Y-84929219D01*
X100780715Y-84876873D01*
X100720078Y-84767469D01*
X100639263Y-84671997D01*
X100557558Y-84607000D01*
X100671250Y-84607000D01*
X100830000Y-84448250D01*
X100818844Y-84346004D01*
X100780715Y-84226873D01*
X100720078Y-84117469D01*
X100639263Y-84021997D01*
X100541375Y-83944126D01*
X100430175Y-83886849D01*
X100309939Y-83852366D01*
X100185285Y-83842002D01*
X99755750Y-83845000D01*
X99597000Y-84003750D01*
X99597000Y-84607000D01*
X99643750Y-84607000D01*
X99597000Y-84653750D01*
X99597000Y-84852000D01*
X99343000Y-84852000D01*
X99343000Y-84653750D01*
X99296250Y-84607000D01*
X99343000Y-84607000D01*
X99343000Y-84003750D01*
X99184250Y-83845000D01*
X98754715Y-83842002D01*
X98630061Y-83852366D01*
X98509825Y-83886849D01*
X98398625Y-83944126D01*
X98300737Y-84021997D01*
X98219922Y-84117469D01*
X98159285Y-84226873D01*
X98121156Y-84346004D01*
X98110000Y-84448250D01*
X98268750Y-84607000D01*
X98382442Y-84607000D01*
X98300737Y-84671997D01*
X98219922Y-84767469D01*
X98159285Y-84876873D01*
X98142531Y-84929219D01*
X98110000Y-84961750D01*
X98117447Y-85030000D01*
X98110000Y-85098250D01*
X98142531Y-85130781D01*
X98159285Y-85183127D01*
X98219922Y-85292531D01*
X98300737Y-85388003D01*
X98382442Y-85453000D01*
X98268750Y-85453000D01*
X98110000Y-85611750D01*
X98121156Y-85713996D01*
X98159285Y-85833127D01*
X98219922Y-85942531D01*
X98300737Y-86038003D01*
X98362157Y-86086863D01*
X98362157Y-86230000D01*
X98369513Y-86304689D01*
X98377191Y-86330000D01*
X98369513Y-86355311D01*
X98362157Y-86430000D01*
X98362157Y-86880000D01*
X98369513Y-86954689D01*
X98377191Y-86980000D01*
X98369513Y-87005311D01*
X98362157Y-87080000D01*
X98362157Y-87530000D01*
X98369513Y-87604689D01*
X98377191Y-87630000D01*
X98369513Y-87655311D01*
X98362157Y-87730000D01*
X98362157Y-88180000D01*
X98369513Y-88254689D01*
X98377191Y-88280000D01*
X98369513Y-88305311D01*
X98362157Y-88380000D01*
X98362157Y-88830000D01*
X98369513Y-88904689D01*
X98377191Y-88930000D01*
X98369513Y-88955311D01*
X98362157Y-89030000D01*
X98362157Y-89480000D01*
X98369513Y-89554689D01*
X98377191Y-89580000D01*
X98369513Y-89605311D01*
X98362157Y-89680000D01*
X98362157Y-89823137D01*
X98300737Y-89871997D01*
X98219922Y-89967469D01*
X98159285Y-90076873D01*
X98121156Y-90196004D01*
X98110000Y-90298250D01*
X98268750Y-90457000D01*
X98548539Y-90457000D01*
X98598492Y-90483701D01*
X98670311Y-90505487D01*
X98745000Y-90512843D01*
X99617000Y-90512843D01*
X99617000Y-90653000D01*
X99597000Y-90653000D01*
X99597000Y-91256250D01*
X99755750Y-91415000D01*
X100185285Y-91417998D01*
X100309939Y-91407634D01*
X100430175Y-91373151D01*
X100541375Y-91315874D01*
X100639263Y-91238003D01*
X100720078Y-91142531D01*
X100780715Y-91033127D01*
X100799341Y-90974932D01*
X103715399Y-93890991D01*
X103715400Y-95370043D01*
X103712952Y-95394899D01*
X103722721Y-95494091D01*
X103751654Y-95589473D01*
X103767130Y-95618426D01*
X103798641Y-95677378D01*
X103861873Y-95754426D01*
X103881179Y-95770270D01*
X104230776Y-96119867D01*
X104224365Y-96141000D01*
X95685060Y-96141000D01*
X95735537Y-96079494D01*
X95794502Y-95969180D01*
X95830812Y-95849482D01*
X95843072Y-95725000D01*
X95840000Y-95535750D01*
X95681250Y-95377000D01*
X94894500Y-95377000D01*
X94894500Y-95397000D01*
X94640500Y-95397000D01*
X94640500Y-95377000D01*
X94620500Y-95377000D01*
X94620500Y-95123000D01*
X94640500Y-95123000D01*
X94640500Y-94298750D01*
X94894500Y-94298750D01*
X94894500Y-95123000D01*
X95681250Y-95123000D01*
X95840000Y-94964250D01*
X95843072Y-94775000D01*
X95830812Y-94650518D01*
X95794502Y-94530820D01*
X95735537Y-94420506D01*
X95656185Y-94323815D01*
X95559494Y-94244463D01*
X95449180Y-94185498D01*
X95329482Y-94149188D01*
X95205000Y-94136928D01*
X95053250Y-94140000D01*
X94894500Y-94298750D01*
X94640500Y-94298750D01*
X94481750Y-94140000D01*
X94330000Y-94136928D01*
X94205518Y-94149188D01*
X94085820Y-94185498D01*
X93975506Y-94244463D01*
X93878815Y-94323815D01*
X93799463Y-94420506D01*
X93787500Y-94442887D01*
X93787500Y-93517113D01*
X93799463Y-93539494D01*
X93878815Y-93636185D01*
X93975506Y-93715537D01*
X94085820Y-93774502D01*
X94205518Y-93810812D01*
X94330000Y-93823072D01*
X94481750Y-93820000D01*
X94640500Y-93661250D01*
X94640500Y-92837000D01*
X94894500Y-92837000D01*
X94894500Y-93661250D01*
X95053250Y-93820000D01*
X95205000Y-93823072D01*
X95329482Y-93810812D01*
X95449180Y-93774502D01*
X95559494Y-93715537D01*
X95656185Y-93636185D01*
X95735537Y-93539494D01*
X95794502Y-93429180D01*
X95830812Y-93309482D01*
X95843072Y-93185000D01*
X95840000Y-92995750D01*
X95681250Y-92837000D01*
X94894500Y-92837000D01*
X94640500Y-92837000D01*
X94620500Y-92837000D01*
X94620500Y-92583000D01*
X94640500Y-92583000D01*
X94640500Y-91758750D01*
X94894500Y-91758750D01*
X94894500Y-92583000D01*
X95681250Y-92583000D01*
X95840000Y-92424250D01*
X95843072Y-92235000D01*
X95830812Y-92110518D01*
X95794502Y-91990820D01*
X95735537Y-91880506D01*
X95656185Y-91783815D01*
X95559494Y-91704463D01*
X95449180Y-91645498D01*
X95329482Y-91609188D01*
X95205000Y-91596928D01*
X95053250Y-91600000D01*
X94894500Y-91758750D01*
X94640500Y-91758750D01*
X94481750Y-91600000D01*
X94330000Y-91596928D01*
X94205518Y-91609188D01*
X94085820Y-91645498D01*
X93975506Y-91704463D01*
X93878815Y-91783815D01*
X93799463Y-91880506D01*
X93787500Y-91902887D01*
X93787500Y-91528091D01*
X93910215Y-91405376D01*
X93929527Y-91389527D01*
X93992759Y-91312479D01*
X94039745Y-91224575D01*
X94058471Y-91162843D01*
X94295000Y-91162843D01*
X94369689Y-91155487D01*
X94441508Y-91133701D01*
X94507696Y-91098322D01*
X94565711Y-91050711D01*
X94613322Y-90992696D01*
X94648701Y-90926508D01*
X94670487Y-90854689D01*
X94674715Y-90811750D01*
X98110000Y-90811750D01*
X98121156Y-90913996D01*
X98159285Y-91033127D01*
X98219922Y-91142531D01*
X98300737Y-91238003D01*
X98398625Y-91315874D01*
X98509825Y-91373151D01*
X98630061Y-91407634D01*
X98754715Y-91417998D01*
X99184250Y-91415000D01*
X99343000Y-91256250D01*
X99343000Y-90653000D01*
X98268750Y-90653000D01*
X98110000Y-90811750D01*
X94674715Y-90811750D01*
X94677843Y-90780000D01*
X94677843Y-90636863D01*
X94739263Y-90588003D01*
X94820078Y-90492531D01*
X94880715Y-90383127D01*
X94918844Y-90263996D01*
X94930000Y-90161750D01*
X94771250Y-90003000D01*
X94491461Y-90003000D01*
X94441508Y-89976299D01*
X94369689Y-89954513D01*
X94295000Y-89947157D01*
X93423000Y-89947157D01*
X93423000Y-89862843D01*
X94295000Y-89862843D01*
X94369689Y-89855487D01*
X94441508Y-89833701D01*
X94491461Y-89807000D01*
X94771250Y-89807000D01*
X94930000Y-89648250D01*
X94918844Y-89546004D01*
X94880715Y-89426873D01*
X94820078Y-89317469D01*
X94739263Y-89221997D01*
X94677843Y-89173137D01*
X94677843Y-89030000D01*
X94670487Y-88955311D01*
X94662809Y-88930000D01*
X94670487Y-88904689D01*
X94677843Y-88830000D01*
X94677843Y-88380000D01*
X94670487Y-88305311D01*
X94662809Y-88280000D01*
X94670487Y-88254689D01*
X94677843Y-88180000D01*
X94677843Y-87730000D01*
X94670487Y-87655311D01*
X94662809Y-87630000D01*
X94670487Y-87604689D01*
X94677843Y-87530000D01*
X94677843Y-87080000D01*
X94670487Y-87005311D01*
X94662809Y-86980000D01*
X94670487Y-86954689D01*
X94677843Y-86880000D01*
X94677843Y-86430000D01*
X94670487Y-86355311D01*
X94662809Y-86330000D01*
X94670487Y-86304689D01*
X94677843Y-86230000D01*
X94677843Y-85780000D01*
X94670487Y-85705311D01*
X94662809Y-85680000D01*
X94670487Y-85654689D01*
X94677843Y-85580000D01*
X94677843Y-85130000D01*
X94670487Y-85055311D01*
X94662809Y-85030000D01*
X94670487Y-85004689D01*
X94677843Y-84930000D01*
X94677843Y-84480000D01*
X94670487Y-84405311D01*
X94648701Y-84333492D01*
X94613322Y-84267304D01*
X94565711Y-84209289D01*
X94507696Y-84161678D01*
X94441508Y-84126299D01*
X94369689Y-84104513D01*
X94295000Y-84097157D01*
X94076000Y-84097157D01*
X94076000Y-78863352D01*
X94078447Y-78838506D01*
X94076000Y-78813660D01*
X94076000Y-78813652D01*
X94068678Y-78739313D01*
X94039745Y-78643931D01*
X93992759Y-78556027D01*
X93929527Y-78478979D01*
X93910220Y-78463134D01*
X90506860Y-75059775D01*
X90491011Y-75040463D01*
X90413963Y-74977231D01*
X90326059Y-74930245D01*
X90230677Y-74901312D01*
X90156338Y-74893990D01*
X90156330Y-74893990D01*
X90131484Y-74891543D01*
X90106638Y-74893990D01*
X87693361Y-74893990D01*
X87668515Y-74891543D01*
X87643669Y-74893990D01*
X87643662Y-74893990D01*
X87569323Y-74901312D01*
X87473941Y-74930245D01*
X87386037Y-74977231D01*
X87308989Y-75040463D01*
X87293144Y-75059770D01*
X83987785Y-78365130D01*
X83968473Y-78380979D01*
X83905241Y-78458027D01*
X83863217Y-78536649D01*
X83797600Y-78503901D01*
X83676934Y-78470952D01*
X83601750Y-78465000D01*
X83443000Y-78623750D01*
X83197000Y-78623750D01*
X83038250Y-78465000D01*
X82963066Y-78470952D01*
X82842400Y-78503901D01*
X82730480Y-78559757D01*
X82631608Y-78636375D01*
X82549583Y-78730810D01*
X82487557Y-78839432D01*
X82447914Y-78958068D01*
X82435000Y-79068250D01*
X80406000Y-79068250D01*
X80406000Y-68911548D01*
X81374000Y-68911548D01*
X81374000Y-69518452D01*
X81492401Y-70113695D01*
X81724653Y-70674401D01*
X82061831Y-71179023D01*
X82490977Y-71608169D01*
X82995599Y-71945347D01*
X83556305Y-72177599D01*
X84151548Y-72296000D01*
X84758452Y-72296000D01*
X85353695Y-72177599D01*
X85914401Y-71945347D01*
X86419023Y-71608169D01*
X86848169Y-71179023D01*
X87185347Y-70674401D01*
X87417599Y-70113695D01*
X87536000Y-69518452D01*
X87536000Y-68911548D01*
X105504000Y-68911548D01*
X105504000Y-69518452D01*
X105622401Y-70113695D01*
X105854653Y-70674401D01*
X106191831Y-71179023D01*
X106620977Y-71608169D01*
X107125599Y-71945347D01*
X107686305Y-72177599D01*
X108281548Y-72296000D01*
X108888452Y-72296000D01*
X109483695Y-72177599D01*
X110044401Y-71945347D01*
X110549023Y-71608169D01*
X110978169Y-71179023D01*
X111315347Y-70674401D01*
X111547599Y-70113695D01*
X111666000Y-69518452D01*
X111666000Y-68911548D01*
X111547599Y-68316305D01*
X111315347Y-67755599D01*
X110978169Y-67250977D01*
X110549023Y-66821831D01*
X110044401Y-66484653D01*
X109483695Y-66252401D01*
X108888452Y-66134000D01*
X108281548Y-66134000D01*
X107686305Y-66252401D01*
X107125599Y-66484653D01*
X106620977Y-66821831D01*
X106191831Y-67250977D01*
X105854653Y-67755599D01*
X105622401Y-68316305D01*
X105504000Y-68911548D01*
X87536000Y-68911548D01*
X87417599Y-68316305D01*
X87185347Y-67755599D01*
X86848169Y-67250977D01*
X86419023Y-66821831D01*
X85914401Y-66484653D01*
X85353695Y-66252401D01*
X84758452Y-66134000D01*
X84151548Y-66134000D01*
X83556305Y-66252401D01*
X82995599Y-66484653D01*
X82490977Y-66821831D01*
X82061831Y-67250977D01*
X81724653Y-67755599D01*
X81492401Y-68316305D01*
X81374000Y-68911548D01*
X80406000Y-68911548D01*
X80406000Y-65176000D01*
X112624001Y-65176000D01*
X112624000Y-114577500D01*
M02*
