G04 #@! TF.GenerationSoftware,KiCad,Pcbnew,(5.1.2)-1*
G04 #@! TF.CreationDate,2020-09-10T12:17:47+02:00*
G04 #@! TF.ProjectId,AFE_1CH_2V0,4146455f-3143-4485-9f32-56302e6b6963,3.1*
G04 #@! TF.SameCoordinates,Original*
G04 #@! TF.FileFunction,Other,User*
%FSLAX46Y46*%
G04 Gerber Fmt 4.6, Leading zero omitted, Abs format (unit mm)*
G04 Created by KiCad (PCBNEW (5.1.2)-1) date 2020-09-10 12:17:47*
%MOMM*%
%LPD*%
G04 APERTURE LIST*
%ADD10C,0.050000*%
G04 APERTURE END LIST*
D10*
X203379600Y-88506000D02*
X195979600Y-88506000D01*
X203379600Y-83106000D02*
X203379600Y-88506000D01*
X195979600Y-83106000D02*
X203379600Y-83106000D01*
X195979600Y-88506000D02*
X195979600Y-83106000D01*
X203469200Y-84883200D02*
X203469200Y-88243200D01*
X205369200Y-84883200D02*
X203469200Y-84883200D01*
X205369200Y-88243200D02*
X205369200Y-84883200D01*
X203469200Y-88243200D02*
X205369200Y-88243200D01*
X193944200Y-83110000D02*
X193944200Y-86470000D01*
X195844200Y-83110000D02*
X193944200Y-83110000D01*
X195844200Y-86470000D02*
X195844200Y-83110000D01*
X193944200Y-86470000D02*
X195844200Y-86470000D01*
X210190400Y-69620400D02*
X210190400Y-66320400D01*
X210190400Y-69620400D02*
X207690400Y-69620400D01*
X207690400Y-66320400D02*
X210190400Y-66320400D01*
X207690400Y-66320400D02*
X207690400Y-69620400D01*
X206318800Y-83287600D02*
X206318800Y-86587600D01*
X206318800Y-83287600D02*
X208818800Y-83287600D01*
X208818800Y-86587600D02*
X206318800Y-86587600D01*
X208818800Y-86587600D02*
X208818800Y-83287600D01*
X218142000Y-59099200D02*
X218142000Y-57639200D01*
X218142000Y-57639200D02*
X215182000Y-57639200D01*
X215182000Y-57639200D02*
X215182000Y-59099200D01*
X215182000Y-59099200D02*
X218142000Y-59099200D01*
X211727600Y-63112400D02*
X214687600Y-63112400D01*
X211727600Y-61652400D02*
X211727600Y-63112400D01*
X214687600Y-61652400D02*
X211727600Y-61652400D01*
X214687600Y-63112400D02*
X214687600Y-61652400D01*
X214941600Y-65195200D02*
X214941600Y-63735200D01*
X214941600Y-63735200D02*
X211981600Y-63735200D01*
X211981600Y-63735200D02*
X211981600Y-65195200D01*
X211981600Y-65195200D02*
X214941600Y-65195200D01*
X221339200Y-57134800D02*
X221339200Y-55234800D01*
X221339200Y-55234800D02*
X217979200Y-55234800D01*
X217979200Y-55234800D02*
X217979200Y-57134800D01*
X217979200Y-57134800D02*
X221339200Y-57134800D01*
X234846000Y-87763700D02*
X237086000Y-87763700D01*
X237086000Y-87763700D02*
X237086000Y-83203700D01*
X237086000Y-83203700D02*
X234846000Y-83203700D01*
X234846000Y-83203700D02*
X234846000Y-87763700D01*
X231592000Y-87763700D02*
X234752000Y-87763700D01*
X234752000Y-87763700D02*
X234752000Y-83203700D01*
X234752000Y-83203700D02*
X231592000Y-83203700D01*
X231592000Y-83203700D02*
X231592000Y-87763700D01*
X218353600Y-82896500D02*
X220253600Y-82896500D01*
X220253600Y-82896500D02*
X220253600Y-79536500D01*
X220253600Y-79536500D02*
X218353600Y-79536500D01*
X218353600Y-79536500D02*
X218353600Y-82896500D01*
X220314400Y-81933700D02*
X220314400Y-86493700D01*
X223474400Y-81933700D02*
X220314400Y-81933700D01*
X223474400Y-86493700D02*
X223474400Y-81933700D01*
X220314400Y-86493700D02*
X223474400Y-86493700D01*
X228502000Y-79707700D02*
X225142000Y-79707700D01*
X228502000Y-81607700D02*
X228502000Y-79707700D01*
X225142000Y-81607700D02*
X228502000Y-81607700D01*
X225142000Y-79707700D02*
X225142000Y-81607700D01*
X218353600Y-86350900D02*
X220253600Y-86350900D01*
X220253600Y-86350900D02*
X220253600Y-82990900D01*
X220253600Y-82990900D02*
X218353600Y-82990900D01*
X218353600Y-82990900D02*
X218353600Y-86350900D01*
X98677200Y-71046400D02*
X95277200Y-71046400D01*
X95277200Y-71046400D02*
X95277200Y-74546400D01*
X95277200Y-74546400D02*
X98677200Y-74546400D01*
X98677200Y-74546400D02*
X98677200Y-71046400D01*
X220932800Y-70728800D02*
X217572800Y-70728800D01*
X220932800Y-72628800D02*
X220932800Y-70728800D01*
X217572800Y-72628800D02*
X220932800Y-72628800D01*
X217572800Y-70728800D02*
X217572800Y-72628800D01*
X217572800Y-72710000D02*
X217572800Y-74610000D01*
X217572800Y-74610000D02*
X220932800Y-74610000D01*
X220932800Y-74610000D02*
X220932800Y-72710000D01*
X220932800Y-72710000D02*
X217572800Y-72710000D01*
X220932800Y-74691200D02*
X217572800Y-74691200D01*
X220932800Y-76591200D02*
X220932800Y-74691200D01*
X217572800Y-76591200D02*
X220932800Y-76591200D01*
X217572800Y-74691200D02*
X217572800Y-76591200D01*
X217572800Y-76672400D02*
X217572800Y-78572400D01*
X217572800Y-78572400D02*
X220932800Y-78572400D01*
X220932800Y-78572400D02*
X220932800Y-76672400D01*
X220932800Y-76672400D02*
X217572800Y-76672400D01*
X218218000Y-61068400D02*
X219678000Y-61068400D01*
X219678000Y-61068400D02*
X219678000Y-58108400D01*
X219678000Y-58108400D02*
X218218000Y-58108400D01*
X218218000Y-58108400D02*
X218218000Y-61068400D01*
X221202000Y-61068400D02*
X221202000Y-58108400D01*
X219742000Y-61068400D02*
X221202000Y-61068400D01*
X219742000Y-58108400D02*
X219742000Y-61068400D01*
X221202000Y-58108400D02*
X219742000Y-58108400D01*
X221266000Y-58082900D02*
X221266000Y-61042900D01*
X222726000Y-58082900D02*
X221266000Y-58082900D01*
X222726000Y-61042900D02*
X222726000Y-58082900D01*
X221266000Y-61042900D02*
X222726000Y-61042900D01*
X222417600Y-61108800D02*
X222417600Y-64468800D01*
X224317600Y-61108800D02*
X222417600Y-61108800D01*
X224317600Y-64468800D02*
X224317600Y-61108800D01*
X222417600Y-64468800D02*
X224317600Y-64468800D01*
X214778800Y-61097200D02*
X218138800Y-61097200D01*
X214778800Y-59197200D02*
X214778800Y-61097200D01*
X218138800Y-59197200D02*
X214778800Y-59197200D01*
X218138800Y-61097200D02*
X218138800Y-59197200D01*
X218392800Y-63281600D02*
X218392800Y-61381600D01*
X218392800Y-61381600D02*
X215032800Y-61381600D01*
X215032800Y-61381600D02*
X215032800Y-63281600D01*
X215032800Y-63281600D02*
X218392800Y-63281600D01*
X218392800Y-65313600D02*
X218392800Y-63413600D01*
X218392800Y-63413600D02*
X215032800Y-63413600D01*
X215032800Y-63413600D02*
X215032800Y-65313600D01*
X215032800Y-65313600D02*
X218392800Y-65313600D01*
X224300800Y-58057600D02*
X222840800Y-58057600D01*
X222840800Y-58057600D02*
X222840800Y-61017600D01*
X222840800Y-61017600D02*
X224300800Y-61017600D01*
X224300800Y-61017600D02*
X224300800Y-58057600D01*
X221659900Y-79707700D02*
X221659900Y-81607700D01*
X221659900Y-81607700D02*
X225019900Y-81607700D01*
X225019900Y-81607700D02*
X225019900Y-79707700D01*
X225019900Y-79707700D02*
X221659900Y-79707700D01*
X222043500Y-63213501D02*
X219205300Y-63213501D01*
X219205300Y-63213501D02*
X219205300Y-64592200D01*
X219205300Y-64592200D02*
X218821000Y-64592200D01*
X218821000Y-64592200D02*
X218821000Y-68199000D01*
X218821000Y-68199000D02*
X219205300Y-68199000D01*
X219205300Y-68199000D02*
X219205300Y-69577699D01*
X219205300Y-69577699D02*
X222043500Y-69577699D01*
X222043500Y-69577699D02*
X222043500Y-68199000D01*
X222043500Y-68199000D02*
X222427800Y-68199000D01*
X222427800Y-68199000D02*
X222427800Y-64592200D01*
X222427800Y-64592200D02*
X222043500Y-64592200D01*
X222043500Y-64592200D02*
X222043500Y-63213501D01*
X224259600Y-57160000D02*
X221459600Y-57160000D01*
X221459600Y-53960000D02*
X224259600Y-53960000D01*
X221459600Y-53960000D02*
X221459600Y-57160000D01*
X224259600Y-53960000D02*
X224259600Y-57160000D01*
X223621600Y-82219800D02*
X223621600Y-87731600D01*
X223621600Y-87731600D02*
X231038400Y-87731600D01*
X231038400Y-87731600D02*
X231038400Y-82219800D01*
X231038400Y-82219800D02*
X223621600Y-82219800D01*
X219005600Y-70326000D02*
X219005600Y-68866000D01*
X219005600Y-68866000D02*
X216045600Y-68866000D01*
X216045600Y-68866000D02*
X216045600Y-70326000D01*
X216045600Y-70326000D02*
X219005600Y-70326000D01*
X209042000Y-81348000D02*
X209042000Y-87328000D01*
X209042000Y-81348000D02*
X211562000Y-81348000D01*
X211562000Y-87328000D02*
X209042000Y-87328000D01*
X211562000Y-87328000D02*
X211562000Y-81348000D01*
X229088500Y-58832500D02*
X232048500Y-58832500D01*
X229088500Y-57372500D02*
X229088500Y-58832500D01*
X232048500Y-57372500D02*
X229088500Y-57372500D01*
X232048500Y-58832500D02*
X232048500Y-57372500D01*
X229088500Y-67024500D02*
X229088500Y-68484500D01*
X229088500Y-68484500D02*
X232048500Y-68484500D01*
X232048500Y-68484500D02*
X232048500Y-67024500D01*
X232048500Y-67024500D02*
X229088500Y-67024500D01*
M02*
