%TF.GenerationSoftware,KiCad,Pcbnew,(5.1.2)-1*%
%TF.CreationDate,2020-03-11T09:00:43+01:00*%
%TF.ProjectId,ArduinoShield_SPIlinedriver_Sync_2V0,41726475-696e-46f5-9368-69656c645f53,rev?*%
%TF.SameCoordinates,Original*%
%TF.FileFunction,Soldermask,Bot*%
%TF.FilePolarity,Negative*%
%FSLAX46Y46*%
G04 Gerber Fmt 4.6, Leading zero omitted, Abs format (unit mm)*
G04 Created by KiCad (PCBNEW (5.1.2)-1) date 2020-03-11 09:00:43*
%MOMM*%
%LPD*%
G04 APERTURE LIST*
%ADD10R,1.727200X1.727200*%
%ADD11O,1.727200X1.727200*%
%ADD12C,1.600000*%
%ADD13R,1.600000X1.600000*%
%ADD14R,1.700000X1.700000*%
%ADD15O,1.700000X1.700000*%
%ADD16C,1.727200*%
%ADD17O,1.727200X2.032000*%
%ADD18C,4.064000*%
%ADD19C,0.100000*%
%ADD20C,0.975000*%
%ADD21O,1.800000X1.200000*%
%ADD22C,1.200000*%
%ADD23C,2.050000*%
%ADD24C,2.250000*%
%ADD25C,0.600000*%
G04 APERTURE END LIST*
D10*
X189484000Y-78486000D03*
D11*
X192024000Y-78486000D03*
X189484000Y-81026000D03*
X192024000Y-81026000D03*
X189484000Y-83566000D03*
X192024000Y-83566000D03*
X120523000Y-93726000D03*
X117983000Y-93726000D03*
X120523000Y-91186000D03*
X117983000Y-91186000D03*
X120523000Y-88646000D03*
X117983000Y-88646000D03*
X120523000Y-86106000D03*
X117983000Y-86106000D03*
X120523000Y-83566000D03*
D10*
X117983000Y-83566000D03*
D11*
X133223000Y-93726000D03*
X130683000Y-93726000D03*
X133223000Y-91186000D03*
X130683000Y-91186000D03*
X133223000Y-88646000D03*
X130683000Y-88646000D03*
X133223000Y-86106000D03*
X130683000Y-86106000D03*
X133223000Y-83566000D03*
D10*
X130683000Y-83566000D03*
D12*
X138938000Y-109538000D03*
D13*
X138938000Y-111538000D03*
D14*
X111226600Y-91338400D03*
D15*
X111226600Y-93878400D03*
X111226600Y-96418400D03*
X111226600Y-98958400D03*
X111226600Y-101498400D03*
D16*
X197358000Y-114046000D03*
D11*
X199898000Y-114046000D03*
X197358000Y-111506000D03*
X199898000Y-111506000D03*
X197358000Y-108966000D03*
X199898000Y-108966000D03*
X197358000Y-106426000D03*
X199898000Y-106426000D03*
X197358000Y-103886000D03*
X199898000Y-103886000D03*
X197358000Y-101346000D03*
X199898000Y-101346000D03*
X197358000Y-98806000D03*
X199898000Y-98806000D03*
X197358000Y-96266000D03*
X199898000Y-96266000D03*
X197358000Y-93726000D03*
X199898000Y-93726000D03*
X197358000Y-91186000D03*
X199898000Y-91186000D03*
X197358000Y-88646000D03*
X199898000Y-88646000D03*
X197358000Y-86106000D03*
X199898000Y-86106000D03*
X197358000Y-83566000D03*
X199898000Y-83566000D03*
X197358000Y-81026000D03*
X199898000Y-81026000D03*
X197358000Y-78486000D03*
X199898000Y-78486000D03*
X197358000Y-75946000D03*
X199898000Y-75946000D03*
X197358000Y-73406000D03*
X199898000Y-73406000D03*
X197358000Y-70866000D03*
X199898000Y-70866000D03*
D17*
X131318000Y-119126000D03*
X133858000Y-119126000D03*
X136398000Y-119126000D03*
X138938000Y-119126000D03*
X141478000Y-119126000D03*
X144018000Y-119126000D03*
X146558000Y-119126000D03*
X149098000Y-119126000D03*
X154178000Y-119126000D03*
X156718000Y-119126000D03*
X159258000Y-119126000D03*
X161798000Y-119126000D03*
X164338000Y-119126000D03*
X166878000Y-119126000D03*
X169418000Y-119126000D03*
X171958000Y-119126000D03*
X177038000Y-119126000D03*
X179578000Y-119126000D03*
X182118000Y-119126000D03*
X184658000Y-119126000D03*
X187198000Y-119126000D03*
X189738000Y-119126000D03*
X192278000Y-119126000D03*
X194818000Y-119126000D03*
X122174000Y-70866000D03*
X124714000Y-70866000D03*
X127254000Y-70866000D03*
X129794000Y-70866000D03*
X132334000Y-70866000D03*
X134874000Y-70866000D03*
X137414000Y-70866000D03*
X139954000Y-70866000D03*
X142494000Y-70866000D03*
X145034000Y-70866000D03*
X149098000Y-70866000D03*
X151638000Y-70866000D03*
X154178000Y-70866000D03*
X156718000Y-70866000D03*
X159258000Y-70866000D03*
X161798000Y-70866000D03*
X164338000Y-70866000D03*
X166878000Y-70866000D03*
X171958000Y-70866000D03*
X174498000Y-70866000D03*
X177038000Y-70866000D03*
X179578000Y-70866000D03*
X182118000Y-70866000D03*
X184658000Y-70866000D03*
X187198000Y-70866000D03*
X189738000Y-70866000D03*
D18*
X117348000Y-119126000D03*
X169418000Y-114046000D03*
X199898000Y-119126000D03*
X118618000Y-70866000D03*
X169418000Y-86106000D03*
X193548000Y-70866000D03*
D19*
G36*
X155969642Y-83044974D02*
G01*
X155993303Y-83048484D01*
X156016507Y-83054296D01*
X156039029Y-83062354D01*
X156060653Y-83072582D01*
X156081170Y-83084879D01*
X156100383Y-83099129D01*
X156118107Y-83115193D01*
X156134171Y-83132917D01*
X156148421Y-83152130D01*
X156160718Y-83172647D01*
X156170946Y-83194271D01*
X156179004Y-83216793D01*
X156184816Y-83239997D01*
X156188326Y-83263658D01*
X156189500Y-83287550D01*
X156189500Y-84200050D01*
X156188326Y-84223942D01*
X156184816Y-84247603D01*
X156179004Y-84270807D01*
X156170946Y-84293329D01*
X156160718Y-84314953D01*
X156148421Y-84335470D01*
X156134171Y-84354683D01*
X156118107Y-84372407D01*
X156100383Y-84388471D01*
X156081170Y-84402721D01*
X156060653Y-84415018D01*
X156039029Y-84425246D01*
X156016507Y-84433304D01*
X155993303Y-84439116D01*
X155969642Y-84442626D01*
X155945750Y-84443800D01*
X155458250Y-84443800D01*
X155434358Y-84442626D01*
X155410697Y-84439116D01*
X155387493Y-84433304D01*
X155364971Y-84425246D01*
X155343347Y-84415018D01*
X155322830Y-84402721D01*
X155303617Y-84388471D01*
X155285893Y-84372407D01*
X155269829Y-84354683D01*
X155255579Y-84335470D01*
X155243282Y-84314953D01*
X155233054Y-84293329D01*
X155224996Y-84270807D01*
X155219184Y-84247603D01*
X155215674Y-84223942D01*
X155214500Y-84200050D01*
X155214500Y-83287550D01*
X155215674Y-83263658D01*
X155219184Y-83239997D01*
X155224996Y-83216793D01*
X155233054Y-83194271D01*
X155243282Y-83172647D01*
X155255579Y-83152130D01*
X155269829Y-83132917D01*
X155285893Y-83115193D01*
X155303617Y-83099129D01*
X155322830Y-83084879D01*
X155343347Y-83072582D01*
X155364971Y-83062354D01*
X155387493Y-83054296D01*
X155410697Y-83048484D01*
X155434358Y-83044974D01*
X155458250Y-83043800D01*
X155945750Y-83043800D01*
X155969642Y-83044974D01*
X155969642Y-83044974D01*
G37*
D20*
X155702000Y-83743800D03*
D19*
G36*
X154094642Y-83044974D02*
G01*
X154118303Y-83048484D01*
X154141507Y-83054296D01*
X154164029Y-83062354D01*
X154185653Y-83072582D01*
X154206170Y-83084879D01*
X154225383Y-83099129D01*
X154243107Y-83115193D01*
X154259171Y-83132917D01*
X154273421Y-83152130D01*
X154285718Y-83172647D01*
X154295946Y-83194271D01*
X154304004Y-83216793D01*
X154309816Y-83239997D01*
X154313326Y-83263658D01*
X154314500Y-83287550D01*
X154314500Y-84200050D01*
X154313326Y-84223942D01*
X154309816Y-84247603D01*
X154304004Y-84270807D01*
X154295946Y-84293329D01*
X154285718Y-84314953D01*
X154273421Y-84335470D01*
X154259171Y-84354683D01*
X154243107Y-84372407D01*
X154225383Y-84388471D01*
X154206170Y-84402721D01*
X154185653Y-84415018D01*
X154164029Y-84425246D01*
X154141507Y-84433304D01*
X154118303Y-84439116D01*
X154094642Y-84442626D01*
X154070750Y-84443800D01*
X153583250Y-84443800D01*
X153559358Y-84442626D01*
X153535697Y-84439116D01*
X153512493Y-84433304D01*
X153489971Y-84425246D01*
X153468347Y-84415018D01*
X153447830Y-84402721D01*
X153428617Y-84388471D01*
X153410893Y-84372407D01*
X153394829Y-84354683D01*
X153380579Y-84335470D01*
X153368282Y-84314953D01*
X153358054Y-84293329D01*
X153349996Y-84270807D01*
X153344184Y-84247603D01*
X153340674Y-84223942D01*
X153339500Y-84200050D01*
X153339500Y-83287550D01*
X153340674Y-83263658D01*
X153344184Y-83239997D01*
X153349996Y-83216793D01*
X153358054Y-83194271D01*
X153368282Y-83172647D01*
X153380579Y-83152130D01*
X153394829Y-83132917D01*
X153410893Y-83115193D01*
X153428617Y-83099129D01*
X153447830Y-83084879D01*
X153468347Y-83072582D01*
X153489971Y-83062354D01*
X153512493Y-83054296D01*
X153535697Y-83048484D01*
X153559358Y-83044974D01*
X153583250Y-83043800D01*
X154070750Y-83043800D01*
X154094642Y-83044974D01*
X154094642Y-83044974D01*
G37*
D20*
X153827000Y-83743800D03*
D19*
G36*
X188578642Y-88709174D02*
G01*
X188602303Y-88712684D01*
X188625507Y-88718496D01*
X188648029Y-88726554D01*
X188669653Y-88736782D01*
X188690170Y-88749079D01*
X188709383Y-88763329D01*
X188727107Y-88779393D01*
X188743171Y-88797117D01*
X188757421Y-88816330D01*
X188769718Y-88836847D01*
X188779946Y-88858471D01*
X188788004Y-88880993D01*
X188793816Y-88904197D01*
X188797326Y-88927858D01*
X188798500Y-88951750D01*
X188798500Y-89864250D01*
X188797326Y-89888142D01*
X188793816Y-89911803D01*
X188788004Y-89935007D01*
X188779946Y-89957529D01*
X188769718Y-89979153D01*
X188757421Y-89999670D01*
X188743171Y-90018883D01*
X188727107Y-90036607D01*
X188709383Y-90052671D01*
X188690170Y-90066921D01*
X188669653Y-90079218D01*
X188648029Y-90089446D01*
X188625507Y-90097504D01*
X188602303Y-90103316D01*
X188578642Y-90106826D01*
X188554750Y-90108000D01*
X188067250Y-90108000D01*
X188043358Y-90106826D01*
X188019697Y-90103316D01*
X187996493Y-90097504D01*
X187973971Y-90089446D01*
X187952347Y-90079218D01*
X187931830Y-90066921D01*
X187912617Y-90052671D01*
X187894893Y-90036607D01*
X187878829Y-90018883D01*
X187864579Y-89999670D01*
X187852282Y-89979153D01*
X187842054Y-89957529D01*
X187833996Y-89935007D01*
X187828184Y-89911803D01*
X187824674Y-89888142D01*
X187823500Y-89864250D01*
X187823500Y-88951750D01*
X187824674Y-88927858D01*
X187828184Y-88904197D01*
X187833996Y-88880993D01*
X187842054Y-88858471D01*
X187852282Y-88836847D01*
X187864579Y-88816330D01*
X187878829Y-88797117D01*
X187894893Y-88779393D01*
X187912617Y-88763329D01*
X187931830Y-88749079D01*
X187952347Y-88736782D01*
X187973971Y-88726554D01*
X187996493Y-88718496D01*
X188019697Y-88712684D01*
X188043358Y-88709174D01*
X188067250Y-88708000D01*
X188554750Y-88708000D01*
X188578642Y-88709174D01*
X188578642Y-88709174D01*
G37*
D20*
X188311000Y-89408000D03*
D19*
G36*
X186703642Y-88709174D02*
G01*
X186727303Y-88712684D01*
X186750507Y-88718496D01*
X186773029Y-88726554D01*
X186794653Y-88736782D01*
X186815170Y-88749079D01*
X186834383Y-88763329D01*
X186852107Y-88779393D01*
X186868171Y-88797117D01*
X186882421Y-88816330D01*
X186894718Y-88836847D01*
X186904946Y-88858471D01*
X186913004Y-88880993D01*
X186918816Y-88904197D01*
X186922326Y-88927858D01*
X186923500Y-88951750D01*
X186923500Y-89864250D01*
X186922326Y-89888142D01*
X186918816Y-89911803D01*
X186913004Y-89935007D01*
X186904946Y-89957529D01*
X186894718Y-89979153D01*
X186882421Y-89999670D01*
X186868171Y-90018883D01*
X186852107Y-90036607D01*
X186834383Y-90052671D01*
X186815170Y-90066921D01*
X186794653Y-90079218D01*
X186773029Y-90089446D01*
X186750507Y-90097504D01*
X186727303Y-90103316D01*
X186703642Y-90106826D01*
X186679750Y-90108000D01*
X186192250Y-90108000D01*
X186168358Y-90106826D01*
X186144697Y-90103316D01*
X186121493Y-90097504D01*
X186098971Y-90089446D01*
X186077347Y-90079218D01*
X186056830Y-90066921D01*
X186037617Y-90052671D01*
X186019893Y-90036607D01*
X186003829Y-90018883D01*
X185989579Y-89999670D01*
X185977282Y-89979153D01*
X185967054Y-89957529D01*
X185958996Y-89935007D01*
X185953184Y-89911803D01*
X185949674Y-89888142D01*
X185948500Y-89864250D01*
X185948500Y-88951750D01*
X185949674Y-88927858D01*
X185953184Y-88904197D01*
X185958996Y-88880993D01*
X185967054Y-88858471D01*
X185977282Y-88836847D01*
X185989579Y-88816330D01*
X186003829Y-88797117D01*
X186019893Y-88779393D01*
X186037617Y-88763329D01*
X186056830Y-88749079D01*
X186077347Y-88736782D01*
X186098971Y-88726554D01*
X186121493Y-88718496D01*
X186144697Y-88712684D01*
X186168358Y-88709174D01*
X186192250Y-88708000D01*
X186679750Y-88708000D01*
X186703642Y-88709174D01*
X186703642Y-88709174D01*
G37*
D20*
X186436000Y-89408000D03*
D21*
X150876000Y-95566000D03*
X150876000Y-93566000D03*
X150876000Y-91566000D03*
X150876000Y-89566000D03*
X150876000Y-87566000D03*
X150876000Y-85566000D03*
D19*
G36*
X151550505Y-82967204D02*
G01*
X151574773Y-82970804D01*
X151598572Y-82976765D01*
X151621671Y-82985030D01*
X151643850Y-82995520D01*
X151664893Y-83008132D01*
X151684599Y-83022747D01*
X151702777Y-83039223D01*
X151719253Y-83057401D01*
X151733868Y-83077107D01*
X151746480Y-83098150D01*
X151756970Y-83120329D01*
X151765235Y-83143428D01*
X151771196Y-83167227D01*
X151774796Y-83191495D01*
X151776000Y-83215999D01*
X151776000Y-83916001D01*
X151774796Y-83940505D01*
X151771196Y-83964773D01*
X151765235Y-83988572D01*
X151756970Y-84011671D01*
X151746480Y-84033850D01*
X151733868Y-84054893D01*
X151719253Y-84074599D01*
X151702777Y-84092777D01*
X151684599Y-84109253D01*
X151664893Y-84123868D01*
X151643850Y-84136480D01*
X151621671Y-84146970D01*
X151598572Y-84155235D01*
X151574773Y-84161196D01*
X151550505Y-84164796D01*
X151526001Y-84166000D01*
X150225999Y-84166000D01*
X150201495Y-84164796D01*
X150177227Y-84161196D01*
X150153428Y-84155235D01*
X150130329Y-84146970D01*
X150108150Y-84136480D01*
X150087107Y-84123868D01*
X150067401Y-84109253D01*
X150049223Y-84092777D01*
X150032747Y-84074599D01*
X150018132Y-84054893D01*
X150005520Y-84033850D01*
X149995030Y-84011671D01*
X149986765Y-83988572D01*
X149980804Y-83964773D01*
X149977204Y-83940505D01*
X149976000Y-83916001D01*
X149976000Y-83215999D01*
X149977204Y-83191495D01*
X149980804Y-83167227D01*
X149986765Y-83143428D01*
X149995030Y-83120329D01*
X150005520Y-83098150D01*
X150018132Y-83077107D01*
X150032747Y-83057401D01*
X150049223Y-83039223D01*
X150067401Y-83022747D01*
X150087107Y-83008132D01*
X150108150Y-82995520D01*
X150130329Y-82985030D01*
X150153428Y-82976765D01*
X150177227Y-82970804D01*
X150201495Y-82967204D01*
X150225999Y-82966000D01*
X151526001Y-82966000D01*
X151550505Y-82967204D01*
X151550505Y-82967204D01*
G37*
D22*
X150876000Y-83566000D03*
D14*
X167005000Y-91211400D03*
D15*
X169545000Y-91211400D03*
X167005000Y-93751400D03*
X169545000Y-93751400D03*
X167005000Y-96291400D03*
X169545000Y-96291400D03*
D19*
G36*
X143930505Y-82967204D02*
G01*
X143954773Y-82970804D01*
X143978572Y-82976765D01*
X144001671Y-82985030D01*
X144023850Y-82995520D01*
X144044893Y-83008132D01*
X144064599Y-83022747D01*
X144082777Y-83039223D01*
X144099253Y-83057401D01*
X144113868Y-83077107D01*
X144126480Y-83098150D01*
X144136970Y-83120329D01*
X144145235Y-83143428D01*
X144151196Y-83167227D01*
X144154796Y-83191495D01*
X144156000Y-83215999D01*
X144156000Y-83916001D01*
X144154796Y-83940505D01*
X144151196Y-83964773D01*
X144145235Y-83988572D01*
X144136970Y-84011671D01*
X144126480Y-84033850D01*
X144113868Y-84054893D01*
X144099253Y-84074599D01*
X144082777Y-84092777D01*
X144064599Y-84109253D01*
X144044893Y-84123868D01*
X144023850Y-84136480D01*
X144001671Y-84146970D01*
X143978572Y-84155235D01*
X143954773Y-84161196D01*
X143930505Y-84164796D01*
X143906001Y-84166000D01*
X142605999Y-84166000D01*
X142581495Y-84164796D01*
X142557227Y-84161196D01*
X142533428Y-84155235D01*
X142510329Y-84146970D01*
X142488150Y-84136480D01*
X142467107Y-84123868D01*
X142447401Y-84109253D01*
X142429223Y-84092777D01*
X142412747Y-84074599D01*
X142398132Y-84054893D01*
X142385520Y-84033850D01*
X142375030Y-84011671D01*
X142366765Y-83988572D01*
X142360804Y-83964773D01*
X142357204Y-83940505D01*
X142356000Y-83916001D01*
X142356000Y-83215999D01*
X142357204Y-83191495D01*
X142360804Y-83167227D01*
X142366765Y-83143428D01*
X142375030Y-83120329D01*
X142385520Y-83098150D01*
X142398132Y-83077107D01*
X142412747Y-83057401D01*
X142429223Y-83039223D01*
X142447401Y-83022747D01*
X142467107Y-83008132D01*
X142488150Y-82995520D01*
X142510329Y-82985030D01*
X142533428Y-82976765D01*
X142557227Y-82970804D01*
X142581495Y-82967204D01*
X142605999Y-82966000D01*
X143906001Y-82966000D01*
X143930505Y-82967204D01*
X143930505Y-82967204D01*
G37*
D22*
X143256000Y-83566000D03*
D21*
X143256000Y-85566000D03*
X143256000Y-87566000D03*
X143256000Y-89566000D03*
X143256000Y-91566000D03*
X143256000Y-93566000D03*
X143256000Y-95566000D03*
D23*
X182880000Y-109728000D03*
D24*
X185420000Y-112268000D03*
X185420000Y-107188000D03*
X180340000Y-107188000D03*
X180340000Y-112268000D03*
X166878000Y-106426000D03*
X166878000Y-101346000D03*
X171958000Y-101346000D03*
X171958000Y-106426000D03*
D23*
X169418000Y-103886000D03*
D19*
G36*
X164543703Y-85425722D02*
G01*
X164558264Y-85427882D01*
X164572543Y-85431459D01*
X164586403Y-85436418D01*
X164599710Y-85442712D01*
X164612336Y-85450280D01*
X164624159Y-85459048D01*
X164635066Y-85468934D01*
X164644952Y-85479841D01*
X164653720Y-85491664D01*
X164661288Y-85504290D01*
X164667582Y-85517597D01*
X164672541Y-85531457D01*
X164676118Y-85545736D01*
X164678278Y-85560297D01*
X164679000Y-85575000D01*
X164679000Y-85875000D01*
X164678278Y-85889703D01*
X164676118Y-85904264D01*
X164672541Y-85918543D01*
X164667582Y-85932403D01*
X164661288Y-85945710D01*
X164653720Y-85958336D01*
X164644952Y-85970159D01*
X164635066Y-85981066D01*
X164624159Y-85990952D01*
X164612336Y-85999720D01*
X164599710Y-86007288D01*
X164586403Y-86013582D01*
X164572543Y-86018541D01*
X164558264Y-86022118D01*
X164543703Y-86024278D01*
X164529000Y-86025000D01*
X162779000Y-86025000D01*
X162764297Y-86024278D01*
X162749736Y-86022118D01*
X162735457Y-86018541D01*
X162721597Y-86013582D01*
X162708290Y-86007288D01*
X162695664Y-85999720D01*
X162683841Y-85990952D01*
X162672934Y-85981066D01*
X162663048Y-85970159D01*
X162654280Y-85958336D01*
X162646712Y-85945710D01*
X162640418Y-85932403D01*
X162635459Y-85918543D01*
X162631882Y-85904264D01*
X162629722Y-85889703D01*
X162629000Y-85875000D01*
X162629000Y-85575000D01*
X162629722Y-85560297D01*
X162631882Y-85545736D01*
X162635459Y-85531457D01*
X162640418Y-85517597D01*
X162646712Y-85504290D01*
X162654280Y-85491664D01*
X162663048Y-85479841D01*
X162672934Y-85468934D01*
X162683841Y-85459048D01*
X162695664Y-85450280D01*
X162708290Y-85442712D01*
X162721597Y-85436418D01*
X162735457Y-85431459D01*
X162749736Y-85427882D01*
X162764297Y-85425722D01*
X162779000Y-85425000D01*
X164529000Y-85425000D01*
X164543703Y-85425722D01*
X164543703Y-85425722D01*
G37*
D25*
X163654000Y-85725000D03*
D19*
G36*
X164543703Y-86695722D02*
G01*
X164558264Y-86697882D01*
X164572543Y-86701459D01*
X164586403Y-86706418D01*
X164599710Y-86712712D01*
X164612336Y-86720280D01*
X164624159Y-86729048D01*
X164635066Y-86738934D01*
X164644952Y-86749841D01*
X164653720Y-86761664D01*
X164661288Y-86774290D01*
X164667582Y-86787597D01*
X164672541Y-86801457D01*
X164676118Y-86815736D01*
X164678278Y-86830297D01*
X164679000Y-86845000D01*
X164679000Y-87145000D01*
X164678278Y-87159703D01*
X164676118Y-87174264D01*
X164672541Y-87188543D01*
X164667582Y-87202403D01*
X164661288Y-87215710D01*
X164653720Y-87228336D01*
X164644952Y-87240159D01*
X164635066Y-87251066D01*
X164624159Y-87260952D01*
X164612336Y-87269720D01*
X164599710Y-87277288D01*
X164586403Y-87283582D01*
X164572543Y-87288541D01*
X164558264Y-87292118D01*
X164543703Y-87294278D01*
X164529000Y-87295000D01*
X162779000Y-87295000D01*
X162764297Y-87294278D01*
X162749736Y-87292118D01*
X162735457Y-87288541D01*
X162721597Y-87283582D01*
X162708290Y-87277288D01*
X162695664Y-87269720D01*
X162683841Y-87260952D01*
X162672934Y-87251066D01*
X162663048Y-87240159D01*
X162654280Y-87228336D01*
X162646712Y-87215710D01*
X162640418Y-87202403D01*
X162635459Y-87188543D01*
X162631882Y-87174264D01*
X162629722Y-87159703D01*
X162629000Y-87145000D01*
X162629000Y-86845000D01*
X162629722Y-86830297D01*
X162631882Y-86815736D01*
X162635459Y-86801457D01*
X162640418Y-86787597D01*
X162646712Y-86774290D01*
X162654280Y-86761664D01*
X162663048Y-86749841D01*
X162672934Y-86738934D01*
X162683841Y-86729048D01*
X162695664Y-86720280D01*
X162708290Y-86712712D01*
X162721597Y-86706418D01*
X162735457Y-86701459D01*
X162749736Y-86697882D01*
X162764297Y-86695722D01*
X162779000Y-86695000D01*
X164529000Y-86695000D01*
X164543703Y-86695722D01*
X164543703Y-86695722D01*
G37*
D25*
X163654000Y-86995000D03*
D19*
G36*
X164543703Y-87965722D02*
G01*
X164558264Y-87967882D01*
X164572543Y-87971459D01*
X164586403Y-87976418D01*
X164599710Y-87982712D01*
X164612336Y-87990280D01*
X164624159Y-87999048D01*
X164635066Y-88008934D01*
X164644952Y-88019841D01*
X164653720Y-88031664D01*
X164661288Y-88044290D01*
X164667582Y-88057597D01*
X164672541Y-88071457D01*
X164676118Y-88085736D01*
X164678278Y-88100297D01*
X164679000Y-88115000D01*
X164679000Y-88415000D01*
X164678278Y-88429703D01*
X164676118Y-88444264D01*
X164672541Y-88458543D01*
X164667582Y-88472403D01*
X164661288Y-88485710D01*
X164653720Y-88498336D01*
X164644952Y-88510159D01*
X164635066Y-88521066D01*
X164624159Y-88530952D01*
X164612336Y-88539720D01*
X164599710Y-88547288D01*
X164586403Y-88553582D01*
X164572543Y-88558541D01*
X164558264Y-88562118D01*
X164543703Y-88564278D01*
X164529000Y-88565000D01*
X162779000Y-88565000D01*
X162764297Y-88564278D01*
X162749736Y-88562118D01*
X162735457Y-88558541D01*
X162721597Y-88553582D01*
X162708290Y-88547288D01*
X162695664Y-88539720D01*
X162683841Y-88530952D01*
X162672934Y-88521066D01*
X162663048Y-88510159D01*
X162654280Y-88498336D01*
X162646712Y-88485710D01*
X162640418Y-88472403D01*
X162635459Y-88458543D01*
X162631882Y-88444264D01*
X162629722Y-88429703D01*
X162629000Y-88415000D01*
X162629000Y-88115000D01*
X162629722Y-88100297D01*
X162631882Y-88085736D01*
X162635459Y-88071457D01*
X162640418Y-88057597D01*
X162646712Y-88044290D01*
X162654280Y-88031664D01*
X162663048Y-88019841D01*
X162672934Y-88008934D01*
X162683841Y-87999048D01*
X162695664Y-87990280D01*
X162708290Y-87982712D01*
X162721597Y-87976418D01*
X162735457Y-87971459D01*
X162749736Y-87967882D01*
X162764297Y-87965722D01*
X162779000Y-87965000D01*
X164529000Y-87965000D01*
X164543703Y-87965722D01*
X164543703Y-87965722D01*
G37*
D25*
X163654000Y-88265000D03*
D19*
G36*
X164543703Y-89235722D02*
G01*
X164558264Y-89237882D01*
X164572543Y-89241459D01*
X164586403Y-89246418D01*
X164599710Y-89252712D01*
X164612336Y-89260280D01*
X164624159Y-89269048D01*
X164635066Y-89278934D01*
X164644952Y-89289841D01*
X164653720Y-89301664D01*
X164661288Y-89314290D01*
X164667582Y-89327597D01*
X164672541Y-89341457D01*
X164676118Y-89355736D01*
X164678278Y-89370297D01*
X164679000Y-89385000D01*
X164679000Y-89685000D01*
X164678278Y-89699703D01*
X164676118Y-89714264D01*
X164672541Y-89728543D01*
X164667582Y-89742403D01*
X164661288Y-89755710D01*
X164653720Y-89768336D01*
X164644952Y-89780159D01*
X164635066Y-89791066D01*
X164624159Y-89800952D01*
X164612336Y-89809720D01*
X164599710Y-89817288D01*
X164586403Y-89823582D01*
X164572543Y-89828541D01*
X164558264Y-89832118D01*
X164543703Y-89834278D01*
X164529000Y-89835000D01*
X162779000Y-89835000D01*
X162764297Y-89834278D01*
X162749736Y-89832118D01*
X162735457Y-89828541D01*
X162721597Y-89823582D01*
X162708290Y-89817288D01*
X162695664Y-89809720D01*
X162683841Y-89800952D01*
X162672934Y-89791066D01*
X162663048Y-89780159D01*
X162654280Y-89768336D01*
X162646712Y-89755710D01*
X162640418Y-89742403D01*
X162635459Y-89728543D01*
X162631882Y-89714264D01*
X162629722Y-89699703D01*
X162629000Y-89685000D01*
X162629000Y-89385000D01*
X162629722Y-89370297D01*
X162631882Y-89355736D01*
X162635459Y-89341457D01*
X162640418Y-89327597D01*
X162646712Y-89314290D01*
X162654280Y-89301664D01*
X162663048Y-89289841D01*
X162672934Y-89278934D01*
X162683841Y-89269048D01*
X162695664Y-89260280D01*
X162708290Y-89252712D01*
X162721597Y-89246418D01*
X162735457Y-89241459D01*
X162749736Y-89237882D01*
X162764297Y-89235722D01*
X162779000Y-89235000D01*
X164529000Y-89235000D01*
X164543703Y-89235722D01*
X164543703Y-89235722D01*
G37*
D25*
X163654000Y-89535000D03*
D19*
G36*
X164543703Y-90505722D02*
G01*
X164558264Y-90507882D01*
X164572543Y-90511459D01*
X164586403Y-90516418D01*
X164599710Y-90522712D01*
X164612336Y-90530280D01*
X164624159Y-90539048D01*
X164635066Y-90548934D01*
X164644952Y-90559841D01*
X164653720Y-90571664D01*
X164661288Y-90584290D01*
X164667582Y-90597597D01*
X164672541Y-90611457D01*
X164676118Y-90625736D01*
X164678278Y-90640297D01*
X164679000Y-90655000D01*
X164679000Y-90955000D01*
X164678278Y-90969703D01*
X164676118Y-90984264D01*
X164672541Y-90998543D01*
X164667582Y-91012403D01*
X164661288Y-91025710D01*
X164653720Y-91038336D01*
X164644952Y-91050159D01*
X164635066Y-91061066D01*
X164624159Y-91070952D01*
X164612336Y-91079720D01*
X164599710Y-91087288D01*
X164586403Y-91093582D01*
X164572543Y-91098541D01*
X164558264Y-91102118D01*
X164543703Y-91104278D01*
X164529000Y-91105000D01*
X162779000Y-91105000D01*
X162764297Y-91104278D01*
X162749736Y-91102118D01*
X162735457Y-91098541D01*
X162721597Y-91093582D01*
X162708290Y-91087288D01*
X162695664Y-91079720D01*
X162683841Y-91070952D01*
X162672934Y-91061066D01*
X162663048Y-91050159D01*
X162654280Y-91038336D01*
X162646712Y-91025710D01*
X162640418Y-91012403D01*
X162635459Y-90998543D01*
X162631882Y-90984264D01*
X162629722Y-90969703D01*
X162629000Y-90955000D01*
X162629000Y-90655000D01*
X162629722Y-90640297D01*
X162631882Y-90625736D01*
X162635459Y-90611457D01*
X162640418Y-90597597D01*
X162646712Y-90584290D01*
X162654280Y-90571664D01*
X162663048Y-90559841D01*
X162672934Y-90548934D01*
X162683841Y-90539048D01*
X162695664Y-90530280D01*
X162708290Y-90522712D01*
X162721597Y-90516418D01*
X162735457Y-90511459D01*
X162749736Y-90507882D01*
X162764297Y-90505722D01*
X162779000Y-90505000D01*
X164529000Y-90505000D01*
X164543703Y-90505722D01*
X164543703Y-90505722D01*
G37*
D25*
X163654000Y-90805000D03*
D19*
G36*
X164543703Y-91775722D02*
G01*
X164558264Y-91777882D01*
X164572543Y-91781459D01*
X164586403Y-91786418D01*
X164599710Y-91792712D01*
X164612336Y-91800280D01*
X164624159Y-91809048D01*
X164635066Y-91818934D01*
X164644952Y-91829841D01*
X164653720Y-91841664D01*
X164661288Y-91854290D01*
X164667582Y-91867597D01*
X164672541Y-91881457D01*
X164676118Y-91895736D01*
X164678278Y-91910297D01*
X164679000Y-91925000D01*
X164679000Y-92225000D01*
X164678278Y-92239703D01*
X164676118Y-92254264D01*
X164672541Y-92268543D01*
X164667582Y-92282403D01*
X164661288Y-92295710D01*
X164653720Y-92308336D01*
X164644952Y-92320159D01*
X164635066Y-92331066D01*
X164624159Y-92340952D01*
X164612336Y-92349720D01*
X164599710Y-92357288D01*
X164586403Y-92363582D01*
X164572543Y-92368541D01*
X164558264Y-92372118D01*
X164543703Y-92374278D01*
X164529000Y-92375000D01*
X162779000Y-92375000D01*
X162764297Y-92374278D01*
X162749736Y-92372118D01*
X162735457Y-92368541D01*
X162721597Y-92363582D01*
X162708290Y-92357288D01*
X162695664Y-92349720D01*
X162683841Y-92340952D01*
X162672934Y-92331066D01*
X162663048Y-92320159D01*
X162654280Y-92308336D01*
X162646712Y-92295710D01*
X162640418Y-92282403D01*
X162635459Y-92268543D01*
X162631882Y-92254264D01*
X162629722Y-92239703D01*
X162629000Y-92225000D01*
X162629000Y-91925000D01*
X162629722Y-91910297D01*
X162631882Y-91895736D01*
X162635459Y-91881457D01*
X162640418Y-91867597D01*
X162646712Y-91854290D01*
X162654280Y-91841664D01*
X162663048Y-91829841D01*
X162672934Y-91818934D01*
X162683841Y-91809048D01*
X162695664Y-91800280D01*
X162708290Y-91792712D01*
X162721597Y-91786418D01*
X162735457Y-91781459D01*
X162749736Y-91777882D01*
X162764297Y-91775722D01*
X162779000Y-91775000D01*
X164529000Y-91775000D01*
X164543703Y-91775722D01*
X164543703Y-91775722D01*
G37*
D25*
X163654000Y-92075000D03*
D19*
G36*
X164543703Y-93045722D02*
G01*
X164558264Y-93047882D01*
X164572543Y-93051459D01*
X164586403Y-93056418D01*
X164599710Y-93062712D01*
X164612336Y-93070280D01*
X164624159Y-93079048D01*
X164635066Y-93088934D01*
X164644952Y-93099841D01*
X164653720Y-93111664D01*
X164661288Y-93124290D01*
X164667582Y-93137597D01*
X164672541Y-93151457D01*
X164676118Y-93165736D01*
X164678278Y-93180297D01*
X164679000Y-93195000D01*
X164679000Y-93495000D01*
X164678278Y-93509703D01*
X164676118Y-93524264D01*
X164672541Y-93538543D01*
X164667582Y-93552403D01*
X164661288Y-93565710D01*
X164653720Y-93578336D01*
X164644952Y-93590159D01*
X164635066Y-93601066D01*
X164624159Y-93610952D01*
X164612336Y-93619720D01*
X164599710Y-93627288D01*
X164586403Y-93633582D01*
X164572543Y-93638541D01*
X164558264Y-93642118D01*
X164543703Y-93644278D01*
X164529000Y-93645000D01*
X162779000Y-93645000D01*
X162764297Y-93644278D01*
X162749736Y-93642118D01*
X162735457Y-93638541D01*
X162721597Y-93633582D01*
X162708290Y-93627288D01*
X162695664Y-93619720D01*
X162683841Y-93610952D01*
X162672934Y-93601066D01*
X162663048Y-93590159D01*
X162654280Y-93578336D01*
X162646712Y-93565710D01*
X162640418Y-93552403D01*
X162635459Y-93538543D01*
X162631882Y-93524264D01*
X162629722Y-93509703D01*
X162629000Y-93495000D01*
X162629000Y-93195000D01*
X162629722Y-93180297D01*
X162631882Y-93165736D01*
X162635459Y-93151457D01*
X162640418Y-93137597D01*
X162646712Y-93124290D01*
X162654280Y-93111664D01*
X162663048Y-93099841D01*
X162672934Y-93088934D01*
X162683841Y-93079048D01*
X162695664Y-93070280D01*
X162708290Y-93062712D01*
X162721597Y-93056418D01*
X162735457Y-93051459D01*
X162749736Y-93047882D01*
X162764297Y-93045722D01*
X162779000Y-93045000D01*
X164529000Y-93045000D01*
X164543703Y-93045722D01*
X164543703Y-93045722D01*
G37*
D25*
X163654000Y-93345000D03*
D19*
G36*
X164543703Y-94315722D02*
G01*
X164558264Y-94317882D01*
X164572543Y-94321459D01*
X164586403Y-94326418D01*
X164599710Y-94332712D01*
X164612336Y-94340280D01*
X164624159Y-94349048D01*
X164635066Y-94358934D01*
X164644952Y-94369841D01*
X164653720Y-94381664D01*
X164661288Y-94394290D01*
X164667582Y-94407597D01*
X164672541Y-94421457D01*
X164676118Y-94435736D01*
X164678278Y-94450297D01*
X164679000Y-94465000D01*
X164679000Y-94765000D01*
X164678278Y-94779703D01*
X164676118Y-94794264D01*
X164672541Y-94808543D01*
X164667582Y-94822403D01*
X164661288Y-94835710D01*
X164653720Y-94848336D01*
X164644952Y-94860159D01*
X164635066Y-94871066D01*
X164624159Y-94880952D01*
X164612336Y-94889720D01*
X164599710Y-94897288D01*
X164586403Y-94903582D01*
X164572543Y-94908541D01*
X164558264Y-94912118D01*
X164543703Y-94914278D01*
X164529000Y-94915000D01*
X162779000Y-94915000D01*
X162764297Y-94914278D01*
X162749736Y-94912118D01*
X162735457Y-94908541D01*
X162721597Y-94903582D01*
X162708290Y-94897288D01*
X162695664Y-94889720D01*
X162683841Y-94880952D01*
X162672934Y-94871066D01*
X162663048Y-94860159D01*
X162654280Y-94848336D01*
X162646712Y-94835710D01*
X162640418Y-94822403D01*
X162635459Y-94808543D01*
X162631882Y-94794264D01*
X162629722Y-94779703D01*
X162629000Y-94765000D01*
X162629000Y-94465000D01*
X162629722Y-94450297D01*
X162631882Y-94435736D01*
X162635459Y-94421457D01*
X162640418Y-94407597D01*
X162646712Y-94394290D01*
X162654280Y-94381664D01*
X162663048Y-94369841D01*
X162672934Y-94358934D01*
X162683841Y-94349048D01*
X162695664Y-94340280D01*
X162708290Y-94332712D01*
X162721597Y-94326418D01*
X162735457Y-94321459D01*
X162749736Y-94317882D01*
X162764297Y-94315722D01*
X162779000Y-94315000D01*
X164529000Y-94315000D01*
X164543703Y-94315722D01*
X164543703Y-94315722D01*
G37*
D25*
X163654000Y-94615000D03*
D19*
G36*
X164543703Y-95585722D02*
G01*
X164558264Y-95587882D01*
X164572543Y-95591459D01*
X164586403Y-95596418D01*
X164599710Y-95602712D01*
X164612336Y-95610280D01*
X164624159Y-95619048D01*
X164635066Y-95628934D01*
X164644952Y-95639841D01*
X164653720Y-95651664D01*
X164661288Y-95664290D01*
X164667582Y-95677597D01*
X164672541Y-95691457D01*
X164676118Y-95705736D01*
X164678278Y-95720297D01*
X164679000Y-95735000D01*
X164679000Y-96035000D01*
X164678278Y-96049703D01*
X164676118Y-96064264D01*
X164672541Y-96078543D01*
X164667582Y-96092403D01*
X164661288Y-96105710D01*
X164653720Y-96118336D01*
X164644952Y-96130159D01*
X164635066Y-96141066D01*
X164624159Y-96150952D01*
X164612336Y-96159720D01*
X164599710Y-96167288D01*
X164586403Y-96173582D01*
X164572543Y-96178541D01*
X164558264Y-96182118D01*
X164543703Y-96184278D01*
X164529000Y-96185000D01*
X162779000Y-96185000D01*
X162764297Y-96184278D01*
X162749736Y-96182118D01*
X162735457Y-96178541D01*
X162721597Y-96173582D01*
X162708290Y-96167288D01*
X162695664Y-96159720D01*
X162683841Y-96150952D01*
X162672934Y-96141066D01*
X162663048Y-96130159D01*
X162654280Y-96118336D01*
X162646712Y-96105710D01*
X162640418Y-96092403D01*
X162635459Y-96078543D01*
X162631882Y-96064264D01*
X162629722Y-96049703D01*
X162629000Y-96035000D01*
X162629000Y-95735000D01*
X162629722Y-95720297D01*
X162631882Y-95705736D01*
X162635459Y-95691457D01*
X162640418Y-95677597D01*
X162646712Y-95664290D01*
X162654280Y-95651664D01*
X162663048Y-95639841D01*
X162672934Y-95628934D01*
X162683841Y-95619048D01*
X162695664Y-95610280D01*
X162708290Y-95602712D01*
X162721597Y-95596418D01*
X162735457Y-95591459D01*
X162749736Y-95587882D01*
X162764297Y-95585722D01*
X162779000Y-95585000D01*
X164529000Y-95585000D01*
X164543703Y-95585722D01*
X164543703Y-95585722D01*
G37*
D25*
X163654000Y-95885000D03*
D19*
G36*
X164543703Y-96855722D02*
G01*
X164558264Y-96857882D01*
X164572543Y-96861459D01*
X164586403Y-96866418D01*
X164599710Y-96872712D01*
X164612336Y-96880280D01*
X164624159Y-96889048D01*
X164635066Y-96898934D01*
X164644952Y-96909841D01*
X164653720Y-96921664D01*
X164661288Y-96934290D01*
X164667582Y-96947597D01*
X164672541Y-96961457D01*
X164676118Y-96975736D01*
X164678278Y-96990297D01*
X164679000Y-97005000D01*
X164679000Y-97305000D01*
X164678278Y-97319703D01*
X164676118Y-97334264D01*
X164672541Y-97348543D01*
X164667582Y-97362403D01*
X164661288Y-97375710D01*
X164653720Y-97388336D01*
X164644952Y-97400159D01*
X164635066Y-97411066D01*
X164624159Y-97420952D01*
X164612336Y-97429720D01*
X164599710Y-97437288D01*
X164586403Y-97443582D01*
X164572543Y-97448541D01*
X164558264Y-97452118D01*
X164543703Y-97454278D01*
X164529000Y-97455000D01*
X162779000Y-97455000D01*
X162764297Y-97454278D01*
X162749736Y-97452118D01*
X162735457Y-97448541D01*
X162721597Y-97443582D01*
X162708290Y-97437288D01*
X162695664Y-97429720D01*
X162683841Y-97420952D01*
X162672934Y-97411066D01*
X162663048Y-97400159D01*
X162654280Y-97388336D01*
X162646712Y-97375710D01*
X162640418Y-97362403D01*
X162635459Y-97348543D01*
X162631882Y-97334264D01*
X162629722Y-97319703D01*
X162629000Y-97305000D01*
X162629000Y-97005000D01*
X162629722Y-96990297D01*
X162631882Y-96975736D01*
X162635459Y-96961457D01*
X162640418Y-96947597D01*
X162646712Y-96934290D01*
X162654280Y-96921664D01*
X162663048Y-96909841D01*
X162672934Y-96898934D01*
X162683841Y-96889048D01*
X162695664Y-96880280D01*
X162708290Y-96872712D01*
X162721597Y-96866418D01*
X162735457Y-96861459D01*
X162749736Y-96857882D01*
X162764297Y-96855722D01*
X162779000Y-96855000D01*
X164529000Y-96855000D01*
X164543703Y-96855722D01*
X164543703Y-96855722D01*
G37*
D25*
X163654000Y-97155000D03*
D19*
G36*
X155243703Y-96855722D02*
G01*
X155258264Y-96857882D01*
X155272543Y-96861459D01*
X155286403Y-96866418D01*
X155299710Y-96872712D01*
X155312336Y-96880280D01*
X155324159Y-96889048D01*
X155335066Y-96898934D01*
X155344952Y-96909841D01*
X155353720Y-96921664D01*
X155361288Y-96934290D01*
X155367582Y-96947597D01*
X155372541Y-96961457D01*
X155376118Y-96975736D01*
X155378278Y-96990297D01*
X155379000Y-97005000D01*
X155379000Y-97305000D01*
X155378278Y-97319703D01*
X155376118Y-97334264D01*
X155372541Y-97348543D01*
X155367582Y-97362403D01*
X155361288Y-97375710D01*
X155353720Y-97388336D01*
X155344952Y-97400159D01*
X155335066Y-97411066D01*
X155324159Y-97420952D01*
X155312336Y-97429720D01*
X155299710Y-97437288D01*
X155286403Y-97443582D01*
X155272543Y-97448541D01*
X155258264Y-97452118D01*
X155243703Y-97454278D01*
X155229000Y-97455000D01*
X153479000Y-97455000D01*
X153464297Y-97454278D01*
X153449736Y-97452118D01*
X153435457Y-97448541D01*
X153421597Y-97443582D01*
X153408290Y-97437288D01*
X153395664Y-97429720D01*
X153383841Y-97420952D01*
X153372934Y-97411066D01*
X153363048Y-97400159D01*
X153354280Y-97388336D01*
X153346712Y-97375710D01*
X153340418Y-97362403D01*
X153335459Y-97348543D01*
X153331882Y-97334264D01*
X153329722Y-97319703D01*
X153329000Y-97305000D01*
X153329000Y-97005000D01*
X153329722Y-96990297D01*
X153331882Y-96975736D01*
X153335459Y-96961457D01*
X153340418Y-96947597D01*
X153346712Y-96934290D01*
X153354280Y-96921664D01*
X153363048Y-96909841D01*
X153372934Y-96898934D01*
X153383841Y-96889048D01*
X153395664Y-96880280D01*
X153408290Y-96872712D01*
X153421597Y-96866418D01*
X153435457Y-96861459D01*
X153449736Y-96857882D01*
X153464297Y-96855722D01*
X153479000Y-96855000D01*
X155229000Y-96855000D01*
X155243703Y-96855722D01*
X155243703Y-96855722D01*
G37*
D25*
X154354000Y-97155000D03*
D19*
G36*
X155243703Y-95585722D02*
G01*
X155258264Y-95587882D01*
X155272543Y-95591459D01*
X155286403Y-95596418D01*
X155299710Y-95602712D01*
X155312336Y-95610280D01*
X155324159Y-95619048D01*
X155335066Y-95628934D01*
X155344952Y-95639841D01*
X155353720Y-95651664D01*
X155361288Y-95664290D01*
X155367582Y-95677597D01*
X155372541Y-95691457D01*
X155376118Y-95705736D01*
X155378278Y-95720297D01*
X155379000Y-95735000D01*
X155379000Y-96035000D01*
X155378278Y-96049703D01*
X155376118Y-96064264D01*
X155372541Y-96078543D01*
X155367582Y-96092403D01*
X155361288Y-96105710D01*
X155353720Y-96118336D01*
X155344952Y-96130159D01*
X155335066Y-96141066D01*
X155324159Y-96150952D01*
X155312336Y-96159720D01*
X155299710Y-96167288D01*
X155286403Y-96173582D01*
X155272543Y-96178541D01*
X155258264Y-96182118D01*
X155243703Y-96184278D01*
X155229000Y-96185000D01*
X153479000Y-96185000D01*
X153464297Y-96184278D01*
X153449736Y-96182118D01*
X153435457Y-96178541D01*
X153421597Y-96173582D01*
X153408290Y-96167288D01*
X153395664Y-96159720D01*
X153383841Y-96150952D01*
X153372934Y-96141066D01*
X153363048Y-96130159D01*
X153354280Y-96118336D01*
X153346712Y-96105710D01*
X153340418Y-96092403D01*
X153335459Y-96078543D01*
X153331882Y-96064264D01*
X153329722Y-96049703D01*
X153329000Y-96035000D01*
X153329000Y-95735000D01*
X153329722Y-95720297D01*
X153331882Y-95705736D01*
X153335459Y-95691457D01*
X153340418Y-95677597D01*
X153346712Y-95664290D01*
X153354280Y-95651664D01*
X153363048Y-95639841D01*
X153372934Y-95628934D01*
X153383841Y-95619048D01*
X153395664Y-95610280D01*
X153408290Y-95602712D01*
X153421597Y-95596418D01*
X153435457Y-95591459D01*
X153449736Y-95587882D01*
X153464297Y-95585722D01*
X153479000Y-95585000D01*
X155229000Y-95585000D01*
X155243703Y-95585722D01*
X155243703Y-95585722D01*
G37*
D25*
X154354000Y-95885000D03*
D19*
G36*
X155243703Y-94315722D02*
G01*
X155258264Y-94317882D01*
X155272543Y-94321459D01*
X155286403Y-94326418D01*
X155299710Y-94332712D01*
X155312336Y-94340280D01*
X155324159Y-94349048D01*
X155335066Y-94358934D01*
X155344952Y-94369841D01*
X155353720Y-94381664D01*
X155361288Y-94394290D01*
X155367582Y-94407597D01*
X155372541Y-94421457D01*
X155376118Y-94435736D01*
X155378278Y-94450297D01*
X155379000Y-94465000D01*
X155379000Y-94765000D01*
X155378278Y-94779703D01*
X155376118Y-94794264D01*
X155372541Y-94808543D01*
X155367582Y-94822403D01*
X155361288Y-94835710D01*
X155353720Y-94848336D01*
X155344952Y-94860159D01*
X155335066Y-94871066D01*
X155324159Y-94880952D01*
X155312336Y-94889720D01*
X155299710Y-94897288D01*
X155286403Y-94903582D01*
X155272543Y-94908541D01*
X155258264Y-94912118D01*
X155243703Y-94914278D01*
X155229000Y-94915000D01*
X153479000Y-94915000D01*
X153464297Y-94914278D01*
X153449736Y-94912118D01*
X153435457Y-94908541D01*
X153421597Y-94903582D01*
X153408290Y-94897288D01*
X153395664Y-94889720D01*
X153383841Y-94880952D01*
X153372934Y-94871066D01*
X153363048Y-94860159D01*
X153354280Y-94848336D01*
X153346712Y-94835710D01*
X153340418Y-94822403D01*
X153335459Y-94808543D01*
X153331882Y-94794264D01*
X153329722Y-94779703D01*
X153329000Y-94765000D01*
X153329000Y-94465000D01*
X153329722Y-94450297D01*
X153331882Y-94435736D01*
X153335459Y-94421457D01*
X153340418Y-94407597D01*
X153346712Y-94394290D01*
X153354280Y-94381664D01*
X153363048Y-94369841D01*
X153372934Y-94358934D01*
X153383841Y-94349048D01*
X153395664Y-94340280D01*
X153408290Y-94332712D01*
X153421597Y-94326418D01*
X153435457Y-94321459D01*
X153449736Y-94317882D01*
X153464297Y-94315722D01*
X153479000Y-94315000D01*
X155229000Y-94315000D01*
X155243703Y-94315722D01*
X155243703Y-94315722D01*
G37*
D25*
X154354000Y-94615000D03*
D19*
G36*
X155243703Y-93045722D02*
G01*
X155258264Y-93047882D01*
X155272543Y-93051459D01*
X155286403Y-93056418D01*
X155299710Y-93062712D01*
X155312336Y-93070280D01*
X155324159Y-93079048D01*
X155335066Y-93088934D01*
X155344952Y-93099841D01*
X155353720Y-93111664D01*
X155361288Y-93124290D01*
X155367582Y-93137597D01*
X155372541Y-93151457D01*
X155376118Y-93165736D01*
X155378278Y-93180297D01*
X155379000Y-93195000D01*
X155379000Y-93495000D01*
X155378278Y-93509703D01*
X155376118Y-93524264D01*
X155372541Y-93538543D01*
X155367582Y-93552403D01*
X155361288Y-93565710D01*
X155353720Y-93578336D01*
X155344952Y-93590159D01*
X155335066Y-93601066D01*
X155324159Y-93610952D01*
X155312336Y-93619720D01*
X155299710Y-93627288D01*
X155286403Y-93633582D01*
X155272543Y-93638541D01*
X155258264Y-93642118D01*
X155243703Y-93644278D01*
X155229000Y-93645000D01*
X153479000Y-93645000D01*
X153464297Y-93644278D01*
X153449736Y-93642118D01*
X153435457Y-93638541D01*
X153421597Y-93633582D01*
X153408290Y-93627288D01*
X153395664Y-93619720D01*
X153383841Y-93610952D01*
X153372934Y-93601066D01*
X153363048Y-93590159D01*
X153354280Y-93578336D01*
X153346712Y-93565710D01*
X153340418Y-93552403D01*
X153335459Y-93538543D01*
X153331882Y-93524264D01*
X153329722Y-93509703D01*
X153329000Y-93495000D01*
X153329000Y-93195000D01*
X153329722Y-93180297D01*
X153331882Y-93165736D01*
X153335459Y-93151457D01*
X153340418Y-93137597D01*
X153346712Y-93124290D01*
X153354280Y-93111664D01*
X153363048Y-93099841D01*
X153372934Y-93088934D01*
X153383841Y-93079048D01*
X153395664Y-93070280D01*
X153408290Y-93062712D01*
X153421597Y-93056418D01*
X153435457Y-93051459D01*
X153449736Y-93047882D01*
X153464297Y-93045722D01*
X153479000Y-93045000D01*
X155229000Y-93045000D01*
X155243703Y-93045722D01*
X155243703Y-93045722D01*
G37*
D25*
X154354000Y-93345000D03*
D19*
G36*
X155243703Y-91775722D02*
G01*
X155258264Y-91777882D01*
X155272543Y-91781459D01*
X155286403Y-91786418D01*
X155299710Y-91792712D01*
X155312336Y-91800280D01*
X155324159Y-91809048D01*
X155335066Y-91818934D01*
X155344952Y-91829841D01*
X155353720Y-91841664D01*
X155361288Y-91854290D01*
X155367582Y-91867597D01*
X155372541Y-91881457D01*
X155376118Y-91895736D01*
X155378278Y-91910297D01*
X155379000Y-91925000D01*
X155379000Y-92225000D01*
X155378278Y-92239703D01*
X155376118Y-92254264D01*
X155372541Y-92268543D01*
X155367582Y-92282403D01*
X155361288Y-92295710D01*
X155353720Y-92308336D01*
X155344952Y-92320159D01*
X155335066Y-92331066D01*
X155324159Y-92340952D01*
X155312336Y-92349720D01*
X155299710Y-92357288D01*
X155286403Y-92363582D01*
X155272543Y-92368541D01*
X155258264Y-92372118D01*
X155243703Y-92374278D01*
X155229000Y-92375000D01*
X153479000Y-92375000D01*
X153464297Y-92374278D01*
X153449736Y-92372118D01*
X153435457Y-92368541D01*
X153421597Y-92363582D01*
X153408290Y-92357288D01*
X153395664Y-92349720D01*
X153383841Y-92340952D01*
X153372934Y-92331066D01*
X153363048Y-92320159D01*
X153354280Y-92308336D01*
X153346712Y-92295710D01*
X153340418Y-92282403D01*
X153335459Y-92268543D01*
X153331882Y-92254264D01*
X153329722Y-92239703D01*
X153329000Y-92225000D01*
X153329000Y-91925000D01*
X153329722Y-91910297D01*
X153331882Y-91895736D01*
X153335459Y-91881457D01*
X153340418Y-91867597D01*
X153346712Y-91854290D01*
X153354280Y-91841664D01*
X153363048Y-91829841D01*
X153372934Y-91818934D01*
X153383841Y-91809048D01*
X153395664Y-91800280D01*
X153408290Y-91792712D01*
X153421597Y-91786418D01*
X153435457Y-91781459D01*
X153449736Y-91777882D01*
X153464297Y-91775722D01*
X153479000Y-91775000D01*
X155229000Y-91775000D01*
X155243703Y-91775722D01*
X155243703Y-91775722D01*
G37*
D25*
X154354000Y-92075000D03*
D19*
G36*
X155243703Y-90505722D02*
G01*
X155258264Y-90507882D01*
X155272543Y-90511459D01*
X155286403Y-90516418D01*
X155299710Y-90522712D01*
X155312336Y-90530280D01*
X155324159Y-90539048D01*
X155335066Y-90548934D01*
X155344952Y-90559841D01*
X155353720Y-90571664D01*
X155361288Y-90584290D01*
X155367582Y-90597597D01*
X155372541Y-90611457D01*
X155376118Y-90625736D01*
X155378278Y-90640297D01*
X155379000Y-90655000D01*
X155379000Y-90955000D01*
X155378278Y-90969703D01*
X155376118Y-90984264D01*
X155372541Y-90998543D01*
X155367582Y-91012403D01*
X155361288Y-91025710D01*
X155353720Y-91038336D01*
X155344952Y-91050159D01*
X155335066Y-91061066D01*
X155324159Y-91070952D01*
X155312336Y-91079720D01*
X155299710Y-91087288D01*
X155286403Y-91093582D01*
X155272543Y-91098541D01*
X155258264Y-91102118D01*
X155243703Y-91104278D01*
X155229000Y-91105000D01*
X153479000Y-91105000D01*
X153464297Y-91104278D01*
X153449736Y-91102118D01*
X153435457Y-91098541D01*
X153421597Y-91093582D01*
X153408290Y-91087288D01*
X153395664Y-91079720D01*
X153383841Y-91070952D01*
X153372934Y-91061066D01*
X153363048Y-91050159D01*
X153354280Y-91038336D01*
X153346712Y-91025710D01*
X153340418Y-91012403D01*
X153335459Y-90998543D01*
X153331882Y-90984264D01*
X153329722Y-90969703D01*
X153329000Y-90955000D01*
X153329000Y-90655000D01*
X153329722Y-90640297D01*
X153331882Y-90625736D01*
X153335459Y-90611457D01*
X153340418Y-90597597D01*
X153346712Y-90584290D01*
X153354280Y-90571664D01*
X153363048Y-90559841D01*
X153372934Y-90548934D01*
X153383841Y-90539048D01*
X153395664Y-90530280D01*
X153408290Y-90522712D01*
X153421597Y-90516418D01*
X153435457Y-90511459D01*
X153449736Y-90507882D01*
X153464297Y-90505722D01*
X153479000Y-90505000D01*
X155229000Y-90505000D01*
X155243703Y-90505722D01*
X155243703Y-90505722D01*
G37*
D25*
X154354000Y-90805000D03*
D19*
G36*
X155243703Y-89235722D02*
G01*
X155258264Y-89237882D01*
X155272543Y-89241459D01*
X155286403Y-89246418D01*
X155299710Y-89252712D01*
X155312336Y-89260280D01*
X155324159Y-89269048D01*
X155335066Y-89278934D01*
X155344952Y-89289841D01*
X155353720Y-89301664D01*
X155361288Y-89314290D01*
X155367582Y-89327597D01*
X155372541Y-89341457D01*
X155376118Y-89355736D01*
X155378278Y-89370297D01*
X155379000Y-89385000D01*
X155379000Y-89685000D01*
X155378278Y-89699703D01*
X155376118Y-89714264D01*
X155372541Y-89728543D01*
X155367582Y-89742403D01*
X155361288Y-89755710D01*
X155353720Y-89768336D01*
X155344952Y-89780159D01*
X155335066Y-89791066D01*
X155324159Y-89800952D01*
X155312336Y-89809720D01*
X155299710Y-89817288D01*
X155286403Y-89823582D01*
X155272543Y-89828541D01*
X155258264Y-89832118D01*
X155243703Y-89834278D01*
X155229000Y-89835000D01*
X153479000Y-89835000D01*
X153464297Y-89834278D01*
X153449736Y-89832118D01*
X153435457Y-89828541D01*
X153421597Y-89823582D01*
X153408290Y-89817288D01*
X153395664Y-89809720D01*
X153383841Y-89800952D01*
X153372934Y-89791066D01*
X153363048Y-89780159D01*
X153354280Y-89768336D01*
X153346712Y-89755710D01*
X153340418Y-89742403D01*
X153335459Y-89728543D01*
X153331882Y-89714264D01*
X153329722Y-89699703D01*
X153329000Y-89685000D01*
X153329000Y-89385000D01*
X153329722Y-89370297D01*
X153331882Y-89355736D01*
X153335459Y-89341457D01*
X153340418Y-89327597D01*
X153346712Y-89314290D01*
X153354280Y-89301664D01*
X153363048Y-89289841D01*
X153372934Y-89278934D01*
X153383841Y-89269048D01*
X153395664Y-89260280D01*
X153408290Y-89252712D01*
X153421597Y-89246418D01*
X153435457Y-89241459D01*
X153449736Y-89237882D01*
X153464297Y-89235722D01*
X153479000Y-89235000D01*
X155229000Y-89235000D01*
X155243703Y-89235722D01*
X155243703Y-89235722D01*
G37*
D25*
X154354000Y-89535000D03*
D19*
G36*
X155243703Y-87965722D02*
G01*
X155258264Y-87967882D01*
X155272543Y-87971459D01*
X155286403Y-87976418D01*
X155299710Y-87982712D01*
X155312336Y-87990280D01*
X155324159Y-87999048D01*
X155335066Y-88008934D01*
X155344952Y-88019841D01*
X155353720Y-88031664D01*
X155361288Y-88044290D01*
X155367582Y-88057597D01*
X155372541Y-88071457D01*
X155376118Y-88085736D01*
X155378278Y-88100297D01*
X155379000Y-88115000D01*
X155379000Y-88415000D01*
X155378278Y-88429703D01*
X155376118Y-88444264D01*
X155372541Y-88458543D01*
X155367582Y-88472403D01*
X155361288Y-88485710D01*
X155353720Y-88498336D01*
X155344952Y-88510159D01*
X155335066Y-88521066D01*
X155324159Y-88530952D01*
X155312336Y-88539720D01*
X155299710Y-88547288D01*
X155286403Y-88553582D01*
X155272543Y-88558541D01*
X155258264Y-88562118D01*
X155243703Y-88564278D01*
X155229000Y-88565000D01*
X153479000Y-88565000D01*
X153464297Y-88564278D01*
X153449736Y-88562118D01*
X153435457Y-88558541D01*
X153421597Y-88553582D01*
X153408290Y-88547288D01*
X153395664Y-88539720D01*
X153383841Y-88530952D01*
X153372934Y-88521066D01*
X153363048Y-88510159D01*
X153354280Y-88498336D01*
X153346712Y-88485710D01*
X153340418Y-88472403D01*
X153335459Y-88458543D01*
X153331882Y-88444264D01*
X153329722Y-88429703D01*
X153329000Y-88415000D01*
X153329000Y-88115000D01*
X153329722Y-88100297D01*
X153331882Y-88085736D01*
X153335459Y-88071457D01*
X153340418Y-88057597D01*
X153346712Y-88044290D01*
X153354280Y-88031664D01*
X153363048Y-88019841D01*
X153372934Y-88008934D01*
X153383841Y-87999048D01*
X153395664Y-87990280D01*
X153408290Y-87982712D01*
X153421597Y-87976418D01*
X153435457Y-87971459D01*
X153449736Y-87967882D01*
X153464297Y-87965722D01*
X153479000Y-87965000D01*
X155229000Y-87965000D01*
X155243703Y-87965722D01*
X155243703Y-87965722D01*
G37*
D25*
X154354000Y-88265000D03*
D19*
G36*
X155243703Y-86695722D02*
G01*
X155258264Y-86697882D01*
X155272543Y-86701459D01*
X155286403Y-86706418D01*
X155299710Y-86712712D01*
X155312336Y-86720280D01*
X155324159Y-86729048D01*
X155335066Y-86738934D01*
X155344952Y-86749841D01*
X155353720Y-86761664D01*
X155361288Y-86774290D01*
X155367582Y-86787597D01*
X155372541Y-86801457D01*
X155376118Y-86815736D01*
X155378278Y-86830297D01*
X155379000Y-86845000D01*
X155379000Y-87145000D01*
X155378278Y-87159703D01*
X155376118Y-87174264D01*
X155372541Y-87188543D01*
X155367582Y-87202403D01*
X155361288Y-87215710D01*
X155353720Y-87228336D01*
X155344952Y-87240159D01*
X155335066Y-87251066D01*
X155324159Y-87260952D01*
X155312336Y-87269720D01*
X155299710Y-87277288D01*
X155286403Y-87283582D01*
X155272543Y-87288541D01*
X155258264Y-87292118D01*
X155243703Y-87294278D01*
X155229000Y-87295000D01*
X153479000Y-87295000D01*
X153464297Y-87294278D01*
X153449736Y-87292118D01*
X153435457Y-87288541D01*
X153421597Y-87283582D01*
X153408290Y-87277288D01*
X153395664Y-87269720D01*
X153383841Y-87260952D01*
X153372934Y-87251066D01*
X153363048Y-87240159D01*
X153354280Y-87228336D01*
X153346712Y-87215710D01*
X153340418Y-87202403D01*
X153335459Y-87188543D01*
X153331882Y-87174264D01*
X153329722Y-87159703D01*
X153329000Y-87145000D01*
X153329000Y-86845000D01*
X153329722Y-86830297D01*
X153331882Y-86815736D01*
X153335459Y-86801457D01*
X153340418Y-86787597D01*
X153346712Y-86774290D01*
X153354280Y-86761664D01*
X153363048Y-86749841D01*
X153372934Y-86738934D01*
X153383841Y-86729048D01*
X153395664Y-86720280D01*
X153408290Y-86712712D01*
X153421597Y-86706418D01*
X153435457Y-86701459D01*
X153449736Y-86697882D01*
X153464297Y-86695722D01*
X153479000Y-86695000D01*
X155229000Y-86695000D01*
X155243703Y-86695722D01*
X155243703Y-86695722D01*
G37*
D25*
X154354000Y-86995000D03*
D19*
G36*
X155243703Y-85425722D02*
G01*
X155258264Y-85427882D01*
X155272543Y-85431459D01*
X155286403Y-85436418D01*
X155299710Y-85442712D01*
X155312336Y-85450280D01*
X155324159Y-85459048D01*
X155335066Y-85468934D01*
X155344952Y-85479841D01*
X155353720Y-85491664D01*
X155361288Y-85504290D01*
X155367582Y-85517597D01*
X155372541Y-85531457D01*
X155376118Y-85545736D01*
X155378278Y-85560297D01*
X155379000Y-85575000D01*
X155379000Y-85875000D01*
X155378278Y-85889703D01*
X155376118Y-85904264D01*
X155372541Y-85918543D01*
X155367582Y-85932403D01*
X155361288Y-85945710D01*
X155353720Y-85958336D01*
X155344952Y-85970159D01*
X155335066Y-85981066D01*
X155324159Y-85990952D01*
X155312336Y-85999720D01*
X155299710Y-86007288D01*
X155286403Y-86013582D01*
X155272543Y-86018541D01*
X155258264Y-86022118D01*
X155243703Y-86024278D01*
X155229000Y-86025000D01*
X153479000Y-86025000D01*
X153464297Y-86024278D01*
X153449736Y-86022118D01*
X153435457Y-86018541D01*
X153421597Y-86013582D01*
X153408290Y-86007288D01*
X153395664Y-85999720D01*
X153383841Y-85990952D01*
X153372934Y-85981066D01*
X153363048Y-85970159D01*
X153354280Y-85958336D01*
X153346712Y-85945710D01*
X153340418Y-85932403D01*
X153335459Y-85918543D01*
X153331882Y-85904264D01*
X153329722Y-85889703D01*
X153329000Y-85875000D01*
X153329000Y-85575000D01*
X153329722Y-85560297D01*
X153331882Y-85545736D01*
X153335459Y-85531457D01*
X153340418Y-85517597D01*
X153346712Y-85504290D01*
X153354280Y-85491664D01*
X153363048Y-85479841D01*
X153372934Y-85468934D01*
X153383841Y-85459048D01*
X153395664Y-85450280D01*
X153408290Y-85442712D01*
X153421597Y-85436418D01*
X153435457Y-85431459D01*
X153449736Y-85427882D01*
X153464297Y-85425722D01*
X153479000Y-85425000D01*
X155229000Y-85425000D01*
X155243703Y-85425722D01*
X155243703Y-85425722D01*
G37*
D25*
X154354000Y-85725000D03*
D19*
G36*
X189118703Y-91013722D02*
G01*
X189133264Y-91015882D01*
X189147543Y-91019459D01*
X189161403Y-91024418D01*
X189174710Y-91030712D01*
X189187336Y-91038280D01*
X189199159Y-91047048D01*
X189210066Y-91056934D01*
X189219952Y-91067841D01*
X189228720Y-91079664D01*
X189236288Y-91092290D01*
X189242582Y-91105597D01*
X189247541Y-91119457D01*
X189251118Y-91133736D01*
X189253278Y-91148297D01*
X189254000Y-91163000D01*
X189254000Y-91463000D01*
X189253278Y-91477703D01*
X189251118Y-91492264D01*
X189247541Y-91506543D01*
X189242582Y-91520403D01*
X189236288Y-91533710D01*
X189228720Y-91546336D01*
X189219952Y-91558159D01*
X189210066Y-91569066D01*
X189199159Y-91578952D01*
X189187336Y-91587720D01*
X189174710Y-91595288D01*
X189161403Y-91601582D01*
X189147543Y-91606541D01*
X189133264Y-91610118D01*
X189118703Y-91612278D01*
X189104000Y-91613000D01*
X187454000Y-91613000D01*
X187439297Y-91612278D01*
X187424736Y-91610118D01*
X187410457Y-91606541D01*
X187396597Y-91601582D01*
X187383290Y-91595288D01*
X187370664Y-91587720D01*
X187358841Y-91578952D01*
X187347934Y-91569066D01*
X187338048Y-91558159D01*
X187329280Y-91546336D01*
X187321712Y-91533710D01*
X187315418Y-91520403D01*
X187310459Y-91506543D01*
X187306882Y-91492264D01*
X187304722Y-91477703D01*
X187304000Y-91463000D01*
X187304000Y-91163000D01*
X187304722Y-91148297D01*
X187306882Y-91133736D01*
X187310459Y-91119457D01*
X187315418Y-91105597D01*
X187321712Y-91092290D01*
X187329280Y-91079664D01*
X187338048Y-91067841D01*
X187347934Y-91056934D01*
X187358841Y-91047048D01*
X187370664Y-91038280D01*
X187383290Y-91030712D01*
X187396597Y-91024418D01*
X187410457Y-91019459D01*
X187424736Y-91015882D01*
X187439297Y-91013722D01*
X187454000Y-91013000D01*
X189104000Y-91013000D01*
X189118703Y-91013722D01*
X189118703Y-91013722D01*
G37*
D25*
X188279000Y-91313000D03*
D19*
G36*
X189118703Y-92283722D02*
G01*
X189133264Y-92285882D01*
X189147543Y-92289459D01*
X189161403Y-92294418D01*
X189174710Y-92300712D01*
X189187336Y-92308280D01*
X189199159Y-92317048D01*
X189210066Y-92326934D01*
X189219952Y-92337841D01*
X189228720Y-92349664D01*
X189236288Y-92362290D01*
X189242582Y-92375597D01*
X189247541Y-92389457D01*
X189251118Y-92403736D01*
X189253278Y-92418297D01*
X189254000Y-92433000D01*
X189254000Y-92733000D01*
X189253278Y-92747703D01*
X189251118Y-92762264D01*
X189247541Y-92776543D01*
X189242582Y-92790403D01*
X189236288Y-92803710D01*
X189228720Y-92816336D01*
X189219952Y-92828159D01*
X189210066Y-92839066D01*
X189199159Y-92848952D01*
X189187336Y-92857720D01*
X189174710Y-92865288D01*
X189161403Y-92871582D01*
X189147543Y-92876541D01*
X189133264Y-92880118D01*
X189118703Y-92882278D01*
X189104000Y-92883000D01*
X187454000Y-92883000D01*
X187439297Y-92882278D01*
X187424736Y-92880118D01*
X187410457Y-92876541D01*
X187396597Y-92871582D01*
X187383290Y-92865288D01*
X187370664Y-92857720D01*
X187358841Y-92848952D01*
X187347934Y-92839066D01*
X187338048Y-92828159D01*
X187329280Y-92816336D01*
X187321712Y-92803710D01*
X187315418Y-92790403D01*
X187310459Y-92776543D01*
X187306882Y-92762264D01*
X187304722Y-92747703D01*
X187304000Y-92733000D01*
X187304000Y-92433000D01*
X187304722Y-92418297D01*
X187306882Y-92403736D01*
X187310459Y-92389457D01*
X187315418Y-92375597D01*
X187321712Y-92362290D01*
X187329280Y-92349664D01*
X187338048Y-92337841D01*
X187347934Y-92326934D01*
X187358841Y-92317048D01*
X187370664Y-92308280D01*
X187383290Y-92300712D01*
X187396597Y-92294418D01*
X187410457Y-92289459D01*
X187424736Y-92285882D01*
X187439297Y-92283722D01*
X187454000Y-92283000D01*
X189104000Y-92283000D01*
X189118703Y-92283722D01*
X189118703Y-92283722D01*
G37*
D25*
X188279000Y-92583000D03*
D19*
G36*
X189118703Y-93553722D02*
G01*
X189133264Y-93555882D01*
X189147543Y-93559459D01*
X189161403Y-93564418D01*
X189174710Y-93570712D01*
X189187336Y-93578280D01*
X189199159Y-93587048D01*
X189210066Y-93596934D01*
X189219952Y-93607841D01*
X189228720Y-93619664D01*
X189236288Y-93632290D01*
X189242582Y-93645597D01*
X189247541Y-93659457D01*
X189251118Y-93673736D01*
X189253278Y-93688297D01*
X189254000Y-93703000D01*
X189254000Y-94003000D01*
X189253278Y-94017703D01*
X189251118Y-94032264D01*
X189247541Y-94046543D01*
X189242582Y-94060403D01*
X189236288Y-94073710D01*
X189228720Y-94086336D01*
X189219952Y-94098159D01*
X189210066Y-94109066D01*
X189199159Y-94118952D01*
X189187336Y-94127720D01*
X189174710Y-94135288D01*
X189161403Y-94141582D01*
X189147543Y-94146541D01*
X189133264Y-94150118D01*
X189118703Y-94152278D01*
X189104000Y-94153000D01*
X187454000Y-94153000D01*
X187439297Y-94152278D01*
X187424736Y-94150118D01*
X187410457Y-94146541D01*
X187396597Y-94141582D01*
X187383290Y-94135288D01*
X187370664Y-94127720D01*
X187358841Y-94118952D01*
X187347934Y-94109066D01*
X187338048Y-94098159D01*
X187329280Y-94086336D01*
X187321712Y-94073710D01*
X187315418Y-94060403D01*
X187310459Y-94046543D01*
X187306882Y-94032264D01*
X187304722Y-94017703D01*
X187304000Y-94003000D01*
X187304000Y-93703000D01*
X187304722Y-93688297D01*
X187306882Y-93673736D01*
X187310459Y-93659457D01*
X187315418Y-93645597D01*
X187321712Y-93632290D01*
X187329280Y-93619664D01*
X187338048Y-93607841D01*
X187347934Y-93596934D01*
X187358841Y-93587048D01*
X187370664Y-93578280D01*
X187383290Y-93570712D01*
X187396597Y-93564418D01*
X187410457Y-93559459D01*
X187424736Y-93555882D01*
X187439297Y-93553722D01*
X187454000Y-93553000D01*
X189104000Y-93553000D01*
X189118703Y-93553722D01*
X189118703Y-93553722D01*
G37*
D25*
X188279000Y-93853000D03*
D19*
G36*
X189118703Y-94823722D02*
G01*
X189133264Y-94825882D01*
X189147543Y-94829459D01*
X189161403Y-94834418D01*
X189174710Y-94840712D01*
X189187336Y-94848280D01*
X189199159Y-94857048D01*
X189210066Y-94866934D01*
X189219952Y-94877841D01*
X189228720Y-94889664D01*
X189236288Y-94902290D01*
X189242582Y-94915597D01*
X189247541Y-94929457D01*
X189251118Y-94943736D01*
X189253278Y-94958297D01*
X189254000Y-94973000D01*
X189254000Y-95273000D01*
X189253278Y-95287703D01*
X189251118Y-95302264D01*
X189247541Y-95316543D01*
X189242582Y-95330403D01*
X189236288Y-95343710D01*
X189228720Y-95356336D01*
X189219952Y-95368159D01*
X189210066Y-95379066D01*
X189199159Y-95388952D01*
X189187336Y-95397720D01*
X189174710Y-95405288D01*
X189161403Y-95411582D01*
X189147543Y-95416541D01*
X189133264Y-95420118D01*
X189118703Y-95422278D01*
X189104000Y-95423000D01*
X187454000Y-95423000D01*
X187439297Y-95422278D01*
X187424736Y-95420118D01*
X187410457Y-95416541D01*
X187396597Y-95411582D01*
X187383290Y-95405288D01*
X187370664Y-95397720D01*
X187358841Y-95388952D01*
X187347934Y-95379066D01*
X187338048Y-95368159D01*
X187329280Y-95356336D01*
X187321712Y-95343710D01*
X187315418Y-95330403D01*
X187310459Y-95316543D01*
X187306882Y-95302264D01*
X187304722Y-95287703D01*
X187304000Y-95273000D01*
X187304000Y-94973000D01*
X187304722Y-94958297D01*
X187306882Y-94943736D01*
X187310459Y-94929457D01*
X187315418Y-94915597D01*
X187321712Y-94902290D01*
X187329280Y-94889664D01*
X187338048Y-94877841D01*
X187347934Y-94866934D01*
X187358841Y-94857048D01*
X187370664Y-94848280D01*
X187383290Y-94840712D01*
X187396597Y-94834418D01*
X187410457Y-94829459D01*
X187424736Y-94825882D01*
X187439297Y-94823722D01*
X187454000Y-94823000D01*
X189104000Y-94823000D01*
X189118703Y-94823722D01*
X189118703Y-94823722D01*
G37*
D25*
X188279000Y-95123000D03*
D19*
G36*
X189118703Y-96093722D02*
G01*
X189133264Y-96095882D01*
X189147543Y-96099459D01*
X189161403Y-96104418D01*
X189174710Y-96110712D01*
X189187336Y-96118280D01*
X189199159Y-96127048D01*
X189210066Y-96136934D01*
X189219952Y-96147841D01*
X189228720Y-96159664D01*
X189236288Y-96172290D01*
X189242582Y-96185597D01*
X189247541Y-96199457D01*
X189251118Y-96213736D01*
X189253278Y-96228297D01*
X189254000Y-96243000D01*
X189254000Y-96543000D01*
X189253278Y-96557703D01*
X189251118Y-96572264D01*
X189247541Y-96586543D01*
X189242582Y-96600403D01*
X189236288Y-96613710D01*
X189228720Y-96626336D01*
X189219952Y-96638159D01*
X189210066Y-96649066D01*
X189199159Y-96658952D01*
X189187336Y-96667720D01*
X189174710Y-96675288D01*
X189161403Y-96681582D01*
X189147543Y-96686541D01*
X189133264Y-96690118D01*
X189118703Y-96692278D01*
X189104000Y-96693000D01*
X187454000Y-96693000D01*
X187439297Y-96692278D01*
X187424736Y-96690118D01*
X187410457Y-96686541D01*
X187396597Y-96681582D01*
X187383290Y-96675288D01*
X187370664Y-96667720D01*
X187358841Y-96658952D01*
X187347934Y-96649066D01*
X187338048Y-96638159D01*
X187329280Y-96626336D01*
X187321712Y-96613710D01*
X187315418Y-96600403D01*
X187310459Y-96586543D01*
X187306882Y-96572264D01*
X187304722Y-96557703D01*
X187304000Y-96543000D01*
X187304000Y-96243000D01*
X187304722Y-96228297D01*
X187306882Y-96213736D01*
X187310459Y-96199457D01*
X187315418Y-96185597D01*
X187321712Y-96172290D01*
X187329280Y-96159664D01*
X187338048Y-96147841D01*
X187347934Y-96136934D01*
X187358841Y-96127048D01*
X187370664Y-96118280D01*
X187383290Y-96110712D01*
X187396597Y-96104418D01*
X187410457Y-96099459D01*
X187424736Y-96095882D01*
X187439297Y-96093722D01*
X187454000Y-96093000D01*
X189104000Y-96093000D01*
X189118703Y-96093722D01*
X189118703Y-96093722D01*
G37*
D25*
X188279000Y-96393000D03*
D19*
G36*
X189118703Y-97363722D02*
G01*
X189133264Y-97365882D01*
X189147543Y-97369459D01*
X189161403Y-97374418D01*
X189174710Y-97380712D01*
X189187336Y-97388280D01*
X189199159Y-97397048D01*
X189210066Y-97406934D01*
X189219952Y-97417841D01*
X189228720Y-97429664D01*
X189236288Y-97442290D01*
X189242582Y-97455597D01*
X189247541Y-97469457D01*
X189251118Y-97483736D01*
X189253278Y-97498297D01*
X189254000Y-97513000D01*
X189254000Y-97813000D01*
X189253278Y-97827703D01*
X189251118Y-97842264D01*
X189247541Y-97856543D01*
X189242582Y-97870403D01*
X189236288Y-97883710D01*
X189228720Y-97896336D01*
X189219952Y-97908159D01*
X189210066Y-97919066D01*
X189199159Y-97928952D01*
X189187336Y-97937720D01*
X189174710Y-97945288D01*
X189161403Y-97951582D01*
X189147543Y-97956541D01*
X189133264Y-97960118D01*
X189118703Y-97962278D01*
X189104000Y-97963000D01*
X187454000Y-97963000D01*
X187439297Y-97962278D01*
X187424736Y-97960118D01*
X187410457Y-97956541D01*
X187396597Y-97951582D01*
X187383290Y-97945288D01*
X187370664Y-97937720D01*
X187358841Y-97928952D01*
X187347934Y-97919066D01*
X187338048Y-97908159D01*
X187329280Y-97896336D01*
X187321712Y-97883710D01*
X187315418Y-97870403D01*
X187310459Y-97856543D01*
X187306882Y-97842264D01*
X187304722Y-97827703D01*
X187304000Y-97813000D01*
X187304000Y-97513000D01*
X187304722Y-97498297D01*
X187306882Y-97483736D01*
X187310459Y-97469457D01*
X187315418Y-97455597D01*
X187321712Y-97442290D01*
X187329280Y-97429664D01*
X187338048Y-97417841D01*
X187347934Y-97406934D01*
X187358841Y-97397048D01*
X187370664Y-97388280D01*
X187383290Y-97380712D01*
X187396597Y-97374418D01*
X187410457Y-97369459D01*
X187424736Y-97365882D01*
X187439297Y-97363722D01*
X187454000Y-97363000D01*
X189104000Y-97363000D01*
X189118703Y-97363722D01*
X189118703Y-97363722D01*
G37*
D25*
X188279000Y-97663000D03*
D19*
G36*
X189118703Y-98633722D02*
G01*
X189133264Y-98635882D01*
X189147543Y-98639459D01*
X189161403Y-98644418D01*
X189174710Y-98650712D01*
X189187336Y-98658280D01*
X189199159Y-98667048D01*
X189210066Y-98676934D01*
X189219952Y-98687841D01*
X189228720Y-98699664D01*
X189236288Y-98712290D01*
X189242582Y-98725597D01*
X189247541Y-98739457D01*
X189251118Y-98753736D01*
X189253278Y-98768297D01*
X189254000Y-98783000D01*
X189254000Y-99083000D01*
X189253278Y-99097703D01*
X189251118Y-99112264D01*
X189247541Y-99126543D01*
X189242582Y-99140403D01*
X189236288Y-99153710D01*
X189228720Y-99166336D01*
X189219952Y-99178159D01*
X189210066Y-99189066D01*
X189199159Y-99198952D01*
X189187336Y-99207720D01*
X189174710Y-99215288D01*
X189161403Y-99221582D01*
X189147543Y-99226541D01*
X189133264Y-99230118D01*
X189118703Y-99232278D01*
X189104000Y-99233000D01*
X187454000Y-99233000D01*
X187439297Y-99232278D01*
X187424736Y-99230118D01*
X187410457Y-99226541D01*
X187396597Y-99221582D01*
X187383290Y-99215288D01*
X187370664Y-99207720D01*
X187358841Y-99198952D01*
X187347934Y-99189066D01*
X187338048Y-99178159D01*
X187329280Y-99166336D01*
X187321712Y-99153710D01*
X187315418Y-99140403D01*
X187310459Y-99126543D01*
X187306882Y-99112264D01*
X187304722Y-99097703D01*
X187304000Y-99083000D01*
X187304000Y-98783000D01*
X187304722Y-98768297D01*
X187306882Y-98753736D01*
X187310459Y-98739457D01*
X187315418Y-98725597D01*
X187321712Y-98712290D01*
X187329280Y-98699664D01*
X187338048Y-98687841D01*
X187347934Y-98676934D01*
X187358841Y-98667048D01*
X187370664Y-98658280D01*
X187383290Y-98650712D01*
X187396597Y-98644418D01*
X187410457Y-98639459D01*
X187424736Y-98635882D01*
X187439297Y-98633722D01*
X187454000Y-98633000D01*
X189104000Y-98633000D01*
X189118703Y-98633722D01*
X189118703Y-98633722D01*
G37*
D25*
X188279000Y-98933000D03*
D19*
G36*
X189118703Y-99903722D02*
G01*
X189133264Y-99905882D01*
X189147543Y-99909459D01*
X189161403Y-99914418D01*
X189174710Y-99920712D01*
X189187336Y-99928280D01*
X189199159Y-99937048D01*
X189210066Y-99946934D01*
X189219952Y-99957841D01*
X189228720Y-99969664D01*
X189236288Y-99982290D01*
X189242582Y-99995597D01*
X189247541Y-100009457D01*
X189251118Y-100023736D01*
X189253278Y-100038297D01*
X189254000Y-100053000D01*
X189254000Y-100353000D01*
X189253278Y-100367703D01*
X189251118Y-100382264D01*
X189247541Y-100396543D01*
X189242582Y-100410403D01*
X189236288Y-100423710D01*
X189228720Y-100436336D01*
X189219952Y-100448159D01*
X189210066Y-100459066D01*
X189199159Y-100468952D01*
X189187336Y-100477720D01*
X189174710Y-100485288D01*
X189161403Y-100491582D01*
X189147543Y-100496541D01*
X189133264Y-100500118D01*
X189118703Y-100502278D01*
X189104000Y-100503000D01*
X187454000Y-100503000D01*
X187439297Y-100502278D01*
X187424736Y-100500118D01*
X187410457Y-100496541D01*
X187396597Y-100491582D01*
X187383290Y-100485288D01*
X187370664Y-100477720D01*
X187358841Y-100468952D01*
X187347934Y-100459066D01*
X187338048Y-100448159D01*
X187329280Y-100436336D01*
X187321712Y-100423710D01*
X187315418Y-100410403D01*
X187310459Y-100396543D01*
X187306882Y-100382264D01*
X187304722Y-100367703D01*
X187304000Y-100353000D01*
X187304000Y-100053000D01*
X187304722Y-100038297D01*
X187306882Y-100023736D01*
X187310459Y-100009457D01*
X187315418Y-99995597D01*
X187321712Y-99982290D01*
X187329280Y-99969664D01*
X187338048Y-99957841D01*
X187347934Y-99946934D01*
X187358841Y-99937048D01*
X187370664Y-99928280D01*
X187383290Y-99920712D01*
X187396597Y-99914418D01*
X187410457Y-99909459D01*
X187424736Y-99905882D01*
X187439297Y-99903722D01*
X187454000Y-99903000D01*
X189104000Y-99903000D01*
X189118703Y-99903722D01*
X189118703Y-99903722D01*
G37*
D25*
X188279000Y-100203000D03*
D19*
G36*
X194068703Y-99903722D02*
G01*
X194083264Y-99905882D01*
X194097543Y-99909459D01*
X194111403Y-99914418D01*
X194124710Y-99920712D01*
X194137336Y-99928280D01*
X194149159Y-99937048D01*
X194160066Y-99946934D01*
X194169952Y-99957841D01*
X194178720Y-99969664D01*
X194186288Y-99982290D01*
X194192582Y-99995597D01*
X194197541Y-100009457D01*
X194201118Y-100023736D01*
X194203278Y-100038297D01*
X194204000Y-100053000D01*
X194204000Y-100353000D01*
X194203278Y-100367703D01*
X194201118Y-100382264D01*
X194197541Y-100396543D01*
X194192582Y-100410403D01*
X194186288Y-100423710D01*
X194178720Y-100436336D01*
X194169952Y-100448159D01*
X194160066Y-100459066D01*
X194149159Y-100468952D01*
X194137336Y-100477720D01*
X194124710Y-100485288D01*
X194111403Y-100491582D01*
X194097543Y-100496541D01*
X194083264Y-100500118D01*
X194068703Y-100502278D01*
X194054000Y-100503000D01*
X192404000Y-100503000D01*
X192389297Y-100502278D01*
X192374736Y-100500118D01*
X192360457Y-100496541D01*
X192346597Y-100491582D01*
X192333290Y-100485288D01*
X192320664Y-100477720D01*
X192308841Y-100468952D01*
X192297934Y-100459066D01*
X192288048Y-100448159D01*
X192279280Y-100436336D01*
X192271712Y-100423710D01*
X192265418Y-100410403D01*
X192260459Y-100396543D01*
X192256882Y-100382264D01*
X192254722Y-100367703D01*
X192254000Y-100353000D01*
X192254000Y-100053000D01*
X192254722Y-100038297D01*
X192256882Y-100023736D01*
X192260459Y-100009457D01*
X192265418Y-99995597D01*
X192271712Y-99982290D01*
X192279280Y-99969664D01*
X192288048Y-99957841D01*
X192297934Y-99946934D01*
X192308841Y-99937048D01*
X192320664Y-99928280D01*
X192333290Y-99920712D01*
X192346597Y-99914418D01*
X192360457Y-99909459D01*
X192374736Y-99905882D01*
X192389297Y-99903722D01*
X192404000Y-99903000D01*
X194054000Y-99903000D01*
X194068703Y-99903722D01*
X194068703Y-99903722D01*
G37*
D25*
X193229000Y-100203000D03*
D19*
G36*
X194068703Y-98633722D02*
G01*
X194083264Y-98635882D01*
X194097543Y-98639459D01*
X194111403Y-98644418D01*
X194124710Y-98650712D01*
X194137336Y-98658280D01*
X194149159Y-98667048D01*
X194160066Y-98676934D01*
X194169952Y-98687841D01*
X194178720Y-98699664D01*
X194186288Y-98712290D01*
X194192582Y-98725597D01*
X194197541Y-98739457D01*
X194201118Y-98753736D01*
X194203278Y-98768297D01*
X194204000Y-98783000D01*
X194204000Y-99083000D01*
X194203278Y-99097703D01*
X194201118Y-99112264D01*
X194197541Y-99126543D01*
X194192582Y-99140403D01*
X194186288Y-99153710D01*
X194178720Y-99166336D01*
X194169952Y-99178159D01*
X194160066Y-99189066D01*
X194149159Y-99198952D01*
X194137336Y-99207720D01*
X194124710Y-99215288D01*
X194111403Y-99221582D01*
X194097543Y-99226541D01*
X194083264Y-99230118D01*
X194068703Y-99232278D01*
X194054000Y-99233000D01*
X192404000Y-99233000D01*
X192389297Y-99232278D01*
X192374736Y-99230118D01*
X192360457Y-99226541D01*
X192346597Y-99221582D01*
X192333290Y-99215288D01*
X192320664Y-99207720D01*
X192308841Y-99198952D01*
X192297934Y-99189066D01*
X192288048Y-99178159D01*
X192279280Y-99166336D01*
X192271712Y-99153710D01*
X192265418Y-99140403D01*
X192260459Y-99126543D01*
X192256882Y-99112264D01*
X192254722Y-99097703D01*
X192254000Y-99083000D01*
X192254000Y-98783000D01*
X192254722Y-98768297D01*
X192256882Y-98753736D01*
X192260459Y-98739457D01*
X192265418Y-98725597D01*
X192271712Y-98712290D01*
X192279280Y-98699664D01*
X192288048Y-98687841D01*
X192297934Y-98676934D01*
X192308841Y-98667048D01*
X192320664Y-98658280D01*
X192333290Y-98650712D01*
X192346597Y-98644418D01*
X192360457Y-98639459D01*
X192374736Y-98635882D01*
X192389297Y-98633722D01*
X192404000Y-98633000D01*
X194054000Y-98633000D01*
X194068703Y-98633722D01*
X194068703Y-98633722D01*
G37*
D25*
X193229000Y-98933000D03*
D19*
G36*
X194068703Y-97363722D02*
G01*
X194083264Y-97365882D01*
X194097543Y-97369459D01*
X194111403Y-97374418D01*
X194124710Y-97380712D01*
X194137336Y-97388280D01*
X194149159Y-97397048D01*
X194160066Y-97406934D01*
X194169952Y-97417841D01*
X194178720Y-97429664D01*
X194186288Y-97442290D01*
X194192582Y-97455597D01*
X194197541Y-97469457D01*
X194201118Y-97483736D01*
X194203278Y-97498297D01*
X194204000Y-97513000D01*
X194204000Y-97813000D01*
X194203278Y-97827703D01*
X194201118Y-97842264D01*
X194197541Y-97856543D01*
X194192582Y-97870403D01*
X194186288Y-97883710D01*
X194178720Y-97896336D01*
X194169952Y-97908159D01*
X194160066Y-97919066D01*
X194149159Y-97928952D01*
X194137336Y-97937720D01*
X194124710Y-97945288D01*
X194111403Y-97951582D01*
X194097543Y-97956541D01*
X194083264Y-97960118D01*
X194068703Y-97962278D01*
X194054000Y-97963000D01*
X192404000Y-97963000D01*
X192389297Y-97962278D01*
X192374736Y-97960118D01*
X192360457Y-97956541D01*
X192346597Y-97951582D01*
X192333290Y-97945288D01*
X192320664Y-97937720D01*
X192308841Y-97928952D01*
X192297934Y-97919066D01*
X192288048Y-97908159D01*
X192279280Y-97896336D01*
X192271712Y-97883710D01*
X192265418Y-97870403D01*
X192260459Y-97856543D01*
X192256882Y-97842264D01*
X192254722Y-97827703D01*
X192254000Y-97813000D01*
X192254000Y-97513000D01*
X192254722Y-97498297D01*
X192256882Y-97483736D01*
X192260459Y-97469457D01*
X192265418Y-97455597D01*
X192271712Y-97442290D01*
X192279280Y-97429664D01*
X192288048Y-97417841D01*
X192297934Y-97406934D01*
X192308841Y-97397048D01*
X192320664Y-97388280D01*
X192333290Y-97380712D01*
X192346597Y-97374418D01*
X192360457Y-97369459D01*
X192374736Y-97365882D01*
X192389297Y-97363722D01*
X192404000Y-97363000D01*
X194054000Y-97363000D01*
X194068703Y-97363722D01*
X194068703Y-97363722D01*
G37*
D25*
X193229000Y-97663000D03*
D19*
G36*
X194068703Y-96093722D02*
G01*
X194083264Y-96095882D01*
X194097543Y-96099459D01*
X194111403Y-96104418D01*
X194124710Y-96110712D01*
X194137336Y-96118280D01*
X194149159Y-96127048D01*
X194160066Y-96136934D01*
X194169952Y-96147841D01*
X194178720Y-96159664D01*
X194186288Y-96172290D01*
X194192582Y-96185597D01*
X194197541Y-96199457D01*
X194201118Y-96213736D01*
X194203278Y-96228297D01*
X194204000Y-96243000D01*
X194204000Y-96543000D01*
X194203278Y-96557703D01*
X194201118Y-96572264D01*
X194197541Y-96586543D01*
X194192582Y-96600403D01*
X194186288Y-96613710D01*
X194178720Y-96626336D01*
X194169952Y-96638159D01*
X194160066Y-96649066D01*
X194149159Y-96658952D01*
X194137336Y-96667720D01*
X194124710Y-96675288D01*
X194111403Y-96681582D01*
X194097543Y-96686541D01*
X194083264Y-96690118D01*
X194068703Y-96692278D01*
X194054000Y-96693000D01*
X192404000Y-96693000D01*
X192389297Y-96692278D01*
X192374736Y-96690118D01*
X192360457Y-96686541D01*
X192346597Y-96681582D01*
X192333290Y-96675288D01*
X192320664Y-96667720D01*
X192308841Y-96658952D01*
X192297934Y-96649066D01*
X192288048Y-96638159D01*
X192279280Y-96626336D01*
X192271712Y-96613710D01*
X192265418Y-96600403D01*
X192260459Y-96586543D01*
X192256882Y-96572264D01*
X192254722Y-96557703D01*
X192254000Y-96543000D01*
X192254000Y-96243000D01*
X192254722Y-96228297D01*
X192256882Y-96213736D01*
X192260459Y-96199457D01*
X192265418Y-96185597D01*
X192271712Y-96172290D01*
X192279280Y-96159664D01*
X192288048Y-96147841D01*
X192297934Y-96136934D01*
X192308841Y-96127048D01*
X192320664Y-96118280D01*
X192333290Y-96110712D01*
X192346597Y-96104418D01*
X192360457Y-96099459D01*
X192374736Y-96095882D01*
X192389297Y-96093722D01*
X192404000Y-96093000D01*
X194054000Y-96093000D01*
X194068703Y-96093722D01*
X194068703Y-96093722D01*
G37*
D25*
X193229000Y-96393000D03*
D19*
G36*
X194068703Y-94823722D02*
G01*
X194083264Y-94825882D01*
X194097543Y-94829459D01*
X194111403Y-94834418D01*
X194124710Y-94840712D01*
X194137336Y-94848280D01*
X194149159Y-94857048D01*
X194160066Y-94866934D01*
X194169952Y-94877841D01*
X194178720Y-94889664D01*
X194186288Y-94902290D01*
X194192582Y-94915597D01*
X194197541Y-94929457D01*
X194201118Y-94943736D01*
X194203278Y-94958297D01*
X194204000Y-94973000D01*
X194204000Y-95273000D01*
X194203278Y-95287703D01*
X194201118Y-95302264D01*
X194197541Y-95316543D01*
X194192582Y-95330403D01*
X194186288Y-95343710D01*
X194178720Y-95356336D01*
X194169952Y-95368159D01*
X194160066Y-95379066D01*
X194149159Y-95388952D01*
X194137336Y-95397720D01*
X194124710Y-95405288D01*
X194111403Y-95411582D01*
X194097543Y-95416541D01*
X194083264Y-95420118D01*
X194068703Y-95422278D01*
X194054000Y-95423000D01*
X192404000Y-95423000D01*
X192389297Y-95422278D01*
X192374736Y-95420118D01*
X192360457Y-95416541D01*
X192346597Y-95411582D01*
X192333290Y-95405288D01*
X192320664Y-95397720D01*
X192308841Y-95388952D01*
X192297934Y-95379066D01*
X192288048Y-95368159D01*
X192279280Y-95356336D01*
X192271712Y-95343710D01*
X192265418Y-95330403D01*
X192260459Y-95316543D01*
X192256882Y-95302264D01*
X192254722Y-95287703D01*
X192254000Y-95273000D01*
X192254000Y-94973000D01*
X192254722Y-94958297D01*
X192256882Y-94943736D01*
X192260459Y-94929457D01*
X192265418Y-94915597D01*
X192271712Y-94902290D01*
X192279280Y-94889664D01*
X192288048Y-94877841D01*
X192297934Y-94866934D01*
X192308841Y-94857048D01*
X192320664Y-94848280D01*
X192333290Y-94840712D01*
X192346597Y-94834418D01*
X192360457Y-94829459D01*
X192374736Y-94825882D01*
X192389297Y-94823722D01*
X192404000Y-94823000D01*
X194054000Y-94823000D01*
X194068703Y-94823722D01*
X194068703Y-94823722D01*
G37*
D25*
X193229000Y-95123000D03*
D19*
G36*
X194068703Y-93553722D02*
G01*
X194083264Y-93555882D01*
X194097543Y-93559459D01*
X194111403Y-93564418D01*
X194124710Y-93570712D01*
X194137336Y-93578280D01*
X194149159Y-93587048D01*
X194160066Y-93596934D01*
X194169952Y-93607841D01*
X194178720Y-93619664D01*
X194186288Y-93632290D01*
X194192582Y-93645597D01*
X194197541Y-93659457D01*
X194201118Y-93673736D01*
X194203278Y-93688297D01*
X194204000Y-93703000D01*
X194204000Y-94003000D01*
X194203278Y-94017703D01*
X194201118Y-94032264D01*
X194197541Y-94046543D01*
X194192582Y-94060403D01*
X194186288Y-94073710D01*
X194178720Y-94086336D01*
X194169952Y-94098159D01*
X194160066Y-94109066D01*
X194149159Y-94118952D01*
X194137336Y-94127720D01*
X194124710Y-94135288D01*
X194111403Y-94141582D01*
X194097543Y-94146541D01*
X194083264Y-94150118D01*
X194068703Y-94152278D01*
X194054000Y-94153000D01*
X192404000Y-94153000D01*
X192389297Y-94152278D01*
X192374736Y-94150118D01*
X192360457Y-94146541D01*
X192346597Y-94141582D01*
X192333290Y-94135288D01*
X192320664Y-94127720D01*
X192308841Y-94118952D01*
X192297934Y-94109066D01*
X192288048Y-94098159D01*
X192279280Y-94086336D01*
X192271712Y-94073710D01*
X192265418Y-94060403D01*
X192260459Y-94046543D01*
X192256882Y-94032264D01*
X192254722Y-94017703D01*
X192254000Y-94003000D01*
X192254000Y-93703000D01*
X192254722Y-93688297D01*
X192256882Y-93673736D01*
X192260459Y-93659457D01*
X192265418Y-93645597D01*
X192271712Y-93632290D01*
X192279280Y-93619664D01*
X192288048Y-93607841D01*
X192297934Y-93596934D01*
X192308841Y-93587048D01*
X192320664Y-93578280D01*
X192333290Y-93570712D01*
X192346597Y-93564418D01*
X192360457Y-93559459D01*
X192374736Y-93555882D01*
X192389297Y-93553722D01*
X192404000Y-93553000D01*
X194054000Y-93553000D01*
X194068703Y-93553722D01*
X194068703Y-93553722D01*
G37*
D25*
X193229000Y-93853000D03*
D19*
G36*
X194068703Y-92283722D02*
G01*
X194083264Y-92285882D01*
X194097543Y-92289459D01*
X194111403Y-92294418D01*
X194124710Y-92300712D01*
X194137336Y-92308280D01*
X194149159Y-92317048D01*
X194160066Y-92326934D01*
X194169952Y-92337841D01*
X194178720Y-92349664D01*
X194186288Y-92362290D01*
X194192582Y-92375597D01*
X194197541Y-92389457D01*
X194201118Y-92403736D01*
X194203278Y-92418297D01*
X194204000Y-92433000D01*
X194204000Y-92733000D01*
X194203278Y-92747703D01*
X194201118Y-92762264D01*
X194197541Y-92776543D01*
X194192582Y-92790403D01*
X194186288Y-92803710D01*
X194178720Y-92816336D01*
X194169952Y-92828159D01*
X194160066Y-92839066D01*
X194149159Y-92848952D01*
X194137336Y-92857720D01*
X194124710Y-92865288D01*
X194111403Y-92871582D01*
X194097543Y-92876541D01*
X194083264Y-92880118D01*
X194068703Y-92882278D01*
X194054000Y-92883000D01*
X192404000Y-92883000D01*
X192389297Y-92882278D01*
X192374736Y-92880118D01*
X192360457Y-92876541D01*
X192346597Y-92871582D01*
X192333290Y-92865288D01*
X192320664Y-92857720D01*
X192308841Y-92848952D01*
X192297934Y-92839066D01*
X192288048Y-92828159D01*
X192279280Y-92816336D01*
X192271712Y-92803710D01*
X192265418Y-92790403D01*
X192260459Y-92776543D01*
X192256882Y-92762264D01*
X192254722Y-92747703D01*
X192254000Y-92733000D01*
X192254000Y-92433000D01*
X192254722Y-92418297D01*
X192256882Y-92403736D01*
X192260459Y-92389457D01*
X192265418Y-92375597D01*
X192271712Y-92362290D01*
X192279280Y-92349664D01*
X192288048Y-92337841D01*
X192297934Y-92326934D01*
X192308841Y-92317048D01*
X192320664Y-92308280D01*
X192333290Y-92300712D01*
X192346597Y-92294418D01*
X192360457Y-92289459D01*
X192374736Y-92285882D01*
X192389297Y-92283722D01*
X192404000Y-92283000D01*
X194054000Y-92283000D01*
X194068703Y-92283722D01*
X194068703Y-92283722D01*
G37*
D25*
X193229000Y-92583000D03*
D19*
G36*
X194068703Y-91013722D02*
G01*
X194083264Y-91015882D01*
X194097543Y-91019459D01*
X194111403Y-91024418D01*
X194124710Y-91030712D01*
X194137336Y-91038280D01*
X194149159Y-91047048D01*
X194160066Y-91056934D01*
X194169952Y-91067841D01*
X194178720Y-91079664D01*
X194186288Y-91092290D01*
X194192582Y-91105597D01*
X194197541Y-91119457D01*
X194201118Y-91133736D01*
X194203278Y-91148297D01*
X194204000Y-91163000D01*
X194204000Y-91463000D01*
X194203278Y-91477703D01*
X194201118Y-91492264D01*
X194197541Y-91506543D01*
X194192582Y-91520403D01*
X194186288Y-91533710D01*
X194178720Y-91546336D01*
X194169952Y-91558159D01*
X194160066Y-91569066D01*
X194149159Y-91578952D01*
X194137336Y-91587720D01*
X194124710Y-91595288D01*
X194111403Y-91601582D01*
X194097543Y-91606541D01*
X194083264Y-91610118D01*
X194068703Y-91612278D01*
X194054000Y-91613000D01*
X192404000Y-91613000D01*
X192389297Y-91612278D01*
X192374736Y-91610118D01*
X192360457Y-91606541D01*
X192346597Y-91601582D01*
X192333290Y-91595288D01*
X192320664Y-91587720D01*
X192308841Y-91578952D01*
X192297934Y-91569066D01*
X192288048Y-91558159D01*
X192279280Y-91546336D01*
X192271712Y-91533710D01*
X192265418Y-91520403D01*
X192260459Y-91506543D01*
X192256882Y-91492264D01*
X192254722Y-91477703D01*
X192254000Y-91463000D01*
X192254000Y-91163000D01*
X192254722Y-91148297D01*
X192256882Y-91133736D01*
X192260459Y-91119457D01*
X192265418Y-91105597D01*
X192271712Y-91092290D01*
X192279280Y-91079664D01*
X192288048Y-91067841D01*
X192297934Y-91056934D01*
X192308841Y-91047048D01*
X192320664Y-91038280D01*
X192333290Y-91030712D01*
X192346597Y-91024418D01*
X192360457Y-91019459D01*
X192374736Y-91015882D01*
X192389297Y-91013722D01*
X192404000Y-91013000D01*
X194054000Y-91013000D01*
X194068703Y-91013722D01*
X194068703Y-91013722D01*
G37*
D25*
X193229000Y-91313000D03*
D15*
X133096000Y-75946000D03*
D14*
X130556000Y-75946000D03*
X117856000Y-75946000D03*
D15*
X120396000Y-75946000D03*
D14*
X146558000Y-115443000D03*
D15*
X149098000Y-115443000D03*
X151638000Y-115443000D03*
X138938000Y-115443000D03*
X136398000Y-115443000D03*
D14*
X133858000Y-115443000D03*
M02*
