M48
; DRILL file {KiCad (5.1.2)-1} date 2020-03-11 08:58:37
; FORMAT={-:-/ absolute / metric / decimal}
; #@! TF.CreationDate,2020-03-11T08:58:37+01:00
; #@! TF.GenerationSoftware,Kicad,Pcbnew,(5.1.2)-1
; #@! TF.FileFunction,Plated,1,2,PTH
FMAT,2
METRIC
T1C0.400
T2C0.800
T3C1.000
T4C1.016
T5C1.500
T6C1.700
T7C3.048
%
G90
G05
T1
X112.593Y-76.2
X112.593Y-86.2
X112.593Y-106.2
X122.593Y-76.2
X122.593Y-106.2
X122.593Y-116.2
X132.593Y-106.2
X142.593Y-76.2
X142.593Y-106.2
X142.593Y-116.2
X145.288Y-95.504
X148.844Y-95.504
X152.593Y-76.2
X152.593Y-106.2
X152.654Y-86.614
X155.956Y-85.471
X158.242Y-84.328
X159.385Y-91.44
X161.163Y-90.17
X161.798Y-94.488
X161.798Y-95.758
X162.593Y-76.2
X162.593Y-106.2
X162.593Y-116.2
X163.83Y-84.328
X172.593Y-76.2
X172.593Y-76.2
X172.593Y-116.2
X182.593Y-76.2
X182.593Y-86.2
X182.593Y-116.2
X184.658Y-109.347
X185.928Y-104.521
X186.69Y-91.186
X186.69Y-96.52
X191.008Y-102.362
X191.008Y-106.2
X191.44Y-98.755
X191.44Y-100.025
X192.593Y-76.2
X192.593Y-86.2
X194.818Y-100.203
T2
X143.256Y-83.566
X143.256Y-85.566
X143.256Y-87.566
X143.256Y-89.566
X143.256Y-91.566
X143.256Y-93.566
X143.256Y-95.566
X138.938Y-109.538
X138.938Y-111.538
X150.876Y-83.566
X150.876Y-85.566
X150.876Y-87.566
X150.876Y-89.566
X150.876Y-91.566
X150.876Y-93.566
X150.876Y-95.566
T3
X117.856Y-75.946
X120.396Y-75.946
X111.227Y-91.338
X111.227Y-93.878
X111.227Y-96.418
X111.227Y-98.958
X111.227Y-101.498
X146.558Y-115.443
X149.098Y-115.443
X151.638Y-115.443
X130.556Y-75.946
X133.096Y-75.946
X133.858Y-115.443
X136.398Y-115.443
X138.938Y-115.443
X167.005Y-91.211
X167.005Y-93.751
X167.005Y-96.291
X169.545Y-91.211
X169.545Y-93.751
X169.545Y-96.291
T4
X122.174Y-70.866
X124.714Y-70.866
X127.254Y-70.866
X129.794Y-70.866
X132.334Y-70.866
X134.874Y-70.866
X137.414Y-70.866
X139.954Y-70.866
X142.494Y-70.866
X145.034Y-70.866
X154.178Y-119.126
X156.718Y-119.126
X159.258Y-119.126
X161.798Y-119.126
X164.338Y-119.126
X166.878Y-119.126
X169.418Y-119.126
X171.958Y-119.126
X197.358Y-70.866
X197.358Y-73.406
X197.358Y-75.946
X197.358Y-78.486
X197.358Y-81.026
X197.358Y-83.566
X197.358Y-86.106
X197.358Y-88.646
X197.358Y-91.186
X197.358Y-93.726
X197.358Y-96.266
X197.358Y-98.806
X197.358Y-101.346
X197.358Y-103.886
X197.358Y-106.426
X197.358Y-108.966
X197.358Y-111.506
X197.358Y-114.046
X199.898Y-70.866
X199.898Y-73.406
X199.898Y-75.946
X199.898Y-78.486
X199.898Y-81.026
X199.898Y-83.566
X199.898Y-86.106
X199.898Y-88.646
X199.898Y-91.186
X199.898Y-93.726
X199.898Y-96.266
X199.898Y-98.806
X199.898Y-101.346
X199.898Y-103.886
X199.898Y-106.426
X199.898Y-108.966
X199.898Y-111.506
X199.898Y-114.046
X117.983Y-83.566
X117.983Y-86.106
X117.983Y-88.646
X117.983Y-91.186
X117.983Y-93.726
X120.523Y-83.566
X120.523Y-86.106
X120.523Y-88.646
X120.523Y-91.186
X120.523Y-93.726
X130.683Y-83.566
X130.683Y-86.106
X130.683Y-88.646
X130.683Y-91.186
X130.683Y-93.726
X133.223Y-83.566
X133.223Y-86.106
X133.223Y-88.646
X133.223Y-91.186
X133.223Y-93.726
X149.098Y-70.866
X151.638Y-70.866
X154.178Y-70.866
X156.718Y-70.866
X159.258Y-70.866
X161.798Y-70.866
X164.338Y-70.866
X166.878Y-70.866
X171.958Y-70.866
X174.498Y-70.866
X177.038Y-70.866
X179.578Y-70.866
X182.118Y-70.866
X184.658Y-70.866
X187.198Y-70.866
X189.738Y-70.866
X189.484Y-78.486
X189.484Y-81.026
X189.484Y-83.566
X192.024Y-78.486
X192.024Y-81.026
X192.024Y-83.566
X131.318Y-119.126
X133.858Y-119.126
X136.398Y-119.126
X138.938Y-119.126
X141.478Y-119.126
X144.018Y-119.126
X146.558Y-119.126
X149.098Y-119.126
X177.038Y-119.126
X179.578Y-119.126
X182.118Y-119.126
X184.658Y-119.126
X187.198Y-119.126
X189.738Y-119.126
X192.278Y-119.126
X194.818Y-119.126
T5
X182.88Y-109.728
X169.418Y-103.886
T6
X180.34Y-107.188
X180.34Y-112.268
X185.42Y-107.188
X185.42Y-112.268
X166.878Y-101.346
X166.878Y-106.426
X171.958Y-101.346
X171.958Y-106.426
T7
X169.418Y-114.046
X118.618Y-70.866
X199.898Y-119.126
X117.348Y-119.126
X193.548Y-70.866
X169.418Y-86.106
T0
M30
