%TF.GenerationSoftware,KiCad,Pcbnew,(5.1.2)-1*%
%TF.CreationDate,2020-03-11T09:00:43+01:00*%
%TF.ProjectId,ArduinoShield_SPIlinedriver_Sync_2V0,41726475-696e-46f5-9368-69656c645f53,rev?*%
%TF.SameCoordinates,Original*%
%TF.FileFunction,Soldermask,Top*%
%TF.FilePolarity,Negative*%
%FSLAX46Y46*%
G04 Gerber Fmt 4.6, Leading zero omitted, Abs format (unit mm)*
G04 Created by KiCad (PCBNEW (5.1.2)-1) date 2020-03-11 09:00:43*
%MOMM*%
%LPD*%
G04 APERTURE LIST*
%ADD10R,1.727200X1.727200*%
%ADD11O,1.727200X1.727200*%
%ADD12C,1.600000*%
%ADD13R,1.600000X1.600000*%
%ADD14R,1.700000X1.700000*%
%ADD15O,1.700000X1.700000*%
%ADD16C,1.727200*%
%ADD17O,1.727200X2.032000*%
%ADD18C,4.064000*%
%ADD19C,0.100000*%
%ADD20C,0.975000*%
%ADD21O,1.800000X1.200000*%
%ADD22C,1.200000*%
%ADD23C,2.050000*%
%ADD24C,2.250000*%
%ADD25C,0.600000*%
%ADD26R,1.600000X1.400000*%
G04 APERTURE END LIST*
D10*
X189484000Y-78486000D03*
D11*
X192024000Y-78486000D03*
X189484000Y-81026000D03*
X192024000Y-81026000D03*
X189484000Y-83566000D03*
X192024000Y-83566000D03*
X120523000Y-93726000D03*
X117983000Y-93726000D03*
X120523000Y-91186000D03*
X117983000Y-91186000D03*
X120523000Y-88646000D03*
X117983000Y-88646000D03*
X120523000Y-86106000D03*
X117983000Y-86106000D03*
X120523000Y-83566000D03*
D10*
X117983000Y-83566000D03*
D11*
X133223000Y-93726000D03*
X130683000Y-93726000D03*
X133223000Y-91186000D03*
X130683000Y-91186000D03*
X133223000Y-88646000D03*
X130683000Y-88646000D03*
X133223000Y-86106000D03*
X130683000Y-86106000D03*
X133223000Y-83566000D03*
D10*
X130683000Y-83566000D03*
D12*
X138938000Y-109538000D03*
D13*
X138938000Y-111538000D03*
D14*
X111226600Y-91338400D03*
D15*
X111226600Y-93878400D03*
X111226600Y-96418400D03*
X111226600Y-98958400D03*
X111226600Y-101498400D03*
D16*
X197358000Y-114046000D03*
D11*
X199898000Y-114046000D03*
X197358000Y-111506000D03*
X199898000Y-111506000D03*
X197358000Y-108966000D03*
X199898000Y-108966000D03*
X197358000Y-106426000D03*
X199898000Y-106426000D03*
X197358000Y-103886000D03*
X199898000Y-103886000D03*
X197358000Y-101346000D03*
X199898000Y-101346000D03*
X197358000Y-98806000D03*
X199898000Y-98806000D03*
X197358000Y-96266000D03*
X199898000Y-96266000D03*
X197358000Y-93726000D03*
X199898000Y-93726000D03*
X197358000Y-91186000D03*
X199898000Y-91186000D03*
X197358000Y-88646000D03*
X199898000Y-88646000D03*
X197358000Y-86106000D03*
X199898000Y-86106000D03*
X197358000Y-83566000D03*
X199898000Y-83566000D03*
X197358000Y-81026000D03*
X199898000Y-81026000D03*
X197358000Y-78486000D03*
X199898000Y-78486000D03*
X197358000Y-75946000D03*
X199898000Y-75946000D03*
X197358000Y-73406000D03*
X199898000Y-73406000D03*
X197358000Y-70866000D03*
X199898000Y-70866000D03*
D17*
X131318000Y-119126000D03*
X133858000Y-119126000D03*
X136398000Y-119126000D03*
X138938000Y-119126000D03*
X141478000Y-119126000D03*
X144018000Y-119126000D03*
X146558000Y-119126000D03*
X149098000Y-119126000D03*
X154178000Y-119126000D03*
X156718000Y-119126000D03*
X159258000Y-119126000D03*
X161798000Y-119126000D03*
X164338000Y-119126000D03*
X166878000Y-119126000D03*
X169418000Y-119126000D03*
X171958000Y-119126000D03*
X177038000Y-119126000D03*
X179578000Y-119126000D03*
X182118000Y-119126000D03*
X184658000Y-119126000D03*
X187198000Y-119126000D03*
X189738000Y-119126000D03*
X192278000Y-119126000D03*
X194818000Y-119126000D03*
X122174000Y-70866000D03*
X124714000Y-70866000D03*
X127254000Y-70866000D03*
X129794000Y-70866000D03*
X132334000Y-70866000D03*
X134874000Y-70866000D03*
X137414000Y-70866000D03*
X139954000Y-70866000D03*
X142494000Y-70866000D03*
X145034000Y-70866000D03*
X149098000Y-70866000D03*
X151638000Y-70866000D03*
X154178000Y-70866000D03*
X156718000Y-70866000D03*
X159258000Y-70866000D03*
X161798000Y-70866000D03*
X164338000Y-70866000D03*
X166878000Y-70866000D03*
X171958000Y-70866000D03*
X174498000Y-70866000D03*
X177038000Y-70866000D03*
X179578000Y-70866000D03*
X182118000Y-70866000D03*
X184658000Y-70866000D03*
X187198000Y-70866000D03*
X189738000Y-70866000D03*
D18*
X117348000Y-119126000D03*
X169418000Y-114046000D03*
X199898000Y-119126000D03*
X118618000Y-70866000D03*
X169418000Y-86106000D03*
X193548000Y-70866000D03*
D19*
G36*
X188052142Y-114363174D02*
G01*
X188075803Y-114366684D01*
X188099007Y-114372496D01*
X188121529Y-114380554D01*
X188143153Y-114390782D01*
X188163670Y-114403079D01*
X188182883Y-114417329D01*
X188200607Y-114433393D01*
X188216671Y-114451117D01*
X188230921Y-114470330D01*
X188243218Y-114490847D01*
X188253446Y-114512471D01*
X188261504Y-114534993D01*
X188267316Y-114558197D01*
X188270826Y-114581858D01*
X188272000Y-114605750D01*
X188272000Y-115518250D01*
X188270826Y-115542142D01*
X188267316Y-115565803D01*
X188261504Y-115589007D01*
X188253446Y-115611529D01*
X188243218Y-115633153D01*
X188230921Y-115653670D01*
X188216671Y-115672883D01*
X188200607Y-115690607D01*
X188182883Y-115706671D01*
X188163670Y-115720921D01*
X188143153Y-115733218D01*
X188121529Y-115743446D01*
X188099007Y-115751504D01*
X188075803Y-115757316D01*
X188052142Y-115760826D01*
X188028250Y-115762000D01*
X187540750Y-115762000D01*
X187516858Y-115760826D01*
X187493197Y-115757316D01*
X187469993Y-115751504D01*
X187447471Y-115743446D01*
X187425847Y-115733218D01*
X187405330Y-115720921D01*
X187386117Y-115706671D01*
X187368393Y-115690607D01*
X187352329Y-115672883D01*
X187338079Y-115653670D01*
X187325782Y-115633153D01*
X187315554Y-115611529D01*
X187307496Y-115589007D01*
X187301684Y-115565803D01*
X187298174Y-115542142D01*
X187297000Y-115518250D01*
X187297000Y-114605750D01*
X187298174Y-114581858D01*
X187301684Y-114558197D01*
X187307496Y-114534993D01*
X187315554Y-114512471D01*
X187325782Y-114490847D01*
X187338079Y-114470330D01*
X187352329Y-114451117D01*
X187368393Y-114433393D01*
X187386117Y-114417329D01*
X187405330Y-114403079D01*
X187425847Y-114390782D01*
X187447471Y-114380554D01*
X187469993Y-114372496D01*
X187493197Y-114366684D01*
X187516858Y-114363174D01*
X187540750Y-114362000D01*
X188028250Y-114362000D01*
X188052142Y-114363174D01*
X188052142Y-114363174D01*
G37*
D20*
X187784500Y-115062000D03*
D19*
G36*
X189927142Y-114363174D02*
G01*
X189950803Y-114366684D01*
X189974007Y-114372496D01*
X189996529Y-114380554D01*
X190018153Y-114390782D01*
X190038670Y-114403079D01*
X190057883Y-114417329D01*
X190075607Y-114433393D01*
X190091671Y-114451117D01*
X190105921Y-114470330D01*
X190118218Y-114490847D01*
X190128446Y-114512471D01*
X190136504Y-114534993D01*
X190142316Y-114558197D01*
X190145826Y-114581858D01*
X190147000Y-114605750D01*
X190147000Y-115518250D01*
X190145826Y-115542142D01*
X190142316Y-115565803D01*
X190136504Y-115589007D01*
X190128446Y-115611529D01*
X190118218Y-115633153D01*
X190105921Y-115653670D01*
X190091671Y-115672883D01*
X190075607Y-115690607D01*
X190057883Y-115706671D01*
X190038670Y-115720921D01*
X190018153Y-115733218D01*
X189996529Y-115743446D01*
X189974007Y-115751504D01*
X189950803Y-115757316D01*
X189927142Y-115760826D01*
X189903250Y-115762000D01*
X189415750Y-115762000D01*
X189391858Y-115760826D01*
X189368197Y-115757316D01*
X189344993Y-115751504D01*
X189322471Y-115743446D01*
X189300847Y-115733218D01*
X189280330Y-115720921D01*
X189261117Y-115706671D01*
X189243393Y-115690607D01*
X189227329Y-115672883D01*
X189213079Y-115653670D01*
X189200782Y-115633153D01*
X189190554Y-115611529D01*
X189182496Y-115589007D01*
X189176684Y-115565803D01*
X189173174Y-115542142D01*
X189172000Y-115518250D01*
X189172000Y-114605750D01*
X189173174Y-114581858D01*
X189176684Y-114558197D01*
X189182496Y-114534993D01*
X189190554Y-114512471D01*
X189200782Y-114490847D01*
X189213079Y-114470330D01*
X189227329Y-114451117D01*
X189243393Y-114433393D01*
X189261117Y-114417329D01*
X189280330Y-114403079D01*
X189300847Y-114390782D01*
X189322471Y-114380554D01*
X189344993Y-114372496D01*
X189368197Y-114366684D01*
X189391858Y-114363174D01*
X189415750Y-114362000D01*
X189903250Y-114362000D01*
X189927142Y-114363174D01*
X189927142Y-114363174D01*
G37*
D20*
X189659500Y-115062000D03*
D21*
X150876000Y-95566000D03*
X150876000Y-93566000D03*
X150876000Y-91566000D03*
X150876000Y-89566000D03*
X150876000Y-87566000D03*
X150876000Y-85566000D03*
D19*
G36*
X151550505Y-82967204D02*
G01*
X151574773Y-82970804D01*
X151598572Y-82976765D01*
X151621671Y-82985030D01*
X151643850Y-82995520D01*
X151664893Y-83008132D01*
X151684599Y-83022747D01*
X151702777Y-83039223D01*
X151719253Y-83057401D01*
X151733868Y-83077107D01*
X151746480Y-83098150D01*
X151756970Y-83120329D01*
X151765235Y-83143428D01*
X151771196Y-83167227D01*
X151774796Y-83191495D01*
X151776000Y-83215999D01*
X151776000Y-83916001D01*
X151774796Y-83940505D01*
X151771196Y-83964773D01*
X151765235Y-83988572D01*
X151756970Y-84011671D01*
X151746480Y-84033850D01*
X151733868Y-84054893D01*
X151719253Y-84074599D01*
X151702777Y-84092777D01*
X151684599Y-84109253D01*
X151664893Y-84123868D01*
X151643850Y-84136480D01*
X151621671Y-84146970D01*
X151598572Y-84155235D01*
X151574773Y-84161196D01*
X151550505Y-84164796D01*
X151526001Y-84166000D01*
X150225999Y-84166000D01*
X150201495Y-84164796D01*
X150177227Y-84161196D01*
X150153428Y-84155235D01*
X150130329Y-84146970D01*
X150108150Y-84136480D01*
X150087107Y-84123868D01*
X150067401Y-84109253D01*
X150049223Y-84092777D01*
X150032747Y-84074599D01*
X150018132Y-84054893D01*
X150005520Y-84033850D01*
X149995030Y-84011671D01*
X149986765Y-83988572D01*
X149980804Y-83964773D01*
X149977204Y-83940505D01*
X149976000Y-83916001D01*
X149976000Y-83215999D01*
X149977204Y-83191495D01*
X149980804Y-83167227D01*
X149986765Y-83143428D01*
X149995030Y-83120329D01*
X150005520Y-83098150D01*
X150018132Y-83077107D01*
X150032747Y-83057401D01*
X150049223Y-83039223D01*
X150067401Y-83022747D01*
X150087107Y-83008132D01*
X150108150Y-82995520D01*
X150130329Y-82985030D01*
X150153428Y-82976765D01*
X150177227Y-82970804D01*
X150201495Y-82967204D01*
X150225999Y-82966000D01*
X151526001Y-82966000D01*
X151550505Y-82967204D01*
X151550505Y-82967204D01*
G37*
D22*
X150876000Y-83566000D03*
D14*
X167005000Y-91211400D03*
D15*
X169545000Y-91211400D03*
X167005000Y-93751400D03*
X169545000Y-93751400D03*
X167005000Y-96291400D03*
X169545000Y-96291400D03*
D19*
G36*
X143930505Y-82967204D02*
G01*
X143954773Y-82970804D01*
X143978572Y-82976765D01*
X144001671Y-82985030D01*
X144023850Y-82995520D01*
X144044893Y-83008132D01*
X144064599Y-83022747D01*
X144082777Y-83039223D01*
X144099253Y-83057401D01*
X144113868Y-83077107D01*
X144126480Y-83098150D01*
X144136970Y-83120329D01*
X144145235Y-83143428D01*
X144151196Y-83167227D01*
X144154796Y-83191495D01*
X144156000Y-83215999D01*
X144156000Y-83916001D01*
X144154796Y-83940505D01*
X144151196Y-83964773D01*
X144145235Y-83988572D01*
X144136970Y-84011671D01*
X144126480Y-84033850D01*
X144113868Y-84054893D01*
X144099253Y-84074599D01*
X144082777Y-84092777D01*
X144064599Y-84109253D01*
X144044893Y-84123868D01*
X144023850Y-84136480D01*
X144001671Y-84146970D01*
X143978572Y-84155235D01*
X143954773Y-84161196D01*
X143930505Y-84164796D01*
X143906001Y-84166000D01*
X142605999Y-84166000D01*
X142581495Y-84164796D01*
X142557227Y-84161196D01*
X142533428Y-84155235D01*
X142510329Y-84146970D01*
X142488150Y-84136480D01*
X142467107Y-84123868D01*
X142447401Y-84109253D01*
X142429223Y-84092777D01*
X142412747Y-84074599D01*
X142398132Y-84054893D01*
X142385520Y-84033850D01*
X142375030Y-84011671D01*
X142366765Y-83988572D01*
X142360804Y-83964773D01*
X142357204Y-83940505D01*
X142356000Y-83916001D01*
X142356000Y-83215999D01*
X142357204Y-83191495D01*
X142360804Y-83167227D01*
X142366765Y-83143428D01*
X142375030Y-83120329D01*
X142385520Y-83098150D01*
X142398132Y-83077107D01*
X142412747Y-83057401D01*
X142429223Y-83039223D01*
X142447401Y-83022747D01*
X142467107Y-83008132D01*
X142488150Y-82995520D01*
X142510329Y-82985030D01*
X142533428Y-82976765D01*
X142557227Y-82970804D01*
X142581495Y-82967204D01*
X142605999Y-82966000D01*
X143906001Y-82966000D01*
X143930505Y-82967204D01*
X143930505Y-82967204D01*
G37*
D22*
X143256000Y-83566000D03*
D21*
X143256000Y-85566000D03*
X143256000Y-87566000D03*
X143256000Y-89566000D03*
X143256000Y-91566000D03*
X143256000Y-93566000D03*
X143256000Y-95566000D03*
D23*
X182880000Y-109728000D03*
D24*
X185420000Y-112268000D03*
X185420000Y-107188000D03*
X180340000Y-107188000D03*
X180340000Y-112268000D03*
X166878000Y-106426000D03*
X166878000Y-101346000D03*
X171958000Y-101346000D03*
X171958000Y-106426000D03*
D23*
X169418000Y-103886000D03*
D19*
G36*
X194068703Y-112857722D02*
G01*
X194083264Y-112859882D01*
X194097543Y-112863459D01*
X194111403Y-112868418D01*
X194124710Y-112874712D01*
X194137336Y-112882280D01*
X194149159Y-112891048D01*
X194160066Y-112900934D01*
X194169952Y-112911841D01*
X194178720Y-112923664D01*
X194186288Y-112936290D01*
X194192582Y-112949597D01*
X194197541Y-112963457D01*
X194201118Y-112977736D01*
X194203278Y-112992297D01*
X194204000Y-113007000D01*
X194204000Y-113307000D01*
X194203278Y-113321703D01*
X194201118Y-113336264D01*
X194197541Y-113350543D01*
X194192582Y-113364403D01*
X194186288Y-113377710D01*
X194178720Y-113390336D01*
X194169952Y-113402159D01*
X194160066Y-113413066D01*
X194149159Y-113422952D01*
X194137336Y-113431720D01*
X194124710Y-113439288D01*
X194111403Y-113445582D01*
X194097543Y-113450541D01*
X194083264Y-113454118D01*
X194068703Y-113456278D01*
X194054000Y-113457000D01*
X192404000Y-113457000D01*
X192389297Y-113456278D01*
X192374736Y-113454118D01*
X192360457Y-113450541D01*
X192346597Y-113445582D01*
X192333290Y-113439288D01*
X192320664Y-113431720D01*
X192308841Y-113422952D01*
X192297934Y-113413066D01*
X192288048Y-113402159D01*
X192279280Y-113390336D01*
X192271712Y-113377710D01*
X192265418Y-113364403D01*
X192260459Y-113350543D01*
X192256882Y-113336264D01*
X192254722Y-113321703D01*
X192254000Y-113307000D01*
X192254000Y-113007000D01*
X192254722Y-112992297D01*
X192256882Y-112977736D01*
X192260459Y-112963457D01*
X192265418Y-112949597D01*
X192271712Y-112936290D01*
X192279280Y-112923664D01*
X192288048Y-112911841D01*
X192297934Y-112900934D01*
X192308841Y-112891048D01*
X192320664Y-112882280D01*
X192333290Y-112874712D01*
X192346597Y-112868418D01*
X192360457Y-112863459D01*
X192374736Y-112859882D01*
X192389297Y-112857722D01*
X192404000Y-112857000D01*
X194054000Y-112857000D01*
X194068703Y-112857722D01*
X194068703Y-112857722D01*
G37*
D25*
X193229000Y-113157000D03*
D19*
G36*
X194068703Y-111587722D02*
G01*
X194083264Y-111589882D01*
X194097543Y-111593459D01*
X194111403Y-111598418D01*
X194124710Y-111604712D01*
X194137336Y-111612280D01*
X194149159Y-111621048D01*
X194160066Y-111630934D01*
X194169952Y-111641841D01*
X194178720Y-111653664D01*
X194186288Y-111666290D01*
X194192582Y-111679597D01*
X194197541Y-111693457D01*
X194201118Y-111707736D01*
X194203278Y-111722297D01*
X194204000Y-111737000D01*
X194204000Y-112037000D01*
X194203278Y-112051703D01*
X194201118Y-112066264D01*
X194197541Y-112080543D01*
X194192582Y-112094403D01*
X194186288Y-112107710D01*
X194178720Y-112120336D01*
X194169952Y-112132159D01*
X194160066Y-112143066D01*
X194149159Y-112152952D01*
X194137336Y-112161720D01*
X194124710Y-112169288D01*
X194111403Y-112175582D01*
X194097543Y-112180541D01*
X194083264Y-112184118D01*
X194068703Y-112186278D01*
X194054000Y-112187000D01*
X192404000Y-112187000D01*
X192389297Y-112186278D01*
X192374736Y-112184118D01*
X192360457Y-112180541D01*
X192346597Y-112175582D01*
X192333290Y-112169288D01*
X192320664Y-112161720D01*
X192308841Y-112152952D01*
X192297934Y-112143066D01*
X192288048Y-112132159D01*
X192279280Y-112120336D01*
X192271712Y-112107710D01*
X192265418Y-112094403D01*
X192260459Y-112080543D01*
X192256882Y-112066264D01*
X192254722Y-112051703D01*
X192254000Y-112037000D01*
X192254000Y-111737000D01*
X192254722Y-111722297D01*
X192256882Y-111707736D01*
X192260459Y-111693457D01*
X192265418Y-111679597D01*
X192271712Y-111666290D01*
X192279280Y-111653664D01*
X192288048Y-111641841D01*
X192297934Y-111630934D01*
X192308841Y-111621048D01*
X192320664Y-111612280D01*
X192333290Y-111604712D01*
X192346597Y-111598418D01*
X192360457Y-111593459D01*
X192374736Y-111589882D01*
X192389297Y-111587722D01*
X192404000Y-111587000D01*
X194054000Y-111587000D01*
X194068703Y-111587722D01*
X194068703Y-111587722D01*
G37*
D25*
X193229000Y-111887000D03*
D19*
G36*
X194068703Y-110317722D02*
G01*
X194083264Y-110319882D01*
X194097543Y-110323459D01*
X194111403Y-110328418D01*
X194124710Y-110334712D01*
X194137336Y-110342280D01*
X194149159Y-110351048D01*
X194160066Y-110360934D01*
X194169952Y-110371841D01*
X194178720Y-110383664D01*
X194186288Y-110396290D01*
X194192582Y-110409597D01*
X194197541Y-110423457D01*
X194201118Y-110437736D01*
X194203278Y-110452297D01*
X194204000Y-110467000D01*
X194204000Y-110767000D01*
X194203278Y-110781703D01*
X194201118Y-110796264D01*
X194197541Y-110810543D01*
X194192582Y-110824403D01*
X194186288Y-110837710D01*
X194178720Y-110850336D01*
X194169952Y-110862159D01*
X194160066Y-110873066D01*
X194149159Y-110882952D01*
X194137336Y-110891720D01*
X194124710Y-110899288D01*
X194111403Y-110905582D01*
X194097543Y-110910541D01*
X194083264Y-110914118D01*
X194068703Y-110916278D01*
X194054000Y-110917000D01*
X192404000Y-110917000D01*
X192389297Y-110916278D01*
X192374736Y-110914118D01*
X192360457Y-110910541D01*
X192346597Y-110905582D01*
X192333290Y-110899288D01*
X192320664Y-110891720D01*
X192308841Y-110882952D01*
X192297934Y-110873066D01*
X192288048Y-110862159D01*
X192279280Y-110850336D01*
X192271712Y-110837710D01*
X192265418Y-110824403D01*
X192260459Y-110810543D01*
X192256882Y-110796264D01*
X192254722Y-110781703D01*
X192254000Y-110767000D01*
X192254000Y-110467000D01*
X192254722Y-110452297D01*
X192256882Y-110437736D01*
X192260459Y-110423457D01*
X192265418Y-110409597D01*
X192271712Y-110396290D01*
X192279280Y-110383664D01*
X192288048Y-110371841D01*
X192297934Y-110360934D01*
X192308841Y-110351048D01*
X192320664Y-110342280D01*
X192333290Y-110334712D01*
X192346597Y-110328418D01*
X192360457Y-110323459D01*
X192374736Y-110319882D01*
X192389297Y-110317722D01*
X192404000Y-110317000D01*
X194054000Y-110317000D01*
X194068703Y-110317722D01*
X194068703Y-110317722D01*
G37*
D25*
X193229000Y-110617000D03*
D19*
G36*
X194068703Y-109047722D02*
G01*
X194083264Y-109049882D01*
X194097543Y-109053459D01*
X194111403Y-109058418D01*
X194124710Y-109064712D01*
X194137336Y-109072280D01*
X194149159Y-109081048D01*
X194160066Y-109090934D01*
X194169952Y-109101841D01*
X194178720Y-109113664D01*
X194186288Y-109126290D01*
X194192582Y-109139597D01*
X194197541Y-109153457D01*
X194201118Y-109167736D01*
X194203278Y-109182297D01*
X194204000Y-109197000D01*
X194204000Y-109497000D01*
X194203278Y-109511703D01*
X194201118Y-109526264D01*
X194197541Y-109540543D01*
X194192582Y-109554403D01*
X194186288Y-109567710D01*
X194178720Y-109580336D01*
X194169952Y-109592159D01*
X194160066Y-109603066D01*
X194149159Y-109612952D01*
X194137336Y-109621720D01*
X194124710Y-109629288D01*
X194111403Y-109635582D01*
X194097543Y-109640541D01*
X194083264Y-109644118D01*
X194068703Y-109646278D01*
X194054000Y-109647000D01*
X192404000Y-109647000D01*
X192389297Y-109646278D01*
X192374736Y-109644118D01*
X192360457Y-109640541D01*
X192346597Y-109635582D01*
X192333290Y-109629288D01*
X192320664Y-109621720D01*
X192308841Y-109612952D01*
X192297934Y-109603066D01*
X192288048Y-109592159D01*
X192279280Y-109580336D01*
X192271712Y-109567710D01*
X192265418Y-109554403D01*
X192260459Y-109540543D01*
X192256882Y-109526264D01*
X192254722Y-109511703D01*
X192254000Y-109497000D01*
X192254000Y-109197000D01*
X192254722Y-109182297D01*
X192256882Y-109167736D01*
X192260459Y-109153457D01*
X192265418Y-109139597D01*
X192271712Y-109126290D01*
X192279280Y-109113664D01*
X192288048Y-109101841D01*
X192297934Y-109090934D01*
X192308841Y-109081048D01*
X192320664Y-109072280D01*
X192333290Y-109064712D01*
X192346597Y-109058418D01*
X192360457Y-109053459D01*
X192374736Y-109049882D01*
X192389297Y-109047722D01*
X192404000Y-109047000D01*
X194054000Y-109047000D01*
X194068703Y-109047722D01*
X194068703Y-109047722D01*
G37*
D25*
X193229000Y-109347000D03*
D19*
G36*
X194068703Y-107777722D02*
G01*
X194083264Y-107779882D01*
X194097543Y-107783459D01*
X194111403Y-107788418D01*
X194124710Y-107794712D01*
X194137336Y-107802280D01*
X194149159Y-107811048D01*
X194160066Y-107820934D01*
X194169952Y-107831841D01*
X194178720Y-107843664D01*
X194186288Y-107856290D01*
X194192582Y-107869597D01*
X194197541Y-107883457D01*
X194201118Y-107897736D01*
X194203278Y-107912297D01*
X194204000Y-107927000D01*
X194204000Y-108227000D01*
X194203278Y-108241703D01*
X194201118Y-108256264D01*
X194197541Y-108270543D01*
X194192582Y-108284403D01*
X194186288Y-108297710D01*
X194178720Y-108310336D01*
X194169952Y-108322159D01*
X194160066Y-108333066D01*
X194149159Y-108342952D01*
X194137336Y-108351720D01*
X194124710Y-108359288D01*
X194111403Y-108365582D01*
X194097543Y-108370541D01*
X194083264Y-108374118D01*
X194068703Y-108376278D01*
X194054000Y-108377000D01*
X192404000Y-108377000D01*
X192389297Y-108376278D01*
X192374736Y-108374118D01*
X192360457Y-108370541D01*
X192346597Y-108365582D01*
X192333290Y-108359288D01*
X192320664Y-108351720D01*
X192308841Y-108342952D01*
X192297934Y-108333066D01*
X192288048Y-108322159D01*
X192279280Y-108310336D01*
X192271712Y-108297710D01*
X192265418Y-108284403D01*
X192260459Y-108270543D01*
X192256882Y-108256264D01*
X192254722Y-108241703D01*
X192254000Y-108227000D01*
X192254000Y-107927000D01*
X192254722Y-107912297D01*
X192256882Y-107897736D01*
X192260459Y-107883457D01*
X192265418Y-107869597D01*
X192271712Y-107856290D01*
X192279280Y-107843664D01*
X192288048Y-107831841D01*
X192297934Y-107820934D01*
X192308841Y-107811048D01*
X192320664Y-107802280D01*
X192333290Y-107794712D01*
X192346597Y-107788418D01*
X192360457Y-107783459D01*
X192374736Y-107779882D01*
X192389297Y-107777722D01*
X192404000Y-107777000D01*
X194054000Y-107777000D01*
X194068703Y-107777722D01*
X194068703Y-107777722D01*
G37*
D25*
X193229000Y-108077000D03*
D19*
G36*
X194068703Y-106507722D02*
G01*
X194083264Y-106509882D01*
X194097543Y-106513459D01*
X194111403Y-106518418D01*
X194124710Y-106524712D01*
X194137336Y-106532280D01*
X194149159Y-106541048D01*
X194160066Y-106550934D01*
X194169952Y-106561841D01*
X194178720Y-106573664D01*
X194186288Y-106586290D01*
X194192582Y-106599597D01*
X194197541Y-106613457D01*
X194201118Y-106627736D01*
X194203278Y-106642297D01*
X194204000Y-106657000D01*
X194204000Y-106957000D01*
X194203278Y-106971703D01*
X194201118Y-106986264D01*
X194197541Y-107000543D01*
X194192582Y-107014403D01*
X194186288Y-107027710D01*
X194178720Y-107040336D01*
X194169952Y-107052159D01*
X194160066Y-107063066D01*
X194149159Y-107072952D01*
X194137336Y-107081720D01*
X194124710Y-107089288D01*
X194111403Y-107095582D01*
X194097543Y-107100541D01*
X194083264Y-107104118D01*
X194068703Y-107106278D01*
X194054000Y-107107000D01*
X192404000Y-107107000D01*
X192389297Y-107106278D01*
X192374736Y-107104118D01*
X192360457Y-107100541D01*
X192346597Y-107095582D01*
X192333290Y-107089288D01*
X192320664Y-107081720D01*
X192308841Y-107072952D01*
X192297934Y-107063066D01*
X192288048Y-107052159D01*
X192279280Y-107040336D01*
X192271712Y-107027710D01*
X192265418Y-107014403D01*
X192260459Y-107000543D01*
X192256882Y-106986264D01*
X192254722Y-106971703D01*
X192254000Y-106957000D01*
X192254000Y-106657000D01*
X192254722Y-106642297D01*
X192256882Y-106627736D01*
X192260459Y-106613457D01*
X192265418Y-106599597D01*
X192271712Y-106586290D01*
X192279280Y-106573664D01*
X192288048Y-106561841D01*
X192297934Y-106550934D01*
X192308841Y-106541048D01*
X192320664Y-106532280D01*
X192333290Y-106524712D01*
X192346597Y-106518418D01*
X192360457Y-106513459D01*
X192374736Y-106509882D01*
X192389297Y-106507722D01*
X192404000Y-106507000D01*
X194054000Y-106507000D01*
X194068703Y-106507722D01*
X194068703Y-106507722D01*
G37*
D25*
X193229000Y-106807000D03*
D19*
G36*
X194068703Y-105237722D02*
G01*
X194083264Y-105239882D01*
X194097543Y-105243459D01*
X194111403Y-105248418D01*
X194124710Y-105254712D01*
X194137336Y-105262280D01*
X194149159Y-105271048D01*
X194160066Y-105280934D01*
X194169952Y-105291841D01*
X194178720Y-105303664D01*
X194186288Y-105316290D01*
X194192582Y-105329597D01*
X194197541Y-105343457D01*
X194201118Y-105357736D01*
X194203278Y-105372297D01*
X194204000Y-105387000D01*
X194204000Y-105687000D01*
X194203278Y-105701703D01*
X194201118Y-105716264D01*
X194197541Y-105730543D01*
X194192582Y-105744403D01*
X194186288Y-105757710D01*
X194178720Y-105770336D01*
X194169952Y-105782159D01*
X194160066Y-105793066D01*
X194149159Y-105802952D01*
X194137336Y-105811720D01*
X194124710Y-105819288D01*
X194111403Y-105825582D01*
X194097543Y-105830541D01*
X194083264Y-105834118D01*
X194068703Y-105836278D01*
X194054000Y-105837000D01*
X192404000Y-105837000D01*
X192389297Y-105836278D01*
X192374736Y-105834118D01*
X192360457Y-105830541D01*
X192346597Y-105825582D01*
X192333290Y-105819288D01*
X192320664Y-105811720D01*
X192308841Y-105802952D01*
X192297934Y-105793066D01*
X192288048Y-105782159D01*
X192279280Y-105770336D01*
X192271712Y-105757710D01*
X192265418Y-105744403D01*
X192260459Y-105730543D01*
X192256882Y-105716264D01*
X192254722Y-105701703D01*
X192254000Y-105687000D01*
X192254000Y-105387000D01*
X192254722Y-105372297D01*
X192256882Y-105357736D01*
X192260459Y-105343457D01*
X192265418Y-105329597D01*
X192271712Y-105316290D01*
X192279280Y-105303664D01*
X192288048Y-105291841D01*
X192297934Y-105280934D01*
X192308841Y-105271048D01*
X192320664Y-105262280D01*
X192333290Y-105254712D01*
X192346597Y-105248418D01*
X192360457Y-105243459D01*
X192374736Y-105239882D01*
X192389297Y-105237722D01*
X192404000Y-105237000D01*
X194054000Y-105237000D01*
X194068703Y-105237722D01*
X194068703Y-105237722D01*
G37*
D25*
X193229000Y-105537000D03*
D19*
G36*
X194068703Y-103967722D02*
G01*
X194083264Y-103969882D01*
X194097543Y-103973459D01*
X194111403Y-103978418D01*
X194124710Y-103984712D01*
X194137336Y-103992280D01*
X194149159Y-104001048D01*
X194160066Y-104010934D01*
X194169952Y-104021841D01*
X194178720Y-104033664D01*
X194186288Y-104046290D01*
X194192582Y-104059597D01*
X194197541Y-104073457D01*
X194201118Y-104087736D01*
X194203278Y-104102297D01*
X194204000Y-104117000D01*
X194204000Y-104417000D01*
X194203278Y-104431703D01*
X194201118Y-104446264D01*
X194197541Y-104460543D01*
X194192582Y-104474403D01*
X194186288Y-104487710D01*
X194178720Y-104500336D01*
X194169952Y-104512159D01*
X194160066Y-104523066D01*
X194149159Y-104532952D01*
X194137336Y-104541720D01*
X194124710Y-104549288D01*
X194111403Y-104555582D01*
X194097543Y-104560541D01*
X194083264Y-104564118D01*
X194068703Y-104566278D01*
X194054000Y-104567000D01*
X192404000Y-104567000D01*
X192389297Y-104566278D01*
X192374736Y-104564118D01*
X192360457Y-104560541D01*
X192346597Y-104555582D01*
X192333290Y-104549288D01*
X192320664Y-104541720D01*
X192308841Y-104532952D01*
X192297934Y-104523066D01*
X192288048Y-104512159D01*
X192279280Y-104500336D01*
X192271712Y-104487710D01*
X192265418Y-104474403D01*
X192260459Y-104460543D01*
X192256882Y-104446264D01*
X192254722Y-104431703D01*
X192254000Y-104417000D01*
X192254000Y-104117000D01*
X192254722Y-104102297D01*
X192256882Y-104087736D01*
X192260459Y-104073457D01*
X192265418Y-104059597D01*
X192271712Y-104046290D01*
X192279280Y-104033664D01*
X192288048Y-104021841D01*
X192297934Y-104010934D01*
X192308841Y-104001048D01*
X192320664Y-103992280D01*
X192333290Y-103984712D01*
X192346597Y-103978418D01*
X192360457Y-103973459D01*
X192374736Y-103969882D01*
X192389297Y-103967722D01*
X192404000Y-103967000D01*
X194054000Y-103967000D01*
X194068703Y-103967722D01*
X194068703Y-103967722D01*
G37*
D25*
X193229000Y-104267000D03*
D19*
G36*
X189118703Y-103967722D02*
G01*
X189133264Y-103969882D01*
X189147543Y-103973459D01*
X189161403Y-103978418D01*
X189174710Y-103984712D01*
X189187336Y-103992280D01*
X189199159Y-104001048D01*
X189210066Y-104010934D01*
X189219952Y-104021841D01*
X189228720Y-104033664D01*
X189236288Y-104046290D01*
X189242582Y-104059597D01*
X189247541Y-104073457D01*
X189251118Y-104087736D01*
X189253278Y-104102297D01*
X189254000Y-104117000D01*
X189254000Y-104417000D01*
X189253278Y-104431703D01*
X189251118Y-104446264D01*
X189247541Y-104460543D01*
X189242582Y-104474403D01*
X189236288Y-104487710D01*
X189228720Y-104500336D01*
X189219952Y-104512159D01*
X189210066Y-104523066D01*
X189199159Y-104532952D01*
X189187336Y-104541720D01*
X189174710Y-104549288D01*
X189161403Y-104555582D01*
X189147543Y-104560541D01*
X189133264Y-104564118D01*
X189118703Y-104566278D01*
X189104000Y-104567000D01*
X187454000Y-104567000D01*
X187439297Y-104566278D01*
X187424736Y-104564118D01*
X187410457Y-104560541D01*
X187396597Y-104555582D01*
X187383290Y-104549288D01*
X187370664Y-104541720D01*
X187358841Y-104532952D01*
X187347934Y-104523066D01*
X187338048Y-104512159D01*
X187329280Y-104500336D01*
X187321712Y-104487710D01*
X187315418Y-104474403D01*
X187310459Y-104460543D01*
X187306882Y-104446264D01*
X187304722Y-104431703D01*
X187304000Y-104417000D01*
X187304000Y-104117000D01*
X187304722Y-104102297D01*
X187306882Y-104087736D01*
X187310459Y-104073457D01*
X187315418Y-104059597D01*
X187321712Y-104046290D01*
X187329280Y-104033664D01*
X187338048Y-104021841D01*
X187347934Y-104010934D01*
X187358841Y-104001048D01*
X187370664Y-103992280D01*
X187383290Y-103984712D01*
X187396597Y-103978418D01*
X187410457Y-103973459D01*
X187424736Y-103969882D01*
X187439297Y-103967722D01*
X187454000Y-103967000D01*
X189104000Y-103967000D01*
X189118703Y-103967722D01*
X189118703Y-103967722D01*
G37*
D25*
X188279000Y-104267000D03*
D19*
G36*
X189118703Y-105237722D02*
G01*
X189133264Y-105239882D01*
X189147543Y-105243459D01*
X189161403Y-105248418D01*
X189174710Y-105254712D01*
X189187336Y-105262280D01*
X189199159Y-105271048D01*
X189210066Y-105280934D01*
X189219952Y-105291841D01*
X189228720Y-105303664D01*
X189236288Y-105316290D01*
X189242582Y-105329597D01*
X189247541Y-105343457D01*
X189251118Y-105357736D01*
X189253278Y-105372297D01*
X189254000Y-105387000D01*
X189254000Y-105687000D01*
X189253278Y-105701703D01*
X189251118Y-105716264D01*
X189247541Y-105730543D01*
X189242582Y-105744403D01*
X189236288Y-105757710D01*
X189228720Y-105770336D01*
X189219952Y-105782159D01*
X189210066Y-105793066D01*
X189199159Y-105802952D01*
X189187336Y-105811720D01*
X189174710Y-105819288D01*
X189161403Y-105825582D01*
X189147543Y-105830541D01*
X189133264Y-105834118D01*
X189118703Y-105836278D01*
X189104000Y-105837000D01*
X187454000Y-105837000D01*
X187439297Y-105836278D01*
X187424736Y-105834118D01*
X187410457Y-105830541D01*
X187396597Y-105825582D01*
X187383290Y-105819288D01*
X187370664Y-105811720D01*
X187358841Y-105802952D01*
X187347934Y-105793066D01*
X187338048Y-105782159D01*
X187329280Y-105770336D01*
X187321712Y-105757710D01*
X187315418Y-105744403D01*
X187310459Y-105730543D01*
X187306882Y-105716264D01*
X187304722Y-105701703D01*
X187304000Y-105687000D01*
X187304000Y-105387000D01*
X187304722Y-105372297D01*
X187306882Y-105357736D01*
X187310459Y-105343457D01*
X187315418Y-105329597D01*
X187321712Y-105316290D01*
X187329280Y-105303664D01*
X187338048Y-105291841D01*
X187347934Y-105280934D01*
X187358841Y-105271048D01*
X187370664Y-105262280D01*
X187383290Y-105254712D01*
X187396597Y-105248418D01*
X187410457Y-105243459D01*
X187424736Y-105239882D01*
X187439297Y-105237722D01*
X187454000Y-105237000D01*
X189104000Y-105237000D01*
X189118703Y-105237722D01*
X189118703Y-105237722D01*
G37*
D25*
X188279000Y-105537000D03*
D19*
G36*
X189118703Y-106507722D02*
G01*
X189133264Y-106509882D01*
X189147543Y-106513459D01*
X189161403Y-106518418D01*
X189174710Y-106524712D01*
X189187336Y-106532280D01*
X189199159Y-106541048D01*
X189210066Y-106550934D01*
X189219952Y-106561841D01*
X189228720Y-106573664D01*
X189236288Y-106586290D01*
X189242582Y-106599597D01*
X189247541Y-106613457D01*
X189251118Y-106627736D01*
X189253278Y-106642297D01*
X189254000Y-106657000D01*
X189254000Y-106957000D01*
X189253278Y-106971703D01*
X189251118Y-106986264D01*
X189247541Y-107000543D01*
X189242582Y-107014403D01*
X189236288Y-107027710D01*
X189228720Y-107040336D01*
X189219952Y-107052159D01*
X189210066Y-107063066D01*
X189199159Y-107072952D01*
X189187336Y-107081720D01*
X189174710Y-107089288D01*
X189161403Y-107095582D01*
X189147543Y-107100541D01*
X189133264Y-107104118D01*
X189118703Y-107106278D01*
X189104000Y-107107000D01*
X187454000Y-107107000D01*
X187439297Y-107106278D01*
X187424736Y-107104118D01*
X187410457Y-107100541D01*
X187396597Y-107095582D01*
X187383290Y-107089288D01*
X187370664Y-107081720D01*
X187358841Y-107072952D01*
X187347934Y-107063066D01*
X187338048Y-107052159D01*
X187329280Y-107040336D01*
X187321712Y-107027710D01*
X187315418Y-107014403D01*
X187310459Y-107000543D01*
X187306882Y-106986264D01*
X187304722Y-106971703D01*
X187304000Y-106957000D01*
X187304000Y-106657000D01*
X187304722Y-106642297D01*
X187306882Y-106627736D01*
X187310459Y-106613457D01*
X187315418Y-106599597D01*
X187321712Y-106586290D01*
X187329280Y-106573664D01*
X187338048Y-106561841D01*
X187347934Y-106550934D01*
X187358841Y-106541048D01*
X187370664Y-106532280D01*
X187383290Y-106524712D01*
X187396597Y-106518418D01*
X187410457Y-106513459D01*
X187424736Y-106509882D01*
X187439297Y-106507722D01*
X187454000Y-106507000D01*
X189104000Y-106507000D01*
X189118703Y-106507722D01*
X189118703Y-106507722D01*
G37*
D25*
X188279000Y-106807000D03*
D19*
G36*
X189118703Y-107777722D02*
G01*
X189133264Y-107779882D01*
X189147543Y-107783459D01*
X189161403Y-107788418D01*
X189174710Y-107794712D01*
X189187336Y-107802280D01*
X189199159Y-107811048D01*
X189210066Y-107820934D01*
X189219952Y-107831841D01*
X189228720Y-107843664D01*
X189236288Y-107856290D01*
X189242582Y-107869597D01*
X189247541Y-107883457D01*
X189251118Y-107897736D01*
X189253278Y-107912297D01*
X189254000Y-107927000D01*
X189254000Y-108227000D01*
X189253278Y-108241703D01*
X189251118Y-108256264D01*
X189247541Y-108270543D01*
X189242582Y-108284403D01*
X189236288Y-108297710D01*
X189228720Y-108310336D01*
X189219952Y-108322159D01*
X189210066Y-108333066D01*
X189199159Y-108342952D01*
X189187336Y-108351720D01*
X189174710Y-108359288D01*
X189161403Y-108365582D01*
X189147543Y-108370541D01*
X189133264Y-108374118D01*
X189118703Y-108376278D01*
X189104000Y-108377000D01*
X187454000Y-108377000D01*
X187439297Y-108376278D01*
X187424736Y-108374118D01*
X187410457Y-108370541D01*
X187396597Y-108365582D01*
X187383290Y-108359288D01*
X187370664Y-108351720D01*
X187358841Y-108342952D01*
X187347934Y-108333066D01*
X187338048Y-108322159D01*
X187329280Y-108310336D01*
X187321712Y-108297710D01*
X187315418Y-108284403D01*
X187310459Y-108270543D01*
X187306882Y-108256264D01*
X187304722Y-108241703D01*
X187304000Y-108227000D01*
X187304000Y-107927000D01*
X187304722Y-107912297D01*
X187306882Y-107897736D01*
X187310459Y-107883457D01*
X187315418Y-107869597D01*
X187321712Y-107856290D01*
X187329280Y-107843664D01*
X187338048Y-107831841D01*
X187347934Y-107820934D01*
X187358841Y-107811048D01*
X187370664Y-107802280D01*
X187383290Y-107794712D01*
X187396597Y-107788418D01*
X187410457Y-107783459D01*
X187424736Y-107779882D01*
X187439297Y-107777722D01*
X187454000Y-107777000D01*
X189104000Y-107777000D01*
X189118703Y-107777722D01*
X189118703Y-107777722D01*
G37*
D25*
X188279000Y-108077000D03*
D19*
G36*
X189118703Y-109047722D02*
G01*
X189133264Y-109049882D01*
X189147543Y-109053459D01*
X189161403Y-109058418D01*
X189174710Y-109064712D01*
X189187336Y-109072280D01*
X189199159Y-109081048D01*
X189210066Y-109090934D01*
X189219952Y-109101841D01*
X189228720Y-109113664D01*
X189236288Y-109126290D01*
X189242582Y-109139597D01*
X189247541Y-109153457D01*
X189251118Y-109167736D01*
X189253278Y-109182297D01*
X189254000Y-109197000D01*
X189254000Y-109497000D01*
X189253278Y-109511703D01*
X189251118Y-109526264D01*
X189247541Y-109540543D01*
X189242582Y-109554403D01*
X189236288Y-109567710D01*
X189228720Y-109580336D01*
X189219952Y-109592159D01*
X189210066Y-109603066D01*
X189199159Y-109612952D01*
X189187336Y-109621720D01*
X189174710Y-109629288D01*
X189161403Y-109635582D01*
X189147543Y-109640541D01*
X189133264Y-109644118D01*
X189118703Y-109646278D01*
X189104000Y-109647000D01*
X187454000Y-109647000D01*
X187439297Y-109646278D01*
X187424736Y-109644118D01*
X187410457Y-109640541D01*
X187396597Y-109635582D01*
X187383290Y-109629288D01*
X187370664Y-109621720D01*
X187358841Y-109612952D01*
X187347934Y-109603066D01*
X187338048Y-109592159D01*
X187329280Y-109580336D01*
X187321712Y-109567710D01*
X187315418Y-109554403D01*
X187310459Y-109540543D01*
X187306882Y-109526264D01*
X187304722Y-109511703D01*
X187304000Y-109497000D01*
X187304000Y-109197000D01*
X187304722Y-109182297D01*
X187306882Y-109167736D01*
X187310459Y-109153457D01*
X187315418Y-109139597D01*
X187321712Y-109126290D01*
X187329280Y-109113664D01*
X187338048Y-109101841D01*
X187347934Y-109090934D01*
X187358841Y-109081048D01*
X187370664Y-109072280D01*
X187383290Y-109064712D01*
X187396597Y-109058418D01*
X187410457Y-109053459D01*
X187424736Y-109049882D01*
X187439297Y-109047722D01*
X187454000Y-109047000D01*
X189104000Y-109047000D01*
X189118703Y-109047722D01*
X189118703Y-109047722D01*
G37*
D25*
X188279000Y-109347000D03*
D19*
G36*
X189118703Y-110317722D02*
G01*
X189133264Y-110319882D01*
X189147543Y-110323459D01*
X189161403Y-110328418D01*
X189174710Y-110334712D01*
X189187336Y-110342280D01*
X189199159Y-110351048D01*
X189210066Y-110360934D01*
X189219952Y-110371841D01*
X189228720Y-110383664D01*
X189236288Y-110396290D01*
X189242582Y-110409597D01*
X189247541Y-110423457D01*
X189251118Y-110437736D01*
X189253278Y-110452297D01*
X189254000Y-110467000D01*
X189254000Y-110767000D01*
X189253278Y-110781703D01*
X189251118Y-110796264D01*
X189247541Y-110810543D01*
X189242582Y-110824403D01*
X189236288Y-110837710D01*
X189228720Y-110850336D01*
X189219952Y-110862159D01*
X189210066Y-110873066D01*
X189199159Y-110882952D01*
X189187336Y-110891720D01*
X189174710Y-110899288D01*
X189161403Y-110905582D01*
X189147543Y-110910541D01*
X189133264Y-110914118D01*
X189118703Y-110916278D01*
X189104000Y-110917000D01*
X187454000Y-110917000D01*
X187439297Y-110916278D01*
X187424736Y-110914118D01*
X187410457Y-110910541D01*
X187396597Y-110905582D01*
X187383290Y-110899288D01*
X187370664Y-110891720D01*
X187358841Y-110882952D01*
X187347934Y-110873066D01*
X187338048Y-110862159D01*
X187329280Y-110850336D01*
X187321712Y-110837710D01*
X187315418Y-110824403D01*
X187310459Y-110810543D01*
X187306882Y-110796264D01*
X187304722Y-110781703D01*
X187304000Y-110767000D01*
X187304000Y-110467000D01*
X187304722Y-110452297D01*
X187306882Y-110437736D01*
X187310459Y-110423457D01*
X187315418Y-110409597D01*
X187321712Y-110396290D01*
X187329280Y-110383664D01*
X187338048Y-110371841D01*
X187347934Y-110360934D01*
X187358841Y-110351048D01*
X187370664Y-110342280D01*
X187383290Y-110334712D01*
X187396597Y-110328418D01*
X187410457Y-110323459D01*
X187424736Y-110319882D01*
X187439297Y-110317722D01*
X187454000Y-110317000D01*
X189104000Y-110317000D01*
X189118703Y-110317722D01*
X189118703Y-110317722D01*
G37*
D25*
X188279000Y-110617000D03*
D19*
G36*
X189118703Y-111587722D02*
G01*
X189133264Y-111589882D01*
X189147543Y-111593459D01*
X189161403Y-111598418D01*
X189174710Y-111604712D01*
X189187336Y-111612280D01*
X189199159Y-111621048D01*
X189210066Y-111630934D01*
X189219952Y-111641841D01*
X189228720Y-111653664D01*
X189236288Y-111666290D01*
X189242582Y-111679597D01*
X189247541Y-111693457D01*
X189251118Y-111707736D01*
X189253278Y-111722297D01*
X189254000Y-111737000D01*
X189254000Y-112037000D01*
X189253278Y-112051703D01*
X189251118Y-112066264D01*
X189247541Y-112080543D01*
X189242582Y-112094403D01*
X189236288Y-112107710D01*
X189228720Y-112120336D01*
X189219952Y-112132159D01*
X189210066Y-112143066D01*
X189199159Y-112152952D01*
X189187336Y-112161720D01*
X189174710Y-112169288D01*
X189161403Y-112175582D01*
X189147543Y-112180541D01*
X189133264Y-112184118D01*
X189118703Y-112186278D01*
X189104000Y-112187000D01*
X187454000Y-112187000D01*
X187439297Y-112186278D01*
X187424736Y-112184118D01*
X187410457Y-112180541D01*
X187396597Y-112175582D01*
X187383290Y-112169288D01*
X187370664Y-112161720D01*
X187358841Y-112152952D01*
X187347934Y-112143066D01*
X187338048Y-112132159D01*
X187329280Y-112120336D01*
X187321712Y-112107710D01*
X187315418Y-112094403D01*
X187310459Y-112080543D01*
X187306882Y-112066264D01*
X187304722Y-112051703D01*
X187304000Y-112037000D01*
X187304000Y-111737000D01*
X187304722Y-111722297D01*
X187306882Y-111707736D01*
X187310459Y-111693457D01*
X187315418Y-111679597D01*
X187321712Y-111666290D01*
X187329280Y-111653664D01*
X187338048Y-111641841D01*
X187347934Y-111630934D01*
X187358841Y-111621048D01*
X187370664Y-111612280D01*
X187383290Y-111604712D01*
X187396597Y-111598418D01*
X187410457Y-111593459D01*
X187424736Y-111589882D01*
X187439297Y-111587722D01*
X187454000Y-111587000D01*
X189104000Y-111587000D01*
X189118703Y-111587722D01*
X189118703Y-111587722D01*
G37*
D25*
X188279000Y-111887000D03*
D19*
G36*
X189118703Y-112857722D02*
G01*
X189133264Y-112859882D01*
X189147543Y-112863459D01*
X189161403Y-112868418D01*
X189174710Y-112874712D01*
X189187336Y-112882280D01*
X189199159Y-112891048D01*
X189210066Y-112900934D01*
X189219952Y-112911841D01*
X189228720Y-112923664D01*
X189236288Y-112936290D01*
X189242582Y-112949597D01*
X189247541Y-112963457D01*
X189251118Y-112977736D01*
X189253278Y-112992297D01*
X189254000Y-113007000D01*
X189254000Y-113307000D01*
X189253278Y-113321703D01*
X189251118Y-113336264D01*
X189247541Y-113350543D01*
X189242582Y-113364403D01*
X189236288Y-113377710D01*
X189228720Y-113390336D01*
X189219952Y-113402159D01*
X189210066Y-113413066D01*
X189199159Y-113422952D01*
X189187336Y-113431720D01*
X189174710Y-113439288D01*
X189161403Y-113445582D01*
X189147543Y-113450541D01*
X189133264Y-113454118D01*
X189118703Y-113456278D01*
X189104000Y-113457000D01*
X187454000Y-113457000D01*
X187439297Y-113456278D01*
X187424736Y-113454118D01*
X187410457Y-113450541D01*
X187396597Y-113445582D01*
X187383290Y-113439288D01*
X187370664Y-113431720D01*
X187358841Y-113422952D01*
X187347934Y-113413066D01*
X187338048Y-113402159D01*
X187329280Y-113390336D01*
X187321712Y-113377710D01*
X187315418Y-113364403D01*
X187310459Y-113350543D01*
X187306882Y-113336264D01*
X187304722Y-113321703D01*
X187304000Y-113307000D01*
X187304000Y-113007000D01*
X187304722Y-112992297D01*
X187306882Y-112977736D01*
X187310459Y-112963457D01*
X187315418Y-112949597D01*
X187321712Y-112936290D01*
X187329280Y-112923664D01*
X187338048Y-112911841D01*
X187347934Y-112900934D01*
X187358841Y-112891048D01*
X187370664Y-112882280D01*
X187383290Y-112874712D01*
X187396597Y-112868418D01*
X187410457Y-112863459D01*
X187424736Y-112859882D01*
X187439297Y-112857722D01*
X187454000Y-112857000D01*
X189104000Y-112857000D01*
X189118703Y-112857722D01*
X189118703Y-112857722D01*
G37*
D25*
X188279000Y-113157000D03*
D26*
X112820000Y-70636000D03*
X105620000Y-70636000D03*
X112820000Y-73636000D03*
X105620000Y-73636000D03*
D15*
X133096000Y-75946000D03*
D14*
X130556000Y-75946000D03*
X117856000Y-75946000D03*
D15*
X120396000Y-75946000D03*
D14*
X146558000Y-115443000D03*
D15*
X149098000Y-115443000D03*
X151638000Y-115443000D03*
X138938000Y-115443000D03*
X136398000Y-115443000D03*
D14*
X133858000Y-115443000D03*
M02*
